<?xml version="1.0" encoding="utf-8"?>
<svg x="0pt" y="0pt" width="283.465pt" height="283.465pt" viewBox="0 0 283.465 283.465" xmlns="http://www.w3.org/2000/svg" xmlns:xlink="http://www.w3.org/1999/xlink">
  <g id="am1">
    <path id="am2" style="fill:#ffffff;fill-opacity:1;fill-rule:evenodd;opacity:1;stroke:#8cc63f;stroke-linecap:butt;stroke-linejoin:miter;stroke-miterlimit:10;stroke-opacity:1;stroke-width:8;" d="M142,5.99999 C217.111,5.99999,278,66.8893,278,142 C278,217.111,217.111,278,142,278 C66.8893,278,5.99998,217.111,5.99998,142 C5.99998,66.8893,66.8893,5.99999,142,5.99999 z"/>
    <g id="am3">
      <g id="am4">
        <path style="fill:#00a69e;fill-opacity:1;fill-rule:nonzero;opacity:1;stroke:none;" d="M57.8144,237.768 C57.8144,237.768,42.94,222.961,42.94,222.961 C42.94,222.961,46.1768,219.71,46.1768,219.71 C46.1768,219.71,51.6706,225.179,51.6706,225.179 C51.6706,225.179,66.7137,210.068,66.7137,210.068 C66.7137,210.068,70.5756,213.912,70.5756,213.912 C70.5756,213.912,55.5325,229.023,55.5325,229.023 C55.5325,229.023,61.0512,234.517,61.0512,234.517 C61.0512,234.517,57.8144,237.768,57.8144,237.768 z M38.5953,200.126 C39.3978,197.66,40.9535,195.666,43.2625,194.143 C45.6106,192.595,48.0638,191.946,50.622,192.197 C53.1803,192.447,55.3657,193.947,57.1783,196.696 C58.9908,199.445,59.5081,202.045,58.7301,204.495 C57.9521,206.945,56.3891,208.944,54.041,210.492 C51.732,212.014,49.2862,212.658,46.7034,212.424 C44.1207,212.19,41.923,210.698,40.1105,207.949 C38.2979,205.2,37.7929,202.592,38.5953,200.126 z M43.0908,201.962 C42.662,203.186,42.8507,204.409,43.657,205.632 C44.4633,206.855,45.5171,207.511,46.8183,207.6 C48.1196,207.69,49.5725,207.206,51.177,206.148 C52.7816,205.09,53.8015,203.944,54.2369,202.709 C54.6722,201.475,54.4868,200.246,53.6805,199.023 C52.8742,197.8,51.8196,197.148,50.5166,197.067 C49.2137,196.985,47.76,197.473,46.1554,198.531 C44.5509,199.589,43.5294,200.733,43.0908,201.962 z M36.9232,185.362 C36.9232,185.362,27.9335,182.189,27.9335,182.189 C27.9335,182.189,25.6646,176.414,25.6646,176.414 C25.6646,176.414,34.936,179.967,34.936,179.967 C34.936,179.967,43.3197,169.194,43.3197,169.194 C43.3197,169.194,45.5308,174.822,45.5308,174.822 C45.5308,174.822,39.5842,182.088,39.5842,182.088 C39.5842,182.088,42.355,183.228,42.355,183.228 C42.355,183.228,47.9668,181.023,47.9668,181.023 C47.9668,181.023,49.7665,185.604,49.7665,185.604 C49.7665,185.604,25.7324,195.046,25.7324,195.046 C25.7324,195.046,23.9327,190.465,23.9327,190.465 C23.9327,190.465,36.9232,185.362,36.9232,185.362 z M43.987,161.69 C43.3207,161.559,42.9225,161.529,42.7923,161.6 C42.7923,161.6,24.3405,172.046,24.3405,172.046 C24.3405,172.046,23.3585,166.561,23.3585,166.561 C23.3585,166.561,36.533,159.953,36.533,159.953 C36.533,159.953,21.9244,158.55,21.9244,158.55 C21.9244,158.55,20.9858,153.307,20.9858,153.307 C20.9858,153.307,40.6931,156.458,40.6931,156.458 C44.4921,157.063,46.8864,157.653,47.8759,158.225 C48.8653,158.798,49.5552,160.175,49.9455,162.355 C50.024,162.793,50.0841,163.146,50.1258,163.412 C50.1676,163.678,50.2186,164.08,50.279,164.617 C50.279,164.617,46.3339,165.323,46.3339,165.323 C46.3339,165.323,46.257,164.694,46.257,164.694 C46.1933,164.205,46.0934,163.747,45.9573,163.319 C45.8211,162.891,45.6224,162.546,45.3611,162.283 C45.1133,162.03,44.6553,161.832,43.987,161.69 z M23.4349,130.464 C25.5083,128.906,27.9272,128.167,30.6917,128.248 C33.503,128.329,35.8838,129.207,37.8341,130.882 C39.7844,132.556,40.7117,135.039,40.6162,138.331 C40.5206,141.622,39.4508,144.047,37.4066,145.606 C35.3625,147.165,32.9348,147.903,30.1235,147.821 C27.359,147.741,24.987,146.863,23.0074,145.188 C21.0279,143.513,20.0859,141.029,20.1814,137.738 C20.277,134.446,21.3614,132.021,23.4349,130.464 z M26.0596,134.549 C25.006,135.304,24.458,136.414,24.4154,137.878 C24.3729,139.342,24.8586,140.485,25.8723,141.306 C26.886,142.126,28.3534,142.565,30.2745,142.62 C32.1955,142.676,33.6888,142.324,34.7543,141.563 C35.8198,140.803,36.3737,139.691,36.4162,138.227 C36.4588,136.762,35.9701,135.623,34.9504,134.808 C33.9306,133.992,32.4602,133.557,30.5392,133.501 C28.6181,133.445,27.1249,133.795,26.0596,134.549 z M18.394,107.927 C18.394,107.927,19.9107,102.766,19.9107,102.766 C19.9107,102.766,44.7695,110.072,44.7695,110.072 C44.7695,110.072,43.2528,115.233,43.2528,115.233 C43.2528,115.233,18.394,107.927,18.394,107.927 z M36.3461,83.7951 C37.8272,83.1121,39.652,83.2876,41.8204,84.3216 C41.8204,84.3216,53.4666,89.8747,53.4666,89.8747 C53.4666,89.8747,51.2575,94.5078,51.2575,94.5078 C51.2575,94.5078,40.7378,89.4918,40.7378,89.4918 C39.8281,89.0581,39.072,88.8468,38.4694,88.8581 C37.369,88.8787,36.5213,89.5131,35.9261,90.7613 C35.1948,92.2951,35.3435,93.6577,36.3722,94.8493 C36.9185,95.4733,37.7259,96.0401,38.7943,96.5495 C38.7943,96.5495,48.1556,101.013,48.1556,101.013 C48.1556,101.013,46.007,105.519,46.007,105.519 C46.007,105.519,28.744,97.288,28.744,97.288 C28.744,97.288,30.8245,92.9246,30.8245,92.9246 C30.8245,92.9246,33.3473,94.1275,33.3473,94.1275 C32.7362,93.1221,32.3585,92.2669,32.2143,91.562 C31.96,90.2982,32.1733,88.9524,32.8542,87.5244 C33.7066,85.7367,34.8705,84.4936,36.3461,83.7951 z M46.8855,72.5704 C46.8711,73.1492,47.0456,73.5772,47.4088,73.8546 C47.8652,74.2031,48.3452,74.26,48.8488,74.0253 C49.3617,73.7977,50.7858,72.6955,53.1209,70.7188 C54.7026,69.42,56.1728,68.6627,57.5318,68.4472 C58.8929,68.248,60.1463,68.5858,61.2919,69.4606 C62.8008,70.6128,63.604,72.1145,63.7016,73.9658 C63.7993,75.8171,62.952,77.9163,61.1597,80.2634 C59.3319,82.657,57.4771,84.0385,55.5953,84.4078 C53.7135,84.777,51.9903,84.3642,50.4255,83.1694 C50.4255,83.1694,53.5087,79.1319,53.5087,79.1319 C54.2805,79.5886,54.9221,79.791,55.4336,79.7392 C56.3414,79.651,57.3038,78.9409,58.3208,77.609 C58.9183,76.8267,59.2766,76.1161,59.3958,75.4772 C59.515,74.8384,59.3418,74.3412,58.8761,73.9856 C58.429,73.6442,57.9468,73.5709,57.4295,73.7656 C56.9122,73.9604,55.4555,75.0376,53.0595,76.9974 C51.3154,78.3933,49.8517,79.1998,48.6685,79.4169 C47.4946,79.6411,46.3116,79.2981,45.1195,78.3877 C43.7131,77.3138,42.926,75.8391,42.7583,73.9638 C42.5905,72.0884,43.2712,70.1495,44.8003,68.1471 C46.2512,66.2471,47.8131,64.9885,49.4861,64.3713 C51.1591,63.7541,52.9945,64.0683,54.9924,65.3137 C54.9924,65.3137,51.952,69.2953,51.952,69.2953 C51.397,68.9601,50.8817,68.7951,50.4058,68.8003 C49.5314,68.8256,48.6923,69.3644,47.8886,70.4169 C47.2272,71.283,46.8928,72.0009,46.8855,72.5704 z M70.3377,63.572 C70.6194,63.5784,71.1288,63.2295,71.866,62.5252 C71.9761,62.42,72.0906,62.3066,72.2094,62.1849 C72.3282,62.0633,72.4429,61.9416,72.5535,61.8198 C72.5535,61.8198,75.1398,64.5271,75.1398,64.5271 C75.1398,64.5271,73.4847,66.2299,73.4847,66.2299 C71.8298,67.9244,70.3771,68.745,69.1267,68.6916 C68.3233,68.6649,67.5088,68.2195,66.6831,67.3552 C66.6831,67.3552,58.5354,58.8267,58.5354,58.8267 C58.5354,58.8267,56.6034,60.6724,56.6034,60.6724 C56.6034,60.6724,54.1385,58.0923,54.1385,58.0923 C54.1385,58.0923,56.0704,56.2466,56.0704,56.2466 C56.0704,56.2466,52.379,52.3827,52.379,52.3827 C52.379,52.3827,55.9633,48.9585,55.9633,48.9585 C55.9633,48.9585,59.6546,52.8223,59.6546,52.8223 C59.6546,52.8223,61.9043,50.6731,61.9043,50.6731 C61.9043,50.6731,64.3693,53.2532,64.3693,53.2532 C64.3693,53.2532,62.1196,55.4025,62.1196,55.4025 C62.1196,55.4025,69.1138,62.7235,69.1138,62.7235 C69.6562,63.2912,70.0641,63.574,70.3377,63.572 z M69.9905,44.0617 C69.9905,44.0617,81.6419,59.2721,81.6419,59.2721 C81.6419,59.2721,77.6091,62.3613,77.6091,62.3613 C77.6091,62.3613,65.9576,47.1509,65.9576,47.1509 C65.9576,47.1509,69.9905,44.0617,69.9905,44.0617 z M65.7896,38.5776 C65.7896,38.5776,68.6009,42.2476,68.6009,42.2476 C68.6009,42.2476,64.568,45.3369,64.568,45.3369 C64.568,45.3369,61.7567,41.6668,61.7567,41.6668 C61.7567,41.6668,65.7896,38.5776,65.7896,38.5776 z M88.7287,50.1182 C89.0023,50.1855,89.5752,49.9552,90.4473,49.4272 C90.5777,49.3483,90.714,49.2624,90.8563,49.1694 C90.9987,49.0764,91.137,48.9824,91.2713,48.8874 C91.2713,48.8874,93.2101,52.0905,93.2101,52.0905 C93.2101,52.0905,91.2255,53.3945,91.2255,53.3945 C89.2429,54.6905,87.647,55.177,86.4379,54.8541 C85.6593,54.6542,84.9606,54.0429,84.3416,53.0203 C84.3416,53.0203,78.2338,42.93,78.2338,42.93 C78.2338,42.93,75.9481,44.3136,75.9481,44.3136 C75.9481,44.3136,74.1003,41.2609,74.1003,41.2609 C74.1003,41.2609,76.386,39.8773,76.386,39.8773 C76.386,39.8773,73.6189,35.3058,73.6189,35.3058 C73.6189,35.3058,77.8595,32.7389,77.8595,32.7389 C77.8595,32.7389,80.6267,37.3104,80.6267,37.3104 C80.6267,37.3104,83.2884,35.6993,83.2884,35.6993 C83.2884,35.6993,85.1362,38.7519,85.1362,38.7519 C85.1362,38.7519,82.4745,40.3631,82.4745,40.3631 C82.4745,40.3631,87.7175,49.0248,87.7175,49.0248 C88.1241,49.6965,88.4611,50.061,88.7287,50.1182 z M103.923,37.6749 C103.923,37.6749,100.098,27.9783,100.098,27.9783 C100.098,27.9783,104.824,26.1141,104.824,26.1141 C104.824,26.1141,111.855,43.9376,111.855,43.9376 C111.855,43.9376,107.325,45.7244,107.325,45.7244 C107.325,45.7244,106.332,43.2062,106.332,43.2062 C106.31,43.2779,106.266,43.4844,106.199,43.8258 C106.132,44.1671,106.019,44.4886,105.861,44.7904 C105.389,45.7326,104.859,46.4579,104.272,46.9665 C103.686,47.4751,102.934,47.91,102.019,48.2713 C99.3807,49.3119,97.2296,49.0644,95.5657,47.5289 C94.6405,46.6844,93.7758,45.243,92.9717,43.2044 C92.9717,43.2044,88.7338,32.4613,88.7338,32.4613 C88.7338,32.4613,93.5086,30.5778,93.5086,30.5778 C93.5086,30.5778,97.7464,41.3209,97.7464,41.3209 C98.1464,42.3347,98.5673,43.0505,99.0092,43.4683 C99.7913,44.2054,100.804,44.3288,102.046,43.8386 C103.638,43.2108,104.474,42.1376,104.556,40.619 C104.586,39.8009,104.375,38.8196,103.923,37.6749 z M121.661,37.9471 C121.897,38.1008,122.514,38.0723,123.512,37.8614 C123.661,37.8299,123.818,37.7937,123.983,37.7529 C124.148,37.712,124.309,37.6689,124.467,37.6235 C124.467,37.6235,125.242,41.2867,125.242,41.2867 C125.242,41.2867,122.938,41.8634,122.938,41.8634 C120.639,42.4332,118.972,42.3663,117.937,41.6628 C117.268,41.2174,116.81,40.4099,116.563,39.2404 C116.563,39.2404,114.123,27.7005,114.123,27.7005 C114.123,27.7005,111.509,28.253,111.509,28.253 C111.509,28.253,110.771,24.7618,110.771,24.7618 C110.771,24.7618,113.385,24.2093,113.385,24.2093 C113.385,24.2093,112.28,18.981,112.28,18.981 C112.28,18.981,117.13,17.9559,117.13,17.9559 C117.13,17.9559,118.235,23.1841,118.235,23.1841 C118.235,23.1841,121.279,22.5407,121.279,22.5407 C121.279,22.5407,122.017,26.0319,122.017,26.0319 C122.017,26.0319,118.973,26.6753,118.973,26.6753 C118.973,26.6753,121.067,36.5815,121.067,36.5815 C121.23,37.3497,121.428,37.8049,121.661,37.9471 z M136.149,40.7325 C133.715,40.8574,131.527,40.1834,129.586,38.7106 C127.644,37.2377,126.583,34.7341,126.402,31.1997 C126.232,27.8877,126.942,25.305,128.53,23.4516 C130.119,21.5983,132.254,20.6029,134.934,20.4655 C136.525,20.3838,137.974,20.6087,139.281,21.1402 C140.587,21.6716,141.689,22.5598,142.585,23.8045 C143.393,24.9013,143.946,26.193,144.245,27.6797 C144.419,28.5508,144.536,29.8121,144.598,31.4635 C144.598,31.4635,131.501,32.1351,131.501,32.1351 C131.67,34.0508,132.342,35.3658,133.517,36.08 C134.232,36.5244,135.075,36.7217,136.046,36.6719 C137.076,36.6191,137.898,36.2836,138.512,35.6654 C138.847,35.3314,139.134,34.8766,139.375,34.3011 C139.375,34.3011,144.483,34.0391,144.483,34.0391 C144.413,35.1809,143.881,36.364,142.888,37.5884 C141.344,39.5332,139.098,40.5813,136.149,40.7325 z M135.145,24.5909 C133.987,24.6503,133.107,25.0592,132.506,25.8175 C131.906,26.5758,131.555,27.5795,131.455,28.8284 C131.455,28.8284,139.232,28.4296,139.232,28.4296 C139.082,27.1113,138.63,26.1283,137.875,25.4806 C137.12,24.8328,136.21,24.5363,135.145,24.5909 z M178.082,28.8747 C179.136,31.2438,179.316,33.7667,178.62,36.4432 C177.912,39.1652,176.524,41.2895,174.456,42.8161 C172.388,44.3428,169.76,44.6917,166.573,43.8628 C163.386,43.034,161.262,41.4492,160.199,39.1084 C159.137,36.7676,158.96,34.2362,159.668,31.5143 C160.364,28.8377,161.75,26.7219,163.825,25.1669 C165.901,23.6119,168.532,23.2488,171.719,24.0777 C174.906,24.9066,177.027,26.5056,178.082,28.8747 z M173.513,30.5198 C173.012,29.3241,172.053,28.5419,170.636,28.1732 C169.218,27.8045,167.996,28.0224,166.969,28.827 C165.943,29.6317,165.187,30.964,164.704,32.824 C164.22,34.684,164.23,36.2182,164.733,37.4267 C165.236,38.6352,166.196,39.4238,167.614,39.7925 C169.031,40.1612,170.251,39.9397,171.274,39.1279 C172.296,38.3162,173.049,36.9803,173.533,35.1203 C174.017,33.2603,174.01,31.7268,173.513,30.5198 z M192.558,32.4478 C192.558,32.4478,195.555,33.7982,195.555,33.7982 C195.555,33.7982,194.104,37.0194,194.104,37.0194 C194.104,37.0194,191.107,35.6691,191.107,35.6691 C191.107,35.6691,184.759,49.7562,184.759,49.7562 C184.759,49.7562,180.208,47.7054,180.208,47.7054 C180.208,47.7054,186.555,33.6182,186.555,33.6182 C186.555,33.6182,184.007,32.4701,184.007,32.4701 C184.007,32.4701,185.458,29.2488,185.458,29.2488 C185.458,29.2488,187.959,30.3753,187.959,30.3753 C187.959,30.3753,188.464,29.2534,188.464,29.2534 C189.307,27.3837,190.202,26.2383,191.15,25.8171 C192.284,25.0686,194.117,25.2648,196.649,26.4057 C196.938,26.5357,197.196,26.6617,197.424,26.7836 C197.652,26.9056,197.961,27.074,198.353,27.289 C198.353,27.289,196.678,31.0071,196.678,31.0071 C196.436,30.8595,196.016,30.6417,195.42,30.3537 C194.824,30.0657,194.347,30.0114,193.989,30.1911 C193.632,30.3707,193.377,30.6315,193.222,30.9734 C193.222,30.9734,192.558,32.4478,192.558,32.4478 z M213.733,36.3587 C213.733,36.3587,230.102,49.4954,230.102,49.4954 C230.102,49.4954,227.23,53.0735,227.23,53.0735 C227.23,53.0735,221.184,48.2215,221.184,48.2215 C221.184,48.2215,207.839,64.8507,207.839,64.8507 C207.839,64.8507,203.589,61.44,203.589,61.44 C203.589,61.44,216.934,44.8108,216.934,44.8108 C216.934,44.8108,210.861,39.9368,210.861,39.9368 C210.861,39.9368,213.733,36.3587,213.733,36.3587 z M218.234,76.4197 C216.661,74.558,215.872,72.4088,215.869,69.972 C215.866,67.5353,217.216,65.1747,219.919,62.8903 C222.452,60.7496,224.937,59.7503,227.374,59.8925 C229.811,60.0346,231.895,61.1306,233.627,63.1802 C234.656,64.3975,235.355,65.6868,235.723,67.0481 C236.091,68.4095,236.051,69.824,235.603,71.2915 C235.219,72.5981,234.526,73.8205,233.524,74.9588 C232.936,75.6246,232.004,76.4818,230.727,77.5305 C230.727,77.5305,222.262,67.515,222.262,67.515 C220.84,68.8092,220.2,70.1401,220.343,71.5075 C220.422,72.3457,220.776,73.1363,221.404,73.8792 C222.069,74.6668,222.834,75.1177,223.697,75.2317 C224.166,75.296,224.702,75.2495,225.306,75.0923 C225.306,75.0923,228.608,78.9991,228.608,78.9991 C227.656,79.6344,226.393,79.9275,224.817,79.8784 C222.335,79.8281,220.14,78.6752,218.234,76.4197 z M230.472,65.8466 C229.723,64.9605,228.865,64.5081,227.898,64.4893 C226.931,64.4705,225.92,64.7993,224.866,65.4758 C224.866,65.4758,229.892,71.4234,229.892,71.4234 C230.85,70.506,231.359,69.5508,231.417,68.5578 C231.476,67.5648,231.161,66.6611,230.472,65.8466 z M243.686,85.4041 C242.873,83.9254,241.583,83.3175,239.815,83.5805 C238.876,83.722,237.76,84.1484,236.466,84.8597 C235.234,85.5371,234.322,86.2257,233.73,86.9253 C232.622,88.2168,232.465,89.5866,233.261,91.0345 C233.826,92.0615,234.504,92.6382,235.296,92.7646 C236.087,92.8911,236.95,92.7578,237.884,92.3647 C237.884,92.3647,240.348,96.8473,240.348,96.8473 C238.957,97.4785,237.428,97.6902,235.763,97.4824 C233.086,97.162,231.005,95.6514,229.52,92.9506 C228.036,90.2497,227.744,87.8223,228.646,85.6682 C229.548,83.5141,231.278,81.7343,233.835,80.3286 C236.721,78.7422,239.351,78.2122,241.727,78.7384 C244.102,79.2646,245.97,80.7652,247.331,83.2401 C248.488,85.3453,248.962,87.3277,248.754,89.1872 C248.546,91.0467,247.314,92.7574,245.056,94.3192 C245.056,94.3192,242.584,89.8213,242.584,89.8213 C243.165,89.3948,243.614,88.8737,243.931,88.2582 C244.338,87.3927,244.256,86.4413,243.686,85.4041 z M252.553,110.536 C253.272,109.84,253.446,108.881,253.075,107.658 C252.691,106.391,251.976,105.558,250.93,105.159 C249.884,104.76,248.576,104.799,247.006,105.276 C247.006,105.276,237.082,108.288,237.082,108.288 C237.082,108.288,235.632,103.511,235.632,103.511 C235.632,103.511,260.341,96.0107,260.341,96.0107 C260.341,96.0107,261.791,100.788,261.791,100.788 C261.791,100.788,253.028,103.448,253.028,103.448 C254.304,103.82,255.291,104.399,255.989,105.185 C256.687,105.971,257.189,106.869,257.496,107.878 C257.84,109.011,257.956,110.099,257.844,111.143 C257.732,112.188,257.363,113.129,256.736,113.969 C256.205,114.681,255.595,115.203,254.906,115.535 C254.217,115.866,253.053,116.281,251.416,116.778 C251.416,116.778,240.651,120.045,240.651,120.045 C240.651,120.045,239.165,115.151,239.165,115.151 C239.165,115.151,250.317,111.765,250.317,111.765 C251.304,111.466,252.049,111.056,252.553,110.536 z M260.76,138.716 C259.818,140.048,258.15,140.808,255.755,140.997 C255.755,140.997,242.893,142.011,242.893,142.011 C242.893,142.011,242.49,136.894,242.49,136.894 C242.49,136.894,254.108,135.978,254.108,135.978 C255.113,135.899,255.873,135.704,256.389,135.393 C257.332,134.825,257.749,133.851,257.64,132.473 C257.507,130.779,256.697,129.673,255.21,129.156 C254.425,128.888,253.442,128.801,252.262,128.894 C252.262,128.894,241.923,129.709,241.923,129.709 C241.923,129.709,241.531,124.732,241.531,124.732 C241.531,124.732,260.597,123.229,260.597,123.229 C260.597,123.229,260.977,128.048,260.977,128.048 C260.977,128.048,258.19,128.268,258.19,128.268 C259.222,128.833,259.977,129.385,260.454,129.923 C261.306,130.891,261.795,132.163,261.919,133.74 C262.075,135.714,261.688,137.373,260.76,138.716 z M257.138,164.812 C254.908,166.136,252.423,166.609,249.683,166.229 C246.897,165.844,244.626,164.713,242.868,162.837 C241.111,160.961,240.458,158.392,240.909,155.131 C241.361,151.869,242.687,149.574,244.888,148.246 C247.089,146.918,249.582,146.447,252.368,146.832 C255.108,147.211,257.371,148.341,259.157,150.221 C260.944,152.101,261.611,154.672,261.16,157.934 C260.708,161.195,259.367,163.488,257.138,164.812 z M254.971,160.466 C256.1,159.83,256.765,158.786,256.966,157.335 C257.167,155.884,256.808,154.696,255.889,153.77 C254.97,152.844,253.559,152.25,251.655,151.986 C249.751,151.723,248.228,151.911,247.087,152.552 C245.945,153.192,245.274,154.238,245.073,155.689 C244.872,157.14,245.235,158.326,246.16,159.247 C247.086,160.168,248.5,160.76,250.404,161.023 C252.308,161.287,253.83,161.101,254.971,160.466 z M263.659,175.983 C263.659,175.983,262.198,180.775,262.198,180.775 C262.198,180.775,237.414,173.218,237.414,173.218 C237.414,173.218,238.876,168.426,238.876,168.426 C238.876,168.426,263.659,175.983,263.659,175.983 z M244.082,199.67 C241.551,200.232,239.043,199.905,236.558,198.689 C234.032,197.453,232.227,195.669,231.143,193.339 C230.059,191.008,230.241,188.363,231.688,185.406 C233.136,182.448,235.112,180.682,237.618,180.107 C240.123,179.533,242.639,179.864,245.165,181.1 C247.649,182.315,249.447,184.095,250.557,186.439 C251.667,188.782,251.499,191.433,250.051,194.391 C248.604,197.349,246.614,199.109,244.082,199.67 z M243.381,194.865 C244.652,194.613,245.61,193.829,246.254,192.513 C246.898,191.197,246.928,189.956,246.344,188.79 C245.76,187.624,244.605,186.618,242.878,185.773 C241.152,184.929,239.647,184.632,238.362,184.885 C237.078,185.137,236.113,185.921,235.47,187.236 C234.826,188.552,234.8,189.792,235.392,190.955 C235.983,192.119,237.142,193.123,238.869,193.968 C240.595,194.813,242.099,195.112,243.381,194.865 z M219.931,199.66 C219.238,199.798,218.494,200.367,217.699,201.367 C216.576,202.779,216.298,204.1,216.863,205.328 C217.221,206.121,218.115,207.086,219.546,208.224 C219.546,208.224,220.509,208.99,220.509,208.99 C220.166,208.103,220.005,207.317,220.027,206.63 C220.051,205.377,220.558,204.126,221.55,202.878 C223.081,200.952,224.981,199.951,227.249,199.875 C229.518,199.799,231.808,200.68,234.119,202.518 C236.349,204.29,237.781,206.334,238.417,208.651 C239.053,210.968,238.561,213.145,236.943,215.181 C236.345,215.933,235.709,216.498,235.034,216.875 C233.882,217.516,232.544,217.71,231.023,217.459 C231.023,217.459,233.183,219.176,233.183,219.176 C233.183,219.176,230.153,222.988,230.153,222.988 C230.153,222.988,215.925,211.678,215.925,211.678 C213.989,210.139,212.79,208.654,212.326,207.223 C211.527,204.762,212.39,201.944,214.913,198.77 C216.437,196.853,218.056,195.588,219.771,194.975 C221.486,194.362,223.142,194.585,224.739,195.646 C224.739,195.646,221.349,199.911,221.349,199.911 C220.802,199.657,220.33,199.573,219.931,199.66 z M232.772,213.393 C233.866,212.017,233.974,210.554,233.096,209.003 C232.627,208.18,231.888,207.368,230.879,206.566 C230.007,205.873,229.116,205.404,228.203,205.158 C226.514,204.684,225.123,205.135,224.029,206.511 C223.3,207.428,223.03,208.479,223.22,209.662 C223.409,210.846,224.261,212.039,225.774,213.242 C227.196,214.372,228.518,214.932,229.738,214.922 C230.959,214.912,231.97,214.402,232.772,213.393 z M206.84,215.882 C207.056,216.526,207.226,216.887,207.352,216.965 C207.352,216.965,225.544,227.857,225.544,227.857 C225.544,227.857,221.258,231.418,221.258,231.418 C221.258,231.418,209.009,223.222,209.009,223.222 C209.009,223.222,214.999,236.62,214.999,236.62 C214.999,236.62,210.902,240.024,210.902,240.024 C210.902,240.024,203.916,221.329,203.916,221.329 C202.568,217.726,201.898,215.353,201.908,214.209 C201.918,213.066,202.775,211.787,204.478,210.371 C204.821,210.086,205.098,209.86,205.309,209.693 C205.52,209.525,205.844,209.282,206.281,208.965 C206.281,208.965,208.842,212.047,208.842,212.047 C208.842,212.047,208.333,212.425,208.333,212.425 C207.939,212.721,207.59,213.034,207.285,213.364 C206.98,213.694,206.778,214.037,206.678,214.394 C206.58,214.734,206.634,215.23,206.84,215.882 z"/>
        <path style="fill:#21b572;fill-opacity:1;fill-rule:nonzero;opacity:1;stroke:none;" d="M57.8144,237.768 C57.8144,237.768,42.94,222.961,42.94,222.961 C42.94,222.961,46.1768,219.71,46.1768,219.71 C46.1768,219.71,51.6706,225.179,51.6706,225.179 C51.6706,225.179,66.7137,210.068,66.7137,210.068 C66.7137,210.068,70.5756,213.912,70.5756,213.912 C70.5756,213.912,55.5325,229.023,55.5325,229.023 C55.5325,229.023,61.0512,234.517,61.0512,234.517 C61.0512,234.517,57.8144,237.768,57.8144,237.768 z M38.5953,200.126 C39.3978,197.66,40.9535,195.666,43.2625,194.143 C45.6106,192.595,48.0638,191.946,50.622,192.197 C53.1803,192.447,55.3657,193.947,57.1783,196.696 C58.9908,199.445,59.5081,202.045,58.7301,204.495 C57.9521,206.945,56.3891,208.944,54.041,210.492 C51.732,212.014,49.2862,212.658,46.7034,212.424 C44.1207,212.19,41.923,210.698,40.1105,207.949 C38.2979,205.2,37.7929,202.592,38.5953,200.126 z M43.0908,201.962 C42.662,203.186,42.8507,204.409,43.657,205.632 C44.4633,206.855,45.5171,207.511,46.8183,207.6 C48.1196,207.69,49.5725,207.206,51.177,206.148 C52.7816,205.09,53.8015,203.944,54.2369,202.709 C54.6722,201.475,54.4868,200.246,53.6805,199.023 C52.8742,197.8,51.8196,197.148,50.5166,197.067 C49.2137,196.985,47.76,197.473,46.1554,198.531 C44.5509,199.589,43.5294,200.733,43.0908,201.962 z M36.9232,185.362 C36.9232,185.362,27.9335,182.189,27.9335,182.189 C27.9335,182.189,25.6646,176.414,25.6646,176.414 C25.6646,176.414,34.936,179.967,34.936,179.967 C34.936,179.967,43.3197,169.194,43.3197,169.194 C43.3197,169.194,45.5308,174.822,45.5308,174.822 C45.5308,174.822,39.5842,182.088,39.5842,182.088 C39.5842,182.088,42.355,183.228,42.355,183.228 C42.355,183.228,47.9668,181.023,47.9668,181.023 C47.9668,181.023,49.7665,185.604,49.7665,185.604 C49.7665,185.604,25.7324,195.046,25.7324,195.046 C25.7324,195.046,23.9327,190.465,23.9327,190.465 C23.9327,190.465,36.9232,185.362,36.9232,185.362 z M43.987,161.69 C43.3207,161.559,42.9225,161.529,42.7923,161.6 C42.7923,161.6,24.3405,172.046,24.3405,172.046 C24.3405,172.046,23.3585,166.561,23.3585,166.561 C23.3585,166.561,36.533,159.953,36.533,159.953 C36.533,159.953,21.9244,158.55,21.9244,158.55 C21.9244,158.55,20.9858,153.307,20.9858,153.307 C20.9858,153.307,40.6931,156.458,40.6931,156.458 C44.4921,157.063,46.8864,157.653,47.8759,158.225 C48.8653,158.798,49.5552,160.175,49.9455,162.355 C50.024,162.793,50.0841,163.146,50.1258,163.412 C50.1676,163.678,50.2186,164.08,50.279,164.617 C50.279,164.617,46.3339,165.323,46.3339,165.323 C46.3339,165.323,46.257,164.694,46.257,164.694 C46.1933,164.205,46.0934,163.747,45.9573,163.319 C45.8211,162.891,45.6224,162.546,45.3611,162.283 C45.1133,162.03,44.6553,161.832,43.987,161.69 z M23.4349,130.464 C25.5083,128.906,27.9272,128.167,30.6917,128.248 C33.503,128.329,35.8838,129.207,37.8341,130.882 C39.7844,132.556,40.7117,135.039,40.6162,138.331 C40.5206,141.622,39.4508,144.047,37.4066,145.606 C35.3625,147.165,32.9348,147.903,30.1235,147.821 C27.359,147.741,24.987,146.863,23.0074,145.188 C21.0279,143.513,20.0859,141.029,20.1814,137.738 C20.277,134.446,21.3614,132.021,23.4349,130.464 z M26.0596,134.549 C25.006,135.304,24.458,136.414,24.4154,137.878 C24.3729,139.342,24.8586,140.485,25.8723,141.306 C26.886,142.126,28.3534,142.565,30.2745,142.62 C32.1955,142.676,33.6888,142.324,34.7543,141.563 C35.8198,140.803,36.3737,139.691,36.4162,138.227 C36.4588,136.762,35.9701,135.623,34.9504,134.808 C33.9306,133.992,32.4602,133.557,30.5392,133.501 C28.6181,133.445,27.1249,133.795,26.0596,134.549 z M18.394,107.927 C18.394,107.927,19.9107,102.766,19.9107,102.766 C19.9107,102.766,44.7695,110.072,44.7695,110.072 C44.7695,110.072,43.2528,115.233,43.2528,115.233 C43.2528,115.233,18.394,107.927,18.394,107.927 z M36.3461,83.7951 C37.8272,83.1121,39.652,83.2876,41.8204,84.3216 C41.8204,84.3216,53.4666,89.8747,53.4666,89.8747 C53.4666,89.8747,51.2575,94.5078,51.2575,94.5078 C51.2575,94.5078,40.7378,89.4918,40.7378,89.4918 C39.8281,89.0581,39.072,88.8468,38.4694,88.8581 C37.369,88.8787,36.5213,89.5131,35.9261,90.7613 C35.1948,92.2951,35.3435,93.6577,36.3722,94.8493 C36.9185,95.4733,37.7259,96.0401,38.7943,96.5495 C38.7943,96.5495,48.1556,101.013,48.1556,101.013 C48.1556,101.013,46.007,105.519,46.007,105.519 C46.007,105.519,28.744,97.288,28.744,97.288 C28.744,97.288,30.8245,92.9246,30.8245,92.9246 C30.8245,92.9246,33.3473,94.1275,33.3473,94.1275 C32.7362,93.1221,32.3585,92.2669,32.2143,91.562 C31.96,90.2982,32.1733,88.9524,32.8542,87.5244 C33.7066,85.7367,34.8705,84.4936,36.3461,83.7951 z M46.8855,72.5704 C46.8711,73.1492,47.0456,73.5772,47.4088,73.8546 C47.8652,74.2031,48.3452,74.26,48.8488,74.0253 C49.3617,73.7977,50.7858,72.6955,53.1209,70.7188 C54.7026,69.42,56.1728,68.6627,57.5318,68.4472 C58.8929,68.248,60.1463,68.5858,61.2919,69.4606 C62.8008,70.6128,63.604,72.1145,63.7016,73.9658 C63.7993,75.8171,62.952,77.9163,61.1597,80.2634 C59.3319,82.657,57.4771,84.0385,55.5953,84.4078 C53.7135,84.777,51.9903,84.3642,50.4255,83.1694 C50.4255,83.1694,53.5087,79.1319,53.5087,79.1319 C54.2805,79.5886,54.9221,79.791,55.4336,79.7392 C56.3414,79.651,57.3038,78.9409,58.3208,77.609 C58.9183,76.8267,59.2766,76.1161,59.3958,75.4772 C59.515,74.8384,59.3418,74.3412,58.8761,73.9856 C58.429,73.6442,57.9468,73.5709,57.4295,73.7656 C56.9122,73.9604,55.4555,75.0376,53.0595,76.9974 C51.3154,78.3933,49.8517,79.1998,48.6685,79.4169 C47.4946,79.6411,46.3116,79.2981,45.1195,78.3877 C43.7131,77.3138,42.926,75.8391,42.7583,73.9638 C42.5905,72.0884,43.2712,70.1495,44.8003,68.1471 C46.2512,66.2471,47.8131,64.9885,49.4861,64.3713 C51.1591,63.7541,52.9945,64.0683,54.9924,65.3137 C54.9924,65.3137,51.952,69.2953,51.952,69.2953 C51.397,68.9601,50.8817,68.7951,50.4058,68.8003 C49.5314,68.8256,48.6923,69.3644,47.8886,70.4169 C47.2272,71.283,46.8928,72.0009,46.8855,72.5704 z M70.3377,63.572 C70.6194,63.5784,71.1288,63.2295,71.866,62.5252 C71.9761,62.42,72.0906,62.3066,72.2094,62.1849 C72.3282,62.0633,72.4429,61.9416,72.5535,61.8198 C72.5535,61.8198,75.1398,64.5271,75.1398,64.5271 C75.1398,64.5271,73.4847,66.2299,73.4847,66.2299 C71.8298,67.9244,70.3771,68.745,69.1267,68.6916 C68.3233,68.6649,67.5088,68.2195,66.6831,67.3552 C66.6831,67.3552,58.5354,58.8267,58.5354,58.8267 C58.5354,58.8267,56.6034,60.6724,56.6034,60.6724 C56.6034,60.6724,54.1385,58.0923,54.1385,58.0923 C54.1385,58.0923,56.0704,56.2466,56.0704,56.2466 C56.0704,56.2466,52.379,52.3827,52.379,52.3827 C52.379,52.3827,55.9633,48.9585,55.9633,48.9585 C55.9633,48.9585,59.6546,52.8223,59.6546,52.8223 C59.6546,52.8223,61.9043,50.6731,61.9043,50.6731 C61.9043,50.6731,64.3693,53.2532,64.3693,53.2532 C64.3693,53.2532,62.1196,55.4025,62.1196,55.4025 C62.1196,55.4025,69.1138,62.7235,69.1138,62.7235 C69.6562,63.2912,70.0641,63.574,70.3377,63.572 z M69.9905,44.0617 C69.9905,44.0617,81.6419,59.2721,81.6419,59.2721 C81.6419,59.2721,77.6091,62.3613,77.6091,62.3613 C77.6091,62.3613,65.9576,47.1509,65.9576,47.1509 C65.9576,47.1509,69.9905,44.0617,69.9905,44.0617 z M65.7896,38.5776 C65.7896,38.5776,68.6009,42.2476,68.6009,42.2476 C68.6009,42.2476,64.568,45.3369,64.568,45.3369 C64.568,45.3369,61.7567,41.6668,61.7567,41.6668 C61.7567,41.6668,65.7896,38.5776,65.7896,38.5776 z M88.7287,50.1182 C89.0023,50.1855,89.5752,49.9552,90.4473,49.4272 C90.5777,49.3483,90.714,49.2624,90.8563,49.1694 C90.9987,49.0764,91.137,48.9824,91.2713,48.8874 C91.2713,48.8874,93.2101,52.0905,93.2101,52.0905 C93.2101,52.0905,91.2255,53.3945,91.2255,53.3945 C89.2429,54.6905,87.647,55.177,86.4379,54.8541 C85.6593,54.6542,84.9606,54.0429,84.3416,53.0203 C84.3416,53.0203,78.2338,42.93,78.2338,42.93 C78.2338,42.93,75.9481,44.3136,75.9481,44.3136 C75.9481,44.3136,74.1003,41.2609,74.1003,41.2609 C74.1003,41.2609,76.386,39.8773,76.386,39.8773 C76.386,39.8773,73.6189,35.3058,73.6189,35.3058 C73.6189,35.3058,77.8595,32.7389,77.8595,32.7389 C77.8595,32.7389,80.6267,37.3104,80.6267,37.3104 C80.6267,37.3104,83.2884,35.6993,83.2884,35.6993 C83.2884,35.6993,85.1362,38.7519,85.1362,38.7519 C85.1362,38.7519,82.4745,40.3631,82.4745,40.3631 C82.4745,40.3631,87.7175,49.0248,87.7175,49.0248 C88.1241,49.6965,88.4611,50.061,88.7287,50.1182 z M103.923,37.6749 C103.923,37.6749,100.098,27.9783,100.098,27.9783 C100.098,27.9783,104.824,26.1141,104.824,26.1141 C104.824,26.1141,111.855,43.9376,111.855,43.9376 C111.855,43.9376,107.325,45.7244,107.325,45.7244 C107.325,45.7244,106.332,43.2062,106.332,43.2062 C106.31,43.2779,106.266,43.4844,106.199,43.8258 C106.132,44.1671,106.019,44.4886,105.861,44.7904 C105.389,45.7326,104.859,46.4579,104.272,46.9665 C103.686,47.4751,102.934,47.91,102.019,48.2713 C99.3807,49.3119,97.2296,49.0644,95.5657,47.5289 C94.6405,46.6844,93.7758,45.243,92.9717,43.2044 C92.9717,43.2044,88.7338,32.4613,88.7338,32.4613 C88.7338,32.4613,93.5086,30.5778,93.5086,30.5778 C93.5086,30.5778,97.7464,41.3209,97.7464,41.3209 C98.1464,42.3347,98.5673,43.0505,99.0092,43.4683 C99.7913,44.2054,100.804,44.3288,102.046,43.8386 C103.638,43.2108,104.474,42.1376,104.556,40.619 C104.586,39.8009,104.375,38.8196,103.923,37.6749 z M121.661,37.9471 C121.897,38.1008,122.514,38.0723,123.512,37.8614 C123.661,37.8299,123.818,37.7937,123.983,37.7529 C124.148,37.712,124.309,37.6689,124.467,37.6235 C124.467,37.6235,125.242,41.2867,125.242,41.2867 C125.242,41.2867,122.938,41.8634,122.938,41.8634 C120.639,42.4332,118.972,42.3663,117.937,41.6628 C117.268,41.2174,116.81,40.4099,116.563,39.2404 C116.563,39.2404,114.123,27.7005,114.123,27.7005 C114.123,27.7005,111.509,28.253,111.509,28.253 C111.509,28.253,110.771,24.7618,110.771,24.7618 C110.771,24.7618,113.385,24.2093,113.385,24.2093 C113.385,24.2093,112.28,18.981,112.28,18.981 C112.28,18.981,117.13,17.9559,117.13,17.9559 C117.13,17.9559,118.235,23.1841,118.235,23.1841 C118.235,23.1841,121.279,22.5407,121.279,22.5407 C121.279,22.5407,122.017,26.0319,122.017,26.0319 C122.017,26.0319,118.973,26.6753,118.973,26.6753 C118.973,26.6753,121.067,36.5815,121.067,36.5815 C121.23,37.3497,121.428,37.8049,121.661,37.9471 z M136.149,40.7325 C133.715,40.8574,131.527,40.1834,129.586,38.7106 C127.644,37.2377,126.583,34.7341,126.402,31.1997 C126.232,27.8877,126.942,25.305,128.53,23.4516 C130.119,21.5983,132.254,20.6029,134.934,20.4655 C136.525,20.3838,137.974,20.6087,139.281,21.1402 C140.587,21.6716,141.689,22.5598,142.585,23.8045 C143.393,24.9013,143.946,26.193,144.245,27.6797 C144.419,28.5508,144.536,29.8121,144.598,31.4635 C144.598,31.4635,131.501,32.1351,131.501,32.1351 C131.67,34.0508,132.342,35.3658,133.517,36.08 C134.232,36.5244,135.075,36.7217,136.046,36.6719 C137.076,36.6191,137.898,36.2836,138.512,35.6654 C138.847,35.3314,139.134,34.8766,139.375,34.3011 C139.375,34.3011,144.483,34.0391,144.483,34.0391 C144.413,35.1809,143.881,36.364,142.888,37.5884 C141.344,39.5332,139.098,40.5813,136.149,40.7325 z M135.145,24.5909 C133.987,24.6503,133.107,25.0592,132.506,25.8175 C131.906,26.5758,131.555,27.5795,131.455,28.8284 C131.455,28.8284,139.232,28.4296,139.232,28.4296 C139.082,27.1113,138.63,26.1283,137.875,25.4806 C137.12,24.8328,136.21,24.5363,135.145,24.5909 z M178.082,28.8747 C179.136,31.2438,179.316,33.7667,178.62,36.4432 C177.912,39.1652,176.524,41.2895,174.456,42.8161 C172.388,44.3428,169.76,44.6917,166.573,43.8628 C163.386,43.034,161.262,41.4492,160.199,39.1084 C159.137,36.7676,158.96,34.2362,159.668,31.5143 C160.364,28.8377,161.75,26.7219,163.825,25.1669 C165.901,23.6119,168.532,23.2488,171.719,24.0777 C174.906,24.9066,177.027,26.5056,178.082,28.8747 z M173.513,30.5198 C173.012,29.3241,172.053,28.5419,170.636,28.1732 C169.218,27.8045,167.996,28.0224,166.969,28.827 C165.943,29.6317,165.187,30.964,164.704,32.824 C164.22,34.684,164.23,36.2182,164.733,37.4267 C165.236,38.6352,166.196,39.4238,167.614,39.7925 C169.031,40.1612,170.251,39.9397,171.274,39.1279 C172.296,38.3162,173.049,36.9803,173.533,35.1203 C174.017,33.2603,174.01,31.7268,173.513,30.5198 z M192.558,32.4478 C192.558,32.4478,195.555,33.7982,195.555,33.7982 C195.555,33.7982,194.104,37.0194,194.104,37.0194 C194.104,37.0194,191.107,35.6691,191.107,35.6691 C191.107,35.6691,184.759,49.7562,184.759,49.7562 C184.759,49.7562,180.208,47.7054,180.208,47.7054 C180.208,47.7054,186.555,33.6182,186.555,33.6182 C186.555,33.6182,184.007,32.4701,184.007,32.4701 C184.007,32.4701,185.458,29.2488,185.458,29.2488 C185.458,29.2488,187.959,30.3753,187.959,30.3753 C187.959,30.3753,188.464,29.2534,188.464,29.2534 C189.307,27.3837,190.202,26.2383,191.15,25.8171 C192.284,25.0686,194.117,25.2648,196.649,26.4057 C196.938,26.5357,197.196,26.6617,197.424,26.7836 C197.652,26.9056,197.961,27.074,198.353,27.289 C198.353,27.289,196.678,31.0071,196.678,31.0071 C196.436,30.8595,196.016,30.6417,195.42,30.3537 C194.824,30.0657,194.347,30.0114,193.989,30.1911 C193.632,30.3707,193.377,30.6315,193.222,30.9734 C193.222,30.9734,192.558,32.4478,192.558,32.4478 z M213.733,36.3587 C213.733,36.3587,230.102,49.4954,230.102,49.4954 C230.102,49.4954,227.23,53.0735,227.23,53.0735 C227.23,53.0735,221.184,48.2215,221.184,48.2215 C221.184,48.2215,207.839,64.8507,207.839,64.8507 C207.839,64.8507,203.589,61.44,203.589,61.44 C203.589,61.44,216.934,44.8108,216.934,44.8108 C216.934,44.8108,210.861,39.9368,210.861,39.9368 C210.861,39.9368,213.733,36.3587,213.733,36.3587 z M218.234,76.4197 C216.661,74.558,215.872,72.4088,215.869,69.972 C215.866,67.5353,217.216,65.1747,219.919,62.8903 C222.452,60.7496,224.937,59.7503,227.374,59.8925 C229.811,60.0346,231.895,61.1306,233.627,63.1802 C234.656,64.3975,235.355,65.6868,235.723,67.0481 C236.091,68.4095,236.051,69.824,235.603,71.2915 C235.219,72.5981,234.526,73.8205,233.524,74.9588 C232.936,75.6246,232.004,76.4818,230.727,77.5305 C230.727,77.5305,222.262,67.515,222.262,67.515 C220.84,68.8092,220.2,70.1401,220.343,71.5075 C220.422,72.3457,220.776,73.1363,221.404,73.8792 C222.069,74.6668,222.834,75.1177,223.697,75.2317 C224.166,75.296,224.702,75.2495,225.306,75.0923 C225.306,75.0923,228.608,78.9991,228.608,78.9991 C227.656,79.6344,226.393,79.9275,224.817,79.8784 C222.335,79.8281,220.14,78.6752,218.234,76.4197 z M230.472,65.8466 C229.723,64.9605,228.865,64.5081,227.898,64.4893 C226.931,64.4705,225.92,64.7993,224.866,65.4758 C224.866,65.4758,229.892,71.4234,229.892,71.4234 C230.85,70.506,231.359,69.5508,231.417,68.5578 C231.476,67.5648,231.161,66.6611,230.472,65.8466 z M243.686,85.4041 C242.873,83.9254,241.583,83.3175,239.815,83.5805 C238.876,83.722,237.76,84.1484,236.466,84.8597 C235.234,85.5371,234.322,86.2257,233.73,86.9253 C232.622,88.2168,232.465,89.5866,233.261,91.0345 C233.826,92.0615,234.504,92.6382,235.296,92.7646 C236.087,92.8911,236.95,92.7578,237.884,92.3647 C237.884,92.3647,240.348,96.8473,240.348,96.8473 C238.957,97.4785,237.428,97.6902,235.763,97.4824 C233.086,97.162,231.005,95.6514,229.52,92.9506 C228.036,90.2497,227.744,87.8223,228.646,85.6682 C229.548,83.5141,231.278,81.7343,233.835,80.3286 C236.721,78.7422,239.351,78.2122,241.727,78.7384 C244.102,79.2646,245.97,80.7652,247.331,83.2401 C248.488,85.3453,248.962,87.3277,248.754,89.1872 C248.546,91.0467,247.314,92.7574,245.056,94.3192 C245.056,94.3192,242.584,89.8213,242.584,89.8213 C243.165,89.3948,243.614,88.8737,243.931,88.2582 C244.338,87.3927,244.256,86.4413,243.686,85.4041 z M252.553,110.536 C253.272,109.84,253.446,108.881,253.075,107.658 C252.691,106.391,251.976,105.558,250.93,105.159 C249.884,104.76,248.576,104.799,247.006,105.276 C247.006,105.276,237.082,108.288,237.082,108.288 C237.082,108.288,235.632,103.511,235.632,103.511 C235.632,103.511,260.341,96.0107,260.341,96.0107 C260.341,96.0107,261.791,100.788,261.791,100.788 C261.791,100.788,253.028,103.448,253.028,103.448 C254.304,103.82,255.291,104.399,255.989,105.185 C256.687,105.971,257.189,106.869,257.496,107.878 C257.84,109.011,257.956,110.099,257.844,111.143 C257.732,112.188,257.363,113.129,256.736,113.969 C256.205,114.681,255.595,115.203,254.906,115.535 C254.217,115.866,253.053,116.281,251.416,116.778 C251.416,116.778,240.651,120.045,240.651,120.045 C240.651,120.045,239.165,115.151,239.165,115.151 C239.165,115.151,250.317,111.765,250.317,111.765 C251.304,111.466,252.049,111.056,252.553,110.536 z M260.76,138.716 C259.818,140.048,258.15,140.808,255.755,140.997 C255.755,140.997,242.893,142.011,242.893,142.011 C242.893,142.011,242.49,136.894,242.49,136.894 C242.49,136.894,254.108,135.978,254.108,135.978 C255.113,135.899,255.873,135.704,256.389,135.393 C257.332,134.825,257.749,133.851,257.64,132.473 C257.507,130.779,256.697,129.673,255.21,129.156 C254.425,128.888,253.442,128.801,252.262,128.894 C252.262,128.894,241.923,129.709,241.923,129.709 C241.923,129.709,241.531,124.732,241.531,124.732 C241.531,124.732,260.597,123.229,260.597,123.229 C260.597,123.229,260.977,128.048,260.977,128.048 C260.977,128.048,258.19,128.268,258.19,128.268 C259.222,128.833,259.977,129.385,260.454,129.923 C261.306,130.891,261.795,132.163,261.919,133.74 C262.075,135.714,261.688,137.373,260.76,138.716 z M257.138,164.812 C254.908,166.136,252.423,166.609,249.683,166.229 C246.897,165.844,244.626,164.713,242.868,162.837 C241.111,160.961,240.458,158.392,240.909,155.131 C241.361,151.869,242.687,149.574,244.888,148.246 C247.089,146.918,249.582,146.447,252.368,146.832 C255.108,147.211,257.371,148.341,259.157,150.221 C260.944,152.101,261.611,154.672,261.16,157.934 C260.708,161.195,259.367,163.488,257.138,164.812 z M254.971,160.466 C256.1,159.83,256.765,158.786,256.966,157.335 C257.167,155.884,256.808,154.696,255.889,153.77 C254.97,152.844,253.559,152.25,251.655,151.986 C249.751,151.723,248.228,151.911,247.087,152.552 C245.945,153.192,245.274,154.238,245.073,155.689 C244.872,157.14,245.235,158.326,246.16,159.247 C247.086,160.168,248.5,160.76,250.404,161.023 C252.308,161.287,253.83,161.101,254.971,160.466 z M263.659,175.983 C263.659,175.983,262.198,180.775,262.198,180.775 C262.198,180.775,237.414,173.218,237.414,173.218 C237.414,173.218,238.876,168.426,238.876,168.426 C238.876,168.426,263.659,175.983,263.659,175.983 z M244.082,199.67 C241.551,200.232,239.043,199.905,236.558,198.689 C234.032,197.453,232.227,195.669,231.143,193.339 C230.059,191.008,230.241,188.363,231.688,185.406 C233.136,182.448,235.112,180.682,237.618,180.107 C240.123,179.533,242.639,179.864,245.165,181.1 C247.649,182.315,249.447,184.095,250.557,186.439 C251.667,188.782,251.499,191.433,250.051,194.391 C248.604,197.349,246.614,199.109,244.082,199.67 z M243.381,194.865 C244.652,194.613,245.61,193.829,246.254,192.513 C246.898,191.197,246.928,189.956,246.344,188.79 C245.76,187.624,244.605,186.618,242.878,185.773 C241.152,184.929,239.647,184.632,238.362,184.885 C237.078,185.137,236.113,185.921,235.47,187.236 C234.826,188.552,234.8,189.792,235.392,190.955 C235.983,192.119,237.142,193.123,238.869,193.968 C240.595,194.813,242.099,195.112,243.381,194.865 z M219.931,199.66 C219.238,199.798,218.494,200.367,217.699,201.367 C216.576,202.779,216.298,204.1,216.863,205.328 C217.221,206.121,218.115,207.086,219.546,208.224 C219.546,208.224,220.509,208.99,220.509,208.99 C220.166,208.103,220.005,207.317,220.027,206.63 C220.051,205.377,220.558,204.126,221.55,202.878 C223.081,200.952,224.981,199.951,227.249,199.875 C229.518,199.799,231.808,200.68,234.119,202.518 C236.349,204.29,237.781,206.334,238.417,208.651 C239.053,210.968,238.561,213.145,236.943,215.181 C236.345,215.933,235.709,216.498,235.034,216.875 C233.882,217.516,232.544,217.71,231.023,217.459 C231.023,217.459,233.183,219.176,233.183,219.176 C233.183,219.176,230.153,222.988,230.153,222.988 C230.153,222.988,215.925,211.678,215.925,211.678 C213.989,210.139,212.79,208.654,212.326,207.223 C211.527,204.762,212.39,201.944,214.913,198.77 C216.437,196.853,218.056,195.588,219.771,194.975 C221.486,194.362,223.142,194.585,224.739,195.646 C224.739,195.646,221.349,199.911,221.349,199.911 C220.802,199.657,220.33,199.573,219.931,199.66 z M232.772,213.393 C233.866,212.017,233.974,210.554,233.096,209.003 C232.627,208.18,231.888,207.368,230.879,206.566 C230.007,205.873,229.116,205.404,228.203,205.158 C226.514,204.684,225.123,205.135,224.029,206.511 C223.3,207.428,223.03,208.479,223.22,209.662 C223.409,210.846,224.261,212.039,225.774,213.242 C227.196,214.372,228.518,214.932,229.738,214.922 C230.959,214.912,231.97,214.402,232.772,213.393 z M206.84,215.882 C207.056,216.526,207.226,216.887,207.352,216.965 C207.352,216.965,225.544,227.857,225.544,227.857 C225.544,227.857,221.258,231.418,221.258,231.418 C221.258,231.418,209.009,223.222,209.009,223.222 C209.009,223.222,214.999,236.62,214.999,236.62 C214.999,236.62,210.902,240.024,210.902,240.024 C210.902,240.024,203.916,221.329,203.916,221.329 C202.568,217.726,201.898,215.353,201.908,214.209 C201.918,213.066,202.775,211.787,204.478,210.371 C204.821,210.086,205.098,209.86,205.309,209.693 C205.52,209.525,205.844,209.282,206.281,208.965 C206.281,208.965,208.842,212.047,208.842,212.047 C208.842,212.047,208.333,212.425,208.333,212.425 C207.939,212.721,207.59,213.034,207.285,213.364 C206.98,213.694,206.778,214.037,206.678,214.394 C206.58,214.734,206.634,215.23,206.84,215.882 z"/>
        <path style="fill:none;opacity:1;stroke:#000000;stroke-linecap:butt;stroke-linejoin:miter;stroke-miterlimit:10;stroke-opacity:1;stroke-width:1;" d="M57.8144,237.768 C57.8144,237.768,42.94,222.961,42.94,222.961 C42.94,222.961,46.1768,219.71,46.1768,219.71 C46.1768,219.71,51.6706,225.179,51.6706,225.179 C51.6706,225.179,66.7137,210.068,66.7137,210.068 C66.7137,210.068,70.5756,213.912,70.5756,213.912 C70.5756,213.912,55.5325,229.023,55.5325,229.023 C55.5325,229.023,61.0512,234.517,61.0512,234.517 C61.0512,234.517,57.8144,237.768,57.8144,237.768 z M38.5953,200.126 C39.3978,197.66,40.9535,195.666,43.2625,194.143 C45.6106,192.595,48.0638,191.946,50.622,192.197 C53.1803,192.447,55.3657,193.947,57.1783,196.696 C58.9908,199.445,59.5081,202.045,58.7301,204.495 C57.9521,206.945,56.3891,208.944,54.041,210.492 C51.732,212.014,49.2862,212.658,46.7034,212.424 C44.1207,212.19,41.923,210.698,40.1105,207.949 C38.2979,205.2,37.7929,202.592,38.5953,200.126 z M43.0908,201.962 C42.662,203.186,42.8507,204.409,43.657,205.632 C44.4633,206.855,45.5171,207.511,46.8183,207.6 C48.1196,207.69,49.5725,207.206,51.177,206.148 C52.7816,205.09,53.8015,203.944,54.2369,202.709 C54.6722,201.475,54.4868,200.246,53.6805,199.023 C52.8742,197.8,51.8196,197.148,50.5166,197.067 C49.2137,196.985,47.76,197.473,46.1554,198.531 C44.5509,199.589,43.5294,200.733,43.0908,201.962 z M36.9232,185.362 C36.9232,185.362,27.9335,182.189,27.9335,182.189 C27.9335,182.189,25.6646,176.414,25.6646,176.414 C25.6646,176.414,34.936,179.967,34.936,179.967 C34.936,179.967,43.3197,169.194,43.3197,169.194 C43.3197,169.194,45.5308,174.822,45.5308,174.822 C45.5308,174.822,39.5842,182.088,39.5842,182.088 C39.5842,182.088,42.355,183.228,42.355,183.228 C42.355,183.228,47.9668,181.023,47.9668,181.023 C47.9668,181.023,49.7665,185.604,49.7665,185.604 C49.7665,185.604,25.7324,195.046,25.7324,195.046 C25.7324,195.046,23.9327,190.465,23.9327,190.465 C23.9327,190.465,36.9232,185.362,36.9232,185.362 z M43.987,161.69 C43.3207,161.559,42.9225,161.529,42.7923,161.6 C42.7923,161.6,24.3405,172.046,24.3405,172.046 C24.3405,172.046,23.3585,166.561,23.3585,166.561 C23.3585,166.561,36.533,159.953,36.533,159.953 C36.533,159.953,21.9244,158.55,21.9244,158.55 C21.9244,158.55,20.9858,153.307,20.9858,153.307 C20.9858,153.307,40.6931,156.458,40.6931,156.458 C44.4921,157.063,46.8864,157.653,47.8759,158.225 C48.8653,158.798,49.5552,160.175,49.9455,162.355 C50.024,162.793,50.0841,163.146,50.1258,163.412 C50.1676,163.678,50.2186,164.08,50.279,164.617 C50.279,164.617,46.3339,165.323,46.3339,165.323 C46.3339,165.323,46.257,164.694,46.257,164.694 C46.1933,164.205,46.0934,163.747,45.9573,163.319 C45.8211,162.891,45.6224,162.546,45.3611,162.283 C45.1133,162.03,44.6553,161.832,43.987,161.69 z M23.4349,130.464 C25.5083,128.906,27.9272,128.167,30.6917,128.248 C33.503,128.329,35.8838,129.207,37.8341,130.882 C39.7844,132.556,40.7117,135.039,40.6162,138.331 C40.5206,141.622,39.4508,144.047,37.4066,145.606 C35.3625,147.165,32.9348,147.903,30.1235,147.821 C27.359,147.741,24.987,146.863,23.0074,145.188 C21.0279,143.513,20.0859,141.029,20.1814,137.738 C20.277,134.446,21.3614,132.021,23.4349,130.464 z M26.0596,134.549 C25.006,135.304,24.458,136.414,24.4154,137.878 C24.3729,139.342,24.8586,140.485,25.8723,141.306 C26.886,142.126,28.3534,142.565,30.2745,142.62 C32.1955,142.676,33.6888,142.324,34.7543,141.563 C35.8198,140.803,36.3737,139.691,36.4162,138.227 C36.4588,136.762,35.9701,135.623,34.9504,134.808 C33.9306,133.992,32.4602,133.557,30.5392,133.501 C28.6181,133.445,27.1249,133.795,26.0596,134.549 z M18.394,107.927 C18.394,107.927,19.9107,102.766,19.9107,102.766 C19.9107,102.766,44.7695,110.072,44.7695,110.072 C44.7695,110.072,43.2528,115.233,43.2528,115.233 C43.2528,115.233,18.394,107.927,18.394,107.927 z M36.3461,83.7951 C37.8272,83.1121,39.652,83.2876,41.8204,84.3216 C41.8204,84.3216,53.4666,89.8747,53.4666,89.8747 C53.4666,89.8747,51.2575,94.5078,51.2575,94.5078 C51.2575,94.5078,40.7378,89.4918,40.7378,89.4918 C39.8281,89.0581,39.072,88.8468,38.4694,88.8581 C37.369,88.8787,36.5213,89.5131,35.9261,90.7613 C35.1948,92.2951,35.3435,93.6577,36.3722,94.8493 C36.9185,95.4733,37.7259,96.0401,38.7943,96.5495 C38.7943,96.5495,48.1556,101.013,48.1556,101.013 C48.1556,101.013,46.007,105.519,46.007,105.519 C46.007,105.519,28.744,97.288,28.744,97.288 C28.744,97.288,30.8245,92.9246,30.8245,92.9246 C30.8245,92.9246,33.3473,94.1275,33.3473,94.1275 C32.7362,93.1221,32.3585,92.2669,32.2143,91.562 C31.96,90.2982,32.1733,88.9524,32.8542,87.5244 C33.7066,85.7367,34.8705,84.4936,36.3461,83.7951 z M46.8855,72.5704 C46.8711,73.1492,47.0456,73.5772,47.4088,73.8546 C47.8652,74.2031,48.3452,74.26,48.8488,74.0253 C49.3617,73.7977,50.7858,72.6955,53.1209,70.7188 C54.7026,69.42,56.1728,68.6627,57.5318,68.4472 C58.8929,68.248,60.1463,68.5858,61.2919,69.4606 C62.8008,70.6128,63.604,72.1145,63.7016,73.9658 C63.7993,75.8171,62.952,77.9163,61.1597,80.2634 C59.3319,82.657,57.4771,84.0385,55.5953,84.4078 C53.7135,84.777,51.9903,84.3642,50.4255,83.1694 C50.4255,83.1694,53.5087,79.1319,53.5087,79.1319 C54.2805,79.5886,54.9221,79.791,55.4336,79.7392 C56.3414,79.651,57.3038,78.9409,58.3208,77.609 C58.9183,76.8267,59.2766,76.1161,59.3958,75.4772 C59.515,74.8384,59.3418,74.3412,58.8761,73.9856 C58.429,73.6442,57.9468,73.5709,57.4295,73.7656 C56.9122,73.9604,55.4555,75.0376,53.0595,76.9974 C51.3154,78.3933,49.8517,79.1998,48.6685,79.4169 C47.4946,79.6411,46.3116,79.2981,45.1195,78.3877 C43.7131,77.3138,42.926,75.8391,42.7583,73.9638 C42.5905,72.0884,43.2712,70.1495,44.8003,68.1471 C46.2512,66.2471,47.8131,64.9885,49.4861,64.3713 C51.1591,63.7541,52.9945,64.0683,54.9924,65.3137 C54.9924,65.3137,51.952,69.2953,51.952,69.2953 C51.397,68.9601,50.8817,68.7951,50.4058,68.8003 C49.5314,68.8256,48.6923,69.3644,47.8886,70.4169 C47.2272,71.283,46.8928,72.0009,46.8855,72.5704 z M70.3377,63.572 C70.6194,63.5784,71.1288,63.2295,71.866,62.5252 C71.9761,62.42,72.0906,62.3066,72.2094,62.1849 C72.3282,62.0633,72.4429,61.9416,72.5535,61.8198 C72.5535,61.8198,75.1398,64.5271,75.1398,64.5271 C75.1398,64.5271,73.4847,66.2299,73.4847,66.2299 C71.8298,67.9244,70.3771,68.745,69.1267,68.6916 C68.3233,68.6649,67.5088,68.2195,66.6831,67.3552 C66.6831,67.3552,58.5354,58.8267,58.5354,58.8267 C58.5354,58.8267,56.6034,60.6724,56.6034,60.6724 C56.6034,60.6724,54.1385,58.0923,54.1385,58.0923 C54.1385,58.0923,56.0704,56.2466,56.0704,56.2466 C56.0704,56.2466,52.379,52.3827,52.379,52.3827 C52.379,52.3827,55.9633,48.9585,55.9633,48.9585 C55.9633,48.9585,59.6546,52.8223,59.6546,52.8223 C59.6546,52.8223,61.9043,50.6731,61.9043,50.6731 C61.9043,50.6731,64.3693,53.2532,64.3693,53.2532 C64.3693,53.2532,62.1196,55.4025,62.1196,55.4025 C62.1196,55.4025,69.1138,62.7235,69.1138,62.7235 C69.6562,63.2912,70.0641,63.574,70.3377,63.572 z M69.9905,44.0617 C69.9905,44.0617,81.6419,59.2721,81.6419,59.2721 C81.6419,59.2721,77.6091,62.3613,77.6091,62.3613 C77.6091,62.3613,65.9576,47.1509,65.9576,47.1509 C65.9576,47.1509,69.9905,44.0617,69.9905,44.0617 z M65.7896,38.5776 C65.7896,38.5776,68.6009,42.2476,68.6009,42.2476 C68.6009,42.2476,64.568,45.3369,64.568,45.3369 C64.568,45.3369,61.7567,41.6668,61.7567,41.6668 C61.7567,41.6668,65.7896,38.5776,65.7896,38.5776 z M88.7287,50.1182 C89.0023,50.1855,89.5752,49.9552,90.4473,49.4272 C90.5777,49.3483,90.714,49.2624,90.8563,49.1694 C90.9987,49.0764,91.137,48.9824,91.2713,48.8874 C91.2713,48.8874,93.2101,52.0905,93.2101,52.0905 C93.2101,52.0905,91.2255,53.3945,91.2255,53.3945 C89.2429,54.6905,87.647,55.177,86.4379,54.8541 C85.6593,54.6542,84.9606,54.0429,84.3416,53.0203 C84.3416,53.0203,78.2338,42.93,78.2338,42.93 C78.2338,42.93,75.9481,44.3136,75.9481,44.3136 C75.9481,44.3136,74.1003,41.2609,74.1003,41.2609 C74.1003,41.2609,76.386,39.8773,76.386,39.8773 C76.386,39.8773,73.6189,35.3058,73.6189,35.3058 C73.6189,35.3058,77.8595,32.7389,77.8595,32.7389 C77.8595,32.7389,80.6267,37.3104,80.6267,37.3104 C80.6267,37.3104,83.2884,35.6993,83.2884,35.6993 C83.2884,35.6993,85.1362,38.7519,85.1362,38.7519 C85.1362,38.7519,82.4745,40.3631,82.4745,40.3631 C82.4745,40.3631,87.7175,49.0248,87.7175,49.0248 C88.1241,49.6965,88.4611,50.061,88.7287,50.1182 z M103.923,37.6749 C103.923,37.6749,100.098,27.9783,100.098,27.9783 C100.098,27.9783,104.824,26.1141,104.824,26.1141 C104.824,26.1141,111.855,43.9376,111.855,43.9376 C111.855,43.9376,107.325,45.7244,107.325,45.7244 C107.325,45.7244,106.332,43.2062,106.332,43.2062 C106.31,43.2779,106.266,43.4844,106.199,43.8258 C106.132,44.1671,106.019,44.4886,105.861,44.7904 C105.389,45.7326,104.859,46.4579,104.272,46.9665 C103.686,47.4751,102.934,47.91,102.019,48.2713 C99.3807,49.3119,97.2296,49.0644,95.5657,47.5289 C94.6405,46.6844,93.7758,45.243,92.9717,43.2044 C92.9717,43.2044,88.7338,32.4613,88.7338,32.4613 C88.7338,32.4613,93.5086,30.5778,93.5086,30.5778 C93.5086,30.5778,97.7464,41.3209,97.7464,41.3209 C98.1464,42.3347,98.5673,43.0505,99.0092,43.4683 C99.7913,44.2054,100.804,44.3288,102.046,43.8386 C103.638,43.2108,104.474,42.1376,104.556,40.619 C104.586,39.8009,104.375,38.8196,103.923,37.6749 z M121.661,37.9471 C121.897,38.1008,122.514,38.0723,123.512,37.8614 C123.661,37.8299,123.818,37.7937,123.983,37.7529 C124.148,37.712,124.309,37.6689,124.467,37.6235 C124.467,37.6235,125.242,41.2867,125.242,41.2867 C125.242,41.2867,122.938,41.8634,122.938,41.8634 C120.639,42.4332,118.972,42.3663,117.937,41.6628 C117.268,41.2174,116.81,40.4099,116.563,39.2404 C116.563,39.2404,114.123,27.7005,114.123,27.7005 C114.123,27.7005,111.509,28.253,111.509,28.253 C111.509,28.253,110.771,24.7618,110.771,24.7618 C110.771,24.7618,113.385,24.2093,113.385,24.2093 C113.385,24.2093,112.28,18.981,112.28,18.981 C112.28,18.981,117.13,17.9559,117.13,17.9559 C117.13,17.9559,118.235,23.1841,118.235,23.1841 C118.235,23.1841,121.279,22.5407,121.279,22.5407 C121.279,22.5407,122.017,26.0319,122.017,26.0319 C122.017,26.0319,118.973,26.6753,118.973,26.6753 C118.973,26.6753,121.067,36.5815,121.067,36.5815 C121.23,37.3497,121.428,37.8049,121.661,37.9471 z M136.149,40.7325 C133.715,40.8574,131.527,40.1834,129.586,38.7106 C127.644,37.2377,126.583,34.7341,126.402,31.1997 C126.232,27.8877,126.942,25.305,128.53,23.4516 C130.119,21.5983,132.254,20.6029,134.934,20.4655 C136.525,20.3838,137.974,20.6087,139.281,21.1402 C140.587,21.6716,141.689,22.5598,142.585,23.8045 C143.393,24.9013,143.946,26.193,144.245,27.6797 C144.419,28.5508,144.536,29.8121,144.598,31.4635 C144.598,31.4635,131.501,32.1351,131.501,32.1351 C131.67,34.0508,132.342,35.3658,133.517,36.08 C134.232,36.5244,135.075,36.7217,136.046,36.6719 C137.076,36.6191,137.898,36.2836,138.512,35.6654 C138.847,35.3314,139.134,34.8766,139.375,34.3011 C139.375,34.3011,144.483,34.0391,144.483,34.0391 C144.413,35.1809,143.881,36.364,142.888,37.5884 C141.344,39.5332,139.098,40.5813,136.149,40.7325 z M135.145,24.5909 C133.987,24.6503,133.107,25.0592,132.506,25.8175 C131.906,26.5758,131.555,27.5795,131.455,28.8284 C131.455,28.8284,139.232,28.4296,139.232,28.4296 C139.082,27.1113,138.63,26.1283,137.875,25.4806 C137.12,24.8328,136.21,24.5363,135.145,24.5909 z M178.082,28.8747 C179.136,31.2438,179.316,33.7667,178.62,36.4432 C177.912,39.1652,176.524,41.2895,174.456,42.8161 C172.388,44.3428,169.76,44.6917,166.573,43.8628 C163.386,43.034,161.262,41.4492,160.199,39.1084 C159.137,36.7676,158.96,34.2362,159.668,31.5143 C160.364,28.8377,161.75,26.7219,163.825,25.1669 C165.901,23.6119,168.532,23.2488,171.719,24.0777 C174.906,24.9066,177.027,26.5056,178.082,28.8747 z M173.513,30.5198 C173.012,29.3241,172.053,28.5419,170.636,28.1732 C169.218,27.8045,167.996,28.0224,166.969,28.827 C165.943,29.6317,165.187,30.964,164.704,32.824 C164.22,34.684,164.23,36.2182,164.733,37.4267 C165.236,38.6352,166.196,39.4238,167.614,39.7925 C169.031,40.1612,170.251,39.9397,171.274,39.1279 C172.296,38.3162,173.049,36.9803,173.533,35.1203 C174.017,33.2603,174.01,31.7268,173.513,30.5198 z M192.558,32.4478 C192.558,32.4478,195.555,33.7982,195.555,33.7982 C195.555,33.7982,194.104,37.0194,194.104,37.0194 C194.104,37.0194,191.107,35.6691,191.107,35.6691 C191.107,35.6691,184.759,49.7562,184.759,49.7562 C184.759,49.7562,180.208,47.7054,180.208,47.7054 C180.208,47.7054,186.555,33.6182,186.555,33.6182 C186.555,33.6182,184.007,32.4701,184.007,32.4701 C184.007,32.4701,185.458,29.2488,185.458,29.2488 C185.458,29.2488,187.959,30.3753,187.959,30.3753 C187.959,30.3753,188.464,29.2534,188.464,29.2534 C189.307,27.3837,190.202,26.2383,191.15,25.8171 C192.284,25.0686,194.117,25.2648,196.649,26.4057 C196.938,26.5357,197.196,26.6617,197.424,26.7836 C197.652,26.9056,197.961,27.074,198.353,27.289 C198.353,27.289,196.678,31.0071,196.678,31.0071 C196.436,30.8595,196.016,30.6417,195.42,30.3537 C194.824,30.0657,194.347,30.0114,193.989,30.1911 C193.632,30.3707,193.377,30.6315,193.222,30.9734 C193.222,30.9734,192.558,32.4478,192.558,32.4478 z M213.733,36.3587 C213.733,36.3587,230.102,49.4954,230.102,49.4954 C230.102,49.4954,227.23,53.0735,227.23,53.0735 C227.23,53.0735,221.184,48.2215,221.184,48.2215 C221.184,48.2215,207.839,64.8507,207.839,64.8507 C207.839,64.8507,203.589,61.44,203.589,61.44 C203.589,61.44,216.934,44.8108,216.934,44.8108 C216.934,44.8108,210.861,39.9368,210.861,39.9368 C210.861,39.9368,213.733,36.3587,213.733,36.3587 z M218.234,76.4197 C216.661,74.558,215.872,72.4088,215.869,69.972 C215.866,67.5353,217.216,65.1747,219.919,62.8903 C222.452,60.7496,224.937,59.7503,227.374,59.8925 C229.811,60.0346,231.895,61.1306,233.627,63.1802 C234.656,64.3975,235.355,65.6868,235.723,67.0481 C236.091,68.4095,236.051,69.824,235.603,71.2915 C235.219,72.5981,234.526,73.8205,233.524,74.9588 C232.936,75.6246,232.004,76.4818,230.727,77.5305 C230.727,77.5305,222.262,67.515,222.262,67.515 C220.84,68.8092,220.2,70.1401,220.343,71.5075 C220.422,72.3457,220.776,73.1363,221.404,73.8792 C222.069,74.6668,222.834,75.1177,223.697,75.2317 C224.166,75.296,224.702,75.2495,225.306,75.0923 C225.306,75.0923,228.608,78.9991,228.608,78.9991 C227.656,79.6344,226.393,79.9275,224.817,79.8784 C222.335,79.8281,220.14,78.6752,218.234,76.4197 z M230.472,65.8466 C229.723,64.9605,228.865,64.5081,227.898,64.4893 C226.931,64.4705,225.92,64.7993,224.866,65.4758 C224.866,65.4758,229.892,71.4234,229.892,71.4234 C230.85,70.506,231.359,69.5508,231.417,68.5578 C231.476,67.5648,231.161,66.6611,230.472,65.8466 z M243.686,85.4041 C242.873,83.9254,241.583,83.3175,239.815,83.5805 C238.876,83.722,237.76,84.1484,236.466,84.8597 C235.234,85.5371,234.322,86.2257,233.73,86.9253 C232.622,88.2168,232.465,89.5866,233.261,91.0345 C233.826,92.0615,234.504,92.6382,235.296,92.7646 C236.087,92.8911,236.95,92.7578,237.884,92.3647 C237.884,92.3647,240.348,96.8473,240.348,96.8473 C238.957,97.4785,237.428,97.6902,235.763,97.4824 C233.086,97.162,231.005,95.6514,229.52,92.9506 C228.036,90.2497,227.744,87.8223,228.646,85.6682 C229.548,83.5141,231.278,81.7343,233.835,80.3286 C236.721,78.7422,239.351,78.2122,241.727,78.7384 C244.102,79.2646,245.97,80.7652,247.331,83.2401 C248.488,85.3453,248.962,87.3277,248.754,89.1872 C248.546,91.0467,247.314,92.7574,245.056,94.3192 C245.056,94.3192,242.584,89.8213,242.584,89.8213 C243.165,89.3948,243.614,88.8737,243.931,88.2582 C244.338,87.3927,244.256,86.4413,243.686,85.4041 z M252.553,110.536 C253.272,109.84,253.446,108.881,253.075,107.658 C252.691,106.391,251.976,105.558,250.93,105.159 C249.884,104.76,248.576,104.799,247.006,105.276 C247.006,105.276,237.082,108.288,237.082,108.288 C237.082,108.288,235.632,103.511,235.632,103.511 C235.632,103.511,260.341,96.0107,260.341,96.0107 C260.341,96.0107,261.791,100.788,261.791,100.788 C261.791,100.788,253.028,103.448,253.028,103.448 C254.304,103.82,255.291,104.399,255.989,105.185 C256.687,105.971,257.189,106.869,257.496,107.878 C257.84,109.011,257.956,110.099,257.844,111.143 C257.732,112.188,257.363,113.129,256.736,113.969 C256.205,114.681,255.595,115.203,254.906,115.535 C254.217,115.866,253.053,116.281,251.416,116.778 C251.416,116.778,240.651,120.045,240.651,120.045 C240.651,120.045,239.165,115.151,239.165,115.151 C239.165,115.151,250.317,111.765,250.317,111.765 C251.304,111.466,252.049,111.056,252.553,110.536 z M260.76,138.716 C259.818,140.048,258.15,140.808,255.755,140.997 C255.755,140.997,242.893,142.011,242.893,142.011 C242.893,142.011,242.49,136.894,242.49,136.894 C242.49,136.894,254.108,135.978,254.108,135.978 C255.113,135.899,255.873,135.704,256.389,135.393 C257.332,134.825,257.749,133.851,257.64,132.473 C257.507,130.779,256.697,129.673,255.21,129.156 C254.425,128.888,253.442,128.801,252.262,128.894 C252.262,128.894,241.923,129.709,241.923,129.709 C241.923,129.709,241.531,124.732,241.531,124.732 C241.531,124.732,260.597,123.229,260.597,123.229 C260.597,123.229,260.977,128.048,260.977,128.048 C260.977,128.048,258.19,128.268,258.19,128.268 C259.222,128.833,259.977,129.385,260.454,129.923 C261.306,130.891,261.795,132.163,261.919,133.74 C262.075,135.714,261.688,137.373,260.76,138.716 z M257.138,164.812 C254.908,166.136,252.423,166.609,249.683,166.229 C246.897,165.844,244.626,164.713,242.868,162.837 C241.111,160.961,240.458,158.392,240.909,155.131 C241.361,151.869,242.687,149.574,244.888,148.246 C247.089,146.918,249.582,146.447,252.368,146.832 C255.108,147.211,257.371,148.341,259.157,150.221 C260.944,152.101,261.611,154.672,261.16,157.934 C260.708,161.195,259.367,163.488,257.138,164.812 z M254.971,160.466 C256.1,159.83,256.765,158.786,256.966,157.335 C257.167,155.884,256.808,154.696,255.889,153.77 C254.97,152.844,253.559,152.25,251.655,151.986 C249.751,151.723,248.228,151.911,247.087,152.552 C245.945,153.192,245.274,154.238,245.073,155.689 C244.872,157.14,245.235,158.326,246.16,159.247 C247.086,160.168,248.5,160.76,250.404,161.023 C252.308,161.287,253.83,161.101,254.971,160.466 z M263.659,175.983 C263.659,175.983,262.198,180.775,262.198,180.775 C262.198,180.775,237.414,173.218,237.414,173.218 C237.414,173.218,238.876,168.426,238.876,168.426 C238.876,168.426,263.659,175.983,263.659,175.983 z M244.082,199.67 C241.551,200.232,239.043,199.905,236.558,198.689 C234.032,197.453,232.227,195.669,231.143,193.339 C230.059,191.008,230.241,188.363,231.688,185.406 C233.136,182.448,235.112,180.682,237.618,180.107 C240.123,179.533,242.639,179.864,245.165,181.1 C247.649,182.315,249.447,184.095,250.557,186.439 C251.667,188.782,251.499,191.433,250.051,194.391 C248.604,197.349,246.614,199.109,244.082,199.67 z M243.381,194.865 C244.652,194.613,245.61,193.829,246.254,192.513 C246.898,191.197,246.928,189.956,246.344,188.79 C245.76,187.624,244.605,186.618,242.878,185.773 C241.152,184.929,239.647,184.632,238.362,184.885 C237.078,185.137,236.113,185.921,235.47,187.236 C234.826,188.552,234.8,189.792,235.392,190.955 C235.983,192.119,237.142,193.123,238.869,193.968 C240.595,194.813,242.099,195.112,243.381,194.865 z M219.931,199.66 C219.238,199.798,218.494,200.367,217.699,201.367 C216.576,202.779,216.298,204.1,216.863,205.328 C217.221,206.121,218.115,207.086,219.546,208.224 C219.546,208.224,220.509,208.99,220.509,208.99 C220.166,208.103,220.005,207.317,220.027,206.63 C220.051,205.377,220.558,204.126,221.55,202.878 C223.081,200.952,224.981,199.951,227.249,199.875 C229.518,199.799,231.808,200.68,234.119,202.518 C236.349,204.29,237.781,206.334,238.417,208.651 C239.053,210.968,238.561,213.145,236.943,215.181 C236.345,215.933,235.709,216.498,235.034,216.875 C233.882,217.516,232.544,217.71,231.023,217.459 C231.023,217.459,233.183,219.176,233.183,219.176 C233.183,219.176,230.153,222.988,230.153,222.988 C230.153,222.988,215.925,211.678,215.925,211.678 C213.989,210.139,212.79,208.654,212.326,207.223 C211.527,204.762,212.39,201.944,214.913,198.77 C216.437,196.853,218.056,195.588,219.771,194.975 C221.486,194.362,223.142,194.585,224.739,195.646 C224.739,195.646,221.349,199.911,221.349,199.911 C220.802,199.657,220.33,199.573,219.931,199.66 z M232.772,213.393 C233.866,212.017,233.974,210.554,233.096,209.003 C232.627,208.18,231.888,207.368,230.879,206.566 C230.007,205.873,229.116,205.404,228.203,205.158 C226.514,204.684,225.123,205.135,224.029,206.511 C223.3,207.428,223.03,208.479,223.22,209.662 C223.409,210.846,224.261,212.039,225.774,213.242 C227.196,214.372,228.518,214.932,229.738,214.922 C230.959,214.912,231.97,214.402,232.772,213.393 z M206.84,215.882 C207.056,216.526,207.226,216.887,207.352,216.965 C207.352,216.965,225.544,227.857,225.544,227.857 C225.544,227.857,221.258,231.418,221.258,231.418 C221.258,231.418,209.009,223.222,209.009,223.222 C209.009,223.222,214.999,236.62,214.999,236.62 C214.999,236.62,210.902,240.024,210.902,240.024 C210.902,240.024,203.916,221.329,203.916,221.329 C202.568,217.726,201.898,215.353,201.908,214.209 C201.918,213.066,202.775,211.787,204.478,210.371 C204.821,210.086,205.098,209.86,205.309,209.693 C205.52,209.525,205.844,209.282,206.281,208.965 C206.281,208.965,208.842,212.047,208.842,212.047 C208.842,212.047,208.333,212.425,208.333,212.425 C207.939,212.721,207.59,213.034,207.285,213.364 C206.98,213.694,206.778,214.037,206.678,214.394 C206.58,214.734,206.634,215.23,206.84,215.882 z"/>
      </g>
    </g>
  </g>
</svg>
