<?xml version="1.0" encoding="UTF-8" standalone="no"?>
<!DOCTYPE svg PUBLIC "-//W3C//DTD SVG 1.1//EN" "http://www.w3.org/Graphics/SVG/1.1/DTD/svg11.dtd">
<!-- Created with Vectornator (http://vectornator.io/) -->
<svg height="100%" stroke-miterlimit="10" style="fill-rule:nonzero;clip-rule:evenodd;stroke-linecap:round;stroke-linejoin:round;" version="1.1" viewBox="0 0 85.05 85.05" width="100%" xml:space="preserve" xmlns="http://www.w3.org/2000/svg" xmlns:vectornator="http://vectornator.io" xmlns:xlink="http://www.w3.org/1999/xlink">
<defs/>
<clipPath id="ArtboardFrame">
<rect height="85.05" width="85.05" x="0" y="0"/>
</clipPath>
<g clip-path="url(#ArtboardFrame)" id="レイヤー-1" vectornator:layerName="レイヤー 1" visibility="hidden">
<g opacity="1" vectornator:layerName="(curve)">
<path d="M86.7507 63.757C100.338 63.7798 106.979 60.2553 113.392 51.5329C119.806 42.8105 119.314 38.4737 112.406 28.8674C105.497 19.2612 96.5492 21.1952 83.1258 21.1724C69.7023 21.1496 47.985 28.8349 48.4783 43.4267C48.9719 58.0255 73.163 63.7342 86.7507 63.757Z" fill="#ffffff" fill-rule="nonzero" opacity="1" stroke="#000000" stroke-linecap="round" stroke-linejoin="round" stroke-width="0.3"/>
<path d="M41.0766 22.3892C35.3537 22.1172 26.1084 18.5467 23.9584 15.3465C23.1048 14.0761 26.0077 8.87466 29.1975 7.26688C30.2484 6.73718 33.9662 12.2433 35.0628 11.7433C39.9113 9.53255 44.2286 10.947 46.8069 11.7443C51.1348 13.0827 56.9892 16.8043 57.411 19.6675C57.8328 22.5308 46.7994 22.6612 41.0766 22.3892Z" fill="#000000" fill-rule="nonzero" opacity="1" stroke="#000000" stroke-linecap="round" stroke-linejoin="round" stroke-width="0.3"/>
<path d="M35.4953 66.6846C30.4301 69.3621 31.1496 68.868 26.2018 70.5547C21.5769 72.1314 18.2179 72.4664 18.2179 75.1652C18.2179 79.0017 21.492 82.954 24.2902 80.9001C27.0883 78.8462 31.8561 76.5278 33.0613 76.5146C38.3897 76.4561 43.2097 75.7039 45.205 73.8868C48.5543 70.8366 52.2732 64.9804 51.4386 62.2092C50.6041 59.438 40.5605 64.0072 35.4953 66.6846Z" fill="#000000" fill-rule="nonzero" opacity="1" stroke="#000000" stroke-linecap="round" stroke-linejoin="round" stroke-width="0.3"/>
<path d="M45.9679 71.3209C59.2921 73.6949 70.0274 54.5511 70.0274 54.5511L74.4129 40.986C74.4129 40.986 75.2968 19.8835 62.1336 17.5379C48.9705 15.1922 25.5417 20.0491 19.5183 38.0967C13.492 56.1529 32.6436 68.947 45.9679 71.3209Z" fill="#ffffff" fill-rule="nonzero" opacity="1" stroke="#000000" stroke-linecap="round" stroke-linejoin="round" stroke-width="0.3"/>
<path d="M10.0883 58.4652C13.6179 66.883 27.7507 62.4366 27.7507 62.4366C27.7507 62.4366 28.0099 58.2199 25.835 53.3997C23.6602 48.5795 18.935 46.7964 18.935 46.7964C18.935 46.7964 6.55883 50.0474 10.0883 58.4652Z" fill="#000000" fill-rule="nonzero" opacity="1" stroke="#000000" stroke-linecap="round" stroke-linejoin="round" stroke-width="0.3"/>
<path d="M17.091 24.0995C9.99486 31.0352 20.2587 37.0135 20.2587 37.0135C20.2587 37.0135 28.0642 37.7314 30.5869 32.5692C33.1095 27.407 32.3991 23.5894 32.3991 23.5894C32.3991 23.5894 23.3058 18.0252 17.091 24.0995Z" fill="#000000" fill-rule="nonzero" opacity="1" stroke="#000000" stroke-linecap="round" stroke-linejoin="round" stroke-width="0.3"/>
<path d="M32.6624 52.3842C35.5293 57.3286 39.5834 59.3596 41.6371 57.3701C46.9554 52.218 42.9528 51.763 40.0859 46.8186C37.219 41.8743 30.8342 39.587 30.8342 39.587C30.8342 39.587 29.7955 47.4398 32.6624 52.3842Z" fill="#000000" fill-rule="nonzero" opacity="1" stroke="#000000" stroke-linecap="round" stroke-linejoin="round" stroke-width="0.3"/>
<path d="M36.4879 25.0643C40.6039 21.0989 45.0602 20.2609 46.4877 22.7385C50.1842 29.1544 46.2109 28.4912 42.0949 32.4567C37.9789 36.4221 31.2113 36.8655 31.2113 36.8655C31.2113 36.8655 32.3719 29.0298 36.4879 25.0643Z" fill="#000000" fill-rule="nonzero" opacity="1" stroke="#000000" stroke-linecap="round" stroke-linejoin="round" stroke-width="0.3"/>
<path d="M43.8957 39.8087C43.7807 42.9623 44.1603 44.2741 45.5755 44.2187C49.5262 44.064 50.3352 43.0663 50.8 40.1598C51.2649 37.2533 47.4322 35.2853 47.4322 35.2853C47.4322 35.2853 44.003 36.8672 43.8957 39.8087Z" fill="#000000" fill-rule="nonzero" opacity="1" stroke="#000000" stroke-linecap="round" stroke-linejoin="round" stroke-width="0.3"/>
<path d="M103.594 67.1677C106.483 70.0098 125.504 67.5833 128.377 64.8636C129.517 63.7838 128.624 59.9712 129.413 51.0471C130.202 42.1229 125.57 51.8369 115.695 50.6008C103.556 49.0813 98.0507 52.2458 96.1973 55.5124C94.3439 58.779 100.705 64.3257 103.594 67.1677Z" fill="#000000" fill-rule="nonzero" opacity="1" stroke="#000000" stroke-linecap="round" stroke-linejoin="round" stroke-width="0.3"/>
<path d="M94.8024 19.4984C96.1446 15.6747 114.291 9.47815 118.068 10.6551C119.567 11.1224 120.444 14.9388 125.082 22.6038C129.72 30.2688 121.283 23.587 112.961 29.0449C102.732 35.7541 96.3956 35.3368 93.2932 33.22C90.1908 31.1032 93.4602 23.3221 94.8024 19.4984Z" fill="#000000" fill-rule="nonzero" opacity="1" stroke="#000000" stroke-linecap="round" stroke-linejoin="round" stroke-width="0.3"/>
<path d="M32.7802 31.4349C32.7802 30.1331 33.8356 29.0777 35.1374 29.0777C36.4393 29.0777 37.4946 30.1331 37.4946 31.4349C37.4946 32.7367 36.4393 33.7921 35.1374 33.7921C33.8356 33.7921 32.7802 32.7367 32.7802 31.4349Z" fill="#ffffff" fill-rule="nonzero" opacity="1" stroke="none"/>
<path d="M31.7336 47.2723C31.7336 45.9704 32.789 44.9151 34.0908 44.9151C35.3926 44.9151 36.448 45.9704 36.448 47.2723C36.448 48.5741 35.3926 49.6295 34.0908 49.6295C32.789 49.6295 31.7336 48.5741 31.7336 47.2723Z" fill="#ffffff" fill-rule="nonzero" opacity="1" stroke="none"/>
</g>
</g>
<g id="レイヤー-2" vectornator:layerName="レイヤー 2">
<g opacity="1" vectornator:layerName="(curve)">
<path d="M58.7498 73.5334C70.287 73.5609 75.3411 55.4987 75.3411 55.4987L75.0623 38.2337C75.0623 38.2337 70.1476 20.0066 58.7498 19.9791C47.352 19.9516 28.9118 29.2164 29.3307 46.807C29.7498 64.406 47.2125 73.5059 58.7498 73.5334Z" fill="#ffffff" fill-rule="nonzero" opacity="1" stroke="#000000" stroke-linecap="round" stroke-linejoin="round" stroke-width="0.3"/>
<path d="M26.3484 75.1166C21.5268 76.2891 14.4822 77.5251 11.3522 76.5461C10.1096 76.1574 4.97821 71.6802 6.22018 68.8541C6.62937 67.9231 12.7632 69.8583 13.2184 68.9222C15.231 64.7835 22.9819 63.4615 25.1082 62.5888C26.1546 62.1593 23.5581 23.3537 23.5581 23.3537C23.5581 23.3537 15.5511 20.0478 12.6852 12.9685C12.3024 12.0228 7.75283 10.4279 6.55343 9.4969C4.9523 8.2541 6.34757 4.67815 10.0859 3.71093C15.1406 2.4031 23.2195 7.55964 25.9485 8.8162C45.6101 17.8695 55.531 21.6822 55.341 45.0976C55.141 69.7391 32.0097 73.7399 26.3484 75.1166Z" fill="#000000" fill-rule="nonzero" opacity="1" stroke="#000000" stroke-linecap="round" stroke-linejoin="round" stroke-width="0.3"/>
<path d="M27.1282 62.4804C41.3174 63.5295 49.2937 49.9432 49.661 39.3915C49.9283 31.7115 40.5465 20.8185 30.3843 17.7435C24.8302 16.0629 17.8625 20.2867 15.0099 22.3402C11.2131 25.0734 11.154 27.6793 6.71117 30.8086C1.89307 34.2023 1.36917 37.6903 1.36917 41.0317C1.36917 44.6516 4.17245 49.4397 7.80265 51.333C10.4055 52.6904 11.9902 55.9311 14.0947 57.628C16.3898 59.4785 22.1357 62.1112 27.1282 62.4804Z" fill="#ffffff" fill-rule="nonzero" opacity="1" stroke="#000000" stroke-linecap="round" stroke-linejoin="round" stroke-width="0.3"/>
<path d="M39.9929 60.3298C43.9968 55.0247 40.1601 52.6021 38.8961 52.9482C37.6321 53.2943 36.1015 54.5206 34.3367 56.8539C32.5719 59.1872 31.2609 61.9207 31.2609 61.9207C31.2609 61.9207 37.3496 63.8322 39.9929 60.3298Z" fill="#000000" fill-rule="nonzero" opacity="1" stroke="#ffffff" stroke-linecap="round" stroke-linejoin="round" stroke-width="0.3"/>
<path d="M39.4131 19.403C36.6236 17.1002 30.6736 18.2312 30.6736 18.2312C30.6736 18.2312 28.7084 22.5128 31.498 24.8156C34.2876 27.1184 37.3469 27.6546 39.3257 26.3014C41.3045 24.9483 42.2027 21.7057 39.4131 19.403Z" fill="#000000" fill-rule="nonzero" opacity="1" stroke="#fff9f9" stroke-linecap="round" stroke-linejoin="round" stroke-width="0.3"/>
<path d="M16.1969 47.9719C17.04 46.5079 17.9662 45.046 16.8868 43.7953C15.6604 42.3744 15.7754 44.0106 12.9806 45.5504C10.2639 47.0473 9.94531 50.7271 10.9083 51.5886C12.9778 53.4401 14.5531 50.8261 16.1969 47.9719Z" fill="#000000" fill-rule="nonzero" opacity="1" stroke="#000000" stroke-linecap="round" stroke-linejoin="round" stroke-width="0.3"/>
<path d="M2.16467 40.3343C1.95568 42.7455 3.98287 44.2341 4.9265 43.9373C6.07809 43.5752 4.88576 41.8358 4.85676 40.5421C4.82699 39.2147 5.22635 37.5221 4.74052 37.2419C4.25469 36.9617 2.32982 38.429 2.16467 40.3343Z" fill="#000000" fill-rule="nonzero" opacity="1" stroke="#000000" stroke-linecap="round" stroke-linejoin="round" stroke-width="0.3"/>
<path d="M77.8987 65.1782C75.5944 62.5763 66.3769 61.5376 63.8259 63.7517C62.8131 64.6307 56.931 69.7831 57.2582 73.0459C57.366 74.1209 67.761 76.1139 67.9021 77.1812C68.5264 81.9006 80.8562 78.9458 82.5728 76.2084C84.2895 73.471 80.203 67.7801 77.8987 65.1782Z" fill="#000000" fill-rule="nonzero" opacity="1" stroke="#000000" stroke-linecap="round" stroke-linejoin="round" stroke-width="0.3"/>
<path d="M74.5802 31.9754C71.9766 34.264 69.2867 34.0133 64.2123 32.0229C59.1378 30.0325 56.9218 23.2966 57.6442 20.1008C57.8822 19.0479 65.8543 19.8358 66.1245 18.7947C67.3191 14.1914 79.1929 18.6909 80.5625 21.6253C81.9321 24.5597 77.1838 29.6867 74.5802 31.9754Z" fill="#000000" fill-rule="nonzero" opacity="1" stroke="#000000" stroke-linecap="round" stroke-linejoin="round" stroke-width="0.3"/>
<path d="M15.9416 32.5249C16.8057 33.9363 17.7549 35.3457 16.6486 36.5515C15.3917 37.9213 15.5095 36.3439 12.6451 34.8594C9.86064 33.4163 9.53414 29.8687 10.5211 29.0381C12.6422 27.2531 14.2568 29.7732 15.9416 32.5249Z" fill="#000000" fill-rule="nonzero" opacity="1" stroke="#000000" stroke-linecap="round" stroke-linejoin="round" stroke-width="0.3"/>
</g>
</g>
</svg>
