<?xml version="1.0" encoding="UTF-8" standalone="no"?>
<!DOCTYPE svg PUBLIC "-//W3C//DTD SVG 1.1//EN" "http://www.w3.org/Graphics/SVG/1.1/DTD/svg11.dtd">
<!-- Created with Vectornator (http://vectornator.io/) -->
<svg height="100%" stroke-miterlimit="10" style="fill-rule:nonzero;clip-rule:evenodd;stroke-linecap:round;stroke-linejoin:round;" version="1.1" viewBox="0 0 85.05 85.05" width="100%" xml:space="preserve" xmlns="http://www.w3.org/2000/svg" xmlns:xlink="http://www.w3.org/1999/xlink">
<defs/>
<g id="レイヤー-1" visibility="hidden">
<path d="M12.9662 59.3861C12.939 71.0114 30.8276 76.1041 30.8276 76.1041L47.9267 75.8231C47.9267 75.8231 65.9787 70.8709 66.0059 59.3861C66.0331 47.9013 56.8574 29.3205 39.4358 29.7426C22.0058 30.1648 12.9934 47.7608 12.9662 59.3861Z" fill="#ffffff" fill-rule="nonzero" opacity="1" stroke="#000000" stroke-linecap="round" stroke-linejoin="round" stroke-width="0.3"/>
<path d="M68.5822 54.9144C68.9071 59.8055 66.76 68.0109 64.2384 70.1488C63.2374 70.9976 58.5163 69.0342 56.8339 66.4785C56.2797 65.6365 60.6164 61.9423 60.083 61.0586C57.7246 57.1514 58.5115 53.3443 58.9409 51.0753C59.6618 47.2665 62.2677 41.9291 64.67 41.2929C67.0723 40.6568 68.2573 50.0232 68.5822 54.9144Z" fill="#000000" fill-rule="nonzero" opacity="1" stroke="#000000" stroke-linecap="round" stroke-linejoin="round" stroke-width="0.3"/>
<path d="M11.2565 47.1786C8.9409 51.5037 7.51007 59.8626 8.92571 62.8445C9.48773 64.0283 14.6016 64.1731 17.1903 62.5329C18.0432 61.9926 15.6156 56.8484 16.4667 56.2614C20.2295 53.6663 21.0842 49.8738 21.6296 47.6296C22.5451 43.8626 22.3736 37.9298 20.4466 36.3657C18.5196 34.8015 13.5721 42.8534 11.2565 47.1786Z" fill="#000000" fill-rule="nonzero" opacity="1" stroke="#000000" stroke-linecap="round" stroke-linejoin="round" stroke-width="0.3"/>
<path d="M8.23679 22.842C5.3109 34.2419 26.7762 44.9566 26.7762 44.9566L48.5747 50.1455C48.5747 50.1455 72.7458 51.0548 75.6368 39.7927C78.5277 28.5306 71.4889 7.36361 49.2455 2.21012C26.9914-2.94584 11.1627 11.442 8.23679 22.842Z" fill="#ffffff" fill-rule="nonzero" opacity="1" stroke="#000000" stroke-linecap="round" stroke-linejoin="round" stroke-width="0.3"/>
<path d="M15.4225 2.62354C11.1759 5.0764 11.283 15.8476 11.283 15.8476C11.283 15.8476 16.8385 17.0037 21.085 14.5509C25.3315 12.098 28.0627 3.62643 28.0627 3.62643C28.0627 3.62643 19.669 0.170681 15.4225 2.62354Z" fill="#000000" fill-rule="nonzero" opacity="1" stroke="#000000" stroke-linecap="round" stroke-linejoin="round" stroke-width="0.3"/>
<path d="M74.3455 9.68211C69.9114 5.47187 60.6679 7.7553 60.6679 7.7553C60.6679 7.7553 57.7535 15.7941 62.1877 20.0043C66.6218 24.2145 74.0692 24.8213 74.0692 24.8213C74.0692 24.8213 78.7797 13.8924 74.3455 9.68211Z" fill="#000000" fill-rule="nonzero" opacity="1" stroke="#000000" stroke-linecap="round" stroke-linejoin="round" stroke-width="0.3"/>
<path d="M23.02 30.4035C18.7735 32.8564 17.029 36.3249 18.7378 38.082C23.1627 42.6322 23.5535 39.2078 27.8 36.7549C32.0466 34.302 34.011 28.8394 34.011 28.8394C34.011 28.8394 27.2665 27.9506 23.02 30.4035Z" fill="#000000" fill-rule="nonzero" opacity="1" stroke="#000000" stroke-linecap="round" stroke-linejoin="round" stroke-width="0.3"/>
<path d="M51.4722 37.9474C54.5606 41.7482 54.9479 45.6085 52.7223 46.6426C46.9588 49.3205 47.8203 45.9825 44.7318 42.1817C41.6434 38.3809 41.7648 32.5796 41.7648 32.5796C41.7648 32.5796 48.3837 34.1466 51.4722 37.9474Z" fill="#000000" fill-rule="nonzero" opacity="1" stroke="#000000" stroke-linecap="round" stroke-linejoin="round" stroke-width="0.3"/>
<path d="M34.4298 42.7541C31.9965 41.565 30.8348 41.4042 30.383 42.5293C29.1219 45.6701 29.6213 46.65 31.7383 48.0264C33.8554 49.4028 36.7402 47.0941 36.7402 47.0941C36.7402 47.0941 36.6994 43.8633 34.4298 42.7541Z" fill="#000000" fill-rule="nonzero" opacity="1" stroke="#000000" stroke-linecap="round" stroke-linejoin="round" stroke-width="0.3"/>
<path d="M19.9553 69.6691C18.8827 72.9615 22.6369 81.5242 25.8239 82.6639C27.0892 83.1163 34.4782 85.721 37.1149 83.8306C37.9836 83.2078 34.4553 73.1473 35.3007 72.4991C39.0384 69.6331 30.2863 60.3154 27.0706 60.1619C23.8548 60.0085 21.028 66.3767 19.9553 69.6691Z" fill="#000000" fill-rule="nonzero" opacity="1" stroke="#000000" stroke-linecap="round" stroke-linejoin="round" stroke-width="0.3"/>
<path d="M56.7482 72.3861C57.6549 75.728 56.2557 78.065 52.2608 81.8264C48.2659 85.5878 41.281 84.7276 38.7421 82.7078C37.9056 82.0423 42.0925 75.1352 41.2806 74.4456C37.6908 71.3963 46.8976 62.5277 50.1171 62.5352C53.3365 62.5427 55.8415 69.0442 56.7482 72.3861Z" fill="#000000" fill-rule="nonzero" opacity="1" stroke="#000000" stroke-linecap="round" stroke-linejoin="round" stroke-width="0.3"/>
<path d="M25.2856 31.3671C25.2856 30.5542 26.0344 32.6327 26.815 32.6327C27.5956 32.6327 28.3909 31.2486 28.3909 32.0616C28.3909 32.8745 27.5637 33.3081 26.7831 33.3081C26.0025 33.3081 25.2856 32.1801 25.2856 31.3671Z" fill="#ffffff" fill-rule="nonzero" opacity="0" stroke="none"/>
<path d="M47.4058 38.1504C47.917 37.5168 46.0242 38.6554 45.4158 38.1682C44.8074 37.6811 45.0599 36.1201 44.5487 36.7537C44.0374 37.3874 44.4095 38.2416 45.0179 38.7288C45.6263 39.2159 46.8945 38.7841 47.4058 38.1504Z" fill="#ffffff" fill-rule="nonzero" opacity="0" stroke="none"/>
</g>
<g id="レイヤー-2">
<g opacity="1">
<path d="M14.1172 54.6431C14.0898 66.3714 32.0679 71.5092 32.0679 71.5092L49.2524 71.2257C49.2524 71.2257 67.3946 66.2297 67.422 54.6431C67.4493 43.0566 58.2277 24.3112 40.719 24.737C23.202 25.163 14.1445 42.9149 14.1172 54.6431Z" fill="#ffffff" fill-rule="nonzero" opacity="1" stroke="#000000" stroke-linecap="round" stroke-linejoin="round" stroke-width="0.3"/>
<path d="M70.4441 56.6369C70.7706 61.5714 68.6128 69.8494 66.0787 72.0063C65.0726 72.8626 60.328 70.8818 58.6371 68.3035C58.0801 67.4541 62.4385 63.7271 61.9024 62.8356C59.5323 58.8937 60.323 55.0529 60.7546 52.7638C61.4791 48.9213 64.0981 43.5366 66.5124 42.8948C68.9266 42.2531 70.1176 51.7024 70.4441 56.6369Z" fill="#000000" fill-rule="nonzero" opacity="1" stroke="#000000" stroke-linecap="round" stroke-linejoin="round" stroke-width="0.3"/>
<path d="M13.233 48.6984C10.9058 53.0619 9.46787 61.4948 10.8906 64.503C11.4554 65.6973 16.5948 65.8434 19.1965 64.1887C20.0536 63.6436 17.6139 58.4538 18.4692 57.8617C22.2509 55.2436 23.1099 51.4175 23.658 49.1534C24.5781 45.3531 24.4057 39.3677 22.4691 37.7897C20.5324 36.2117 15.5602 44.3349 13.233 48.6984Z" fill="#000000" fill-rule="nonzero" opacity="1" stroke="#000000" stroke-linecap="round" stroke-linejoin="round" stroke-width="0.3"/>
<path d="M9.19546 24.012C6.25493 35.5129 27.8276 46.3225 27.8276 46.3225L49.7349 51.5574C49.7349 51.5574 74.0269 52.4747 76.9323 41.1129C79.8377 29.7511 72.7637 8.39656 50.4091 3.19742C28.0438-2.00421 12.136 12.5111 9.19546 24.012Z" fill="#ffffff" fill-rule="nonzero" opacity="1" stroke="#000000" stroke-linecap="round" stroke-linejoin="round" stroke-width="0.3"/>
<path d="M16.417 3.6145C12.1493 6.08908 12.2569 16.9557 12.2569 16.9557C12.2569 16.9557 17.8401 18.1221 22.1079 15.6475C26.3756 13.1729 29.1205 4.62627 29.1205 4.62627C29.1205 4.62627 20.6848 1.13991 16.417 3.6145Z" fill="#000000" fill-rule="nonzero" opacity="1" stroke="#000000" stroke-linecap="round" stroke-linejoin="round" stroke-width="0.3"/>
<path d="M75.6346 10.7356C71.1783 6.48806 61.8886 8.79172 61.8886 8.79172C61.8886 8.79172 58.9597 16.9017 63.416 21.1492C67.8722 25.3967 75.3569 26.0089 75.3569 26.0089C75.3569 26.0089 80.0909 14.9831 75.6346 10.7356Z" fill="#000000" fill-rule="nonzero" opacity="1" stroke="#000000" stroke-linecap="round" stroke-linejoin="round" stroke-width="0.3"/>
<path d="M24.0525 31.6405C19.7848 34.1151 18.0316 37.6144 19.7489 39.387C24.196 43.9776 24.5887 40.5227 28.8565 38.0482C33.1242 35.5736 35.0985 30.0625 35.0985 30.0625C35.0985 30.0625 28.3203 29.1659 24.0525 31.6405Z" fill="#000000" fill-rule="nonzero" opacity="1" stroke="#000000" stroke-linecap="round" stroke-linejoin="round" stroke-width="0.3"/>
<path d="M52.6469 39.2512C55.7508 43.0857 56.14 46.9802 53.9033 48.0234C48.111 50.7251 48.9768 47.3575 45.8729 43.5231C42.769 39.6886 42.891 33.8359 42.891 33.8359C42.891 33.8359 49.543 35.4168 52.6469 39.2512Z" fill="#000000" fill-rule="nonzero" opacity="1" stroke="#000000" stroke-linecap="round" stroke-linejoin="round" stroke-width="0.3"/>
<path d="M35.5194 44.1005C33.0739 42.9008 31.9064 42.7387 31.4524 43.8738C30.1849 47.0424 30.6869 48.0309 32.8145 49.4195C34.9421 50.8081 37.8413 48.479 37.8413 48.479C37.8413 48.479 37.8003 45.2195 35.5194 44.1005Z" fill="#000000" fill-rule="nonzero" opacity="1" stroke="#000000" stroke-linecap="round" stroke-linejoin="round" stroke-width="0.3"/>
<path d="M17.2941 68.4939C16.1633 71.7977 19.798 80.4958 22.9822 81.6969C24.2463 82.1737 31.6295 84.9204 34.3095 83.0561C35.1924 82.4419 31.8088 72.2366 32.6687 71.5964C36.4707 68.7657 27.8259 59.2253 24.5969 59.0187C21.368 58.812 18.425 65.1901 17.2941 68.4939Z" fill="#000000" fill-rule="nonzero" opacity="1" stroke="#000000" stroke-linecap="round" stroke-linejoin="round" stroke-width="0.3"/>
<path d="M58.9314 69.6551C60.0622 72.9589 58.814 75.4046 55.0572 79.4569C51.3004 83.5092 44.2389 83.108 41.5589 81.2438C40.676 80.6296 44.4167 73.3978 43.5568 72.7576C39.7548 69.9269 48.3996 60.3865 51.6286 60.1798C54.8575 59.9732 57.8005 66.3513 58.9314 69.6551Z" fill="#000000" fill-rule="nonzero" opacity="1" stroke="#000000" stroke-linecap="round" stroke-linejoin="round" stroke-width="0.3"/>
</g>
</g>
</svg>
