<?xml version="1.0" encoding="UTF-8" standalone="no"?>
<!DOCTYPE svg PUBLIC "-//W3C//DTD SVG 1.1//EN" "http://www.w3.org/Graphics/SVG/1.1/DTD/svg11.dtd">
<!-- Created with Vectornator (http://vectornator.io/) -->
<svg height="100%" stroke-miterlimit="10" style="fill-rule:nonzero;clip-rule:evenodd;stroke-linecap:round;stroke-linejoin:round;" version="1.1" viewBox="0 0 141.75 85.05" width="100%" xml:space="preserve" xmlns="http://www.w3.org/2000/svg" xmlns:xlink="http://www.w3.org/1999/xlink">
<defs/>
<g id="レイヤー-1">
<g opacity="1">
<path d="M86.7507 63.757C100.338 63.7798 106.979 60.2553 113.392 51.5329C119.806 42.8105 119.314 38.4737 112.406 28.8674C105.497 19.2612 96.5492 21.1952 83.1258 21.1724C69.7023 21.1496 47.985 28.8349 48.4783 43.4267C48.9719 58.0255 73.163 63.7342 86.7507 63.757Z" fill="#ffffff" fill-rule="nonzero" opacity="1" stroke="#000000" stroke-linecap="round" stroke-linejoin="round" stroke-width="0.3"/>
<path d="M41.0766 22.3892C35.3537 22.1172 26.1084 18.5467 23.9584 15.3465C23.1048 14.0761 26.0077 8.87466 29.1975 7.26688C30.2484 6.73718 33.9662 12.2433 35.0628 11.7433C39.9113 9.53255 44.2286 10.947 46.8069 11.7443C51.1348 13.0827 56.9892 16.8043 57.411 19.6675C57.8328 22.5308 46.7994 22.6612 41.0766 22.3892Z" fill="#000000" fill-rule="nonzero" opacity="1" stroke="#000000" stroke-linecap="round" stroke-linejoin="round" stroke-width="0.3"/>
<path d="M35.4953 66.6846C30.4301 69.3621 31.1496 68.868 26.2018 70.5547C21.5769 72.1314 18.2179 72.4664 18.2179 75.1652C18.2179 79.0017 21.492 82.954 24.2902 80.9001C27.0883 78.8462 31.8561 76.5278 33.0613 76.5146C38.3897 76.4561 43.2097 75.7039 45.205 73.8868C48.5543 70.8366 52.2732 64.9804 51.4386 62.2092C50.6041 59.438 40.5605 64.0072 35.4953 66.6846Z" fill="#000000" fill-rule="nonzero" opacity="1" stroke="#000000" stroke-linecap="round" stroke-linejoin="round" stroke-width="0.3"/>
<path d="M45.9679 71.3209C59.2921 73.6949 70.0274 54.5511 70.0274 54.5511L74.4129 40.986C74.4129 40.986 75.2968 19.8835 62.1336 17.5379C48.9705 15.1922 25.5417 20.0491 19.5183 38.0967C13.492 56.1529 32.6436 68.947 45.9679 71.3209Z" fill="#ffffff" fill-rule="nonzero" opacity="1" stroke="#000000" stroke-linecap="round" stroke-linejoin="round" stroke-width="0.3"/>
<path d="M10.0883 58.4652C13.6179 66.883 27.7507 62.4366 27.7507 62.4366C27.7507 62.4366 28.0099 58.2199 25.835 53.3997C23.6602 48.5795 18.935 46.7964 18.935 46.7964C18.935 46.7964 6.55883 50.0474 10.0883 58.4652Z" fill="#000000" fill-rule="nonzero" opacity="1" stroke="#000000" stroke-linecap="round" stroke-linejoin="round" stroke-width="0.3"/>
<path d="M17.091 24.0995C9.99486 31.0352 20.2587 37.0135 20.2587 37.0135C20.2587 37.0135 28.0642 37.7314 30.5869 32.5692C33.1095 27.407 32.3991 23.5894 32.3991 23.5894C32.3991 23.5894 23.3058 18.0252 17.091 24.0995Z" fill="#000000" fill-rule="nonzero" opacity="1" stroke="#000000" stroke-linecap="round" stroke-linejoin="round" stroke-width="0.3"/>
<path d="M32.6624 52.3842C35.5293 57.3286 39.5834 59.3596 41.6371 57.3701C46.9554 52.218 42.9528 51.763 40.0859 46.8186C37.219 41.8743 30.8342 39.587 30.8342 39.587C30.8342 39.587 29.7955 47.4398 32.6624 52.3842Z" fill="#000000" fill-rule="nonzero" opacity="1" stroke="#000000" stroke-linecap="round" stroke-linejoin="round" stroke-width="0.3"/>
<path d="M36.4879 25.0643C40.6039 21.0989 45.0602 20.2609 46.4877 22.7385C50.1842 29.1544 46.2109 28.4912 42.0949 32.4567C37.9789 36.4221 31.2113 36.8655 31.2113 36.8655C31.2113 36.8655 32.3719 29.0298 36.4879 25.0643Z" fill="#000000" fill-rule="nonzero" opacity="1" stroke="#000000" stroke-linecap="round" stroke-linejoin="round" stroke-width="0.3"/>
<path d="M43.8957 39.8087C43.7807 42.9623 44.1603 44.2741 45.5755 44.2187C49.5262 44.064 50.3352 43.0663 50.8 40.1598C51.2649 37.2533 47.4322 35.2853 47.4322 35.2853C47.4322 35.2853 44.003 36.8672 43.8957 39.8087Z" fill="#000000" fill-rule="nonzero" opacity="1" stroke="#000000" stroke-linecap="round" stroke-linejoin="round" stroke-width="0.3"/>
<path d="M103.594 67.1677C106.483 70.0098 125.504 67.5833 128.377 64.8636C129.517 63.7838 128.624 59.9712 129.413 51.0471C130.202 42.1229 125.57 51.8369 115.695 50.6008C103.556 49.0813 98.0507 52.2458 96.1973 55.5124C94.3439 58.779 100.705 64.3257 103.594 67.1677Z" fill="#000000" fill-rule="nonzero" opacity="1" stroke="#000000" stroke-linecap="round" stroke-linejoin="round" stroke-width="0.3"/>
<path d="M94.8024 19.4984C96.1446 15.6747 114.291 9.47815 118.068 10.6551C119.567 11.1224 120.444 14.9388 125.082 22.6038C129.72 30.2688 121.283 23.587 112.961 29.0449C102.732 35.7541 96.3956 35.3368 93.2932 33.22C90.1908 31.1032 93.4602 23.3221 94.8024 19.4984Z" fill="#000000" fill-rule="nonzero" opacity="1" stroke="#000000" stroke-linecap="round" stroke-linejoin="round" stroke-width="0.3"/>
<path d="M32.7802 31.4349C32.7802 30.1331 33.8356 29.0777 35.1374 29.0777C36.4393 29.0777 37.4946 30.1331 37.4946 31.4349C37.4946 32.7367 36.4393 33.7921 35.1374 33.7921C33.8356 33.7921 32.7802 32.7367 32.7802 31.4349Z" fill="#ffffff" fill-rule="nonzero" opacity="1" stroke="none"/>
<path d="M31.7336 47.2723C31.7336 45.9704 32.789 44.9151 34.0908 44.9151C35.3926 44.9151 36.448 45.9704 36.448 47.2723C36.448 48.5741 35.3926 49.6295 34.0908 49.6295C32.789 49.6295 31.7336 48.5741 31.7336 47.2723Z" fill="#ffffff" fill-rule="nonzero" opacity="1" stroke="none"/>
</g>
</g>
</svg>
