<?xml version="1.0" encoding="utf-8"?>
<svg viewBox="42.5197 5.66929 246.614 419.528" xmlns="http://www.w3.org/2000/svg" xmlns:xlink="http://www.w3.org/1999/xlink">
  <g id="am1">
    <g id="am2">
      <path id="am3" style="fill:#3408df;fill-opacity:1;fill-rule:nonzero;opacity:1;stroke:#3a5beb;stroke-linecap:butt;stroke-linejoin:round;stroke-miterlimit:10;stroke-opacity:1;stroke-width:0;" d="M129.76,322.261 C129.325,320.53,129.132,318.748,129.187,316.964 C129.187,316.964,130.659,291.274,130.659,291.274 C130.825,288.375,130.465,285.471,129.596,282.701 C126.385,272.468,118.371,246.108,117.755,236.078 C116.983,223.512,117.953,215.209,117.953,215.209 C117.953,215.209,126.656,183.95,136.75,187.108 C146.844,190.266,151.952,190.701,153.031,205.802 C154.11,220.902,150.748,240.266,150.748,240.266 C150.748,240.266,149.413,284.497,149.413,284.497 C149.413,284.497,149.711,308.227,151.814,320.272 C153.917,332.315,150.763,334.136,152.128,347.03 C153.493,359.924,152.428,374.347,152.428,374.347 C152.428,374.347,143.684,377.664,143.684,377.664 C143.684,377.664,129.76,322.261,129.76,322.261 z"/>
      <path id="am4" style="fill:#3408df;fill-opacity:1;fill-rule:nonzero;opacity:1;stroke:#3a5beb;stroke-linecap:butt;stroke-linejoin:round;stroke-miterlimit:10;stroke-opacity:1;stroke-width:0;" d="M174.002,320.35 C174.002,320.35,171.816,287.953,171.816,287.953 C171.816,287.953,184.545,242.942,185.317,230.376 C186.088,217.81,184.54,207.286,184.54,207.286 C184.54,207.286,171.62,182.923,161.527,186.081 C151.433,189.239,149.725,187.723,148.645,202.824 C147.567,217.924,152.332,235.42,152.332,235.42 C152.332,235.42,152.934,283.779,152.934,283.779 C152.934,283.779,154.838,305.722,152.735,317.766 C150.632,329.81,155.69,334.685,154.325,347.579 C153.428,356.054,153.392,372.468,154.052,379.033 C154.367,382.171,157.733,377.462,160.879,377.23 C160.879,377.23,163.993,378.66,163.993,378.66 C163.993,378.66,174.002,320.35,174.002,320.35 z"/>
      <path id="am5" style="fill:#f6e9e2;fill-opacity:1;fill-rule:nonzero;opacity:1;stroke:#3a5beb;stroke-linecap:butt;stroke-linejoin:round;stroke-miterlimit:10;stroke-opacity:1;stroke-width:1.14502;" d="M121.017,104.191 C120.013,106.374,117.203,108.287,117.034,108.458 C117.034,108.458,99.3193,137.882,99.3193,137.882 C98.7024,138.821,98.3669,139.916,98.3516,141.039 C98.3345,142.301,98.3772,144.144,98.423,145.644 C98.4729,147.28,99.1297,148.839,100.264,150.02 C100.264,150.02,120.592,171.998,120.592,171.998 C120.859,172.495,123.281,180.882,123.402,181.434 C124.126,184.728,124.267,187.405,122.275,189.902 C121.821,190.472,120.726,192.035,119.782,193.401 C118.957,194.596,117.71,196.005,116.737,194.928 C116.737,194.928,114.378,191.543,114.378,191.543 C113.727,192.006,113.16,195.034,113.785,197.013 C114.41,198.99,116.23,200.346,118.303,200.379 C121.127,200.424,124.75,200.538,124.942,200.773 C125.622,201.609,129.359,176.659,129.493,172.934 C129.502,172.681,113.5,141.395,113.5,141.395 C113.22,140.843,113.308,140.177,113.721,139.717 C113.721,139.717,131.187,112.156,131.187,112.156 C131.377,111.945,132.989,109.307,133.036,109.027 C133.311,107.401,138.11,105.908,128.271,104.618 C117.618,103.22,122.243,101.521,121.017,104.191 z"/>
      <path id="am6" style="fill:#f6e9e2;fill-opacity:1;fill-rule:nonzero;opacity:1;stroke:#3a5beb;stroke-linecap:round;stroke-linejoin:round;stroke-miterlimit:10;stroke-opacity:1;stroke-width:1;" d="M187.895,202.996 C187.895,202.996,187.363,204.973,187.677,206.638 C187.914,207.894,188.226,212.915,188.109,213.718 C188.109,213.718,185.59,225.31,185.59,225.31 C185.55,225.818,184.956,225.972,184.458,225.85 C183.801,225.689,184.954,219.369,185.021,218.695 C185.021,218.695,184.897,214.118,184.897,214.118"/>
      <path id="am7" style="fill:#f6e9e2;fill-opacity:1;fill-rule:nonzero;opacity:1;stroke:#3a5beb;stroke-linecap:butt;stroke-linejoin:round;stroke-miterlimit:10;stroke-opacity:1;stroke-width:1;" d="M195.988,110.58 C195.988,110.58,197.767,124.81,197.302,130.787 C195.691,151.498,193.604,158.216,192.702,164.958 C191.432,174.45,191.241,191.463,191.241,191.463 C191.241,191.463,192.671,203.457,192.671,203.457 C192.671,203.457,191.449,208.903,191.193,209.389 C188.906,213.736,179.952,229.122,179.157,227.397 C178.202,225.325,183.43,216.826,183.43,216.826 C183.43,216.826,183.945,209.196,183.945,209.196 C182.749,212.036,179.986,217.134,178.791,216.604 C177.444,216.008,180.099,209.393,180.099,209.393 C180.099,209.393,182.7,205.726,182.724,205.646 C183.075,204.501,184.676,204.106,184.515,202.051 C183.768,192.506,183.174,167.423,183.174,167.423 C183.174,167.423,183.174,110.252,183.174,110.252 C183.174,110.252,192.262,101.075,192.262,101.075 C192.262,101.075,195.988,110.58,195.988,110.58 z"/>
      <path id="am8" style="fill:#00b3ff;fill-opacity:1;fill-rule:nonzero;opacity:1;stroke:#3a5beb;stroke-linecap:butt;stroke-linejoin:round;stroke-miterlimit:10;stroke-opacity:1;stroke-width:1;" d="M156.393,207.183 C168.432,206.806,181.77,205.351,182.2,201.057 C182.477,198.287,182.054,192.305,181.646,190.39 C180.53,185.161,181.355,190.563,180.596,176.084 C179.682,158.653,180,164.573,181.271,148.062 C181.489,145.232,185.453,132.169,185.608,129.633 C185.881,125.139,183.286,118.806,183.588,115.208 C183.896,111.533,156.878,111.329,153.111,111.318 C152.812,111.317,152.514,111.352,152.222,111.42 C149.186,112.124,131.906,116.494,130.095,125.106 C129.513,127.872,134.551,143.973,134.307,150.378 C133.909,160.814,127.059,184.142,123.738,194.823 C123.114,196.828,121.474,201.485,123.461,202.166 C130.754,204.663,145.961,207.509,156.393,207.183 z"/>
      <path id="am9" style="fill:#f6e9e2;fill-opacity:1;fill-rule:nonzero;opacity:1;stroke:#3a5beb;stroke-linecap:butt;stroke-linejoin:round;stroke-miterlimit:10;stroke-opacity:1;stroke-width:1;" d="M154.778,380.924 C154.778,380.924,154.9,398.773,155.071,406.936 C155.168,411.579,161.721,412.337,164.083,411.075 C171.826,406.936,166.887,400.261,166.62,389.58 C166.553,386.913,164.216,378.832,164.216,378.832 C164.216,378.832,163.088,377.168,160.345,377.698 C157.602,378.227,154.778,380.924,154.778,380.924 z"/>
      <path id="am10" style="fill:#f6e9e2;fill-opacity:1;fill-rule:nonzero;opacity:1;stroke:#3a5beb;stroke-linecap:butt;stroke-linejoin:round;stroke-miterlimit:10;stroke-opacity:1;stroke-width:1;" d="M144.234,378.163 C144.234,378.163,143.926,391.572,140.63,399.041 C139.81,400.9,134.914,409.604,139.139,415.818 C141.894,419.869,148.078,417.516,150.821,413.456 C150.821,413.456,153.555,404.26,153.555,404.26 C153.555,404.26,152.685,374.932,152.685,374.932 C152.685,374.932,144.234,378.163,144.234,378.163 z"/>
      <g id="am11">
        <path id="am12" style="fill:#f6e9e2;fill-opacity:1;fill-rule:nonzero;opacity:1;stroke:#3a5beb;stroke-linecap:butt;stroke-linejoin:round;stroke-miterlimit:10;stroke-opacity:1;stroke-width:1;" d="M127.324,100.057 C129.5,90.8444,142.369,94.6055,146.218,89.6102 C148.878,86.1568,147.74,83.8044,147.74,83.8044 C147.74,83.8044,160.42,83.9284,160.42,83.9284 C160.42,83.9284,159.597,85.5252,162.302,89.4729 C163.756,91.595,171.867,92.2679,175.271,93.3832 C176.558,93.8052,174.763,119.859,174.763,119.859 C174.763,119.859,152.327,124.596,138.712,119.787 C128.916,116.326,126.413,103.911,127.324,100.057 z"/>
        <path id="am13" style="fill:#00b3ff;fill-opacity:1;fill-rule:nonzero;opacity:1;stroke:#3a5beb;stroke-linecap:butt;stroke-linejoin:round;stroke-miterlimit:10;stroke-opacity:1;stroke-width:1;" d="M130.426,129.34 C130.426,129.34,127.218,126.632,127.218,126.632 C127.218,126.632,113.786,110.351,113.786,110.351 C113.786,110.351,119.064,103.274,119.064,103.274 C119.064,103.274,123.968,94.8418,128.886,92.8131 C133.804,90.7843,138.851,92.8971,138.851,92.8971 C138.851,92.8971,147.133,100.569,155.17,100.85 C163.208,101.131,169.754,91.4931,169.754,91.4931 C169.754,91.4931,177.198,92.6722,183.523,96.241 C189.253,99.4738,192.544,101.119,192.544,101.119 C192.544,101.119,185.687,109.577,184.563,112.967 C183.07,117.47,184.563,123.005,184.563,123.005"/>
        <path id="am14" style="fill:#3156f4;fill-opacity:1;fill-rule:nonzero;opacity:1;stroke:#3a5beb;stroke-linecap:butt;stroke-linejoin:round;stroke-miterlimit:10;stroke-opacity:1;stroke-width:1;" d="M161.002,85.308 C161.002,85.308,160.865,93.1752,167.821,92.7659 C173.583,92.4269,161.296,100.941,158.566,106.388 C155.836,111.834,157.113,113.58,157.113,113.58 C157.113,113.58,160.996,113.824,166.469,110.133 C172.029,106.383,174.259,103.4,171.739,91.5915 C170.849,87.4175,161.002,85.308,161.002,85.308 z"/>
        <path id="am15" style="fill:#fbebdf;fill-opacity:1;fill-rule:nonzero;opacity:1;stroke:#3a5beb;stroke-linecap:butt;stroke-linejoin:round;stroke-miterlimit:10;stroke-opacity:1;stroke-width:1;" d="M137.975,29.8467 C137.975,29.8467,125.267,49.8921,125.267,49.8921 C125.267,49.8921,122.984,65.8116,128.85,71.2687 C145.442,86.7032,144.447,84.6054,151.396,85.956 C153.164,86.2996,156.138,86.3048,157.376,85.847 C166.785,82.3662,178.301,77.717,182.017,64.5459 C186.893,47.2641,170.804,30.3762,170.804,30.3762 C170.804,30.3762,137.975,29.8467,137.975,29.8467 z"/>
        <path id="am16" style="fill:#3156f4;fill-opacity:1;fill-rule:nonzero;opacity:1;stroke:#3a5beb;stroke-linecap:butt;stroke-linejoin:round;stroke-miterlimit:10;stroke-opacity:1;stroke-width:1;" d="M147.299,22.5129 C138.714,23.5535,125.429,29.7171,121.777,49.6296 C118.842,65.6338,127.47,74.1164,134.582,79.402 C137.652,81.6833,147.25,87.8312,147.25,87.8312 C146.938,87.2509,147.288,87.6168,147.315,87.2544 C147.315,87.2544,147.689,85.9233,147.689,85.9233 C147.707,85.6836,146.333,85.3885,146.108,85.303 C143.848,84.4426,134.576,78.6561,132.293,71.4063 C130.249,64.9115,130.547,58.6197,130.547,58.6197 C130.547,58.6197,135.936,45.1979,135.936,45.1979 C136.085,44.5896,136.783,49.8874,136.816,50.5129 C136.816,50.5129,139.273,60.4039,139.273,60.4039 C139.288,60.69,145.521,60.5442,145.521,60.5442 C145.844,60.5488,144.822,47.1234,144.822,47.1234 C144.759,46.4553,145.726,48.3329,145.891,48.9832 C145.891,48.9832,149.282,60.23,149.543,60.2146 C149.543,60.2146,158.048,60.0827,158.048,60.0827 C158.358,60.0643,157.655,48.9367,157.655,48.9367 C157.585,48.2927,157.071,45.0699,157.283,45.6821 C157.283,45.6821,162.52,59.3653,162.795,59.2915 C162.795,59.2915,171.991,57.3231,171.991,57.3231 C172.005,57.3193,174.04,57.2706,174.04,57.2706 C174.04,57.2706,175.19,61.6514,175.19,61.6514 C175.392,62.2263,175.418,63.2478,175.31,63.8474 C175.088,65.0808,175.155,67.1557,174.997,69.8149 C174.597,76.5189,163.792,82.8309,159.45,85.7632 C158.948,86.1022,161.208,90.3586,161.797,90.2169 C161.797,90.2169,169.086,80.9991,169.086,80.9991 C169.178,80.8826,174.659,76.2727,174.705,76.246 C175.937,75.5246,185.455,65.2778,181.813,47.7944 C175.987,19.8306,155.691,21.4957,147.299,22.5129 z"/>
        <path id="am17" style="fill:#3408df;fill-opacity:1;fill-rule:nonzero;opacity:1;stroke:#3408df;stroke-linecap:butt;stroke-linejoin:round;stroke-miterlimit:10;stroke-opacity:1;stroke-width:1;" d="M160.94,66.6189 C160.94,66.6189,162.011,66.8086,163.909,67.0425 C165.502,67.2387,166.9,66.9328,166.9,66.9328 C166.9,66.9328,166.807,67.6219,164.301,67.6219 C161.419,67.6219,160.94,66.6189,160.94,66.6189 z"/>
        <path id="am18" style="fill:#3408df;fill-opacity:1;fill-rule:nonzero;opacity:1;stroke:#3408df;stroke-linecap:butt;stroke-linejoin:round;stroke-miterlimit:10;stroke-opacity:1;stroke-width:1;" d="M146.9,66.6189 C146.9,66.6189,145.829,66.8086,143.931,67.0425 C142.338,67.2387,140.94,66.9328,140.94,66.9328 C140.94,66.9328,141.033,67.6219,143.539,67.6219 C146.421,67.6219,146.9,66.6189,146.9,66.6189 z"/>
        <path id="am19" style="fill:#f2beef;fill-opacity:1;fill-rule:nonzero;opacity:1;stroke:#f2beef;stroke-linecap:butt;stroke-linejoin:round;stroke-miterlimit:10;stroke-opacity:1;stroke-width:0.5;" d="M150.367,79.0845 C150.583,78.8815,152.371,79.5081,154.253,79.543 C156.396,79.583,157.941,78.9863,158.136,79.1752 C158.501,79.5289,156.371,80.9219,154.249,80.8819 C152.127,80.8411,149.905,79.5189,150.367,79.0845 z"/>
      </g>
    </g>
  </g>
</svg>
