<?xml version="1.0" encoding="UTF-8" standalone="no"?>
<!DOCTYPE svg PUBLIC "-//W3C//DTD SVG 1.1//EN" "http://www.w3.org/Graphics/SVG/1.1/DTD/svg11.dtd">
<!-- Created with Vectornator (http://vectornator.io/) -->
<svg height="100%" stroke-miterlimit="10" style="fill-rule:nonzero;clip-rule:evenodd;stroke-linecap:round;stroke-linejoin:round;" version="1.1" viewBox="0 0 400 400" width="100%" xml:space="preserve" xmlns="http://www.w3.org/2000/svg" xmlns:xlink="http://www.w3.org/1999/xlink">
<defs>
<filter color-interpolation-filters="sRGB" filterUnits="userSpaceOnUse" height="46.7794" id="Filter" width="203.093" x="104.156" y="250.116">
<feDropShadow dx="1.28548" dy="1.3192" flood-color="#000000" flood-opacity="0.730435" in="SourceGraphic" result="Shadow" stdDeviation="0.0968992"/>
</filter>
<linearGradient gradientTransform="matrix(40.6459 -39.3705 38.9523 41.0822 141.378 144.231)" gradientUnits="userSpaceOnUse" id="LinearGradient" x1="0" x2="1" y1="0" y2="0">
<stop offset="0" stop-color="#685f01"/>
<stop offset="1" stop-color="#ffe903"/>
</linearGradient>
</defs>
<g id="レイヤー-1">
<path d="M4.91879 198.857C4.92557 91.2899 92.3267 4.09529 200.135 4.10211C307.943 4.10894 395.334 91.3146 395.327 198.882C395.32 306.449 307.919 393.644 200.11 393.637C92.3021 393.63 4.91201 306.424 4.91879 198.857Z" fill="#ffffff" fill-rule="nonzero" opacity="1" stroke="#0d0199" stroke-linecap="butt" stroke-linejoin="round" stroke-width="8"/>
<path d="M63.5038 199.336C63.5038 124.297 124.335 63.4658 199.373 63.4658C274.412 63.4658 335.243 124.297 335.243 199.336C335.243 274.374 274.412 335.205 199.373 335.205C124.335 335.205 63.5038 274.374 63.5038 199.336Z" fill="#1b00bf" fill-rule="nonzero" opacity="1" stroke="#2f21ba" stroke-linecap="butt" stroke-linejoin="round" stroke-opacity="0" stroke-width="6"/>
<g fill="#1b00bf" opacity="1" stroke="#2f21ba" stroke-linecap="butt" stroke-linejoin="round" stroke-opacity="0" stroke-width="6">
<path d="M64.947 313.175L66.2787 314.502C65.5906 315.907 65.0441 317.603 64.6391 319.589C64.2341 321.575 64.32 322.947 64.8969 323.706C65.2198 324.12 65.6351 324.614 66.1425 325.188C66.6499 325.763 67.0996 326.246 67.4916 326.636L68.3045 327.446L87.484 308.197C87.8976 307.782 88.1874 307.342 88.3534 306.875C88.5195 306.409 88.4753 305.865 88.221 305.244C88.0593 304.876 87.7533 304.359 87.3033 303.692C86.8532 303.025 86.4552 302.474 86.1091 302.037L87.4533 300.688L101.133 314.319L99.789 315.668C99.4201 315.369 98.9015 314.95 98.233 314.41C97.5645 313.87 97.0748 313.538 96.7638 313.412C96.1304 313.148 95.5836 313.097 95.1235 313.259C94.6635 313.421 94.2209 313.715 93.7958 314.142L74.4439 333.564L75.2568 334.373C75.6488 334.764 76.133 335.212 76.7093 335.717C77.2857 336.223 77.7813 336.636 78.1962 336.958C78.9568 337.532 80.3294 337.613 82.3139 337.201C84.2985 336.788 85.9922 336.236 87.395 335.543L88.7267 336.87L81.7304 343.891L57.9507 320.197L64.947 313.175Z"/>
<path d="M50.6661 285.665C50.9519 284.043 51.5772 282.541 52.5418 281.157C53.5065 279.774 54.7532 278.586 56.282 277.593C57.7972 276.609 59.3977 275.943 61.0835 275.595C62.7693 275.248 64.418 275.269 66.0295 275.658C67.7536 276.072 69.374 276.848 70.8907 277.988C72.4074 279.129 73.7907 280.661 75.0407 282.586C76.1222 284.251 76.8784 285.938 77.3093 287.648C77.7402 289.357 77.8281 291.061 77.5729 292.76C77.3321 294.391 76.7344 295.944 75.78 297.418C74.8255 298.892 73.5156 300.169 71.8503 301.251C70.2123 302.315 68.5845 302.998 66.9669 303.301C65.3494 303.605 63.7011 303.554 62.022 303.151C60.4105 302.761 58.8611 301.996 57.3737 300.857C55.8863 299.717 54.5487 298.232 53.3608 296.403C52.1197 294.492 51.2899 292.639 50.8713 290.844C50.4527 289.049 50.3843 287.323 50.6661 285.665ZM68.2594 281.691C67.3 281.888 66.2277 282.269 65.0426 282.834C63.8575 283.4 62.5415 284.153 61.0946 285.093C60.1391 285.713 59.0915 286.491 57.9516 287.425C56.8118 288.359 55.9756 289.194 55.4431 289.928C54.7959 290.814 54.415 291.706 54.3003 292.606C54.1857 293.505 54.4165 294.398 54.9927 295.285C55.6221 296.254 56.3914 296.856 57.3005 297.091C58.2096 297.325 59.1892 297.324 60.2394 297.089C61.2036 296.87 62.2433 296.476 63.3585 295.907C64.4736 295.338 65.5977 294.686 66.7306 293.95C68.2185 292.984 69.4193 292.136 70.3333 291.407C71.2472 290.677 72.0759 289.809 72.8193 288.802C73.4617 287.939 73.838 287.054 73.9482 286.148C74.0585 285.242 73.821 284.338 73.2359 283.437C72.704 282.618 72.0189 282.064 71.1804 281.774C70.3419 281.484 69.3683 281.456 68.2594 281.691Z"/>
<path d="M54.1542 239.807L58.3259 250.522C56.519 252.745 55.0205 254.717 53.8303 256.438C52.6402 258.159 51.5439 259.773 50.5416 261.281L52.2333 262.195L57.193 260.264C57.739 260.051 58.1555 259.798 58.4423 259.503C58.7292 259.207 58.8674 258.8 58.8571 258.28C58.8722 257.96 58.8544 257.6 58.8036 257.2C58.7529 256.801 58.6719 256.413 58.5605 256.038L60.2213 255.391L65.7039 269.474L64.0431 270.12C63.8651 269.753 63.6758 269.39 63.4751 269.031C63.2744 268.673 63.0724 268.367 62.8692 268.115C62.5134 267.694 62.1272 267.465 61.7104 267.426C61.2937 267.387 60.8047 267.477 60.2435 267.696L34.8764 277.572C34.3759 277.766 33.8992 278.079 33.4464 278.508C32.9936 278.938 32.7133 279.418 32.6056 279.949C32.5358 280.308 32.5524 280.799 32.6555 281.423C32.7585 282.046 32.8864 282.599 33.0391 283.081L31.3783 283.728L26.3848 272.651L26.616 272.168L50.0948 263.027C48.6568 262.295 47.0049 261.484 45.1392 260.595C43.2735 259.705 41.743 259.004 40.5478 258.491C39.8373 258.192 39.3389 258.067 39.0529 258.117C38.7668 258.167 38.5934 258.204 38.5327 258.228C38.2597 258.334 38.1252 258.662 38.1292 259.21C38.1332 259.759 38.2529 260.538 38.4884 261.546L36.8731 262.175L32.3737 250.618L33.9435 250.007C34.9587 251.358 35.807 252.36 36.4886 253.011C37.1702 253.663 38.005 254.338 38.9929 255.036C39.6446 255.498 40.3077 255.934 40.9825 256.344C41.6573 256.754 42.4759 257.208 43.4385 257.707C45.0136 255.382 46.4737 253.233 47.8189 251.259C49.164 249.286 50.5917 247.211 52.1019 245.033C52.6317 244.286 52.8822 243.516 52.8532 242.723C52.8243 241.931 52.7043 241.175 52.4934 240.453L54.1542 239.807Z"/>
<path d="M27.7767 217.188C28.0186 217.888 28.417 218.54 28.9721 219.143C29.5271 219.746 30.3015 220.19 31.2953 220.474C34.4586 221.327 37.8173 222.186 41.3715 223.051C44.9257 223.917 48.777 224.894 52.9254 225.983C55.2507 226.59 57.1376 227.243 58.5863 227.941C60.035 228.639 61.1773 229.335 62.0131 230.028C62.7922 230.682 63.3937 231.359 63.8175 232.06C64.2413 232.761 64.5224 233.496 64.6608 234.265C64.9347 235.787 64.7314 237.093 64.0511 238.182C63.3707 239.272 62.5019 239.912 61.4447 240.103C60.9962 240.183 60.5703 240.206 60.1671 240.171C59.7639 240.136 59.3238 239.988 58.8468 239.727C58.4483 239.534 58.0766 239.191 57.7317 238.699C57.3868 238.208 57.1539 237.625 57.0328 236.952C56.8714 236.055 57.0295 235.142 57.5072 234.213C57.9849 233.283 58.6972 232.279 59.6439 231.199C59.0202 230.765 58.1138 230.254 56.9247 229.666C55.7357 229.078 54.5554 228.699 53.3838 228.53C49.7221 231.157 46.5542 233.472 43.88 235.474C41.2058 237.477 38.2228 239.717 34.9312 242.195C34.2344 242.734 33.7343 243.378 33.4309 244.127C33.1274 244.876 32.9954 245.636 33.0348 246.406L31.2807 246.722L28.6344 232.016L30.3885 231.701C30.5025 232.242 30.7358 232.85 31.0883 233.522C31.4409 234.195 31.7933 234.499 32.1458 234.436C32.2739 234.413 32.4097 234.363 32.5533 234.288C32.6968 234.212 32.9012 234.085 33.1665 233.905C34.1898 233.158 35.6085 232.105 37.4227 230.745C39.2368 229.385 41.3619 227.799 43.7977 225.988C41.3443 225.405 39.234 224.912 37.4667 224.511C35.6993 224.109 33.9637 223.723 32.2596 223.352C31.8303 223.263 31.4974 223.228 31.2608 223.246C31.0242 223.264 30.8658 223.28 30.7858 223.294C30.4974 223.346 30.2703 223.532 30.1045 223.851C29.9387 224.17 29.8103 224.536 29.7193 224.95C29.6312 225.379 29.5802 225.785 29.5665 226.168C29.5527 226.551 29.5514 226.865 29.5626 227.111L27.8085 227.427L26.0227 217.503L27.7767 217.188Z"/>
<path d="M28.9531 188.325C30.0927 187.137 31.4481 186.236 33.0192 185.623C34.5904 185.01 36.2873 184.716 38.11 184.741C39.9165 184.766 41.6169 185.103 43.2113 185.751C44.8057 186.4 46.1641 187.335 47.2867 188.555C48.4895 189.857 49.4041 191.404 50.0304 193.195C50.6567 194.986 50.954 197.029 50.9223 199.324C50.8948 201.309 50.5847 203.132 49.9921 204.792C49.3994 206.453 48.5245 207.918 47.3675 209.188C46.26 210.409 44.8998 211.367 43.2869 212.061C41.6739 212.755 39.8747 213.088 37.8892 213.061C35.9363 213.034 34.2033 212.697 32.6903 212.049C31.1773 211.401 29.8355 210.443 28.6648 209.173C27.5422 207.953 26.6799 206.456 26.0777 204.681C25.4756 202.907 25.1896 200.929 25.2198 198.748C25.2513 196.47 25.5923 194.469 26.2428 192.744C26.8934 191.019 27.7968 189.547 28.9531 188.325ZM45.784 194.809C44.8776 194.438 43.7746 194.158 42.475 193.97C41.1754 193.781 39.6631 193.674 37.938 193.65C36.7988 193.635 35.4957 193.698 34.0287 193.841C32.5618 193.983 31.4029 194.211 30.5521 194.525C29.5214 194.901 28.7084 195.431 28.1129 196.115C27.5175 196.798 27.2124 197.669 27.1978 198.727C27.1818 199.883 27.4864 200.81 28.1115 201.511C28.7367 202.211 29.5511 202.756 30.555 203.144C31.4779 203.499 32.561 203.75 33.8042 203.897C35.0474 204.044 36.3443 204.127 37.6951 204.146C39.469 204.171 40.9386 204.134 42.1038 204.036C43.269 203.938 44.4405 203.678 45.6184 203.255C46.6326 202.894 47.4374 202.368 48.033 201.677C48.6286 200.985 48.9338 200.102 48.9486 199.028C48.9621 198.051 48.7011 197.209 48.1656 196.502C47.6301 195.795 46.8362 195.23 45.784 194.809Z"/>
<path d="M58.1845 151.616L53.0329 170.126L51.1983 169.615C51.2848 169.183 51.4112 168.547 51.5776 167.706C51.744 166.866 51.8081 166.271 51.7699 165.922C51.6962 165.277 51.4967 164.795 51.1714 164.476C50.8462 164.158 50.3856 163.915 49.7898 163.75L26.1285 157.164C25.5954 157.016 25.0967 156.987 24.6322 157.077C24.1678 157.168 23.7273 157.476 23.3105 158.002C23.049 158.335 22.7334 158.846 22.3636 159.538C21.9939 160.229 21.7035 160.832 21.4924 161.348L19.6578 160.837L24.8095 142.327L26.644 142.837C26.5602 143.321 26.4631 143.928 26.353 144.657C26.2429 145.387 26.1986 146.016 26.2201 146.546C26.2537 147.214 26.4578 147.71 26.8323 148.034C27.2067 148.358 27.6684 148.596 28.2172 148.749L51.8549 155.328C52.4194 155.485 52.931 155.513 53.3898 155.413C53.8485 155.313 54.2862 154.999 54.703 154.473C54.9357 154.183 55.2246 153.677 55.5695 152.953C55.9144 152.23 56.1746 151.614 56.35 151.105L58.1845 151.616Z"/>
<path d="M72.6757 120.364L66.1915 133.554L64.5921 132.768C64.6993 132.476 64.828 132.122 64.978 131.706C65.1281 131.29 65.2023 130.955 65.2006 130.7C65.1907 130.314 65.0647 129.98 64.8226 129.698C64.5805 129.416 64.16 129.127 63.5611 128.833L53.3074 123.792C51.8176 123.06 50.5619 122.782 49.5404 122.96C48.5189 123.138 47.746 123.76 47.2218 124.827C46.9346 125.411 46.7548 125.998 46.6823 126.588C46.6098 127.178 46.6231 127.797 46.7221 128.444C46.806 129.011 46.9385 129.498 47.1195 129.904C47.3006 130.311 47.4649 130.659 47.6124 130.949L59.3779 136.733C59.8891 136.985 60.3523 137.122 60.7673 137.144C61.1824 137.167 61.5601 137.053 61.9006 136.804C62.1469 136.635 62.4074 136.4 62.682 136.1C62.9566 135.799 63.1983 135.492 63.4073 135.178L65.0067 135.964L58.4579 149.285L56.8585 148.499C57.0088 148.119 57.15 147.731 57.282 147.333C57.414 146.935 57.5008 146.584 57.5424 146.278C57.6115 145.731 57.5211 145.288 57.2714 144.947C57.0216 144.607 56.6265 144.304 56.086 144.038L43.3346 137.769C42.8818 137.547 42.3789 137.445 41.8258 137.463C41.2727 137.481 40.7641 137.612 40.2999 137.855C39.9953 138.032 39.6859 138.293 39.3716 138.637C39.0573 138.981 38.7597 139.383 38.4789 139.844L36.8795 139.058L41.4476 128.327L41.9379 128.16L45.1148 129.721L45.1578 129.634C44.9937 129.045 44.7997 128.333 44.5757 127.498C44.3517 126.662 44.2011 125.917 44.1239 125.262C44.039 124.55 44.0879 123.694 44.2704 122.696C44.4529 121.697 44.7883 120.701 45.2766 119.708C46.4471 117.327 48.0004 115.874 49.9368 115.347C51.8731 114.821 53.9586 115.107 56.1934 116.206L66.9291 121.484C67.4696 121.75 67.9399 121.881 68.3403 121.878C68.7406 121.876 69.1434 121.702 69.5487 121.357C69.7659 121.174 70.0099 120.935 70.2809 120.642C70.5519 120.349 70.817 119.995 71.0763 119.578L72.6757 120.364Z"/>
<path d="M81.2155 111.096C80.2607 112.354 79.1433 113.442 77.8634 114.36C76.5835 115.279 75.4852 115.911 74.5684 116.257L75.4476 117.844L74.2959 119.361L66.8516 114.107L67.9294 112.687C68.6603 112.936 69.5642 113.111 70.6411 113.214C71.718 113.316 72.7696 113.297 73.7958 113.157C74.8417 112.99 75.8634 112.668 76.8607 112.189C77.8581 111.71 78.6963 111.023 79.3755 110.128C80.2712 108.949 80.708 107.896 80.6859 106.97C80.6637 106.043 80.173 105.216 79.2138 104.488C78.6953 104.094 78.1691 103.899 77.6353 103.902C77.1014 103.905 76.539 104.04 75.9482 104.307C75.3051 104.616 74.664 105.003 74.0248 105.468C73.3856 105.932 72.6017 106.507 71.6731 107.192C70.7446 107.876 69.9087 108.432 69.1656 108.859C68.4225 109.286 67.5098 109.62 66.4276 109.861C65.4792 110.06 64.5156 110.064 63.5369 109.873C62.5582 109.681 61.5763 109.212 60.5911 108.464C58.7635 107.076 57.8689 105.186 57.9076 102.793C57.9463 100.401 58.9106 97.9603 60.8005 95.4715C61.6962 94.2919 62.6404 93.2974 63.6332 92.4879C64.626 91.6783 65.521 91.0448 66.318 90.5873L65.4809 89.3079L66.603 87.8302L73.4695 92.5538L72.4212 93.9343C70.7286 93.3643 68.9746 93.2587 67.1593 93.6173C65.344 93.976 63.954 94.7904 62.9894 96.0607C62.2315 97.0588 61.8433 98.0006 61.825 98.8859C61.8067 99.7712 62.167 100.494 62.9059 101.055C63.891 101.804 64.9214 101.927 65.997 101.425C67.0726 100.924 68.3757 100.069 69.9064 98.8608C72.2646 96.9934 74.3674 95.9129 76.2149 95.6196C78.0624 95.3262 79.7833 95.7849 81.3777 96.9956C83.5035 98.6099 84.5173 100.693 84.4191 103.244C84.3209 105.796 83.253 108.413 81.2155 111.096Z"/>
<path d="M101.171 86.5347C100.747 87.5897 100.239 88.6641 99.6481 89.7578C99.0569 90.8516 98.1516 91.9972 96.9323 93.1946C95.1206 94.9736 93.3431 95.8523 91.5996 95.8307C89.8561 95.8091 88.1804 94.9796 86.5725 93.3421L76.0696 82.6465L72.9341 85.7255L71.0867 83.8442L74.2919 80.6968L69.1088 75.4186L74.7702 69.8593L79.9532 75.1374L84.8307 70.3478L86.6781 72.2291L81.8355 76.9845L91.2094 86.5304C92.5436 87.8892 93.6789 88.6677 94.6151 88.8661C95.5513 89.0646 96.5071 88.6848 97.4826 87.7269C97.7962 87.419 98.2089 86.9681 98.7207 86.3743C99.2325 85.7804 99.5702 85.3462 99.7338 85.0714L101.171 86.5347Z"/>
<path d="M115.076 77.3162L102.853 86.7325L101.765 85.3206C102.081 85.0366 102.385 84.7511 102.677 84.4641C102.97 84.1771 103.197 83.8991 103.36 83.63C103.653 83.1574 103.772 82.7115 103.716 82.2923C103.66 81.8731 103.449 81.4249 103.081 80.9478L94.4098 69.6916C94.0621 69.2403 93.6536 68.9233 93.184 68.7405C92.7145 68.5577 92.2456 68.4824 91.7772 68.5145C91.4259 68.5386 90.9603 68.6609 90.3804 68.8817C89.8006 69.1024 89.3023 69.3424 88.8857 69.6017L87.7981 68.1898L96.8876 60.3864L97.4012 60.453L109.231 75.8095C109.579 76.2608 109.971 76.5699 110.408 76.7368C110.845 76.9037 111.303 76.9254 111.783 76.802C112.13 76.7194 112.494 76.6041 112.873 76.4559C113.252 76.3078 113.624 76.1239 113.989 75.9044L115.076 77.3162ZM91.9301 53.1108C92.685 54.0908 92.951 55.2162 92.7281 56.4871C92.5052 57.7579 91.878 58.7907 90.8465 59.5853C89.8021 60.3899 88.6371 60.7378 87.3514 60.629C86.0657 60.5203 85.0454 59.9759 84.2905 58.996C83.5356 58.0161 83.2671 56.8875 83.485 55.6101C83.703 54.3328 84.3341 53.2919 85.3785 52.4873C86.4229 51.6827 87.5872 51.3405 88.8714 51.4607C90.1556 51.5809 91.1752 52.1309 91.9301 53.1108Z"/>
<path d="M131.495 66.1107C130.832 67.0342 130.083 67.9567 129.248 68.878C128.413 69.7993 127.261 70.6961 125.792 71.5684C123.608 72.8643 121.672 73.294 119.984 72.8574C118.296 72.4209 116.867 71.2158 115.695 69.2423L108.044 56.3516L104.265 58.5945L102.92 56.327L106.783 54.0343L103.007 47.6729L109.83 43.6232L113.606 49.9846L119.484 46.4956L120.83 48.763L114.994 52.2271L121.822 63.7322C122.794 65.3698 123.711 66.3965 124.573 66.8124C125.435 67.2282 126.454 67.0872 127.629 66.3894C128.007 66.1652 128.516 65.8256 129.154 65.3709C129.793 64.9162 130.224 64.5749 130.449 64.3471L131.495 66.1107Z"/>
<path d="M162.476 54.4076L151.829 59.1801L151.366 58.9895L150.237 55.9971L150.1 56.0488C149.761 56.7161 149.428 57.3678 149.103 58.0037C148.777 58.6397 148.341 59.2696 147.793 59.8936C147.172 60.5977 146.552 61.1795 145.934 61.6388C145.315 62.0982 144.344 62.5777 143.019 63.0774C140.719 63.9448 138.695 63.9168 136.947 62.9934C135.198 62.07 133.847 60.3443 132.893 57.8164L129.016 47.537C128.792 46.9431 128.495 46.5026 128.126 46.2157C127.757 45.9288 127.328 45.7124 126.838 45.5667C126.447 45.4531 125.989 45.4388 125.465 45.5236C124.94 45.6084 124.474 45.7103 124.066 45.8292L123.437 44.1616L134.292 39.3888L134.673 39.6367L140.403 54.8273C140.994 56.3958 141.732 57.4398 142.615 57.9591C143.498 58.4784 144.465 58.5399 145.515 58.1435C146.597 57.7357 147.461 57.0878 148.109 56.1997C148.757 55.3117 149.158 54.4733 149.313 53.6843L144.669 41.3719C144.473 40.8541 144.199 40.427 143.846 40.0905C143.493 39.754 143.077 39.5281 142.599 39.4128C142.256 39.3335 141.818 39.3595 141.285 39.4911C140.752 39.6226 140.213 39.7736 139.668 39.9442L139.039 38.2767L149.894 33.5038L150.366 33.7172L157.018 51.3521C157.219 51.8851 157.496 52.2979 157.85 52.5906C158.204 52.8833 158.636 53.0815 159.144 53.1853C159.503 53.2589 159.927 53.2424 160.417 53.1357C160.908 53.029 161.384 52.8972 161.847 52.7401L162.476 54.4076Z"/>
<path d="M181.343 50.7857C180.405 51.4285 179.387 52.0411 178.288 52.6234C177.19 53.2057 175.801 53.657 174.122 53.9772C171.628 54.4528 169.662 54.1982 168.223 53.2134C166.784 52.2285 165.85 50.6089 165.42 48.3546L162.611 33.6298L158.295 34.4531L157.801 31.8631L162.213 31.0215L160.827 23.755L168.622 22.2685L170.007 29.535L176.722 28.2543L177.216 30.8444L170.549 32.1159L173.056 45.2579C173.413 47.1285 173.925 48.4059 174.594 49.0902C175.263 49.7746 176.269 49.9886 177.612 49.7325C178.044 49.6502 178.638 49.5039 179.393 49.2935C180.148 49.0832 180.67 48.9091 180.958 48.7713L181.343 50.7857Z"/>
<path d="M208.652 44.8436C208.113 45.7893 207.454 46.6859 206.675 47.5335C205.896 48.381 205.004 49.1142 203.998 49.733C202.928 50.3864 201.841 50.8897 200.737 51.243C199.633 51.5963 198.357 51.7963 196.909 51.8431C194.502 51.921 192.413 51.6466 190.642 51.0199C188.871 50.3933 187.397 49.5208 186.221 48.4027C185.045 47.2845 184.151 45.9496 183.539 44.3979C182.927 42.8463 182.591 41.1513 182.532 39.3131C182.478 37.6538 182.732 36.0538 183.293 34.513C183.854 32.9723 184.676 31.59 185.76 30.3662C186.829 29.1754 188.194 28.1949 189.854 27.4247C191.515 26.6544 193.386 26.2356 195.468 26.1683C197.746 26.0946 199.626 26.3107 201.107 26.8164C202.589 27.3222 203.826 28.0475 204.817 28.9925C205.775 29.8898 206.485 30.9619 206.949 32.209C207.413 33.4561 207.667 34.771 207.712 36.1537L207.763 37.7398L191.268 38.2733C191.376 41.6082 192.1 44.1251 193.442 45.8242C194.783 47.5232 196.853 48.3275 199.651 48.237C201.18 48.1875 202.541 47.7242 203.734 46.847C204.927 45.9697 205.934 44.8746 206.754 43.5616L208.652 44.8436ZM199.031 35.8726C198.999 34.8966 198.918 33.8977 198.788 32.876C198.657 31.8543 198.459 31.0221 198.194 30.3793C197.893 29.6236 197.496 29.0584 197.003 28.6835C196.511 28.3086 195.898 28.133 195.166 28.1566C193.914 28.1971 192.934 28.8639 192.226 30.157C191.519 31.4501 191.177 33.4723 191.201 36.2236L199.031 35.8726Z"/>
<path d="M252.375 37.3529C253.271 38.7347 253.837 40.2605 254.074 41.9303C254.311 43.6002 254.208 45.3193 253.765 47.0877C253.327 48.8404 252.609 50.4183 251.612 51.8215C250.615 53.2247 249.394 54.3328 247.95 55.1458C246.406 56.018 244.691 56.5536 242.804 56.7527C240.917 56.9518 238.86 56.7729 236.634 56.216C234.708 55.7341 233.004 55.0145 231.524 54.057C230.044 53.0995 228.818 51.9121 227.847 50.4949C226.912 49.1368 226.292 47.5932 225.986 45.8642C225.68 44.1351 225.768 42.3074 226.25 40.3811C226.724 38.4863 227.45 36.8768 228.427 35.5526C229.404 34.2283 230.645 33.1419 232.149 32.2934C233.594 31.4804 235.249 30.9843 237.114 30.8049C238.979 30.6255 240.97 30.8005 243.086 31.3297C245.296 31.8827 247.166 32.6734 248.696 33.702C250.225 34.7305 251.452 35.9475 252.375 37.3529ZM242.206 52.2495C242.775 51.4522 243.3 50.4427 243.782 49.221C244.264 47.9993 244.714 46.5516 245.132 44.8779C245.409 43.7726 245.646 42.4897 245.844 41.0292C246.041 39.5686 246.085 38.3883 245.974 37.4883C245.844 36.3987 245.515 35.4858 244.986 34.7495C244.457 34.0133 243.679 33.5168 242.653 33.26C241.532 32.9796 240.559 33.0633 239.734 33.5113C238.909 33.9592 238.192 34.6272 237.584 35.5153C237.027 36.3324 236.535 37.3291 236.106 38.5054C235.678 39.6817 235.3 40.9251 234.972 42.2356C234.541 43.9567 234.24 45.3955 234.068 46.5521C233.896 47.7087 233.881 48.9088 234.023 50.1523C234.142 51.2221 234.469 52.1261 235.006 52.8643C235.543 53.6026 236.332 54.1021 237.374 54.3627C238.322 54.5997 239.201 54.5387 240.012 54.1795C240.823 53.8204 241.555 53.1771 242.206 52.2495Z"/>
<path d="M287.272 38.4283C287.11 38.8015 286.872 39.186 286.557 39.5818C286.243 39.9776 285.884 40.2738 285.479 40.4704C285.003 40.7072 284.529 40.8382 284.056 40.8635C283.584 40.8887 282.96 40.7326 282.184 40.395C281.005 39.8822 280.258 39.0692 279.943 37.9562C279.628 36.8432 279.506 35.1659 279.576 32.9244C278.868 32.9184 278.098 33.3642 277.264 34.2616C276.43 35.159 275.253 37.354 273.734 40.8465L272.965 42.6152L279.144 45.3027L278.092 47.7206L271.958 45.0526L265.249 60.478C264.996 61.0601 264.933 61.57 265.063 62.0077C265.192 62.4455 265.44 62.8331 265.808 63.1706C266.114 63.4458 266.534 63.766 267.068 64.1311C267.601 64.4962 268.089 64.8018 268.533 65.0478L267.822 66.6821L252.71 60.1093L253.421 58.475C253.822 58.6139 254.215 58.7405 254.6 58.8548C254.985 58.969 255.342 59.0356 255.671 59.0545C256.227 59.0831 256.663 58.9668 256.981 58.7057C257.299 58.4445 257.578 58.0378 257.818 57.4855L264.615 41.8587L260.07 39.8819L261.121 37.464L265.666 39.4407C266.361 37.8437 267.266 36.3958 268.381 35.0971C269.496 33.7983 270.795 32.7704 272.278 32.0132C273.725 31.258 275.372 30.8565 277.221 30.8087C279.07 30.761 281.032 31.1883 283.107 32.0906C284.957 32.8956 286.238 33.8695 286.947 35.0124C287.657 36.1554 287.766 37.294 287.272 38.4283Z"/>
<path d="M322.214 74.4531L320.74 73.2863C321.263 71.8119 321.613 70.065 321.79 68.0458C321.966 66.0266 321.725 64.673 321.065 63.985C320.697 63.6107 320.229 63.167 319.659 62.654C319.09 62.1409 318.588 61.7126 318.154 61.3692L317.254 60.657L300.389 81.9628C300.026 82.4223 299.788 82.8931 299.676 83.3754C299.564 83.8577 299.67 84.3928 299.993 84.9809C300.196 85.3281 300.559 85.8073 301.082 86.4184C301.605 87.0296 302.063 87.5324 302.456 87.927L301.274 89.4201L286.132 77.4343L287.314 75.9412C287.715 76.1959 288.278 76.5533 289.003 77.0134C289.729 77.4736 290.253 77.7486 290.577 77.8384C291.236 78.0282 291.785 78.0165 292.224 77.8032C292.662 77.59 293.068 77.2473 293.442 76.7751L310.459 55.2778L309.559 54.5656C309.125 54.2222 308.593 53.8322 307.963 53.3957C307.333 52.9592 306.793 52.6048 306.345 52.3326C305.524 51.8488 304.151 51.9246 302.226 52.5598C300.301 53.1951 298.681 53.9368 297.366 54.7849L295.892 53.6182L302.044 45.8462L328.366 66.6812L322.214 74.4531Z"/>
<path d="M328.48 110.906C327.403 111.069 326.291 111.107 325.144 111.022C323.996 110.936 322.867 110.69 321.758 110.285C320.582 109.85 319.514 109.309 318.552 108.662C317.59 108.014 316.642 107.137 315.708 106.03C314.155 104.189 313.075 102.38 312.469 100.602C311.863 98.8237 311.634 97.1267 311.782 95.5107C311.931 93.8947 312.424 92.3657 313.262 90.9236C314.1 89.4815 315.222 88.1673 316.628 86.9811C317.896 85.9104 319.309 85.1176 320.866 84.6025C322.422 84.0875 324.017 83.876 325.649 83.9679C327.246 84.0685 328.862 84.5315 330.495 85.357C332.129 86.1826 333.618 87.3914 334.961 88.9835C336.431 90.725 337.427 92.3339 337.948 93.8102C338.47 95.2866 338.668 96.7067 338.541 98.0704C338.43 99.3777 338.029 100.6 337.338 101.737C336.647 102.874 335.773 103.888 334.716 104.781L333.503 105.804L322.859 93.1912C320.309 95.3431 318.783 97.472 318.281 99.5779C317.78 101.684 318.432 103.806 320.237 105.946C321.224 107.115 322.431 107.896 323.859 108.288C325.287 108.68 326.77 108.792 328.309 108.622L328.48 110.906ZM329.555 97.7948C330.301 97.165 331.035 96.4821 331.755 95.7462C332.476 95.0102 333.006 94.339 333.347 93.7325C333.753 93.0277 333.95 92.3659 333.939 91.747C333.928 91.1281 333.686 90.5388 333.214 89.9791C332.406 89.0213 331.275 88.6657 329.822 88.9123C328.369 89.1589 326.57 90.1443 324.426 91.8686L329.555 97.7948Z"/>
<path d="M331.054 128.399C329.922 126.441 329.207 124.546 328.91 122.715C328.614 120.885 328.678 119.198 329.102 117.656C329.541 116.105 330.305 114.695 331.395 113.426C332.485 112.157 333.833 111.058 335.44 110.13C336.905 109.283 338.469 108.769 340.132 108.588C341.795 108.407 343.415 108.528 344.994 108.95C346.617 109.385 348.177 110.189 349.674 111.364C351.171 112.538 352.452 114.049 353.519 115.895C355.018 118.488 355.713 120.821 355.605 122.895C355.497 124.969 354.612 126.486 352.949 127.447C351.934 128.034 350.962 128.238 350.033 128.061C349.103 127.884 348.26 127.14 347.502 125.83C346.892 124.773 346.634 123.742 346.73 122.737C346.826 121.732 347.283 120.994 348.1 120.521C348.791 120.122 349.539 119.84 350.346 119.674C351.153 119.509 351.744 119.345 352.121 119.184C352.285 118.883 352.365 118.573 352.36 118.256C352.356 117.939 352.207 117.527 351.914 117.02C351.547 116.386 351.065 115.894 350.468 115.543C349.871 115.193 349.068 115.008 348.061 114.989C347.104 114.959 345.958 115.156 344.624 115.579C343.289 116.003 341.791 116.695 340.128 117.656C337.62 119.106 335.937 120.863 335.082 122.927C334.226 124.992 334.27 126.841 335.215 128.476C336.119 130.04 337.186 131.082 338.417 131.602C339.648 132.122 341.113 132.371 342.81 132.348L342.627 134.569C341.515 134.629 340.428 134.561 339.367 134.367C338.305 134.172 337.255 133.811 336.216 133.283C335.126 132.729 334.167 132.08 333.342 131.335C332.517 130.59 331.754 129.611 331.054 128.399Z"/>
<path d="M348.005 168.237L343.281 154.32L344.969 153.747C345.104 154.045 345.265 154.394 345.453 154.794C345.64 155.195 345.822 155.477 345.998 155.64C346.277 155.906 346.601 156.05 346.969 156.071C347.337 156.092 347.837 155.996 348.469 155.781L359.289 152.108C360.876 151.569 361.962 150.87 362.547 150.01C363.131 149.15 363.238 148.172 362.867 147.078C362.657 146.462 362.37 145.919 362.004 145.45C361.639 144.981 361.193 144.552 360.666 144.164C360.206 143.822 359.768 143.571 359.353 143.411C358.938 143.251 358.575 143.12 358.266 143.019L345.851 147.234C345.281 147.427 344.854 147.65 344.57 147.901C344.285 148.152 344.101 148.507 344.016 148.965C343.955 149.244 343.936 149.59 343.956 150.004C343.976 150.418 344.023 150.81 344.097 151.181L342.41 151.754L337.638 137.698L339.326 137.125C339.493 137.515 339.663 137.891 339.838 138.253C340.012 138.615 340.203 138.924 340.41 139.18C340.763 139.611 341.142 139.856 341.549 139.915C341.956 139.975 342.445 139.908 343.015 139.714L368.792 130.964C369.285 130.796 369.77 130.503 370.246 130.083C370.723 129.664 371.029 129.199 371.165 128.688C371.261 128.312 371.267 127.812 371.184 127.187C371.101 126.562 370.996 126.013 370.87 125.54L372.557 124.967L377.059 136.253L376.807 136.725L360.901 142.125L360.933 142.217C361.656 142.625 362.309 142.992 362.892 143.318C363.476 143.644 364.098 144.073 364.76 144.605C365.323 145.049 365.892 145.686 366.465 146.514C367.038 147.342 367.506 148.288 367.867 149.351C368.714 151.848 368.634 153.968 367.627 155.71C366.621 157.453 364.946 158.722 362.603 159.517L351.275 163.363C350.705 163.556 350.279 163.795 349.997 164.08C349.716 164.365 349.553 164.772 349.51 165.303C349.481 165.622 349.478 165.967 349.5 166.337C349.523 166.708 349.587 167.15 349.693 167.664L348.005 168.237Z"/>
<path d="M351.624 201.498L350.075 186.883L351.848 186.695C351.913 186.999 351.993 187.367 352.087 187.799C352.182 188.231 352.298 188.554 352.436 188.768C352.65 189.089 352.934 189.305 353.29 189.414C353.645 189.524 354.155 189.544 354.818 189.473L366.18 188.269C367.831 188.095 369.041 187.659 369.811 186.964C370.58 186.269 370.902 185.33 370.777 184.149C370.708 183.502 370.547 182.909 370.294 182.371C370.04 181.833 369.699 181.317 369.27 180.822C368.897 180.387 368.525 180.046 368.155 179.799C367.785 179.552 367.461 179.345 367.181 179.178L354.144 180.559C353.577 180.619 353.112 180.75 352.749 180.953C352.386 181.155 352.127 181.452 351.972 181.845C351.854 182.119 351.759 182.457 351.687 182.857C351.615 183.258 351.574 183.647 351.565 184.024L349.792 184.212L348.228 169.451L350.001 169.263C350.076 169.664 350.164 170.068 350.264 170.475C350.365 170.882 350.479 171.226 350.607 171.507C350.84 172.006 351.152 172.333 351.545 172.487C351.938 172.642 352.434 172.688 353.033 172.624L367.163 171.127C367.665 171.074 368.144 170.892 368.603 170.582C369.061 170.271 369.421 169.889 369.684 169.436C369.848 169.124 369.97 168.739 370.053 168.28C370.135 167.821 370.172 167.322 370.164 166.783L371.936 166.595L373.795 178.109L373.469 178.512L369.949 178.885L369.959 178.982C370.412 179.392 370.956 179.891 371.591 180.478C372.226 181.066 372.751 181.616 373.165 182.128C373.617 182.686 374.032 183.436 374.41 184.378C374.788 185.32 375.035 186.341 375.152 187.442C375.431 190.08 374.893 192.138 373.535 193.616C372.178 195.093 370.261 195.963 367.785 196.226L355.888 197.486C355.289 197.55 354.821 197.689 354.484 197.905C354.147 198.121 353.899 198.483 353.74 198.991C353.654 199.262 353.575 199.593 353.502 199.986C353.429 200.378 353.394 200.82 353.396 201.31L351.624 201.498Z"/>
<path d="M370.023 229.765C368.78 230.845 367.348 231.618 365.727 232.085C364.107 232.552 362.39 232.69 360.577 232.499C358.781 232.309 357.118 231.818 355.59 231.027C354.061 230.235 352.794 229.18 351.787 227.863C350.708 226.456 349.939 224.832 349.479 222.991C349.018 221.151 348.909 219.089 349.15 216.807C349.359 214.832 349.834 213.045 350.576 211.446C351.318 209.847 352.323 208.468 353.591 207.309C354.805 206.193 356.247 205.364 357.917 204.82C359.586 204.276 361.408 204.109 363.383 204.317C365.325 204.522 367.02 205.017 368.468 205.8C369.915 206.583 371.164 207.66 372.214 209.031C373.22 210.348 373.942 211.918 374.38 213.74C374.818 215.562 374.922 217.558 374.693 219.727C374.453 221.993 373.931 223.955 373.126 225.613C372.32 227.271 371.286 228.655 370.023 229.765ZM353.855 221.772C354.723 222.224 355.796 222.603 357.073 222.91C358.35 223.217 359.846 223.461 361.562 223.642C362.695 223.762 363.999 223.818 365.472 223.81C366.946 223.802 368.121 223.68 368.997 223.446C370.058 223.165 370.916 222.711 371.571 222.085C372.227 221.459 372.61 220.619 372.721 219.567C372.842 218.418 372.624 217.466 372.065 216.712C371.507 215.957 370.745 215.341 369.781 214.862C368.894 214.425 367.839 214.076 366.614 213.816C365.39 213.555 364.106 213.354 362.762 213.212C360.998 213.026 359.531 212.928 358.362 212.919C357.193 212.91 356.002 213.063 354.791 213.377C353.748 213.643 352.898 214.093 352.242 214.728C351.586 215.362 351.201 216.213 351.088 217.282C350.986 218.253 351.169 219.115 351.638 219.868C352.106 220.622 352.845 221.256 353.855 221.772Z"/>
<path d="M343.637 247.574L347.604 232.789L349.325 233.251C349.247 233.668 349.18 234.076 349.124 234.473C349.067 234.871 349.054 235.234 349.084 235.562C349.138 236.116 349.317 236.531 349.622 236.806C349.928 237.082 350.371 237.298 350.953 237.454L377.08 244.463C377.677 244.623 378.264 244.65 378.84 244.543C379.416 244.437 379.893 244.215 380.27 243.878C380.559 243.618 380.883 243.196 381.242 242.609C381.602 242.023 381.862 241.491 382.025 241.012L383.746 241.474L381.177 253.499L380.705 253.752L349.178 245.294C348.596 245.138 348.097 245.114 347.681 245.221C347.265 245.328 346.893 245.583 346.566 245.984C346.341 246.26 346.126 246.556 345.924 246.873C345.721 247.189 345.532 247.577 345.359 248.036L343.637 247.574Z"/>
<path d="M352.777 280.949C351.259 281.587 349.657 281.875 347.972 281.812C346.286 281.75 344.613 281.346 342.95 280.598C341.302 279.857 339.876 278.872 338.671 277.643C337.466 276.413 336.591 275.016 336.046 273.45C335.46 271.777 335.236 269.994 335.373 268.101C335.51 266.209 336.05 264.216 336.991 262.123C337.806 260.312 338.815 258.763 340.019 257.475C341.223 256.187 342.608 255.191 344.174 254.486C345.676 253.805 347.305 253.467 349.061 253.471C350.817 253.476 352.6 253.885 354.411 254.7C356.192 255.501 357.648 256.499 358.779 257.695C359.91 258.891 360.76 260.304 361.33 261.934C361.875 263.5 362.071 265.217 361.918 267.084C361.765 268.952 361.241 270.88 360.347 272.869C359.412 274.947 358.303 276.648 357.021 277.972C355.738 279.296 354.324 280.288 352.777 280.949ZM339.911 268.309C340.595 269.009 341.496 269.704 342.614 270.394C343.731 271.084 345.076 271.783 346.65 272.491C347.689 272.958 348.91 273.418 350.313 273.871C351.715 274.323 352.869 274.574 353.775 274.625C354.87 274.689 355.827 274.526 356.645 274.135C357.463 273.745 358.089 273.067 358.523 272.102C358.997 271.049 359.087 270.076 358.791 269.185C358.496 268.294 357.965 267.47 357.198 266.715C356.493 266.023 355.599 265.362 354.516 264.732C353.434 264.103 352.277 263.511 351.045 262.957C349.427 262.229 348.064 261.678 346.956 261.305C345.848 260.932 344.67 260.705 343.421 260.625C342.347 260.552 341.399 260.715 340.578 261.113C339.756 261.511 339.125 262.2 338.684 263.179C338.284 264.07 338.189 264.946 338.399 265.808C338.609 266.67 339.113 267.504 339.911 268.309Z"/>
<path d="M332.293 312.137L335.404 307.758C334.452 307.861 333.56 307.811 332.726 307.608C331.892 307.404 331.123 307.053 330.42 306.553C329.504 305.903 328.82 305.047 328.366 303.986C327.912 302.925 327.715 301.817 327.777 300.663C327.834 299.486 328.104 298.249 328.585 296.954C329.066 295.659 329.759 294.374 330.664 293.1L332.969 289.856C332.963 289.612 332.898 289.302 332.776 288.926C332.654 288.55 332.474 288.277 332.235 288.107C331.651 287.692 331.082 287.637 330.526 287.941C329.971 288.245 329.246 288.998 328.352 290.2C327.468 291.389 326.551 292.574 325.601 293.756C324.651 294.938 323.981 295.79 323.591 296.311C323.005 297.052 322.307 297.704 321.497 298.267C320.688 298.83 319.866 299.235 319.033 299.481C318.135 299.762 317.183 299.844 316.177 299.728C315.171 299.613 314.197 299.22 313.255 298.551C312.246 297.834 311.47 296.918 310.925 295.802C310.38 294.686 310.136 293.4 310.193 291.943C310.261 290.414 310.63 288.784 311.3 287.054C311.97 285.324 313.074 283.378 314.61 281.215C317.09 277.726 319.399 275.374 321.54 274.159C323.681 272.945 325.6 272.941 327.299 274.148C328.347 274.892 328.86 275.996 328.839 277.459C328.819 278.921 328.106 280.711 326.702 282.828L326.941 282.998C328.219 282.069 329.443 281.506 330.612 281.308C331.78 281.11 332.816 281.332 333.718 281.973C334.275 282.369 334.65 282.84 334.841 283.385C335.033 283.93 335.124 284.519 335.114 285.151C335.102 285.702 334.997 286.306 334.799 286.964C334.601 287.622 334.428 288.168 334.28 288.601L334.499 288.757C336.435 287.437 338.18 286.695 339.734 286.531C341.288 286.368 342.754 286.776 344.134 287.756C346.085 289.142 347.005 291.149 346.895 293.776C346.786 296.403 345.75 299.097 343.79 301.857C343.149 302.759 342.452 303.577 341.701 304.311C340.95 305.045 340.359 305.589 339.929 305.942L334.442 313.664L332.293 312.137ZM335.123 300.102C336.676 301.205 338.077 301.831 339.328 301.982C340.579 302.132 341.568 301.696 342.294 300.674C342.661 300.157 342.859 299.618 342.887 299.059C342.915 298.5 342.782 297.936 342.487 297.367C342.196 296.821 341.777 296.294 341.23 295.785C340.683 295.277 340.091 294.796 339.454 294.344C338.008 293.316 336.641 292.725 335.354 292.569C334.067 292.413 333.094 292.8 332.434 293.729C331.755 294.684 331.652 295.714 332.125 296.819C332.598 297.924 333.597 299.018 335.123 300.102ZM316.03 291.568C316.481 291.888 317.018 292.08 317.642 292.144C318.266 292.208 319.028 291.901 319.929 291.223C320.347 290.802 320.959 290.054 321.763 288.978C322.568 287.902 323.648 286.409 325.006 284.498C324.938 283.751 324.743 283.028 324.42 282.33C324.098 281.632 323.552 281.009 322.782 280.462C322.45 280.227 322.019 280.06 321.489 279.963C320.959 279.866 320.381 279.894 319.753 280.047C319.038 280.238 318.369 280.541 317.744 280.956C317.12 281.371 316.398 282.156 315.578 283.31C314.362 285.022 313.765 286.564 313.787 287.938C313.81 289.311 314.557 290.521 316.03 291.568Z"/>
<path d="M310.109 335.367C310.555 334.775 310.873 334.08 311.063 333.283C311.253 332.486 311.188 331.596 310.869 330.613C309.809 327.513 308.645 324.247 307.377 320.816C306.109 317.385 304.767 313.645 303.353 309.596C302.557 307.328 302.044 305.398 301.814 303.807C301.584 302.215 301.523 300.879 301.631 299.798C301.738 298.787 301.963 297.91 302.308 297.167C302.652 296.424 303.105 295.78 303.665 295.235C304.774 294.158 305.971 293.597 307.255 293.552C308.539 293.508 309.555 293.871 310.304 294.641C310.621 294.968 310.878 295.309 311.075 295.663C311.271 296.016 311.394 296.464 311.443 297.006C311.506 297.444 311.43 297.944 311.215 298.505C310.999 299.066 310.646 299.584 310.156 300.06C309.502 300.696 308.656 301.075 307.619 301.198C306.581 301.321 305.35 301.291 303.925 301.109C303.914 301.869 303.997 302.906 304.174 304.221C304.35 305.535 304.695 306.726 305.209 307.792C309.434 309.362 313.123 310.696 316.279 311.795C319.434 312.894 322.958 314.116 326.852 315.462C327.688 315.739 328.502 315.794 329.293 315.627C330.083 315.46 330.787 315.145 331.404 314.682L332.646 315.961L321.928 326.371L320.686 325.093C321.072 324.695 321.445 324.163 321.806 323.495C322.167 322.827 322.222 322.364 321.973 322.107C321.882 322.014 321.765 321.929 321.623 321.852C321.48 321.775 321.26 321.677 320.962 321.557C319.771 321.126 318.105 320.537 315.964 319.793C313.822 319.048 311.32 318.171 308.457 317.163C309.344 319.524 310.114 321.549 310.769 323.239C311.423 324.929 312.072 326.585 312.716 328.205C312.883 328.611 313.04 328.906 313.187 329.093C313.334 329.279 313.436 329.401 313.492 329.46C313.696 329.67 313.977 329.755 314.335 329.714C314.692 329.673 315.068 329.575 315.461 329.419C315.866 329.253 316.232 329.068 316.557 328.866C316.882 328.663 317.144 328.488 317.341 328.342L318.583 329.62L311.351 336.645L310.109 335.367Z"/>
</g>
<path d="M81.8404 162.696L316.803 162.712C329.326 162.713 339.477 173.4 339.476 186.584L339.474 214.53C339.473 227.713 329.321 238.4 316.799 238.399L81.8358 238.383C69.3133 238.383 59.1624 227.695 59.1632 214.511L59.1649 186.565C59.1657 173.382 69.3178 162.695 81.8404 162.696Z" fill="#ff0000" fill-rule="nonzero" opacity="1" stroke="none"/>
<g fill="#e6e6ff" opacity="1" stroke="#211414" stroke-linecap="butt" stroke-linejoin="round" stroke-width="0.3">
<path d="M96.794 191.883C96.7938 193.875 96.2481 195.519 95.1567 196.815C94.0653 198.112 92.399 199.089 90.1577 199.748L90.1138 199.924C91.8862 200.437 93.2301 201.177 94.1456 202.144C95.0611 203.111 95.5187 204.473 95.5186 206.231C95.5184 209.673 94.1083 212.361 91.2884 214.294C88.4684 216.228 84.4803 217.194 79.3241 217.194L65.1517 217.193L72.7124 184.476L84.6435 184.477C88.584 184.477 91.5942 185.126 93.6742 186.422C95.7542 187.719 96.7941 189.539 96.794 191.883ZM87.873 193.222C87.873 192.256 87.4922 191.556 86.7305 191.124C85.9688 190.692 84.9142 190.476 83.5665 190.476L79.7652 190.475L78.1608 197.397L82.006 197.397C83.8517 197.397 85.2909 197.042 86.3237 196.331C87.3565 195.621 87.8729 194.585 87.873 193.222ZM86.9273 206.45C86.9274 205.249 86.4733 204.381 85.5652 203.846C84.657 203.311 83.2288 203.044 81.2806 203.044L76.8641 203.044L74.9739 211.195L79.2366 211.196C81.6975 211.196 83.5945 210.793 84.9276 209.987C86.2606 209.182 86.9272 208.003 86.9273 206.45Z"/>
<path d="M132.302 192.72C132.302 195.342 131.503 197.547 129.906 199.334C128.309 201.121 126.141 202.468 123.402 203.376L130.96 217.197L121.534 217.197L115.382 205.199L110.636 205.199L107.867 217.196L99.4291 217.195L106.99 184.479L119.756 184.479C123.755 184.48 126.846 185.157 129.028 186.512C131.211 187.868 132.302 189.937 132.302 192.72ZM123.205 194.126C123.205 192.807 122.784 191.873 121.942 191.324C121.099 190.775 119.858 190.5 118.217 190.5L114.043 190.5L111.999 199.31L116.151 199.311C118.393 199.311 120.128 198.853 121.359 197.938C122.59 197.022 123.205 195.752 123.205 194.126Z"/>
<path d="M165.898 184.482L164.47 190.678L149.199 190.678L147.836 196.522L162.009 196.523L160.558 202.741L146.386 202.74L144.473 211.002L159.744 211.003L158.338 217.199L134.629 217.198L142.19 184.481L165.898 184.482Z"/>
<path d="M195.955 217.201L187.452 217.201L186.705 210.521L174.664 210.52L170.84 217.2L162.029 217.199L181.653 184.483L191.409 184.484L195.955 217.201ZM186.068 204.654L184.75 192.899L178.004 204.654L186.068 204.654Z"/>
<path d="M231.221 217.204L221.927 217.203L214.567 203.953L211.161 206.919L208.787 217.202L200.306 217.202L207.844 184.485L216.326 184.485L213.007 198.899L227.773 184.486L237.793 184.487L221.269 199.713L231.221 217.204Z"/>
<path d="M252.71 217.205L233.55 217.204L234.891 211.403L240.23 211.403L245.109 190.288L239.77 190.288L241.111 184.487L260.271 184.488L258.93 190.289L253.591 190.289L248.712 211.404L254.051 211.404L252.71 217.205Z"/>
<path d="M289.361 217.207L282.176 217.207L272.575 194.552L267.344 217.206L259.566 217.205L267.126 184.489L276.575 184.489L284.791 203.43L289.143 184.49L296.921 184.491L289.361 217.207Z"/>
<path d="M313.816 217.89C309.173 217.89 305.536 216.791 302.907 214.593C300.278 212.396 298.963 209.276 298.964 205.233C298.964 198.934 300.993 193.796 305.051 189.819C309.109 185.843 314.258 183.854 320.498 183.855C322.856 183.855 325.043 184.057 327.057 184.459C329.071 184.862 331.162 185.628 333.33 186.756L331.462 194.424L330.517 194.424C328.759 192.754 327.097 191.593 325.529 190.941C323.962 190.289 322.234 189.963 320.344 189.963C318.425 189.963 316.689 190.355 315.136 191.138C313.584 191.922 312.258 192.98 311.159 194.313C310.119 195.573 309.306 197.067 308.72 198.795C308.134 200.524 307.841 202.333 307.841 204.223C307.84 206.845 308.558 208.775 309.993 210.013C311.429 211.251 313.765 211.87 317.003 211.87C317.325 211.87 317.676 211.862 318.057 211.848C318.438 211.833 318.79 211.811 319.112 211.782L320.607 205.366L314.081 205.366L315.509 199.191L330.605 199.192L326.868 215.342C324.92 216.016 322.843 216.609 320.639 217.121C318.434 217.634 316.16 217.89 313.816 217.89Z"/>
</g>
<g fill="#ffffff" filter="url(#Filter)" stroke="none">
<path d="M143.883 294.533L134.303 294.532L121.502 264.326L114.527 294.531L104.156 294.53L114.237 250.908L126.835 250.909L137.79 276.163L143.593 250.91L153.964 250.91L143.883 294.533Z"/>
<path d="M196.649 250.913L194.745 259.175L174.383 259.173L172.566 266.966L191.463 266.967L189.529 275.258L170.632 275.257L168.083 286.273L188.444 286.274L186.568 294.536L154.957 294.534L165.038 250.911L196.649 250.913Z"/>
<path d="M266.259 250.918L245.045 294.539L232.975 294.538L231.102 265.622L216.949 294.537L204.41 294.537L202.421 250.913L214.169 250.914L214.255 280.944L228.905 250.915L240.126 250.916L241.442 280.945L254.804 250.917L266.259 250.918Z"/>
<path d="M279.674 295.332C275.943 295.332 272.618 295.01 269.698 294.365C266.778 293.72 264.254 292.919 262.125 291.962L264.382 281.503L265.612 281.503C267.624 283.339 269.987 284.761 272.702 285.767C275.417 286.773 278.337 287.276 281.462 287.276C284.665 287.276 287.018 286.842 288.522 285.973C290.026 285.104 290.778 283.859 290.778 282.237C290.778 281.632 290.656 281.109 290.412 280.67C290.168 280.231 289.694 279.796 288.991 279.366C288.288 278.936 287.326 278.512 286.106 278.092C284.885 277.672 283.308 277.188 281.374 276.641C279.245 276.055 277.336 275.42 275.647 274.736C273.957 274.053 272.517 273.242 271.326 272.305C270.134 271.347 269.231 270.244 268.616 268.994C268.001 267.744 267.693 266.25 267.693 264.511C267.694 260.136 269.623 256.645 273.48 254.038C277.338 251.431 282.616 250.128 289.315 250.128C292.538 250.128 295.58 250.392 298.441 250.92C301.303 251.447 303.729 252.16 305.721 253.059L303.582 263.107L302.381 263.107C300.858 261.701 298.851 260.524 296.361 259.577C293.871 258.629 291.151 258.155 288.202 258.155C285.311 258.155 283.075 258.575 281.493 259.415C279.91 260.254 279.119 261.416 279.119 262.901C279.119 263.584 279.236 264.151 279.471 264.6C279.705 265.049 280.184 265.489 280.906 265.918C281.531 266.309 282.518 266.734 283.865 267.193C285.213 267.652 286.795 268.126 288.611 268.614C293.494 269.923 296.98 271.457 299.07 273.214C301.16 274.972 302.204 277.355 302.204 280.363C302.204 282.883 301.637 285.099 300.505 287.013C299.372 288.927 297.809 290.48 295.817 291.671C293.727 292.941 291.354 293.868 288.697 294.454C286.041 295.04 283.033 295.333 279.674 295.332Z"/>
</g>
<path d="M145.371 95.9561L269.588 95.9641C276.716 95.9645 282.493 100.746 282.493 106.645L282.491 139.542C282.491 145.44 276.712 150.221 269.585 150.221L145.368 150.213C138.241 150.213 132.463 145.431 132.463 139.532L132.466 106.635C132.466 100.737 138.244 95.9557 145.371 95.9561Z" fill="url(#LinearGradient)" fill-rule="nonzero" opacity="1" stroke="none"/>
<g fill="#00008d" opacity="1" stroke="none">
<path d="M170.446 141.279L144.201 141.278L152.601 104.926L162.025 104.926L155.261 134.247L172.082 134.248L170.446 141.279Z"/>
<path d="M195.739 141.281L174.45 141.28L175.939 134.834L181.872 134.835L187.293 111.373L181.361 111.373L182.851 104.928L204.14 104.929L202.65 111.374L196.717 111.374L191.296 134.835L197.229 134.836L195.739 141.281Z"/>
<path d="M244.74 104.932L223.083 141.283L212.585 141.282L207.728 104.929L217.323 104.93L220.227 130.882L234.706 104.931L244.74 104.932Z"/>
<path d="M276.283 104.934L274.696 111.818L257.728 111.817L256.214 118.311L271.961 118.312L270.349 125.221L254.602 125.22L252.478 134.4L269.445 134.401L267.882 141.286L241.54 141.284L249.94 104.932L276.283 104.934Z"/>
</g>
<g opacity="1">
<path d="M125.586 149.326C125.586 144.225 129.714 140.09 134.807 140.09C139.9 140.09 144.029 144.225 144.029 149.326C144.029 154.427 139.9 158.562 134.807 158.562C129.714 158.562 125.586 154.427 125.586 149.326Z" fill="#fffefe" fill-rule="nonzero" opacity="1" stroke="none"/>
<path d="M135.141 88.2411L131.262 145.559L138.439 145.365L135.141 88.2411Z" fill="#fffefe" fill-rule="nonzero" opacity="1" stroke="none"/>
<path d="M135.335 208.123L131.456 150.805L138.633 151L135.335 208.123Z" fill="#fffefe" fill-rule="nonzero" opacity="1" stroke="none"/>
<path d="M192.399 151.059L135.172 147.173L135.366 154.362L192.399 151.059Z" fill="#fffefe" fill-rule="nonzero" opacity="1" stroke="none"/>
<path d="M78.307 149.116L135.534 145.23L135.34 152.419L78.307 149.116Z" fill="#fffefe" fill-rule="nonzero" opacity="1" stroke="none"/>
</g>
<g fill="#1b00bf" opacity="1" stroke="none">
<path d="M136.816 350.23C136.816 350.934 136.617 351.445 136.218 351.766C135.82 352.086 135.316 352.246 134.707 352.246C134.316 352.246 133.507 352.074 132.281 351.73C131.054 351.386 129.754 351.128 128.379 350.957C129.285 352.144 130.285 353.261 131.378 354.308C132.472 355.355 133.019 356.246 133.019 356.98C133.019 357.496 132.792 357.945 132.339 358.328C131.886 358.711 131.409 358.902 130.909 358.902C130.566 358.902 130.245 358.804 129.948 358.609C129.652 358.414 129.394 358.136 129.175 357.777C128.988 357.433 128.734 356.652 128.413 355.433C128.093 354.214 127.668 352.964 127.136 351.683C126.621 352.902 126.191 354.156 125.847 355.445C125.503 356.734 125.253 357.511 125.097 357.777C124.847 358.167 124.593 358.452 124.335 358.632C124.077 358.812 123.753 358.902 123.362 358.902C122.847 358.901 122.366 358.718 121.921 358.351C121.476 357.983 121.253 357.526 121.253 356.979C121.253 356.245 121.8 355.355 122.894 354.308C123.988 353.261 124.988 352.144 125.894 350.956C124.582 351.113 123.293 351.366 122.027 351.718C120.761 352.069 119.941 352.245 119.566 352.245C118.957 352.245 118.453 352.085 118.054 351.764C117.656 351.444 117.457 350.932 117.457 350.229C117.457 349.589 117.656 349.093 118.055 348.741C118.453 348.389 118.957 348.214 119.566 348.214C120.051 348.214 120.828 348.374 121.898 348.694C122.969 349.015 124.301 349.269 125.894 349.456C124.863 348.144 123.832 346.991 122.801 345.999C121.77 345.007 121.254 344.151 121.254 343.433C121.254 342.917 121.481 342.468 121.934 342.085C122.387 341.702 122.864 341.511 123.364 341.511C123.723 341.511 124.047 341.605 124.336 341.792C124.625 341.98 124.879 342.253 125.098 342.613C125.285 342.956 125.543 343.745 125.871 344.98C126.199 346.214 126.621 347.464 127.137 348.73C127.652 347.449 128.078 346.191 128.414 344.957C128.75 343.722 129.004 342.941 129.176 342.613C129.364 342.285 129.61 342.019 129.914 341.816C130.219 341.613 130.551 341.511 130.91 341.511C131.426 341.511 131.907 341.695 132.352 342.062C132.797 342.429 133.02 342.886 133.02 343.433C133.02 344.152 132.531 344.992 131.555 345.953C130.578 346.914 129.527 348.082 128.402 349.457C129.965 349.253 131.305 348.996 132.422 348.683C133.539 348.371 134.301 348.215 134.707 348.215C135.316 348.215 135.82 348.391 136.219 348.742C136.617 349.094 136.816 349.59 136.816 350.23Z"/>
<path d="M178.207 344.186C177.582 344.264 177.051 344.342 176.613 344.42C176.176 344.499 175.684 344.608 175.137 344.749C174.496 344.92 174.086 345.225 173.906 345.663C173.727 346.1 173.637 346.6 173.637 347.162L173.636 365.491C173.635 367.178 173.295 368.725 172.616 370.131C171.936 371.537 171.002 372.717 169.815 373.67C168.612 374.607 167.268 375.314 165.783 375.791C164.299 376.267 162.713 376.506 161.025 376.505C158.104 376.505 155.748 375.802 153.959 374.396C152.17 372.989 151.276 371.06 151.276 368.606C151.276 367.153 151.686 365.95 152.507 364.997C153.327 364.044 154.456 363.568 155.893 363.568C157.253 363.568 158.335 363.966 159.139 364.763C159.944 365.56 160.346 366.544 160.346 367.716C160.346 368.716 159.999 369.642 159.303 370.494C158.608 371.345 157.815 372.13 156.924 372.849L156.924 373.154C157.065 373.466 157.369 373.732 157.838 373.951C158.307 374.169 158.783 374.279 159.268 374.279C161.143 374.279 162.615 373.607 163.686 372.263C164.756 370.92 165.292 368.889 165.292 366.17L165.293 347.396C165.293 346.834 165.207 346.365 165.035 345.99C164.863 345.615 164.449 345.287 163.793 345.006C163.324 344.802 162.758 344.631 162.094 344.49C161.43 344.349 160.879 344.248 160.442 344.185L160.442 342.357L178.207 342.358L178.207 344.186Z"/>
<path d="M212.354 364.954L211.697 375.618L181.065 375.616L181.065 373.788C181.612 373.741 182.252 373.667 182.987 373.565C183.721 373.464 184.205 373.366 184.44 373.273C185.002 373.054 185.393 372.749 185.612 372.359C185.83 371.968 185.94 371.468 185.94 370.859L185.941 347.398C185.941 346.835 185.855 346.37 185.684 346.003C185.512 345.636 185.098 345.304 184.441 345.007C183.957 344.788 183.375 344.612 182.695 344.479C182.016 344.347 181.473 344.249 181.067 344.186L181.067 342.358L199.324 342.359L199.324 344.188C198.824 344.234 198.235 344.301 197.555 344.387C196.875 344.473 196.285 344.594 195.785 344.75C195.176 344.953 194.77 345.269 194.566 345.699C194.363 346.129 194.262 346.617 194.262 347.164L194.26 369.031C194.26 370.062 194.33 370.875 194.471 371.468C194.612 372.062 194.885 372.5 195.291 372.781C195.698 373.078 196.264 373.269 196.99 373.355C197.717 373.441 198.721 373.484 200.002 373.484C201.252 373.485 202.467 373.41 203.647 373.262C204.826 373.114 205.674 372.79 206.19 372.29C206.987 371.493 207.803 370.372 208.639 368.926C209.475 367.481 210.143 366.157 210.643 364.954L212.354 364.954Z"/>
<path d="M231.408 376.51C228.971 376.51 226.69 376.115 224.565 375.326C222.44 374.537 220.588 373.392 219.01 371.892C217.463 370.423 216.245 368.607 215.354 366.442C214.464 364.278 214.019 361.899 214.019 359.306C214.019 356.728 214.468 354.341 215.367 352.146C216.265 349.95 217.527 348.048 219.152 346.439C220.746 344.861 222.66 343.638 224.895 342.771C227.129 341.904 229.52 341.471 232.067 341.471C233.91 341.471 235.59 341.694 237.106 342.139C238.621 342.585 239.903 343.089 240.949 343.651L242.403 342.362L244.442 342.362L244.652 354.503L242.589 354.503C241.418 350.8 240.012 348.081 238.371 346.346C236.731 344.612 234.731 343.744 232.371 343.744C229.434 343.744 227.199 345.037 225.668 347.623C224.136 350.209 223.371 353.838 223.37 358.509C223.37 361.15 223.632 363.404 224.155 365.271C224.678 367.138 225.362 368.642 226.206 369.783C227.112 370.971 228.182 371.842 229.416 372.396C230.651 372.951 232.018 373.229 233.518 373.229C235.705 373.229 237.655 372.635 239.366 371.448C241.077 370.261 242.635 368.464 244.042 366.058L246.057 367.276C245.385 368.651 244.62 369.882 243.76 370.968C242.901 372.054 241.908 372.987 240.783 373.768C239.549 374.628 238.186 375.299 236.693 375.784C235.201 376.268 233.44 376.51 231.408 376.51Z"/>
<path d="M280.136 350.24C280.136 350.943 279.937 351.454 279.539 351.775C279.14 352.095 278.636 352.255 278.027 352.255C277.636 352.255 276.828 352.083 275.601 351.739C274.375 351.395 273.074 351.138 271.699 350.966C272.605 352.153 273.605 353.27 274.699 354.317C275.792 355.364 276.339 356.255 276.339 356.989C276.339 357.505 276.113 357.954 275.659 358.337C275.206 358.72 274.73 358.911 274.23 358.911C273.886 358.911 273.566 358.813 273.269 358.618C272.972 358.423 272.714 358.145 272.495 357.786C272.308 357.442 272.054 356.661 271.734 355.442C271.414 354.223 270.988 352.973 270.457 351.692C269.941 352.911 269.511 354.165 269.167 355.454C268.824 356.743 268.574 357.52 268.417 357.786C268.167 358.176 267.913 358.461 267.655 358.641C267.398 358.821 267.073 358.911 266.683 358.911C266.167 358.911 265.687 358.727 265.241 358.36C264.796 357.992 264.574 357.535 264.574 356.989C264.574 356.254 265.121 355.364 266.214 354.317C267.308 353.27 268.308 352.153 269.215 350.965C267.902 351.122 266.613 351.375 265.347 351.727C264.082 352.078 263.261 352.254 262.886 352.254C262.277 352.254 261.773 352.094 261.375 351.774C260.976 351.453 260.777 350.941 260.777 350.238C260.777 349.598 260.976 349.102 261.375 348.75C261.773 348.399 262.277 348.223 262.887 348.223C263.371 348.223 264.148 348.383 265.219 348.703C266.289 349.024 267.621 349.278 269.215 349.465C268.183 348.153 267.152 347 266.121 346.008C265.09 345.016 264.574 344.16 264.574 343.442C264.574 342.926 264.801 342.477 265.254 342.094C265.707 341.711 266.184 341.52 266.684 341.52C267.043 341.52 267.367 341.614 267.657 341.801C267.946 341.989 268.199 342.262 268.418 342.622C268.606 342.965 268.863 343.754 269.191 344.989C269.52 346.223 269.941 347.473 270.457 348.739C270.973 347.458 271.398 346.2 271.734 344.966C272.07 343.731 272.324 342.95 272.496 342.622C272.684 342.294 272.93 342.028 273.235 341.825C273.539 341.622 273.871 341.52 274.231 341.52C274.746 341.52 275.227 341.704 275.672 342.071C276.117 342.439 276.34 342.896 276.34 343.442C276.34 344.161 275.852 345.001 274.875 345.962C273.898 346.923 272.848 348.091 271.722 349.466C273.285 349.263 274.625 349.005 275.742 348.692C276.859 348.38 277.621 348.224 278.027 348.224C278.637 348.224 279.141 348.4 279.539 348.751C279.937 349.103 280.137 349.599 280.136 350.24Z"/>
</g>
</g>
</svg>
