<?xml version="1.0" encoding="UTF-8" standalone="no"?> <!-- Created with Vectornator for iOS (http://vectornator.io/) --><!DOCTYPE svg PUBLIC "-//W3C//DTD SVG 1.1//EN" "http://www.w3.org/Graphics/SVG/1.1/DTD/svg11.dtd">
<svg style="fill-rule:evenodd;clip-rule:evenodd;stroke-linecap:round;stroke-linejoin:round;" xmlns:vectornator="http://vectornator.io" xmlns:xlink="http://www.w3.org/1999/xlink" xmlns="http://www.w3.org/2000/svg" xml:space="preserve" version="1.1" viewBox="0 0 400 400">
<metadata>
<vectornator:setting key="DimensionsVisible" value="1"/>
<vectornator:setting key="New" value="1"/>
<vectornator:setting key="SnapToPoints" value="0"/>
<vectornator:setting key="GuidesVisible" value="1"/>
<vectornator:setting key="RulersVisible" value="1"/>
<vectornator:setting key="CMYKEnabledKey" value="0"/>
<vectornator:setting key="SnapToEdges" value="0"/>
<vectornator:setting key="DisplayWhiteBackground" value="0"/>
<vectornator:setting key="SnapToGuides" value="1"/>
<vectornator:setting key="GridSpacing" value="36"/>
<vectornator:setting key="Units" value="Pixels"/>
<vectornator:setting key="DynamicGuides" value="0"/>
<vectornator:setting key="SnapToGrid" value="0"/>
</metadata>
<defs>
<path id="TextPath" d="M134.101+334.43C60.932+297.443+31.5879+208.168+68.5595+135.029C105.531+61.8907+194.818+32.5841+267.987+69.5712C341.157+106.558+370.501+195.833+333.529+268.971C296.557+342.11+207.271+371.417+134.101+334.43Z" transform="matrix(0.390062 0.771636 -0.771636 0.390062 279.919 -32.1809)"/>
</defs>
<g id="レイヤー 1" vectornator:layerName="レイヤー 1">
<path stroke="#00b782" stroke-width="12" d="M13.7559+201.165C13.7559+96.3079+98.7628+11.3041+203.624+11.3041C308.485+11.3041+393.492+96.3079+393.492+201.165C393.492+306.023+308.485+391.027+203.624+391.027C98.7628+391.027+13.7559+306.023+13.7559+201.165Z" fill="#f7fbd0" stroke-linecap="butt" opacity="1" stroke-linejoin="round"/>
<path stroke="#000000" stroke-width="4" d="M7.43697+199.876C7.43697+92.2476+94.8004+4.99785+202.569+4.99785C310.337+4.99785+397.7+92.2476+397.7+199.876C397.7+307.504+310.337+394.754+202.569+394.754C94.8004+394.754+7.43697+307.504+7.43697+199.876Z" fill="#f7fbd0" stroke-linecap="butt" fill-opacity="0" opacity="1" stroke-linejoin="round"/>
<text stroke="#010000" font-family="'Georgia-Bold'" stroke-width="5" stroke-opacity="0" fill="#2704a0" font-size="36" stroke-linecap="butt" opacity="1" transform="matrix(0.521773 -1.03219 1.03219 0.521773 -112.837 305.721)" stroke-linejoin="round">
<textPath xlink:href="#TextPath" method="align" startOffset="0pt">
<![CDATA[TOKYO INSTITUTE OF TECHNOLOGY ]]></textPath>
</text>
<path stroke="#00b782" stroke-width="12" d="M66.8247+200.933C66.8247+126.803+126.919+66.7087+201.049+66.7087C275.18+66.7087+335.274+126.803+335.274+200.933C335.274+275.064+275.18+335.158+201.049+335.158C126.919+335.158+66.8247+275.064+66.8247+200.933Z" fill="#ffffff" stroke-linecap="butt" opacity="1" stroke-linejoin="round"/>
<path stroke="#000000" stroke-width="4.77" d="M72.6064+200.27C72.6064+129.606+129.891+72.3207+200.556+72.3207C271.221+72.3207+328.506+129.606+328.506+200.27C328.506+270.935+271.221+328.22+200.556+328.22C129.891+328.22+72.6064+270.935+72.6064+200.27Z" fill="#ffffff" stroke-linecap="butt" fill-opacity="0" opacity="1" stroke-linejoin="round"/>
</g>
<g id="レイヤー 2" vectornator:layerName="レイヤー 2">
<path stroke="#010000" stroke-width="4" d="M112.133+188.31C112.133+173.048+149.765+162.624+196.2+162.624C242.635+162.624+280.288+173.048+280.288+188.31C280.288+203.572+242.645+215.945+196.21+215.945C149.776+215.945+112.133+203.572+112.133+188.31Z" fill="#ffffff" stroke-linecap="butt" fill-opacity="0.0126263" opacity="1" stroke-linejoin="round"/>
<path stroke="#7a4300" stroke-opacity="0" stroke-width="4.68" d="M116.256+197.541C116.256+188.599+152.098+178.014+195.538+178.014C238.978+178.014+273.565+188.599+273.565+197.541C273.565+206.482+237.985+214.255+194.545+214.255C151.105+214.255+116.256+206.482+116.256+197.541Z" fill="#5b3302" stroke-linecap="round" opacity="1" stroke-linejoin="round"/>
<path stroke="#d97803" stroke-opacity="0" stroke-width="4.68" d="M117.319+195.541C117.184+188.513+171.782+176.542+182.216+182.325C192.65+188.107+164.24+186.221+156.069+195.649C147.898+205.077+217.791+212.871+214.397+212.997C211.003+213.122+167.886+212.62+156.195+211.991C144.504+211.363+117.49+204.481+117.319+195.541Z" fill="#f8a33d" stroke-linecap="round" fill-opacity="0.598485" opacity="1" stroke-linejoin="round"/>
<path stroke="#010000" stroke-width="4" d="M112.018+188.701L135.185+289.344C135.185+289.344+140.849+308.98+195.663+307.141C250.476+305.302+257.574+287.417+257.574+287.417C257.574+287.417+276.49+198.786+277.643+195.455C278.797+192.124+281.63+212.461+196.195+214.004C110.76+215.547+112.018+188.701+112.018+188.701Z" fill="#ffffff" stroke-linecap="round" opacity="1" stroke-linejoin="round"/>
<path stroke="#010000" stroke-width="2" d="M281.901+191.458C290.157+184.027+315.877+189.725+308.097+217.889C300.317+246.053+257.397+284.047+264.697+257.581C271.997+231.115+273.645+198.889+281.901+191.458Z" fill="#ffffff" stroke-linecap="butt" opacity="1" stroke-linejoin="round"/>
<path stroke="#010000" stroke-opacity="0" stroke-width="4" d="M289.025+226.643C297.131+216.42+295.226+206.972+293.258+204.725C291.002+202.149+290.547+202.357+297.01+202.588C302.218+202.774+304.145+211.821+301.522+219.247C297.53+230.553+265.217+262.192+267.899+252.943C269.038+249.017+270.121+243.934+270.121+243.934C270.121+243.934+281.279+236.412+289.025+226.643Z" fill="#077a00" stroke-linecap="butt" opacity="1" stroke-linejoin="round"/>
<path stroke="#077a00" stroke-opacity="0" stroke-width="4.68" d="M110.632+190.93C110.14+190.093+112.728+200.595+114.048+205.137C115.367+209.679+133.041+286.568+134.951+291.024C136.861+295.48+143.227+302.574+166.054+306.94C179.955+309.598+202.563+308.51+201.594+307.125C200.625+305.741+190.229+307.552+174.262+305.525C159.873+303.699+141.481+299.332+138.856+288.393C136.231+277.455+126.676+249.177+118.462+209.402C116.573+200.409+120.02+203.787+125.964+206.496C129.434+208.076+143.743+212.512+146.538+212.823C149.333+213.133+129.615+206.559+125.964+204.322C124.075+203.164+114.785+197.995+110.632+190.93Z" fill="#077a00" stroke-linecap="round" opacity="1" stroke-linejoin="round"/>
<g opacity="0.978383">
<path stroke="#f5f5f5" vectornator:shadowColor="#000000" vectornator:shadowOffset="4.84582" stroke-width="1.03" fill="#dd0054" stroke-linecap="round" vectornator:shadowAngle="0.79834" stroke-linejoin="round" opacity="0.978383" vectornator:shadowRadius="3.0837" d="M154.198+116.195C151.58+120.513+149.2+127.075+147.058+135.881C145.29+143.123+144.474+147.509+144.61+149.039C144.542+149.277+144.559+149.583+144.661+149.957C144.763+150.331+144.797+150.603+144.763+150.773C144.525+152.201+144.066+152.966+143.386+153.068C142.842+153.17+141.142+152.643+138.286+151.487C135.328+150.331+133.747+149.481+133.543+148.937C133.509+148.869+133.458+147.917+133.39+146.081C131.928+142.035+130.959+137.938+130.483+133.79C129.531+136+128.596+138.21+127.678+140.42C126.794+142.8+126.386+145.163+126.454+147.509C126.386+147.781+126.386+148.155+126.454+148.631C126.556+149.107+126.573+149.481+126.505+149.753C126.199+151.079+125.723+151.827+125.077+151.997C124.873+152.065+124.601+152.099+124.261+152.099C122.697+152.099+120.929+151.776+118.957+151.13C116.543+150.382+115.166+149.464+114.826+148.376C114.86+148.138+114.826+147.339+114.724+145.979C113.126+140.777+112.055+136.034+111.511+131.75C110.967+127.704+110.746+122.774+110.848+116.96C110.542+115.498+110.457+114.597+110.593+114.257C111.035+112.931+111.647+112.285+112.429+112.319C113.313+112.353+114.724+112.829+116.662+113.747C118.6+114.665+119.637+115.396+119.773+115.94C119.807+116.11+119.756+116.977+119.62+118.541C119.484+119.969+119.416+121.278+119.416+122.468C119.416+125.052+119.909+129.302+120.895+135.218L128.035+115.073C128.103+114.665+128.307+114.104+128.647+113.39C129.055+112.948+129.565+112.676+130.177+112.574C130.551+112.506+131.911+112.99+134.257+114.027C136.603+115.064+137.793+115.77+137.827+116.144C137.827+116.382+137.793+117.419+137.725+119.255C137.623+121.431+137.572+123.318+137.572+124.916C137.572+128.894+137.844+132.311+138.388+135.167C139.306+130.951+140.496+126.599+141.958+122.111C143.08+118.507+143.947+116.059+144.559+114.767C144.933+113.237+145.834+112.574+147.262+112.778C148.418+112.914+149.676+113.271+151.036+113.849C152.838+114.563+153.892+115.345+154.198+116.195Z" vectornator:shadowOpacity="1"/>
<path stroke="#f5f5f5" vectornator:shadowColor="#000000" vectornator:shadowOffset="4.84582" stroke-width="1.03" fill="#dd0054" stroke-linecap="round" vectornator:shadowAngle="0.79834" stroke-linejoin="round" opacity="0.978383" vectornator:shadowRadius="3.0837" d="M167.865+142.613C168.171+143.055+167.508+144.415+165.876+146.693C164.108+149.107+162.374+150.739+160.674+151.589C160.47+151.691+160.164+151.742+159.756+151.742C158.43+151.742+156.696+151.368+154.554+150.62C152.276+149.906+150.78+149.124+150.066+148.274C148.094+145.962+147.108+142.766+147.108+138.686C147.108+134.844+147.975+131.461+149.709+128.537C151.579+125.307+153.959+123.658+156.849+123.59C157.903+123.556+159.178+123.811+160.674+124.355C162.51+125.001+164.023+125.868+165.213+126.956C165.519+127.228+165.808+128.061+166.08+129.455C166.42+130.917+166.59+132.345+166.59+133.739C166.59+135.813+166.216+137.258+165.468+138.074C161.966+139.06+158.396+139.621+154.758+139.757C154.69+141.253+154.894+142.825+155.37+144.474C155.846+146.123+156.339+146.965+156.849+146.999C157.529+147.033+158.345+146.54+159.297+145.52C160.147+144.602+160.674+143.837+160.878+143.225C161.116+142.307+161.439+141.372+161.847+140.42C162.391+140.352+163.462+140.59+165.06+141.134C166.658+141.678+167.593+142.171+167.865+142.613ZM158.787+128.537C158.209+128.503+157.401+129.336+156.364+131.036C155.327+132.736+154.724+134.368+154.554+135.932C156.084+135.898+157.308+135.575+158.226+134.963C158.77+134.589+159.042+133.059+159.042+130.373C159.042+129.217+158.957+128.605+158.787+128.537Z" vectornator:shadowOpacity="1"/>
<path stroke="#f5f5f5" vectornator:shadowColor="#000000" vectornator:shadowOffset="4.84582" stroke-width="1.03" fill="#dd0054" stroke-linecap="round" vectornator:shadowAngle="0.79834" stroke-linejoin="round" opacity="0.978383" vectornator:shadowRadius="3.0837" d="M176.687+114.92C176.687+115.124+176.61+115.413+176.457+115.787C176.304+116.161+176.211+116.399+176.177+116.501C175.973+117.113+175.769+118.065+175.565+119.357L175.565+147.509C175.565+147.883+175.667+148.214+175.871+148.503C176.075+148.792+176.177+149.022+176.177+149.192C176.177+151.164+175.769+152.235+174.953+152.405C174.647+152.439+173.567+152.218+171.714+151.742C169.861+151.266+168.748+150.892+168.374+150.62C167.626+150.042+167.252+149.515+167.252+149.039C167.252+148.903+167.32+148.758+167.456+148.605C167.592+148.452+167.66+148.189+167.66+147.815L167.66+115.481C167.66+115.311+167.6+115.124+167.481+114.92C167.362+114.716+167.303+114.512+167.303+114.308C167.371+113.594+168+113.118+169.19+112.88C169.53+112.812+170.244+112.812+171.332+112.88C172.59+112.948+173.678+113.118+174.596+113.39C175.99+113.73+176.687+114.24+176.687+114.92Z" vectornator:shadowOpacity="1"/>
<path stroke="#f5f5f5" vectornator:shadowColor="#000000" vectornator:shadowOffset="4.84582" stroke-width="1.03" fill="#dd0054" stroke-linecap="round" vectornator:shadowAngle="0.79834" stroke-linejoin="round" opacity="0.978383" vectornator:shadowRadius="3.0837" d="M197.545+141.695C197.545+142.273+196.984+143.055+195.862+144.041C194.944+145.843+194.128+147.135+193.414+147.917C191.85+149.753+189.929+150.841+187.651+151.181C187.175+151.249+186.716+151.283+186.274+151.283C184.37+151.283+182.024+150.45+179.236+148.784C176.822+147.322+175.615+143.939+175.615+138.635C175.615+134.725+176.278+131.189+177.604+128.027C179.066+124.559+180.851+122.757+182.959+122.621C184.625+122.553+186.665+122.961+189.079+123.845C191.493+124.729+193.125+125.698+193.975+126.752C194.689+127.636+195.046+128.826+195.046+130.322C195.046+130.696+195.012+131.257+194.944+132.005C194.876+132.753+194.859+133.28+194.893+133.586C194.961+134.436+194.995+134.827+194.995+134.759C194.995+135.745+194.468+136.221+193.414+136.187C192.19+136.153+191.034+135.983+189.946+135.677C188.484+135.201+187.6+134.572+187.294+133.79C187.192+133.518+187.336+133.152+187.727+132.693C188.118+132.234+188.28+131.852+188.212+131.546C188.28+131.342+188.314+130.798+188.314+129.914C188.314+128.078+187.957+127.143+187.243+127.109C186.155+127.041+185.237+128.52+184.489+131.546C183.809+134.232+183.469+137.173+183.469+140.369C183.469+144.109+183.962+146.098+184.948+146.336C185.73+146.472+186.75+145.707+188.008+144.041C189.062+142.579+189.631+141.601+189.716+141.108C189.801+140.615+189.878+140.097+189.946+139.553C190.184+138.703+190.796+138.312+191.782+138.38C192.394+138.448+193.465+138.805+194.995+139.451C196.525+140.097+197.332+140.581+197.417+140.904C197.502+141.227+197.545+141.491+197.545+141.695Z" vectornator:shadowOpacity="1"/>
<path stroke="#f5f5f5" vectornator:shadowColor="#000000" vectornator:shadowOffset="4.84582" stroke-width="1.03" fill="#dd0054" stroke-linecap="round" vectornator:shadowAngle="0.79834" stroke-linejoin="round" opacity="0.978383" vectornator:shadowRadius="3.0837" d="M214.067+124.355C215.937+125.137+217.382+126.735+218.402+129.149C219.32+131.359+219.779+133.96+219.779+136.952C219.779+141.1+218.997+144.687+217.433+147.713C215.699+150.943+213.54+152.405+210.956+152.099C210.004+151.895+208.576+151.64+206.672+151.334C205.278+151.164+204.02+150.926+202.898+150.62C200.96+150.178+199.413+148.699+198.257+146.183C197.203+143.871+196.676+141.151+196.676+138.023C196.676+134.861+197.22+132.005+198.308+129.455C199.532+126.633+201.249+124.644+203.459+123.488C203.833+123.318+204.343+123.233+204.989+123.233C205.669+123.233+207.012+123.437+209.018+123.845C210.31+123.845+211.993+124.015+214.067+124.355ZM208.355+128.486C207.437+128.486+206.587+129.489+205.805+131.495C205.023+133.501+204.632+135.422+204.632+137.258C204.632+139.434+204.921+141.593+205.499+143.735C206.145+146.081+206.893+147.339+207.743+147.509C208.831+147.713+209.8+146.608+210.65+144.194C211.466+141.882+211.874+139.315+211.874+136.493C211.874+134.929+211.653+133.382+211.211+131.852C210.599+129.608+209.647+128.486+208.355+128.486Z" vectornator:shadowOpacity="1"/>
<path stroke="#f5f5f5" vectornator:shadowColor="#000000" vectornator:shadowOffset="4.84582" stroke-width="1.03" fill="#dd0054" stroke-linecap="round" vectornator:shadowAngle="0.79834" stroke-linejoin="round" opacity="0.978383" vectornator:shadowRadius="3.0837" d="M256.651+147.713C256.923+148.291+257.059+148.869+257.059+149.447C257.059+150.365+256.668+150.994+255.886+151.334C255.648+151.436+255.223+151.487+254.611+151.487C253.455+151.487+252.078+151.325+250.48+151.002C248.882+150.679+247.913+150.365+247.573+150.059C247.403+149.855+247.318+149.651+247.318+149.447C247.318+149.107+247.573+148.563+248.083+147.815C248.593+147.067+248.848+146.523+248.848+146.183C248.916+134.113+248.814+128.044+248.542+127.976C247.998+127.806+246.893+129.013+245.227+131.597C243.391+134.419+242.473+136.867+242.473+138.941L242.473+147.917C242.711+148.631+242.83+149.192+242.83+149.6C242.83+150.348+242.388+150.926+241.504+151.334C241.266+151.436+240.841+151.487+240.229+151.487C239.073+151.487+237.696+151.325+236.098+151.002C234.5+150.679+233.531+150.365+233.191+150.059C233.055+149.923+232.987+149.77+232.987+149.6C232.987+149.294+233.234+148.741+233.727+147.942C234.22+147.143+234.466+146.557+234.466+146.183C234.534+134.113+234.432+128.044+234.16+127.976C233.684+127.806+232.511+129.183+230.641+132.107C228.669+135.167+227.683+137.479+227.683+139.043L227.683+147.611C228.125+148.019+228.346+148.512+228.346+149.09C228.346+150.246+227.768+151.045+226.612+151.487C226.476+151.521+226.272+151.538+226+151.538C225.082+151.538+223.739+151.351+221.971+150.977C220.203+150.603+219.217+150.288+219.013+150.033C218.809+149.778+218.707+149.498+218.707+149.192C218.707+148.886+218.903+148.52+219.294+148.095C219.685+147.67+219.88+147.407+219.88+147.305L219.88+125.936C219.88+125.698+219.744+125.383+219.472+124.992C219.2+124.601+219.115+124.253+219.217+123.947C219.421+123.335+219.948+122.927+220.798+122.723C221.342+122.621+222.617+122.791+224.623+123.233C226.799+123.709+227.989+124.219+228.193+124.763C228.329+125.103+228.278+125.596+228.04+126.242C227.666+127.33+227.479+127.942+227.479+128.078C227.479+128.418+227.547+128.792+227.683+129.2C228.193+127.67+228.907+126.31+229.825+125.12C230.947+123.692+232.069+122.978+233.191+122.978C234.279+122.978+235.758+123.352+237.628+124.1C239.362+124.848+240.433+125.477+240.841+125.987C241.147+126.361+241.487+127.466+241.861+129.302C243.255+126.956+244.054+125.63+244.258+125.324C245.414+123.76+246.519+122.978+247.573+122.978C248.729+122.978+250.225+123.335+252.061+124.049C253.897+124.763+254.951+125.409+255.223+125.987C256.175+127.959+256.651+135.201+256.651+147.713Z" vectornator:shadowOpacity="1"/>
<path stroke="#f5f5f5" vectornator:shadowColor="#000000" vectornator:shadowOffset="4.84582" stroke-width="1.03" fill="#dd0054" stroke-linecap="round" vectornator:shadowAngle="0.79834" stroke-linejoin="round" opacity="0.978383" vectornator:shadowRadius="3.0837" d="M277.254+142.613C277.56+143.055+276.897+144.415+275.265+146.693C273.497+149.107+271.763+150.739+270.063+151.589C269.859+151.691+269.553+151.742+269.145+151.742C267.819+151.742+266.085+151.368+263.943+150.62C261.665+149.906+260.169+149.124+259.455+148.274C257.483+145.962+256.497+142.766+256.497+138.686C256.497+134.844+257.364+131.461+259.098+128.537C260.968+125.307+263.348+123.658+266.238+123.59C267.292+123.556+268.567+123.811+270.063+124.355C271.899+125.001+273.412+125.868+274.602+126.956C274.908+127.228+275.197+128.061+275.469+129.455C275.809+130.917+275.979+132.345+275.979+133.739C275.979+135.813+275.605+137.258+274.857+138.074C271.355+139.06+267.785+139.621+264.147+139.757C264.079+141.253+264.283+142.825+264.759+144.474C265.235+146.123+265.728+146.965+266.238+146.999C266.918+147.033+267.734+146.54+268.686+145.52C269.536+144.602+270.063+143.837+270.267+143.225C270.505+142.307+270.828+141.372+271.236+140.42C271.78+140.352+272.851+140.59+274.449+141.134C276.047+141.678+276.982+142.171+277.254+142.613ZM268.176+128.537C267.598+128.503+266.79+129.336+265.753+131.036C264.716+132.736+264.113+134.368+263.943+135.932C265.473+135.898+266.697+135.575+267.615+134.963C268.159+134.589+268.431+133.059+268.431+130.373C268.431+129.217+268.346+128.605+268.176+128.537Z" vectornator:shadowOpacity="1"/>
<path stroke="#f5f5f5" vectornator:shadowColor="#000000" vectornator:shadowOffset="4.84582" stroke-width="1.03" fill="#dd0054" stroke-linecap="round" vectornator:shadowAngle="0.79834" stroke-linejoin="round" opacity="0.978383" vectornator:shadowRadius="3.0837" d="M285.26+137.105C285.192+138.227+284.869+138.856+284.291+138.992C284.121+139.026+283.951+139.043+283.781+139.043C282.795+139.043+281.554+138.686+280.058+137.972C278.562+137.258+277.338+136.408+276.386+135.422C275.978+135.048+275.978+134.317+276.386+133.229C276.794+132.175+276.998+131.631+276.998+131.597L276.998+114.257C276.998+113.441+277.508+112.88+278.528+112.574C278.732+112.506+279.021+112.472+279.395+112.472C280.347+112.472+281.435+112.659+282.659+113.033C283.883+113.407+284.648+113.815+284.954+114.257C285.022+114.325+285.056+115.141+285.056+116.705L285.056+135.422C285.056+135.626+285.09+135.906+285.158+136.263C285.226+136.62+285.26+136.901+285.26+137.105ZM285.26+143.735C285.362+144.007+285.362+144.755+285.26+145.979C285.124+147.577+285.056+148.563+285.056+148.937C285.056+150.161+284.988+151.113+284.852+151.793C284.716+152.473+284.291+152.864+283.577+152.966C283.169+153.068+281.996+152.762+280.058+152.048C278.018+151.3+276.794+150.654+276.386+150.11C276.148+149.77+276.233+149.209+276.641+148.427C276.845+148.087+276.964+147.526+276.998+146.744C276.93+146.064+276.93+144.772+276.998+142.868C277.134+141.78+277.644+141.253+278.528+141.287C279.48+141.355+280.806+141.695+282.506+142.307C284.206+142.919+285.124+143.395+285.26+143.735Z" vectornator:shadowOpacity="1"/>
</g>
<g opacity="1">
<path stroke="#000000" vectornator:shadowColor="#000000" vectornator:shadowOffset="2" stroke-width="0.5" fill="#019f74" stroke-linecap="round" vectornator:shadowAngle="0.79834" stroke-linejoin="round" opacity="1" vectornator:shadowRadius="0" d="M160.529+226.124L160.529+229.777C159.488+229.269+158.615+229.015+157.912+229.015C156.949+229.015+156.122+229.253+155.432+229.728C154.742+230.203+154.172+230.936+153.723+231.925C153.274+232.915+152.941+234.168+152.727+235.685C152.512+237.202+152.404+238.996+152.404+241.066C152.404+248.514+154.312+252.238+158.127+252.238C158.791+252.238+159.592+252.029+160.529+251.613L160.529+255.343C159.553+255.89+158.459+256.163+157.248+256.163C151.141+256.163+148.088+251.177+148.088+241.203C148.088+235.812+148.833+231.802+150.324+229.171C151.815+226.541+154.097+225.226+157.17+225.226C158.303+225.226+159.423+225.525+160.529+226.124Z" vectornator:shadowOpacity="1"/>
<path stroke="#000000" vectornator:shadowColor="#000000" vectornator:shadowOffset="2" stroke-width="0.5" fill="#019f74" stroke-linecap="round" vectornator:shadowAngle="0.79834" stroke-linejoin="round" opacity="1" vectornator:shadowRadius="0" d="M179.459+241.456C179.459+246.782+178.866+250.565+177.681+252.804C176.496+255.044+174.511+256.163+171.724+256.163C168.794+256.163+166.731+254.959+165.533+252.55C164.348+250.193+163.755+246.007+163.755+239.992C163.755+234.627+164.341+230.831+165.513+228.605C166.698+226.365+168.703+225.246+171.529+225.246C174.055+225.246+175.93+226.111+177.154+227.843C177.961+229.002+178.547+230.649+178.912+232.785C179.276+234.764+179.459+237.654+179.459+241.456ZM175.201+241.886C175.201+236.665+174.966+233.201+174.498+231.496C174.029+229.777+173.072+228.917+171.626+228.917C170.181+228.917+169.218+229.705+168.736+231.281C168.267+232.869+168.033+236.059+168.033+240.851C168.033+245.265+168.28+248.325+168.775+250.031C169.283+251.645+170.233+252.453+171.626+252.453C172.994+252.453+173.931+251.697+174.439+250.187C174.947+248.69+175.201+245.923+175.201+241.886Z" vectornator:shadowOpacity="1"/>
<path stroke="#000000" vectornator:shadowColor="#000000" vectornator:shadowOffset="2" stroke-width="0.5" fill="#019f74" stroke-linecap="round" vectornator:shadowAngle="0.79834" stroke-linejoin="round" opacity="1" vectornator:shadowRadius="0" d="M184.13+225.636L194.989+225.636L194.989+229.074L188.192+229.074L188.192+238.605L194.325+238.605L194.325+242.042L188.192+242.042L188.192+255.792L184.13+255.792L184.13+225.636Z" vectornator:shadowOpacity="1"/>
<path stroke="#000000" vectornator:shadowColor="#000000" vectornator:shadowOffset="2" stroke-width="0.5" fill="#019f74" stroke-linecap="round" vectornator:shadowAngle="0.79834" stroke-linejoin="round" opacity="1" vectornator:shadowRadius="0" d="M198.762+225.636L209.621+225.636L209.621+229.074L202.825+229.074L202.825+238.605L208.957+238.605L208.957+242.042L202.825+242.042L202.825+255.792L198.762+255.792L198.762+225.636Z" vectornator:shadowOpacity="1"/>
<path stroke="#000000" vectornator:shadowColor="#000000" vectornator:shadowOffset="2" stroke-width="0.5" fill="#019f74" stroke-linecap="round" vectornator:shadowAngle="0.79834" stroke-linejoin="round" opacity="1" vectornator:shadowRadius="0" d="M213.394+225.636L224.195+225.636L224.195+229.074L217.457+229.074L217.457+238.624L223.433+238.624L223.433+242.062L217.457+242.062L217.457+252.355L224.195+252.355L224.195+255.792L213.394+255.792L213.394+225.636Z" vectornator:shadowOpacity="1"/>
<path stroke="#000000" vectornator:shadowColor="#000000" vectornator:shadowOffset="2" stroke-width="0.5" fill="#019f74" stroke-linecap="round" vectornator:shadowAngle="0.79834" stroke-linejoin="round" opacity="1" vectornator:shadowRadius="0" d="M228.573+225.636L239.374+225.636L239.374+229.074L232.636+229.074L232.636+238.624L238.613+238.624L238.613+242.062L232.636+242.062L232.636+252.355L239.374+252.355L239.374+255.792L228.573+255.792L228.573+225.636Z" vectornator:shadowOpacity="1"/>
</g>
<g opacity="1">
<path stroke="#000000" vectornator:shadowColor="#000000" vectornator:shadowOffset="2" stroke-width="0.5" fill="#04a073" stroke-linecap="round" vectornator:shadowAngle="0.79834" stroke-linejoin="round" opacity="1" vectornator:shadowRadius="0" d="M152.923+264.404L156.986+264.404L156.986+276.201L162.943+276.201L162.943+264.404L167.005+264.404L167.005+294.56L162.943+294.56L162.943+279.638L156.986+279.638L156.986+294.56L152.923+294.56L152.923+264.404Z" vectornator:shadowOpacity="1"/>
<path stroke="#000000" vectornator:shadowColor="#000000" vectornator:shadowOffset="2" stroke-width="0.5" fill="#04a073" stroke-linecap="round" vectornator:shadowAngle="0.79834" stroke-linejoin="round" opacity="1" vectornator:shadowRadius="0" d="M186.531+280.224C186.531+285.55+185.938+289.332+184.753+291.572C183.568+293.811+181.583+294.931+178.796+294.931C175.867+294.931+173.803+293.727+172.605+291.318C171.42+288.961+170.827+284.775+170.827+278.759C170.827+273.395+171.413+269.599+172.585+267.373C173.77+265.133+175.775+264.013+178.601+264.013C181.127+264.013+183.002+264.879+184.226+266.611C185.033+267.77+185.619+269.417+185.984+271.552C186.348+273.531+186.531+276.422+186.531+280.224ZM182.273+280.654C182.273+275.432+182.038+271.969+181.57+270.263C181.101+268.544+180.144+267.685+178.699+267.685C177.253+267.685+176.29+268.473+175.808+270.048C175.339+271.637+175.105+274.827+175.105+279.619C175.105+284.033+175.352+287.093+175.847+288.798C176.355+290.413+177.305+291.22+178.699+291.22C180.066+291.22+181.003+290.465+181.511+288.955C182.019+287.457+182.273+284.69+182.273+280.654Z" vectornator:shadowOpacity="1"/>
<path stroke="#000000" vectornator:shadowColor="#000000" vectornator:shadowOffset="2" stroke-width="0.5" fill="#04a073" stroke-linecap="round" vectornator:shadowAngle="0.79834" stroke-linejoin="round" opacity="1" vectornator:shadowRadius="0" d="M190.333+264.404L194.318+264.404L194.318+285.712C194.318+287.887+194.513+289.332+194.904+290.048C195.307+290.764+196.102+291.123+197.286+291.123C198.471+291.123+199.253+290.81+199.63+290.185C200.021+289.547+200.216+288.251+200.216+286.298L200.216+264.404L204.201+264.404L204.201+286.298C204.201+289.58+203.699+291.8+202.697+292.958C201.499+294.274+199.669+294.931+197.208+294.931C194.5+294.931+192.592+294.085+191.486+292.392C190.717+291.233+190.333+289.007+190.333+285.712L190.333+264.404Z" vectornator:shadowOpacity="1"/>
<path stroke="#000000" vectornator:shadowColor="#000000" vectornator:shadowOffset="2" stroke-width="0.5" fill="#04a073" stroke-linecap="round" vectornator:shadowAngle="0.79834" stroke-linejoin="round" opacity="1" vectornator:shadowRadius="0" d="M208.628+264.404L213.98+264.404C216.193+264.404+217.841+264.931+218.921+265.986C220.288+267.353+220.972+269.443+220.972+272.255C220.972+274.417+220.611+276.152+219.888+277.46C219.165+278.769+218.134+279.58+216.792+279.892L222.339+294.56L218.218+294.56L212.691+279.794L212.691+294.56L208.628+294.56L208.628+264.404ZM212.691+277.763C214.266+277.763+215.38+277.399+216.031+276.669C216.682+275.94+217.007+274.71+217.007+272.978C217.007+272.04+216.939+271.24+216.802+270.576C216.665+269.912+216.451+269.371+216.158+268.955C215.865+268.538+215.487+268.232+215.025+268.037C214.563+267.841+214.012+267.744+213.374+267.744L212.691+267.744L212.691+277.763Z" vectornator:shadowOpacity="1"/>
<path stroke="#000000" vectornator:shadowColor="#000000" vectornator:shadowOffset="2" stroke-width="0.5" fill="#04a073" stroke-linecap="round" vectornator:shadowAngle="0.79834" stroke-linejoin="round" opacity="1" vectornator:shadowRadius="0" d="M235.322+265.029L235.322+268.994C234.085+268.108+232.971+267.665+231.982+267.665C230.914+267.665+230.042+268.043+229.365+268.798C228.688+269.514+228.349+270.471+228.349+271.669C228.349+272.724+228.59+273.629+229.072+274.384C229.319+274.788+229.726+275.309+230.292+275.947C230.859+276.585+231.591+277.353+232.49+278.251C234.143+279.931+235.27+281.383+235.869+282.607C236.468+283.792+236.767+285.244+236.767+286.962C236.767+289.293+236.109+291.214+234.794+292.724C233.479+294.195+231.793+294.931+229.736+294.931C228.004+294.931+226.526+294.456+225.302+293.505L225.302+289.482C226.748+290.537+228.063+291.064+229.248+291.064C230.354+291.064+231.22+290.696+231.845+289.96C232.47+289.225+232.783+288.225+232.783+286.962C232.783+285.869+232.542+284.886+232.06+284.013C231.813+283.596+231.468+283.118+231.025+282.578C230.582+282.037+230.029+281.435+229.365+280.771C228.336+279.755+227.483+278.857+226.806+278.076C226.129+277.294+225.628+276.611+225.302+276.025C224.677+274.879+224.365+273.434+224.365+271.689C224.365+269.332+224.977+267.464+226.201+266.083C227.438+264.69+229.098+263.994+231.181+263.994C232.626+263.994+234.007+264.339+235.322+265.029Z" vectornator:shadowOpacity="1"/>
</g>
<g opacity="1">
<path d="M152.478+354.659C152.478+355.245+152.312+355.672+151.98+355.939C151.648+356.206+151.228+356.339+150.72+356.339C150.395+356.339+149.721+356.196+148.699+355.909C147.677+355.623+146.593+355.408+145.447+355.265C146.202+356.254+147.035+357.185+147.947+358.058C148.858+358.93+149.314+359.672+149.314+360.284C149.314+360.714+149.125+361.088+148.748+361.407C148.37+361.726+147.973+361.886+147.556+361.886C147.27+361.886+147.003+361.804+146.755+361.642C146.508+361.479+146.293+361.248+146.111+360.948C145.955+360.662+145.743+360.011+145.476+358.995C145.209+357.98+144.854+356.938+144.412+355.87C143.982+356.886+143.624+357.931+143.337+359.005C143.051+360.079+142.843+360.727+142.712+360.948C142.504+361.274+142.292+361.512+142.078+361.661C141.863+361.811+141.593+361.886+141.267+361.886C140.837+361.886+140.437+361.733+140.066+361.427C139.695+361.121+139.509+360.74+139.509+360.284C139.509+359.672+139.965+358.93+140.876+358.058C141.788+357.185+142.621+356.254+143.376+355.265C142.283+355.395+141.208+355.607+140.154+355.9C139.099+356.193+138.416+356.339+138.103+356.339C137.595+356.339+137.175+356.206+136.843+355.939C136.511+355.672+136.345+355.245+136.345+354.659C136.345+354.125+136.511+353.712+136.843+353.419C137.175+353.126+137.595+352.98+138.103+352.98C138.507+352.98+139.154+353.113+140.046+353.38C140.938+353.647+142.048+353.859+143.376+354.015C142.517+352.921+141.658+351.961+140.798+351.134C139.939+350.307+139.509+349.594+139.509+348.995C139.509+348.566+139.698+348.191+140.076+347.872C140.453+347.553+140.85+347.394+141.267+347.394C141.567+347.394+141.837+347.472+142.078+347.628C142.318+347.784+142.53+348.012+142.712+348.312C142.869+348.598+143.083+349.256+143.357+350.284C143.63+351.313+143.982+352.355+144.412+353.409C144.841+352.342+145.196+351.293+145.476+350.265C145.756+349.236+145.968+348.585+146.111+348.312C146.267+348.038+146.472+347.817+146.726+347.648C146.98+347.478+147.257+347.394+147.556+347.394C147.986+347.394+148.386+347.547+148.757+347.853C149.128+348.159+149.314+348.54+149.314+348.995C149.314+349.594+148.907+350.294+148.093+351.095C147.279+351.896+146.404+352.869+145.466+354.015C146.768+353.846+147.885+353.631+148.816+353.37C149.747+353.11+150.382+352.98+150.72+352.98C151.228+352.98+151.648+353.126+151.98+353.419C152.312+353.712+152.478+354.125+152.478+354.659Z" opacity="1" fill="#2704a0"/>
<path d="M183.919+349.62C183.398+349.685+182.955+349.75+182.59+349.816C182.226+349.881+181.816+349.972+181.36+350.089C180.826+350.232+180.484+350.486+180.335+350.851C180.185+351.215+180.11+351.632+180.11+352.101L180.11+367.374C180.11+368.78+179.827+370.069+179.26+371.241C178.694+372.413+177.916+373.396+176.926+374.191C175.924+374.972+174.804+375.561+173.567+375.958C172.33+376.355+171.008+376.554+169.602+376.554C167.167+376.554+165.204+375.968+163.713+374.796C162.223+373.624+161.477+372.016+161.477+369.972C161.477+368.761+161.819+367.758+162.503+366.964C163.186+366.17+164.127+365.773+165.325+365.773C166.458+365.773+167.359+366.105+168.03+366.769C168.7+367.433+169.036+368.253+169.036+369.23C169.036+370.063+168.746+370.834+168.167+371.544C167.587+372.254+166.926+372.908+166.184+373.507L166.184+373.761C166.301+374.021+166.555+374.243+166.946+374.425C167.337+374.607+167.734+374.698+168.137+374.698C169.7+374.698+170.927+374.138+171.819+373.019C172.711+371.899+173.157+370.206+173.157+367.941L173.157+352.296C173.157+351.827+173.085+351.437+172.942+351.124C172.799+350.812+172.454+350.538+171.907+350.304C171.516+350.135+171.044+349.991+170.491+349.874C169.937+349.757+169.478+349.672+169.114+349.62L169.114+348.097L183.919+348.097L183.919+349.62Z" opacity="1" fill="#2704a0"/>
<path d="M210.85+366.925L210.303+375.812L184.776+375.812L184.776+374.288C185.231+374.249+185.765+374.187+186.377+374.103C186.989+374.018+187.393+373.937+187.588+373.859C188.057+373.676+188.382+373.422+188.565+373.097C188.747+372.771+188.838+372.355+188.838+371.847L188.838+352.296C188.838+351.827+188.766+351.44+188.623+351.134C188.48+350.828+188.135+350.551+187.588+350.304C187.184+350.122+186.699+349.975+186.133+349.864C185.567+349.754+185.114+349.672+184.776+349.62L184.776+348.097L199.99+348.097L199.99+349.62C199.574+349.659+199.082+349.715+198.516+349.786C197.949+349.858+197.458+349.959+197.041+350.089C196.533+350.258+196.195+350.522+196.026+350.88C195.856+351.238+195.772+351.645+195.772+352.101L195.772+370.323C195.772+371.183+195.83+371.86+195.947+372.355C196.065+372.849+196.292+373.214+196.631+373.448C196.97+373.696+197.442+373.855+198.047+373.927C198.652+373.999+199.489+374.034+200.557+374.034C201.598+374.034+202.611+373.972+203.594+373.849C204.577+373.725+205.283+373.455+205.713+373.038C206.377+372.374+207.057+371.44+207.754+370.235C208.451+369.031+209.007+367.928+209.424+366.925L210.85+366.925Z" opacity="1" fill="#2704a0"/>
<path d="M225.203+376.554C223.172+376.554+221.271+376.225+219.5+375.568C217.729+374.91+216.186+373.956+214.871+372.706C213.582+371.482+212.566+369.969+211.824+368.165C211.082+366.362+210.711+364.379+210.711+362.218C210.711+360.069+211.085+358.081+211.834+356.251C212.582+354.422+213.634+352.836+214.988+351.495C216.316+350.18+217.911+349.161+219.773+348.439C221.635+347.716+223.627+347.355+225.75+347.355C227.286+347.355+228.686+347.54+229.949+347.911C231.212+348.282+232.28+348.702+233.152+349.171L234.363+348.097L236.062+348.097L236.238+358.214L234.519+358.214C233.543+355.128+232.371+352.862+231.004+351.417C229.636+349.972+227.97+349.249+226.004+349.249C223.556+349.249+221.694+350.327+220.418+352.482C219.142+354.637+218.504+357.661+218.504+361.554C218.504+363.754+218.722+365.633+219.158+367.189C219.594+368.745+220.164+369.998+220.867+370.948C221.622+371.938+222.514+372.664+223.543+373.126C224.571+373.588+225.711+373.819+226.961+373.819C228.784+373.819+230.408+373.325+231.834+372.335C233.259+371.346+234.558+369.848+235.73+367.843L237.41+368.859C236.85+370.004+236.212+371.03+235.496+371.935C234.78+372.84+233.953+373.618+233.015+374.269C231.987+374.985+230.851+375.545+229.607+375.948C228.364+376.352+226.896+376.554+225.203+376.554Z" opacity="1" fill="#2704a0"/>
<path d="M262.757+354.659C262.757+355.245+262.591+355.672+262.259+355.939C261.927+356.206+261.507+356.339+260.999+356.339C260.673+356.339+260+356.196+258.977+355.909C257.955+355.623+256.871+355.408+255.725+355.265C256.481+356.254+257.314+357.185+258.225+358.058C259.137+358.93+259.593+359.672+259.593+360.284C259.593+360.714+259.404+361.088+259.026+361.407C258.649+361.726+258.251+361.886+257.835+361.886C257.548+361.886+257.281+361.804+257.034+361.642C256.787+361.479+256.572+361.248+256.389+360.948C256.233+360.662+256.022+360.011+255.755+358.995C255.488+357.98+255.133+356.938+254.69+355.87C254.261+356.886+253.903+357.931+253.616+359.005C253.33+360.079+253.121+360.727+252.991+360.948C252.783+361.274+252.571+361.512+252.356+361.661C252.141+361.811+251.871+361.886+251.546+361.886C251.116+361.886+250.716+361.733+250.345+361.427C249.973+361.121+249.788+360.74+249.788+360.284C249.788+359.672+250.244+358.93+251.155+358.058C252.067+357.185+252.9+356.254+253.655+355.265C252.561+355.395+251.487+355.607+250.432+355.9C249.378+356.193+248.694+356.339+248.382+356.339C247.874+356.339+247.454+356.206+247.122+355.939C246.79+355.672+246.624+355.245+246.624+354.659C246.624+354.125+246.79+353.712+247.122+353.419C247.454+353.126+247.874+352.98+248.382+352.98C248.785+352.98+249.433+353.113+250.325+353.38C251.217+353.647+252.327+353.859+253.655+354.015C252.796+352.921+251.936+351.961+251.077+351.134C250.218+350.307+249.788+349.594+249.788+348.995C249.788+348.566+249.977+348.191+250.354+347.872C250.732+347.553+251.129+347.394+251.546+347.394C251.845+347.394+252.115+347.472+252.356+347.628C252.597+347.784+252.809+348.012+252.991+348.312C253.147+348.598+253.362+349.256+253.636+350.284C253.909+351.313+254.261+352.355+254.69+353.409C255.12+352.342+255.475+351.293+255.755+350.265C256.035+349.236+256.246+348.585+256.389+348.312C256.546+348.038+256.751+347.817+257.005+347.648C257.259+347.478+257.535+347.394+257.835+347.394C258.264+347.394+258.665+347.547+259.036+347.853C259.407+348.159+259.593+348.54+259.593+348.995C259.593+349.594+259.186+350.294+258.372+351.095C257.558+351.896+256.682+352.869+255.745+354.015C257.047+353.846+258.164+353.631+259.095+353.37C260.026+353.11+260.66+352.98+260.999+352.98C261.507+352.98+261.927+353.126+262.259+353.419C262.591+353.712+262.757+354.125+262.757+354.659Z" opacity="1" fill="#2704a0"/>
</g>
</g>
</svg>
