<?xml version="1.0" encoding="UTF-8" standalone="no"?>
<!DOCTYPE svg PUBLIC "-//W3C//DTD SVG 1.1//EN" "http://www.w3.org/Graphics/SVG/1.1/DTD/svg11.dtd">
<!-- Created with Vectornator (http://vectornator.io/) -->
<svg height="100%" stroke-miterlimit="10" style="fill-rule:nonzero;clip-rule:evenodd;stroke-linecap:round;stroke-linejoin:round;" version="1.1" viewBox="0 0 90 60" width="100%" xml:space="preserve" xmlns="http://www.w3.org/2000/svg" xmlns:xlink="http://www.w3.org/1999/xlink">
<defs/>
<g id="レイヤー-1">
<g opacity="1">
<path d="M67.6934 8.06318C79.6361 2.00403 88.7687 7.18504 87.0124 14.8248C84.1146 29.9288 76.826 29.6654 68.5715 42.3984C63.5881 40.708 63.6759 15.5493 67.6934 8.06318Z" fill="#874c00" fill-rule="nonzero" opacity="1" stroke="#000000" stroke-linecap="round" stroke-linejoin="round" stroke-opacity="0.0104167" stroke-width="1"/>
<path d="M72.8371 12.3733C77.8575 9.08929 81.6966 11.8973 80.9583 16.038C79.7401 24.2242 76.6762 24.0814 73.2063 30.9826C71.1114 30.0664 71.1483 16.4307 72.8371 12.3733Z" fill="#ffffff" fill-rule="nonzero" opacity="1" stroke="#000000" stroke-linecap="round" stroke-linejoin="round" stroke-opacity="0.0104167" stroke-width="1"/>
<path d="M3.51478 16.5186C2.00868 29.0507 8.85816 58.5561 40.998 58.0292C73.1378 57.5023 75.5966 27.7335 75.3531 15.5744C73.7525 6.13128 55.7507 1.03808 38.188 1.91622C20.6252 2.79436 9.64848 6.65816 3.51478 16.5186Z" fill="#9c5800" fill-rule="nonzero" opacity="1" stroke="#000000" stroke-linecap="round" stroke-linejoin="round" stroke-opacity="0.0104167" stroke-width="1"/>
<path d="M4.0917 17.3115C4.17951 18.8922 3.65263 30.9227 36.7584 30.3958C69.8642 29.8689 75.1608 19.7867 75.4243 16.8888C75.6877 13.991 72.2352 1.066 39.6563 1.85632C7.07737 2.64665 4.00389 15.7309 4.0917 17.3115Z" fill="#f4cf9f" fill-opacity="0.510417" fill-rule="nonzero" opacity="1" stroke="#000000" stroke-linecap="round" stroke-linejoin="round" stroke-opacity="0.0104167" stroke-width="1"/>
<path d="M5.94741 17.6748C6.03053 19.0644 5.53183 29.6404 36.8668 29.1772C68.2017 28.714 73.339 20.1182 73.5884 17.5707C73.8377 15.0232 70.4459 3.39339 39.6096 4.08816C8.77338 4.78293 5.86429 16.2853 5.94741 17.6748Z" fill="#fdedd8" fill-opacity="0.510417" fill-rule="nonzero" opacity="1" stroke="#000000" stroke-linecap="round" stroke-linejoin="round" stroke-opacity="0.0104167" stroke-width="1"/>
<path d="M8.03578 23.1129C10.7078 19.4821 22.0858 14.0591 38.0133 13.6654C53.9407 13.2718 68.6438 18.2794 71.4902 20.8229C68.4478 24.5996 58.1143 28.4288 38.9822 28.9873C19.8501 29.5458 9.83924 25.2261 8.03578 23.1129Z" fill="#ede16a" fill-opacity="0.510417" fill-rule="nonzero" opacity="1" stroke="#000000" stroke-linecap="round" stroke-linejoin="round" stroke-opacity="0.0104167" stroke-width="1"/>
</g>
</g>
</svg>
