<?xml version="1.0" encoding="UTF-8" standalone="no"?> <!-- Created with Vectornator for iOS (http://vectornator.io/) --><!DOCTYPE svg PUBLIC "-//W3C//DTD SVG 1.1//EN" "http://www.w3.org/Graphics/SVG/1.1/DTD/svg11.dtd">
<svg style="fill-rule:evenodd;clip-rule:evenodd;stroke-linecap:round;stroke-linejoin:round;" xmlns:vectornator="http://vectornator.io" xmlns:xlink="http://www.w3.org/1999/xlink" xmlns="http://www.w3.org/2000/svg" xml:space="preserve" version="1.1" viewBox="0 0 66.0555 66.0555">
<metadata>
<vectornator:setting key="DimensionsVisible" value="1"/>
<vectornator:setting key="New" value="1"/>
<vectornator:setting key="SnapToPoints" value="0"/>
<vectornator:setting key="GuidesVisible" value="1"/>
<vectornator:setting key="RulersVisible" value="1"/>
<vectornator:setting key="CMYKEnabledKey" value="0"/>
<vectornator:setting key="SnapToEdges" value="0"/>
<vectornator:setting key="DisplayWhiteBackground" value="0"/>
<vectornator:setting key="SnapToGuides" value="1"/>
<vectornator:setting key="GridSpacing" value="36"/>
<vectornator:setting key="Units" value="Millimeters"/>
<vectornator:setting key="SnapToGrid" value="0"/>
<vectornator:setting key="DynamicGuides" value="0"/>
</metadata>
<defs/>
<g id="レイヤー 2" vectornator:layerName="レイヤー 2">
<path stroke="#f9f9f9" stroke-opacity="0.994792" stroke-width="3" d="M32.9529+8.95663L32.9529+8.95663C46.1796+8.95663+56.902+19.679+56.902+32.9057L56.902+32.9057C56.902+46.1325+46.1796+56.8548+32.9529+56.8548L32.9529+56.8548C19.7261+56.8548+9.00375+46.1325+9.00375+32.9057L9.00375+32.9057C9.00375+19.679+19.7261+8.95663+32.9529+8.95663Z" fill="#fff8bc" stroke-linecap="butt" opacity="1" stroke-linejoin="round"/>
<path stroke="#050bba" stroke-opacity="0.994792" stroke-width="1.55" d="M32.9027+8.99677L32.9027+8.99677C46.1294+8.99677+56.8518+19.7191+56.8518+32.9459L56.8518+32.9459C56.8518+46.1726+46.1294+56.895+32.9027+56.895L32.9027+56.895C19.676+56.895+8.95358+46.1726+8.95358+32.9459L8.95358+32.9459C8.95358+19.7191+19.676+8.99677+32.9027+8.99677Z" fill="#fff8bc" stroke-linecap="butt" fill-opacity="0" opacity="1" stroke-linejoin="round"/>
</g>
<g id="レイヤー 1" vectornator:layerName="レイヤー 1">
<g opacity="1">
<path stroke="#000000" vectornator:shadowColor="#000000" vectornator:shadowOffset="0" stroke-width="0.2" fill="#23048c" stroke-linecap="butt" vectornator:shadowAngle="0.567459" stroke-linejoin="round" opacity="1" vectornator:shadowRadius="0" d="M27.4822+39.5913C27.9709+39.9128+28.3651+40.3405+28.6649+40.8742C28.9647+41.408+29.1135+42.061+29.1113+42.8331C29.1093+43.511+28.973+44.101+28.7023+44.603C28.4316+45.105+28.0735+45.5155+27.6282+45.8343C27.1753+46.1532+26.6615+46.3899+26.0867+46.5446C25.5119+46.6992+24.91+46.7757+24.281+46.7739L20.2417+46.7623L20.243+46.3217C20.3635+46.3183+20.5142+46.3074+20.695+46.2891C20.8758+46.2708+20.9964+46.2485+21.0568+46.2223C21.1925+46.1662+21.2869+46.0902+21.3399+45.9943C21.3929+45.8984+21.4196+45.7827+21.42+45.6471L21.4362+39.9638C21.4366+39.8357+21.4124+39.7199+21.3638+39.6161C21.3151+39.5124+21.2193+39.4284+21.0764+39.3639C20.9334+39.2995+20.782+39.2557+20.622+39.2327C20.462+39.2096+20.3387+39.1942+20.2521+39.1864L20.2533+38.7458L24.5186+38.758C24.9743+38.7593+25.4619+38.819+25.9813+38.9373C26.5007+39.0555+27.001+39.2735+27.4822+39.5913ZM26.3133+45.3334C26.4987+45.0326+26.6344+44.6743+26.7203+44.2584C26.8062+43.8424+26.85+43.3633+26.8515+42.821C26.8531+42.2899+26.7979+41.8058+26.6862+41.3686C26.5745+40.9314+26.4098+40.558+26.1922+40.2486C25.9747+39.9391+25.7033+39.6992+25.378+39.5288C25.0527+39.3583+24.6829+39.2725+24.2686+39.2714C24.1368+39.271+23.987+39.2734+23.8194+39.2786C23.6518+39.2837+23.5266+39.2881+23.4437+39.2916L23.4263+45.376C23.4259+45.5116+23.4435+45.6312+23.479+45.7349C23.5144+45.8386+23.5754+45.9301+23.6618+46.0094C23.7482+46.0888+23.8544+46.1503+23.9804+46.1939C24.1065+46.2376+24.2712+46.2597+24.4746+46.2603C24.9002+46.2615+25.2657+46.1835+25.5712+46.0262C25.8768+45.8689+26.1241+45.6379+26.3133+45.3334Z" stroke-opacity="0" vectornator:shadowOpacity="0"/>
<path stroke="#000000" vectornator:shadowColor="#000000" vectornator:shadowOffset="0" stroke-width="0.2" fill="#23048c" stroke-linecap="butt" vectornator:shadowAngle="0.567459" stroke-linejoin="round" opacity="1" vectornator:shadowRadius="0" d="M36.6251+46.7527L35.4105+46.7492L35.4044+48.8903L33.5119+48.8849L33.518+46.7438L29.7781+46.7331L29.781+45.6936L33.852+40.5699L35.4282+40.5744L35.4139+45.5572L36.6286+45.5606L36.6251+46.7527ZM33.5214+45.5518L33.5318+41.9192L30.6458+45.5435L33.5214+45.5518Z" stroke-opacity="0" vectornator:shadowOpacity="0"/>
<path stroke="#000000" vectornator:shadowColor="#000000" vectornator:shadowOffset="0" stroke-width="0.2" fill="#23048c" stroke-linecap="butt" vectornator:shadowAngle="0.567459" stroke-linejoin="round" opacity="1" vectornator:shadowRadius="0" d="M44.5286+40.8603L44.0993+40.859C43.9909+40.5537+43.8035+40.2443+43.537+39.9309C43.2705+39.6176+43.0055+39.4323+42.742+39.375C42.6291+39.3483+42.4719+39.3319+42.2704+39.3256C42.0689+39.3194+41.9023+39.3161+41.7705+39.3157L40.6067+39.3124L40.5978+42.4083L41.4226+42.4106C41.6298+42.4112+41.8182+42.3873+41.9878+42.3388C42.1574+42.2903+42.3121+42.1966+42.4519+42.0577C42.5387+41.9713+42.6267+41.819+42.7159+41.6008C42.805+41.3826+42.863+41.1926+42.8898+41.0307L43.3192+41.0319L43.3096+44.3764L42.8802+44.3752C42.8581+44.2169+42.8012+44.0181+42.7096+43.7787C42.618+43.5392+42.531+43.3742+42.4484+43.2836C42.3245+43.1476+42.1778+43.054+42.0085+43.0027C41.8392+42.9514+41.6434+42.9254+41.4212+42.9247L40.5964+42.9224L40.5898+45.233C40.5891+45.474+40.6064+45.6652+40.6418+45.8066C40.6772+45.9479+40.7437+46.0564+40.8414+46.132C40.9354+46.2038+41.0642+46.2512+41.228+46.2743C41.3918+46.2974+41.6149+46.3093+41.8974+46.3101C42.0292+46.3105+42.1874+46.3091+42.3719+46.3058C42.5565+46.3026+42.7185+46.2918+42.8579+46.2733C43.0161+46.2549+43.164+46.2271+43.3016+46.1898C43.4392+46.1526+43.542+46.0983+43.6099+46.0269C43.7913+45.8429+43.9954+45.5619+44.2225+45.184C44.4496+44.8062+44.5991+44.5232+44.6712+44.3351L45.0836+44.3363L44.924+46.8329L37.4046+46.8114L37.4059+46.3707C37.5113+46.3635+37.6545+46.3488+37.8354+46.3268C38.0162+46.3047+38.1443+46.2787+38.2197+46.2488C38.363+46.1889+38.4593+46.1129+38.5085+46.0208C38.5577+45.9287+38.5826+45.811+38.583+45.6679L38.5991+40.0129C38.5995+39.8773+38.5791+39.7652+38.5379+39.6765C38.4968+39.5879+38.3972+39.5076+38.2392+39.4356C38.1414+39.3901+38.0041+39.3483+37.8272+39.3101C37.6502+39.2719+37.5166+39.2471+37.4263+39.2355L37.4275+38.7949L44.5345+38.8152L44.5286+40.8603Z" stroke-opacity="0" vectornator:shadowOpacity="0"/>
</g>
</g>
<g id="kaite" vectornator:layerName="kaite">
<g opacity="1">
<path stroke="#000000" stroke-opacity="0.994792" stroke-width="0.3" d="M19.3182+28.3586C16.536+26.4626+16.2502+23.7355+16.4778+22.4064C16.7055+21.0774+17.3913+19.1292+19.878+17.6554C22.3647+16.1816+24.6882+16.9259+26.0675+17.4856C27.4468+18.0454+28.7979+19.1913+29.3676+21.1711C29.9374+23.1509+29.0174+25.4716+27.752+27.1077C26.4866+28.7437+22.1004+30.2547+19.3182+28.3586Z" fill="#ffffff" stroke-linecap="butt" opacity="1" stroke-linejoin="round"/>
<path stroke="#000000" stroke-opacity="0.994792" stroke-width="0.3" d="M10.0329+38.3022L12.8687+38.229" fill="#ffffff" stroke-linecap="butt" fill-opacity="0.00260417" opacity="1" stroke-linejoin="round"/>
<path stroke="#000000" stroke-opacity="0.994792" stroke-width="0.3" d="M30.8342+38.1492C30.8342+38.1492+27.4941+29.4993+25.5484+29.1486C23.6027+28.7979+24.0985+35.6826+23.6699+37.9138" fill="#ffffff" stroke-linecap="butt" opacity="1" stroke-linejoin="round"/>
<path stroke="#000000" stroke-opacity="0.994792" stroke-width="0.3" d="M16.9936+38.0311L41.1561+38.173" fill="#ffffff" stroke-linecap="butt" fill-opacity="0.00260417" opacity="1" stroke-linejoin="round"/>
<path stroke="#000000" stroke-opacity="0.994792" stroke-width="0.3" d="M18.0906+37.219C18.0906+37.219+20.3071+36.0525+21.5472+34.5658C22.7873+33.0792+24.3272+30.5655+24.3272+30.5655" fill="#444250" stroke-linecap="butt" fill-opacity="0.00260417" opacity="1" stroke-linejoin="round"/>
<path stroke="#000000" stroke-opacity="0.994792" stroke-width="0.3" d="M32.0813+38.1161C32.0813+38.1161+32.1705+37.0924+31.9251+34.9514C31.6796+32.8103+30.8067+32.5061+29.8856+31.8016C28.9645+31.0971+25.9869+29.3402+25.9869+29.3402" fill="#ffffff" stroke-linecap="butt" fill-opacity="0.00260417" opacity="1" stroke-linejoin="round"/>
<path stroke="#000000" stroke-opacity="0.994792" stroke-width="0.3" d="M29.9017+39.7153C29.8081+39.044+31.0755+38.1759+32.043+38.1605C32.6973+38.1501+32.8928+39.2401+32.7826+40.1555C32.6573+41.1969+32.0024+42.5799+30.862+42.6387C29.7215+42.6975+29.3721+41.3976+29.7921+40.9337C31.2232+39.3533+30.2528+40.3457+29.9017+39.7153Z" fill="#ffffff" stroke-linecap="butt" opacity="1" stroke-linejoin="round"/>
<path stroke="#000000" stroke-opacity="0.994792" stroke-width="0.1" d="M21.8894+25.2517C21.7552+25.302+21.7603+25.3792+21.853+25.626C21.9456+25.8727+22.0426+26.0561+22.1765+25.9656C22.3104+25.8752+22.2116+25.6393+22.1318+25.4713C22.052+25.3033+22.0235+25.2015+21.8894+25.2517Z" fill="#000002" stroke-linecap="butt" opacity="1" stroke-linejoin="round"/>
<path stroke="#000000" stroke-opacity="0.994792" stroke-width="0.1" d="M24.5803+24.173C24.4553+24.1969+24.4879+24.3996+24.5402+24.6194C24.5925+24.8393+24.6629+24.9374+24.8003+24.9119C24.9377+24.8863+24.8783+24.711+24.8215+24.5274C24.7648+24.3438+24.7054+24.149+24.5803+24.173Z" fill="#000002" stroke-linecap="butt" opacity="1" stroke-linejoin="round"/>
<path stroke="#000000" stroke-opacity="0.994792" stroke-width="0.1" d="M25.071+26.7602C24.9475+26.6871+24.8161+26.8441+24.2146+27.1233C23.6131+27.4025+23.3222+27.3338+23.309+27.4815C23.2958+27.6293+23.5359+27.599+24.2175+27.3434C24.8992+27.0878+25.1783+26.8239+25.071+26.7602Z" fill="#000002" stroke-linecap="butt" opacity="1" stroke-linejoin="round"/>
<path stroke="#000000" stroke-opacity="0.994792" stroke-width="0.3" d="M17.3748+41.8655L12.2245+36.0048L13.3005+35.018L18.628+40.8728L19.3842+42.7802L17.3748+41.8655Z" fill="#ffffff" stroke-linecap="butt" opacity="1" stroke-linejoin="round"/>
<path stroke="#000000" stroke-opacity="0.994792" stroke-width="0.3" d="M17.2553+41.8081L17.9632+41.6313L17.7408+40.9779L18.4539+41.2412L18.4595+40.5105" fill="#ffffff" stroke-linecap="butt" fill-opacity="0.00260417" opacity="1" stroke-linejoin="round"/>
<path stroke="#000000" stroke-opacity="0.994792" stroke-width="0.3" d="M18.4775+42.373L19.0525+41.9266L19.3846+42.7434L18.4775+42.373Z" fill="#000000" stroke-linecap="butt" opacity="1" stroke-linejoin="round"/>
<path stroke="#000000" stroke-opacity="0.994792" stroke-width="0.3" d="M15.5894+37.1696C15.7+36.8209+16.8024+36.5938+16.8024+36.5938C16.8024+36.5938+17.4666+36.5778+17.7913+37.063C18.116+37.5482+17.9325+37.8084+18.1013+38.5346C18.2701+39.2609+18.5408+39.5336+18.4665+39.968C18.3922+40.4025+17.9499+40.3176+17.804+40.2724C17.6581+40.2272+17.1845+39.4418+17.0063+39.0979C16.828+38.754+16.5593+38.5633+16.2679+38.126C15.9766+37.6888+15.4789+37.5184+15.5894+37.1696Z" fill="#ffffff" stroke-linecap="butt" opacity="1" stroke-linejoin="round"/>
<path stroke="#000000" stroke-opacity="0.994792" stroke-width="0.3" d="M13.9053+39.6939C13.5802+39.7961+13.6108+40.0173+13.5807+40.4574C13.5506+40.8974+13.9238+41.2598+14.0325+41.3634C14.1413+41.4669+14.8427+41.4373+15.3671+41.4054C15.8915+41.3735+15.8914+41.3983+16.1302+41.2357C16.369+41.0731+16.3575+41.0088+16.3222+40.755C16.287+40.5012+16.1552+40.3525+15.9892+40.2205C15.8232+40.0886+14.8811+40.0489+14.8811+40.0489C14.8811+40.0489+14.2304+39.5918+13.9053+39.6939Z" fill="#ffffff" stroke-linecap="butt" opacity="1" stroke-linejoin="round"/>
<path stroke="#000000" stroke-opacity="0.994792" stroke-width="0.3" d="M13.2559+37.7633C12.872+37.8845+12.9144+38.1672+12.8904+38.7267C12.8665+39.2863+13.3202+39.7578+13.4523+39.8927C13.5844+40.0275+14.4178+40.0087+15.0407+39.9822C15.6636+39.9557+15.6642+39.9874+15.9438+39.7868C16.2234+39.5861+16.208+39.5039+16.1592+39.1797C16.1104+38.8556+15.9497+38.6626+15.7486+38.4901C15.5476+38.3176+14.426+38.2416+14.426+38.2416C14.426+38.2416+13.6397+37.642+13.2559+37.7633Z" fill="#ffffff" stroke-linecap="butt" opacity="1" stroke-linejoin="round"/>
</g>
</g>
<g id="レイヤー 3" vectornator:layerName="レイヤー 3">
<g opacity="1">
<path d="M33.4239+17.9272L33.2646+18.6153L33.1341+18.6153C33.1296+18.5769+33.1208+18.5289+33.1078+18.4712C33.0948+18.4136+33.077+18.3566+33.0545+18.3001C33.0307+18.2413+33.005+18.1927+32.9773+18.1543C32.9497+18.1159+32.9166+18.0933+32.8782+18.0865C32.8443+18.082+32.8011+18.078+32.7485+18.0747C32.696+18.0713+32.6505+18.0696+32.6121+18.0696L32.5274+18.0696L32.0952+19.939C32.0907+19.9582+32.087+19.9765+32.0842+19.994C32.0813+20.0116+32.0799+20.0243+32.0799+20.0322C32.0799+20.0593+32.0853+20.0833+32.096+20.1042C32.1068+20.1251+32.1268+20.1418+32.1562+20.1542C32.1833+20.1655+32.2229+20.1765+32.2748+20.1873C32.3268+20.198+32.3697+20.2051+32.4036+20.2084L32.3748+20.3322L31.0342+20.3322L31.063+20.2084C31.0947+20.2062+31.141+20.2017+31.202+20.1949C31.263+20.1881+31.3065+20.1802+31.3325+20.1712C31.3777+20.1531+31.4116+20.1288+31.4342+20.0983C31.4568+20.0678+31.4726+20.0316+31.4817+19.9898L31.9257+18.0696L31.8596+18.0696C31.8167+18.0696+31.7734+18.071+31.7299+18.0738C31.6864+18.0766+31.637+18.0809+31.5816+18.0865C31.541+18.0922+31.4955+18.1165+31.4452+18.1594C31.3949+18.2023+31.3461+18.2492+31.2986+18.3001C31.2421+18.3633+31.1955+18.4207+31.1588+18.4721C31.1221+18.5235+31.0907+18.5712+31.0647+18.6153L30.9342+18.6153L31.0935+17.9272L33.4239+17.9272Z" opacity="1" fill="#23048c"/>
<path d="M35.195+19.317C35.195+19.4593+35.1679+19.5955+35.1137+19.7254C35.0594+19.8554+34.9826+19.9683+34.8832+20.0644C34.7758+20.1672+34.6501+20.2466+34.5061+20.3025C34.362+20.3584+34.2002+20.3864+34.0205+20.3864C33.7798+20.3864+33.5855+20.3223+33.4375+20.194C33.2895+20.0658+33.2155+19.8909+33.2155+19.6695C33.2155+19.5192+33.2434+19.3797+33.2994+19.2509C33.3553+19.1221+33.4335+19.0096+33.5341+18.9136C33.6335+18.8198+33.7555+18.7455+33.9002+18.6907C34.0448+18.6359+34.2013+18.6085+34.3696+18.6085C34.625+18.6085+34.8264+18.671+34.9738+18.7958C35.1213+18.9207+35.195+19.0944+35.195+19.317ZM34.5984+19.1254C34.5984+18.9933+34.5761+18.8961+34.5315+18.8339C34.4869+18.7718+34.4222+18.7407+34.3374+18.7407C34.2504+18.7407+34.1708+18.7755+34.0985+18.845C34.0262+18.9144+33.9674+19.0164+33.9222+19.1509C33.8827+19.2627+33.8544+19.3839+33.8375+19.5144C33.8205+19.6449+33.812+19.7616+33.812+19.8644C33.812+20.0011+33.8346+20.1003+33.8798+20.1618C33.925+20.2234+33.9906+20.2542+34.0764+20.2542C34.1691+20.2542+34.2493+20.2164+34.3171+20.1407C34.3849+20.0649+34.4386+19.9717+34.4781+19.861C34.5177+19.7525+34.5476+19.6325+34.5679+19.5009C34.5883+19.3692+34.5984+19.2441+34.5984+19.1254Z" opacity="1" fill="#23048c"/>
<path d="M37.5068+18.878C37.5068+18.9582+37.4777+19.0294+37.4195+19.0916C37.3613+19.1537+37.2893+19.1848+37.2034+19.1848C37.1322+19.1848+37.0661+19.1687+37.0051+19.1365C36.9441+19.1043+36.8904+19.0706+36.8441+19.0356C36.8215+19.0503+36.7995+19.0647+36.778+19.0788C36.7565+19.093+36.7119+19.1294+36.6441+19.1882C36.6961+19.3192+36.7531+19.4633+36.8153+19.6203C36.8774+19.7774+36.9243+19.8859+36.9559+19.9457C36.9932+20.0169+37.0285+20.0672+37.0619+20.0966C37.0952+20.126+37.1537+20.1407+37.2373+20.1407C37.2667+20.1407+37.3034+20.135+37.3475+20.1237C37.3915+20.1124+37.4277+20.1011+37.4559+20.0898L37.4186+20.2423C37.3068+20.2898+37.209+20.3243+37.1254+20.3457C37.0418+20.3672+36.9672+20.3779+36.9017+20.3779C36.8701+20.3779+36.8302+20.3757+36.7822+20.3711C36.7342+20.3666+36.6927+20.3565+36.6577+20.3406C36.6136+20.3203+36.5732+20.2921+36.5365+20.2559C36.4998+20.2197+36.4639+20.1621+36.4289+20.083C36.3791+19.9712+36.3438+19.8856+36.3229+19.8263C36.302+19.7669+36.2729+19.6864+36.2356+19.5847L36.1238+19.6898L35.978+20.3322L35.417+20.3322L35.9153+18.1746C35.9198+18.1554+35.9232+18.1374+35.9255+18.1204C35.9278+18.1035+35.9289+18.0893+35.9289+18.078C35.9289+18.0374+35.9221+18.0052+35.9085+17.9814C35.895+17.9577+35.8746+17.9385+35.8475+17.9238C35.8204+17.9091+35.7893+17.899+35.7543+17.8933C35.7193+17.8877+35.6786+17.8826+35.6323+17.8781L35.6628+17.7526L36.556+17.7086L36.5746+17.7357L36.1679+19.4983L36.1814+19.4983C36.317+19.3458+36.4241+19.2291+36.5026+19.1483C36.5811+19.0675+36.6661+18.9825+36.7577+18.8933C36.8684+18.7859+36.9568+18.7122+37.0229+18.6721C37.089+18.632+37.1622+18.6119+37.2424+18.6119C37.3237+18.6119+37.3881+18.6345+37.4356+18.6797C37.483+18.7249+37.5068+18.791+37.5068+18.878Z" opacity="1" fill="#23048c"/>
<path d="M38.8948+20.061L38.883+20.061C38.7553+20.1774+38.6378+20.2582+38.5304+20.3034C38.4231+20.3486+38.3045+20.3711+38.1745+20.3711C38.0491+20.3711+37.9517+20.3361+37.8822+20.2661C37.8127+20.196+37.7779+20.1118+37.7779+20.0135C37.7779+19.9785+37.7799+19.9429+37.7839+19.9068C37.7878+19.8706+37.7983+19.8198+37.8152+19.7542L37.9423+19.2915C37.9502+19.2599+37.9596+19.2167+37.9703+19.1619C37.981+19.1071+37.9864+19.0667+37.9864+19.0407C37.9864+18.9763+37.9737+18.932+37.9483+18.9077C37.9228+18.8834+37.8734+18.8712+37.8+18.8712C37.7638+18.8712+37.7268+18.8769+37.689+18.8882C37.6511+18.8995+37.6186+18.9102+37.5915+18.9204L37.6288+18.7678C37.7203+18.7306+37.8079+18.6986+37.8915+18.6721C37.9751+18.6455+38.0542+18.6323+38.1288+18.6323C38.2632+18.6323+38.3669+18.6659+38.4398+18.7331C38.5126+18.8003+38.5491+18.8837+38.5491+18.9831C38.5491+19.0034+38.5468+19.0407+38.5423+19.0949C38.5378+19.1492+38.5288+19.1995+38.5152+19.2458L38.3915+19.6864C38.3802+19.726+38.3711+19.7684+38.3644+19.8135C38.3576+19.8587+38.3542+19.8915+38.3542+19.9118C38.3542+19.9683+38.368+20.0113+38.3957+20.0407C38.4234+20.07+38.4672+20.0847+38.5271+20.0847C38.5768+20.0847+38.6398+20.0658+38.716+20.0279C38.7923+19.9901+38.8626+19.9395+38.927+19.8763L39.1846+18.6611L39.7219+18.6373L39.7456+18.6645L39.449+20.0424C39.4038+20.248+39.3406+20.4178+39.2592+20.5516C39.1779+20.6855+39.0835+20.792+38.9762+20.8711C38.8734+20.9468+38.7621+21.0013+38.6423+21.0347C38.5225+21.068+38.4011+21.0847+38.2779+21.0847C38.1435+21.0847+38.0319+21.0748+37.9432+21.055C37.8545+21.0352+37.7853+21.0078+37.7356+20.9728C37.6904+20.9412+37.6596+20.9059+37.6432+20.8669C37.6268+20.8279+37.6186+20.7898+37.6186+20.7525C37.6186+20.687+37.6418+20.6288+37.6881+20.5779C37.7344+20.5271+37.7977+20.5017+37.8779+20.5017C37.939+20.5017+37.9935+20.518+38.0415+20.5508C38.0895+20.5836+38.1316+20.6231+38.1678+20.6694C38.2028+20.7135+38.2341+20.7624+38.2618+20.816C38.2895+20.8697+38.3107+20.9135+38.3254+20.9474C38.3457+20.944+38.3708+20.9369+38.4008+20.9262C38.4307+20.9155+38.4559+20.9033+38.4762+20.8898C38.5056+20.8706+38.5316+20.8514+38.5542+20.8321C38.5768+20.8129+38.6028+20.7836+38.6321+20.744C38.6886+20.6683+38.7389+20.5745+38.783+20.4627C38.827+20.3508+38.8643+20.2169+38.8948+20.061Z" opacity="1" fill="#23048c"/>
<path d="M41.9506+19.317C41.9506+19.4593+41.9235+19.5955+41.8693+19.7254C41.815+19.8554+41.7382+19.9683+41.6388+20.0644C41.5314+20.1672+41.4057+20.2466+41.2617+20.3025C41.1176+20.3584+40.9557+20.3864+40.7761+20.3864C40.5354+20.3864+40.3411+20.3223+40.1931+20.194C40.0451+20.0658+39.9711+19.8909+39.9711+19.6695C39.9711+19.5192+39.999+19.3797+40.0549+19.2509C40.1109+19.1221+40.1891+19.0096+40.2897+18.9136C40.3891+18.8198+40.5111+18.7455+40.6558+18.6907C40.8004+18.6359+40.9569+18.6085+41.1252+18.6085C41.3806+18.6085+41.582+18.671+41.7294+18.7958C41.8769+18.9207+41.9506+19.0944+41.9506+19.317ZM41.354+19.1254C41.354+18.9933+41.3317+18.8961+41.2871+18.8339C41.2425+18.7718+41.1778+18.7407+41.093+18.7407C41.006+18.7407+40.9264+18.7755+40.8541+18.845C40.7817+18.9144+40.723+19.0164+40.6778+19.1509C40.6382+19.2627+40.61+19.3839+40.5931+19.5144C40.5761+19.6449+40.5676+19.7616+40.5676+19.8644C40.5676+20.0011+40.5902+20.1003+40.6354+20.1618C40.6806+20.2234+40.7462+20.2542+40.832+20.2542C40.9247+20.2542+41.0049+20.2164+41.0727+20.1407C41.1405+20.0649+41.1942+19.9717+41.2337+19.861C41.2732+19.7525+41.3032+19.6325+41.3235+19.5009C41.3439+19.3692+41.354+19.2441+41.354+19.1254Z" opacity="1" fill="#23048c"/>
<path d="M30.6241+24.276L30.6529+24.1523C30.6856+24.1512+30.7303+24.1475+30.7868+24.1413C30.8433+24.1351+30.8868+24.1269+30.9173+24.1167C30.9613+24.102+30.995+24.0797+31.0181+24.0498C31.0413+24.0198+31.0574+23.9851+31.0664+23.9455L31.4545+22.2643C31.4602+22.2405+31.4641+22.2208+31.4664+22.205C31.4687+22.1891+31.4698+22.1773+31.4698+22.1694C31.4698+22.1219+31.4435+22.0849+31.391+22.0584C31.3384+22.0318+31.2579+22.0106+31.1495+21.9948L31.1783+21.8711L32.5121+21.8711L32.4833+21.9948C32.4471+21.9971+32.4008+22.0024+32.3443+22.0109C32.2878+22.0194+32.2455+22.0281+32.2172+22.0372C32.1709+22.0519+32.1367+22.0747+32.1147+22.1058C32.0926+22.1369+32.0771+22.1716+32.0681+22.21L31.6799+23.893C31.6754+23.9122+31.6718+23.9303+31.6689+23.9472C31.6661+23.9642+31.6647+23.9772+31.6647+23.9862C31.6647+24.0427+31.691+24.082+31.7435+24.104C31.796+24.126+31.8771+24.1421+31.9867+24.1523L31.9579+24.276L30.6241+24.276Z" opacity="1" fill="#23048c"/>
<path d="M34.6374+24.0167L34.6001+24.1693C34.4883+24.2133+34.399+24.2469+34.3324+24.2701C34.2657+24.2933+34.1883+24.3048+34.1002+24.3048C33.9657+24.3048+33.8612+24.2712+33.7866+24.204C33.712+24.1368+33.6748+24.0534+33.6748+23.954C33.6748+23.9269+33.6762+23.8922+33.679+23.8498C33.6818+23.8074+33.6911+23.7546+33.707+23.6913L33.829+23.2405C33.8414+23.1919+33.8507+23.1481+33.857+23.1091C33.8632+23.0702+33.8663+23.0382+33.8663+23.0134C33.8663+22.9592+33.8533+22.9168+33.8273+22.8863C33.8013+22.8558+33.7572+22.8405+33.6951+22.8405C33.6567+22.8405+33.6019+22.8555+33.5307+22.8854C33.4595+22.9154+33.3799+22.971+33.2917+23.0524L33.0121+24.276L32.4511+24.276L32.6918+23.2337C32.6985+23.2021+32.7073+23.1608+32.718+23.11C32.7288+23.0591+32.7341+23.0168+32.7341+22.9829C32.7341+22.9185+32.7209+22.8741+32.6943+22.8498C32.6677+22.8255+32.6194+22.8134+32.5494+22.8134C32.5132+22.8134+32.4762+22.819+32.4384+22.8303C32.4005+22.8416+32.368+22.8524+32.3409+22.8625L32.3782+22.71C32.4697+22.6727+32.5573+22.6408+32.6409+22.6143C32.7245+22.5877+32.8036+22.5744+32.8782+22.5744C33.0115+22.5744+33.1112+22.6007+33.1773+22.6532C33.2434+22.7058+33.2872+22.7795+33.3087+22.8744L33.3205+22.8744C33.4313+22.7739+33.5457+22.6956+33.6637+22.6397C33.7818+22.5837+33.9075+22.5558+34.0408+22.5558C34.1663+22.5558+34.2643+22.5902+34.3349+22.6592C34.4055+22.7281+34.4408+22.8117+34.4408+22.91C34.4408+22.936+34.4388+22.9724+34.4349+23.0193C34.4309+23.0662+34.4216+23.1162+34.4069+23.1693L34.2781+23.6456C34.2668+23.6851+34.2567+23.7303+34.2476+23.7811C34.2386+23.832+34.2341+23.8704+34.2341+23.8964C34.2341+23.9619+34.2485+24.0066+34.2773+24.0303C34.3061+24.054+34.3566+24.0659+34.429+24.0659C34.4629+24.0659+34.5013+24.0599+34.5442+24.0481C34.5871+24.0362+34.6182+24.0258+34.6374+24.0167Z" opacity="1" fill="#23048c"/>
<path d="M35.4238+24.332C35.2815+24.332+35.1637+24.3204+35.0705+24.2972C34.9772+24.2741+34.9035+24.2444+34.8493+24.2082C34.7939+24.1721+34.7561+24.1334+34.7357+24.0921C34.7154+24.0509+34.7052+24.0122+34.7052+23.9761C34.7052+23.9105+34.7298+23.8532+34.7789+23.804C34.8281+23.7549+34.8933+23.7303+34.9747+23.7303C35.0425+23.7303+35.0993+23.7478+35.145+23.7828C35.1908+23.8179+35.2289+23.8619+35.2594+23.915C35.2877+23.9636+35.3114+24.0173+35.3306+24.076C35.3498+24.1348+35.3634+24.1783+35.3713+24.2065C35.499+24.2065+35.5956+24.1791+35.6611+24.1243C35.7266+24.0695+35.7594+23.9947+35.7594+23.8998C35.7594+23.858+35.7495+23.823+35.7297+23.7947C35.71+23.7665+35.6837+23.7416+35.6509+23.7201C35.6182+23.6998+35.5764+23.68+35.5255+23.6608C35.4747+23.6416+35.4244+23.6235+35.3747+23.6066C35.238+23.5603+35.1298+23.4961+35.0501+23.4142C34.9705+23.3323+34.9306+23.2303+34.9306+23.1083C34.9306+23.036+34.9473+22.9679+34.9806+22.9041C35.014+22.8402+35.0662+22.7812+35.1374+22.727C35.2075+22.675+35.2961+22.6335+35.4035+22.6024C35.5108+22.5713+35.6362+22.5558+35.7797+22.5558C35.8656+22.5558+35.9453+22.5609+36.0187+22.571C36.0922+22.5812+36.1605+22.5998+36.2238+22.627C36.2837+22.6541+36.3303+22.6894+36.3636+22.7329C36.3969+22.7764+36.4136+22.8292+36.4136+22.8914C36.4136+22.9535+36.3902+23.0069+36.3433+23.0515C36.2964+23.0962+36.2351+23.1185+36.1594+23.1185C36.0938+23.1185+36.0393+23.1015+35.9958+23.0676C35.9523+23.0337+35.917+22.9936+35.8899+22.9473C35.8628+22.8998+35.8413+22.851+35.8255+22.8007C35.8097+22.7504+35.7967+22.7083+35.7865+22.6744C35.7074+22.6789+35.6354+22.7075+35.5704+22.76C35.5055+22.8125+35.473+22.8778+35.473+22.9558C35.473+23.0032+35.4806+23.0405+35.4959+23.0676C35.5111+23.0947+35.5317+23.1173+35.5577+23.1354C35.5871+23.1558+35.6241+23.1747+35.6687+23.1922C35.7134+23.2097+35.769+23.2298+35.8357+23.2524C35.9893+23.3066+36.1051+23.3716+36.1831+23.4473C36.2611+23.523+36.3001+23.623+36.3001+23.7472C36.3001+23.8286+36.2811+23.9066+36.2433+23.9811C36.2054+24.0557+36.1515+24.1179+36.0814+24.1676C36.0035+24.2218+35.9136+24.2628+35.8119+24.2904C35.7102+24.3181+35.5809+24.332+35.4238+24.332Z" opacity="1" fill="#23048c"/>
<path d="M37.1729+24.3201C37.0373+24.3201+36.9288+24.2871+36.8475+24.221C36.7661+24.1549+36.7255+24.071+36.7255+23.9693C36.7255+23.9275+36.7283+23.8879+36.7339+23.8506C36.7396+23.8133+36.7486+23.7653+36.761+23.7066L36.9712+22.8049L36.661+22.8049L36.7017+22.6304L37.0187+22.6304L37.1407+22.1168L37.6898+22.1168L37.5712+22.6304L38.0305+22.6304L37.9898+22.8049L37.5322+22.8049L37.3254+23.7066C37.3175+23.7382+37.3099+23.7766+37.3025+23.8218C37.2952+23.867+37.2915+23.8964+37.2915+23.91C37.2915+23.9744+37.3093+24.019+37.3449+24.0438C37.3805+24.0687+37.435+24.0811+37.5085+24.0811C37.5435+24.0811+37.5918+24.0744+37.6534+24.0608C37.715+24.0472+37.7582+24.0359+37.783+24.0269L37.7457+24.1794C37.6463+24.2235+37.5466+24.258+37.4466+24.2828C37.3466+24.3077+37.2554+24.3201+37.1729+24.3201Z" opacity="1" fill="#23048c"/>
<path d="M39.1372+24.0337L39.0999+24.1862C38.988+24.2303+38.8988+24.2639+38.8321+24.2871C38.7655+24.3102+38.6881+24.3218+38.5999+24.3218C38.4643+24.3218+38.359+24.2887+38.2838+24.2226C38.2087+24.1565+38.1711+24.0727+38.1711+23.971C38.1711+23.9314+38.174+23.891+38.1796+23.8498C38.1853+23.8085+38.1943+23.7619+38.2067+23.71L38.3457+23.2151C38.3581+23.1676+38.3686+23.1227+38.3771+23.0803C38.3855+23.038+38.3898+22.9993+38.3898+22.9642C38.3898+22.901+38.3768+22.8569+38.3508+22.832C38.3248+22.8072+38.2751+22.7948+38.2016+22.7948C38.1655+22.7948+38.1285+22.8004+38.0906+22.8117C38.0528+22.823+38.0203+22.8337+37.9932+22.8439L38.0305+22.6914C38.122+22.6541+38.2096+22.6222+38.2932+22.5956C38.3768+22.5691+38.4559+22.5558+38.5304+22.5558C38.6649+22.5558+38.7686+22.5883+38.8414+22.6532C38.9143+22.7182+38.9508+22.8027+38.9508+22.9066C38.9508+22.9281+38.9482+22.9659+38.9431+23.0202C38.9381+23.0744+38.9287+23.1241+38.9152+23.1693L38.7762+23.6625C38.7649+23.7021+38.7547+23.7472+38.7457+23.7981C38.7366+23.8489+38.7321+23.8874+38.7321+23.9133C38.7321+23.9789+38.7468+24.0235+38.7762+24.0472C38.8056+24.071+38.8564+24.0828+38.9287+24.0828C38.9626+24.0828+39.001+24.0769+39.044+24.065C39.0869+24.0532+39.118+24.0427+39.1372+24.0337ZM39.1728+21.9643C39.1728+22.0502+39.1403+22.1233+39.0753+22.1838C39.0104+22.2442+38.9321+22.2744+38.8406+22.2744C38.7491+22.2744+38.6706+22.2442+38.605+22.1838C38.5395+22.1233+38.5067+22.0502+38.5067+21.9643C38.5067+21.8784+38.5395+21.805+38.605+21.744C38.6706+21.6829+38.7491+21.6524+38.8406+21.6524C38.9321+21.6524+39.0104+21.6829+39.0753+21.744C39.1403+21.805+39.1728+21.8784+39.1728+21.9643Z" opacity="1" fill="#23048c"/>
<path d="M39.8897+24.3201C39.7541+24.3201+39.6456+24.2871+39.5643+24.221C39.4829+24.1549+39.4423+24.071+39.4423+23.9693C39.4423+23.9275+39.4451+23.8879+39.4507+23.8506C39.4564+23.8133+39.4654+23.7653+39.4779+23.7066L39.688+22.8049L39.3779+22.8049L39.4185+22.6304L39.7355+22.6304L39.8575+22.1168L40.4066+22.1168L40.288+22.6304L40.7473+22.6304L40.7066+22.8049L40.249+22.8049L40.0422+23.7066C40.0343+23.7382+40.0267+23.7766+40.0194+23.8218C40.012+23.867+40.0083+23.8964+40.0083+23.91C40.0083+23.9744+40.0261+24.019+40.0617+24.0438C40.0973+24.0687+40.1518+24.0811+40.2253+24.0811C40.2603+24.0811+40.3086+24.0744+40.3702+24.0608C40.4318+24.0472+40.475+24.0359+40.4998+24.0269L40.4626+24.1794C40.3631+24.2235+40.2634+24.258+40.1634+24.2828C40.0634+24.3077+39.9722+24.3201+39.8897+24.3201Z" opacity="1" fill="#23048c"/>
<path d="M42.0065+24.0066L41.9947+24.0066C41.876+24.115+41.763+24.1952+41.6557+24.2472C41.5484+24.2992+41.4241+24.3252+41.2828+24.3252C41.1574+24.3252+41.0605+24.2907+40.9922+24.2218C40.9238+24.1529+40.8896+24.0693+40.8896+23.971C40.8896+23.9359+40.8916+23.9003+40.8956+23.8642C40.8995+23.828+40.91+23.7772+40.9269+23.7117L41.054+23.2354C41.062+23.2038+41.0713+23.1606+41.082+23.1058C41.0927+23.051+41.0981+23.0106+41.0981+22.9846C41.0981+22.9224+41.0854+22.8786+41.06+22.8532C41.0346+22.8278+40.9851+22.8151+40.9117+22.8151C40.8755+22.8151+40.8385+22.8207+40.8007+22.832C40.7628+22.8433+40.7303+22.8541+40.7032+22.8642L40.7405+22.7117C40.832+22.6744+40.9196+22.6425+41.0032+22.6159C41.0868+22.5894+41.1659+22.5761+41.2405+22.5761C41.3749+22.5761+41.4786+22.6097+41.5515+22.677C41.6244+22.7442+41.6608+22.8275+41.6608+22.927C41.6608+22.9473+41.6585+22.9846+41.654+23.0388C41.6495+23.093+41.6405+23.1433+41.6269+23.1896L41.5032+23.6405C41.4919+23.68+41.4828+23.7227+41.4761+23.7684C41.4693+23.8142+41.4659+23.8472+41.4659+23.8676C41.4659+23.9207+41.4783+23.9628+41.5032+23.9938C41.528+24.0249+41.571+24.0405+41.632+24.0405C41.676+24.0405+41.7345+24.0221+41.8074+23.9854C41.8803+23.9487+41.9523+23.8964+42.0235+23.8286L42.3031+22.6049L42.8438+22.5812L42.8641+22.6049L42.6235+23.6473C42.6155+23.68+42.6062+23.7235+42.5955+23.7778C42.5848+23.832+42.5794+23.8721+42.5794+23.8981C42.5794+23.9636+42.5938+24.0083+42.6226+24.032C42.6514+24.0557+42.702+24.0676+42.7743+24.0676C42.8082+24.0676+42.8466+24.0616+42.8895+24.0498C42.9325+24.0379+42.9636+24.0275+42.9828+24.0184L42.9455+24.171C42.8336+24.215+42.7444+24.2486+42.6777+24.2718C42.611+24.295+42.5336+24.3065+42.4455+24.3065C42.3212+24.3065+42.2218+24.2786+42.1472+24.2226C42.0726+24.1667+42.0257+24.0947+42.0065+24.0066Z" opacity="1" fill="#23048c"/>
<path d="M43.7149+24.3201C43.5793+24.3201+43.4709+24.2871+43.3895+24.221C43.3082+24.1549+43.2675+24.071+43.2675+23.9693C43.2675+23.9275+43.2703+23.8879+43.276+23.8506C43.2816+23.8133+43.2907+23.7653+43.3031+23.7066L43.5132+22.8049L43.2031+22.8049L43.2438+22.6304L43.5607+22.6304L43.6827+22.1168L44.2319+22.1168L44.1132+22.6304L44.5725+22.6304L44.5318+22.8049L44.0742+22.8049L43.8675+23.7066C43.8596+23.7382+43.8519+23.7766+43.8446+23.8218C43.8372+23.867+43.8336+23.8964+43.8336+23.91C43.8336+23.9744+43.8514+24.019+43.887+24.0438C43.9225+24.0687+43.9771+24.0811+44.0505+24.0811C44.0855+24.0811+44.1338+24.0744+44.1954+24.0608C44.257+24.0472+44.3002+24.0359+44.3251+24.0269L44.2878+24.1794C44.1884+24.2235+44.0886+24.258+43.9886+24.2828C43.8886+24.3077+43.7974+24.3201+43.7149+24.3201Z" opacity="1" fill="#23048c"/>
<path d="M45.3962+24.332C45.2606+24.332+45.1417+24.3136+45.0394+24.2769C44.9372+24.2402+44.8527+24.189+44.7861+24.1235C44.7205+24.058+44.6714+23.9817+44.6386+23.8947C44.6058+23.8077+44.5895+23.7117+44.5895+23.6066C44.5895+23.4733+44.6143+23.3439+44.664+23.2185C44.7137+23.093+44.7878+22.9801+44.8861+22.8795C44.9787+22.7835+45.0962+22.7055+45.2386+22.6456C45.3809+22.5857+45.538+22.5558+45.7097+22.5558C45.912+22.5558+46.0659+22.588+46.1716+22.6524C46.2772+22.7168+46.33+22.8134+46.33+22.9422C46.33+23.0654+46.2843+23.1713+46.1928+23.26C46.1012+23.3487+45.977+23.4145+45.8199+23.4574C45.6956+23.4947+45.5897+23.5213+45.5021+23.5371C45.4146+23.5529+45.3075+23.5676+45.181+23.5812C45.1832+23.6309+45.19+23.6868+45.2013+23.7489C45.2126+23.8111+45.2295+23.8642+45.2521+23.9083C45.2793+23.9591+45.3177+23.9995+45.3674+24.0294C45.4171+24.0594+45.4804+24.0744+45.5572+24.0744C45.6905+24.0744+45.8038+24.0486+45.897+23.9972C45.9902+23.9458+46.0792+23.8642+46.164+23.7523L46.2877+23.8557C46.186+24.0003+46.0558+24.1159+45.897+24.2023C45.7383+24.2887+45.5713+24.332+45.3962+24.332ZM45.7792+22.9897C45.7792+22.8936+45.7617+22.8199+45.7267+22.7685C45.6917+22.7171+45.6431+22.6914+45.5809+22.6914C45.4939+22.6914+45.4117+22.7623+45.3343+22.9041C45.2569+23.0459+45.2075+23.2252+45.186+23.4422C45.2527+23.4343+45.3188+23.4241+45.3843+23.4117C45.4499+23.3992+45.5018+23.3846+45.5403+23.3676C45.625+23.3303+45.686+23.2823+45.7233+23.2235C45.7606+23.1648+45.7792+23.0868+45.7792+22.9897Z" opacity="1" fill="#23048c"/>
<path d="M49.379+23.2608C49.379+23.4032+49.3519+23.5393+49.2977+23.6693C49.2435+23.7992+49.1666+23.9122+49.0672+24.0083C48.9599+24.1111+48.8342+24.1904+48.6901+24.2464C48.546+24.3023+48.3842+24.3303+48.2045+24.3303C47.9639+24.3303+47.7695+24.2661+47.6215+24.1379C47.4735+24.0097+47.3995+23.8348+47.3995+23.6134C47.3995+23.4631+47.4275+23.3235+47.4834+23.1947C47.5393+23.0659+47.6176+22.9535+47.7181+22.8575C47.8175+22.7637+47.9396+22.6894+48.0842+22.6346C48.2288+22.5798+48.3853+22.5524+48.5537+22.5524C48.809+22.5524+49.0104+22.6148+49.1579+22.7397C49.3053+22.8645+49.379+23.0382+49.379+23.2608ZM48.7825+23.0693C48.7825+22.9371+48.7602+22.8399+48.7155+22.7778C48.6709+22.7157+48.6062+22.6846+48.5215+22.6846C48.4345+22.6846+48.3548+22.7193+48.2825+22.7888C48.2102+22.8583+48.1514+22.9603+48.1062+23.0947C48.0667+23.2066+48.0384+23.3278+48.0215+23.4583C48.0045+23.5888+47.9961+23.7054+47.9961+23.8083C47.9961+23.945+48.0187+24.0441+48.0639+24.1057C48.1091+24.1673+48.1746+24.1981+48.2605+24.1981C48.3531+24.1981+48.4333+24.1602+48.5011+24.0845C48.5689+24.0088+48.6226+23.9156+48.6621+23.8049C48.7017+23.6964+48.7316+23.5764+48.752+23.4447C48.7723+23.3131+48.7825+23.188+48.7825+23.0693Z" opacity="1" fill="#23048c"/>
<path d="M50.5434+22.8049C50.4869+23.084+50.438+23.3261+50.3968+23.5312C50.3556+23.7362+50.3061+23.9506+50.2485+24.1743C50.2202+24.2839+50.1736+24.3916+50.1087+24.4972C50.0437+24.6029+49.9672+24.6941+49.879+24.7709C49.7864+24.8523+49.6861+24.9156+49.5782+24.9607C49.4703+25.0059+49.3593+25.0285+49.2452+25.0285C49.1423+25.0285+49.059+25.0184+48.9952+24.998C48.9313+24.9777+48.8813+24.9517+48.8452+24.9201C48.8101+24.8884+48.7864+24.8534+48.774+24.815C48.7616+24.7766+48.7554+24.7387+48.7554+24.7014C48.7554+24.6359+48.7788+24.578+48.8257+24.5277C48.8726+24.4774+48.9356+24.4523+49.0147+24.4523C49.0757+24.4523+49.1285+24.4684+49.1731+24.5006C49.2178+24.5328+49.2559+24.5715+49.2875+24.6167C49.3192+24.6608+49.3471+24.7099+49.3714+24.7641C49.3957+24.8184+49.4146+24.8608+49.4282+24.8913C49.4757+24.8393+49.5203+24.761+49.5621+24.6565C49.6039+24.552+49.6429+24.4128+49.679+24.2387L49.9824+22.8049L49.6536+22.8049L49.6943+22.6304L50.0197+22.6304L50.0485+22.4999C50.0722+22.3936+50.1155+22.2894+50.1782+22.1872C50.2409+22.0849+50.3169+21.9937+50.4061+21.9134C50.492+21.8344+50.5911+21.7699+50.7036+21.7202C50.816+21.6705+50.9287+21.6457+51.0417+21.6457C51.14+21.6457+51.2216+21.655+51.2866+21.6736C51.3515+21.6923+51.4027+21.718+51.44+21.7507C51.4739+21.7812+51.4967+21.8154+51.5086+21.8533C51.5205+21.8911+51.5264+21.9287+51.5264+21.966C51.5264+21.9908+51.5216+22.0185+51.512+22.049C51.5024+22.0795+51.4874+22.1072+51.4671+22.1321C51.4422+22.1603+51.4159+22.1824+51.3883+22.1982C51.3606+22.214+51.3202+22.2219+51.2671+22.2219C51.2061+22.2219+51.1535+22.2058+51.1095+22.1736C51.0654+22.1414+51.0281+22.1033+50.9976+22.0592C50.9648+22.0129+50.9372+21.9632+50.9146+21.9101C50.892+21.8569+50.8733+21.8146+50.8586+21.7829C50.8123+21.836+50.7705+21.9134+50.7332+22.0151C50.6959+22.1168+50.6575+22.2569+50.618+22.4355L50.5756+22.6304L51.0044+22.6304L50.9637+22.8049L50.5434+22.8049Z" opacity="1" fill="#23048c"/>
<path d="M33.4239+25.8149L33.2646+26.503L33.1341+26.503C33.1296+26.4646+33.1208+26.4166+33.1078+26.359C33.0948+26.3014+33.077+26.2443+33.0545+26.1878C33.0307+26.129+33.005+26.0805+32.9773+26.042C32.9497+26.0036+32.9166+25.981+32.8782+25.9743C32.8443+25.9697+32.8011+25.9658+32.7485+25.9624C32.696+25.959+32.6505+25.9573+32.6121+25.9573L32.5274+25.9573L32.0952+27.8267C32.0907+27.8459+32.087+27.8643+32.0842+27.8818C32.0813+27.8993+32.0799+27.912+32.0799+27.9199C32.0799+27.947+32.0853+27.971+32.096+27.9919C32.1068+28.0129+32.1268+28.0295+32.1562+28.0419C32.1833+28.0532+32.2229+28.0643+32.2748+28.075C32.3268+28.0857+32.3697+28.0928+32.4036+28.0962L32.3748+28.2199L31.0342+28.2199L31.063+28.0962C31.0947+28.0939+31.141+28.0894+31.202+28.0826C31.263+28.0758+31.3065+28.0679+31.3325+28.0589C31.3777+28.0408+31.4116+28.0165+31.4342+27.986C31.4568+27.9555+31.4726+27.9194+31.4817+27.8775L31.9257+25.9573L31.8596+25.9573C31.8167+25.9573+31.7734+25.9587+31.7299+25.9615C31.6864+25.9644+31.637+25.9686+31.5816+25.9743C31.541+25.9799+31.4955+26.0042+31.4452+26.0471C31.3949+26.0901+31.3461+26.137+31.2986+26.1878C31.2421+26.2511+31.1955+26.3084+31.1588+26.3598C31.1221+26.4112+31.0907+26.459+31.0647+26.503L30.9342+26.503L31.0935+25.8149L33.4239+25.8149Z" opacity="1" fill="#23048c"/>
<path d="M34.0273+28.2758C33.8917+28.2758+33.7728+28.2575+33.6705+28.2207C33.5683+28.184+33.4838+28.1329+33.4171+28.0674C33.3516+28.0018+33.3025+27.9256+33.2697+27.8386C33.2369+27.7516+33.2205+27.6555+33.2205+27.5504C33.2205+27.4171+33.2454+27.2877+33.2951+27.1623C33.3448+27.0369+33.4188+26.9239+33.5171+26.8234C33.6098+26.7273+33.7273+26.6494+33.8697+26.5895C34.012+26.5296+34.1691+26.4997+34.3408+26.4997C34.5431+26.4997+34.697+26.5319+34.8027+26.5963C34.9083+26.6607+34.9611+26.7573+34.9611+26.8861C34.9611+27.0092+34.9154+27.1152+34.8239+27.2039C34.7323+27.2925+34.608+27.3584+34.451+27.4013C34.3267+27.4386+34.2208+27.4651+34.1332+27.481C34.0456+27.4968+33.9386+27.5115+33.812+27.525C33.8143+27.5747+33.8211+27.6307+33.8324+27.6928C33.8437+27.755+33.8606+27.8081+33.8832+27.8521C33.9103+27.903+33.9488+27.9434+33.9985+27.9733C34.0482+28.0032+34.1115+28.0182+34.1883+28.0182C34.3216+28.0182+34.4349+27.9925+34.5281+27.9411C34.6213+27.8897+34.7103+27.8081+34.795+27.6962L34.9188+27.7996C34.8171+27.9442+34.6869+28.0597+34.5281+28.1462C34.3694+28.2326+34.2024+28.2758+34.0273+28.2758ZM34.4103+26.9335C34.4103+26.8375+34.3928+26.7638+34.3578+26.7124C34.3227+26.6609+34.2742+26.6352+34.212+26.6352C34.125+26.6352+34.0428+26.7061+33.9654+26.8479C33.888+26.9897+33.8386+27.1691+33.8171+27.386C33.8838+27.3781+33.9499+27.368+34.0154+27.3555C34.081+27.3431+34.1329+27.3284+34.1713+27.3115C34.2561+27.2742+34.3171+27.2262+34.3544+27.1674C34.3917+27.1087+34.4103+27.0307+34.4103+26.9335Z" opacity="1" fill="#23048c"/>
<path d="M35.9797+28.2758C35.7199+28.2758+35.5173+28.2109+35.3721+28.0809C35.2269+27.951+35.1543+27.7725+35.1543+27.5454C35.1543+27.4086+35.1775+27.279+35.2238+27.1564C35.2702+27.0338+35.3413+26.9222+35.4374+26.8217C35.5266+26.7268+35.6413+26.6494+35.7814+26.5895C35.9215+26.5296+36.078+26.4997+36.2509+26.4997C36.4509+26.4997+36.6037+26.5364+36.7094+26.6098C36.815+26.6833+36.8678+26.7844+36.8678+26.9132C36.8678+26.9482+36.8622+26.9872+36.8509+27.0301C36.8396+27.0731+36.8226+27.1092+36.8+27.1386C36.7718+27.1748+36.741+27.2024+36.7077+27.2216C36.6743+27.2409+36.6243+27.2505+36.5577+27.2505C36.4695+27.2505+36.4009+27.2287+36.3517+27.1852C36.3026+27.1417+36.278+27.0962+36.278+27.0488C36.278+26.9923+36.2899+26.9364+36.3136+26.881C36.3373+26.8256+36.3673+26.7674+36.4034+26.7064C36.3933+26.694+36.3726+26.6787+36.3416+26.6607C36.3105+26.6426+36.2701+26.6335+36.2204+26.6335C36.0882+26.6335+35.9786+26.7135+35.8916+26.8734C35.8046+27.0332+35.7611+27.2313+35.7611+27.4674C35.7611+27.6471+35.7941+27.7832+35.8602+27.8759C35.9263+27.9685+36.0204+28.0148+36.1424+28.0148C36.2667+28.0148+36.3704+27.9908+36.4534+27.9428C36.5365+27.8948+36.6215+27.8126+36.7085+27.6962L36.8305+27.7996C36.7379+27.9431+36.6153+28.0583+36.4628+28.1453C36.3102+28.2323+36.1492+28.2758+35.9797+28.2758Z" opacity="1" fill="#23048c"/>
<path d="M39.1897+27.964L39.1524+28.1131C39.0406+28.1572+38.9513+28.1908+38.8847+28.214C38.818+28.2371+38.7406+28.2487+38.6525+28.2487C38.518+28.2487+38.4132+28.2151+38.3381+28.1479C38.2629+28.0806+38.2254+27.9973+38.2254+27.8979C38.2254+27.8662+38.2268+27.8312+38.2296+27.7928C38.2324+27.7544+38.2423+27.7018+38.2593+27.6352L38.3813+27.1844C38.3937+27.1358+38.4031+27.092+38.4093+27.053C38.4155+27.014+38.4186+26.9821+38.4186+26.9573C38.4186+26.903+38.4056+26.8606+38.3796+26.8301C38.3536+26.7996+38.3096+26.7844+38.2474+26.7844C38.209+26.7844+38.1542+26.7994+38.083+26.8293C38.0118+26.8592+37.9322+26.9149+37.844+26.9962L37.5644+28.2199L37.0034+28.2199L37.5017+26.0624C37.5062+26.0432+37.5096+26.0251+37.5119+26.0082C37.5141+25.9912+37.5152+25.9771+37.5152+25.9658C37.5152+25.9251+37.5085+25.8929+37.4949+25.8692C37.4813+25.8454+37.461+25.8262+37.4339+25.8116C37.4068+25.7969+37.3757+25.7867+37.3407+25.781C37.3056+25.7754+37.265+25.7703+37.2186+25.7658L37.2492+25.6404L38.1423+25.5963L38.161+25.6234L37.8898+26.7962L37.9017+26.7962C38.0067+26.7036+38.1158+26.631+38.2288+26.5785C38.3418+26.5259+38.4632+26.4997+38.5932+26.4997C38.7186+26.4997+38.8166+26.5341+38.8872+26.603C38.9578+26.672+38.9931+26.7556+38.9931+26.8539C38.9931+26.8799+38.9912+26.9163+38.9872+26.9632C38.9832+27.0101+38.9739+27.0601+38.9592+27.1132L38.8304+27.5894C38.8191+27.629+38.809+27.6742+38.7999+27.725C38.7909+27.7759+38.7864+27.8143+38.7864+27.8403C38.7864+27.9058+38.8008+27.951+38.8296+27.9758C38.8584+28.0007+38.909+28.0131+38.9813+28.0131C39.0152+28.0131+39.0536+28.0072+39.0965+27.9953C39.1395+27.9835+39.1705+27.973+39.1897+27.964Z" opacity="1" fill="#23048c"/>
<path d="M41.5845+27.9606L41.5472+28.1131C41.4354+28.1572+41.3461+28.1908+41.2795+28.214C41.2128+28.2371+41.1354+28.2487+41.0473+28.2487C40.9128+28.2487+40.8083+28.2151+40.7337+28.1479C40.6592+28.0806+40.6219+27.9973+40.6219+27.8979C40.6219+27.8708+40.6233+27.836+40.6261+27.7937C40.6289+27.7513+40.6382+27.6985+40.6541+27.6352L40.7761+27.1844C40.7885+27.1358+40.7978+27.092+40.8041+27.053C40.8103+27.014+40.8134+26.9821+40.8134+26.9573C40.8134+26.903+40.8004+26.8606+40.7744+26.8301C40.7484+26.7996+40.7043+26.7844+40.6422+26.7844C40.6038+26.7844+40.549+26.7994+40.4778+26.8293C40.4066+26.8592+40.327+26.9149+40.2388+26.9962L39.9592+28.2199L39.3982+28.2199L39.6389+27.1776C39.6456+27.1459+39.6544+27.1047+39.6651+27.0539C39.6759+27.003+39.6812+26.9606+39.6812+26.9267C39.6812+26.8623+39.668+26.818+39.6414+26.7937C39.6149+26.7694+39.5666+26.7573+39.4965+26.7573C39.4603+26.7573+39.4233+26.7629+39.3855+26.7742C39.3476+26.7855+39.3152+26.7962+39.288+26.8064L39.3253+26.6539C39.4168+26.6166+39.5044+26.5847+39.588+26.5581C39.6716+26.5316+39.7507+26.5183+39.8253+26.5183C39.9586+26.5183+40.0583+26.5446+40.1244+26.5971C40.1905+26.6496+40.2343+26.7234+40.2558+26.8183L40.2676+26.8183C40.3784+26.7177+40.4928+26.6395+40.6108+26.5835C40.7289+26.5276+40.8546+26.4997+40.9879+26.4997C41.1134+26.4997+41.2114+26.5341+41.282+26.603C41.3526+26.672+41.3879+26.7556+41.3879+26.8539C41.3879+26.8799+41.386+26.9163+41.382+26.9632C41.378+27.0101+41.3687+27.0601+41.354+27.1132L41.2252+27.5894C41.2139+27.629+41.2038+27.6742+41.1947+27.725C41.1857+27.7759+41.1812+27.8143+41.1812+27.8403C41.1812+27.9058+41.1956+27.9504+41.2244+27.9742C41.2532+27.9979+41.3038+28.0097+41.3761+28.0097C41.41+28.0097+41.4484+28.0038+41.4913+27.9919C41.5342+27.9801+41.5653+27.9696+41.5845+27.9606Z" opacity="1" fill="#23048c"/>
<path d="M43.7268+27.2047C43.7268+27.3471+43.6997+27.4832+43.6454+27.6132C43.5912+27.7431+43.5144+27.8561+43.4149+27.9521C43.3076+28.0549+43.1819+28.1343+43.0378+28.1902C42.8938+28.2462+42.7319+28.2741+42.5523+28.2741C42.3116+28.2741+42.1173+28.21+41.9693+28.0818C41.8212+27.9535+41.7472+27.7787+41.7472+27.5572C41.7472+27.4069+41.7752+27.2674+41.8311+27.1386C41.8871+27.0098+41.9653+26.8974+42.0659+26.8013C42.1653+26.7075+42.2873+26.6333+42.4319+26.5785C42.5766+26.5237+42.7331+26.4963+42.9014+26.4963C43.1568+26.4963+43.3582+26.5587+43.5056+26.6835C43.6531+26.8084+43.7268+26.9821+43.7268+27.2047ZM43.1302+27.0132C43.1302+26.881+43.1079+26.7838+43.0633+26.7217C43.0186+26.6595+42.9539+26.6285+42.8692+26.6285C42.7822+26.6285+42.7026+26.6632+42.6302+26.7327C42.5579+26.8022+42.4992+26.9042+42.454+27.0386C42.4144+27.1505+42.3862+27.2716+42.3692+27.4021C42.3523+27.5326+42.3438+27.6493+42.3438+27.7521C42.3438+27.8888+42.3664+27.988+42.4116+28.0496C42.4568+28.1112+42.5223+28.1419+42.6082+28.1419C42.7009+28.1419+42.7811+28.1041+42.8489+28.0284C42.9167+27.9527+42.9703+27.8595+43.0099+27.7487C43.0494+27.6403+43.0794+27.5202+43.0997+27.3886C43.12+27.257+43.1302+27.1318+43.1302+27.0132Z" opacity="1" fill="#23048c"/>
<path d="M45.1047+25.6234L44.6488+27.6064C44.6409+27.6391+44.6315+27.6826+44.6208+27.7369C44.6101+27.7911+44.6047+27.8312+44.6047+27.8572C44.6047+27.9227+44.6211+27.9674+44.6539+27.9911C44.6866+28.0148+44.7409+28.0267+44.8166+28.0267C44.8448+28.0267+44.8832+28.0208+44.9318+28.0089C44.9804+27.997+45.0149+27.9866+45.0352+27.9775L44.9979+28.1301C44.8861+28.1741+44.7945+28.2078+44.7234+28.2309C44.6522+28.2541+44.5714+28.2657+44.481+28.2657C44.3454+28.2657+44.2386+28.2326+44.1607+28.1665C44.0827+28.1004+44.0437+28.0165+44.0437+27.9148C44.0437+27.873+44.0474+27.8295+44.0547+27.7843C44.0621+27.7391+44.0703+27.6956+44.0793+27.6538L44.4454+26.0624C44.4499+26.0432+44.4533+26.0251+44.4556+26.0082C44.4578+25.9912+44.459+25.9771+44.459+25.9658C44.459+25.9251+44.4522+25.8929+44.4386+25.8692C44.4251+25.8454+44.4047+25.8262+44.3776+25.8116C44.3505+25.7969+44.3194+25.7867+44.2844+25.781C44.2494+25.7754+44.2087+25.7703+44.1624+25.7658L44.1929+25.6404L45.086+25.5963L45.1047+25.6234Z" opacity="1" fill="#23048c"/>
<path d="M47.1639+27.2047C47.1639+27.3471+47.1368+27.4832+47.0826+27.6132C47.0283+27.7431+46.9515+27.8561+46.8521+27.9521C46.7447+28.0549+46.619+28.1343+46.475+28.1902C46.3309+28.2462+46.169+28.2741+45.9894+28.2741C45.7487+28.2741+45.5544+28.21+45.4064+28.0818C45.2584+27.9535+45.1843+27.7787+45.1843+27.5572C45.1843+27.4069+45.2123+27.2674+45.2682+27.1386C45.3242+27.0098+45.4024+26.8974+45.503+26.8013C45.6024+26.7075+45.7244+26.6333+45.8691+26.5785C46.0137+26.5237+46.1702+26.4963+46.3385+26.4963C46.5939+26.4963+46.7953+26.5587+46.9427+26.6835C47.0902+26.8084+47.1639+26.9821+47.1639+27.2047ZM46.5673+27.0132C46.5673+26.881+46.545+26.7838+46.5004+26.7217C46.4557+26.6595+46.3911+26.6285+46.3063+26.6285C46.2193+26.6285+46.1397+26.6632+46.0674+26.7327C45.995+26.8022+45.9363+26.9042+45.8911+27.0386C45.8515+27.1505+45.8233+27.2716+45.8063+27.4021C45.7894+27.5326+45.7809+27.6493+45.7809+27.7521C45.7809+27.8888+45.8035+27.988+45.8487+28.0496C45.8939+28.1112+45.9594+28.1419+46.0453+28.1419C46.138+28.1419+46.2182+28.1041+46.286+28.0284C46.3538+27.9527+46.4074+27.8595+46.447+27.7487C46.4865+27.6403+46.5165+27.5202+46.5368+27.3886C46.5572+27.257+46.5673+27.1318+46.5673+27.0132Z" opacity="1" fill="#23048c"/>
<path d="M48.5486+28.0419L48.535+28.0419C48.5068+28.0645+48.474+28.0888+48.4367+28.1148C48.3994+28.1408+48.3593+28.1634+48.3164+28.1826C48.2644+28.2075+48.2158+28.2264+48.1706+28.2394C48.1254+28.2524+48.0684+28.2589+47.9995+28.2589C47.8029+28.2589+47.6517+28.2013+47.5461+28.086C47.4404+27.9708+47.3876+27.8126+47.3876+27.6115C47.3876+27.4589+47.4147+27.3157+47.469+27.1818C47.5232+27.0479+47.5967+26.9296+47.6893+26.8268C47.7808+26.7262+47.889+26.6465+48.0139+26.5878C48.1387+26.529+48.2706+26.4997+48.4096+26.4997C48.5113+26.4997+48.6011+26.5104+48.6791+26.5319C48.757+26.5533+48.8243+26.5867+48.8808+26.6318L49.3977+26.5251L49.4214+26.5522L49.1333+27.9301C49.0881+28.1357+49.0254+28.3055+48.9452+28.4394C48.8649+28.5733+48.7717+28.6798+48.6655+28.7589C48.5571+28.8391+48.4438+28.8947+48.3257+28.9258C48.2076+28.9569+48.0836+28.9724+47.9537+28.9724C47.8147+28.9724+47.7014+28.962+47.6139+28.9411C47.5263+28.9201+47.4594+28.8933+47.413+28.8605C47.3678+28.8289+47.3371+28.7936+47.3207+28.7546C47.3043+28.7156+47.2961+28.6775+47.2961+28.6402C47.2961+28.5758+47.319+28.5179+47.3647+28.4665C47.4105+28.4151+47.4741+28.3894+47.5554+28.3894C47.6164+28.3894+47.6709+28.4058+47.719+28.4385C47.767+28.4713+47.8091+28.5108+47.8452+28.5572C47.878+28.599+47.9085+28.6473+47.9367+28.7021C47.965+28.7569+47.9865+28.8012+48.0012+28.8351C48.0531+28.8261+48.1048+28.8114+48.1562+28.7911C48.2076+28.7707+48.2571+28.7323+48.3045+28.6758C48.3497+28.6216+48.3929+28.5464+48.4342+28.4504C48.4754+28.3544+48.5136+28.2182+48.5486+28.0419ZM48.7757+26.9318C48.7757+26.9036+48.772+26.8745+48.7647+26.8445C48.7573+26.8146+48.7429+26.7861+48.7215+26.759C48.7+26.7307+48.6734+26.7084+48.6418+26.692C48.6102+26.6756+48.5672+26.6674+48.513+26.6674C48.4395+26.6674+48.3718+26.6937+48.3096+26.7462C48.2475+26.7988+48.1927+26.8691+48.1452+26.9573C48.0989+27.0443+48.0622+27.1457+48.035+27.2615C48.0079+27.3773+47.9944+27.4968+47.9944+27.6199C47.9944+27.6742+47.9992+27.7242+48.0088+27.7699C48.0184+27.8157+48.035+27.8566+48.0588+27.8928C48.0825+27.929+48.1133+27.9561+48.1511+27.9742C48.189+27.9922+48.2316+28.0013+48.2791+28.0013C48.3345+28.0013+48.3912+27.9843+48.4494+27.9504C48.5076+27.9165+48.5542+27.8804+48.5893+27.842L48.7757+26.9318Z" opacity="1" fill="#23048c"/>
<path d="M50.8925+27.9487L50.8807+27.9487C50.753+28.0651+50.6355+28.1459+50.5281+28.1911C50.4208+28.2363+50.3022+28.2589+50.1722+28.2589C50.0468+28.2589+49.9494+28.2239+49.8799+28.1538C49.8104+28.0838+49.7756+27.9996+49.7756+27.9013C49.7756+27.8662+49.7776+27.8307+49.7816+27.7945C49.7855+27.7583+49.796+27.7075+49.8129+27.642L49.94+27.1793C49.9479+27.1476+49.9573+27.1044+49.968+27.0496C49.9787+26.9948+49.9841+26.9544+49.9841+26.9284C49.9841+26.864+49.9714+26.8197+49.946+26.7954C49.9205+26.7711+49.8711+26.759+49.7977+26.759C49.7615+26.759+49.7245+26.7646+49.6867+26.7759C49.6488+26.7872+49.6163+26.7979+49.5892+26.8081L49.6265+26.6556C49.718+26.6183+49.8056+26.5864+49.8892+26.5598C49.9728+26.5333+50.0519+26.52+50.1265+26.52C50.2609+26.52+50.3646+26.5536+50.4375+26.6208C50.5103+26.6881+50.5468+26.7714+50.5468+26.8708C50.5468+26.8912+50.5445+26.9284+50.54+26.9827C50.5355+27.0369+50.5264+27.0872+50.5129+27.1335L50.3892+27.5742C50.3779+27.6137+50.3688+27.6561+50.362+27.7013C50.3553+27.7465+50.3519+27.7792+50.3519+27.7996C50.3519+27.8561+50.3657+27.899+50.3934+27.9284C50.4211+27.9578+50.4649+27.9725+50.5248+27.9725C50.5745+27.9725+50.6375+27.9535+50.7137+27.9157C50.79+27.8778+50.8603+27.8273+50.9247+27.764L51.1823+26.5488L51.7196+26.5251L51.7433+26.5522L51.4467+27.9301C51.4015+28.1357+51.3383+28.3055+51.2569+28.4394C51.1756+28.5733+51.0812+28.6798+50.9739+28.7589C50.8711+28.8346+50.7598+28.8891+50.64+28.9224C50.5202+28.9557+50.3988+28.9724+50.2756+28.9724C50.1412+28.9724+50.0296+28.9625+49.9409+28.9427C49.8522+28.923+49.783+28.8956+49.7333+28.8605C49.6881+28.8289+49.6573+28.7936+49.6409+28.7546C49.6245+28.7156+49.6163+28.6775+49.6163+28.6402C49.6163+28.5747+49.6395+28.5165+49.6858+28.4657C49.7321+28.4148+49.7954+28.3894+49.8756+28.3894C49.9366+28.3894+49.9912+28.4058+50.0392+28.4385C50.0872+28.4713+50.1293+28.5108+50.1654+28.5572C50.2005+28.6012+50.2318+28.6501+50.2595+28.7038C50.2872+28.7574+50.3084+28.8012+50.3231+28.8351C50.3434+28.8317+50.3685+28.8247+50.3985+28.8139C50.4284+28.8032+50.4536+28.7911+50.4739+28.7775C50.5033+28.7583+50.5293+28.7391+50.5519+28.7199C50.5745+28.7007+50.6005+28.6713+50.6298+28.6317C50.6863+28.556+50.7366+28.4623+50.7807+28.3504C50.8247+28.2385+50.862+28.1047+50.8925+27.9487Z" opacity="1" fill="#23048c"/>
</g>
<path d="M6.2142+50.8575C6.17938+50.3828+6.25959+49.9157+6.45483+49.4563C6.65008+48.9968+6.9967+48.5748+7.49469+48.1901C7.93196+47.8524+8.37911+47.6449+8.83613+47.5678C9.29316+47.4906+9.73443+47.5153+10.16+47.6419C10.5892+47.7734+10.9958+47.985+11.3796+48.2769C11.7635+48.5687+12.1105+48.9171+12.4205+49.322L14.4113+51.9222L14.127+52.1417C14.0652+52.066+13.9837+51.9746+13.8824+51.8677C13.7812+51.7607+13.7072+51.6943+13.6605+51.6687C13.5572+51.6096+13.4616+51.5869+13.3737+51.6008C13.2858+51.6148+13.1981+51.6555+13.1106+51.723L9.44488+54.5545C9.36228+54.6183+9.29965+54.6917+9.25697+54.7748C9.2143+54.858+9.20758+54.9615+9.23682+55.0856C9.26606+55.2096+9.31284+55.3287+9.37715+55.443C9.44147+55.5573+9.49254+55.6442+9.53038+55.7038L9.24615+55.9233L7.14397+53.1776C6.91937+52.8843+6.71664+52.5412+6.53579+52.1485C6.35494+51.7557+6.24774+51.3254+6.2142+50.8575ZM10.488+48.7369C10.2027+48.7683+9.905+48.8603+9.5948+49.0131C9.28461+49.1659+8.9546+49.3774+8.60479+49.6476C8.26226+49.9121+7.97794+50.1896+7.75184+50.48C7.52573+50.7704+7.36691+51.0628+7.27537+51.3573C7.18383+51.6518+7.16368+51.9461+7.21493+52.2403C7.26618+52.5344+7.39389+52.8148+7.59808+53.0815C7.66305+53.1664+7.73865+53.2613+7.8249+53.3664C7.91115+53.4715+7.9759+53.5497+8.01917+53.6012L11.9436+50.5699C12.0311+50.5024+12.0994+50.4313+12.1486+50.3567C12.1977+50.282+12.2265+50.1971+12.2348+50.102C12.2431+50.0068+12.2302+49.9078+12.1959+49.805C12.1617+49.7022+12.0944+49.5854+11.9942+49.4544C11.7844+49.1805+11.5534+48.9847+11.301+48.8672C11.0486+48.7496+10.7776+48.7062+10.488+48.7369Z" opacity="1" fill="#23048c"/>
<path d="M8.85702+43.3934L10.4861+46.6127L10.167+46.7765C10.1242+46.7057+10.0612+46.6015+9.97783+46.464C9.89447+46.3264+9.82807+46.2359+9.77865+46.1926C9.68667+46.1127+9.59794+46.0715+9.51247+46.069C9.427+46.0665+9.33244+46.0919+9.22877+46.1451L5.1121+48.2588C5.01934+48.3064+4.94647+48.3662+4.89348+48.438C4.84049+48.5099+4.81839+48.6089+4.82719+48.7349C4.83303+48.8143+4.85405+48.9255+4.89027+49.0684C4.92649+49.2113+4.9626+49.3319+4.99861+49.4302L4.67942+49.5941L3.0503+46.3748L3.36949+46.211C3.41907+46.2886+3.48242+46.3849+3.55952+46.4999C3.63663+46.6149+3.71021+46.7077+3.78027+46.7782C3.86956+46.8663+3.96068+46.9089+4.05365+46.9058C4.14661+46.9027+4.24083+46.8767+4.33631+46.8277L8.44889+44.7161C8.5471+44.6657+8.62168+44.6042+8.67261+44.5317C8.72355+44.4591+8.74462+44.3598+8.73583+44.2338C8.7314+44.1639+8.70731+44.0569+8.66357+43.9127C8.61983+43.7686+8.57792+43.6501+8.53783+43.5573L8.85702+43.3934Z" opacity="1" fill="#23048c"/>
<path d="M7.97323+40.1183C8.10576+40.5769+8.15565+41.028+8.12289+41.4718C8.09012+41.9155+7.97568+42.3276+7.77955+42.708C7.5876+43.0808+7.31246+43.4113+6.95414+43.6993C6.59581+43.9874+6.17289+44.2037+5.68537+44.3481C5.2008+44.4917+4.72777+44.5401+4.26629+44.4933C3.80481+44.4465+3.37864+44.3151+2.98779+44.099C2.60451+43.887+2.27062+43.595+1.98613+43.2229C1.70164+42.8509+1.49016+42.4252+1.35167+41.9461C1.25142+41.5992+1.20193+41.2708+1.20322+40.9608C1.20451+40.6509+1.22956+40.3818+1.27836+40.1535L0.957056+39.9519L0.846182+39.5683L3.11664+38.8525L3.22879+39.2405C2.59648+39.6672+2.16193+40.0832+1.92515+40.4885C1.68837+40.8937+1.63412+41.3183+1.76241+41.7622C1.92214+42.3148+2.28666+42.6632+2.85597+42.8072C3.42528+42.9513+4.14899+42.8933+5.02711+42.6331C5.52343+42.4861+5.93284+42.3113+6.25533+42.1088C6.57782+41.9064+6.82332+41.694+6.99183+41.4718C7.16576+41.2351+7.27129+40.9853+7.30843+40.7221C7.34557+40.459+7.32335+40.1864+7.24179+39.9042C7.12285+39.4926+6.90526+39.159+6.58903+38.9032C6.27279+38.6474+5.85031+38.4543+5.32157+38.3237L5.44104+37.8766C5.73602+37.9264+6.00893+38.002+6.25977+38.1032C6.5106+38.2044+6.74003+38.3391+6.94805+38.5072C7.17669+38.6916+7.3771+38.9106+7.54928+39.1644C7.72146+39.4182+7.86278+39.7361+7.97323+40.1183Z" opacity="1" fill="#23048c"/>
<path d="M2.10109+32.2442L2.12479+32.5974C1.85357+32.7126+1.56637+32.8866+1.26318+33.1194C0.959998+33.3522+0.802155+33.5582+0.789653+33.7373C0.784018+33.836+0.781446+33.9576+0.781939+34.102C0.782432+34.2463+0.786166+34.3705+0.793142+34.4745L0.807608+34.69L5.90021+34.315C6.01002+34.3069+6.10554+34.2799+6.18675+34.234C6.26797+34.188+6.32909+34.1052+6.37009+33.9854C6.39283+33.9131+6.41371+33.8017+6.43274+33.6513C6.45176+33.5008+6.46389+33.3732+6.46911+33.2683L6.82601+33.2421L7.06946+36.8697L6.71257+36.896C6.69747+36.808+6.67614+36.6844+6.64859+36.5251C6.62104+36.3658+6.59312+36.258+6.56481+36.2018C6.50801+36.0861+6.43709+36.0114+6.35206+35.9778C6.26703+35.9441+6.16809+35.9314+6.05522+35.9397L0.91687+36.3181L0.931335+36.5337C0.938312+36.6376+0.951197+36.7611+0.969992+36.9041C0.988787+37.0472+1.00757+37.1672+1.02634+37.2641C1.06264+37.4396+1.24644+37.6204+1.57773+37.8065C1.90903+37.9926+2.21665+38.1228+2.50059+38.1971L2.52429+38.5503L0.666612+38.6871L0.243416+32.381L2.10109+32.2442Z" opacity="1" fill="#23048c"/>
<path d="M7.79401+25.4634L7.24576+28.9787L6.89237+28.9254C6.90582+28.7599+6.90639+28.5629+6.89409+28.3346C6.88179+28.1062+6.8409+27.9868+6.77143+27.9763C6.74727+27.9726+6.71973+27.9708+6.68882+27.9708C6.6579+27.9708+6.61512+27.9775+6.56046+27.991L5.14261+28.3404L4.79508+30.5687C4.91088+30.6389+5.047+30.7176+5.20343+30.8048C5.35987+30.892+5.49948+30.9682+5.62226+31.0332C5.78243+31.1163+5.89944+31.1689+5.9733+31.1909C6.04715+31.2129+6.09918+31.2262+6.12939+31.2307C6.22604+31.2453+6.31982+31.1842+6.41071+31.0474C6.5016+30.9106+6.58887+30.6732+6.6725+30.3352L7.0259+30.3884L6.61312+33.0351L6.25972+32.9818C6.26929+32.8809+6.27104+32.7655+6.26499+32.6359C6.25894+32.5062+6.23893+32.4015+6.20497+32.3219C6.15187+32.1867+6.07919+32.0679+5.98695+31.9656C5.89471+31.8632+5.78059+31.7723+5.64459+31.6929C4.85068+31.2132+4.05538+30.7326+3.25869+30.251C2.462+29.7694+1.58351+29.2374+0.623211+28.6551L0.765059+27.7456C2.31361+27.3709+3.53699+27.079+4.43521+26.87C5.33343+26.661+6.07886+26.4802+6.67151+26.3275C6.76827+26.3017+6.85838+26.2641+6.94184+26.2147C7.0253+26.1652+7.109+26.0894+7.19295+25.9872C7.25451+25.9096+7.30612+25.8165+7.34778+25.708C7.38944+25.5995+7.42038+25.5002+7.44061+25.4102L7.79401+25.4634ZM4.66499+28.4593L2.19009+29.0449L4.37491+30.3192L4.66499+28.4593Z" opacity="1" fill="#23048c"/>
<path d="M5.52001+19.1017L5.39102+19.4322C5.09741+19.4205+4.76437+19.4554+4.39189+19.5367C4.0194+19.618+3.78939+19.7373+3.70185+19.8944C3.65473+19.9815+3.60065+20.0906+3.53963+20.2218C3.4786+20.3529+3.4291+20.4671+3.39113+20.5644L3.3124+20.7661L8.06378+22.6062C8.16623+22.6459+8.26385+22.6623+8.35664+22.6554C8.44942+22.6486+8.5398+22.5996+8.62777+22.5085C8.67907+22.4526+8.74532+22.3606+8.82652+22.2323C8.90772+22.104+8.973+21.9935+9.02236+21.9006L9.35534+22.0296L8.03027+25.4238L7.69729+25.2948C7.72114+25.2086+7.75455+25.0873+7.79753+24.9311C7.84051+24.7748+7.86122+24.6651+7.85967+24.6019C7.85769+24.4727+7.82554+24.3747+7.76322+24.3077C7.70089+24.2408+7.61708+24.1869+7.51178+24.1461L2.71771+22.2894L2.63897+22.4911C2.601+22.5884+2.56004+22.7059+2.51609+22.8436C2.47214+22.9814+2.43799+23.0982+2.41363+23.1942C2.37163+23.3689+2.46037+23.6116+2.67985+23.9222C2.89933+24.2328+3.12126+24.4826+3.34562+24.6716L3.21663+25.002L1.48342+24.3307L3.7868+18.4305L5.52001+19.1017Z" opacity="1" fill="#23048c"/>
<path d="M11.5374+18.2593L9.67757+21.3723L9.37102+21.1894C9.40832+21.115+9.46309+21.0055+9.53532+20.8608C9.60755+20.7161+9.64894+20.6112+9.65949+20.5459C9.67849+20.4249+9.66652+20.3274+9.6236+20.2535C9.58068+20.1796+9.50943+20.113+9.40987+20.0535L5.4562+17.6941C5.36712+17.6409+5.27828+17.6112+5.18967+17.6048C5.10107+17.5984+5.00588+17.6328+4.90409+17.708C4.84007+17.7557+4.75729+17.8333+4.65573+17.9408C4.55417+18.0483+4.47137+18.1438+4.40732+18.2272L4.10077+18.0442L5.96064+14.9312L6.26719+15.1142C6.22778+15.198+6.17984+15.3035+6.12335+15.4308C6.06686+15.558+6.0273+15.6704+6.00466+15.7678C5.97728+15.8909+5.98937+15.9911+6.04094+16.0684C6.09251+16.1457+6.16415+16.2117+6.25585+16.2664L10.2056+18.6235C10.2999+18.6798+10.3911+18.7101+10.4792+18.7144C10.5673+18.7186+10.6622+18.6832+10.764+18.608C10.8207+18.5667+10.8983+18.4887+10.997+18.3741C11.0957+18.2595+11.1737+18.1603+11.2309+18.0764L11.5374+18.2593Z" opacity="1" fill="#23048c"/>
<path d="M11.2323+9.79931C11.6657+9.76046+12.0989+9.81219+12.5317+9.9545C12.9645+10.0968+13.376+10.348+13.7663+10.7081C14.114+11.0288+14.3908+11.3928+14.5968+11.8002C14.8027+12.2075+14.9172+12.6265+14.9402+13.0572C14.9617+13.5074+14.8937+13.9503+14.7361+14.3857C14.5786+14.8212+14.3003+15.2561+13.9015+15.6904C13.5794+16.041+13.2179+16.3196+12.8168+16.5262C12.4157+16.7329+11.9973+16.8546+11.5616+16.8914C11.1325+16.93+10.702+16.8776+10.2703+16.7342C9.83849+16.5907+9.43532+16.3462+9.06074+16.0007C8.67047+15.6406+8.37844+15.2469+8.18468+14.8195C7.99091+14.3921+7.88878+13.9563+7.8783+13.512C7.87023+13.0742+7.95318+12.6399+8.12714+12.2091C8.30111+11.7783+8.55429+11.382+8.88669+11.02C9.21701+10.6604+9.5854+10.3766+9.99184+10.1686C10.3983+9.9607+10.8118+9.83759+11.2323+9.79931ZM13.8463+13.8218C13.7357+13.5317+13.5722+13.2451+13.3558+12.9619C13.1394+12.6787+12.8686+12.387+12.5433+12.087C12.2675+11.8325+11.9807+11.6044+11.683+11.403C11.3854+11.2015+11.0909+11.0541+10.7995+10.9608C10.506+10.8697+10.2239+10.8476+9.95303+10.8944C9.68216+10.9412+9.43662+11.0845+9.21641+11.3242C8.84038+11.7337+8.74706+12.2221+8.93645+12.7896C9.12583+13.3571+9.57155+13.9647+10.2736+14.6124C10.5719+14.8876+10.8747+15.1242+11.182+15.322C11.4892+15.5198+11.7872+15.66+12.076+15.7425C12.3691+15.8249+12.6429+15.8393+12.8973+15.7856C13.1516+15.732+13.3837+15.5909+13.5936+15.3625C13.7992+15.1385+13.9197+14.8945+13.9551+14.6305C13.9905+14.3664+13.9542+14.0968+13.8463+13.8218Z" opacity="1" fill="#23048c"/>
<path d="M18.7762+3.98905C18.7092+4.04359+18.6153+4.12461+18.4948+4.23212C18.3742+4.33964+18.2855+4.46834+18.2287+4.61823C18.1781+4.74948+18.187+4.91221+18.2553+5.10643C18.3236+5.30065+18.4626+5.56092+18.6724+5.88724L21.1848+9.79536L20.498+10.2419L14.3686+8.23129L16.0188+10.7982C16.2236+11.1168+16.4005+11.3452+16.5495+11.4833C16.6985+11.6214+16.8453+11.6981+16.9901+11.7133C17.0959+11.7247+17.2387+11.7029+17.4186+11.6479C17.5984+11.5929+17.7384+11.5439+17.8383+11.5008L18.0316+11.8014L15.6776+13.3315L15.4844+13.0309C15.5797+12.958+15.6829+12.8645+15.7938+12.7505C15.9047+12.6365+15.9841+12.5202+16.0319+12.4017C16.0844+12.262+16.0809+12.1048+16.0216+11.9303C15.9622+11.7557+15.8186+11.4911+15.5907+11.1366L13.9256+8.54656C13.843+8.41809+13.745+8.30964+13.6317+8.22122C13.5183+8.1328+13.3927+8.07507+13.255+8.04804C13.1088+8.01921+12.961+8.01778+12.8118+8.04377C12.6625+8.06975+12.5042+8.11711+12.3368+8.18584L12.1386+7.8775L14.1992+6.538L19.5724+8.29146L18.2418+6.22178C18.0304+5.89289+17.8512+5.66236+17.7042+5.5302C17.5573+5.39804+17.4114+5.32435+17.2667+5.30915C17.1541+5.29854+17.0108+5.31971+16.8369+5.37263C16.663+5.42555+16.5261+5.47357+16.4262+5.51669L16.2329+5.21606L18.583+3.68843L18.7762+3.98905Z" opacity="1" fill="#23048c"/>
<path d="M28.1757+2.51369L27.8335+2.60345C27.6848+2.37984+27.4663+2.15795+27.1778+1.93779C26.8893+1.71762+26.6439+1.61984+26.4416+1.64444C26.3497+1.65589+26.2286+1.67659+26.0782+1.70655C25.9278+1.73651+25.7904+1.7678+25.666+1.80044L24.6841+2.05805L25.3163+4.5358L25.9428+4.37144C26.1205+4.32482+26.2694+4.26439+26.3895+4.19016C26.5097+4.11593+26.6068+4.01371+26.6811+3.8835C26.7362+3.78993+26.7764+3.64727+26.8018+3.45552C26.8271+3.26377+26.8313+3.10368+26.8144+2.97524L27.152+2.88665L27.8296+5.54233L27.492+5.63092C27.4461+5.50058+27.3587+5.35026+27.2299+5.17996C27.1012+5.00966+27.0007+4.90075+26.9285+4.85324C26.8184+4.78088+26.6908+4.7392+26.5458+4.7282C26.4008+4.7172+26.2349+4.73618+26.0483+4.78514L25.4218+4.9495L25.9553+7.04024C25.9825+7.147+26.0258+7.23294+26.0851+7.29807C26.1444+7.36321+26.2363+7.40473+26.361+7.42265C26.433+7.43225+26.5288+7.43321+26.6485+7.42553C26.7683+7.41785+26.8859+7.40518+27.0015+7.38751L27.09+7.73449L23.691+8.6262L23.6024+8.27923C23.6861+8.2478+23.7969+8.20528+23.9349+8.15166C24.0729+8.09805+24.1671+8.052+24.2173+8.01351C24.3133+7.94402+24.3726+7.86676+24.3952+7.78174C24.4177+7.69672+24.4143+7.59639+24.3848+7.48073L23.2486+3.0279C23.2229+2.92707+23.1819+2.8437+23.1255+2.77779C23.0692+2.71188+22.9769+2.66887+22.8485+2.64877C22.7565+2.63494+22.6385+2.63107+22.4947+2.63716C22.3509+2.64325+22.2423+2.65117+22.1689+2.66092L22.0804+2.31395L27.7455+0.827758L28.1757+2.51369Z" opacity="1" fill="#23048c"/>
<path d="M34.799+1.20926C35.125+1.49605+35.3855+1.84567+35.5805+2.25814C35.7755+2.6706+35.8776+3.14348+35.8866+3.67677C35.8946+4.15183+35.8228+4.60574+35.6711+5.03851C35.5194+5.47129+35.2964+5.84592+35.002+6.16242C34.6926+6.49154+34.327+6.75067+33.9051+6.93983C33.4832+7.12898+32.9789+7.23036+32.3919+7.24397C31.9181+7.25496+31.469+7.18719+31.0445+7.04067C30.62+6.89414+30.2448+6.67595+29.9188+6.3861C29.596+6.10231+29.3378+5.75417+29.1443+5.34167C28.9508+4.92917+28.8497+4.467+28.841+3.95516C28.832+3.42187+28.9148+2.93627+29.0893+2.49837C29.2639+2.06047+29.5075+1.68306+29.8201+1.36613C30.1299+1.05541+30.4996+0.81304+30.9294+0.639036C31.3592+0.465032+31.8186+0.372358+32.3077+0.361014C32.7937+0.349741+33.2513+0.418846+33.6804+0.56833C34.1095+0.717814+34.4824+0.931457+34.799+1.20926ZM33.6995+5.90289C33.8324+5.62079+33.9264+5.30281+33.9815+4.94892C34.0367+4.59504+34.0605+4.1959+34.053+3.75149C34.0467+3.37451+34.0137+3.00811+33.9542+2.65229C33.8946+2.29647+33.7983+1.9806+33.6652+1.70467C33.5291+1.42881+33.351+1.20912+33.1312+1.04558C32.9113+0.882047+32.6393+0.804038+32.3153+0.811553C31.762+0.824386+31.3461+1.09695+31.0677+1.62924C30.7892+2.16154+30.6581+2.90734+30.6743+3.86665C30.6812+4.27428+30.7191+4.6582+30.7878+5.0184C30.8566+5.3786+30.9605+5.692+31.0996+5.95859C31.2418+6.22818+31.4196+6.43638+31.6331+6.5832C31.8466+6.73002+32.1077+6.79985+32.4164+6.79269C32.7191+6.78567+32.9776+6.70302+33.192+6.54474C33.4065+6.38646+33.5756+6.17251+33.6995+5.90289Z" opacity="1" fill="#23048c"/>
<path d="M42.741+8.60515L40.3116+8.05128C40.042+7.30981+39.8125+6.71601+39.6232+6.26988C39.4338+5.82374+39.1906+5.30237+38.8936+4.70576L38.648+4.64976L38.1985+6.58256C38.1734+6.69018+38.1723+6.78595+38.1951+6.86985C38.2179+6.95376+38.28+7.03402+38.3813+7.11063C38.4323+7.14745+38.5152+7.19231+38.6298+7.24521C38.7445+7.29811+38.8439+7.33889+38.9282+7.36754L38.8468+7.71733L35.4663+6.94659L35.5476+6.5968C35.6361+6.60752+35.7529+6.62077+35.8981+6.63657C36.0434+6.65237+36.1485+6.6551+36.2136+6.64476C36.3379+6.62272+36.4279+6.57949+36.4836+6.51506C36.5394+6.45064+36.5805+6.36163+36.6069+6.24802L37.6509+1.7591C37.6759+1.65147+37.6804+1.55805+37.6643+1.47883C37.6483+1.39962+37.584+1.31885+37.4714+1.23653C37.3852+1.17594+37.2805+1.11743+37.1572+1.061C37.034+1.00456+36.9365+0.961884+36.8649+0.932956L36.9462+0.58317L40.501+1.39362C41.2959+1.57485+41.8704+1.83728+42.2247+2.18093C42.579+2.52457+42.6974+2.94901+42.5799+3.45426C42.4763+3.89971+42.2657+4.2287+41.9483+4.44123C41.6308+4.65376+41.1938+4.77686+40.6374+4.81055C40.7786+5.11979+40.9437+5.47853+41.1324+5.88675C41.3212+6.29498+41.5194+6.71322+41.727+7.14149C41.7922+7.27912+41.8848+7.45056+42.0048+7.65578C42.1248+7.86101+42.2413+7.99697+42.3543+8.06367C42.4179+8.10021+42.5008+8.138+42.6031+8.17704C42.7053+8.21609+42.7784+8.24219+42.8223+8.25537L42.741+8.60515ZM40.8001+3.18071C40.8988+2.75618+40.8526+2.41903+40.6615+2.16925C40.4704+1.91946+40.156+1.74468+39.7183+1.64491L39.3655+1.56447L38.746+4.22823L39.0854+4.30561C39.5231+4.40539+39.8892+4.36766+40.1839+4.19244C40.4786+4.01722+40.684+3.67998+40.8001+3.18071Z" opacity="1" fill="#23048c"/>
<path d="M51.374+8.10352L51.0773+7.92195C51.1318+7.66358+51.1333+7.36914+51.0817+7.03864C51.0301+6.70814+50.9252+6.4675+50.7671+6.31671C50.7003+6.2506+50.5984+6.17297+50.4616+6.08383C50.3248+5.99469+50.2108+5.92224+50.1197+5.8665L49.3156+5.37435L47.9967+7.52758L48.5667+7.87639C48.7098+7.96399+48.8504+8.0266+48.9883+8.06422C49.1263+8.10184+49.2731+8.10165+49.4288+8.06366C49.5255+8.04004+49.651+7.97098+49.8052+7.85648C49.9594+7.74198+50.0801+7.63398+50.1673+7.53249L50.464+7.71406L49.0393+10.0402L48.7426+9.85862C48.7944+9.73904+48.8393+9.57657+48.8774+9.37121C48.9156+9.16585+48.9253+9.01422+48.9065+8.91631C48.8784+8.76945+48.8166+8.6425+48.7212+8.53546C48.6257+8.42843+48.5012+8.32792+48.3477+8.23395L47.7777+7.88515L46.7934+9.49221C46.6907+9.65986+46.6217+9.80037+46.5862+9.91373C46.5508+10.0271+46.5508+10.1307+46.5864+10.2245C46.621+10.3141+46.6901+10.4014+46.7936+10.4864C46.8972+10.5714+47.0466+10.6736+47.2418+10.793C47.3329+10.8488+47.443+10.9144+47.5721+10.9898C47.7012+11.0652+47.8179+11.1258+47.9223+11.1717C48.0396+11.2255+48.1538+11.2683+48.2648+11.3003C48.3758+11.3322+48.47+11.3376+48.5473+11.3165C48.7509+11.2646+49.0113+11.1548+49.3287+10.9871C49.6461+10.8194+49.8696+10.6852+49.9993+10.5845L50.2843+10.7589L49.1151+12.4312L43.9194+9.25128L44.1071+8.9448C44.1832+8.98416+44.2885+9.0342+44.423+9.09494C44.5576+9.15567+44.6573+9.19149+44.7222+9.20238C44.8467+9.221+44.9456+9.20856+45.0187+9.16509C45.0919+9.12162+45.1589+9.05011+45.2199+8.95057L47.629+5.01738C47.6867+4.92308+47.7201+4.83639+47.7292+4.75731C47.7383+4.67823+47.7034+4.58036+47.6246+4.4637C47.5762+4.39085+47.4989+4.3039+47.3926+4.20285C47.2863+4.1018+47.2044+4.02823+47.1467+3.98214L47.3344+3.67566L52.2452+6.68113L51.374+8.10352Z" opacity="1" fill="#23048c"/>
<path d="M58.188+12.7545C58.1099+12.6902+58.0287+12.6357+57.9443+12.5909C57.8598+12.5461+57.7624+12.5102+57.6521+12.483C57.505+12.4453+57.3753+12.4324+57.2629+12.4443C57.1505+12.4561+57.0155+12.492+56.8578+12.552C56.6419+12.6363+56.3304+12.7633+55.9234+12.9328C55.5164+13.1023+55.0526+13.2946+54.5323+13.5096C54.0659+13.7046+53.5568+13.92+53.0051+14.1559C52.4535+14.3918+51.925+14.6182+51.4197+14.8353L50.7661+14.1876C51.2019+13.1366+51.6442+12.0683+52.0929+10.9825C52.5416+9.89669+52.8507+9.13951+53.0203+8.71092C53.0782+8.55215+53.1113+8.42178+53.1197+8.31982C53.128+8.21786+53.1104+8.08687+53.0667+7.92686C53.0339+7.81226+52.9974+7.71884+52.9572+7.64658C52.917+7.57433+52.8568+7.48546+52.7765+7.37997L53.0287+7.12405L55.5295+9.60183L55.2838+9.85119C55.0216+9.64763+54.8332+9.52036+54.7185+9.46938C54.6037+9.4184+54.5227+9.41697+54.4752+9.46509C54.4515+9.48915+54.43+9.51861+54.4106+9.55347C54.3913+9.58833+54.3665+9.63624+54.3365+9.69721C54.2161+9.95844+54.032+10.3975+53.7841+11.0143C53.5362+11.6311+53.1503+12.564+52.6264+13.8131C53.3821+13.4854+54.0179+13.2054+54.534+12.9731C55.05+12.7408+55.5055+12.535+55.9006+12.3558C56.0928+12.2696+56.2666+12.1834+56.422+12.0975C56.5774+12.0115+56.6853+11.9379+56.7456+11.8767C56.8146+11.8067+56.8224+11.6988+56.769+11.5529C56.7156+11.4071+56.5653+11.1901+56.318+10.9018L56.5767+10.6393L58.4466+12.492L58.188+12.7545Z" opacity="1" fill="#23048c"/>
<path d="M60.4012+18.7158L60.2143+18.422C60.3758+18.2128+60.5054+17.9478+60.6032+17.627C60.701+17.3063+60.7119+17.0432+60.6358+16.8379C60.6047+16.749+60.5473+16.6343+60.4634+16.4939C60.3796+16.3535+60.309+16.2382+60.2516+16.148L59.7451+15.3515L57.6238+16.7159L57.9828+17.2804C58.073+17.4221+58.1717+17.5402+58.279+17.6346C58.3864+17.729+58.5181+17.7932+58.6742+17.8272C58.7713+17.8483+58.9139+17.841+59.1021+17.8053C59.2903+17.7696+59.4456+17.7251+59.5681+17.6718L59.7549+17.9656L57.4634+19.4395L57.2765+19.1457C57.375+19.0605+57.4862+18.9336+57.6099+18.7651C57.7336+18.5965+57.8084+18.464+57.8342+18.3674C57.873+18.2226+57.873+18.081+57.834+17.9426C57.7951+17.8042+57.7273+17.659+57.6306+17.5069L57.2716+16.9424L55.6884+17.9607C55.5232+18.0669+55.4+18.1634+55.3188+18.2502C55.2376+18.3369+55.1925+18.4304+55.1835+18.5306C55.1755+18.6265+55.1994+18.7356+55.2552+18.8576C55.311+18.9797+55.4004+19.1374+55.5234+19.3307C55.5807+19.421+55.6509+19.5284+55.7338+19.653C55.8167+19.7777+55.8949+19.8835+55.9685+19.9706C56.0502+20.0705+56.1339+20.1593+56.2196+20.2367C56.3052+20.3142+56.3873+20.3604+56.4658+20.3753C56.671+20.4177+56.9524+20.4328+57.3101+20.4206C57.6678+20.4085+57.9268+20.3854+58.0869+20.3514L58.2664+20.6336L56.4891+21.6296L53.2162+16.4836L53.5182+16.2894C53.5692+16.3582+53.6418+16.4496+53.736+16.5633C53.8302+16.6771+53.904+16.7531+53.9574+16.7914C54.061+16.8628+54.1551+16.8949+54.2396+16.8877C54.3241+16.8806+54.4154+16.8454+54.5135+16.7824L58.3883+14.2902C58.4812+14.2305+58.5489+14.1669+58.5916+14.0995C58.6342+14.0322+58.6456+13.9286+58.6257+13.7888C58.6141+13.7019+58.5826+13.5895+58.5314+13.4518C58.4802+13.3141+58.4387+13.2118+58.4071+13.1449L58.7091+12.9507L61.8024+17.8145L60.4012+18.7158Z" opacity="1" fill="#23048c"/>
<path d="M58.8297+28.4186L58.0222+26.0567C58.5075+25.4304+58.889+24.9172+59.1668+24.5173C59.4445+24.1173+59.7576+23.6314+60.106+23.0593L60.0244+22.8205L58.1542+23.4736C58.0501+23.51+57.9685+23.5603+57.9096+23.6247C57.8506+23.689+57.8154+23.7847+57.8038+23.9119C57.7995+23.975+57.805+24.0694+57.8205+24.1952C57.836+24.321+57.8538+24.4274+57.8738+24.5144L57.5353+24.6326L56.4117+21.3459L56.7501+21.2277C56.7875+21.3086+56.8376+21.415+56.9006+21.547C56.9635+21.6789+57.0164+21.7698+57.0593+21.8196C57.1432+21.9134+57.227+21.9668+57.3108+21.9796C57.3945+21.9925+57.4913+21.9798+57.6013+21.9414L61.9446+20.4246C62.0488+20.3882+62.1301+20.342+62.1886+20.2859C62.2472+20.2298+62.2817+20.1319+62.2922+19.9921C62.2981+19.8864+62.2926+19.766+62.2756+19.631C62.2586+19.496+62.2435+19.3903+62.2303+19.3139L62.5688+19.1957L63.7503+22.6517C64.0145+23.4245+64.0944+24.0536+63.9899+24.5388C63.8854+25.024+63.5888+25.352+63.0999+25.5227C62.6689+25.6733+62.2802+25.6705+61.9338+25.5144C61.5874+25.3584+61.2538+25.0529+60.9331+24.5978C60.7459+24.8836+60.5292+25.216+60.2832+25.5951C60.0372+25.9743+59.7877+26.3668+59.5347+26.7727C59.4526+26.9018+59.3562+27.0723+59.2457+27.2843C59.1353+27.4962+59.0815+27.6681+59.0845+27.7999C59.087+27.8735+59.0986+27.9642+59.1192+28.072C59.1399+28.1799+59.1562+28.256+59.1682+28.3004L58.8297+28.4186ZM62.3965+23.8632C62.8073+23.7198+63.0681+23.4999+63.1789+23.2036C63.2897+22.9073+63.2723+22.5465+63.1269+22.121L63.0096+21.778L60.4322+22.6781L60.545+23.008C60.6905+23.4335+60.9147+23.7246+61.2176+23.8813C61.5205+24.0379+61.9135+24.0319+62.3965+23.8632Z" opacity="1" fill="#23048c"/>
<path d="M65.2348+33.6334C65.2128+33.5247+65.184+33.4259+65.1483+33.337C65.1127+33.2481+65.0669+33.1648+65.0108+33.0871C64.9259+32.9629+64.8218+32.8552+64.6985+32.7639C64.5752+32.6727+64.4391+32.585+64.2902+32.5008C63.9832+32.3303+63.6501+32.1523+63.2911+31.9668C62.932+31.7812+62.537+31.58+62.106+31.3629C61.8321+31.2199+61.6242+31.1361+61.4822+31.1113C61.3402+31.0865+61.0987+31.0905+60.7577+31.1233L59.8396+31.2116C59.73+31.2222+59.6359+31.252+59.5574+31.3011C59.4789+31.3502+59.4189+31.4353+59.3776+31.5562C59.3609+31.6101+59.3426+31.7227+59.3226+31.8939C59.3026+32.0651+59.2931+32.1907+59.2942+32.2706L58.9379+32.3049L58.6135+28.6841L58.9697+28.6498C58.9835+28.7347+59.0066+28.8563+59.0393+29.0148C59.0719+29.1733+59.1033+29.2834+59.1334+29.3451C59.1922+29.4533+59.2638+29.5241+59.3482+29.5576C59.4326+29.591+59.5326+29.6022+59.6483+29.591L60.7902+29.4811C60.8907+29.4714+60.9789+29.4614+61.0547+29.451C61.1306+29.4407+61.1936+29.4238+61.2437+29.4005C61.2996+29.3736+61.3702+29.3299+61.4554+29.2694C61.5406+29.2088+61.651+29.1305+61.7867+29.0343C62.1768+28.7598+62.5462+28.4949+62.8949+28.2397C63.2437+27.9846+63.5706+27.7423+63.8755+27.5128C64.0337+27.393+64.1591+27.2755+64.2517+27.1604C64.3443+27.0453+64.4176+26.9297+64.4717+26.8137C64.51+26.7269+64.536+26.6236+64.5499+26.5038C64.5637+26.3839+64.5694+26.2764+64.567+26.1812L64.9233+26.1469L65.2568+29.8685L64.9005+29.9027C64.8608+29.5618+64.8165+29.3337+64.7678+29.2184C64.7191+29.103+64.6612+29.0486+64.5942+29.055C64.5607+29.0582+64.4957+29.0868+64.3992+29.1407C64.3027+29.1946+64.1544+29.2882+63.9544+29.4213C63.7658+29.5441+63.5069+29.7222+63.1776+29.9554C62.8484+30.1887+62.4634+30.4682+62.0227+30.7938C62.9912+31.2854+63.6671+31.622+64.0504+31.8037C64.4337+31.9853+64.6665+32.0722+64.7487+32.0643C64.8522+32.0543+64.9257+31.9834+64.9692+31.8514C65.0126+31.7195+65.0293+31.5109+65.019+31.2256L65.3753+31.1914L65.5911+33.5991L65.2348+33.6334Z" opacity="1" fill="#23048c"/>
<path d="M63.1177+42.7476C62.7651+43.0686+62.3485+43.2939+61.8678+43.4234C61.3871+43.5529+60.8438+43.5394+60.2378+43.3829C59.7056+43.2455+59.2701+43.0197+58.9312+42.7054C58.5923+42.3912+58.3432+42.0265+58.184+41.6112C58.0262+41.19+57.9455+40.7372+57.9417+40.2527C57.9379+39.7683+58.0011+39.2781+58.1314+38.7822L58.9675+35.5979L59.3134+35.6872C59.2914+35.783+59.2691+35.904+59.2465+36.0504C59.2238+36.1967+59.2166+36.2963+59.2248+36.3491C59.2411+36.4675+59.2815+36.5572+59.3459+36.6182C59.4104+36.6792+59.4959+36.7235+59.6023+36.751L64.0631+37.9031C64.1637+37.9291+64.2596+37.9332+64.3511+37.9156C64.4425+37.898+64.5281+37.8393+64.608+37.7395C64.6879+37.6396+64.7533+37.5289+64.8042+37.4073C64.855+37.2857+64.8924+37.1915+64.9162+37.1247L65.2621+37.2141L64.3791+40.5766C64.2848+40.9358+64.138+41.3085+63.9388+41.6946C63.7395+42.0807+63.4659+42.4316+63.1177+42.7476ZM58.8467+40.6743C59.045+40.8809+59.2987+41.0597+59.6078+41.2109C59.9169+41.3621+60.2843+41.4926+60.71+41.6026C61.1268+41.7102+61.5184+41.7638+61.8847+41.7633C62.251+41.7628+62.578+41.7077+62.8656+41.5981C63.1532+41.4885+63.3973+41.3225+63.5977+41.1C63.7982+40.8775+63.9413+40.603+64.0271+40.2764C64.0544+40.1725+64.0831+40.0539+64.1134+39.9206C64.1437+39.7874+64.1659+39.6877+64.1801+39.6216L59.4044+38.3882C59.298+38.3607+59.2004+38.3505+59.1117+38.3578C59.023+38.365+58.9386+38.3947+58.8586+38.447C58.7786+38.4992+58.7085+38.5707+58.6484+38.6614C58.5883+38.752+58.5372+38.8776+58.4951+39.0379C58.407+39.3734+58.3935+39.6774+58.4545+39.95C58.5155+40.2226+58.6462+40.464+58.8467+40.6743Z" opacity="1" fill="#23048c"/>
<path d="M53.8711+48.2684L55.5904+45.1492L55.9032+45.3212C55.8338+45.4723+55.7657+45.6575+55.6989+45.8767C55.6321+46.0958+55.6295+46.2223+55.691+46.2562C55.7123+46.2679+55.7375+46.2791+55.7665+46.2898C55.7954+46.3005+55.8378+46.3089+55.8937+46.315L57.3419+46.4752L58.4317+44.4979C58.3473+44.3919+58.2468+44.2709+58.1301+44.1349C58.0135+43.9989+57.9088+43.8791+57.8161+43.7755C57.6945+43.6421+57.6029+43.5523+57.5413+43.5061C57.4796+43.4599+57.4354+43.4295+57.4087+43.4148C57.3231+43.3677+57.2143+43.3929+57.0822+43.4903C56.9502+43.5877+56.787+43.781+56.5927+44.0703L56.2799+43.8983L57.5744+41.5498L57.8872+41.7218C57.8436+41.8135+57.8024+41.9214+57.7636+42.0456C57.7248+42.1697+57.7076+42.2751+57.7121+42.3617C57.7155+42.5073+57.7429+42.6442+57.7942+42.7723C57.8455+42.9004+57.9212+43.0253+58.0214+43.147C58.6007+43.8722+59.1809+44.5988+59.7621+45.3269C60.3433+46.0549+60.9839+46.8585+61.6839+47.7377L61.239+48.5448C59.6597+48.3633+58.4135+48.2161+57.5003+48.103C56.5871+47.9899+55.8267+47.903+55.2191+47.8423C55.1196+47.8332+55.0223+47.8375+54.9271+47.8553C54.8319+47.8731+54.7275+47.9156+54.6138+47.9827C54.5295+48.0345+54.4493+48.1043+54.373+48.1921C54.2968+48.2799+54.2337+48.3626+54.1839+48.4404L53.8711+48.2684ZM57.8301+46.5281L60.3496+46.8304L58.7398+44.8777L57.8301+46.5281Z" opacity="1" fill="#23048c"/>
<path d="M54.3384+56.6415C54.4032+56.551+54.4561+56.4623+54.4973+56.3753C54.5384+56.2884+54.5686+56.1977+54.5877+56.1033C54.6215+55.956+54.6303+55.8057+54.614+55.6525C54.5977+55.4994+54.5703+55.3392+54.5317+55.1721C54.4497+54.8294+54.3557+54.4625+54.2496+54.0712C54.1436+53.68+54.0248+53.2515+53.8934+52.7857C53.8136+52.4863+53.7349+52.2759+53.6574+52.1543C53.5799+52.0328+53.4143+51.8576+53.1604+51.6288L52.477+51.0128C52.3954+50.9392+52.3101+50.8903+52.2212+50.866C52.1323+50.8417+52.0296+50.8556+51.9131+50.9077C51.8624+50.9323+51.7676+50.9956+51.6287+51.0978C51.4898+51.2001+51.3914+51.2788+51.3335+51.3342L51.0683+51.0951L53.5025+48.3832L53.7677+48.6223C53.7148+48.6904+53.6413+48.7905+53.5472+48.9228C53.4531+49.055+53.3935+49.1533+53.3686+49.2177C53.3289+49.3349+53.3253+49.4361+53.3577+49.5211C53.39+49.6061+53.4493+49.6874+53.5354+49.765L54.3855+50.5312C54.4603+50.5986+54.527+50.6567+54.5857+50.7055C54.6445+50.7543+54.6992+50.7892+54.7501+50.8103C54.8075+50.8331+54.8871+50.8552+54.9888+50.8766C55.0906+50.898+55.2224+50.9259+55.3843+50.9602C55.8483+51.0601+56.2913+51.1513+56.7133+51.234C57.1353+51.3166+57.5331+51.3919+57.9067+51.4599C58.1011+51.4946+58.2717+51.5067+58.4184+51.4963C58.5651+51.4859+58.6992+51.461+58.8207+51.4217C58.91+51.3906+59.0033+51.3392+59.1004+51.2676C59.1975+51.1959+59.2802+51.1267+59.3483+51.0599L59.6135+51.299L57.1116+54.0863L56.8464+53.8473C57.0694+53.5852+57.2067+53.3968+57.2584+53.2821C57.3101+53.1674+57.311+53.0876+57.2611+53.0426C57.2362+53.0202+57.1714+52.9918+57.0669+52.9575C56.9623+52.9232+56.7939+52.8779+56.5616+52.8215C56.3445+52.7664+56.0396+52.6972+55.6468+52.614C55.254+52.5308+54.7898+52.438+54.2543+52.3357C54.5468+53.385+54.7556+54.1128+54.8808+54.5192C55.006+54.9257+55.0992+55.1565+55.1604+55.2116C55.2375+55.2811+55.339+55.2868+55.4649+55.2287C55.5909+55.1707+55.7549+55.0404+55.9571+54.8381L56.2223+55.0771L54.6036+56.8805L54.3384+56.6415Z" opacity="1" fill="#23048c"/>
</g>
</svg>
