<?xml version="1.0" encoding="utf-8"?>
<svg viewBox="0 0 66 66" xmlns="http://www.w3.org/2000/svg" xmlns:xlink="http://www.w3.org/1999/xlink">
  <g id="am1">
    <g id="am2">
      <path id="am3" style="fill:#fff8bc;fill-opacity:1;fill-rule:evenodd;opacity:1;stroke:#f9f9f9;stroke-linecap:butt;stroke-linejoin:round;stroke-miterlimit:4;stroke-opacity:0.994792;stroke-width:2.99748;" d="M32.9252,8.9491 C32.9252,8.9491,32.9252,8.9491,32.9252,8.9491 C46.1408,8.9491,56.8542,19.6625,56.8542,32.8781 C56.8542,32.8781,56.8542,32.8781,56.8542,32.8781 C56.8542,46.0937,46.1408,56.807,32.9252,56.807 C32.9252,56.807,32.9252,56.807,32.9252,56.807 C19.7095,56.807,8.99619,46.0937,8.99619,32.8781 C8.99619,32.8781,8.99619,32.8781,8.99619,32.8781 C8.99619,19.6625,19.7095,8.9491,32.9252,8.9491 z"/>
      <path id="am4" style="fill:#fff8bc;fill-opacity:0;fill-rule:evenodd;opacity:1;stroke:#040bba;stroke-linecap:butt;stroke-linejoin:round;stroke-miterlimit:4;stroke-opacity:0.994792;stroke-width:1.5487;" d="M32.8751,8.98921 C32.8751,8.98921,32.8751,8.98921,32.8751,8.98921 C46.0906,8.98921,56.804,19.7025,56.804,32.9182 C56.804,32.9182,56.804,32.9182,56.804,32.9182 C56.804,46.1338,46.0906,56.8472,32.8751,56.8472 C32.8751,56.8472,32.8751,56.8472,32.8751,56.8472 C19.6595,56.8472,8.94606,46.1338,8.94606,32.9182 C8.94606,32.9182,8.94606,32.9182,8.94606,32.9182 C8.94606,19.7025,19.6595,8.98921,32.8751,8.98921 z"/>
    </g>
    <g id="am5">
      <g id="am6">
        <path id="am7" style="fill:#23048c;fill-opacity:1;fill-rule:evenodd;opacity:1;stroke:#000000;stroke-linecap:butt;stroke-linejoin:round;stroke-miterlimit:4;stroke-opacity:0;stroke-width:0.199832;" d="M27.4591,39.558 C27.9474,39.8793,28.3413,40.3066,28.6408,40.8399 C28.9404,41.3732,29.089,42.0257,29.0868,42.7971 C29.0848,43.4744,28.9487,44.0639,28.6782,44.5655 C28.4077,45.0671,28.0499,45.4773,27.605,45.7958 C27.1525,46.1144,26.6391,46.3509,26.0648,46.5055 C25.4905,46.66,24.8891,46.7364,24.2606,46.7346 C24.2606,46.7346,20.2247,46.723,20.2247,46.723 C20.2247,46.723,20.226,46.2828,20.226,46.2828 C20.3464,46.2794,20.497,46.2685,20.6776,46.2502 C20.8583,46.2319,20.9788,46.2096,21.0391,46.1835 C21.1747,46.1274,21.269,46.0515,21.322,45.9557 C21.3749,45.8598,21.4016,45.7442,21.402,45.6087 C21.402,45.6087,21.4182,39.9302,21.4182,39.9302 C21.4186,39.8022,21.3944,39.6865,21.3458,39.5828 C21.2972,39.4792,21.2015,39.3953,21.0587,39.3308 C20.9158,39.2665,20.7645,39.2227,20.6047,39.1997 C20.4448,39.1767,20.3216,39.1613,20.2351,39.1535 C20.2351,39.1535,20.2363,38.7132,20.2363,38.7132 C20.2363,38.7132,24.498,38.7254,24.498,38.7254 C24.9533,38.7267,25.4405,38.7864,25.9595,38.9046 C26.4784,39.0227,26.9783,39.2405,27.4591,39.558 z M26.2912,45.2953 C26.4764,44.9948,26.612,44.6368,26.6978,44.2212 C26.7837,43.8056,26.8274,43.3269,26.8289,42.785 C26.8305,42.2544,26.7754,41.7707,26.6638,41.3338 C26.5522,40.897,26.3876,40.5239,26.1702,40.2148 C25.9529,39.9055,25.6817,39.6658,25.3567,39.4956 C25.0317,39.3252,24.6622,39.2395,24.2482,39.2384 C24.1165,39.238,23.9668,39.2404,23.7994,39.2456 C23.6319,39.2507,23.5068,39.2551,23.424,39.2586 C23.424,39.2586,23.4066,45.3379,23.4066,45.3379 C23.4062,45.4734,23.4238,45.5929,23.4593,45.6965 C23.4946,45.8001,23.5556,45.8915,23.6419,45.9707 C23.7282,46.0501,23.8344,46.1115,23.9603,46.1551 C24.0862,46.1987,24.2508,46.2208,24.454,46.2214 C24.8793,46.2226,25.2445,46.1447,25.5497,45.9875 C25.8551,45.8304,26.1021,45.5996,26.2912,45.2953 z"/>
        <path id="am8" style="fill:#23048c;fill-opacity:1;fill-rule:evenodd;opacity:1;stroke:#000000;stroke-linecap:butt;stroke-linejoin:round;stroke-miterlimit:4;stroke-opacity:0;stroke-width:0.199832;" d="M36.5943,46.7134 C36.5943,46.7134,35.3807,46.7099,35.3807,46.7099 C35.3807,46.7099,35.3747,48.8492,35.3747,48.8492 C35.3747,48.8492,33.4837,48.8438,33.4837,48.8438 C33.4837,48.8438,33.4898,46.7045,33.4898,46.7045 C33.4898,46.7045,29.7531,46.6938,29.7531,46.6938 C29.7531,46.6938,29.756,45.6552,29.756,45.6552 C29.756,45.6552,33.8236,40.5358,33.8236,40.5358 C33.8236,40.5358,35.3984,40.5403,35.3984,40.5403 C35.3984,40.5403,35.3841,45.5189,35.3841,45.5189 C35.3841,45.5189,36.5978,45.5223,36.5978,45.5223 C36.5978,45.5223,36.5943,46.7134,36.5943,46.7134 z M33.4932,45.5135 C33.4932,45.5135,33.5036,41.884,33.5036,41.884 C33.5036,41.884,30.6201,45.5052,30.6201,45.5052 C30.6201,45.5052,33.4932,45.5135,33.4932,45.5135 z"/>
        <path id="am9" style="fill:#23048c;fill-opacity:1;fill-rule:evenodd;opacity:1;stroke:#000000;stroke-linecap:butt;stroke-linejoin:round;stroke-miterlimit:4;stroke-opacity:0;stroke-width:0.199832;" d="M44.4912,40.826 C44.4912,40.826,44.0622,40.8247,44.0622,40.8247 C43.9539,40.5196,43.7667,40.2105,43.5004,39.8974 C43.2341,39.5843,42.9694,39.3992,42.7061,39.3419 C42.5933,39.3152,42.4362,39.2989,42.2349,39.2926 C42.0336,39.2864,41.8671,39.2831,41.7354,39.2827 C41.7354,39.2827,40.5726,39.2794,40.5726,39.2794 C40.5726,39.2794,40.5637,42.3727,40.5637,42.3727 C40.5637,42.3727,41.3878,42.375,41.3878,42.375 C41.5948,42.3756,41.7831,42.3517,41.9525,42.3032 C42.122,42.2548,42.2766,42.1611,42.4162,42.0224 C42.503,41.936,42.5909,41.7839,42.68,41.5658 C42.769,41.3478,42.827,41.158,42.8538,40.9962 C42.8538,40.9962,43.2828,40.9974,43.2828,40.9974 C43.2828,40.9974,43.2732,44.3391,43.2732,44.3391 C43.2732,44.3391,42.8442,44.3379,42.8442,44.3379 C42.8221,44.1797,42.7652,43.9811,42.6737,43.7419 C42.5822,43.5026,42.4953,43.3378,42.4127,43.2472 C42.2889,43.1113,42.1424,43.0178,41.9732,42.9666 C41.804,42.9153,41.6084,42.8893,41.3864,42.8886 C41.3864,42.8886,40.5623,42.8863,40.5623,42.8863 C40.5623,42.8863,40.5557,45.195,40.5557,45.195 C40.555,45.4358,40.5723,45.6268,40.6077,45.7681 C40.643,45.9093,40.7095,46.0177,40.8071,46.0932 C40.901,46.165,41.0297,46.2123,41.1934,46.2354 C41.357,46.2585,41.5799,46.2704,41.8622,46.2712 C41.9939,46.2716,42.152,46.2702,42.3363,46.2669 C42.5207,46.2637,42.6826,46.2529,42.8219,46.2344 C42.98,46.216,43.1277,46.1883,43.2652,46.151 C43.4027,46.1138,43.5054,46.0596,43.5733,45.9882 C43.7545,45.8044,43.9584,45.5236,44.1853,45.146 C44.4123,44.7686,44.5616,44.4858,44.6337,44.2978 C44.6337,44.2978,45.0457,44.299,45.0457,44.299 C45.0457,44.299,44.8863,46.7935,44.8863,46.7935 C44.8863,46.7935,37.3732,46.7721,37.3732,46.7721 C37.3732,46.7721,37.3745,46.3317,37.3745,46.3317 C37.4798,46.3245,37.6229,46.3099,37.8036,46.2879 C37.9843,46.2658,38.1123,46.2398,38.1876,46.2099 C38.3308,46.1501,38.427,46.0742,38.4761,45.9821 C38.5253,45.8901,38.5502,45.7725,38.5506,45.6295 C38.5506,45.6295,38.5667,39.9793,38.5667,39.9793 C38.5671,39.8438,38.5467,39.7318,38.5055,39.6432 C38.4645,39.5546,38.3649,39.4744,38.2071,39.4025 C38.1094,39.357,37.9722,39.3152,37.7954,39.2771 C37.6186,39.2389,37.4851,39.2141,37.3949,39.2025 C37.3949,39.2025,37.396,38.7623,37.396,38.7623 C37.396,38.7623,44.4971,38.7826,44.4971,38.7826 C44.4971,38.7826,44.4912,40.826,44.4912,40.826 z"/>
      </g>
    </g>
    <g id="am10">
      <g id="am11">
        <path id="am12" style="fill:#ffffff;fill-opacity:1;fill-rule:evenodd;opacity:1;stroke:#000000;stroke-linecap:butt;stroke-linejoin:round;stroke-miterlimit:4;stroke-opacity:0.994792;stroke-width:0.299748;" d="M19.302,28.3348 C16.5221,26.4404,16.2365,23.7156,16.464,22.3876 C16.6915,21.0597,17.3767,19.1131,19.8613,17.6406 C22.3459,16.168,24.6675,16.9117,26.0456,17.4709 C27.4237,18.0302,28.7737,19.1752,29.3429,21.1533 C29.9122,23.1314,28.993,25.4502,27.7287,27.0849 C26.4643,28.7195,22.0818,30.2293,19.302,28.3348 z"/>
        <path id="am13" style="fill:#ffffff;fill-opacity:0.00260417;fill-rule:evenodd;opacity:1;stroke:#000000;stroke-linecap:butt;stroke-linejoin:round;stroke-miterlimit:4;stroke-opacity:0.994792;stroke-width:0.299748;" d="M10.0245,38.27 C10.0245,38.27,12.8579,38.1969,12.8579,38.1969"/>
        <path id="am14" style="fill:#ffffff;fill-opacity:1;fill-rule:evenodd;opacity:1;stroke:#000000;stroke-linecap:butt;stroke-linejoin:round;stroke-miterlimit:4;stroke-opacity:0.994792;stroke-width:0.299748;" d="M30.8083,38.1171 C30.8083,38.1171,27.471,29.4745,25.5269,29.1241 C23.5829,28.7737,24.0783,35.6526,23.65,37.8819"/>
        <path id="am15" style="fill:#ffffff;fill-opacity:0.00260417;fill-rule:evenodd;opacity:1;stroke:#000000;stroke-linecap:butt;stroke-linejoin:round;stroke-miterlimit:4;stroke-opacity:0.994792;stroke-width:0.299748;" d="M16.9793,37.9991 C16.9793,37.9991,41.1215,38.1409,41.1215,38.1409"/>
        <path id="am16" style="fill:#444250;fill-opacity:0.00260417;fill-rule:evenodd;opacity:1;stroke:#000000;stroke-linecap:butt;stroke-linejoin:round;stroke-miterlimit:4;stroke-opacity:0.994792;stroke-width:0.299748;" d="M18.0754,37.1877 C18.0754,37.1877,20.29,36.0222,21.5291,34.5368 C22.7682,33.0514,24.3068,30.5398,24.3068,30.5398"/>
        <path id="am17" style="fill:#ffffff;fill-opacity:0.00260417;fill-rule:evenodd;opacity:1;stroke:#000000;stroke-linecap:butt;stroke-linejoin:round;stroke-miterlimit:4;stroke-opacity:0.994792;stroke-width:0.299748;" d="M32.0543,38.0841 C32.0543,38.0841,32.1435,37.0612,31.8983,34.922 C31.653,32.7827,30.7808,32.4788,29.8605,31.7749 C28.9402,31.071,25.9651,29.3155,25.9651,29.3155"/>
        <path id="am18" style="fill:#ffffff;fill-opacity:1;fill-rule:evenodd;opacity:1;stroke:#000000;stroke-linecap:butt;stroke-linejoin:round;stroke-miterlimit:4;stroke-opacity:0.994792;stroke-width:0.299748;" d="M29.8766,39.6819 C29.7831,39.0112,31.0494,38.1438,32.0161,38.1284 C32.6698,38.118,32.8652,39.2071,32.7551,40.1218 C32.6299,41.1623,31.9755,42.5441,30.8361,42.6029 C29.6965,42.6616,29.3474,41.3628,29.7671,40.8993 C31.197,39.3202,30.2274,40.3118,29.8766,39.6819 z"/>
        <path id="am19" style="fill:#000002;fill-opacity:1;fill-rule:evenodd;opacity:1;stroke:#000000;stroke-linecap:butt;stroke-linejoin:round;stroke-miterlimit:4;stroke-opacity:0.994792;stroke-width:0.099916;" d="M21.871,25.2305 C21.7369,25.2807,21.742,25.3579,21.8346,25.6045 C21.9272,25.851,22.0241,26.0342,22.1579,25.9438 C22.2917,25.8535,22.1929,25.6178,22.1132,25.4499 C22.0335,25.282,22.005,25.1803,21.871,25.2305 z"/>
        <path id="am20" style="fill:#000002;fill-opacity:1;fill-rule:evenodd;opacity:1;stroke:#000000;stroke-linecap:butt;stroke-linejoin:round;stroke-miterlimit:4;stroke-opacity:0.994792;stroke-width:0.099916;" d="M24.5596,24.1527 C24.4348,24.1766,24.4673,24.3791,24.5196,24.5987 C24.5718,24.8184,24.6422,24.9164,24.7795,24.891 C24.9167,24.8654,24.8574,24.6902,24.8006,24.5068 C24.744,24.3233,24.6846,24.1287,24.5596,24.1527 z"/>
        <path id="am21" style="fill:#000002;fill-opacity:1;fill-rule:evenodd;opacity:1;stroke:#000000;stroke-linecap:butt;stroke-linejoin:round;stroke-miterlimit:4;stroke-opacity:0.994792;stroke-width:0.099916;" d="M25.0499,26.7377 C24.9265,26.6647,24.7952,26.8215,24.1943,27.1005 C23.5933,27.3795,23.3026,27.3108,23.2894,27.4584 C23.2762,27.6061,23.5161,27.5758,24.1972,27.3204 C24.8783,27.065,25.1571,26.8014,25.0499,26.7377 z"/>
        <path id="am22" style="fill:#ffffff;fill-opacity:1;fill-rule:evenodd;opacity:1;stroke:#000000;stroke-linecap:butt;stroke-linejoin:round;stroke-miterlimit:4;stroke-opacity:0.994792;stroke-width:0.299748;" d="M17.3602,41.8303 C17.3602,41.8303,12.2142,35.9745,12.2142,35.9745 C12.2142,35.9745,13.2893,34.9886,13.2893,34.9886 C13.2893,34.9886,18.6123,40.8385,18.6123,40.8385 C18.6123,40.8385,19.3679,42.7443,19.3679,42.7443 C19.3679,42.7443,17.3602,41.8303,17.3602,41.8303 z"/>
        <path id="am23" style="fill:#ffffff;fill-opacity:0.00260417;fill-rule:evenodd;opacity:1;stroke:#000000;stroke-linecap:butt;stroke-linejoin:round;stroke-miterlimit:4;stroke-opacity:0.994792;stroke-width:0.299748;" d="M17.2408,41.773 C17.2408,41.773,17.9481,41.5963,17.9481,41.5963 C17.9481,41.5963,17.7259,40.9435,17.7259,40.9435 C17.7259,40.9435,18.4384,41.2065,18.4384,41.2065 C18.4384,41.2065,18.444,40.4765,18.444,40.4765"/>
        <path id="am24" style="fill:#000000;fill-opacity:1;fill-rule:evenodd;opacity:1;stroke:#000000;stroke-linecap:butt;stroke-linejoin:round;stroke-miterlimit:4;stroke-opacity:0.994792;stroke-width:0.299748;" d="M18.462,42.3374 C18.462,42.3374,19.0365,41.8914,19.0365,41.8914 C19.0365,41.8914,19.3683,42.7075,19.3683,42.7075 C19.3683,42.7075,18.462,42.3374,18.462,42.3374 z"/>
        <path id="am25" style="fill:#ffffff;fill-opacity:1;fill-rule:evenodd;opacity:1;stroke:#000000;stroke-linecap:butt;stroke-linejoin:round;stroke-miterlimit:4;stroke-opacity:0.994792;stroke-width:0.299748;" d="M15.5763,37.1384 C15.6868,36.79,16.7883,36.5631,16.7883,36.5631 C16.7883,36.5631,17.4519,36.5471,17.7764,37.0319 C18.1008,37.5167,17.9174,37.7766,18.0861,38.5022 C18.2547,39.2279,18.5252,39.5004,18.451,39.9344 C18.3767,40.3686,17.9348,40.2837,17.789,40.2386 C17.6433,40.1934,17.1701,39.4087,16.992,39.0651 C16.8139,38.7214,16.5454,38.5309,16.2542,38.094 C15.9632,37.6571,15.4659,37.4869,15.5763,37.1384 z"/>
        <path id="am26" style="fill:#ffffff;fill-opacity:1;fill-rule:evenodd;opacity:1;stroke:#000000;stroke-linecap:butt;stroke-linejoin:round;stroke-miterlimit:4;stroke-opacity:0.994792;stroke-width:0.299748;" d="M13.8936,39.6605 C13.5688,39.7627,13.5994,39.9837,13.5693,40.4234 C13.5392,40.863,13.9121,41.2251,14.0207,41.3286 C14.1294,41.4321,14.8302,41.4025,15.3542,41.3706 C15.8781,41.3387,15.878,41.3635,16.1166,41.2011 C16.3552,41.0386,16.3438,40.9743,16.3085,40.7208 C16.2733,40.4672,16.1416,40.3186,15.9758,40.1867 C15.8099,40.0549,14.8686,40.0153,14.8686,40.0153 C14.8686,40.0153,14.2184,39.5585,13.8936,39.6605 z"/>
        <path id="am27" style="fill:#ffffff;fill-opacity:1;fill-rule:evenodd;opacity:1;stroke:#000000;stroke-linecap:butt;stroke-linejoin:round;stroke-miterlimit:4;stroke-opacity:0.994792;stroke-width:0.299748;" d="M13.2448,37.7316 C12.8612,37.8527,12.9035,38.1351,12.8796,38.6942 C12.8557,39.2533,13.309,39.7244,13.441,39.8592 C13.573,39.9939,14.4057,39.9751,15.0281,39.9486 C15.6504,39.9221,15.651,39.9538,15.9304,39.7534 C16.2098,39.5528,16.1944,39.4707,16.1456,39.1468 C16.0969,38.823,15.9363,38.6301,15.7354,38.4578 C15.5345,38.2854,14.4139,38.2095,14.4139,38.2095 C14.4139,38.2095,13.6282,37.6104,13.2448,37.7316 z"/>
      </g>
    </g>
    <g id="am28">
      <path id="am29" style="fill:#23048c;fill-opacity:1;fill-rule:evenodd;opacity:1;stroke:none;" d="M6.20898,50.8148 C6.17419,50.3405,6.25433,49.8738,6.44941,49.4147 C6.64449,48.9556,6.99082,48.534,7.48839,48.1496 C7.9253,47.8122,8.37207,47.6049,8.82871,47.5278 C9.28535,47.4507,9.72625,47.4754,10.1515,47.6019 C10.5803,47.7333,10.9866,47.9447,11.37,48.2363 C11.7536,48.5279,12.1003,48.876,12.4101,49.2806 C12.4101,49.2806,14.3992,51.8786,14.3992,51.8786 C14.3992,51.8786,14.1151,52.0979,14.1151,52.0979 C14.0534,52.0223,13.972,51.9309,13.8707,51.8241 C13.7696,51.7172,13.6957,51.6509,13.649,51.6253 C13.5458,51.5662,13.4503,51.5436,13.3625,51.5574 C13.2746,51.5714,13.187,51.6121,13.0996,51.6795 C13.0996,51.6795,9.43694,54.5087,9.43694,54.5087 C9.35441,54.5724,9.29184,54.6457,9.24919,54.7288 C9.20656,54.8119,9.19984,54.9153,9.22906,55.0393 C9.25827,55.1632,9.30501,55.2822,9.36927,55.3964 C9.43354,55.5106,9.48456,55.5974,9.52237,55.657 C9.52237,55.657,9.23838,55.8763,9.23838,55.8763 C9.23838,55.8763,7.13797,53.1329,7.13797,53.1329 C6.91356,52.8399,6.711,52.4971,6.5303,52.1047 C6.3496,51.7122,6.24249,51.2823,6.20898,50.8148 z M10.4792,48.6959 C10.1941,48.7273,9.89668,48.8192,9.58674,48.9719 C9.27681,49.1246,8.94708,49.3359,8.59756,49.6059 C8.25532,49.8702,7.97124,50.1474,7.74533,50.4376 C7.51941,50.7277,7.36072,51.0199,7.26926,51.3141 C7.17779,51.6084,7.15766,51.9025,7.20887,52.1964 C7.26008,52.4903,7.38768,52.7704,7.5917,53.0369 C7.65661,53.1217,7.73215,53.2165,7.81833,53.3216 C7.9045,53.4266,7.9692,53.5047,8.01243,53.5562 C8.01243,53.5562,11.9336,50.5274,11.9336,50.5274 C12.021,50.46,12.0892,50.3889,12.1384,50.3144 C12.1875,50.2398,12.2162,50.1549,12.2245,50.0599 C12.2328,49.9648,12.2199,49.8659,12.1857,49.7632 C12.1515,49.6604,12.0842,49.5437,11.9841,49.4128 C11.7745,49.1392,11.5437,48.9435,11.2915,48.8261 C11.0393,48.7086,10.7685,48.6653,10.4792,48.6959 z"/>
      <path id="am30" style="fill:#23048c;fill-opacity:1;fill-rule:evenodd;opacity:1;stroke:none;" d="M8.84958,43.3569 C8.84958,43.3569,10.4773,46.5735,10.4773,46.5735 C10.4773,46.5735,10.1585,46.7372,10.1585,46.7372 C10.1157,46.6665,10.0527,46.5623,9.96945,46.425 C9.88616,46.2875,9.81981,46.197,9.77043,46.1538 C9.67853,46.074,9.58988,46.0328,9.50448,46.0303 C9.41908,46.0278,9.3246,46.0532,9.22101,46.1063 C9.22101,46.1063,5.1078,48.2183,5.1078,48.2183 C5.01512,48.2658,4.94231,48.3256,4.88937,48.3973 C4.83642,48.4691,4.81434,48.5681,4.82313,48.694 C4.82897,48.7733,4.84997,48.8844,4.88616,49.0272 C4.92235,49.17,4.95843,49.2904,4.99441,49.3887 C4.99441,49.3887,4.67549,49.5524,4.67549,49.5524 C4.67549,49.5524,3.04774,46.3358,3.04774,46.3358 C3.04774,46.3358,3.36666,46.1722,3.36666,46.1722 C3.4162,46.2497,3.47949,46.3459,3.55653,46.4608 C3.63357,46.5757,3.70709,46.6685,3.77709,46.7389 C3.86631,46.8269,3.95735,46.8695,4.05024,46.8664 C4.14313,46.8633,4.23727,46.8373,4.33267,46.7884 C4.33267,46.7884,8.44179,44.6785,8.44179,44.6785 C8.53992,44.6282,8.61444,44.5667,8.66532,44.4943 C8.71622,44.4217,8.73727,44.3225,8.72849,44.1966 C8.72406,44.1268,8.69999,44.0199,8.65629,43.8758 C8.61259,43.7318,8.57071,43.6134,8.53066,43.5207 C8.53066,43.5207,8.84958,43.3569,8.84958,43.3569 z"/>
      <path id="am31" style="fill:#23048c;fill-opacity:1;fill-rule:evenodd;opacity:1;stroke:none;" d="M7.96653,40.0846 C8.09895,40.5428,8.1488,40.9935,8.11607,41.437 C8.08332,41.8803,7.96898,42.292,7.77301,42.6721 C7.58122,43.0446,7.30632,43.3748,6.9483,43.6626 C6.59027,43.9504,6.1677,44.1666,5.68059,44.3108 C5.19643,44.4543,4.7238,44.5027,4.26271,44.4559 C3.80161,44.4092,3.3758,44.2779,2.98528,44.062 C2.60232,43.8501,2.26871,43.5584,1.98446,43.1866 C1.70021,42.8149,1.48891,42.3896,1.35053,41.9109 C1.25037,41.5642,1.20092,41.2361,1.20221,40.9264 C1.2035,40.6167,1.22853,40.3479,1.27729,40.1198 C1.27729,40.1198,0.956252,39.9183,0.956252,39.9183 C0.956252,39.9183,0.845471,39.5351,0.845471,39.5351 C0.845471,39.5351,3.11402,38.8199,3.11402,38.8199 C3.11402,38.8199,3.22608,39.2075,3.22608,39.2075 C2.5943,39.6339,2.16011,40.0495,1.92353,40.4545 C1.68695,40.8593,1.63275,41.2836,1.76093,41.7271 C1.92053,42.2792,2.28474,42.6274,2.85357,42.7712 C3.4224,42.9152,4.1455,42.8573,5.02289,42.5973 C5.51879,42.4504,5.92786,42.2757,6.25007,42.0734 C6.57229,41.8712,6.81759,41.659,6.98596,41.437 C7.15974,41.2005,7.26518,40.9509,7.30229,40.6879 C7.3394,40.425,7.3172,40.1526,7.23571,39.8707 C7.11687,39.4594,6.89946,39.1261,6.58349,38.8705 C6.26752,38.6149,5.84539,38.422,5.3171,38.2915 C5.3171,38.2915,5.43647,37.8448,5.43647,37.8448 C5.7312,37.8945,6.00388,37.9701,6.25451,38.0712 C6.50513,38.1723,6.73437,38.3069,6.94221,38.4748 C7.17066,38.6591,7.3709,38.8779,7.54294,39.1315 C7.71497,39.3851,7.85617,39.7027,7.96653,40.0846 z"/>
      <path id="am32" style="fill:#23048c;fill-opacity:1;fill-rule:evenodd;opacity:1;stroke:none;" d="M2.09932,32.2171 C2.09932,32.2171,2.123,32.57,2.123,32.57 C1.85201,32.6851,1.56505,32.859,1.26212,33.0916 C0.959191,33.3242,0.801481,33.53,0.78899,33.709 C0.783359,33.8076,0.780789,33.9291,0.781282,34.0733 C0.781775,34.2175,0.785506,34.3416,0.792476,34.4455 C0.792476,34.4455,0.806929,34.6609,0.806929,34.6609 C0.806929,34.6609,5.89525,34.2862,5.89525,34.2862 C6.00497,34.2781,6.10041,34.2511,6.18155,34.2052 C6.2627,34.1593,6.32377,34.0765,6.36474,33.9568 C6.38746,33.8846,6.40832,33.7733,6.42733,33.623 C6.44634,33.4726,6.45846,33.3452,6.46367,33.2403 C6.46367,33.2403,6.82027,33.2142,6.82027,33.2142 C6.82027,33.2142,7.06352,36.8387,7.06352,36.8387 C7.06352,36.8387,6.70693,36.865,6.70693,36.865 C6.69184,36.7771,6.67053,36.6536,6.643,36.4944 C6.61548,36.3352,6.58758,36.2275,6.55929,36.1714 C6.50254,36.0558,6.43168,35.9811,6.34672,35.9476 C6.26176,35.9139,6.16291,35.9012,6.05013,35.9095 C6.05013,35.9095,0.9161,36.2876,0.9161,36.2876 C0.9161,36.2876,0.930552,36.503,0.930552,36.503 C0.937524,36.6068,0.950398,36.7302,0.969177,36.8731 C0.987956,37.0161,1.00672,37.136,1.02548,37.2328 C1.06175,37.4081,1.24539,37.5888,1.5764,37.7747 C1.90743,37.9607,2.21479,38.0908,2.49849,38.165 C2.49849,38.165,2.52217,38.5179,2.52217,38.5179 C2.52217,38.5179,0.666052,38.6546,0.666052,38.6546 C0.666052,38.6546,0.243211,32.3538,0.243211,32.3538 C0.243211,32.3538,2.09932,32.2171,2.09932,32.2171 z"/>
      <path id="am33" style="fill:#23048c;fill-opacity:1;fill-rule:evenodd;opacity:1;stroke:none;" d="M7.78746,25.442 C7.78746,25.442,7.23967,28.9544,7.23967,28.9544 C7.23967,28.9544,6.88658,28.9011,6.88658,28.9011 C6.90002,28.7357,6.90059,28.5389,6.8883,28.3108 C6.87601,28.0826,6.83515,27.9633,6.76574,27.9528 C6.7416,27.9491,6.71408,27.9473,6.6832,27.9473 C6.65231,27.9473,6.60956,27.954,6.55495,27.9675 C6.55495,27.9675,5.13829,28.3166,5.13829,28.3166 C5.13829,28.3166,4.79105,30.543,4.79105,30.543 C4.90675,30.6132,5.04276,30.6918,5.19906,30.7789 C5.35537,30.866,5.49486,30.9422,5.61754,31.0071 C5.77757,31.0902,5.89448,31.1427,5.96828,31.1647 C6.04207,31.1867,6.09406,31.2,6.12424,31.2045 C6.22081,31.219,6.31451,31.158,6.40532,31.0213 C6.49614,30.8846,6.58333,30.6474,6.66689,30.3097 C6.66689,30.3097,7.02,30.3629,7.02,30.3629 C7.02,30.3629,6.60756,33.0073,6.60756,33.0073 C6.60756,33.0073,6.25446,32.9541,6.25446,32.9541 C6.26402,32.8533,6.26577,32.738,6.25973,32.6085 C6.25368,32.4789,6.23369,32.3743,6.19976,32.2947 C6.1467,32.1597,6.07408,32.041,5.98192,31.9387 C5.88976,31.8364,5.77573,31.7456,5.63985,31.6663 C4.8466,31.187,4.05197,30.7068,3.25595,30.2256 C2.45993,29.7444,1.58218,29.2128,0.622687,28.631 C0.622687,28.631,0.764416,27.7223,0.764416,27.7223 C2.31167,27.3479,3.53402,27.0562,4.43148,26.8474 C5.32895,26.6386,6.07375,26.458,6.6659,26.3054 C6.76258,26.2796,6.85262,26.242,6.93601,26.1927 C7.0194,26.1432,7.10303,26.0675,7.18691,25.9654 C7.24841,25.8878,7.29998,25.7948,7.34161,25.6864 C7.38323,25.578,7.41414,25.4788,7.43436,25.3889 C7.43436,25.3889,7.78746,25.442,7.78746,25.442 z M4.66107,28.4354 C4.66107,28.4354,2.18825,29.0205,2.18825,29.0205 C2.18825,29.0205,4.37123,30.2937,4.37123,30.2937 C4.37123,30.2937,4.66107,28.4354,4.66107,28.4354 z"/>
      <path id="am34" style="fill:#23048c;fill-opacity:1;fill-rule:evenodd;opacity:1;stroke:none;" d="M5.51537,19.0857 C5.51537,19.0857,5.38649,19.4159,5.38649,19.4159 C5.09313,19.4042,4.76037,19.4391,4.3882,19.5203 C4.01602,19.6015,3.78621,19.7207,3.69874,19.8777 C3.65166,19.9647,3.59762,20.0737,3.53666,20.2048 C3.47568,20.3358,3.42622,20.4499,3.38828,20.5471 C3.38828,20.5471,3.30962,20.7487,3.30962,20.7487 C3.30962,20.7487,8.057,22.5872,8.057,22.5872 C8.15937,22.6269,8.25691,22.6433,8.34962,22.6364 C8.44232,22.6296,8.53262,22.5806,8.62052,22.4896 C8.67178,22.4337,8.73797,22.3418,8.8191,22.2136 C8.90024,22.0854,8.96546,21.975,9.01478,21.8822 C9.01478,21.8822,9.34748,22.0111,9.34748,22.0111 C9.34748,22.0111,8.02352,25.4024,8.02352,25.4024 C8.02352,25.4024,7.69082,25.2735,7.69082,25.2735 C7.71465,25.1874,7.74803,25.0662,7.79098,24.9102 C7.83392,24.754,7.85461,24.6444,7.85307,24.5812 C7.85109,24.4521,7.81896,24.3542,7.7567,24.2873 C7.69442,24.2204,7.61068,24.1666,7.50547,24.1258 C7.50547,24.1258,2.71543,22.2707,2.71543,22.2707 C2.71543,22.2707,2.63675,22.4722,2.63675,22.4722 C2.59881,22.5694,2.55789,22.6868,2.51398,22.8244 C2.47006,22.9621,2.43594,23.0788,2.4116,23.1747 C2.36964,23.3493,2.4583,23.5918,2.6776,23.9021 C2.89689,24.2124,3.11864,24.462,3.34281,24.6509 C3.34281,24.6509,3.21393,24.981,3.21393,24.981 C3.21393,24.981,1.48217,24.3103,1.48217,24.3103 C1.48217,24.3103,3.78362,18.415,3.78362,18.415 C3.78362,18.415,5.51537,19.0857,5.51537,19.0857 z"/>
      <path id="am35" style="fill:#23048c;fill-opacity:1;fill-rule:evenodd;opacity:1;stroke:none;" d="M11.5277,18.244 C11.5277,18.244,9.66944,21.3543,9.66944,21.3543 C9.66944,21.3543,9.36315,21.1716,9.36315,21.1716 C9.40041,21.0973,9.45514,20.9879,9.52731,20.8433 C9.59948,20.6987,9.64083,20.5939,9.65137,20.5286 C9.67036,20.4077,9.6584,20.3103,9.61551,20.2365 C9.57263,20.1626,9.50144,20.0961,9.40196,20.0366 C9.40196,20.0366,5.45162,17.6792,5.45162,17.6792 C5.36261,17.6261,5.27384,17.5964,5.18531,17.59 C5.09678,17.5836,5.00167,17.618,4.89997,17.6931 C4.836,17.7408,4.75329,17.8183,4.65182,17.9257 C4.55034,18.0331,4.46761,18.1286,4.40362,18.2119 C4.40362,18.2119,4.09732,18.029,4.09732,18.029 C4.09732,18.029,5.95563,14.9187,5.95563,14.9187 C5.95563,14.9187,6.26192,15.1015,6.26192,15.1015 C6.22255,15.1852,6.17465,15.2906,6.1182,15.4178 C6.06176,15.5449,6.02224,15.6572,5.99961,15.7546 C5.97226,15.8775,5.98434,15.9777,6.03586,16.0549 C6.08739,16.1321,6.15897,16.1981,6.25059,16.2527 C6.25059,16.2527,10.197,18.6079,10.197,18.6079 C10.2912,18.6641,10.3824,18.6944,10.4704,18.6987 C10.5584,18.7029,10.6532,18.6675,10.755,18.5924 C10.8116,18.5511,10.8891,18.4732,10.9878,18.3587 C11.0864,18.2442,11.1643,18.145,11.2215,18.0612 C11.2215,18.0612,11.5277,18.244,11.5277,18.244 z"/>
      <path id="am36" style="fill:#23048c;fill-opacity:1;fill-rule:evenodd;opacity:1;stroke:none;" d="M11.2229,9.79108 C11.6559,9.75226,12.0887,9.80395,12.5212,9.94614 C12.9536,10.0883,13.3648,10.3393,13.7547,10.6991 C14.1021,11.0195,14.3787,11.3832,14.5845,11.7903 C14.7903,12.1972,14.9047,12.6159,14.9276,13.0462 C14.9491,13.4961,14.8812,13.9386,14.7237,14.3736 C14.5664,14.8087,14.2883,15.2433,13.8898,15.6772 C13.568,16.0275,13.2068,16.3059,12.806,16.5123 C12.4053,16.7188,11.9872,16.8404,11.5519,16.8772 C11.1231,16.9158,10.693,16.8634,10.2617,16.7201 C9.83022,16.5768,9.42739,16.3325,9.05313,15.9873 C8.66319,15.6275,8.3714,15.2341,8.1778,14.807 C7.9842,14.38,7.88215,13.9446,7.87168,13.5006 C7.86362,13.0632,7.9465,12.6293,8.12031,12.1988 C8.29414,11.7684,8.5471,11.3724,8.87922,11.0107 C9.20927,10.6514,9.57735,10.3679,9.98344,10.1601 C10.3896,9.95233,10.8027,9.82932,11.2229,9.79108 z M13.8347,13.8102 C13.7242,13.5203,13.5608,13.234,13.3446,12.951 C13.1284,12.668,12.8578,12.3766,12.5328,12.0768 C12.2572,11.8226,11.9706,11.5946,11.6732,11.3934 C11.3758,11.1921,11.0816,11.0448,10.7904,10.9516 C10.4972,10.8606,10.2153,10.8385,9.94467,10.8852 C9.67402,10.932,9.42869,11.0752,9.20867,11.3147 C8.83295,11.7238,8.73971,12.2118,8.92894,12.7789 C9.11816,13.3459,9.56351,13.953,10.265,14.6001 C10.563,14.8751,10.8656,15.1115,11.1726,15.3091 C11.4795,15.5068,11.7773,15.6468,12.0659,15.7293 C12.3587,15.8116,12.6323,15.826,12.8865,15.7723 C13.1405,15.7188,13.3725,15.5778,13.5822,15.3496 C13.7876,15.1258,13.908,14.882,13.9434,14.6182 C13.9787,14.3543,13.9425,14.085,13.8347,13.8102 z"/>
      <path id="am37" style="fill:#23048c;fill-opacity:1;fill-rule:evenodd;opacity:1;stroke:none;" d="M18.7604,3.9857 C18.6935,4.04019,18.5997,4.12114,18.4793,4.22856 C18.3588,4.33599,18.2701,4.46459,18.2134,4.61435 C18.1628,4.74549,18.1717,4.90808,18.24,5.10214 C18.3082,5.2962,18.4471,5.55625,18.6567,5.88229 C18.6567,5.88229,21.167,9.78713,21.167,9.78713 C21.167,9.78713,20.4808,10.2333,20.4808,10.2333 C20.4808,10.2333,14.3565,8.22437,14.3565,8.22437 C14.3565,8.22437,16.0053,10.7891,16.0053,10.7891 C16.21,11.1075,16.3867,11.3357,16.5356,11.4737 C16.6845,11.6116,16.8311,11.6883,16.9758,11.7035 C17.0815,11.7148,17.2242,11.6931,17.404,11.6381 C17.5836,11.5832,17.7235,11.5342,17.8233,11.4911 C17.8233,11.4911,18.0164,11.7915,18.0164,11.7915 C18.0164,11.7915,15.6644,13.3203,15.6644,13.3203 C15.6644,13.3203,15.4714,13.02,15.4714,13.02 C15.5666,12.9471,15.6697,12.8537,15.7805,12.7398 C15.8913,12.6259,15.9707,12.5097,16.0184,12.3913 C16.0709,12.2517,16.0674,12.0946,16.0081,11.9203 C15.9488,11.7458,15.8053,11.4814,15.5776,11.1272 C15.5776,11.1272,13.9139,8.53938,13.9139,8.53938 C13.8314,8.41102,13.7335,8.30266,13.6202,8.21431 C13.5069,8.12597,13.3814,8.06828,13.2439,8.04128 C13.0978,8.01247,12.9501,8.01104,12.801,8.03701 C12.6519,8.06297,12.4937,8.11029,12.3264,8.17896 C12.3264,8.17896,12.1284,7.87088,12.1284,7.87088 C12.1284,7.87088,14.1873,6.53251,14.1873,6.53251 C14.1873,6.53251,19.556,8.28449,19.556,8.28449 C19.556,8.28449,18.2265,6.21655,18.2265,6.21655 C18.0152,5.88794,17.8362,5.6576,17.6893,5.52555 C17.5425,5.3935,17.3968,5.31988,17.2522,5.30469 C17.1397,5.29409,16.9965,5.31524,16.8228,5.36812 C16.649,5.42099,16.5122,5.46897,16.4124,5.51205 C16.4124,5.51205,16.2193,5.21168,16.2193,5.21168 C16.2193,5.21168,18.5674,3.68533,18.5674,3.68533 C18.5674,3.68533,18.7604,3.9857,18.7604,3.9857 z"/>
      <path id="am38" style="fill:#23048c;fill-opacity:1;fill-rule:evenodd;opacity:1;stroke:none;" d="M28.152,2.51158 C28.152,2.51158,27.8101,2.60126,27.8101,2.60126 C27.6615,2.37784,27.4432,2.15614,27.155,1.93616 C26.8667,1.71618,26.6215,1.61848,26.4194,1.64306 C26.3276,1.6545,26.2066,1.67518,26.0563,1.70512 C25.906,1.73505,25.7687,1.76631,25.6444,1.79893 C25.6444,1.79893,24.6634,2.05632,24.6634,2.05632 C24.6634,2.05632,25.295,4.53199,25.295,4.53199 C25.295,4.53199,25.921,4.36777,25.921,4.36777 C26.0986,4.32119,26.2473,4.26081,26.3673,4.18664 C26.4874,4.11247,26.5844,4.01034,26.6587,3.88024 C26.7137,3.78675,26.7539,3.64421,26.7793,3.45262 C26.8046,3.26103,26.8088,3.10107,26.7919,2.97274 C26.7919,2.97274,27.1292,2.88422,27.1292,2.88422 C27.1292,2.88422,27.8062,5.53767,27.8062,5.53767 C27.8062,5.53767,27.4689,5.62619,27.4689,5.62619 C27.423,5.49596,27.3357,5.34576,27.207,5.17561 C27.0784,5.00545,26.978,4.89663,26.9059,4.84916 C26.7959,4.77686,26.6684,4.73522,26.5235,4.72423 C26.3786,4.71324,26.2129,4.7322,26.0264,4.78112 C26.0264,4.78112,25.4004,4.94534,25.4004,4.94534 C25.4004,4.94534,25.9335,7.03432,25.9335,7.03432 C25.9607,7.141,26.0039,7.22686,26.0632,7.29194 C26.1224,7.35702,26.2143,7.39851,26.3389,7.41641 C26.4108,7.42601,26.5065,7.42696,26.6261,7.41929 C26.7458,7.41162,26.8633,7.39896,26.9788,7.3813 C26.9788,7.3813,27.0672,7.72799,27.0672,7.72799 C27.0672,7.72799,23.6711,8.61895,23.6711,8.61895 C23.6711,8.61895,23.5826,8.27227,23.5826,8.27227 C23.6662,8.24087,23.7769,8.19839,23.9148,8.14481 C24.0527,8.09125,24.1468,8.04523,24.197,8.00678 C24.2929,7.93735,24.3521,7.86015,24.3747,7.7752 C24.3972,7.69025,24.3938,7.59001,24.3643,7.47444 C24.3643,7.47444,23.2291,3.02536,23.2291,3.02536 C23.2034,2.92461,23.1624,2.84131,23.1061,2.77546 C23.0498,2.7096,22.9576,2.66663,22.8293,2.64654 C22.7374,2.63273,22.6195,2.62886,22.4758,2.63494 C22.3321,2.64103,22.2236,2.64894,22.1503,2.65868 C22.1503,2.65868,22.0618,2.31201,22.0618,2.31201 C22.0618,2.31201,27.7222,0.827063,27.7222,0.827063 C27.7222,0.827063,28.152,2.51158,28.152,2.51158 z"/>
      <path id="am39" style="fill:#23048c;fill-opacity:1;fill-rule:evenodd;opacity:1;stroke:none;" d="M34.7698,1.20824 C35.0955,1.49479,35.3558,1.84412,35.5506,2.25624 C35.7454,2.66836,35.8475,3.14084,35.8564,3.67368 C35.8644,4.14834,35.7927,4.60187,35.6411,5.03428 C35.4896,5.46669,35.2667,5.84101,34.9726,6.15724 C34.6635,6.48609,34.2982,6.745,33.8766,6.934 C33.4551,7.12299,32.9512,7.22429,32.3647,7.23788 C31.8913,7.24886,31.4426,7.18115,31.0184,7.03475 C30.5943,6.88835,30.2194,6.67034,29.8937,6.38073 C29.5711,6.09718,29.3131,5.74934,29.1198,5.33718 C28.9265,4.92503,28.8255,4.46325,28.8168,3.95184 C28.8078,3.41899,28.8905,2.9338,29.0649,2.49627 C29.2393,2.05874,29.4827,1.68165,29.795,1.36498 C30.1046,1.05452,30.474,0.812357,30.9034,0.638499 C31.3329,0.464641,31.7919,0.372045,32.2806,0.360711 C32.7661,0.349447,33.2234,0.418494,33.6521,0.567852 C34.0808,0.717211,34.4534,0.930674,34.7698,1.20824 z M33.6712,5.89793 C33.804,5.61607,33.8979,5.29835,33.9529,4.94476 C34.0081,4.59118,34.0319,4.19237,34.0244,3.74834 C34.0181,3.37167,33.9851,3.00558,33.9257,2.65006 C33.8661,2.29454,33.7699,1.97894,33.6369,1.70324 C33.5009,1.42761,33.323,1.2081,33.1034,1.0447 C32.8836,0.881306,32.6119,0.803362,32.2881,0.810871 C31.7353,0.823693,31.3198,1.09603,31.0416,1.62787 C30.7633,2.15972,30.6323,2.9049,30.6485,3.8634 C30.6554,4.27069,30.6933,4.65429,30.7619,5.01418 C30.8307,5.37408,30.9345,5.68722,31.0735,5.95358 C31.2155,6.22295,31.3932,6.43097,31.6065,6.57767 C31.8198,6.72437,32.0807,6.79414,32.3892,6.78698 C32.6916,6.77997,32.9499,6.69739,33.1641,6.53924 C33.3784,6.38109,33.5474,6.16732,33.6712,5.89793 z"/>
      <path id="am40" style="fill:#23048c;fill-opacity:1;fill-rule:evenodd;opacity:1;stroke:none;" d="M42.7051,8.59792 C42.7051,8.59792,40.2777,8.04452,40.2777,8.04452 C40.0084,7.30367,39.779,6.71037,39.5899,6.26461 C39.4007,5.81885,39.1577,5.29791,38.8609,4.70181 C38.8609,4.70181,38.6155,4.64585,38.6155,4.64585 C38.6155,4.64585,38.1664,6.57703,38.1664,6.57703 C38.1413,6.68456,38.1402,6.78025,38.163,6.86408 C38.1858,6.94792,38.2478,7.02811,38.349,7.10466 C38.4,7.14144,38.4828,7.18627,38.5973,7.23912 C38.7119,7.29198,38.8113,7.33272,38.8955,7.36135 C38.8955,7.36135,38.8142,7.71085,38.8142,7.71085 C38.8142,7.71085,35.4365,6.94075,35.4365,6.94075 C35.4365,6.94075,35.5177,6.59126,35.5177,6.59126 C35.6062,6.60197,35.7229,6.61521,35.8679,6.63099 C36.0131,6.64678,36.1181,6.64951,36.1832,6.63918 C36.3074,6.61716,36.3973,6.57396,36.4529,6.50959 C36.5087,6.44522,36.5498,6.35629,36.5761,6.24277 C36.5761,6.24277,37.6193,1.75762,37.6193,1.75762 C37.6442,1.65008,37.6487,1.55674,37.6327,1.47759 C37.6167,1.39844,37.5524,1.31774,37.4399,1.23549 C37.3538,1.17495,37.2492,1.11649,37.126,1.06011 C37.0029,1.00372,36.9055,0.961076,36.8339,0.932172 C36.8339,0.932172,36.9152,0.58268,36.9152,0.58268 C36.9152,0.58268,40.467,1.39245,40.467,1.39245 C41.2612,1.57353,41.8352,1.83574,42.1892,2.1791 C42.5432,2.52245,42.6615,2.94653,42.5441,3.45136 C42.4406,3.89643,42.2302,4.22515,41.9131,4.4375 C41.5958,4.64985,41.1592,4.77285,40.6033,4.80651 C40.7443,5.11549,40.9093,5.47393,41.0978,5.8818 C41.2865,6.28969,41.4845,6.70758,41.6919,7.13549 C41.7571,7.273,41.8496,7.4443,41.9695,7.64935 C42.0894,7.8544,42.2058,7.99025,42.3187,8.0569 C42.3823,8.0934,42.4651,8.13116,42.5673,8.17017 C42.6694,8.20919,42.7425,8.23526,42.7863,8.24843 C42.7863,8.24843,42.7051,8.59792,42.7051,8.59792 z M40.7658,3.17804 C40.8644,2.75386,40.8183,2.417,40.6273,2.16743 C40.4364,1.91785,40.1223,1.74321,39.6849,1.64353 C39.6849,1.64353,39.3324,1.56316,39.3324,1.56316 C39.3324,1.56316,38.7134,4.22468,38.7134,4.22468 C38.7134,4.22468,39.0526,4.30199,39.0526,4.30199 C39.4899,4.40169,39.8557,4.36399,40.1501,4.18892 C40.4446,4.01384,40.6498,3.67689,40.7658,3.17804 z"/>
      <path id="am41" style="fill:#23048c;fill-opacity:1;fill-rule:evenodd;opacity:1;stroke:none;" d="M51.3308,8.09671 C51.3308,8.09671,51.0344,7.91529,51.0344,7.91529 C51.0888,7.65714,51.0903,7.36295,51.0388,7.03273 C50.9872,6.7025,50.8824,6.46207,50.7244,6.3114 C50.6577,6.24535,50.5559,6.16778,50.4192,6.07872 C50.2825,5.98965,50.1686,5.91726,50.0776,5.86157 C50.0776,5.86157,49.2742,5.36983,49.2742,5.36983 C49.2742,5.36983,47.9564,7.52126,47.9564,7.52126 C47.9564,7.52126,48.5259,7.86977,48.5259,7.86977 C48.6689,7.9573,48.8094,8.01986,48.9471,8.05744 C49.085,8.09503,49.2317,8.09484,49.3873,8.05688 C49.4839,8.03329,49.6093,7.96428,49.7634,7.84988 C49.9174,7.73547,50.038,7.62757,50.1251,7.52616 C50.1251,7.52616,50.4216,7.70758,50.4216,7.70758 C50.4216,7.70758,48.9981,10.0318,48.9981,10.0318 C48.9981,10.0318,48.7016,9.85034,48.7016,9.85034 C48.7534,9.73086,48.7983,9.56852,48.8363,9.36334 C48.8745,9.15815,48.8842,9.00665,48.8654,8.90882 C48.8373,8.76208,48.7756,8.63524,48.6803,8.52829 C48.5848,8.42135,48.4604,8.32092,48.3071,8.22703 C48.3071,8.22703,47.7376,7.87852,47.7376,7.87852 C47.7376,7.87852,46.7541,9.48423,46.7541,9.48423 C46.6515,9.65174,46.5825,9.79214,46.5471,9.9054 C46.5117,10.0187,46.5117,10.1222,46.5473,10.2159 C46.5818,10.3054,46.6509,10.3927,46.7543,10.4776 C46.8578,10.5625,47.0071,10.6646,47.2021,10.7839 C47.2931,10.8397,47.4031,10.9052,47.5321,10.9806 C47.6611,11.0559,47.7777,11.1165,47.882,11.1623 C47.9992,11.2161,48.1133,11.2588,48.2242,11.2908 C48.3352,11.3227,48.4293,11.3281,48.5065,11.307 C48.7099,11.2551,48.9701,11.1454,49.2873,10.9779 C49.6044,10.8103,49.8277,10.6762,49.9573,10.5756 C49.9573,10.5756,50.2421,10.7499,50.2421,10.7499 C50.2421,10.7499,49.0738,12.4208,49.0738,12.4208 C49.0738,12.4208,43.8825,9.24351,43.8825,9.24351 C43.8825,9.24351,44.07,8.93728,44.07,8.93728 C44.1461,8.97661,44.2513,9.02661,44.3857,9.0873 C44.5202,9.14798,44.6198,9.18377,44.6846,9.19465 C44.809,9.21325,44.9078,9.20082,44.9809,9.15739 C45.054,9.11396,45.121,9.04251,45.1819,8.94305 C45.1819,8.94305,47.589,5.01316,47.589,5.01316 C47.6466,4.91894,47.68,4.83233,47.6891,4.75331 C47.6982,4.6743,47.6633,4.57651,47.5846,4.45995 C47.5362,4.38716,47.459,4.30028,47.3528,4.19932 C47.2466,4.09835,47.1647,4.02485,47.1071,3.97879 C47.1071,3.97879,47.2946,3.67257,47.2946,3.67257 C47.2946,3.67257,52.2013,6.67552,52.2013,6.67552 C52.2013,6.67552,51.3308,8.09671,51.3308,8.09671 z"/>
      <path id="am42" style="fill:#23048c;fill-opacity:1;fill-rule:evenodd;opacity:1;stroke:none;" d="M58.1391,12.7438 C58.0611,12.6795,57.9799,12.6251,57.8956,12.5803 C57.8112,12.5356,57.7139,12.4997,57.6037,12.4725 C57.4567,12.4348,57.3271,12.422,57.2148,12.4338 C57.1025,12.4456,56.9676,12.4815,56.81,12.5415 C56.5943,12.6257,56.2831,12.7526,55.8764,12.9219 C55.4698,13.0913,55.0063,13.2834,54.4865,13.4982 C54.0205,13.6931,53.5118,13.9083,52.9606,14.144 C52.4094,14.3797,51.8814,14.6059,51.3765,14.8228 C51.3765,14.8228,50.7234,14.1757,50.7234,14.1757 C51.1589,13.1256,51.6008,12.0582,52.0491,10.9733 C52.4975,9.88837,52.8063,9.13183,52.9757,8.7036 C53.0336,8.54496,53.0667,8.4147,53.0751,8.31283 C53.0834,8.21096,53.0658,8.08008,53.0221,7.9202 C52.9893,7.8057,52.9529,7.71235,52.9127,7.64015 C52.8725,7.56797,52.8124,7.47917,52.7322,7.37377 C52.7322,7.37377,52.9841,7.11806,52.9841,7.11806 C52.9841,7.11806,55.4828,9.59376,55.4828,9.59376 C55.4828,9.59376,55.2374,9.84291,55.2374,9.84291 C54.9754,9.63952,54.7871,9.51236,54.6725,9.46142 C54.5578,9.41049,54.4769,9.40906,54.4294,9.45714 C54.4058,9.48118,54.3843,9.51061,54.3649,9.54544 C54.3456,9.58027,54.3208,9.62814,54.2908,9.68906 C54.1705,9.95007,53.9866,10.3888,53.7389,11.005 C53.4912,11.6213,53.1056,12.5534,52.5822,13.8015 C53.3372,13.4741,53.9725,13.1943,54.4882,12.9622 C55.0037,12.7301,55.4589,12.5245,55.8536,12.3454 C56.0457,12.2593,56.2193,12.1732,56.3746,12.0873 C56.5299,12.0014,56.6377,11.9279,56.6979,11.8667 C56.7669,11.7968,56.7747,11.689,56.7213,11.5432 C56.6679,11.3975,56.5178,11.1807,56.2707,10.8926 C56.2707,10.8926,56.5292,10.6304,56.5292,10.6304 C56.5292,10.6304,58.3975,12.4815,58.3975,12.4815 C58.3975,12.4815,58.1391,12.7438,58.1391,12.7438 z"/>
      <path id="am43" style="fill:#23048c;fill-opacity:1;fill-rule:evenodd;opacity:1;stroke:none;" d="M60.3504,18.7001 C60.3504,18.7001,60.1637,18.4065,60.1637,18.4065 C60.3251,18.1975,60.4546,17.9327,60.5523,17.6122 C60.65,17.2918,60.6609,17.0289,60.5849,16.8238 C60.5538,16.7349,60.4964,16.6203,60.4126,16.48 C60.3289,16.3398,60.2583,16.2246,60.201,16.1344 C60.201,16.1344,59.6949,15.3386,59.6949,15.3386 C59.6949,15.3386,57.5754,16.7019,57.5754,16.7019 C57.5754,16.7019,57.9341,17.2659,57.9341,17.2659 C58.0242,17.4075,58.1228,17.5255,58.23,17.6198 C58.3373,17.7141,58.4689,17.7782,58.6249,17.8122 C58.7219,17.8333,58.8644,17.826,59.0524,17.7903 C59.2405,17.7547,59.3957,17.7102,59.5181,17.6569 C59.5181,17.6569,59.7047,17.9505,59.7047,17.9505 C59.7047,17.9505,57.4151,19.4232,57.4151,19.4232 C57.4151,19.4232,57.2284,19.1296,57.2284,19.1296 C57.3268,19.0445,57.4379,18.9177,57.5615,18.7493 C57.6851,18.5809,57.7598,18.4485,57.7856,18.352 C57.8244,18.2073,57.8244,18.0658,57.7854,17.9275 C57.7465,17.7892,57.6788,17.6442,57.5822,17.4922 C57.5822,17.4922,57.2235,16.9282,57.2235,16.9282 C57.2235,16.9282,55.6416,17.9456,55.6416,17.9456 C55.4765,18.0517,55.3535,18.1481,55.2723,18.2349 C55.1912,18.3215,55.1461,18.4149,55.1371,18.515 C55.1291,18.6108,55.153,18.7199,55.2088,18.8418 C55.2645,18.9638,55.3539,19.1213,55.4767,19.3145 C55.534,19.4047,55.6041,19.512,55.687,19.6365 C55.7698,19.7611,55.8479,19.8668,55.9215,19.9538 C56.0031,20.0536,56.0867,20.1424,56.1724,20.2197 C56.2579,20.2971,56.3399,20.3433,56.4184,20.3582 C56.6234,20.4005,56.9045,20.4156,57.2619,20.4034 C57.6193,20.3914,57.8781,20.3683,58.0381,20.3343 C58.0381,20.3343,58.2174,20.6163,58.2174,20.6163 C58.2174,20.6163,56.4416,21.6114,56.4416,21.6114 C56.4416,21.6114,53.1715,16.4697,53.1715,16.4697 C53.1715,16.4697,53.4732,16.2757,53.4732,16.2757 C53.5242,16.3445,53.5967,16.4358,53.6909,16.5494 C53.785,16.6631,53.8587,16.739,53.9121,16.7773 C54.0156,16.8486,54.1096,16.8807,54.194,16.8735 C54.2785,16.8664,54.3697,16.8312,54.4677,16.7683 C54.4677,16.7683,58.3392,14.2782,58.3392,14.2782 C58.4321,14.2185,58.4997,14.155,58.5424,14.0877 C58.5849,14.0204,58.5963,13.9169,58.5764,13.7772 C58.5648,13.6904,58.5334,13.5781,58.4822,13.4405 C58.4311,13.3029,58.3896,13.2007,58.358,13.1339 C58.358,13.1339,58.6598,12.9398,58.6598,12.9398 C58.6598,12.9398,61.7505,17.7995,61.7505,17.7995 C61.7505,17.7995,60.3504,18.7001,60.3504,18.7001 z"/>
      <path id="am44" style="fill:#23048c;fill-opacity:1;fill-rule:evenodd;opacity:1;stroke:none;" d="M58.7803,28.3947 C58.7803,28.3947,57.9734,26.0348,57.9734,26.0348 C58.4583,25.409,58.8395,24.8963,59.1171,24.4967 C59.3946,24.097,59.7074,23.6115,60.0555,23.0399 C60.0555,23.0399,59.974,22.8013,59.974,22.8013 C59.974,22.8013,58.1053,23.4539,58.1053,23.4539 C58.0013,23.4902,57.9198,23.5405,57.8609,23.6048 C57.802,23.6691,57.7668,23.7647,57.7552,23.8918 C57.7509,23.9549,57.7564,24.0492,57.7719,24.1749 C57.7874,24.3006,57.8052,24.4069,57.8252,24.4938 C57.8252,24.4938,57.487,24.6119,57.487,24.6119 C57.487,24.6119,56.3643,21.328,56.3643,21.328 C56.3643,21.328,56.7024,21.2099,56.7024,21.2099 C56.7398,21.2907,56.7898,21.397,56.8528,21.5289 C56.9156,21.6607,56.9685,21.7515,57.0114,21.8013 C57.0952,21.895,57.1789,21.9483,57.2626,21.9611 C57.3463,21.974,57.443,21.9613,57.5529,21.923 C57.5529,21.923,61.8926,20.4074,61.8926,20.4074 C61.9967,20.3711,62.0779,20.3249,62.1363,20.2689 C62.1949,20.2128,62.2294,20.115,62.2399,19.9753 C62.2458,19.8697,62.2403,19.7494,62.2233,19.6145 C62.2063,19.4796,62.1912,19.374,62.178,19.2977 C62.178,19.2977,62.5162,19.1796,62.5162,19.1796 C62.5162,19.1796,63.6967,22.6327,63.6967,22.6327 C63.9607,23.4048,64.0405,24.0334,63.9361,24.5182 C63.8317,25.003,63.5354,25.3307,63.0469,25.5013 C62.6162,25.6517,62.2279,25.6489,61.8818,25.493 C61.5357,25.3371,61.2023,25.0319,60.8819,24.5771 C60.6949,24.8627,60.4783,25.1948,60.2325,25.5736 C59.9868,25.9525,59.7375,26.3446,59.4847,26.7502 C59.4026,26.8792,59.3063,27.0496,59.1959,27.2614 C59.0856,27.4731,59.0319,27.6449,59.0349,27.7765 C59.0374,27.8501,59.0489,27.9407,59.0695,28.0484 C59.0902,28.1562,59.1065,28.2323,59.1185,28.2766 C59.1185,28.2766,58.7803,28.3947,58.7803,28.3947 z M62.3441,23.8431 C62.7545,23.6999,63.0151,23.4802,63.1258,23.1841 C63.2365,22.8881,63.2191,22.5276,63.0739,22.1024 C63.0739,22.1024,62.9567,21.7597,62.9567,21.7597 C62.9567,21.7597,60.3814,22.659,60.3814,22.659 C60.3814,22.659,60.4941,22.9887,60.4941,22.9887 C60.6395,23.4138,60.8635,23.7047,61.1662,23.8612 C61.4688,24.0177,61.8615,24.0117,62.3441,23.8431 z"/>
      <path id="am45" style="fill:#23048c;fill-opacity:1;fill-rule:evenodd;opacity:1;stroke:none;" d="M65.18,33.6051 C65.158,33.4965,65.1292,33.3978,65.0936,33.309 C65.058,33.2202,65.0122,33.1369,64.9562,33.0593 C64.8713,32.9352,64.7673,32.8276,64.6441,32.7364 C64.5209,32.6452,64.385,32.5576,64.2362,32.4735 C63.9294,32.3031,63.5966,32.1253,63.2379,31.9399 C62.8791,31.7545,62.4845,31.5535,62.0538,31.3365 C61.7801,31.1937,61.5724,31.1099,61.4305,31.0852 C61.2887,31.0604,61.0474,31.0644,60.7066,31.0971 C60.7066,31.0971,59.7893,31.1854,59.7893,31.1854 C59.6798,31.196,59.5858,31.2257,59.5074,31.2748 C59.4289,31.3239,59.369,31.4089,59.3277,31.5297 C59.311,31.5835,59.2927,31.696,59.2728,31.8671 C59.2528,32.0382,59.2433,32.1637,59.2444,32.2435 C59.2444,32.2435,58.8884,32.2778,58.8884,32.2778 C58.8884,32.2778,58.5643,28.66,58.5643,28.66 C58.5643,28.66,58.9202,28.6257,58.9202,28.6257 C58.9339,28.7106,58.957,28.8321,58.9897,28.9904 C59.0223,29.1488,59.0536,29.2588,59.0837,29.3204 C59.1425,29.4286,59.214,29.4993,59.2983,29.5328 C59.3827,29.5661,59.4826,29.5773,59.5982,29.5661 C59.5982,29.5661,60.7391,29.4563,60.7391,29.4563 C60.8395,29.4466,60.9277,29.4366,61.0034,29.4263 C61.0792,29.416,61.1422,29.3991,61.1922,29.3758 C61.2481,29.3489,61.3186,29.3053,61.4038,29.2448 C61.4889,29.1843,61.5992,29.106,61.7348,29.0099 C62.1246,28.7356,62.4936,28.471,62.8421,28.216 C63.1906,27.9611,63.5172,27.719,63.8218,27.4897 C63.9799,27.37,64.1052,27.2526,64.1977,27.1376 C64.2902,27.0226,64.3635,26.9071,64.4175,26.7912 C64.4558,26.7044,64.4818,26.6012,64.4957,26.4815 C64.5095,26.3617,64.5151,26.2543,64.5127,26.1592 C64.5127,26.1592,64.8688,26.1249,64.8688,26.1249 C64.8688,26.1249,65.202,29.8434,65.202,29.8434 C65.202,29.8434,64.846,29.8776,64.846,29.8776 C64.8063,29.537,64.762,29.3091,64.7134,29.1938 C64.6647,29.0785,64.6069,29.0242,64.5399,29.0306 C64.5065,29.0338,64.4415,29.0624,64.3451,29.1162 C64.2487,29.1701,64.1005,29.2636,63.9007,29.3966 C63.7122,29.5193,63.4535,29.6972,63.1245,29.9302 C62.7956,30.1633,62.4109,30.4426,61.9706,30.7679 C62.9383,31.2591,63.6136,31.5954,63.9966,31.777 C64.3796,31.9584,64.6122,32.0453,64.6943,32.0374 C64.7977,32.0274,64.8711,31.9565,64.9146,31.8246 C64.958,31.6928,64.9747,31.4844,64.9644,31.1994 C64.9644,31.1994,65.3204,31.1652,65.3204,31.1652 C65.3204,31.1652,65.536,33.5709,65.536,33.5709 C65.536,33.5709,65.18,33.6051,65.18,33.6051 z"/>
      <path id="am46" style="fill:#23048c;fill-opacity:1;fill-rule:evenodd;opacity:1;stroke:none;" d="M63.0647,42.7117 C62.7124,43.0324,62.2961,43.2575,61.8158,43.3869 C61.3355,43.5163,60.7927,43.5028,60.1872,43.3465 C59.6554,43.2092,59.2203,42.9836,58.8817,42.6695 C58.5431,42.3556,58.2942,41.9912,58.1351,41.5762 C57.9774,41.1554,57.8968,40.703,57.893,40.2189 C57.8892,39.7349,57.9524,39.2451,58.0826,38.7496 C58.0826,38.7496,58.918,35.568,58.918,35.568 C58.918,35.568,59.2636,35.6572,59.2636,35.6572 C59.2416,35.7529,59.2193,35.8738,59.1967,36.0201 C59.174,36.1663,59.1668,36.2658,59.175,36.3186 C59.1913,36.4369,59.2317,36.5265,59.296,36.5874 C59.3605,36.6484,59.4459,36.6926,59.5522,36.7201 C59.5522,36.7201,64.0093,37.8713,64.0093,37.8713 C64.1098,37.8972,64.2056,37.9013,64.297,37.8837 C64.3884,37.8662,64.4739,37.8075,64.5537,37.7078 C64.6335,37.608,64.6989,37.4974,64.7497,37.3759 C64.8005,37.2544,64.8379,37.1602,64.8617,37.0935 C64.8617,37.0935,65.2073,37.1828,65.2073,37.1828 C65.2073,37.1828,64.325,40.5425,64.325,40.5425 C64.2308,40.9014,64.0841,41.2738,63.8851,41.6596 C63.6859,42.0453,63.4126,42.3959,63.0647,42.7117 z M58.7973,40.6401 C58.9954,40.8465,59.2489,41.0252,59.5577,41.1763 C59.8666,41.3273,60.2336,41.4577,60.659,41.5676 C61.0754,41.6752,61.4667,41.7287,61.8327,41.7282 C62.1987,41.7277,62.5254,41.6727,62.8128,41.5631 C63.1001,41.4536,63.344,41.2878,63.5443,41.0655 C63.7446,40.8432,63.8876,40.5689,63.9733,40.2426 C64.0006,40.1387,64.0293,40.0202,64.0595,39.8871 C64.0898,39.754,64.112,39.6544,64.1262,39.5883 C64.1262,39.5883,59.3545,38.3559,59.3545,38.3559 C59.2482,38.3285,59.1507,38.3183,59.062,38.3256 C58.9734,38.3328,58.8891,38.3624,58.8091,38.4147 C58.7292,38.4669,58.6592,38.5383,58.5991,38.6289 C58.5391,38.7194,58.488,38.8449,58.4459,39.0051 C58.3579,39.3403,58.3444,39.6441,58.4054,39.9164 C58.4663,40.1888,58.5969,40.43,58.7973,40.6401 z"/>
      <path id="am47" style="fill:#23048c;fill-opacity:1;fill-rule:evenodd;opacity:1;stroke:none;" d="M53.8258,48.2278 C53.8258,48.2278,55.5437,45.1113,55.5437,45.1113 C55.5437,45.1113,55.8562,45.2831,55.8562,45.2831 C55.7869,45.4341,55.7188,45.6191,55.6521,45.8382 C55.5854,46.0571,55.5828,46.1835,55.6442,46.2173 C55.6655,46.229,55.6907,46.2402,55.7196,46.2509 C55.7485,46.2616,55.7909,46.27,55.8467,46.2761 C55.8467,46.2761,57.2937,46.4362,57.2937,46.4362 C57.2937,46.4362,58.3826,44.4605,58.3826,44.4605 C58.2983,44.3546,58.1979,44.2337,58.0813,44.0978 C57.9648,43.9619,57.8601,43.8422,57.7675,43.7387 C57.646,43.6054,57.5545,43.5157,57.493,43.4695 C57.4313,43.4234,57.3871,43.393,57.3605,43.3783 C57.2749,43.3313,57.1662,43.3564,57.0342,43.4538 C56.9023,43.5511,56.7393,43.7442,56.5451,44.0333 C56.5451,44.0333,56.2326,43.8614,56.2326,43.8614 C56.2326,43.8614,57.526,41.5149,57.526,41.5149 C57.526,41.5149,57.8386,41.6867,57.8386,41.6867 C57.795,41.7784,57.7538,41.8862,57.7151,42.0103 C57.6763,42.1343,57.6591,42.2396,57.6636,42.3261 C57.667,42.4716,57.6944,42.6084,57.7456,42.7364 C57.7969,42.8644,57.8725,42.9892,57.9726,43.1108 C58.5515,43.8353,59.1312,44.5613,59.7119,45.2888 C60.2926,46.0162,60.9327,46.8191,61.6321,47.6976 C61.6321,47.6976,61.1875,48.504,61.1875,48.504 C59.6096,48.3227,58.3644,48.1756,57.452,48.0626 C56.5396,47.9496,55.7798,47.8628,55.1727,47.8021 C55.0733,47.793,54.9761,47.7973,54.8809,47.8151 C54.7858,47.8329,54.6815,47.8753,54.5679,47.9424 C54.4837,47.9941,54.4035,48.0639,54.3273,48.1516 C54.2512,48.2393,54.1881,48.322,54.1384,48.3997 C54.1384,48.3997,53.8258,48.2278,53.8258,48.2278 z M57.7815,46.489 C57.7815,46.489,60.2989,46.791,60.2989,46.791 C60.2989,46.791,58.6904,44.84,58.6904,44.84 C58.6904,44.84,57.7815,46.489,57.7815,46.489 z"/>
      <path id="am48" style="fill:#23048c;fill-opacity:1;fill-rule:evenodd;opacity:1;stroke:none;" d="M54.2927,56.5939 C54.3575,56.5035,54.4103,56.4149,54.4515,56.3279 C54.4926,56.2411,54.5228,56.1505,54.5418,56.0562 C54.5756,55.909,54.5844,55.7588,54.5681,55.6057 C54.5518,55.4528,54.5244,55.2927,54.4859,55.1257 C54.4039,54.7833,54.31,54.4167,54.204,54.0258 C54.0981,53.6349,53.9794,53.2068,53.8481,52.7413 C53.7684,52.4422,53.6898,52.232,53.6123,52.1105 C53.5349,51.9891,53.3694,51.814,53.1157,51.5854 C53.1157,51.5854,52.4329,50.9699,52.4329,50.9699 C52.3514,50.8964,52.2661,50.8475,52.1773,50.8233 C52.0885,50.799,51.9859,50.8129,51.8695,50.8649 C51.8188,50.8895,51.7241,50.9528,51.5853,51.0549 C51.4465,51.1571,51.3482,51.2357,51.2904,51.2911 C51.2904,51.2911,51.0254,51.0522,51.0254,51.0522 C51.0254,51.0522,53.4575,48.3425,53.4575,48.3425 C53.4575,48.3425,53.7225,48.5814,53.7225,48.5814 C53.6697,48.6495,53.5962,48.7495,53.5022,48.8817 C53.4082,49.0138,53.3486,49.112,53.3238,49.1763 C53.2841,49.2934,53.2805,49.3946,53.3129,49.4795 C53.3451,49.5644,53.4044,49.6456,53.4904,49.7232 C53.4904,49.7232,54.3398,50.4887,54.3398,50.4887 C54.4145,50.5561,54.4812,50.6141,54.5398,50.6629 C54.5986,50.7117,54.6532,50.7465,54.7041,50.7676 C54.7614,50.7904,54.841,50.8125,54.9426,50.8339 C55.0443,50.8552,55.176,50.8831,55.3378,50.9174 C55.8014,51.0172,56.244,51.1083,56.6656,51.191 C57.0873,51.2735,57.4848,51.3487,57.858,51.4167 C58.0523,51.4513,58.2227,51.4634,58.3693,51.453 C58.5159,51.4426,58.6499,51.4178,58.7713,51.3785 C58.8605,51.3474,58.9537,51.2961,59.0507,51.2245 C59.1478,51.1529,59.2304,51.0837,59.2984,51.017 C59.2984,51.017,59.5634,51.2559,59.5634,51.2559 C59.5634,51.2559,57.0636,54.0409,57.0636,54.0409 C57.0636,54.0409,56.7986,53.8021,56.7986,53.8021 C57.0214,53.5402,57.1586,53.3519,57.2103,53.2373 C57.2619,53.1227,57.2628,53.043,57.213,52.998 C57.1881,52.9757,57.1234,52.9473,57.019,52.913 C56.9144,52.8787,56.7462,52.8335,56.5141,52.7771 C56.2972,52.7221,55.9925,52.6529,55.6,52.5698 C55.2076,52.4867,54.7438,52.3939,54.2087,52.2917 C54.501,53.3401,54.7096,54.0673,54.8347,54.4734 C54.9598,54.8795,55.0529,55.1102,55.1141,55.1652 C55.1911,55.2346,55.2925,55.2403,55.4183,55.1823 C55.5442,55.1243,55.7081,54.9942,55.9101,54.792 C55.9101,54.792,56.1751,55.0308,56.1751,55.0308 C56.1751,55.0308,54.5577,56.8327,54.5577,56.8327 C54.5577,56.8327,54.2927,56.5939,54.2927,56.5939 z"/>
    </g>
  </g>
  <g id="am49">
    <g id="am50">
      <g id="am52">
        <path style="fill:#22048c;fill-opacity:1;fill-rule:nonzero;opacity:1;stroke:none;" d="M30.8971,25.5 C30.8971,25.5,30.9258,25.3464,30.9258,25.3464 C30.9584,25.345,31.0028,25.3405,31.0591,25.3328 C31.1153,25.3251,31.1586,25.3149,31.189,25.3023 C31.2329,25.284,31.2663,25.2563,31.2894,25.2192 C31.3125,25.182,31.3285,25.1389,31.3375,25.0898 C31.3375,25.0898,31.7239,23.0031,31.7239,23.0031 C31.7296,22.9737,31.7335,22.9491,31.7357,22.9295 C31.738,22.9099,31.7391,22.8951,31.7391,22.8853 C31.7391,22.8264,31.713,22.7805,31.6606,22.7475 C31.6083,22.7146,31.5282,22.6883,31.4202,22.6687 C31.4202,22.6687,31.4489,22.5151,31.4489,22.5151 C31.4489,22.5151,32.7769,22.5151,32.7769,22.5151 C32.7769,22.5151,32.7482,22.6687,32.7482,22.6687 C32.7122,22.6715,32.6661,22.6781,32.6099,22.6887 C32.5536,22.6992,32.5114,22.71,32.4833,22.7213 C32.4372,22.7395,32.4031,22.7679,32.3812,22.8064 C32.3593,22.845,32.3438,22.8881,32.3348,22.9358 C32.3348,22.9358,31.9484,25.0246,31.9484,25.0246 C31.9439,25.0484,31.9402,25.0709,31.9374,25.0919 C31.9346,25.113,31.9332,25.1291,31.9332,25.1403 C31.9332,25.2104,31.9593,25.2591,32.0116,25.2865 C32.064,25.3138,32.1447,25.3338,32.2538,25.3464 C32.2538,25.3464,32.2251,25.5,32.2251,25.5 C32.2251,25.5,30.8971,25.5,30.8971,25.5 z M34.893,25.1782 C34.893,25.1782,34.8559,25.3675,34.8559,25.3675 C34.7445,25.4222,34.6556,25.4639,34.5893,25.4926 C34.5229,25.5214,34.4458,25.5358,34.3581,25.5358 C34.2242,25.5358,34.1201,25.494,34.0459,25.4106 C33.9716,25.3272,33.9345,25.2237,33.9345,25.1003 C33.9345,25.0667,33.9359,25.0236,33.9387,24.971 C33.9416,24.9184,33.9508,24.8528,33.9666,24.7743 C33.9666,24.7743,34.0881,24.2148,34.0881,24.2148 C34.1005,24.1545,34.1097,24.1001,34.1159,24.0517 C34.1221,24.0033,34.1252,23.9637,34.1252,23.9329 C34.1252,23.8656,34.1123,23.813,34.0864,23.7751 C34.0605,23.7373,34.0167,23.7183,33.9548,23.7183 C33.9165,23.7183,33.862,23.7369,33.7911,23.7741 C33.7202,23.8112,33.6409,23.8803,33.5532,23.9813 C33.5532,23.9813,33.2747,25.5,33.2747,25.5 C33.2747,25.5,32.7162,25.5,32.7162,25.5 C32.7162,25.5,32.9558,24.2063,32.9558,24.2063 C32.9625,24.1671,32.9713,24.1159,32.9819,24.0528 C32.9926,23.9897,32.998,23.9371,32.998,23.895 C32.998,23.8151,32.9848,23.76,32.9583,23.7299 C32.9319,23.6997,32.8838,23.6847,32.814,23.6847 C32.778,23.6847,32.7412,23.6917,32.7035,23.7057 C32.6658,23.7197,32.6335,23.733,32.6065,23.7457 C32.6065,23.7457,32.6436,23.5564,32.6436,23.5564 C32.7347,23.5101,32.8219,23.4705,32.9052,23.4375 C32.9884,23.4045,33.0672,23.3881,33.1414,23.3881 C33.2742,23.3881,33.3734,23.4207,33.4393,23.4859 C33.5051,23.5511,33.5487,23.6426,33.57,23.7604 C33.57,23.7604,33.5818,23.7604,33.5818,23.7604 C33.6921,23.6356,33.806,23.5385,33.9236,23.4691 C34.0411,23.3996,34.1663,23.3649,34.299,23.3649 C34.4239,23.3649,34.5215,23.4077,34.5918,23.4932 C34.6621,23.5788,34.6973,23.6826,34.6973,23.8046 C34.6973,23.8368,34.6953,23.882,34.6914,23.9402 C34.6874,23.9984,34.6781,24.0605,34.6635,24.1264 C34.6635,24.1264,34.5353,24.7175,34.5353,24.7175 C34.524,24.7666,34.5139,24.8227,34.5049,24.8858 C34.4959,24.9489,34.4914,24.9966,34.4914,25.0288 C34.4914,25.1101,34.5057,25.1655,34.5344,25.195 C34.5631,25.2244,34.6135,25.2392,34.6855,25.2392 C34.7192,25.2392,34.7575,25.2318,34.8002,25.2171 C34.843,25.2024,34.8739,25.1894,34.893,25.1782 z M35.676,25.5694 C35.5343,25.5694,35.417,25.555,35.3242,25.5263 C35.2314,25.4975,35.1579,25.4607,35.1039,25.4159 C35.0488,25.371,35.0111,25.323,34.9909,25.2718 C34.9706,25.2206,34.9605,25.1726,34.9605,25.1277 C34.9605,25.0463,34.985,24.9752,35.0339,24.9142 C35.0829,24.8532,35.1478,24.8227,35.2288,24.8227 C35.2963,24.8227,35.3529,24.8444,35.3984,24.8879 C35.444,24.9313,35.4819,24.986,35.5123,25.052 C35.5404,25.1123,35.5641,25.1789,35.5832,25.2518 C35.6023,25.3247,35.6158,25.3787,35.6237,25.4138 C35.7508,25.4138,35.847,25.3797,35.9123,25.3117 C35.9775,25.2437,36.0101,25.1508,36.0101,25.033 C36.0101,24.9811,36.0003,24.9377,35.9806,24.9026 C35.9609,24.8675,35.9347,24.8367,35.9021,24.81 C35.8695,24.7848,35.8279,24.7603,35.7773,24.7364 C35.7266,24.7126,35.6766,24.6901,35.6271,24.6691 C35.4909,24.6116,35.3832,24.532,35.3039,24.4304 C35.2246,24.3287,35.1849,24.2021,35.1849,24.0507 C35.1849,23.9609,35.2015,23.8764,35.2347,23.7972 C35.2679,23.718,35.3199,23.6447,35.3908,23.5774 C35.4606,23.5129,35.5489,23.4613,35.6558,23.4228 C35.7626,23.3842,35.8875,23.3649,36.0304,23.3649 C36.1159,23.3649,36.1952,23.3712,36.2683,23.3839 C36.3414,23.3965,36.4095,23.4196,36.4725,23.4533 C36.5321,23.4869,36.5785,23.5308,36.6117,23.5847 C36.6449,23.6387,36.6615,23.7043,36.6615,23.7814 C36.6615,23.8586,36.6381,23.9248,36.5915,23.9802 C36.5448,24.0356,36.4837,24.0633,36.4084,24.0633 C36.3431,24.0633,36.2888,24.0423,36.2455,24.0002 C36.2022,23.9581,36.1671,23.9083,36.1401,23.8508 C36.1131,23.7919,36.0917,23.7313,36.0759,23.6689 C36.0602,23.6065,36.0472,23.5542,36.0371,23.5122 C35.9584,23.5178,35.8867,23.5532,35.822,23.6184 C35.7573,23.6836,35.7249,23.7646,35.7249,23.8614 C35.7249,23.9203,35.7325,23.9665,35.7477,24.0002 C35.7629,24.0338,35.7834,24.0619,35.8093,24.0843 C35.8386,24.1096,35.8754,24.1331,35.9198,24.1548 C35.9643,24.1765,36.0197,24.2014,36.0861,24.2295 C36.2391,24.2968,36.3544,24.3774,36.432,24.4714 C36.5096,24.5653,36.5484,24.6894,36.5484,24.8437 C36.5484,24.9447,36.5296,25.0414,36.4919,25.134 C36.4542,25.2265,36.4005,25.3037,36.3307,25.3654 C36.2531,25.4327,36.1637,25.4835,36.0624,25.5179 C35.9612,25.5522,35.8324,25.5694,35.676,25.5694 z M37.4175,25.5547 C37.2825,25.5547,37.1745,25.5137,37.0935,25.4316 C37.0125,25.3496,36.972,25.2455,36.972,25.1193 C36.972,25.0674,36.9748,25.0183,36.9804,24.972 C36.986,24.9257,36.995,24.8661,37.0074,24.7932 C37.0074,24.7932,37.2167,23.6741,37.2167,23.6741 C37.2167,23.6741,36.9079,23.6741,36.9079,23.6741 C36.9079,23.6741,36.9484,23.4575,36.9484,23.4575 C36.9484,23.4575,37.2639,23.4575,37.2639,23.4575 C37.2639,23.4575,37.3854,22.8201,37.3854,22.8201 C37.3854,22.8201,37.9322,22.8201,37.9322,22.8201 C37.9322,22.8201,37.814,23.4575,37.814,23.4575 C37.814,23.4575,38.2713,23.4575,38.2713,23.4575 C38.2713,23.4575,38.2308,23.6741,38.2308,23.6741 C38.2308,23.6741,37.7752,23.6741,37.7752,23.6741 C37.7752,23.6741,37.5694,24.7932,37.5694,24.7932 C37.5615,24.8325,37.5539,24.8802,37.5466,24.9363 C37.5393,24.9924,37.5356,25.0288,37.5356,25.0456 C37.5356,25.1256,37.5533,25.181,37.5888,25.2118 C37.6242,25.2427,37.6785,25.2581,37.7516,25.2581 C37.7865,25.2581,37.8346,25.2497,37.8959,25.2329 C37.9572,25.216,38.0002,25.202,38.025,25.1908 C38.025,25.1908,37.9879,25.3801,37.9879,25.3801 C37.8889,25.4348,37.7896,25.4776,37.69,25.5084 C37.5905,25.5393,37.4996,25.5547,37.4175,25.5547 z M39.3733,25.1992 C39.3733,25.1992,39.3361,25.3885,39.3361,25.3885 C39.2248,25.4432,39.1359,25.4849,39.0695,25.5137 C39.0032,25.5424,38.9261,25.5568,38.8383,25.5568 C38.7033,25.5568,38.5984,25.5158,38.5236,25.4337 C38.4488,25.3517,38.4114,25.2476,38.4114,25.1214 C38.4114,25.0723,38.4142,25.0222,38.4198,24.971 C38.4255,24.9198,38.4345,24.8619,38.4468,24.7974 C38.4468,24.7974,38.5852,24.1832,38.5852,24.1832 C38.5976,24.1243,38.608,24.0686,38.6164,24.016 C38.6249,23.9634,38.6291,23.9154,38.6291,23.8719 C38.6291,23.7933,38.6162,23.7387,38.5903,23.7078 C38.5644,23.677,38.5149,23.6615,38.4418,23.6615 C38.4058,23.6615,38.3689,23.6685,38.3313,23.6826 C38.2936,23.6966,38.2612,23.7099,38.2342,23.7225 C38.2342,23.7225,38.2713,23.5332,38.2713,23.5332 C38.3625,23.4869,38.4497,23.4473,38.5329,23.4144 C38.6162,23.3814,38.6949,23.3649,38.7692,23.3649 C38.903,23.3649,39.0062,23.4052,39.0788,23.4859 C39.1514,23.5665,39.1876,23.6713,39.1876,23.8004 C39.1876,23.827,39.1851,23.874,39.1801,23.9413 C39.175,24.0086,39.1657,24.0703,39.1522,24.1264 C39.1522,24.1264,39.0138,24.7385,39.0138,24.7385 C39.0026,24.7876,38.9925,24.8437,38.9835,24.9068 C38.9745,24.9699,38.97,25.0176,38.97,25.0498 C38.97,25.1312,38.9846,25.1866,39.0138,25.216 C39.0431,25.2455,39.0937,25.2602,39.1657,25.2602 C39.1995,25.2602,39.2377,25.2528,39.2805,25.2381 C39.3232,25.2234,39.3541,25.2104,39.3733,25.1992 z M39.4087,22.6308 C39.4087,22.7374,39.3764,22.8282,39.3117,22.9032 C39.247,22.9782,39.1691,23.0157,39.078,23.0157 C38.9868,23.0157,38.9086,22.9782,38.8434,22.9032 C38.7782,22.8282,38.7455,22.7374,38.7455,22.6308 C38.7455,22.5242,38.7782,22.4331,38.8434,22.3573 C38.9086,22.2816,38.9868,22.2438,39.078,22.2438 C39.1691,22.2438,39.247,22.2816,39.3117,22.3573 C39.3764,22.4331,39.4087,22.5242,39.4087,22.6308 z M40.1225,25.5547 C39.9875,25.5547,39.8795,25.5137,39.7985,25.4316 C39.7175,25.3496,39.677,25.2455,39.677,25.1193 C39.677,25.0674,39.6798,25.0183,39.6855,24.972 C39.6911,24.9257,39.7001,24.8661,39.7125,24.7932 C39.7125,24.7932,39.9217,23.6741,39.9217,23.6741 C39.9217,23.6741,39.6129,23.6741,39.6129,23.6741 C39.6129,23.6741,39.6534,23.4575,39.6534,23.4575 C39.6534,23.4575,39.969,23.4575,39.969,23.4575 C39.969,23.4575,40.0905,22.8201,40.0905,22.8201 C40.0905,22.8201,40.6372,22.8201,40.6372,22.8201 C40.6372,22.8201,40.5191,23.4575,40.5191,23.4575 C40.5191,23.4575,40.9764,23.4575,40.9764,23.4575 C40.9764,23.4575,40.9359,23.6741,40.9359,23.6741 C40.9359,23.6741,40.4803,23.6741,40.4803,23.6741 C40.4803,23.6741,40.2744,24.7932,40.2744,24.7932 C40.2665,24.8325,40.2589,24.8802,40.2516,24.9363 C40.2443,24.9924,40.2406,25.0288,40.2406,25.0456 C40.2406,25.1256,40.2584,25.181,40.2938,25.2118 C40.3292,25.2427,40.3835,25.2581,40.4566,25.2581 C40.4915,25.2581,40.5396,25.2497,40.6009,25.2329 C40.6622,25.216,40.7053,25.202,40.73,25.1908 C40.73,25.1908,40.6929,25.3801,40.6929,25.3801 C40.5939,25.4348,40.4946,25.4776,40.395,25.5084 C40.2955,25.5393,40.2046,25.5547,40.1225,25.5547 z M42.2302,25.1655 C42.2302,25.1655,42.2184,25.1655,42.2184,25.1655 C42.1002,25.3002,41.9877,25.3997,41.8809,25.4642 C41.774,25.5287,41.6502,25.561,41.5096,25.561 C41.3847,25.561,41.2883,25.5182,41.2202,25.4327 C41.1522,25.3471,41.1181,25.2434,41.1181,25.1214 C41.1181,25.0779,41.1201,25.0337,41.124,24.9888 C41.128,24.944,41.1384,24.8809,41.1552,24.7995 C41.1552,24.7995,41.2818,24.2084,41.2818,24.2084 C41.2897,24.1692,41.299,24.1155,41.3097,24.0475 C41.3203,23.9795,41.3257,23.9294,41.3257,23.8971 C41.3257,23.82,41.313,23.7657,41.2877,23.7341 C41.2624,23.7025,41.2132,23.6868,41.1401,23.6868 C41.1041,23.6868,41.0672,23.6938,41.0295,23.7078 C40.9918,23.7218,40.9595,23.7351,40.9325,23.7478 C40.9325,23.7478,40.9696,23.5585,40.9696,23.5585 C41.0607,23.5122,41.1479,23.4726,41.2312,23.4396 C41.3144,23.4067,41.3932,23.3902,41.4674,23.3902 C41.6013,23.3902,41.7045,23.4319,41.7771,23.5153 C41.8496,23.5988,41.8859,23.7022,41.8859,23.8256 C41.8859,23.8508,41.8837,23.8971,41.8792,23.9644 C41.8747,24.0317,41.8657,24.0942,41.8522,24.1516 C41.8522,24.1516,41.729,24.7112,41.729,24.7112 C41.7177,24.7603,41.7087,24.8132,41.702,24.87 C41.6952,24.9268,41.6919,24.9678,41.6919,24.9931 C41.6919,25.059,41.7042,25.1112,41.729,25.1498 C41.7537,25.1883,41.7965,25.2076,41.8572,25.2076 C41.9011,25.2076,41.9593,25.1848,42.0319,25.1392 C42.1045,25.0937,42.1762,25.0288,42.247,24.9447 C42.247,24.9447,42.5255,23.4259,42.5255,23.4259 C42.5255,23.4259,43.0638,23.3965,43.0638,23.3965 C43.0638,23.3965,43.084,23.4259,43.084,23.4259 C43.084,23.4259,42.8444,24.7196,42.8444,24.7196 C42.8365,24.7603,42.8273,24.8143,42.8166,24.8816 C42.8059,24.9489,42.8005,24.9987,42.8005,25.0309 C42.8005,25.1123,42.8149,25.1676,42.8436,25.1971 C42.8723,25.2265,42.9226,25.2413,42.9946,25.2413 C43.0284,25.2413,43.0666,25.2339,43.1093,25.2192 C43.1521,25.2045,43.183,25.1915,43.2022,25.1803 C43.2022,25.1803,43.165,25.3696,43.165,25.3696 C43.0537,25.4243,42.9648,25.466,42.8984,25.4947 C42.832,25.5235,42.755,25.5379,42.6672,25.5379 C42.5435,25.5379,42.4445,25.5032,42.3702,25.4337 C42.296,25.3643,42.2493,25.2749,42.2302,25.1655 z M43.9312,25.5547 C43.7962,25.5547,43.6882,25.5137,43.6072,25.4316 C43.5262,25.3496,43.4857,25.2455,43.4857,25.1193 C43.4857,25.0674,43.4885,25.0183,43.4941,24.972 C43.4997,24.9257,43.5087,24.8661,43.5211,24.7932 C43.5211,24.7932,43.7303,23.6741,43.7303,23.6741 C43.7303,23.6741,43.4215,23.6741,43.4215,23.6741 C43.4215,23.6741,43.462,23.4575,43.462,23.4575 C43.462,23.4575,43.7776,23.4575,43.7776,23.4575 C43.7776,23.4575,43.8991,22.8201,43.8991,22.8201 C43.8991,22.8201,44.4458,22.8201,44.4458,22.8201 C44.4458,22.8201,44.3277,23.4575,44.3277,23.4575 C44.3277,23.4575,44.785,23.4575,44.785,23.4575 C44.785,23.4575,44.7445,23.6741,44.7445,23.6741 C44.7445,23.6741,44.2889,23.6741,44.2889,23.6741 C44.2889,23.6741,44.083,24.7932,44.083,24.7932 C44.0751,24.8325,44.0676,24.8802,44.0602,24.9363 C44.0529,24.9924,44.0493,25.0288,44.0493,25.0456 C44.0493,25.1256,44.067,25.181,44.1024,25.2118 C44.1379,25.2427,44.1921,25.2581,44.2653,25.2581 C44.3001,25.2581,44.3482,25.2497,44.4095,25.2329 C44.4709,25.216,44.5139,25.202,44.5386,25.1908 C44.5386,25.1908,44.5015,25.3801,44.5015,25.3801 C44.4025,25.4348,44.3032,25.4776,44.2037,25.5084 C44.1041,25.5393,44.0133,25.5547,43.9312,25.5547 z M45.6051,25.5694 C45.4701,25.5694,45.3517,25.5466,45.2499,25.5011 C45.1481,25.4555,45.064,25.392,44.9976,25.3107 C44.9324,25.2293,44.8834,25.1347,44.8508,25.0267 C44.8182,24.9187,44.8019,24.7995,44.8019,24.6691 C44.8019,24.5036,44.8266,24.3431,44.8761,24.1874 C44.9256,24.0317,44.9993,23.8915,45.0972,23.7667 C45.1894,23.6475,45.3064,23.5507,45.4482,23.4764 C45.5899,23.4021,45.7463,23.3649,45.9173,23.3649 C46.1187,23.3649,46.272,23.4049,46.3772,23.4848 C46.4823,23.5648,46.5349,23.6847,46.5349,23.8445 C46.5349,23.9974,46.4894,24.1289,46.3982,24.2389 C46.3071,24.349,46.1834,24.4307,46.027,24.484 C45.9033,24.5303,45.7978,24.5632,45.7106,24.5829 C45.6234,24.6025,45.5168,24.6207,45.3908,24.6376 C45.3931,24.6993,45.3998,24.7687,45.4111,24.8458 C45.4223,24.9229,45.4392,24.9888,45.4617,25.0435 C45.4887,25.1066,45.5269,25.1568,45.5764,25.1939 C45.6259,25.2311,45.6889,25.2497,45.7654,25.2497 C45.8982,25.2497,46.011,25.2178,46.1038,25.154 C46.1966,25.0902,46.2852,24.9888,46.3696,24.85 C46.3696,24.85,46.4927,24.9783,46.4927,24.9783 C46.3915,25.1578,46.2618,25.3012,46.1038,25.4085 C45.9457,25.5158,45.7795,25.5694,45.6051,25.5694 z M45.9865,23.9034 C45.9865,23.7842,45.9691,23.6927,45.9342,23.6289 C45.8993,23.5651,45.8509,23.5332,45.7891,23.5332 C45.7024,23.5332,45.6206,23.6212,45.5435,23.7972 C45.4665,23.9732,45.4173,24.1958,45.3959,24.4651 C45.4623,24.4553,45.5281,24.4426,45.5933,24.4272 C45.6586,24.4118,45.7103,24.3936,45.7486,24.3725 C45.8329,24.3262,45.8937,24.2666,45.9308,24.1937 C45.9679,24.1208,45.9865,24.024,45.9865,23.9034 z M49.5707,24.24 C49.5707,24.4167,49.5437,24.5857,49.4897,24.7469 C49.4357,24.9082,49.3592,25.0484,49.2602,25.1676 C49.1533,25.2953,49.0282,25.3938,48.8847,25.4632 C48.7413,25.5326,48.5802,25.5673,48.4013,25.5673 C48.1617,25.5673,47.9682,25.4877,47.8208,25.3286 C47.6734,25.1694,47.5997,24.9524,47.5997,24.6775 C47.5997,24.491,47.6276,24.3178,47.6833,24.158 C47.7389,23.9981,47.8169,23.8586,47.917,23.7394 C48.016,23.623,48.1375,23.5308,48.2815,23.4627 C48.4255,23.3947,48.5813,23.3607,48.7489,23.3607 C49.0032,23.3607,49.2037,23.4382,49.3505,23.5932 C49.4973,23.7481,49.5707,23.9637,49.5707,24.24 z M48.9767,24.0023 C48.9767,23.8382,48.9545,23.7176,48.9101,23.6405 C48.8656,23.5634,48.8012,23.5248,48.7168,23.5248 C48.6302,23.5248,48.5509,23.5679,48.4789,23.6542 C48.4069,23.7404,48.3484,23.867,48.3034,24.0338 C48.264,24.1727,48.2359,24.3231,48.219,24.4851 C48.2022,24.647,48.1937,24.7918,48.1937,24.9194 C48.1937,25.0891,48.2162,25.2122,48.2612,25.2886 C48.3062,25.365,48.3715,25.4032,48.457,25.4032 C48.5492,25.4032,48.6291,25.3563,48.6966,25.2623 C48.7641,25.1683,48.8175,25.0527,48.8569,24.9152 C48.8963,24.7806,48.9261,24.6316,48.9463,24.4682 C48.9666,24.3049,48.9767,24.1495,48.9767,24.0023 z M50.73,23.6741 C50.6738,24.0205,50.6251,24.321,50.584,24.5755 C50.543,24.83,50.4938,25.0961,50.4364,25.3738 C50.4083,25.5098,50.3619,25.6434,50.2972,25.7745 C50.2325,25.9056,50.1563,26.0189,50.0685,26.1142 C49.9763,26.2152,49.8764,26.2937,49.769,26.3498 C49.6615,26.4059,49.551,26.434,49.4374,26.434 C49.335,26.434,49.2521,26.4213,49.1885,26.3961 C49.1249,26.3709,49.0751,26.3386,49.0392,26.2993 C49.0043,26.2601,48.9807,26.2166,48.9683,26.1689 C48.9559,26.1212,48.9497,26.0743,48.9497,26.028 C48.9497,25.9466,48.9731,25.8748,49.0197,25.8124 C49.0664,25.75,49.1292,25.7188,49.2079,25.7188 C49.2686,25.7188,49.3212,25.7387,49.3657,25.7787 C49.4101,25.8187,49.4481,25.8667,49.4796,25.9228 C49.5111,25.9775,49.5389,26.0385,49.5631,26.1058 C49.5873,26.1731,49.6061,26.2257,49.6196,26.2636 C49.6669,26.1991,49.7113,26.102,49.753,25.9722 C49.7946,25.8425,49.8334,25.6697,49.8694,25.4537 C49.8694,25.4537,50.1714,23.6741,50.1714,23.6741 C50.1714,23.6741,49.8441,23.6741,49.8441,23.6741 C49.8441,23.6741,49.8846,23.4575,49.8846,23.4575 C49.8846,23.4575,50.2086,23.4575,50.2086,23.4575 C50.2086,23.4575,50.2373,23.2955,50.2373,23.2955 C50.2609,23.1637,50.3039,23.0343,50.3664,22.9074 C50.4288,22.7805,50.5044,22.6673,50.5933,22.5677 C50.6788,22.4695,50.7775,22.3896,50.8895,22.3279 C51.0014,22.2662,51.1136,22.2353,51.2261,22.2353 C51.324,22.2353,51.4053,22.2469,51.47,22.2701 C51.5346,22.2932,51.5856,22.3251,51.6227,22.3658 C51.6564,22.4036,51.6792,22.446,51.691,22.493 C51.7028,22.54,51.7087,22.5866,51.7087,22.6329 C51.7087,22.6638,51.704,22.6981,51.6944,22.736 C51.6848,22.7738,51.6699,22.8082,51.6497,22.8391 C51.6249,22.8741,51.5988,22.9015,51.5712,22.9211 C51.5436,22.9407,51.5034,22.9505,51.4506,22.9505 C51.3898,22.9505,51.3375,22.9306,51.2936,22.8906 C51.2497,22.8506,51.2126,22.8033,51.1823,22.7486 C51.1496,22.6911,51.1221,22.6294,51.0996,22.5635 C51.0771,22.4976,51.0585,22.445,51.0439,22.4057 C50.9977,22.4716,50.9561,22.5677,50.919,22.6939 C50.8819,22.8201,50.8436,22.994,50.8043,23.2156 C50.8043,23.2156,50.7621,23.4575,50.7621,23.4575 C50.7621,23.4575,51.189,23.4575,51.189,23.4575 C51.189,23.4575,51.1485,23.6741,51.1485,23.6741 C51.1485,23.6741,50.73,23.6741,50.73,23.6741 z M35.2415,30.5799 C35.1087,30.5799,34.9751,30.5596,34.8407,30.5189 C34.7063,30.4783,34.5884,30.4229,34.4872,30.3528 C34.4872,30.3528,34.3421,30.5,34.3421,30.5 C34.3421,30.5,34.1986,30.5,34.1986,30.5 C34.1986,30.5,34.3775,29.4209,34.3775,29.4209 C34.3775,29.4209,34.5226,29.4209,34.5226,29.4209 C34.5361,29.5261,34.5609,29.6351,34.5969,29.748 C34.6329,29.8609,34.6795,29.9615,34.7369,30.0498 C34.7932,30.141,34.8646,30.2167,34.9512,30.277 C35.0379,30.3373,35.1369,30.3675,35.2482,30.3675 C35.4114,30.3675,35.5419,30.318,35.6397,30.2192 C35.7376,30.1203,35.7865,29.9902,35.7865,29.829 C35.7865,29.7252,35.7587,29.6341,35.703,29.5555 C35.6473,29.477,35.5576,29.4097,35.4338,29.3536 C35.3551,29.3185,35.2789,29.2845,35.2052,29.2516 C35.1315,29.2186,35.0615,29.1846,34.9951,29.1495 C34.8635,29.0808,34.7645,28.983,34.6981,28.8561 C34.6317,28.7292,34.5985,28.5942,34.5985,28.4512 C34.5985,28.3194,34.6227,28.1928,34.6711,28.0715 C34.7195,27.9502,34.7892,27.8419,34.8804,27.7465 C34.9692,27.6525,35.0792,27.5772,35.2103,27.5204 C35.3413,27.4636,35.485,27.4352,35.6414,27.4352 C35.7719,27.4352,35.9013,27.4587,36.0295,27.5056 C36.1578,27.5526,36.2523,27.5978,36.313,27.6413 C36.313,27.6413,36.4396,27.5151,36.4396,27.5151 C36.4396,27.5151,36.5864,27.5151,36.5864,27.5151 C36.5864,27.5151,36.4109,28.5332,36.4109,28.5332 C36.4109,28.5332,36.2658,28.5332,36.2658,28.5332 C36.2512,28.414,36.2301,28.3018,36.2025,28.1967 C36.1749,28.0915,36.137,27.9968,36.0886,27.9127 C36.0413,27.8313,35.9826,27.7665,35.9123,27.7181 C35.8419,27.6697,35.7573,27.6455,35.6583,27.6455 C35.521,27.6455,35.4066,27.6932,35.3149,27.7886 C35.2232,27.8839,35.1774,28.0038,35.1774,28.1483 C35.1774,28.2492,35.2049,28.3376,35.26,28.4133 C35.3152,28.489,35.4024,28.5549,35.5216,28.611 C35.5913,28.6433,35.6645,28.6766,35.741,28.711 C35.8175,28.7453,35.8906,28.7807,35.9603,28.8172 C36.0908,28.8845,36.1938,28.976,36.2692,29.0917 C36.3445,29.2074,36.3822,29.3445,36.3822,29.5029 C36.3822,29.653,36.3547,29.7939,36.2995,29.9257 C36.2444,30.0576,36.1673,30.1712,36.0683,30.2665 C35.9637,30.3675,35.8417,30.445,35.7022,30.4989 C35.5627,30.5529,35.4091,30.5799,35.2415,30.5799 z M37.4673,30.5694 C37.2085,30.5694,37.0069,30.4888,36.8623,30.3275 C36.7177,30.1662,36.6455,29.9447,36.6455,29.6628 C36.6455,29.4931,36.6685,29.3322,36.7146,29.18 C36.7608,29.0279,36.8316,28.8894,36.9273,28.7646 C37.0161,28.6468,37.1303,28.5507,37.2698,28.4764 C37.4093,28.4021,37.5651,28.3649,37.7373,28.3649 C37.9364,28.3649,38.0885,28.4105,38.1937,28.5017 C38.2989,28.5928,38.3515,28.7183,38.3515,28.8782 C38.3515,28.9217,38.3459,28.97,38.3346,29.0233 C38.3234,29.0766,38.3065,29.1215,38.284,29.158 C38.2559,29.2028,38.2252,29.2372,38.192,29.261 C38.1588,29.2849,38.1091,29.2968,38.0427,29.2968 C37.9549,29.2968,37.8866,29.2698,37.8377,29.2158 C37.7887,29.1618,37.7643,29.1054,37.7643,29.0465 C37.7643,28.9764,37.7761,28.9069,37.7997,28.8382 C37.8233,28.7695,37.8531,28.6973,37.8891,28.6216 C37.879,28.6061,37.8585,28.5872,37.8275,28.5648 C37.7966,28.5423,37.7564,28.5311,37.7069,28.5311 C37.5753,28.5311,37.4661,28.6303,37.3795,28.8288 C37.2929,29.0272,37.2496,29.2729,37.2496,29.566 C37.2496,29.789,37.2825,29.958,37.3483,30.073 C37.4141,30.188,37.5078,30.2455,37.6293,30.2455 C37.753,30.2455,37.8562,30.2157,37.9389,30.1561 C38.0216,30.0965,38.1063,29.9945,38.1929,29.85 C38.1929,29.85,38.3144,29.9783,38.3144,29.9783 C38.2221,30.1564,38.1001,30.2995,37.9482,30.4074 C37.7963,30.5154,37.636,30.5694,37.4673,30.5694 z M39.5817,30.1992 C39.5817,30.1992,39.5445,30.3885,39.5445,30.3885 C39.4332,30.4432,39.3443,30.4849,39.2779,30.5137 C39.2116,30.5424,39.1345,30.5568,39.0467,30.5568 C38.9117,30.5568,38.8068,30.5158,38.732,30.4337 C38.6572,30.3517,38.6198,30.2476,38.6198,30.1214 C38.6198,30.0723,38.6226,30.0222,38.6283,29.971 C38.6339,29.9198,38.6429,29.8619,38.6552,29.7974 C38.6552,29.7974,38.7936,29.1832,38.7936,29.1832 C38.806,29.1243,38.8164,29.0686,38.8248,29.016 C38.8333,28.9634,38.8375,28.9154,38.8375,28.8719 C38.8375,28.7933,38.8246,28.7387,38.7987,28.7078 C38.7728,28.677,38.7233,28.6615,38.6502,28.6615 C38.6142,28.6615,38.5773,28.6685,38.5397,28.6826 C38.502,28.6966,38.4696,28.7099,38.4426,28.7225 C38.4426,28.7225,38.4798,28.5332,38.4798,28.5332 C38.5709,28.4869,38.6581,28.4473,38.7413,28.4144 C38.8246,28.3814,38.9033,28.3649,38.9776,28.3649 C39.1114,28.3649,39.2146,28.4052,39.2872,28.4859 C39.3598,28.5665,39.3961,28.6713,39.3961,28.8004 C39.3961,28.827,39.3935,28.874,39.3885,28.9413 C39.3834,29.0086,39.3741,29.0703,39.3606,29.1264 C39.3606,29.1264,39.2222,29.7385,39.2222,29.7385 C39.211,29.7876,39.2009,29.8437,39.1919,29.9068 C39.1829,29.9699,39.1784,30.0176,39.1784,30.0498 C39.1784,30.1312,39.193,30.1866,39.2222,30.216 C39.2515,30.2455,39.3021,30.2602,39.3741,30.2602 C39.4079,30.2602,39.4461,30.2528,39.4889,30.2381 C39.5316,30.2234,39.5625,30.2104,39.5817,30.1992 z M39.6171,27.6308 C39.6171,27.7374,39.5848,27.8282,39.5201,27.9032 C39.4554,27.9782,39.3775,28.0157,39.2864,28.0157 C39.1952,28.0157,39.1171,27.9782,39.0518,27.9032 C38.9866,27.8282,38.9539,27.7374,38.9539,27.6308 C38.9539,27.5242,38.9866,27.4331,39.0518,27.3573 C39.1171,27.2816,39.1952,27.2438,39.2864,27.2438 C39.3775,27.2438,39.4554,27.2816,39.5201,27.3573 C39.5848,27.4331,39.6171,27.5242,39.6171,27.6308 z M40.5638,30.5694 C40.4288,30.5694,40.3104,30.5466,40.2086,30.5011 C40.1068,30.4555,40.0227,30.392,39.9563,30.3107 C39.891,30.2293,39.8421,30.1347,39.8095,30.0267 C39.7769,29.9187,39.7605,29.7995,39.7605,29.6691 C39.7605,29.5036,39.7853,29.3431,39.8348,29.1874 C39.8843,29.0317,39.958,28.8915,40.0559,28.7667 C40.1481,28.6475,40.2651,28.5507,40.4069,28.4764 C40.5486,28.4021,40.705,28.3649,40.876,28.3649 C41.0773,28.3649,41.2306,28.4049,41.3358,28.4848 C41.441,28.5648,41.4936,28.6847,41.4936,28.8445 C41.4936,28.9974,41.448,29.1289,41.3569,29.2389 C41.2658,29.349,41.142,29.4307,40.9857,29.484 C40.8619,29.5303,40.7564,29.5632,40.6693,29.5829 C40.5821,29.6025,40.4755,29.6207,40.3495,29.6376 C40.3517,29.6993,40.3585,29.7687,40.3697,29.8458 C40.381,29.9229,40.3979,29.9888,40.4203,30.0435 C40.4473,30.1066,40.4856,30.1568,40.5351,30.1939 C40.5846,30.2311,40.6476,30.2497,40.7241,30.2497 C40.8568,30.2497,40.9696,30.2178,41.0624,30.154 C41.1552,30.0902,41.2438,29.9888,41.3282,29.85 C41.3282,29.85,41.4514,29.9783,41.4514,29.9783 C41.3502,30.1578,41.2205,30.3012,41.0624,30.4085 C40.9044,30.5158,40.7382,30.5694,40.5638,30.5694 z M40.9452,28.9034 C40.9452,28.7842,40.9277,28.6927,40.8928,28.6289 C40.858,28.5651,40.8096,28.5332,40.7477,28.5332 C40.6611,28.5332,40.5793,28.6212,40.5022,28.7972 C40.4251,28.9732,40.3759,29.1958,40.3545,29.4651 C40.4209,29.4553,40.4867,29.4426,40.552,29.4272 C40.6172,29.4118,40.669,29.3936,40.7072,29.3725 C40.7916,29.3262,40.8523,29.2666,40.8895,29.1937 C40.9266,29.1208,40.9452,29.024,40.9452,28.9034 z M43.9033,30.1782 C43.9033,30.1782,43.8662,30.3675,43.8662,30.3675 C43.7548,30.4222,43.6659,30.4639,43.5996,30.4926 C43.5332,30.5214,43.4561,30.5358,43.3684,30.5358 C43.2345,30.5358,43.1304,30.494,43.0562,30.4106 C42.9819,30.3272,42.9448,30.2237,42.9448,30.1003 C42.9448,30.0667,42.9462,30.0236,42.949,29.971 C42.9519,29.9184,42.9611,29.8528,42.9769,29.7743 C42.9769,29.7743,43.0984,29.2148,43.0984,29.2148 C43.1108,29.1545,43.12,29.1001,43.1262,29.0517 C43.1324,29.0033,43.1355,28.9637,43.1355,28.9329 C43.1355,28.8656,43.1226,28.813,43.0967,28.7751 C43.0708,28.7373,43.0269,28.7183,42.9651,28.7183 C42.9268,28.7183,42.8723,28.7369,42.8014,28.7741 C42.7305,28.8112,42.6512,28.8803,42.5634,28.9813 C42.5634,28.9813,42.285,30.5,42.285,30.5 C42.285,30.5,41.7265,30.5,41.7265,30.5 C41.7265,30.5,41.9661,29.2063,41.9661,29.2063 C41.9728,29.1671,41.9816,29.1159,41.9922,29.0528 C42.0029,28.9897,42.0083,28.9371,42.0083,28.895 C42.0083,28.8151,41.995,28.76,41.9686,28.7299 C41.9422,28.6997,41.8941,28.6847,41.8243,28.6847 C41.7883,28.6847,41.7515,28.6917,41.7138,28.7057 C41.6761,28.7197,41.6438,28.733,41.6168,28.7457 C41.6168,28.7457,41.6539,28.5564,41.6539,28.5564 C41.745,28.5101,41.8322,28.4705,41.9155,28.4375 C41.9987,28.4045,42.0775,28.3881,42.1517,28.3881 C42.2845,28.3881,42.3837,28.4207,42.4495,28.4859 C42.5154,28.5511,42.5589,28.6426,42.5803,28.7604 C42.5803,28.7604,42.5921,28.7604,42.5921,28.7604 C42.7024,28.6356,42.8163,28.5385,42.9338,28.4691 C43.0514,28.3996,43.1766,28.3649,43.3093,28.3649 C43.4342,28.3649,43.5318,28.4077,43.6021,28.4932 C43.6724,28.5788,43.7076,28.6826,43.7076,28.8046 C43.7076,28.8368,43.7056,28.882,43.7017,28.9402 C43.6977,28.9984,43.6884,29.0605,43.6738,29.1264 C43.6738,29.1264,43.5456,29.7175,43.5456,29.7175 C43.5343,29.7666,43.5242,29.8227,43.5152,29.8858 C43.5062,29.9489,43.5017,29.9966,43.5017,30.0288 C43.5017,30.1101,43.516,30.1655,43.5447,30.195 C43.5734,30.2244,43.6237,30.2392,43.6957,30.2392 C43.7295,30.2392,43.7677,30.2318,43.8105,30.2171 C43.8532,30.2024,43.8842,30.1894,43.9033,30.1782 z M44.8922,30.5694 C44.6334,30.5694,44.4318,30.4888,44.2872,30.3275 C44.1427,30.1662,44.0704,29.9447,44.0704,29.6628 C44.0704,29.4931,44.0934,29.3322,44.1396,29.18 C44.1857,29.0279,44.2566,28.8894,44.3522,28.7646 C44.4411,28.6468,44.5552,28.5507,44.6947,28.4764 C44.8342,28.4021,44.99,28.3649,45.1622,28.3649 C45.3613,28.3649,45.5134,28.4105,45.6186,28.5017 C45.7238,28.5928,45.7764,28.7183,45.7764,28.8782 C45.7764,28.9217,45.7708,28.97,45.7595,29.0233 C45.7483,29.0766,45.7314,29.1215,45.7089,29.158 C45.6808,29.2028,45.6501,29.2372,45.6169,29.261 C45.5838,29.2849,45.534,29.2968,45.4676,29.2968 C45.3799,29.2968,45.3115,29.2698,45.2626,29.2158 C45.2136,29.1618,45.1892,29.1054,45.1892,29.0465 C45.1892,28.9764,45.201,28.9069,45.2246,28.8382 C45.2482,28.7695,45.278,28.6973,45.314,28.6216 C45.3039,28.6061,45.2834,28.5872,45.2524,28.5648 C45.2215,28.5423,45.1813,28.5311,45.1318,28.5311 C45.0002,28.5311,44.891,28.6303,44.8044,28.8288 C44.7178,29.0272,44.6745,29.2729,44.6745,29.566 C44.6745,29.789,44.7074,29.958,44.7732,30.073 C44.839,30.188,44.9327,30.2455,45.0542,30.2455 C45.1779,30.2455,45.2811,30.2157,45.3638,30.1561 C45.4465,30.0965,45.5312,29.9945,45.6178,29.85 C45.6178,29.85,45.7393,29.9783,45.7393,29.9783 C45.647,30.1564,45.525,30.2995,45.3731,30.4074 C45.2212,30.5154,45.0609,30.5694,44.8922,30.5694 z M46.7248,30.5694 C46.5898,30.5694,46.4714,30.5466,46.3696,30.5011 C46.2677,30.4555,46.1837,30.392,46.1173,30.3107 C46.052,30.2293,46.0031,30.1347,45.9705,30.0267 C45.9378,29.9187,45.9215,29.7995,45.9215,29.6691 C45.9215,29.5036,45.9463,29.3431,45.9958,29.1874 C46.0453,29.0317,46.119,28.8915,46.2168,28.7667 C46.3091,28.6475,46.4261,28.5507,46.5678,28.4764 C46.7096,28.4021,46.866,28.3649,47.037,28.3649 C47.2383,28.3649,47.3916,28.4049,47.4968,28.4848 C47.602,28.5648,47.6546,28.6847,47.6546,28.8445 C47.6546,28.9974,47.609,29.1289,47.5179,29.2389 C47.4268,29.349,47.303,29.4307,47.1466,29.484 C47.0229,29.5303,46.9174,29.5632,46.8302,29.5829 C46.7431,29.6025,46.6365,29.6207,46.5105,29.6376 C46.5127,29.6993,46.5195,29.7687,46.5307,29.8458 C46.542,29.9229,46.5588,29.9888,46.5813,30.0435 C46.6083,30.1066,46.6466,30.1568,46.6961,30.1939 C46.7456,30.2311,46.8086,30.2497,46.8851,30.2497 C47.0178,30.2497,47.1306,30.2178,47.2234,30.154 C47.3162,30.0902,47.4048,29.9888,47.4892,29.85 C47.4892,29.85,47.6124,29.9783,47.6124,29.9783 C47.5111,30.1578,47.3815,30.3012,47.2234,30.4085 C47.0654,30.5158,46.8991,30.5694,46.7248,30.5694 z M47.1061,28.9034 C47.1061,28.7842,47.0887,28.6927,47.0538,28.6289 C47.019,28.5651,46.9706,28.5332,46.9087,28.5332 C46.8221,28.5332,46.7402,28.6212,46.6632,28.7972 C46.5861,28.9732,46.5369,29.1958,46.5155,29.4651 C46.5819,29.4553,46.6477,29.4426,46.713,29.4272 C46.7782,29.4118,46.83,29.3936,46.8682,29.3725 C46.9526,29.3262,47.0133,29.2666,47.0505,29.1937 C47.0876,29.1208,47.1061,29.024,47.1061,28.9034 z M38.041,32.5151 C38.041,32.5151,37.8824,33.3691,37.8824,33.3691 C37.8824,33.3691,37.7524,33.3691,37.7524,33.3691 C37.7479,33.3215,37.7392,33.2619,37.7263,33.1903 C37.7134,33.1188,37.6956,33.048,37.6731,32.9779 C37.6495,32.905,37.6239,32.8447,37.5964,32.797 C37.5688,32.7493,37.5359,32.7213,37.4976,32.7128 C37.4639,32.7072,37.4209,32.7023,37.3685,32.6981 C37.3162,32.6939,37.271,32.6918,37.2327,32.6918 C37.2327,32.6918,37.1483,32.6918,37.1483,32.6918 C37.1483,32.6918,36.718,35.012,36.718,35.012 C36.7135,35.0358,36.7099,35.0586,36.7071,35.0803 C36.7042,35.1021,36.7028,35.1179,36.7028,35.1277 C36.7028,35.1613,36.7082,35.1911,36.7189,35.2171 C36.7296,35.243,36.7495,35.2637,36.7788,35.2791 C36.8058,35.2932,36.8451,35.3068,36.8969,35.3201 C36.9486,35.3335,36.9914,35.3422,37.0251,35.3464 C37.0251,35.3464,36.9965,35.5,36.9965,35.5 C36.9965,35.5,35.6617,35.5,35.6617,35.5 C35.6617,35.5,35.6903,35.3464,35.6903,35.3464 C35.7218,35.3436,35.768,35.338,35.8287,35.3296 C35.8895,35.3212,35.9328,35.3114,35.9587,35.3002 C36.0037,35.2777,36.0374,35.2476,36.0599,35.2097 C36.0824,35.1719,36.0982,35.127,36.1072,35.0751 C36.1072,35.0751,36.5493,32.6918,36.5493,32.6918 C36.5493,32.6918,36.4835,32.6918,36.4835,32.6918 C36.4407,32.6918,36.3977,32.6936,36.3544,32.6971 C36.3111,32.7006,36.2618,32.7058,36.2067,32.7128 C36.1662,32.7199,36.1209,32.75,36.0709,32.8033 C36.0208,32.8566,35.9722,32.9148,35.9249,32.9779 C35.8687,33.0564,35.8223,33.1276,35.7857,33.1914 C35.7491,33.2552,35.7179,33.3144,35.692,33.3691 C35.692,33.3691,35.5621,33.3691,35.5621,33.3691 C35.5621,33.3691,35.7207,32.5151,35.7207,32.5151 C35.7207,32.5151,38.041,32.5151,38.041,32.5151 z M39.8044,34.24 C39.8044,34.4167,39.7774,34.5857,39.7234,34.7469 C39.6694,34.9082,39.5929,35.0484,39.4939,35.1676 C39.3871,35.2953,39.2619,35.3938,39.1185,35.4632 C38.975,35.5326,38.8139,35.5673,38.635,35.5673 C38.3954,35.5673,38.2019,35.4877,38.0545,35.3286 C37.9071,35.1694,37.8334,34.9524,37.8334,34.6775 C37.8334,34.491,37.8613,34.3178,37.917,34.158 C37.9727,33.9981,38.0506,33.8586,38.1507,33.7394 C38.2497,33.623,38.3712,33.5308,38.5152,33.4627 C38.6592,33.3947,38.815,33.3607,38.9826,33.3607 C39.2369,33.3607,39.4374,33.4382,39.5842,33.5932 C39.731,33.7481,39.8044,33.9637,39.8044,34.24 z M39.2104,34.0023 C39.2104,33.8382,39.1882,33.7176,39.1438,33.6405 C39.0993,33.5634,39.0349,33.5248,38.9506,33.5248 C38.8639,33.5248,38.7846,33.5679,38.7126,33.6542 C38.6406,33.7404,38.5821,33.867,38.5371,34.0339 C38.4977,34.1727,38.4696,34.3231,38.4528,34.4851 C38.4359,34.647,38.4274,34.7918,38.4274,34.9194 C38.4274,35.0891,38.4499,35.2122,38.4949,35.2886 C38.5399,35.365,38.6052,35.4032,38.6907,35.4032 C38.7829,35.4032,38.8628,35.3563,38.9303,35.2623 C38.9978,35.1683,39.0512,35.0527,39.0906,34.9152 C39.13,34.7806,39.1598,34.6316,39.1801,34.4682 C39.2003,34.3049,39.2104,34.1495,39.2104,34.0023 z M42.1061,33.6952 C42.1061,33.7948,42.0772,33.8831,42.0192,33.9602 C41.9613,34.0374,41.8896,34.0759,41.8041,34.0759 C41.7332,34.0759,41.6674,34.0559,41.6066,34.016 C41.5459,33.976,41.4925,33.9343,41.4463,33.8908 C41.4238,33.909,41.4019,33.9269,41.3805,33.9445 C41.3591,33.962,41.3147,34.0072,41.2472,34.0801 C41.299,34.2428,41.3558,34.4216,41.4177,34.6165 C41.4795,34.8115,41.5262,34.9461,41.5577,35.0204 C41.5948,35.1087,41.63,35.1712,41.6632,35.2076 C41.6964,35.2441,41.7546,35.2623,41.8378,35.2623 C41.8671,35.2623,41.9036,35.2553,41.9475,35.2413 C41.9914,35.2272,42.0274,35.2132,42.0555,35.1992 C42.0555,35.1992,42.0184,35.3885,42.0184,35.3885 C41.907,35.4474,41.8097,35.4902,41.7265,35.5168 C41.6432,35.5435,41.569,35.5568,41.5037,35.5568 C41.4722,35.5568,41.4326,35.554,41.3847,35.5484 C41.3369,35.5428,41.2956,35.5302,41.2607,35.5105 C41.2168,35.4853,41.1766,35.4502,41.1401,35.4053 C41.1035,35.3605,41.0678,35.2889,41.0329,35.1908 C40.9834,35.052,40.9482,34.9457,40.9274,34.8721 C40.9066,34.7985,40.8777,34.6986,40.8405,34.5723 C40.8405,34.5723,40.7292,34.7028,40.7292,34.7028 C40.7292,34.7028,40.584,35.5,40.584,35.5 C40.584,35.5,40.0255,35.5,40.0255,35.5 C40.0255,35.5,40.5216,32.8222,40.5216,32.8222 C40.5261,32.7984,40.5295,32.7759,40.5317,32.7549 C40.534,32.7339,40.5351,32.7163,40.5351,32.7023 C40.5351,32.6518,40.5284,32.6119,40.5149,32.5824 C40.5014,32.553,40.4811,32.5291,40.4541,32.5109 C40.4271,32.4927,40.3962,32.4801,40.3613,32.473 C40.3264,32.466,40.2859,32.4597,40.2398,32.4541 C40.2398,32.4541,40.2702,32.2985,40.2702,32.2985 C40.2702,32.2985,41.1595,32.2438,41.1595,32.2438 C41.1595,32.2438,41.178,32.2774,41.178,32.2774 C41.178,32.2774,40.773,34.4651,40.773,34.4651 C40.773,34.4651,40.7865,34.4651,40.7865,34.4651 C40.9215,34.2758,41.0281,34.131,41.1063,34.0307 C41.1845,33.9304,41.2692,33.8249,41.3603,33.7141 C41.4705,33.5809,41.5586,33.4894,41.6244,33.4396 C41.6902,33.3898,41.763,33.3649,41.8429,33.3649 C41.9239,33.3649,41.988,33.393,42.0353,33.4491 C42.0825,33.5052,42.1061,33.5872,42.1061,33.6952 z M43.4882,35.1634 C43.4882,35.1634,43.4764,35.1634,43.4764,35.1634 C43.3493,35.3079,43.2323,35.4081,43.1254,35.4642 C43.0185,35.5203,42.9004,35.5484,42.771,35.5484 C42.6461,35.5484,42.5491,35.5049,42.4799,35.418 C42.4107,35.331,42.3761,35.2265,42.3761,35.1045 C42.3761,35.0611,42.3781,35.0169,42.382,34.972 C42.386,34.9271,42.3964,34.864,42.4133,34.7827 C42.4133,34.7827,42.5398,34.2084,42.5398,34.2084 C42.5477,34.1692,42.557,34.1155,42.5677,34.0475 C42.5784,33.9795,42.5837,33.9294,42.5837,33.8971 C42.5837,33.8172,42.571,33.7621,42.5457,33.732 C42.5204,33.7018,42.4712,33.6868,42.3981,33.6868 C42.3621,33.6868,42.3252,33.6938,42.2875,33.7078 C42.2499,33.7218,42.2175,33.7351,42.1905,33.7478 C42.1905,33.7478,42.2276,33.5585,42.2276,33.5585 C42.3188,33.5122,42.406,33.4726,42.4892,33.4396 C42.5724,33.4067,42.6512,33.3902,42.7254,33.3902 C42.8593,33.3902,42.9625,33.4319,43.0351,33.5153 C43.1077,33.5988,43.1439,33.7022,43.1439,33.8256 C43.1439,33.8508,43.1417,33.8971,43.1372,33.9644 C43.1327,34.0317,43.1237,34.0942,43.1102,34.1516 C43.1102,34.1516,42.987,34.6986,42.987,34.6986 C42.9758,34.7476,42.9668,34.8002,42.96,34.8563 C42.9533,34.9124,42.9499,34.9531,42.9499,34.9783 C42.9499,35.0484,42.9637,35.1017,42.9912,35.1382 C43.0188,35.1747,43.0624,35.1929,43.122,35.1929 C43.1715,35.1929,43.2342,35.1694,43.3102,35.1224 C43.3861,35.0754,43.4561,35.0127,43.5202,34.9342 C43.5202,34.9342,43.7767,33.4259,43.7767,33.4259 C43.7767,33.4259,44.3117,33.3965,44.3117,33.3965 C44.3117,33.3965,44.3353,33.4301,44.3353,33.4301 C44.3353,33.4301,44.04,35.1403,44.04,35.1403 C43.995,35.3955,43.932,35.6062,43.851,35.7724 C43.77,35.9386,43.6761,36.0708,43.5692,36.1689 C43.4668,36.2629,43.356,36.3305,43.2368,36.3719 C43.1175,36.4133,42.9966,36.434,42.8739,36.434 C42.7401,36.434,42.629,36.4217,42.5407,36.3971 C42.4524,36.3726,42.3834,36.3386,42.334,36.2951 C42.289,36.2559,42.2583,36.212,42.242,36.1637 C42.2257,36.1153,42.2175,36.0679,42.2175,36.0217 C42.2175,35.9403,42.2406,35.8681,42.2867,35.805 C42.3328,35.7419,42.3958,35.7104,42.4757,35.7104 C42.5364,35.7104,42.5907,35.7307,42.6385,35.7714 C42.6864,35.812,42.7283,35.8611,42.7643,35.9186 C42.7991,35.9733,42.8304,36.0339,42.8579,36.1006 C42.8855,36.1672,42.9066,36.2215,42.9212,36.2636 C42.9414,36.2594,42.9665,36.2506,42.9963,36.2373 C43.0261,36.224,43.0511,36.2089,43.0714,36.1921 C43.1006,36.1682,43.1265,36.1444,43.149,36.1205 C43.1715,36.0967,43.1974,36.0602,43.2266,36.0112 C43.2829,35.9172,43.3329,35.8008,43.3768,35.662 C43.4207,35.5231,43.4578,35.357,43.4882,35.1634 z M46.5307,34.24 C46.5307,34.4167,46.5037,34.5857,46.4497,34.7469 C46.3957,34.9082,46.3192,35.0484,46.2202,35.1676 C46.1133,35.2953,45.9882,35.3938,45.8447,35.4632 C45.7013,35.5326,45.5402,35.5673,45.3613,35.5673 C45.1217,35.5673,44.9282,35.4877,44.7808,35.3286 C44.6334,35.1694,44.5597,34.9524,44.5597,34.6775 C44.5597,34.491,44.5876,34.3178,44.6433,34.158 C44.699,33.9981,44.7769,33.8586,44.877,33.7394 C44.976,33.623,45.0975,33.5308,45.2415,33.4627 C45.3855,33.3947,45.5413,33.3607,45.7089,33.3607 C45.9632,33.3607,46.1637,33.4382,46.3105,33.5932 C46.4573,33.7481,46.5307,33.9637,46.5307,34.24 z M45.9367,34.0023 C45.9367,33.8382,45.9145,33.7176,45.8701,33.6405 C45.8256,33.5634,45.7612,33.5248,45.6768,33.5248 C45.5902,33.5248,45.5109,33.5679,45.4389,33.6542 C45.3669,33.7404,45.3084,33.867,45.2634,34.0339 C45.224,34.1727,45.1959,34.3231,45.179,34.4851 C45.1622,34.647,45.1537,34.7918,45.1537,34.9194 C45.1537,35.0891,45.1762,35.2122,45.2212,35.2886 C45.2662,35.365,45.3315,35.4032,45.417,35.4032 C45.5092,35.4032,45.5891,35.3563,45.6566,35.2623 C45.7241,35.1683,45.7775,35.0527,45.8169,34.9152 C45.8563,34.7806,45.8861,34.6316,45.9063,34.4682 C45.9266,34.3049,45.9367,34.1495,45.9367,34.0023 z"/>
      </g>
    </g>
  </g>
</svg>
