<?xml version="1.0" encoding="UTF-8" standalone="no"?>
<!DOCTYPE svg PUBLIC "-//W3C//DTD SVG 1.1//EN" "http://www.w3.org/Graphics/SVG/1.1/DTD/svg11.dtd">
<!-- Created with Vectornator (http://vectornator.io/) -->
<svg height="100%" stroke-miterlimit="10" style="fill-rule:nonzero;clip-rule:evenodd;stroke-linecap:round;stroke-linejoin:round;" version="1.1" viewBox="0 0 419.58 297.675" width="100%" xml:space="preserve" xmlns="http://www.w3.org/2000/svg" xmlns:vectornator="http://vectornator.io" xmlns:xlink="http://www.w3.org/1999/xlink">
<defs>
<linearGradient gradientTransform="matrix(-1.57495 3.69694 -3.69694 -1.57495 259.512 169.915)" gradientUnits="userSpaceOnUse" id="LinearGradient" x1="0" x2="1" y1="0" y2="0">
<stop offset="0" stop-color="#9d764c"/>
<stop offset="1" stop-color="#663500"/>
</linearGradient>
<linearGradient gradientTransform="matrix(23.3573 0 0 24.7043 184.327 147.041)" gradientUnits="userSpaceOnUse" id="LinearGradient_2" x1="0" x2="1" y1="0" y2="0">
<stop offset="0" stop-color="#9d764c"/>
<stop offset="1" stop-color="#663500"/>
</linearGradient>
<linearGradient gradientTransform="matrix(23.3573 0 0 24.7043 207.746 155.97)" gradientUnits="userSpaceOnUse" id="LinearGradient_3" x1="0" x2="1" y1="0" y2="0">
<stop offset="0" stop-color="#9d764c"/>
<stop offset="1" stop-color="#663500"/>
</linearGradient>
<linearGradient gradientTransform="matrix(23.3573 0 0 24.7043 230.371 165.061)" gradientUnits="userSpaceOnUse" id="LinearGradient_4" x1="0" x2="1" y1="0" y2="0">
<stop offset="0" stop-color="#9d764c"/>
<stop offset="1" stop-color="#663500"/>
</linearGradient>
<linearGradient gradientTransform="matrix(-1.57495 3.69694 -3.69694 -1.57495 246.43 189.132)" gradientUnits="userSpaceOnUse" id="LinearGradient_5" x1="0" x2="1" y1="0" y2="0">
<stop offset="0" stop-color="#9d764c"/>
<stop offset="1" stop-color="#663500"/>
</linearGradient>
<linearGradient gradientTransform="matrix(-1.11839 3.85967 -3.85967 -1.11839 234.827 206.763)" gradientUnits="userSpaceOnUse" id="LinearGradient_6" x1="0" x2="1" y1="0" y2="0">
<stop offset="0" stop-color="#9d764c"/>
<stop offset="1" stop-color="#663500"/>
</linearGradient>
<linearGradient gradientTransform="matrix(21.7902 13.0489 -13.0489 21.7902 158.75 182.786)" gradientUnits="userSpaceOnUse" id="LinearGradient_7" x1="0" x2="1" y1="0" y2="0">
<stop offset="0.02" stop-color="#f9f9f9"/>
<stop offset="1" stop-color="#a39e97"/>
</linearGradient>
<linearGradient gradientTransform="matrix(21.7902 13.0489 -13.0489 21.7902 181.763 189.072)" gradientUnits="userSpaceOnUse" id="LinearGradient_8" x1="0" x2="1" y1="0" y2="0">
<stop offset="0.02" stop-color="#f9f9f9"/>
<stop offset="1" stop-color="#a39e97"/>
</linearGradient>
<linearGradient gradientTransform="matrix(21.7902 13.0489 -13.0489 21.7902 205.586 195.934)" gradientUnits="userSpaceOnUse" id="LinearGradient_9" x1="0" x2="1" y1="0" y2="0">
<stop offset="0.02" stop-color="#f9f9f9"/>
<stop offset="1" stop-color="#a39e97"/>
</linearGradient>
</defs>
<g id="Layer-1" opacity="0" vectornator:layerName="Layer 1"/>
<g id="layer" vectornator:layerName="layer">
<path d="M151.829 171.217C151.829 171.217 136.61 160.287 140.92 137.679C145.23 115.071 170.409 99.9485 197.932 96.7728C225.455 93.5971 247.421 102.674 259.673 111.157C271.926 119.64 284.324 134.72 277.726 158.718C271.129 182.716 228.57 193.736 228.57 193.736L151.829 171.217Z" fill="#c16962" fill-rule="nonzero" opacity="0" stroke="#000000" stroke-linecap="round" stroke-linejoin="miter" stroke-width="0.211667"/>
<g opacity="1" vectornator:layerName="(curve)">
<path d="M148.75 212.961C148.75 212.961 125.857 187.683 144.968 156.19C153.31 142.443 187.379 126.574 218.856 131.695C252.69 137.2 277.342 152.379 276.189 185.26C274.752 226.244 224.153 235.303 224.153 235.303L148.75 212.961Z" fill="#5d3e3c" fill-rule="nonzero" opacity="1" stroke="#000000" stroke-linecap="round" stroke-linejoin="miter" stroke-width="0.211667"/>
<path d="M147.856 205.33C147.856 205.33 132.241 189.668 138.616 169.918C143.628 154.387 150.634 148.658 162.613 141.558C174.592 134.458 183.926 133.275 194.929 131.44C205.932 129.606 217.827 130.353 232.922 134.717C248.017 139.08 254.254 142.705 260.807 148.313C267.36 153.922 272.319 158.743 275.39 170.807C278.46 182.871 276.334 189.967 274.823 193.867C273.312 197.767 270.964 202.461 260.651 211.558C250.338 220.655 226.75 228.163 226.75 228.163L147.856 205.33Z" fill="#c46867" fill-rule="nonzero" opacity="0.744344" stroke="#000000" stroke-linecap="round" stroke-linejoin="miter" stroke-width="0.211667"/>
<path d="M150.477 203.293C150.477 203.293 135.055 189.086 141.429 169.336C146.442 153.806 154.752 149.27 166.731 142.17C178.709 135.07 192.236 133.842 200.998 132.806C209.76 131.769 230.013 135.095 237.605 138.363C245.197 141.631 254.711 146.033 261.264 151.641C267.817 157.25 278.116 174.625 271.939 192.56C265.763 210.494 226.942 225.186 226.942 225.186L150.477 203.293Z" fill="#847876" fill-rule="nonzero" opacity="0.997738" stroke="#000000" stroke-linecap="round" stroke-linejoin="miter" stroke-width="0.211667"/>
<path d="M141.663 189.762C141.663 189.762 137.463 177.635 142.574 166.239C147.686 154.843 160.667 143.2 174.858 138.63C189.049 134.06 204.423 130.548 222.671 134.29C240.92 138.033 245.467 141.123 256.223 148.441C266.978 155.759 265.869 156.316 270.197 164.673C274.525 173.029 273.533 181.867 273.533 181.867C273.533 181.867 267.508 159.372 251.966 150.33C238.153 142.294 227.565 140.521 215.121 138.966C200.628 137.156 185.775 139.697 174.632 143.874C164.486 147.678 157.597 152.89 153.314 156.416C141.62 166.046 141.663 189.762 141.663 189.762Z" fill="#4a3532" fill-rule="nonzero" opacity="1" stroke="#000000" stroke-linecap="round" stroke-linejoin="miter" stroke-width="0.211667"/>
</g>
<g opacity="1" vectornator:layerName="(curve)">
<path d="M246.909 165.177L271.056 174.527L269.57 177.85L245.766 168.519" fill="url(#LinearGradient)" fill-rule="nonzero" opacity="1" stroke="#000000" stroke-linecap="round" stroke-linejoin="miter" stroke-width="0.211667"/>
<g opacity="1" vectornator:layerName="(curve)">
<path d="M194.647 133.742L194.647 133.742C202.002 133.742 207.965 139.705 207.965 147.06L207.965 147.06C207.965 154.415 202.002 160.377 194.647 160.377L194.647 160.377C187.292 160.377 181.33 154.415 181.33 147.06L181.33 147.06C181.33 139.705 187.292 133.742 194.647 133.742Z" fill="#d4a63c" fill-rule="nonzero" opacity="1" stroke="#000000" stroke-linecap="round" stroke-linejoin="miter" stroke-opacity="0" stroke-width="0.211667"/>
<path d="M196.006 134.688L196.006 134.688C202.456 134.688 207.685 140.219 207.685 147.041L207.685 147.041C207.685 153.862 202.456 159.393 196.006 159.393L196.006 159.393C189.556 159.393 184.327 153.862 184.327 147.041L184.327 147.041C184.327 140.219 189.556 134.688 196.006 134.688Z" fill="url(#LinearGradient_2)" fill-rule="nonzero" opacity="1" stroke="#000000" stroke-linecap="round" stroke-linejoin="miter" stroke-opacity="0" stroke-width="0.211667"/>
<path d="M181.848 151.2C182.18 153.665 184.836 156.684 187.616 158.598C190.397 160.512 197.457 161.678 201.376 158.319C205.294 154.96 206.405 153.195 207.002 150.51C207.598 147.826 207.611 144.604 206.825 143.4C206.039 142.195 205.319 142.127 203.3 143.888C201.282 145.648 202.454 153.235 197.842 154.481C193.23 155.728 192.241 155.156 187.408 151.041C182.575 146.927 181.517 148.735 181.848 151.2Z" fill="#8e3f20" fill-rule="nonzero" opacity="1" stroke="#000000" stroke-linecap="round" stroke-linejoin="miter" stroke-opacity="0" stroke-width="0.211667"/>
<path d="M194.449 141.595L193.36 143.265L192.712 145.976L193.628 148.627L194.497 150.748L194.848 147.084L196.142 144.364L196.653 142.081L195.419 141.646L194.449 141.595Z" fill="#903f21" fill-rule="nonzero" opacity="1" stroke="#000000" stroke-linecap="round" stroke-linejoin="miter" stroke-opacity="0" stroke-width="0.211667"/>
<path d="M188.087 136.575C190.165 134.947 191.119 135.863 191.714 136.652C192.308 137.441 191.773 138.521 191.333 139.41C190.893 140.299 186.802 143.211 185.696 141.993C184.59 140.776 186.009 138.202 188.087 136.575Z" fill="#f8d598" fill-rule="nonzero" opacity="1" stroke="#000000" stroke-linecap="round" stroke-linejoin="miter" stroke-opacity="0" stroke-width="0.211667"/>
<path d="M194.765 134.803C193.396 135.323 192.891 136.377 193.067 137.048C193.243 137.72 196.157 137.272 197.481 137.451C198.805 137.631 199.868 138.394 200.524 139.472C201.179 140.55 199.962 140.938 200.684 142.025C201.405 143.112 202.926 141.575 203.449 140.196C203.972 138.817 202.94 137.281 201.707 136.198C200.473 135.115 196.134 134.283 194.765 134.803Z" fill="#f8d598" fill-rule="nonzero" opacity="1" stroke="#000000" stroke-linecap="round" stroke-linejoin="miter" stroke-opacity="0" stroke-width="0.211667"/>
</g>
<g opacity="1" vectornator:layerName="(curve)">
<path d="M218.066 142.672L218.066 142.672C225.421 142.672 231.383 148.634 231.383 155.989L231.383 155.989C231.383 163.344 225.421 169.306 218.066 169.306L218.066 169.306C210.711 169.306 204.748 163.344 204.748 155.989L204.748 155.989C204.748 148.634 210.711 142.672 218.066 142.672Z" fill="#d4a63c" fill-rule="nonzero" opacity="1" stroke="#000000" stroke-linecap="round" stroke-linejoin="miter" stroke-opacity="0" stroke-width="0.211667"/>
<path d="M219.425 143.618L219.425 143.618C225.875 143.618 231.103 149.148 231.103 155.97L231.103 155.97C231.103 162.792 225.875 168.322 219.425 168.322L219.425 168.322C212.975 168.322 207.746 162.792 207.746 155.97L207.746 155.97C207.746 149.148 212.975 143.618 219.425 143.618Z" fill="url(#LinearGradient_3)" fill-rule="nonzero" opacity="1" stroke="#000000" stroke-linecap="round" stroke-linejoin="miter" stroke-opacity="0" stroke-width="0.211667"/>
<path d="M205.267 160.13C205.598 162.595 208.254 165.613 211.035 167.527C213.815 169.441 220.875 170.607 224.794 167.248C228.713 163.889 229.824 162.124 230.421 159.439C231.017 156.755 231.03 153.534 230.244 152.329C229.458 151.125 228.737 151.057 226.719 152.817C224.7 154.577 225.872 162.164 221.261 163.411C216.649 164.657 215.659 164.085 210.827 159.971C205.994 155.856 204.936 157.665 205.267 160.13Z" fill="#8e3f20" fill-rule="nonzero" opacity="1" stroke="#000000" stroke-linecap="round" stroke-linejoin="miter" stroke-opacity="0" stroke-width="0.211667"/>
<path d="M217.867 150.524L216.778 152.194L216.13 154.905L217.046 157.556L217.916 159.677L218.266 156.013L219.56 153.293L220.072 151.011L218.838 150.575L217.867 150.524Z" fill="#903f21" fill-rule="nonzero" opacity="1" stroke="#000000" stroke-linecap="round" stroke-linejoin="miter" stroke-opacity="0" stroke-width="0.211667"/>
<path d="M211.506 145.504C213.584 143.876 214.538 144.792 215.132 145.581C215.726 146.371 215.192 147.45 214.752 148.339C214.312 149.228 210.221 152.14 209.115 150.923C208.009 149.705 209.428 147.131 211.506 145.504Z" fill="#f8d598" fill-rule="nonzero" opacity="1" stroke="#000000" stroke-linecap="round" stroke-linejoin="miter" stroke-opacity="0" stroke-width="0.211667"/>
<path d="M218.183 143.732C216.814 144.252 216.309 145.306 216.485 145.977C216.661 146.649 219.576 146.201 220.9 146.381C222.223 146.56 223.287 147.323 223.942 148.401C224.598 149.48 223.381 149.867 224.102 150.954C224.824 152.041 226.345 150.505 226.867 149.125C227.39 147.746 226.359 146.21 225.125 145.127C223.891 144.044 219.552 143.212 218.183 143.732Z" fill="#f8d598" fill-rule="nonzero" opacity="1" stroke="#000000" stroke-linecap="round" stroke-linejoin="miter" stroke-opacity="0" stroke-width="0.211667"/>
</g>
<g opacity="1" vectornator:layerName="(curve)">
<path d="M240.69 151.763L240.69 151.763C248.045 151.763 254.008 157.725 254.008 165.08L254.008 165.08C254.008 172.435 248.045 178.398 240.69 178.398L240.69 178.398C233.335 178.398 227.373 172.435 227.373 165.08L227.373 165.08C227.373 157.725 233.335 151.763 240.69 151.763Z" fill="#d4a63c" fill-rule="nonzero" opacity="1" stroke="#000000" stroke-linecap="round" stroke-linejoin="miter" stroke-opacity="0" stroke-width="0.211667"/>
<path d="M242.049 152.709L242.049 152.709C248.499 152.709 253.728 158.239 253.728 165.061L253.728 165.061C253.728 171.883 248.499 177.413 242.049 177.413L242.049 177.413C235.599 177.413 230.371 171.883 230.371 165.061L230.371 165.061C230.371 158.239 235.599 152.709 242.049 152.709Z" fill="url(#LinearGradient_4)" fill-rule="nonzero" opacity="1" stroke="#000000" stroke-linecap="round" stroke-linejoin="miter" stroke-opacity="0" stroke-width="0.211667"/>
<path d="M227.892 169.221C228.223 171.686 230.879 174.704 233.659 176.618C236.44 178.532 243.5 179.698 247.419 176.339C251.338 172.98 252.449 171.215 253.045 168.531C253.642 165.846 253.655 162.625 252.869 161.42C252.083 160.216 251.362 160.148 249.343 161.908C247.325 163.669 248.497 171.255 243.885 172.502C239.274 173.748 238.284 173.176 233.451 169.062C228.619 164.947 227.56 166.756 227.892 169.221Z" fill="#8e3f20" fill-rule="nonzero" opacity="1" stroke="#000000" stroke-linecap="round" stroke-linejoin="miter" stroke-opacity="0" stroke-width="0.211667"/>
<path d="M240.492 159.615L239.403 161.285L238.755 163.996L239.671 166.647L240.541 168.769L240.891 165.105L242.185 162.384L242.697 160.102L241.462 159.666L240.492 159.615Z" fill="#903f21" fill-rule="nonzero" opacity="1" stroke="#000000" stroke-linecap="round" stroke-linejoin="miter" stroke-opacity="0" stroke-width="0.211667"/>
<path d="M234.13 154.595C236.208 152.967 237.163 153.883 237.757 154.672C238.351 155.462 237.816 156.541 237.377 157.43C236.937 158.319 232.845 161.232 231.739 160.014C230.633 158.796 232.052 156.223 234.13 154.595Z" fill="#f8d598" fill-rule="nonzero" opacity="1" stroke="#000000" stroke-linecap="round" stroke-linejoin="miter" stroke-opacity="0" stroke-width="0.211667"/>
<path d="M240.808 152.823C239.439 153.343 238.934 154.397 239.11 155.068C239.286 155.74 242.201 155.292 243.524 155.472C244.848 155.651 245.911 156.414 246.567 157.492C247.223 158.571 246.006 158.958 246.727 160.045C247.448 161.132 248.969 159.596 249.492 158.216C250.015 156.837 248.984 155.301 247.75 154.218C246.516 153.135 242.177 152.304 240.808 152.823Z" fill="#f8d598" fill-rule="nonzero" opacity="1" stroke="#000000" stroke-linecap="round" stroke-linejoin="miter" stroke-opacity="0" stroke-width="0.211667"/>
</g>
</g>
<g opacity="1" vectornator:layerName="(curve)">
<path d="M233.828 184.395L257.974 193.744L256.488 197.068L232.684 187.737" fill="url(#LinearGradient_5)" fill-rule="nonzero" opacity="1" stroke="#000000" stroke-linecap="round" stroke-linejoin="miter" stroke-width="0.211667"/>
<g opacity="1" vectornator:layerName="(curve)">
<path d="M181.883 151.757L181.883 151.757C189.238 151.757 195.2 157.719 195.2 165.074L195.2 165.074C195.2 172.429 189.238 178.391 181.883 178.391L181.883 178.391C174.528 178.391 168.565 172.429 168.565 165.074L168.565 165.074C168.565 157.719 174.528 151.757 181.883 151.757Z" fill="#a26576" fill-rule="nonzero" opacity="1" stroke="#000000" stroke-linecap="round" stroke-linejoin="miter" stroke-opacity="0" stroke-width="0.211667"/>
<path d="M182.323 152.345L182.323 152.345C189.275 152.345 194.911 157.382 194.911 163.595L194.911 163.595C194.911 169.808 189.275 174.845 182.323 174.845L182.323 174.845C175.37 174.845 169.734 169.808 169.734 163.595L169.734 163.595C169.734 157.382 175.37 152.345 182.323 152.345Z" fill="#cd7b92" fill-rule="nonzero" opacity="1" stroke="#000000" stroke-linecap="round" stroke-linejoin="miter" stroke-opacity="0" stroke-width="0.211667"/>
<path d="M176.796 153.238C174.735 154.21 173.745 156.409 173.881 158.046C174.016 159.683 175.375 159.762 177.338 159.786C179.3 159.81 180.534 159.549 181.73 158.142C182.927 156.735 183.358 155.385 182.125 154.159C180.891 152.933 178.857 152.266 176.796 153.238Z" fill="#d491a3" fill-rule="nonzero" opacity="1" stroke="#000000" stroke-linecap="round" stroke-linejoin="miter" stroke-opacity="0" stroke-width="0.211667"/>
</g>
<g opacity="1" vectornator:layerName="(curve)">
<path d="M205.389 161.081L205.389 161.081C212.744 161.081 218.706 167.043 218.706 174.398L218.706 174.398C218.706 181.753 212.744 187.715 205.389 187.715L205.389 187.715C198.034 187.715 192.071 181.753 192.071 174.398L192.071 174.398C192.071 167.043 198.034 161.081 205.389 161.081Z" fill="#c3b59a" fill-rule="nonzero" opacity="1" stroke="#000000" stroke-linecap="round" stroke-linejoin="miter" stroke-opacity="0" stroke-width="0.211667"/>
<path d="M205.37 161.269L205.37 161.269C212.322 161.269 217.958 166.305 217.958 172.519L217.958 172.519C217.958 178.732 212.322 183.769 205.37 183.769L205.37 183.769C198.417 183.769 192.781 178.732 192.781 172.519L192.781 172.519C192.781 166.305 198.417 161.269 205.37 161.269Z" fill="#efdfbd" fill-rule="nonzero" opacity="1" stroke="#000000" stroke-linecap="round" stroke-linejoin="miter" stroke-opacity="0" stroke-width="0.211667"/>
<path d="M203.288 163.349C201.227 164.321 200.238 166.52 200.373 168.156C200.509 169.793 201.868 169.872 203.83 169.897C205.793 169.921 207.026 169.66 208.223 168.253C209.42 166.846 209.851 165.496 208.617 164.27C207.384 163.044 205.349 162.377 203.288 163.349Z" fill="#eceae6" fill-rule="nonzero" opacity="1" stroke="#000000" stroke-linecap="round" stroke-linejoin="miter" stroke-opacity="0" stroke-width="0.211667"/>
</g>
<g opacity="1" vectornator:layerName="(curve)">
<path d="M228.734 169.824L228.734 169.824C236.089 169.824 242.051 175.787 242.051 183.142L242.051 183.142C242.051 190.497 236.089 196.459 228.734 196.459L228.734 196.459C221.379 196.459 215.416 190.497 215.416 183.142L215.416 183.142C215.416 175.787 221.379 169.824 228.734 169.824Z" fill="#64864a" fill-rule="nonzero" opacity="1" stroke="#000000" stroke-linecap="round" stroke-linejoin="miter" stroke-opacity="0" stroke-width="0.211667"/>
<path d="M228.613 170.193L228.613 170.193C235.565 170.193 241.201 175.23 241.201 181.443L241.201 181.443C241.201 187.656 235.565 192.693 228.613 192.693L228.613 192.693C221.66 192.693 216.024 187.656 216.024 181.443L216.024 181.443C216.024 175.23 221.66 170.193 228.613 170.193Z" fill="#6b914e" fill-rule="nonzero" opacity="1" stroke="#000000" stroke-linecap="round" stroke-linejoin="miter" stroke-opacity="0" stroke-width="0.211667"/>
<path d="M226.577 171.417C224.516 172.389 223.526 174.588 223.662 176.225C223.797 177.862 225.156 177.941 227.119 177.965C229.081 177.989 230.315 177.728 231.511 176.321C232.708 174.915 233.14 173.564 231.906 172.338C230.672 171.112 228.638 170.446 226.577 171.417Z" fill="#81a960" fill-rule="nonzero" opacity="1" stroke="#000000" stroke-linecap="round" stroke-linejoin="miter" stroke-opacity="0" stroke-width="0.211667"/>
</g>
</g>
<g opacity="1" vectornator:layerName="(curve)">
<path d="M221.746 203.578L246.843 209.952L245.768 213.43L221.013 207.033" fill="url(#LinearGradient_6)" fill-rule="nonzero" opacity="1" stroke="#000000" stroke-linecap="round" stroke-linejoin="miter" stroke-width="0.211667"/>
<path d="M168.415 176.365L168.415 176.365C175.77 176.365 181.733 182.328 181.733 189.683L181.733 189.683C181.733 197.038 175.77 203 168.415 203L168.415 203C161.06 203 155.098 197.038 155.098 189.683L155.098 189.683C155.098 182.328 161.06 176.365 168.415 176.365Z" fill="url(#LinearGradient_7)" fill-rule="nonzero" opacity="1" stroke="#000000" stroke-linecap="round" stroke-linejoin="miter" stroke-opacity="0" stroke-width="0.211667"/>
<path d="M191.429 182.652L191.429 182.652C198.784 182.652 204.746 188.614 204.746 195.969L204.746 195.969C204.746 203.324 198.784 209.287 191.429 209.287L191.429 209.287C184.074 209.287 178.111 203.324 178.111 195.969L178.111 195.969C178.111 188.614 184.074 182.652 191.429 182.652Z" fill="url(#LinearGradient_8)" fill-rule="nonzero" opacity="1" stroke="#000000" stroke-linecap="round" stroke-linejoin="miter" stroke-opacity="0" stroke-width="0.211667"/>
<path d="M215.251 189.514L215.251 189.514C222.606 189.514 228.569 195.476 228.569 202.831L228.569 202.831C228.569 210.186 222.606 216.148 215.251 216.148L215.251 216.148C207.896 216.148 201.934 210.186 201.934 202.831L201.934 202.831C201.934 195.476 207.896 189.514 215.251 189.514Z" fill="url(#LinearGradient_9)" fill-rule="nonzero" opacity="1" stroke="#000000" stroke-linecap="round" stroke-linejoin="miter" stroke-opacity="0.00520833" stroke-width="0.211667"/>
<g opacity="1" vectornator:layerName="(curve)">
<g opacity="1">
<path d="M199.93 196.552C200.527 195.349 202.183 195.632 202.183 195.632C202.183 195.632 199.737 195.299 199.299 194.011C198.861 192.723 199.823 191.489 200.43 190.479C201.037 189.47 201.725 189.972 201.725 189.972C201.725 189.972 202.167 188.204 203.38 187.805C204.593 187.406 206.576 188.377 206.576 188.377C206.576 188.377 207.877 187.049 209.115 187.174C210.354 187.3 211.53 188.88 211.53 188.88C211.53 188.88 212.73 187.144 213.985 187.056C215.24 186.967 216.55 188.528 216.55 188.528C216.55 188.528 217.86 188.152 219.04 188.396C220.22 188.64 221.27 189.503 221.27 189.503C221.27 189.503 222.806 189.192 223.682 189.948C224.558 190.704 224.774 192.527 224.774 192.527C224.774 192.527 226.448 192.466 227.123 193.367C227.798 194.268 227.473 196.13 227.473 196.13C227.473 196.13 228.818 196.372 229.615 197.076C230.413 197.78 230.662 198.945 230.662 198.945C230.662 198.945 231.735 200.997 231.262 201.277C229.942 202.059 230.934 203.753 230.934 203.753C230.934 203.753 233.323 203.941 233.623 205.095C233.923 206.249 232.732 208.149 232.732 208.149C232.732 208.149 233.315 210.336 232.591 212.011C231.867 213.687 228.811 214.77 228.811 214.77C228.811 214.77 229.296 216.978 227.807 218.463C226.317 219.948 225.325 220.682 223.878 220.792C222.432 220.903 222.019 218.905 222.019 218.905C222.019 218.905 220.544 219.068 219.525 218.237C218.505 217.407 217.94 215.585 217.94 215.585C217.94 215.585 215.518 214.764 215.464 213.415C215.411 212.067 216.858 210.766 216.858 210.766C216.858 210.766 215.268 211.563 214.465 210.936C213.661 210.309 213.645 208.257 213.645 208.257C213.645 208.257 212.594 209.212 211.264 208.872C209.935 208.531 208.328 206.895 208.328 206.895C208.328 206.895 207.14 205.807 204.996 203.744C202.852 201.681 199.814 201.834 199.797 200.443C199.78 199.051 199.334 197.754 199.93 196.552Z" fill="#4b271b" fill-rule="nonzero" opacity="1" stroke="#000000" stroke-linecap="round" stroke-linejoin="miter" stroke-opacity="0" stroke-width="0.211667"/>
<path d="M204.101 196.392C204.101 196.392 204.134 198.744 205.029 199.204C205.924 199.664 207.614 199.05 207.614 199.05C207.614 199.05 208.504 200.952 209.505 201.431C210.505 201.91 212.497 199.929 212.497 199.929C212.497 199.929 212.007 203.397 210.259 203.779C209.376 203.973 207.662 203.13 207.045 202.308C206.442 201.503 206.926 200.72 206.926 200.72C206.926 200.72 205.933 201.055 204.771 200.96C203.902 200.89 202.823 200.5 202.627 199.981C202.169 198.767 204.101 196.392 204.101 196.392Z" fill="#32160b" fill-rule="nonzero" opacity="1" stroke="#000000" stroke-linecap="round" stroke-linejoin="miter" stroke-opacity="0" stroke-width="0.211667"/>
<path d="M210.907 198.86C210.126 198.805 209.828 199.447 210.03 200.015C210.232 200.584 211.076 201.137 211.715 201.133C212.355 201.129 213.503 200.729 213.486 200.268C213.468 199.808 211.689 198.914 210.907 198.86Z" fill="#6c4f4b" fill-rule="nonzero" opacity="1" stroke="#000000" stroke-linecap="round" stroke-linejoin="miter" stroke-opacity="0" stroke-width="0.211667"/>
<path d="M212.651 194.432C211.835 193.135 212.854 191.473 214.179 190.832C215.503 190.191 217.376 190.721 217.947 191.868C218.518 193.015 218.751 195.768 217.81 196.547C216.869 197.326 213.466 195.729 212.651 194.432Z" fill="#6c4f4b" fill-rule="nonzero" opacity="1" stroke="#000000" stroke-linecap="round" stroke-linejoin="miter" stroke-opacity="0" stroke-width="0.211667"/>
<path d="M227.93 201.679C227.279 201.613 227.213 202.49 226.649 202.816C226.173 203.09 225.005 202.26 224.41 202.52C222.95 203.157 222.405 203.63 221.748 203.193C220.069 202.079 217.89 203.307 217.514 201.421C217.244 200.069 217.72 200.824 219.337 201.372C219.828 201.539 220.145 200.245 221.094 200.518C221.628 200.671 222.039 202.058 222.964 201.864C223.404 201.771 223.445 201.005 223.839 200.783C224.521 200.397 225.674 200.422 226.019 200.188C226.827 199.638 227.095 198.763 227.313 198.58C227.904 198.084 230.016 199.059 229.508 200.265C229.212 200.967 229.429 201.83 227.93 201.679Z" fill="#714739" fill-rule="nonzero" opacity="1" stroke="#000000" stroke-linecap="round" stroke-linejoin="miter" stroke-opacity="0" stroke-width="0.211667"/>
</g>
<path d="M218.484 209.13C218.484 209.13 218.976 211.497 220.19 212.111C221.404 212.724 223.412 212.395 223.412 212.395C223.412 212.395 224.896 214.455 226.246 215.107C227.596 215.758 229.722 214.108 229.722 214.108C229.722 214.108 229.771 217.505 227.646 217.592C226.571 217.636 224.254 216.499 223.321 215.568C222.408 214.658 222.866 213.955 222.866 213.955C222.866 213.955 221.681 214.122 220.201 213.829C219.095 213.61 217.662 213.036 217.317 212.481C216.508 211.185 218.484 209.13 218.484 209.13Z" fill="#32160b" fill-rule="nonzero" opacity="1" stroke="#000000" stroke-linecap="round" stroke-linejoin="miter" stroke-opacity="0" stroke-width="0.211667"/>
<path d="M221.769 207.903C221.389 207.758 220.474 207.931 219.263 207.662C218.883 207.577 218.367 206.902 217.951 206.264C217.74 205.942 217.671 203.602 218.468 203.687C218.713 203.714 219.361 204.977 219.651 205.947C219.774 206.355 220.602 206.562 221.038 206.423C221.795 206.183 222.526 205.177 222.508 205.577C222.487 206.041 223.032 207.514 224.205 208.033C225.405 208.563 227.233 208.134 227.242 208.273C227.29 209.02 225.906 209.885 224.507 209.809C222.769 209.714 222.148 208.049 221.769 207.903Z" fill="#714739" fill-rule="nonzero" opacity="1" stroke="#000000" stroke-linecap="round" stroke-linejoin="miter" stroke-opacity="0" stroke-width="0.211667"/>
</g>
<g opacity="1" vectornator:layerName="(curve)">
<g opacity="1">
<path d="M175.962 191.554C176.126 190.306 177.588 190.109 177.588 190.109C177.588 190.109 175.452 190.477 174.727 189.435C174.003 188.392 174.464 187.016 174.69 185.939C174.916 184.863 175.631 185.128 175.631 185.128C175.631 185.128 175.508 183.412 176.41 182.72C177.312 182.029 179.24 182.362 179.24 182.362C179.24 182.362 179.957 180.808 181.026 180.583C182.096 180.357 183.519 181.461 183.519 181.461C183.519 181.461 184.038 179.566 185.062 179.144C186.086 178.721 187.614 179.77 187.614 179.77C187.614 179.77 188.604 179.073 189.658 178.971C190.712 178.868 191.829 179.359 191.829 179.359C191.829 179.359 193.026 178.659 193.968 179.101C194.91 179.544 195.598 181.129 195.598 181.129C195.598 181.129 196.979 180.617 197.794 181.245C198.608 181.873 198.855 183.642 198.855 183.642C198.855 183.642 200.046 183.492 200.908 183.909C201.77 184.326 202.303 185.309 202.303 185.309C202.303 185.309 203.77 186.867 203.453 187.248C202.568 188.316 203.868 189.572 203.868 189.572C203.868 189.572 205.916 189.088 206.488 190.047C207.06 191.006 206.593 193.046 206.593 193.046C206.593 193.046 207.689 194.86 207.55 196.569C207.412 198.279 205.16 200.091 205.16 200.091C205.16 200.091 206.179 201.951 205.348 203.698C204.517 205.445 203.893 206.378 202.715 206.874C201.537 207.369 200.636 205.68 200.636 205.68C200.636 205.68 199.449 206.23 198.366 205.76C197.283 205.29 196.305 203.8 196.305 203.8C196.305 203.8 194.052 203.722 193.632 202.52C193.212 201.318 194.06 199.748 194.06 199.748C194.06 199.748 192.953 200.903 192.107 200.557C191.262 200.21 190.677 198.364 190.677 198.364C190.677 198.364 190.064 199.513 188.859 199.569C187.653 199.626 185.855 198.589 185.855 198.589C185.855 198.589 184.56 197.933 182.195 196.658C179.83 195.383 177.334 196.352 176.933 195.101C176.531 193.85 175.798 192.802 175.962 191.554Z" fill="#4b271b" fill-rule="nonzero" opacity="1" stroke="#000000" stroke-linecap="round" stroke-linejoin="miter" stroke-opacity="0" stroke-width="0.211667"/>
<path d="M179.402 190.269C179.402 190.269 180.084 192.383 180.96 192.553C181.836 192.723 183.076 191.706 183.076 191.706C183.076 191.706 184.349 193.179 185.318 193.338C186.288 193.497 187.4 191.164 187.4 191.164C187.4 191.164 187.957 194.427 186.603 195.25C185.918 195.666 184.252 195.375 183.508 194.801C182.78 194.241 182.966 193.402 182.966 193.402C182.966 193.402 182.23 193.976 181.232 194.208C180.487 194.382 179.477 194.325 179.169 193.91C178.448 192.941 179.402 190.269 179.402 190.269Z" fill="#32160b" fill-rule="nonzero" opacity="1" stroke="#000000" stroke-linecap="round" stroke-linejoin="miter" stroke-opacity="0" stroke-width="0.211667"/>
<path d="M185.775 190.634C185.107 190.799 185.036 191.46 185.363 191.917C185.69 192.375 186.549 192.643 187.082 192.465C187.616 192.286 188.464 191.611 188.321 191.2C188.178 190.79 186.443 190.47 185.775 190.634Z" fill="#6c4f4b" fill-rule="nonzero" opacity="1" stroke="#000000" stroke-linecap="round" stroke-linejoin="miter" stroke-opacity="0" stroke-width="0.211667"/>
<path d="M185.999 186.163C184.957 185.216 185.346 183.438 186.274 182.497C187.202 181.557 188.915 181.523 189.711 182.402C190.507 183.28 191.468 185.7 190.898 186.66C190.329 187.621 187.042 187.11 185.999 186.163Z" fill="#6c4f4b" fill-rule="nonzero" opacity="1" stroke="#000000" stroke-linecap="round" stroke-linejoin="miter" stroke-opacity="0" stroke-width="0.211667"/>
<path d="M200.781 188.523C200.219 188.642 200.408 189.45 200.027 189.899C199.706 190.276 198.499 189.847 198.074 190.244C197.031 191.218 196.708 191.794 196.037 191.58C194.325 191.033 192.846 192.737 192.007 191.139C191.406 189.993 192.013 190.543 193.516 190.596C193.974 190.612 193.878 189.358 194.747 189.345C195.235 189.337 195.965 190.475 196.683 190.047C197.025 189.844 196.847 189.141 197.114 188.833C197.576 188.298 198.547 188.006 198.77 187.7C199.292 186.983 199.272 186.12 199.403 185.895C199.759 185.286 201.795 185.589 201.706 186.815C201.654 187.53 202.076 188.249 200.781 188.523Z" fill="#714739" fill-rule="nonzero" opacity="1" stroke="#000000" stroke-linecap="round" stroke-linejoin="miter" stroke-opacity="0" stroke-width="0.211667"/>
</g>
<path d="M194.963 197.828C194.963 197.828 196.032 199.829 197.217 200.05C198.402 200.272 199.988 199.426 199.988 199.426C199.988 199.426 201.801 200.879 203.111 201.097C204.42 201.315 205.737 199.245 205.737 199.245C205.737 199.245 206.723 202.297 204.971 202.956C204.086 203.29 201.834 202.898 200.795 202.314C199.779 201.742 199.966 200.982 199.966 200.982C199.966 200.982 199.023 201.457 197.705 201.598C196.72 201.703 195.363 201.576 194.92 201.171C193.884 200.223 194.963 197.828 194.963 197.828Z" fill="#32160b" fill-rule="nonzero" opacity="1" stroke="#000000" stroke-linecap="round" stroke-linejoin="miter" stroke-opacity="0" stroke-width="0.211667"/>
<path d="M197.365 195.823C197.008 195.795 196.291 196.202 195.205 196.29C194.864 196.318 194.245 195.85 193.72 195.388C193.454 195.156 192.745 193.063 193.435 192.922C193.647 192.879 194.54 193.842 195.052 194.637C195.268 194.972 196.017 194.932 196.344 194.688C196.909 194.264 197.239 193.156 197.336 193.522C197.448 193.946 198.313 195.126 199.437 195.273C200.587 195.423 201.995 194.536 202.041 194.66C202.289 195.32 201.373 196.479 200.183 196.793C198.705 197.183 197.723 195.851 197.365 195.823Z" fill="#714739" fill-rule="nonzero" opacity="1" stroke="#000000" stroke-linecap="round" stroke-linejoin="miter" stroke-opacity="0" stroke-width="0.211667"/>
</g>
<g opacity="1" vectornator:layerName="(curve)">
<g opacity="1">
<path d="M152.474 189.937C152.421 188.646 153.874 188.191 153.874 188.191C153.874 188.191 151.766 188.936 150.846 188.008C149.926 187.08 150.153 185.607 150.194 184.479C150.234 183.35 151.008 183.493 151.008 183.493C151.008 183.493 150.582 181.779 151.378 180.922C152.174 180.065 154.193 180.066 154.193 180.066C154.193 180.066 154.649 178.369 155.697 177.954C156.745 177.54 158.386 178.408 158.386 178.408C158.386 178.408 158.581 176.401 159.548 175.795C160.516 175.189 162.255 175.983 162.255 175.983C162.255 175.983 163.139 175.106 164.193 174.818C165.246 174.53 166.468 174.832 166.468 174.832C166.468 174.832 167.563 173.915 168.599 174.198C169.635 174.482 170.613 175.966 170.613 175.966C170.613 175.966 171.928 175.206 172.867 175.699C173.805 176.193 174.367 177.939 174.367 177.939C174.367 177.939 175.552 177.58 176.502 177.851C177.452 178.122 178.166 179.024 178.166 179.024C178.166 179.024 179.932 180.344 179.677 180.785C178.964 182.019 180.507 183.064 180.507 183.064C180.507 183.064 182.505 182.217 183.255 183.087C184.005 183.958 183.889 186.102 183.889 186.102C183.889 186.102 185.322 187.746 185.481 189.5C185.641 191.253 183.669 193.479 183.669 193.479C183.669 193.479 185.032 195.183 184.494 197.095C183.955 199.007 183.484 200.06 182.373 200.767C181.262 201.474 180.05 199.922 180.05 199.922C180.05 199.922 178.939 200.685 177.755 200.398C176.571 200.112 175.314 198.775 175.314 198.775C175.314 198.775 173.01 199.09 172.372 197.947C171.733 196.804 172.319 195.069 172.319 195.069C172.319 195.069 171.396 196.43 170.476 196.227C169.555 196.024 168.636 194.258 168.636 194.258C168.636 194.258 168.215 195.527 166.999 195.795C165.782 196.062 163.772 195.327 163.772 195.327C163.772 195.327 162.339 194.889 159.71 194.012C157.08 193.135 154.712 194.55 154.084 193.355C153.456 192.16 152.526 191.228 152.474 189.937Z" fill="#4b271b" fill-rule="nonzero" opacity="1" stroke="#000000" stroke-linecap="round" stroke-linejoin="miter" stroke-opacity="0" stroke-width="0.211667"/>
<path d="M155.747 188.037C155.747 188.037 156.812 190.056 157.732 190.075C158.653 190.094 159.736 188.85 159.736 188.85C159.736 188.85 161.29 190.117 162.303 190.109C163.317 190.101 164.039 187.547 164.039 187.547C164.039 187.547 165.177 190.75 163.945 191.819C163.322 192.359 161.576 192.355 160.719 191.905C159.88 191.465 159.922 190.584 159.922 190.584C159.922 190.584 159.274 191.293 158.3 191.702C157.573 192.007 156.535 192.126 156.149 191.761C155.246 190.906 155.747 188.037 155.747 188.037Z" fill="#32160b" fill-rule="nonzero" opacity="1" stroke="#000000" stroke-linecap="round" stroke-linejoin="miter" stroke-opacity="0" stroke-width="0.211667"/>
<path d="M162.292 187.294C161.642 187.577 161.686 188.258 162.099 188.664C162.512 189.069 163.433 189.191 163.944 188.918C164.455 188.644 165.199 187.813 164.981 187.422C164.764 187.032 162.943 187.011 162.292 187.294Z" fill="#6c4f4b" fill-rule="nonzero" opacity="1" stroke="#000000" stroke-linecap="round" stroke-linejoin="miter" stroke-opacity="0" stroke-width="0.211667"/>
<path d="M161.735 182.732C160.509 181.956 160.592 180.089 161.371 178.976C162.149 177.863 163.885 177.53 164.849 178.28C165.813 179.03 167.215 181.31 166.805 182.381C166.395 183.451 162.961 183.508 161.735 182.732Z" fill="#6c4f4b" fill-rule="nonzero" opacity="1" stroke="#000000" stroke-linecap="round" stroke-linejoin="miter" stroke-opacity="0" stroke-width="0.211667"/>
<path d="M177.183 182.54C176.632 182.759 176.967 183.544 176.658 184.064C176.398 184.502 175.095 184.278 174.733 184.754C173.843 185.921 173.616 186.56 172.896 186.46C171.058 186.206 169.853 188.188 168.719 186.718C167.906 185.663 168.621 186.114 170.159 185.905C170.627 185.842 170.31 184.59 171.19 184.425C171.686 184.332 172.628 185.356 173.283 184.798C173.596 184.532 173.291 183.852 173.508 183.494C173.884 182.873 174.82 182.407 174.993 182.059C175.398 181.243 175.226 180.374 175.32 180.123C175.575 179.445 177.699 179.396 177.824 180.652C177.897 181.384 178.452 182.038 177.183 182.54Z" fill="#714739" fill-rule="nonzero" opacity="1" stroke="#000000" stroke-linecap="round" stroke-linejoin="miter" stroke-opacity="0" stroke-width="0.211667"/>
</g>
<path d="M172.901 192.969C172.901 192.969 174.34 194.806 175.584 194.823C176.828 194.841 178.292 193.708 178.292 193.708C178.292 193.708 180.392 194.862 181.761 194.854C183.131 194.847 184.107 192.523 184.107 192.523C184.107 192.523 185.646 195.438 183.981 196.41C183.139 196.902 180.779 196.898 179.62 196.489C178.486 196.088 178.543 195.286 178.543 195.286C178.543 195.286 177.667 195.931 176.351 196.304C175.368 196.582 173.966 196.69 173.444 196.357C172.224 195.579 172.901 192.969 172.901 192.969Z" fill="#32160b" fill-rule="nonzero" opacity="1" stroke="#000000" stroke-linecap="round" stroke-linejoin="miter" stroke-opacity="0" stroke-width="0.211667"/>
<path d="M174.992 190.521C174.624 190.556 173.966 191.092 172.876 191.371C172.534 191.458 171.823 191.092 171.208 190.718C170.897 190.528 169.808 188.535 170.485 188.272C170.693 188.192 171.77 189.01 172.431 189.725C172.709 190.026 173.464 189.855 173.753 189.551C174.254 189.024 174.395 187.845 174.558 188.199C174.746 188.608 175.833 189.651 177.002 189.604C178.198 189.555 179.474 188.412 179.543 188.529C179.911 189.153 179.183 190.486 178.028 191.011C176.593 191.663 175.36 190.487 174.992 190.521Z" fill="#714739" fill-rule="nonzero" opacity="1" stroke="#000000" stroke-linecap="round" stroke-linejoin="miter" stroke-opacity="0" stroke-width="0.211667"/>
</g>
</g>
</g>
</svg>
