<?xml version="1.0" encoding="UTF-8" standalone="no"?>
<svg
   version="1.1"
   width="871.99994"
   height="603"
   viewBox="-928.9484 -300.7011 2186.7443 1512.1639"
   xml:space="preserve"
   id="svg15"
   sodipodi:docname="edited-diagram-1772763930813.svg"
   xmlns:inkscape="http://www.inkscape.org/namespaces/inkscape"
   xmlns:sodipodi="http://sodipodi.sourceforge.net/DTD/sodipodi-0.dtd"
   xmlns="http://www.w3.org/2000/svg"
   xmlns:svg="http://www.w3.org/2000/svg"><sodipodi:namedview
   id="namedview15"
   pagecolor="#ffffff"
   bordercolor="#000000"
   borderopacity="0.25"
   inkscape:showpageshadow="2"
   inkscape:pageopacity="0.0"
   inkscape:pagecheckerboard="0"
   inkscape:deskcolor="#d1d1d1"><inkscape:page
     x="0"
     y="0"
     width="2186.7444"
     height="1512.1639"
     id="page2"
     margin="0"
     bleed="0" /></sodipodi:namedview>
<desc
   id="desc1">Created with Fabric.js 6.9.1</desc>
<defs
   id="defs1" />
<rect
   x="0"
   y="0"
   width="100%"
   height="100%"
   fill="#e5e7eb"
   id="rect1" />
<g
   transform="translate(436.5,302)"
   id="__captureBox__">
<rect
   style="opacity:1;fill:#ffffff;fill-rule:nonzero;stroke:#d1d5db;stroke-width:1;stroke-linecap:butt;stroke-linejoin:miter;stroke-miterlimit:4;stroke-dasharray:none;stroke-dashoffset:0"
   x="-261.5"
   y="-261.5"
   rx="0"
   ry="0"
   width="523"
   height="523"
   id="rect2" />
</g>
<g
   transform="matrix(0.2552,0,0,0.2552,435.38969,302.72062)"
   id="svg-obj-0">
<path
   style="opacity:1;fill:#ffffff;fill-rule:nonzero;stroke:none;stroke-width:1;stroke-linecap:butt;stroke-linejoin:miter;stroke-miterlimit:4;stroke-dasharray:none;stroke-dashoffset:0"
   transform="translate(-1024,-1024)"
   d="M 0,0 H 2048 V 2048 H 0 Z"
   stroke-linecap="round"
   id="path2" />
</g>
<g
   transform="matrix(0.2552,0,0,0.2552,304.2835,283.8305)"
   id="svg-obj-1">
<path
   style="opacity:1;fill:#000000;fill-rule:nonzero;stroke:none;stroke-width:1;stroke-linecap:butt;stroke-linejoin:miter;stroke-miterlimit:4;stroke-dasharray:none;stroke-dashoffset:0"
   transform="translate(-507.9633,-954.7749)"
   d="m 443.676,537.424 c 4.715,-0.576 10.537,-0.504 15.427,-0.651 102.487,-3.085 228.746,23.239 276.371,125.422 8.861,19.012 15.428,38.517 22.264,58.158 11.102,31.925 29.587,65.563 14.924,99.651 -13.026,30.281 9.348,44.847 25.058,67.842 14.341,20.993 33.429,40.378 45.258,62.988 3.065,5.858 2.891,14.185 0.304,20.147 -8.169,20.326 -41.927,11.775 -50.222,29.929 -5.261,11.51 16.755,27.09 9.103,40.03 -6.369,10.77 -21.522,14.26 -32.624,17.91 7.834,3.3 18.939,6.88 23.278,14.84 11.146,20.43 -17.766,27.71 -18.598,41.95 -1.302,22.29 16.441,34.22 7.074,60.54 -20.042,56.32 -113.036,17.31 -153.718,36.13 -30.77,14.66 -12.011,50.7 -19.76,72.4 -7.924,22.19 -26.987,37.46 -27.894,64.41 -0.163,4.86 -2.108,18.51 -3.538,22.97 -2.737,1.4 -1.385,0.84 -4.986,0.66 l -1.346,-1.76 c -1.739,-16.23 4.205,-46.01 13.564,-60.23 5.726,-8.69 13.998,-20.52 16.392,-30.73 3.235,-13.8 -1.162,-34.1 2.064,-47.67 14.821,-62.34 116.321,-13.97 156.827,-40.93 35.557,-23.67 2.208,-53.02 7.945,-80.99 2.248,-10.96 19.324,-19.22 20.108,-28.05 1.089,-12.26 -23.564,-14.09 -31.121,-21.71 0.443,-10.26 33.941,-13.6 38.423,-22.44 1.328,-7.39 -4.099,-16.02 -6.643,-22.6 -11.719,-31.225 14.483,-31.464 35.032,-38.175 30.249,-9.879 4.434,-37.167 -4.954,-49.548 l -32.552,-42.85 c -6.644,-8.74 -12.999,-16.683 -18.913,-25.973 -15.626,-24.552 5.01,-44.503 3.893,-69.101 -0.821,-18.095 -10.531,-40.625 -17.08,-57.935 -7.363,-20.883 -14.385,-41.447 -23.084,-61.807 -21.332,-49.925 -64.383,-83.524 -114.891,-102.324 -89.526,-33.324 -210.536,-31.63 -297.949,7.135 -56.363,24.996 -101.134,71.044 -121.607,128.868 -28.106,79.381 -20.286,174.845 20.612,248.398 19.812,35.631 42.708,68.002 60.213,104.602 23.945,50.08 24.587,96.72 13.392,149.87 -3.34,15.85 -6.617,30.73 -12.318,46.15 -2.789,1.62 -1.22,1.25 -5.014,0.31 -1.953,-2.11 -2.671,-2.28 -1.561,-5.95 10.769,-35.6 18.52,-71.93 17.569,-109.07 -1.37,-76.36 -56.487,-132.02 -87.537,-197.341 -45.365,-95.435 -42.605,-230.036 28.934,-312.117 54.449,-62.471 134.102,-85.74 213.881,-91.358 z"
   stroke-linecap="round"
   id="path3" />
</g>
<g
   transform="matrix(0.2552,0,0,0.2552,566.4139,283.7459)"
   id="svg-obj-2">
<path
   style="opacity:1;fill:#000000;fill-rule:nonzero;stroke:none;stroke-width:1;stroke-linecap:butt;stroke-linejoin:miter;stroke-miterlimit:4;stroke-dasharray:none;stroke-dashoffset:0"
   transform="translate(-1534.9332,-954.4433)"
   d="m 1534.51,537.412 c 0.36,-0.041 0.71,-0.082 1.06,-0.123 88.61,-4.823 187.21,10.381 255.87,70.164 92.56,80.585 100.3,230.085 49.55,335.156 -25.68,53.986 -69.46,101.921 -82.34,161.451 -10.87,50.22 1.43,98.22 14.03,146.37 0.45,1.72 -0.56,2.62 -1.55,3.67 l -2.41,-0.07 c -2.57,-1.84 -3.95,-3.99 -4.98,-6.96 -7.16,-20.48 -10.76,-44.3 -14.45,-64.84 -20.26,-112.79 51.18,-167.39 91.26,-259.312 29.33,-67.27 31.33,-160.042 2.75,-228.578 -24.19,-57.992 -68.85,-99.581 -127.56,-123.258 -87.29,-35.207 -209.73,-36.224 -296.89,-0.14 -57.35,23.744 -89.81,58.105 -112.73,114.558 -5.17,14.337 -10.04,28.829 -15.17,43.467 -6.84,19.51 -14.89,36.406 -18.14,57.054 -3.88,18.804 15.7,48.234 7.24,65.195 -13.59,27.278 -38.91,53.514 -56.39,78.868 -6.75,9.782 -25.33,28.29 -14.18,40.101 12.2,12.917 39.33,7.968 47.77,26.075 6.09,13.16 -4.39,23.47 -9.06,34.69 -4.88,16.22 32.17,17.01 38.16,29.09 -3.21,7.56 -30.32,9.39 -30.62,21.62 -0.18,7.45 11.48,13.29 15.7,19.38 18.16,26.18 -18.57,54.29 2.38,80.69 7.77,9.66 17.38,13.6 29.29,16.43 43.93,10.43 139.27,-25.24 139.44,48.13 0.32,8.37 -3.16,23.39 -0.66,31.17 8.14,25.28 28.76,43.63 30.05,72.2 0.34,7.58 2.38,12.58 1.04,20.89 -2.28,2.13 -0.97,1.27 -4.43,1.88 -0.7,-0.4 -1.39,-0.8 -2.08,-1.2 -0.68,-5.08 -1.97,-14.31 -2.68,-18.94 -1.49,-9.75 -5.18,-25.41 -9.65,-33.94 -6.42,-12.26 -17.29,-23.59 -20.18,-37.75 -3.52,-17.21 4.68,-35.8 -2.7,-52.49 -4.24,-9.6 -14.23,-16.72 -24.22,-18.82 -37.95,-7.96 -81.75,5.98 -118.97,-7.14 -9.99,-3.73 -18.65,-10.16 -23.63,-19.7 -5.93,-11.34 -7.05,-22.43 -3.69,-34.5 3.04,-10.93 9.59,-22.87 7.8,-34.18 -1.63,-10.28 -15.81,-16.54 -19.5,-25.96 -1.75,-4.5 -1.25,-9.16 0.56,-13.5 3.57,-8.33 14.42,-12.06 22.3,-15.29 -51.35,-20.05 -28.52,-24.01 -20.96,-55.55 3.07,-12.8 -35.68,-16.741 -45.09,-25.168 -24.48,-21.928 13.15,-52.003 24.65,-71.119 6.06,-10.473 42.56,-51.146 42.72,-61.82 0.52,-34.27 -18.77,-47.437 -1.79,-87.446 13.46,-31.701 21.5,-68.318 37.56,-100.12 6.9,-13.737 15.49,-26.56 25.57,-38.176 49.9,-57.168 127.17,-76.955 199.95,-82.209 z"
   stroke-linecap="round"
   id="path4" />
</g>
<g
   transform="matrix(0.2552,0,0,0.2552,585.6293,281.463)"
   id="svg-obj-3">
<path
   style="opacity:1;fill:#000000;fill-rule:nonzero;stroke:none;stroke-width:1;stroke-linecap:butt;stroke-linejoin:miter;stroke-miterlimit:4;stroke-dasharray:none;stroke-dashoffset:0"
   transform="translate(-1610.215,-945.4994)"
   d="m 1614.05,881.173 c 1.09,-0.041 2.18,-0.066 3.27,-0.075 10.11,-0.122 23.1,4.153 29.72,11.825 28.49,33.011 5.6,86.754 -19.99,112.207 -2.9,0.94 -4.74,1.29 -6.45,-1.41 0.22,-5.795 7.15,-11.811 11.1,-16.384 21.93,-24.608 36.22,-83.163 -4.37,-97.579 -22.76,-8.082 -37.15,12.444 -42.7,31.167 26.39,6.335 47.39,22.281 41.96,52.355 -8.86,21.39 -14.83,14.163 -30.45,22.869 -11.58,6.452 -30.72,27.682 -35.63,-0.456 -2.03,-11.593 7.09,-14.27 13.14,-21.747 6.8,-7.861 -4.44,-16.918 0.66,-23.369 3.38,-0.303 1.95,-0.743 4.53,0.963 14.92,26.039 -13.7,33.834 -11.24,46.712 9.47,9.219 17.16,-5.136 23.75,-8.989 3.93,-2.292 11.54,-2.882 15.95,-4.77 12.42,-5.324 17.49,-19.223 11.03,-31.223 -7.52,-14.193 -18.63,-19.539 -32.64,-24.499 1.44,5.925 4.5,12.323 4.96,17.698 -6.9,7.014 -10.04,-4.22 -11.23,-9.216 -6.66,-28.105 6.68,-49.876 34.63,-56.079 z"
   stroke-linecap="round"
   id="path5" />
</g>
<g
   transform="matrix(0.2552,0,0,0.2552,586.1822,285.7427)"
   id="svg-obj-4">
<path
   style="opacity:1;fill:#000000;fill-rule:nonzero;stroke:none;stroke-width:1;stroke-linecap:butt;stroke-linejoin:miter;stroke-miterlimit:4;stroke-dasharray:none;stroke-dashoffset:0"
   transform="translate(-1612.3812,-962.2664)"
   d="m 1616.17,861.326 c 6.25,-0.546 12.55,-0.015 18.63,1.569 41.26,10.871 50.05,59.252 39.18,94.738 -10.49,34.865 -32.31,62.177 -56.26,89.087 -18.63,20.92 -52.86,24.26 -68.83,-2.01 -2.24,-3.68 -3.17,-15.68 -1.58,-19.86 l 2.58,-0.7 c 5.35,4.04 3.75,9.73 6.7,16.07 8.46,18.19 26.73,18.33 43.12,10.96 9.14,-5.74 16.09,-14.19 22.98,-22.36 20.52,-24.33 39.49,-51.487 46.28,-83.121 3.71,-18.748 2.38,-39.124 -8.64,-55.219 -23.07,-33.707 -66.2,-24.909 -87.22,4.856 -3.35,4.732 -6.47,15.356 -10.66,18.324 -3.25,-1.034 -1.99,-0.119 -4.02,-2.678 -0.3,-5.873 6.76,-18.113 10.49,-22.852 12.84,-16.276 27.11,-24.077 47.25,-26.804 z"
   stroke-linecap="round"
   id="path6" />
</g>

<g
   transform="matrix(0.2552,0,0,0.2552,414.2246,294.6847)"
   id="svg-obj-6">
<path
   style="opacity:1;fill:#000000;fill-rule:nonzero;stroke:none;stroke-width:1;stroke-linecap:butt;stroke-linejoin:miter;stroke-miterlimit:4;stroke-dasharray:none;stroke-dashoffset:0"
   transform="translate(-938.6887,-997.299)"
   d="m 1000.12,950.808 0.9,0.261 c 1.42,3.946 -2.6,28.31 -3.415,34.175 l -8.217,-8.672 c -1.512,2.106 -3.047,4.195 -4.607,6.266 -27.565,36.512 -63.496,54.642 -108.176,60.952 -0.432,-1.65 -1.374,-6.94 1.031,-7.48 11.461,-2.57 23.721,-4.33 34.755,-8.38 28.806,-10.61 53.551,-30.005 70.741,-55.439 l -11.447,-4.754 c 9.352,-5.852 18.833,-11.496 28.435,-16.929 z"
   stroke-linecap="round"
   id="path8" />
</g><g
   transform="matrix(0.2552,0,0,0.2552,412.96936,324.38503)"
   id="svg-obj-6-7">
<path
   style="opacity:1;fill:#000000;fill-rule:nonzero;stroke:none;stroke-width:1;stroke-linecap:butt;stroke-linejoin:miter;stroke-miterlimit:4;stroke-dasharray:none;stroke-dashoffset:0"
   d="m 61.4313,46.491 0.9,-0.261 c 1.42,-3.946 -2.6,-28.31 -3.415,-34.175 l -8.217,8.672 c -1.512,-2.106 -3.047,-4.195 -4.607,-6.266 -27.565,-36.512 -63.496,-54.642 -108.176,-60.952 -0.432,1.65 -1.374,6.94 1.031,7.48 11.461,2.57 23.721,4.33 34.755,8.38 28.806,10.61 53.551,30.005 70.741,55.439 l -11.447,4.754 c 9.352,5.852 18.833,11.496 28.435,16.929 z"
   stroke-linecap="round"
   id="path8-5" />
</g>

<g
   transform="matrix(0.2552,0,0,0.2552,428.37404,309.8338)"
   id="svg-obj-8">
<path
   style="opacity:1;fill:#000000;fill-rule:nonzero;stroke:none;stroke-width:1;stroke-linecap:butt;stroke-linejoin:miter;stroke-miterlimit:4;stroke-dasharray:none;stroke-dashoffset:0"
   transform="translate(-1151.3193,-1056.65)"
   d="m 1193.95,1040.5 c 5.96,2.35 24.36,12.71 31.02,16.18 -9.62,5.4 -21.19,11.02 -31.1,16.12 l 1.17,-12.7 -73.87,0.1 c -6.18,0 -39.17,0.39 -42.94,-0.64 -0.77,-3.08 -0.78,-1.56 0.17,-4.71 7.92,-4.1 100.33,-1.97 116.57,-2.01 z"
   stroke-linecap="round"
   id="path10" />
</g>




<g
   transform="matrix(0.2681,0,0,0.2552,289.5719,428.848)"
   id="svg-obj-13">
		<text
   xml:space="preserve"
   font-family="Arial, sans-serif"
   font-size="80.1499px"
   font-style="normal"
   font-weight="normal"
   style="white-space:pre;opacity:1;fill:#000000;fill-rule:nonzero;stroke:none;stroke-width:1;stroke-linecap:butt;stroke-linejoin:miter;stroke-miterlimit:4;stroke-dasharray:none;stroke-dashoffset:0"
   id="text14"><tspan
     x="-149.26801"
     y="25.178301"
     id="tspan14">Speaker</tspan></text>
</g>
<g
   transform="matrix(0.2784,0,0,0.2552,580.7082,427.241)"
   id="svg-obj-14">
		<text
   xml:space="preserve"
   font-family="Arial, sans-serif"
   font-size="79.3429px"
   font-style="normal"
   font-weight="normal"
   style="white-space:pre;opacity:1;fill:#000000;fill-rule:nonzero;stroke:none;stroke-width:1;stroke-linecap:butt;stroke-linejoin:miter;stroke-miterlimit:4;stroke-dasharray:none;stroke-dashoffset:0"
   id="text15"><tspan
     x="-141.1395"
     y="24.924801"
     id="tspan15">Listener</tspan></text>
</g>
</svg>
