<?xml version="1.0" encoding="UTF-8" standalone="no"?>
<!DOCTYPE svg PUBLIC "-//W3C//DTD SVG 1.1//EN" "http://www.w3.org/Graphics/SVG/1.1/DTD/svg11.dtd">
<!-- Created with Vectornator (http://vectornator.io/) -->
<svg height="100%" stroke-miterlimit="10" style="fill-rule:nonzero;clip-rule:evenodd;stroke-linecap:round;stroke-linejoin:round;" version="1.1" viewBox="0 0 400 400" width="100%" xml:space="preserve" xmlns="http://www.w3.org/2000/svg" xmlns:xlink="http://www.w3.org/1999/xlink">
<defs/>
<g id="レイヤー-1">
<path d="M342.908 355.216L57.2799 354.87L23.3168 171.403L204.46 86.8317L379.317 170.832L342.908 355.216Z" fill="#e4bf8f" fill-rule="nonzero" opacity="1" stroke="#000000" stroke-linecap="round" stroke-linejoin="round" stroke-width="1"/>
<path d="M16.129 178.495L15.8602 165.86L204.119 82.9463L204.388 94.9016L16.129 178.495Z" fill="#d5a86e" fill-rule="nonzero" opacity="1" stroke="#000000" stroke-linecap="round" stroke-linejoin="round" stroke-width="1"/>
<path d="M385.753 178.495L386.022 165.86L204.791 82.5433C204.791 82.5433 205.328 93.021 204.925 94.2299C204.522 95.4389 385.753 178.495 385.753 178.495Z" fill="#d5a86e" fill-rule="nonzero" opacity="1" stroke="#000000" stroke-linecap="round" stroke-linejoin="round" stroke-width="1"/>
</g>
<g id="レイヤー-2">
<path d="M232.75 158.147C232.75 149.014 226.191 138.54 219.427 133.129C213.743 128.582 205.081 125.392 199.299 121.055C195.953 118.546 174.547 105.737 162.38 104.589C150.213 103.441 156.967 120.038 170.007 124.522C183.046 129.006 212.716 117.864 224.257 106.323" fill="#e4bf8f" fill-opacity="2.02963e-16" fill-rule="nonzero" opacity="1" stroke="#ff0606" stroke-linecap="round" stroke-linejoin="round" stroke-width="4.58064"/>
<path d="M165.108 157.157C165.108 148.024 171.667 137.551 178.431 132.139C184.115 127.592 192.777 124.403 198.56 120.066C201.905 117.557 223.311 104.748 235.478 103.6C247.645 102.452 240.891 119.048 227.852 123.532C214.812 128.016 185.142 116.874 173.601 105.333" fill="#e4bf8f" fill-opacity="2.02963e-16" fill-rule="nonzero" opacity="1" stroke="#ac0707" stroke-linecap="round" stroke-linejoin="round" stroke-width="4.58064"/>
</g>
<g id="レイヤー-3">
<path d="M94.9388 183.081C89.7298 187.013 88.5535 187.227 87.8142 201.901C87.0748 216.574 78.3371 222.682 75.8503 243.304C73.3634 263.926 73.4617 277.631 85.9322 302.183C107.44 344.527 136.611 337.915 136.611 337.915C136.611 337.915 125.218 308.134 124.378 286.027C123.538 263.92 135.804 241.801 135.804 241.801C135.804 241.801 136.88 251.671 144.509 255.441C152.138 259.211 166.319 256.881 166.319 256.881L178.149 255.133C178.149 255.133 194.683 253.093 209.604 252.42C220.463 251.931 220.695 248.479 220.627 245.858C220.56 243.237 221.77 240.252 215.922 239.271C210.075 238.29 208.479 242.327 198.699 244.808C188.92 247.289 186.55 250.505 176.804 249.194C167.058 247.884 160.404 239.919 160.404 239.919L156.506 234.028L148.844 223.653C148.844 223.653 155.195 228.324 158.254 228.627C161.312 228.929 169.276 227.955 169.276 227.955C169.276 227.955 175.595 228.761 178.955 223.922C182.316 219.083 188.466 217.992 200.463 219.242C212.461 220.491 228.156 228.893 228.156 228.893C228.156 228.893 226.878 207.909 211.083 194.642C195.288 181.374 186.987 179.283 164.975 175.822C142.963 172.36 123.034 180.796 123.034 180.796L108.65 186.173C108.65 186.173 100.148 179.149 94.9388 183.081Z" fill="#fbf8f4" fill-rule="nonzero" opacity="1" stroke="#fbf8f4" stroke-linecap="round" stroke-linejoin="round" stroke-width="1"/>
<path d="M31.0088 196.653C31.1662 197.632 32.2839 198.258 32.8715 199.103C33.1068 197.557 31.9027 196.466 32.8222 195.143C33.7836 197.037 35.1635 198.738 37.0725 199.653C36.8118 198.032 34.9137 196.091 36.5932 194.846C37.159 198.364 43.4135 203.83 46.7644 203.295C45.2196 202.131 43.0126 198.8 44.2796 196.977C46.1613 208.678 78.0038 211.719 87.6303 212.644C83.6439 219.282 49.4097 206.906 40.8458 204.85C38.3418 204.25 28.0556 200.904 31.0088 196.653Z" fill="#1e1512" fill-rule="nonzero" opacity="1" stroke="#1e1512" stroke-linecap="round" stroke-linejoin="round" stroke-width="1"/>
<path d="M80.8099 226.858C79.9677 225.647 75.0856 225.37 73.4578 224.979C64.858 222.915 37.1922 217.705 34.8329 209.473C35.0954 209.279 35.0954 209.279 35.3579 209.084C35.5156 210.065 36.724 210.898 37.507 211.488C36.593 207.744 35.704 208.661 37.1712 207.574C38.1326 209.468 39.5126 211.168 41.4216 212.084C41.1608 210.463 39.2627 208.522 40.9422 207.277C41.5006 210.749 47.6968 216.271 51.1135 215.726C49.7757 214.718 46.817 210.75 48.6286 209.408C50.8436 223.181 73.1019 219.59 82.0975 223.905C81.6683 224.89 81.2391 225.874 80.8099 226.858Z" fill="#1f1512" fill-rule="nonzero" opacity="1" stroke="#1f1512" stroke-linecap="round" stroke-linejoin="round" stroke-width="1"/>
<path d="M89.7518 264.195C90.2383 267.22 90.737 270.78 90.7104 273.81C90.698 275.225 81.1108 282.458 81.4567 291.159C83.0989 285.639 83.4884 276.183 90.9018 275C91.0819 276.12 94.3031 285.843 93.771 287.362C90.5342 296.603 87.6405 296.942 88.8148 307.688C85.4278 307.089 82.4027 296.908 81.3625 294.226C77.1397 283.34 74.4414 266.639 89.7518 264.195Z" fill="#f5eee3" fill-rule="nonzero" opacity="1" stroke="#f5eee3" stroke-linecap="round" stroke-linejoin="round" stroke-width="1"/>
<path d="M232.432 256.377C227.545 254.753 220.425 252.97 215.306 252.064C215.162 251.17 215.365 249.728 214.857 248.997C219.202 242.744 229.665 250.925 232.432 256.377Z" fill="#eaad32" fill-rule="nonzero" opacity="1" stroke="#eaad32" stroke-linecap="round" stroke-linejoin="round" stroke-width="1"/>
<path d="M220.842 244.284C217.158 243.93 214.677 242.402 212.616 239.438C217.077 238.726 220.032 239.247 220.842 244.284Z" fill="#e50817" fill-rule="nonzero" opacity="1" stroke="#e50817" stroke-linecap="round" stroke-linejoin="round" stroke-width="1"/>
<path d="M98.4005 184.673C98.4005 184.673 78.1127 168.255 76.5224 164.677C74.9321 161.099 58.081 158.101 55.4305 171.42C52.7799 184.739 40.089 187.191 53.8718 193.486C67.6545 199.781 88.2623 202.167 88.2623 202.167C88.2623 202.167 88.0966 196.418 90.3164 190.968C92.5362 185.518 98.4005 184.673 98.4005 184.673Z" fill="#f5f1ec" fill-rule="nonzero" opacity="1" stroke="#f5f1ec" stroke-linecap="round" stroke-linejoin="round" stroke-width="1"/>
<path d="M60.0825 167.529C59.8992 167.468 62.1846 167.429 62.2513 167.096C62.3416 166.644 65.8277 169.781 65.9764 169.864C67.7035 170.823 69.5842 171.503 71.2494 172.544C72.1598 173.113 73.1244 173.592 74.0155 174.186C75.2125 174.984 77.5015 176.096 78.8581 176.638C82.1253 177.945 84.6206 179.086 87.2412 181.706C88.305 182.77 91.212 183.229 92.2427 184.26" fill="#1e1512" fill-rule="nonzero" opacity="1" stroke="#6f6c6c" stroke-linecap="round" stroke-linejoin="round" stroke-width="1"/>
<path d="M57.48 174.903C53.8258 172.317 63.6482 175.405 64.1103 175.585C65.957 176.303 67.9448 178.082 68.9399 178.692C69.9351 179.303 71.0389 179.338 71.9799 179.737C73.3399 180.312 74.1136 182.094 75.45 182.711C77.9471 183.863 80.2235 185.14 82.7707 186.213C84.3264 186.868 86.1848 186.913 87.6114 187.769C88.0441 188.028 91.2833 188.226 91.0034 188.226" fill="#1e1512" fill-rule="nonzero" opacity="1" stroke="#6f6c6c" stroke-linecap="round" stroke-linejoin="round" stroke-width="1"/>
<path d="M54.5056 179.675C54.057 179.226 59.6542 180.708 59.8347 180.852C60.4968 181.382 60.748 182.449 61.5074 182.765C63.8694 183.749 66.1449 184.56 68.5957 185.272C71.8008 186.202 74.8908 187.771 77.845 189.248C79.7976 190.224 82.171 190.633 84.2417 191.323C85.5554 191.761 87.1632 192.619 88.5639 192.619" fill="#1e1512" fill-rule="nonzero" opacity="1" stroke="#6f6c6c" stroke-linecap="round" stroke-linejoin="round" stroke-width="1"/>
<path d="M51.5313 185.933C53.8248 185.933 62.5601 190.477 64.8266 191.349C66.2291 191.888 67.7389 192.003 69.1488 192.473C73.0214 193.764 77.054 194.836 80.8185 196.449C81.7919 196.866 88.1899 198.312 87.3016 196.535" fill="#6f6c6c" fill-rule="nonzero" opacity="1" stroke="#6f6c6c" stroke-linecap="round" stroke-linejoin="round" stroke-width="1"/>
<path d="M89.4664 208.73C84.0624 216.355 78.7271 221.393 75.4526 239.047C72.1781 256.702 73.9642 275.639 78.1088 282.28C82.2534 288.92 88.9169 265.335 88.9169 265.335L98.9006 236.574C98.9006 236.574 102.908 229.132 102.839 221.736C102.77 214.34 100.503 211.707 97.1603 208.455C93.8172 205.203 94.8705 201.105 89.4664 208.73Z" fill="#2d1f18" fill-rule="nonzero" opacity="1" stroke="#2d1f18" stroke-linecap="round" stroke-linejoin="round" stroke-width="1"/>
<path d="M166.193 177.805C160.09 176.026 148.147 175.329 136.286 177.943C124.425 180.557 117.081 184.278 113.941 189.18C112.076 192.091 117.041 191.798 122.828 193.267C126.781 194.271 127.093 198.066 130.648 197.177C134.202 196.289 143.598 194.33 143.598 194.33C143.598 194.33 149.243 195.143 153.858 192.998C158.473 190.853 162.668 190.582 163.883 187.225C165.097 183.867 172.297 179.584 166.193 177.805Z" fill="#2d1f18" fill-rule="nonzero" opacity="1" stroke="#2d1f18" stroke-linecap="round" stroke-linejoin="round" stroke-width="1"/>
<path d="M162.686 241.15C162.686 241.15 163.538 250.176 170.7 253.399C177.861 256.623 189.581 253.584 189.581 253.584L202.2 253.307L192.436 251.465L184.239 251.005C184.239 251.005 180.279 249.946 174.015 248.057C167.752 246.169 162.686 241.15 162.686 241.15Z" fill="#372b25" fill-rule="nonzero" opacity="1" stroke="#372b25" stroke-linecap="round" stroke-linejoin="round" stroke-width="1"/>
</g>
<g id="レイヤー-4" opacity="0.423076" visibility="hidden">
<g opacity="1">
<path d="M236.267 285.201C241.939 283.051 243.416 275.653 250.706 275.356C250.522 270.824 250.922 266.684 251.942 262.235C251.679 262.45 251.679 262.45 251.415 262.665C252.65 259.552 252.65 259.552 253.885 256.438C250.217 254.787 244.083 263.954 244.882 266.063C243.296 266.664 244.068 266.697 242.566 266.021C245.547 265.524 246.682 255.37 255.189 255.024C255.37 253.235 259.109 246.831 261.251 246.744C261.075 242.42 274.634 236.379 277.799 235.179C277.445 234.853 277.445 234.853 277.092 234.527C277.776 233.969 277.412 234.004 278.173 234.347C278.914 232.702 278.613 231.65 280.351 230.991C279.892 232.011 278.074 233.553 278.728 234.597C279.147 235.266 289.295 232.9 291.336 233.267C300.028 234.831 308.078 236.293 316.633 239.318C317.175 238.113 317.161 235.552 317.951 234.907C315.52 231.926 315.015 225.71 312.696 222.868C312.96 222.653 312.96 222.653 313.224 222.438C312.946 222.313 312.946 222.313 312.669 222.188C312.932 221.973 312.932 221.973 313.196 221.758C312.919 221.633 312.919 221.633 312.641 221.508C312.905 221.293 312.905 221.293 313.168 221.079C312.891 220.954 312.891 220.954 312.613 220.829C314.837 215.89 314.876 209.153 319.606 205.296C325.8 200.244 334.937 209.935 337.191 215.881C340.853 225.538 340.069 237.494 336.549 246.948C336.49 247.108 331.032 256.758 332.387 258.418C331.354 258.313 327.317 259.138 329.599 260.165C328.529 262.541 328.953 266.67 328.474 269.333C328.89 269.52 328.89 269.52 329.306 269.708C327.646 269.775 330.344 274.07 333.051 268.058C332.334 271.183 317.237 296.603 330.551 293.619C329.791 295.308 327.605 294.961 326.224 294.34C323.522 300.341 335.855 295.581 336.348 295.561C335.717 295.111 335.717 295.111 335.086 294.66C336.242 293.717 335.407 294.137 337.832 295.229C338.759 293.17 338.919 292.938 340.413 291.72C339.858 291.47 339.858 291.47 339.303 291.221C340.066 290.598 339.624 290.698 340.662 291.165C340.59 289.389 340.179 288.739 340.621 286.81C337.566 285.435 336.351 285.921 334.99 288.945C334.713 288.821 334.713 288.821 334.435 288.696C338.369 279.958 341.161 271.609 333.592 264.632C333.204 265.124 333.204 265.124 332.816 265.616C332.77 264.484 332.723 263.351 332.677 262.218C333.017 262.205 333.017 262.205 333.357 262.191C333.232 262.468 333.232 262.468 333.107 262.745C341.259 266.415 338.936 276.18 337.737 282.843C339.332 283.561 344.431 283.001 341.121 285.701C344.233 287.101 347.146 289.899 347.292 293.482C346.176 293.226 344.966 292.57 344.019 293.343C344.934 295.756 344.868 297.488 344.975 300.112C343.126 299.279 341.276 298.447 339.427 297.614C339.521 299.924 339.291 301.646 338.594 303.911C338.178 303.724 338.178 303.724 337.762 303.537C337.887 303.259 337.887 303.259 338.012 302.982C337.596 302.795 337.596 302.795 337.18 302.607C337.304 302.33 337.304 302.33 337.429 302.052C337.013 301.865 337.013 301.865 336.597 301.678C336.722 301.401 336.722 301.401 336.847 301.123C334.092 299.883 323.362 296.992 324.962 293.438C324.608 293.112 324.608 293.112 324.254 292.786C324.654 291.898 324.612 292.403 323.922 291.302C324.185 291.087 324.185 291.087 324.449 290.872C323.788 290.061 324.056 290.568 323.839 289.263C322.652 290.007 323.06 289.512 322.535 290.677C323.631 287.284 323.004 288.893 324.38 285.837C321.041 283.452 315.544 290.762 311.772 293.838C313.049 295.016 313.819 296.105 315.308 297.098C314.416 297.657 313.634 299.347 312.52 298.845C313.6 296.446 312.779 296.149 311.245 294.268C306.795 297.057 302.488 297.95 297.541 298.774C300.249 305.917 304.6 302.078 311.591 299.428C311.072 304.535 310.217 307.799 308.191 312.909C310.318 313.866 314.456 314.06 311.047 316.196C313.372 319.046 315.992 320.596 316.164 324.837C313.195 323.879 314.449 323.84 312.461 324.171C313.898 325.933 312.859 329.134 312.335 331.12C311.781 330.87 311.781 330.87 311.226 330.62C311.351 330.343 311.351 330.343 311.476 330.066C309.978 329.392 308.8 328.194 307.287 327.513C307.395 330.154 307.128 330.211 305.9 333.56C303.683 332.562 295.018 324.737 293.626 323.031C282.213 344.668 264.308 351.198 241.807 341.069C238.542 339.599 237.25 336.346 234.735 334.549C232.719 333.109 225.441 333.582 222.821 332.856C218.511 331.661 198.171 322.329 199.037 313.81C208.595 315.529 209.895 318.95 218.565 318.597C218.35 318.334 218.35 318.334 218.135 318.07C221.511 317.933 223.811 315.836 225.14 312.884C225.23 313.425 225.23 313.425 225.32 313.966C229.856 310.266 231.669 302.833 233.089 297.448C232.409 297.476 232.409 297.476 231.73 297.503C233.918 296.132 237.189 286.332 236.267 285.201Z" fill="#997f47" fill-rule="nonzero" opacity="1" stroke="#997f47" stroke-linecap="round" stroke-linejoin="round" stroke-width="1"/>
<path d="M285.804 324.847C290.231 326.84 291.741 323.037 293.613 319.356C282.84 345.238 267.45 350.675 242.182 340.237C260.798 347.168 275.765 341.839 285.804 324.847Z" fill="#d2bb2c" fill-rule="nonzero" opacity="1" stroke="#d2bb2c" stroke-linecap="round" stroke-linejoin="round" stroke-width="1"/>
<path d="M252.806 340.349C271.063 339.606 280.438 319.608 282.076 303.488C279.759 302.445 281.169 303.024 277.79 301.892C278.89 300.995 284.513 303.252 286.431 303.447C288.359 303.643 296.202 302.728 297.207 303.961C295.634 305.668 296.644 310.4 295.653 312.602C296.012 310.607 295.505 298.75 291.118 304.89C289.755 306.797 289.991 313.295 289.245 315.722C285.132 329.08 279.655 337.3 267.036 342.085C278.122 336.563 283.937 329.368 288.218 317.261C288.94 315.219 292.745 305.622 289.454 304.14C289.007 303.939 283.687 303.245 283.435 303.432C281.175 305.118 280.416 311.496 279.647 314.07C277.112 322.551 274.512 330.019 267.591 335.663C264.928 337.835 255.466 343.611 252.806 340.349Z" fill="#bf952e" fill-rule="nonzero" opacity="1" stroke="#bf952e" stroke-linecap="round" stroke-linejoin="round" stroke-width="1"/>
<path d="M236.419 285.604C229.207 291.486 225.622 294.026 221.354 303.507C219.179 308.339 221.687 313.885 219.771 318.14C214.862 305.191 217.942 285.934 231.233 278.599C237.776 274.988 246 272.384 248.53 265.37C247.19 265.593 245.565 266.469 244.577 265.258C248.194 265.111 249.465 264.147 251.36 261.306C250.235 264.665 243.78 272.523 247.863 275.744C246.957 275.781 247.359 275.628 246.656 276.201C246.62 275.319 246.835 275.615 246.074 275.272C246.541 274.234 246.383 272.842 246.338 271.722C229.879 277.157 208.382 297.9 220.118 316.628C218.331 305.898 224.024 287.668 236.419 285.604Z" fill="#bc952f" fill-rule="nonzero" opacity="1" stroke="#bc952f" stroke-linecap="round" stroke-linejoin="round" stroke-width="1"/>
<path d="M284.94 246.734C295.961 250.709 303.141 258.798 302.649 270.384C302.612 271.239 303.241 274.14 302.69 274.739C302.016 275.47 292.75 273.314 291.455 273.017C286.333 271.842 268.243 253.171 272.18 247.661C273.722 245.503 282.699 245.925 284.94 246.734Z" fill="#b09a57" fill-rule="nonzero" opacity="1" stroke="#b09a57" stroke-linecap="round" stroke-linejoin="round" stroke-width="1"/>
<path d="M218.787 317.363C215.804 317.484 214.953 305.15 215.058 302.674C215.53 291.576 220.446 275.328 232.011 270.943C225.267 266.302 234.932 266.221 238.516 266.866C238.912 265.987 238.873 265.607 238.835 264.675C240.503 264.042 242.034 265.53 243.398 266.395C226.729 273.739 213.702 286.731 216.028 306.447C216.413 309.713 216.707 314.813 218.787 317.363Z" fill="#987633" fill-rule="nonzero" opacity="1" stroke="#987633" stroke-linecap="round" stroke-linejoin="round" stroke-width="1"/>
<path d="M285.781 284.14C281.287 282.117 275.842 282.668 271.344 280.643C262.862 276.825 259.275 264.423 260.986 256.966C264.061 256.841 268.213 256.018 271.18 256.551C272.471 256.784 289.46 272.068 289.417 273.1C289.272 276.513 286.765 280.733 285.781 284.14Z" fill="#b49857" fill-rule="nonzero" opacity="1" stroke="#b49857" stroke-linecap="round" stroke-linejoin="round" stroke-width="1"/>
<path d="M243.128 316.645C237.627 328.865 215.558 327.593 206.692 321.258C220.169 325.15 229.329 320.771 237.262 309.668C237.76 310.981 238.962 311.079 238.33 312.483C240.501 313.461 241.431 315.881 243.128 316.645Z" fill="#d1b62b" fill-rule="nonzero" opacity="1" stroke="#d1b62b" stroke-linecap="round" stroke-linejoin="round" stroke-width="1"/>
<path d="M274.611 327.481C275.739 327.989 276.955 327.794 278.161 327.745C277.974 328.161 277.974 328.161 277.787 328.577C278.807 329.037 279.158 328.553 279.603 329.729C280.844 329.678 280.733 328.236 282.294 328.938C279.092 342.892 258.179 344.512 247.244 340.848C260.55 340.306 266.015 336.805 274.611 327.481Z" fill="#ceb72e" fill-rule="nonzero" opacity="1" stroke="#ceb72e" stroke-linecap="round" stroke-linejoin="round" stroke-width="1"/>
<path d="M248.467 324.052C236.642 333.696 223.643 330.105 211.06 324.893C222.213 328.326 234.679 326.662 243.031 317.602C243.085 318.942 247.415 322.762 248.467 324.052Z" fill="#d7bf29" fill-rule="nonzero" opacity="1" stroke="#d7bf29" stroke-linecap="round" stroke-linejoin="round" stroke-width="1"/>
<path d="M290.263 270.479C293.456 267.875 299.131 267.664 293.759 262.713C295.344 259.192 294.437 259.296 294.315 256.291C293.862 256.309 293.409 256.328 292.956 256.346C292.868 254.195 287.275 253.403 286.382 255.388C284.391 254.492 282.773 253.101 280.931 251.934C279.043 253.474 278.311 255.882 277.782 258.189C276.224 257.488 275.101 256.347 273.719 255.359C274.419 253.804 273.942 250.803 273.872 249.09C282.775 245.714 294.909 251.827 299.363 259.898C300.111 261.253 301.154 266.709 301.553 266.888C300.664 268.864 301.22 270.824 300.845 272.908C297.694 271.489 293.735 272.042 290.263 270.479Z" fill="#68965a" fill-rule="nonzero" opacity="1" stroke="#68965a" stroke-linecap="round" stroke-linejoin="round" stroke-width="1"/>
<path d="M313.45 291.592C310.894 297.27 303.853 273.222 303.73 270.203C303.694 269.298 303.206 262.379 304.231 262.423C306.394 262.515 313.792 264.14 315.52 265.503C318.775 268.071 321.108 283.672 318.569 286.891C317.267 286.304 316.017 273.939 316.199 272.147C315.424 271.798 315.172 269.882 315.256 269.054C312.76 267.93 311.053 265.749 307.06 265.031C301.022 275.924 313.48 281.777 312.493 291.494C312.972 291.543 312.972 291.543 313.45 291.592Z" fill="#9d9057" fill-rule="nonzero" opacity="1" stroke="#9d9057" stroke-linecap="round" stroke-linejoin="round" stroke-width="1"/>
<path d="M315.34 264.421C311.497 262.691 306.499 263.196 302.816 261.119C297.589 258.17 290.86 250.089 285.87 246.151C286.566 244.605 285.952 241.521 286.855 240.257C290.679 234.905 313.078 246.725 316.507 252.937C318.019 255.677 315.214 261.321 315.34 264.421Z" fill="#a39556" fill-rule="nonzero" opacity="1" stroke="#a39556" stroke-linecap="round" stroke-linejoin="round" stroke-width="1"/>
<path d="M203.558 317.846C216.406 322.561 225.93 317.796 231.257 305.964C231.208 306.442 231.208 306.442 231.16 306.921C237.608 309.823 233.463 316.073 228.911 318.585C221.028 322.935 211.132 324.828 203.558 317.846Z" fill="#cdb32d" fill-rule="nonzero" opacity="1" stroke="#cdb32d" stroke-linecap="round" stroke-linejoin="round" stroke-width="1"/>
<path d="M303.036 279.898C303.906 277.965 291.562 270.686 288.5 284.029C292.791 285.961 296.808 293.786 299.802 297.457C298.189 298.772 286.635 287.154 286.891 284.639C287.26 281.004 289.004 277.22 290.124 273.752C293.379 274.338 300.612 273.805 303.147 275.945C306.28 278.591 309.876 288.009 310.329 291.855C310.401 292.458 310.896 294.282 309.885 294.323C308.041 294.399 305.109 281.809 303.036 279.898Z" fill="#9c9056" fill-rule="nonzero" opacity="1" stroke="#9c9056" stroke-linecap="round" stroke-linejoin="round" stroke-width="1"/>
<path d="M273.717 268.702C271.763 267.822 268.21 263.886 267.449 261.877C266.845 262.106 266.845 262.106 266.242 262.334C270.603 266.355 274.75 271.26 278.501 275.859C277.745 275.685 277.745 275.685 276.989 275.512C277.742 276.713 277.608 276.078 277.474 277.398C280.348 278.692 281.672 279.579 284.686 280.645C284.575 281.262 284.575 281.262 284.464 281.879C277.183 280.569 262.51 274.846 260.916 265.274C260.613 263.458 262.233 260.836 262.151 258.825C265.191 257.672 270.003 258.395 272.927 259.339C272.803 259.617 272.803 259.617 272.678 259.894C278.614 262.566 278.29 268.917 286.976 273.336C281.052 271.423 279.781 269.465 276.297 265.193C275.761 265.396 275.224 265.6 274.688 265.803C274.903 266.066 274.903 266.066 275.118 266.33C274.73 266.822 274.73 266.822 274.341 267.315C273.719 266.552 273.818 266.994 274.286 265.955C273.319 265.064 273.301 264.263 272.414 263.445C272.019 265.638 273.632 266.616 273.717 268.702Z" fill="#5b8057" fill-rule="nonzero" opacity="1" stroke="#5b8057" stroke-linecap="round" stroke-linejoin="round" stroke-width="1"/>
<path d="M264.069 329.408C263.945 329.685 263.945 329.685 263.82 329.962C264.273 329.944 264.726 329.925 265.179 329.907C264.964 329.643 264.964 329.643 264.749 329.38C267.489 327.145 270.265 330.323 271.947 328.951C272.385 339.713 249.582 340.944 242.099 338.198C251.704 337.807 257.296 336.755 264.069 329.408Z" fill="#d1bb2d" fill-rule="nonzero" opacity="1" stroke="#d1bb2d" stroke-linecap="round" stroke-linejoin="round" stroke-width="1"/>
<path d="M278.298 234.07C277.364 234.108 275.761 222.662 276.289 221.49C276.96 219.999 279.542 222.149 280.977 222.933C282.501 221.279 280.453 219.786 281.865 217.995C283.807 218.87 285.067 219.161 285.804 221.103C288.874 215.905 290.54 223.013 290.227 226.096C291.169 226.52 291.602 225.714 292.543 226.138C291.834 227.714 292.359 226.503 291.198 229.869C294.386 231.304 298.296 230.824 300.753 233.837C300.427 234.191 300.427 234.191 300.101 234.544C294.404 231.359 291.441 230.571 285.483 229.965C286.901 228.809 293.434 225.649 286.094 224.903C286.108 225.243 286.108 225.243 286.122 225.583C285.845 225.458 285.845 225.458 285.567 225.333C285.692 225.055 285.692 225.055 285.817 224.778C284.461 225.127 283.325 225.263 282.044 225.748C282.085 226.749 282.095 226.203 281.975 227.385C281.697 227.26 281.697 227.26 281.42 227.135C281.607 226.719 281.607 226.719 281.795 226.303C278.885 226.422 275.552 231.539 278.298 234.07Z" fill="#917836" fill-rule="nonzero" opacity="1" stroke="#917836" stroke-linecap="round" stroke-linejoin="round" stroke-width="1"/>
<path d="M260.422 323.429C261.924 324.105 264.596 323.917 266.137 323.333C260.36 336.166 251.121 340.509 237.758 335.243C246.605 337.967 259.29 334.574 260.422 323.429Z" fill="#dbc026" fill-rule="nonzero" opacity="1" stroke="#dbc026" stroke-linecap="round" stroke-linejoin="round" stroke-width="1"/>
<path d="M245.65 331.791C234.908 338.523 212.036 330.393 205.513 322.396C213.269 324.176 219.515 330.51 228.05 330.873C233.96 331.124 242.196 326.279 245.65 331.791Z" fill="#c0a831" fill-rule="nonzero" opacity="1" stroke="#c0a831" stroke-linecap="round" stroke-linejoin="round" stroke-width="1"/>
<path d="M338.673 228.891C337.344 224.788 337.881 220.128 336.387 216.186C333.229 207.857 321.002 199.441 317.011 211.8C316.287 214.045 319.412 221.22 321.656 222.231C327.112 224.687 332.575 227.14 338.146 229.32C338.357 229.403 338.743 229.106 338.673 228.891Z" fill="#539670" fill-rule="nonzero" opacity="1" stroke="#539670" stroke-linecap="round" stroke-linejoin="round" stroke-width="1"/>
<path d="M265.032 289.477C275.65 286.518 262.569 269.485 257.906 268.256C254.272 267.297 252.354 272.011 251.331 273.969C250.559 255.005 270.039 276.212 271.246 281.6C272.311 286.352 270.962 293.091 265.032 289.477Z" fill="#a58e54" fill-rule="nonzero" opacity="1" stroke="#a58e54" stroke-linecap="round" stroke-linejoin="round" stroke-width="1"/>
<path d="M322.425 281.288C321.852 282.561 321.173 283.362 320.095 284.242C321.106 274.288 313.004 264.424 317.394 254.671C317.945 253.448 324.849 254.312 325.327 255.574C327.548 261.43 328.547 267.688 325.796 273.799C326.912 267.597 326.757 255.788 319.086 256.1C317.479 265.031 320.422 272.853 321.898 281.718C322.162 281.503 322.162 281.503 322.425 281.288Z" fill="#a69559" fill-rule="nonzero" opacity="1" stroke="#a69559" stroke-linecap="round" stroke-linejoin="round" stroke-width="1"/>
<path d="M308.655 260.745C313.488 250.01 295.58 245.185 288.422 241.963C293.405 240.074 300.903 242.801 305.273 244.545C305.148 244.822 305.148 244.822 305.024 245.1C313.178 248.77 315.328 253.655 313.87 261.758C314.148 261.883 314.148 261.883 314.425 262.008C314.3 262.285 314.3 262.285 314.175 262.563C312.376 261.753 310.435 261.546 308.655 260.745Z" fill="#598257" fill-rule="nonzero" opacity="1" stroke="#598257" stroke-linecap="round" stroke-linejoin="round" stroke-width="1"/>
<path d="M219.494 318.015C211.114 314.242 219.116 287.377 220.927 282.966C220.879 283.445 220.879 283.445 220.83 283.923C222.001 283.876 223.036 284.514 224.256 284.465C221.336 290.95 217.586 296.409 217.277 303.673C217.125 307.245 220.579 315.604 219.494 318.015Z" fill="#c5ab31" fill-rule="nonzero" opacity="1" stroke="#c5ab31" stroke-linecap="round" stroke-linejoin="round" stroke-width="1"/>
<path d="M306.658 265.183C310.924 265.951 316.154 266.883 315.644 271.897C317.814 272.874 319.102 288.911 315.933 289.04C315.809 285.997 313.478 269.093 309.972 269.677C310.159 274.281 318.037 286.301 314.782 290.857C313.066 293.258 305.751 277.272 305.131 274.503C304.576 272.029 305.913 267.339 306.658 265.183Z" fill="#4f7859" fill-rule="nonzero" opacity="1" stroke="#4f7859" stroke-linecap="round" stroke-linejoin="round" stroke-width="1"/>
<path d="M265.032 289.477C276.037 290.095 262.569 269.485 257.906 268.256C253.407 267.069 250.671 273.444 251.996 276.937C254.435 283.37 258.047 289.085 265.032 289.477Z" fill="#3a6f5e" fill-rule="nonzero" opacity="1" stroke="#3a6f5e" stroke-linecap="round" stroke-linejoin="round" stroke-width="1"/>
<path d="M303.036 279.898C305.13 275.246 292.283 276.899 290.942 277.123C291.98 277.59 292.197 277.208 293.258 277.165C293.147 277.782 293.147 277.782 293.036 278.399C293.376 278.385 293.376 278.385 293.715 278.371C293.48 279.266 293.48 279.266 293.244 280.16C293.722 280.209 293.722 280.209 294.201 280.258C293.812 280.75 293.812 280.75 293.424 281.242C293.764 281.228 293.764 281.228 294.103 281.215C294.117 281.554 294.117 281.554 294.131 281.894C295.413 281.681 294.88 281.564 295.768 281.964C295.382 280.947 295.474 281.446 295.435 280.48C297.983 279.514 303.551 292.179 304.448 294.545C304.595 294.932 304.379 296.511 305.336 296.279C311.352 294.819 306.851 283.415 303.036 279.898Z" fill="#4c775a" fill-rule="nonzero" opacity="1" stroke="#4c775a" stroke-linecap="round" stroke-linejoin="round" stroke-width="1"/>
<path d="M338.673 235.562C330.629 231.941 322.544 228.41 314.541 224.699C311.848 223.45 315.952 213.413 316.359 212.508C316.648 214.239 322.309 228.192 324.18 224.034C322.774 223.401 322.122 224.066 321.379 222.106C327.781 221.846 332.424 229.553 338.826 229.293C338.022 231.078 339.5 233.723 338.673 235.562Z" fill="#649f68" fill-rule="nonzero" opacity="1" stroke="#649f68" stroke-linecap="round" stroke-linejoin="round" stroke-width="1"/>
<path d="M286.182 297.33C289.273 297.031 273.641 291.765 273.811 287.758C273.833 287.239 273.623 283.968 274.478 284.055C280.956 284.713 285.958 287.155 289.913 292.005C290.655 292.914 296.634 298.979 296.404 297.595C295.436 291.783 274.405 276.807 271.954 282.252C268.151 290.7 279.756 297.951 286.182 297.33Z" fill="#a69256" fill-rule="nonzero" opacity="1" stroke="#a69256" stroke-linecap="round" stroke-linejoin="round" stroke-width="1"/>
<path d="M260.395 322.75C257.844 333.863 248.607 338.463 238.285 334.813C253.381 334.199 251.271 335.519 260.395 322.75Z" fill="#5f4c27" fill-rule="nonzero" opacity="1" stroke="#5f4c27" stroke-linecap="round" stroke-linejoin="round" stroke-width="1"/>
<path d="M288.5 284.029C289.507 281.791 290.221 279.465 290.942 277.123C291.98 277.59 292.197 277.208 293.258 277.165C293.147 277.782 293.147 277.782 293.036 278.399C293.376 278.385 293.376 278.385 293.715 278.371C293.48 279.266 293.48 279.266 293.244 280.16C293.722 280.209 293.722 280.209 294.201 280.258C293.812 280.75 293.812 280.75 293.424 281.242C293.764 281.228 293.764 281.228 294.103 281.215C294.117 281.554 294.117 281.554 294.131 281.894C297.44 281.343 303.293 293.286 303.977 296.334C304.021 296.532 303.899 296.781 303.727 296.889C298.356 300.254 291.941 287.202 288.5 284.029Z" fill="#4a7559" fill-rule="nonzero" opacity="1" stroke="#4a7559" stroke-linecap="round" stroke-linejoin="round" stroke-width="1"/>
<path d="M321.898 281.718C318.763 273.448 319.425 264.425 319.086 256.1C328.03 257.009 327.066 270.978 324.048 277.682C325.079 271.951 323.055 266.652 322.83 261.121C322.289 261.211 322.289 261.211 321.748 261.302C321.911 265.308 325.365 278.89 321.898 281.718Z" fill="#3f715d" fill-rule="nonzero" opacity="1" stroke="#3f715d" stroke-linecap="round" stroke-linejoin="round" stroke-width="1"/>
<path d="M223.687 287.211C223.312 288.043 223.312 288.043 222.938 288.875C224.069 289.384 224.508 289.584 225.379 288.64C225.101 288.515 225.101 288.515 224.824 288.39C226.546 285.979 228.127 288.046 230.413 288.571C228.047 293.828 223.158 298.019 220.55 303.812C218.773 307.76 221.348 313.154 219.841 316.503C219.433 306.479 215.164 296.456 223.687 287.211Z" fill="#d2bb2c" fill-rule="nonzero" opacity="1" stroke="#d2bb2c" stroke-linecap="round" stroke-linejoin="round" stroke-width="1"/>
<path d="M278.298 234.07C275.792 231.759 279.024 226.416 281.795 226.303C281.607 226.719 281.607 226.719 281.42 227.135C281.697 227.26 281.697 227.26 281.975 227.385C282.467 226.291 282.457 226.837 282.044 225.748C283.219 225.012 284.113 225.02 285.54 224.653C285.575 225.536 285.36 225.24 286.122 225.583C286.108 225.243 286.108 225.243 286.094 224.903C287.866 224.231 286.665 224.431 289.423 226.401C287.39 230.917 287.998 227.915 285.483 229.965C289.653 231.842 295.645 232.098 300.074 233.865C299.949 234.142 299.949 234.142 299.824 234.419C293.285 231.476 284.036 236.986 278.728 234.597C279.318 233.286 279.446 232.139 280.351 230.991C278.618 231.648 278.963 231.911 278.298 234.07Z" fill="#b2ad45" fill-rule="nonzero" opacity="1" stroke="#b2ad45" stroke-linecap="round" stroke-linejoin="round" stroke-width="1"/>
<path d="M221.63 316.975C219.56 316.043 220.549 309.614 220.841 307.613C222.831 293.954 229.128 293.513 236.419 285.604C235.203 288.794 234.568 293.421 233.186 296.491C232.675 297.625 228.504 299.806 227.388 301.22C223.382 306.297 222.238 310.995 221.63 316.975Z" fill="#d1ba2c" fill-rule="nonzero" opacity="1" stroke="#d1ba2c" stroke-linecap="round" stroke-linejoin="round" stroke-width="1"/>
<path d="M288.297 242.24C290.334 243.157 293.298 243.559 295.454 244.127C295.678 249.644 311.817 249.796 308.655 260.745C309.071 260.932 309.071 260.932 309.488 261.12C301.099 259.61 302.458 253.584 296.382 250.216C293.221 248.464 290.449 247.297 287.603 245.264C288.096 244.169 288.178 243.416 288.297 242.24Z" fill="#5f8e59" fill-rule="nonzero" opacity="1" stroke="#5f8e59" stroke-linecap="round" stroke-linejoin="round" stroke-width="1"/>
<path d="M248.253 265.245C245.959 271.602 239 274.964 232.412 277.462C231.42 276.246 228.854 276.327 227.322 276.171C233.345 271.259 240.539 266.529 248.253 265.245Z" fill="#e89809" fill-rule="nonzero" opacity="1" stroke="#e89809" stroke-linecap="round" stroke-linejoin="round" stroke-width="1"/>
<path d="M238.812 334.383C247.416 334.033 253.054 329.087 259.091 324.164C259.477 333.65 245.851 337.552 238.812 334.383Z" fill="#151109" fill-rule="nonzero" opacity="1" stroke="#151109" stroke-linecap="round" stroke-linejoin="round" stroke-width="1"/>
<path d="M264.289 244.442C267.541 245.906 281.389 248.561 285.19 246.179C286.073 245.625 286.199 241.003 286.3 240.007C281.698 237.935 276.632 235.962 271.945 238.549C273.016 239.861 282.142 240.47 284.039 241.324C283.826 242.511 284.108 243.396 283.623 244.473C279.687 244.073 265.584 243.037 264.289 244.442Z" fill="#a59456" fill-rule="nonzero" opacity="1" stroke="#a59456" stroke-linecap="round" stroke-linejoin="round" stroke-width="1"/>
<path d="M276.495 236.594C279.313 237.862 301.008 242.164 303.208 237.277C296.053 234.056 289.756 233.616 282.279 234.861C286.731 236.865 293.586 236.066 298.45 237.47C291.138 237.768 282.907 234.585 276.495 236.594Z" fill="#a69557" fill-rule="nonzero" opacity="1" stroke="#a69557" stroke-linecap="round" stroke-linejoin="round" stroke-width="1"/>
<path d="M322.957 247.501C325.441 248.62 324.353 251.716 324.44 253.84C315.091 254.22 309.49 244.453 301.279 240.078C303.217 235.774 311.611 238.735 314.095 240.51C311.325 240.623 308.251 239.916 305.482 239.635C310.97 243.964 316.498 251.062 323.15 252.259C323.099 250.987 322.499 248.518 322.957 247.501Z" fill="#aa9356" fill-rule="nonzero" opacity="1" stroke="#aa9356" stroke-linecap="round" stroke-linejoin="round" stroke-width="1"/>
<path d="M277.782 258.189C277.634 256.718 278.693 252.645 280.432 253.044C283.858 253.83 295.27 262.543 295.964 266.707C297.797 277.712 278.067 261.024 277.782 258.189Z" fill="#729e5b" fill-rule="nonzero" opacity="1" stroke="#729e5b" stroke-linecap="round" stroke-linejoin="round" stroke-width="1"/>
<path d="M268.412 319.02C270.057 312.782 270.887 306.965 272.977 300.726C275.967 301.783 278.995 302.675 282.076 303.488C280.672 306.606 280.117 316.868 277.372 318.383C275.156 319.606 270.788 315.695 268.412 319.02Z" fill="#ec9d08" fill-rule="nonzero" opacity="1" stroke="#ec9d08" stroke-linecap="round" stroke-linejoin="round" stroke-width="1"/>
<path d="M296.332 312.574C297.486 310.012 296.011 307.04 296.555 304.668C296.841 303.425 309.177 301.263 310.689 300.69C310.21 305.403 308.655 309.142 306.859 313.643C307.532 311.778 307.532 311.778 308.205 309.913C304.461 310.065 304.437 314.423 302.13 314.517C302.317 314.101 302.317 314.101 302.504 313.684C301.402 313.188 301.137 313.736 300.035 313.24C299.585 313.871 299.585 313.871 299.134 314.502C298.856 314.377 298.856 314.377 298.579 314.253C298.829 313.698 298.829 313.698 299.078 313.143C297.882 312.605 297.632 313.159 296.332 312.574Z" fill="#54996f" fill-rule="nonzero" opacity="1" stroke="#54996f" stroke-linecap="round" stroke-linejoin="round" stroke-width="1"/>
<path d="M315.156 290.025C313.534 285.747 309.571 273.621 309.972 269.677C310.513 269.587 310.513 269.587 311.054 269.497C312.412 273.081 318.665 287.163 315.156 290.025Z" fill="#637e5a" fill-rule="nonzero" opacity="1" stroke="#637e5a" stroke-linecap="round" stroke-linejoin="round" stroke-width="1"/>
<path d="M256.817 315.135C260.758 311.921 265.34 300.937 266.168 297.327C262.468 295.662 260.812 294.888 257.944 292.625C255.536 297.658 253.227 302.75 250.522 307.63C252.49 308.516 257.163 313.217 256.817 315.135Z" fill="#e99a0a" fill-rule="nonzero" opacity="1" stroke="#e99a0a" stroke-linecap="round" stroke-linejoin="round" stroke-width="1"/>
<path d="M250.314 305.869C254.876 296.694 252.755 301.188 256.71 292.402C253.674 290.008 251.087 286.839 248.222 284.579C245.788 288.229 242.935 292.843 242.479 297.338C244.784 298.376 249.111 302.698 250.009 305.065C250.397 304.572 250.397 304.572 250.786 304.08C250.55 304.974 250.55 304.974 250.314 305.869Z" fill="#ed9c07" fill-rule="nonzero" opacity="1" stroke="#ed9c07" stroke-linecap="round" stroke-linejoin="round" stroke-width="1"/>
<path d="M289.053 297.622C284.6 297.803 270.964 291.121 273.951 284.485C274.291 283.728 277.748 285.07 278.611 285.249C286.037 286.788 290.612 291.372 294.642 297.803C291.316 300.516 282.993 290.155 280.233 288.314C280.108 288.591 280.108 288.591 279.983 288.869C283.011 291.257 286.998 294.343 289.053 297.622Z" fill="#3e705c" fill-rule="nonzero" opacity="1" stroke="#3e705c" stroke-linecap="round" stroke-linejoin="round" stroke-width="1"/>
<path d="M240.273 300.015C239.354 298.887 239.756 298.448 238.276 297.781C238.325 297.303 238.325 297.303 238.373 296.824C237.612 296.482 237.947 296.732 237.389 296.048C237.125 296.263 237.125 296.263 236.862 296.477C236.017 295.442 235.763 292.248 234.49 295.076C236.304 288.196 239.259 280.386 246.309 277.713C246.598 284.813 245.82 293.997 240.273 300.015Z" fill="#e79c0c" fill-rule="nonzero" opacity="1" stroke="#e79c0c" stroke-linecap="round" stroke-linejoin="round" stroke-width="1"/>
<path d="M272.414 263.445C272.439 264.066 274.08 266.994 274.341 267.315C274.73 266.822 274.73 266.822 275.118 266.33C274.841 266.205 274.841 266.205 274.563 266.08C275.664 265.39 275.342 265.831 275.742 264.943C280.357 267.02 281.067 273.026 287.808 273.71C285.391 279.08 286.163 276.77 285.088 280.492C281.048 279.064 279.365 277.856 276.587 275.664C279.147 276.453 278.414 275.753 279.361 276.913C280.876 273.546 270.17 268.429 272.414 263.445Z" fill="#5b8858" fill-rule="nonzero" opacity="1" stroke="#5b8858" stroke-linecap="round" stroke-linejoin="round" stroke-width="1"/>
<path d="M325.336 292.606C325.752 292.793 325.752 292.793 326.168 292.98C326.919 291.313 326.954 291.813 328.124 290.859C327.999 291.136 327.999 291.136 327.875 291.413C330.236 288.851 332.93 287.466 335.656 285.242C335.046 286.969 335.046 286.969 334.435 288.696C334.713 288.821 334.713 288.821 334.99 288.945C336.577 285.419 337.308 286.05 340.621 286.81C339.716 288.821 340.851 289.306 340.662 291.165C339.624 290.698 340.066 290.598 339.303 291.221C339.858 291.47 339.858 291.47 340.413 291.72C338.919 292.938 338.759 293.17 337.832 295.229C335.407 294.137 336.242 293.717 335.086 294.66C335.78 294.972 335.78 294.972 336.473 295.284C334.06 297.252 327.528 298.993 325.974 294.894C327.496 294.832 329.817 295.251 330.551 293.619C328.905 294.243 326.14 294.726 325.336 292.606Z" fill="#b1b546" fill-rule="nonzero" opacity="1" stroke="#b1b546" stroke-linecap="round" stroke-linejoin="round" stroke-width="1"/>
<path d="M259.914 287.507C260.469 287.757 260.469 287.757 261.024 288.006C256.03 299.099 240.756 277.441 250.859 275.758C251.504 277.459 249.677 277.816 248.376 278.31C250.478 283.855 252.678 286.944 257.986 290.308C258.428 289.325 259.319 288.399 259.914 287.507Z" fill="#ab975d" fill-rule="nonzero" opacity="1" stroke="#ab975d" stroke-linecap="round" stroke-linejoin="round" stroke-width="1"/>
<path d="M297.139 298.927C296.66 298.878 296.66 298.878 296.182 298.829C295.737 299.816 295.996 300.968 296.042 302.103C290.558 302.326 285.046 302.073 279.774 300.45C280.776 298.223 280.368 299.374 280.995 296.997C280.44 296.747 280.44 296.747 279.885 296.497C279.38 297.294 277.223 300.454 278.317 301.462C282.893 305.681 298.3 305.899 297.139 298.927Z" fill="#b89854" fill-rule="nonzero" opacity="1" stroke="#b89854" stroke-linecap="round" stroke-linejoin="round" stroke-width="1"/>
<path d="M325.101 290.165C324.052 287.398 326.066 285.799 327.016 283.688C326.577 286.124 326.933 284.528 325.573 288.376C327.032 285.981 328.61 283.754 330.053 281.386C325.827 292.596 328.707 283.637 327.279 286.808C329.51 286.718 332.57 277.941 332.883 277.322C332.148 279.326 332.148 279.326 331.413 281.331C333.082 278.433 331.986 279.043 333.743 278.377C331.158 284.118 332.491 282.079 330.469 284.909C331.823 284.854 337.583 274.294 338.404 272.469C338.128 275.186 336.632 279.116 336.725 281.387C335.557 281.829 333.956 283.397 333.035 284.396C333.271 283.501 333.271 283.501 333.507 282.607C331.824 285.529 328.515 286.285 327.237 289.125C327.473 288.23 327.473 288.23 327.709 287.336C326.646 289.079 326.711 289.554 325.101 290.165Z" fill="#78ac61" fill-rule="nonzero" opacity="1" stroke="#78ac61" stroke-linecap="round" stroke-linejoin="round" stroke-width="1"/>
<path d="M238.33 312.483C238.517 312.067 238.517 312.067 238.704 311.651C235.037 310 241.301 301.164 242.479 297.338C244.784 298.376 249.111 302.698 250.009 305.065C250.397 304.572 250.397 304.572 250.786 304.08C247.555 312.885 245.206 318.822 238.33 312.483Z" fill="#e2ab17" fill-rule="nonzero" opacity="1" stroke="#e2ab17" stroke-linecap="round" stroke-linejoin="round" stroke-width="1"/>
<path d="M231.538 279.403C232.721 280.854 238.107 281.314 240.054 281.235C238.135 285.498 233.544 285.742 230.566 288.973C229.549 288.247 223.613 285.195 225.129 289.194C223.579 288.916 224.311 289.015 222.938 288.875C224.502 285.401 227.741 280.843 231.538 279.403Z" fill="#e1b21b" fill-rule="nonzero" opacity="1" stroke="#e1b21b" stroke-linecap="round" stroke-linejoin="round" stroke-width="1"/>
<path d="M325.573 288.376C327.032 285.981 328.61 283.754 330.053 281.386C325.827 292.596 328.707 283.637 327.279 286.808C329.51 286.718 332.57 277.941 332.883 277.322C332.148 279.326 332.148 279.326 331.413 281.331C333.082 278.433 331.986 279.043 333.743 278.377C331.158 284.118 332.491 282.079 330.469 284.909C332.863 284.811 330.386 285.115 333.146 280.443C337.259 273.483 340.381 270.889 333.592 264.632C332.511 265.514 326.802 284.898 325.573 288.376Z" fill="#669867" fill-rule="nonzero" opacity="1" stroke="#669867" stroke-linecap="round" stroke-linejoin="round" stroke-width="1"/>
<path d="M278.731 318.328C280.304 313.456 281.611 308.508 283.033 303.585C284.896 303.92 289.01 303.6 290.439 304.917C292.254 306.591 287.769 318.198 286.942 319.355C286.664 319.23 286.664 319.23 286.387 319.105C286.574 318.689 286.574 318.689 286.762 318.273C284.473 317.243 280.525 316.381 278.731 318.328Z" fill="#eb9e0a" fill-rule="nonzero" opacity="1" stroke="#eb9e0a" stroke-linecap="round" stroke-linejoin="round" stroke-width="1"/>
<path d="M296.24 280.175C295.837 280.327 295.837 280.327 295.435 280.48C295.567 283.718 302.148 294.386 304.531 296.584C306.071 293.164 298.557 283.016 296.24 280.175Z" fill="#627e5a" fill-rule="nonzero" opacity="1" stroke="#627e5a" stroke-linecap="round" stroke-linejoin="round" stroke-width="1"/>
<path d="M250.647 307.353C252.522 309.653 254.854 311.886 257.04 313.9C254.755 318.974 250.509 326.087 245.763 321.167C245.297 320.684 243.084 318.914 243.058 318.281C242.967 316.038 249.457 309.081 250.647 307.353Z" fill="#dfac1a" fill-rule="nonzero" opacity="1" stroke="#dfac1a" stroke-linecap="round" stroke-linejoin="round" stroke-width="1"/>
<path d="M311.245 294.268C310.78 294.559 310.78 294.559 310.315 294.851C313.82 299.148 304.156 302.557 300.245 301.659C298.398 301.235 300.394 297.692 297.541 298.774C300.115 305.564 305.171 302.762 311.715 299.15C311.93 299.414 311.93 299.414 312.145 299.677C314.129 297.525 312.785 296.157 311.245 294.268Z" fill="#9f854e" fill-rule="nonzero" opacity="1" stroke="#9f854e" stroke-linecap="round" stroke-linejoin="round" stroke-width="1"/>
<path d="M261.931 246.717C267.342 249.153 270.289 247.24 269.586 254.166C267.081 254.268 263.125 255.261 260.875 254.248C260.24 253.962 258.15 251.289 257.394 252.347C255.524 254.964 269.853 258.759 271.527 255.04C274.336 248.799 267.095 242.505 261.931 246.717Z" fill="#af9556" fill-rule="nonzero" opacity="1" stroke="#af9556" stroke-linecap="round" stroke-linejoin="round" stroke-width="1"/>
<path d="M314.416 224.976C326.544 230.269 326.544 230.269 338.673 235.562C338.274 237.075 337.509 241.773 334.788 240.485C330.205 238.315 325.668 236.046 321.044 233.964C317.635 232.43 315.042 228.733 314.416 224.976Z" fill="#7cab5f" fill-rule="nonzero" opacity="1" stroke="#7cab5f" stroke-linecap="round" stroke-linejoin="round" stroke-width="1"/>
<path d="M332.72 253.231C333.469 251.567 333.469 251.567 334.218 249.902C330.474 248.217 330.474 248.217 326.729 246.531C326.403 246.885 326.403 246.885 326.077 247.238C324.845 243.988 320.002 241.744 317.341 239.97C317.885 237.903 317.236 238.399 318.617 237.875C321.862 243.053 331.104 243.83 335.967 246.019C334.884 248.423 333.802 250.827 332.72 253.231Z" fill="#aab64a" fill-rule="nonzero" opacity="1" stroke="#aab64a" stroke-linecap="round" stroke-linejoin="round" stroke-width="1"/>
<path d="M231.538 279.403C236.419 276.344 240.848 273.803 246.338 271.722C246.148 272.776 245.444 274.989 246.629 275.522C245.728 277.523 242.023 279.524 240.331 281.36C237.639 280.148 234.264 280.631 231.538 279.403Z" fill="#e59e0f" fill-rule="nonzero" opacity="1" stroke="#e59e0f" stroke-linecap="round" stroke-linejoin="round" stroke-width="1"/>
<path d="M294.917 317.941C295.764 318.323 295.27 318.171 296.429 318.288C296.117 318.982 296.117 318.982 295.804 319.675C297.264 319.616 298.221 317.535 299.799 317.471C299.087 319.052 299.535 318.25 298.398 319.842C300.253 319.767 299.388 317.332 301.436 317.54C301.685 316.985 301.685 316.985 301.935 316.431C303.075 316.546 303.476 316.123 304.529 316.597C305.035 315.473 304.697 315.989 305.555 315.058C305.419 316.397 304.838 317.398 303.78 318.262C304.057 318.386 304.057 318.386 304.334 318.511C306.15 315.789 307.027 315.721 309.993 317.056C309.496 318.941 309.932 319.559 309.757 321.286C307.906 320.453 305.662 321.444 304.015 320.703C303.345 321.43 302.978 321.904 302.004 321.465C301.678 321.819 301.678 321.819 301.352 322.173C298.499 320.888 293.215 324.394 294.917 317.941Z" fill="#8ab059" fill-rule="nonzero" opacity="1" stroke="#8ab059" stroke-linecap="round" stroke-linejoin="round" stroke-width="1"/>
<path d="M266.519 262.459C266.984 262.168 266.984 262.168 267.449 261.877C270.371 265.46 279.57 272.012 279.763 276.761C275.964 275.05 268.013 266.398 266.519 262.459Z" fill="#839059" fill-rule="nonzero" opacity="1" stroke="#839059" stroke-linecap="round" stroke-linejoin="round" stroke-width="1"/>
<path d="M269.962 239.991C273.33 237.244 280.838 239.883 284.039 241.324C283.826 242.511 284.108 243.396 283.623 244.473C277.372 243.838 272.115 244.276 265.87 243.153C269.613 240.1 276.705 244.456 279.157 241.795C276.255 240.489 272.812 241.274 269.962 239.991Z" fill="#598057" fill-rule="nonzero" opacity="1" stroke="#598057" stroke-linecap="round" stroke-linejoin="round" stroke-width="1"/>
<path d="M323.174 279.623C322.347 274.656 321.262 266.086 321.748 261.302C322.289 261.211 322.289 261.211 322.83 261.121C323.064 266.882 325.671 274.076 323.174 279.623Z" fill="#73855c" fill-rule="nonzero" opacity="1" stroke="#73855c" stroke-linecap="round" stroke-linejoin="round" stroke-width="1"/>
<path d="M277.622 317.828C276.186 321.987 275.01 326.26 272.252 329.755C272.301 329.277 272.301 329.277 272.35 328.798C271.467 328.834 271.763 328.619 271.42 329.381C267.573 328.99 268.769 327.856 264.749 329.38C264.964 329.643 264.964 329.643 265.179 329.907C264.638 329.997 264.638 329.997 264.097 330.087C264.191 329.165 267.411 319.357 268.911 317.91C270.391 316.483 277.029 319.144 277.622 317.828Z" fill="#dfb41d" fill-rule="nonzero" opacity="1" stroke="#dfb41d" stroke-linecap="round" stroke-linejoin="round" stroke-width="1"/>
<path d="M262.67 318.436C266.774 315.089 271.264 304.192 272.145 300.352C269.649 299.228 269.649 299.228 267.153 298.104C264.598 302.297 260.471 309.221 259.231 314.22C258.996 315.165 262.614 317.056 262.67 318.436Z" fill="#e7970a" fill-rule="nonzero" opacity="1" stroke="#e7970a" stroke-linecap="round" stroke-linejoin="round" stroke-width="1"/>
<path d="M280.557 252.766C280.744 252.35 280.744 252.35 280.931 251.934C285.507 253.994 295.45 261.055 296.366 266.555C291.17 264.216 285.167 256.404 280.557 252.766Z" fill="#8fa45b" fill-rule="nonzero" opacity="1" stroke="#8fa45b" stroke-linecap="round" stroke-linejoin="round" stroke-width="1"/>
<path d="M323.15 252.259C316.245 249.15 311.755 244.557 305.08 239.788C314.064 240.7 322.748 242.366 323.15 252.259Z" fill="#517659" fill-rule="nonzero" opacity="1" stroke="#517659" stroke-linecap="round" stroke-linejoin="round" stroke-width="1"/>
<path d="M335.967 246.019C330.55 243.581 317.097 241.741 318.576 233.52C320.019 234.552 324.206 238.799 325.233 236.517C323.251 235.625 321.954 235.457 320.365 233.992C325.633 233.778 330.025 238.225 334.788 240.485C333.605 241.45 332.275 240.253 331.141 241.178C333.246 242.126 334.647 241.697 336.855 241.082C336.685 242.75 336.341 244.386 335.967 246.019Z" fill="#94b154" fill-rule="nonzero" opacity="1" stroke="#94b154" stroke-linecap="round" stroke-linejoin="round" stroke-width="1"/>
<path d="M261.329 288.811C267.512 290.596 272.594 295.26 278.928 296.4C278.253 297.9 278.172 300.827 276.681 301.393C276.896 301.656 276.896 301.656 277.11 301.92C270.949 299.146 255.325 297.213 261.329 288.811Z" fill="#a39156" fill-rule="nonzero" opacity="1" stroke="#a39156" stroke-linecap="round" stroke-linejoin="round" stroke-width="1"/>
<path d="M294.917 317.941C295.726 316.144 295.994 314.457 296.332 312.574C297.632 313.159 297.882 312.605 299.078 313.143C298.829 313.698 298.829 313.698 298.579 314.253C298.856 314.377 298.856 314.377 299.134 314.502C299.383 313.948 299.383 313.948 299.633 313.393C300.861 313.614 301.426 313.199 302.504 313.684C302.317 314.101 302.317 314.101 302.13 314.517C304.159 314.434 301.994 314.725 304.308 311.16C305.317 309.605 306.887 310.636 307.928 309.788C306.184 314.316 306.588 313.988 304.529 316.597C303.517 316.142 303.248 316.688 302.337 316.278C301.887 316.909 301.887 316.909 301.436 317.54C301.158 317.415 301.158 317.415 300.881 317.29C299.242 320.136 300.373 319.898 298.675 319.967C298.989 318.224 298.654 319.073 299.799 317.471C298.399 317.527 297.359 319.748 296.082 319.8C296.255 319.044 296.255 319.044 296.429 318.288C295.582 317.907 296.076 318.059 294.917 317.941Z" fill="#6fa765" fill-rule="nonzero" opacity="1" stroke="#6fa765" stroke-linecap="round" stroke-linejoin="round" stroke-width="1"/>
<path d="M259.914 287.507C259.346 288.769 258.892 289.326 257.986 290.308C252.287 287.743 250.399 283.646 248.376 278.31C250.225 277.289 249.204 277.634 251.469 277.367C251.672 282.362 256.353 284.698 259.914 287.507Z" fill="#4e877b" fill-rule="nonzero" opacity="1" stroke="#4e877b" stroke-linecap="round" stroke-linejoin="round" stroke-width="1"/>
<path d="M240.925 299.307C240.599 299.661 240.599 299.661 240.273 300.015C239.354 298.887 239.756 298.448 238.276 297.781C238.325 297.303 238.325 297.303 238.373 296.824C237.612 296.482 237.947 296.732 237.389 296.048C237.125 296.263 237.125 296.263 236.862 296.477C232.999 291.741 231.614 302.447 231.16 306.921C232.584 307.562 234.964 310.075 235.029 311.664C237.569 307.855 239.896 303.792 240.925 299.307Z" fill="#dcad1d" fill-rule="nonzero" opacity="1" stroke="#dcad1d" stroke-linecap="round" stroke-linejoin="round" stroke-width="1"/>
<path d="M254.846 326.924C254.895 326.445 254.895 326.445 254.944 325.967C253.57 325.348 252.521 323.733 251.407 322.707C254.369 320.292 256.919 316.334 259.051 313.138C259.398 315.226 262.351 316.005 262.642 317.757C263.075 320.353 256.971 325.592 254.846 326.924Z" fill="#dea719" fill-rule="nonzero" opacity="1" stroke="#dea719" stroke-linecap="round" stroke-linejoin="round" stroke-width="1"/>
<path d="M324.38 285.837C323.036 284.877 321.65 283.01 320.677 285.171C321.925 285.733 321.925 285.733 323.173 286.295C322.028 288.839 314.996 297.487 313.228 292.826C312.5 293.332 312.5 293.332 311.772 293.838C313.168 295.125 313.903 296.157 315.585 297.223C319.657 293.903 322.161 290.767 324.38 285.837Z" fill="#a3884f" fill-rule="nonzero" opacity="1" stroke="#a3884f" stroke-linecap="round" stroke-linejoin="round" stroke-width="1"/>
<path d="M301.352 322.173C301.477 321.895 301.477 321.895 301.602 321.618C302.586 321.718 303.174 321.829 303.613 320.855C305.026 320.999 307.014 321.176 308.37 320.662C308.245 320.939 308.245 320.939 308.12 321.216C308.814 321.529 308.814 321.529 309.507 321.841C309.094 322.759 306.957 323.882 306.095 324.975C305.263 324.6 304.431 324.226 303.599 323.851C304.23 324.302 304.23 324.302 304.861 324.753C301.09 327.828 297.079 325.973 294.431 322.726C296.224 321.264 299.241 321.223 301.352 322.173Z" fill="#9fab4d" fill-rule="nonzero" opacity="1" stroke="#9fab4d" stroke-linecap="round" stroke-linejoin="round" stroke-width="1"/>
<path d="M286.387 319.105C286.664 319.23 286.664 319.23 286.942 319.355C287.191 318.8 287.191 318.8 287.441 318.246C285.738 323.18 285.201 327.376 280.533 329.146C280.546 329.486 280.546 329.486 280.56 329.826C279.152 329.683 279.195 328.72 277.787 328.577C277.974 328.161 277.974 328.161 278.161 327.745C276.86 327.798 275.874 327.609 274.611 327.481C274.961 326.817 278.777 317.901 278.981 317.773C280.353 316.913 287.276 317.131 286.387 319.105Z" fill="#e0b41d" fill-rule="nonzero" opacity="1" stroke="#e0b41d" stroke-linecap="round" stroke-linejoin="round" stroke-width="1"/>
<path d="M327.306 287.488C327.133 288.244 327.133 288.244 326.96 289C329.274 286.489 331.626 286.044 333.105 282.759C332.931 283.515 332.931 283.515 332.758 284.271C334.507 282.845 336.007 280.919 337.474 279.722C335.475 287.302 330.52 286.278 328.152 291.538C328.138 291.198 328.138 291.198 328.124 290.859C326.954 291.813 326.919 291.313 326.168 292.98C323.282 291.681 326.341 289.073 327.306 287.488Z" fill="#90b457" fill-rule="nonzero" opacity="1" stroke="#90b457" stroke-linecap="round" stroke-linejoin="round" stroke-width="1"/>
<path d="M242.114 328.531C245.909 327.092 248.34 324.43 251.532 322.429C257 327.47 252.4 329.887 245.928 331.916C245.408 332.078 242.583 328.866 242.114 328.531Z" fill="#d8b725" fill-rule="nonzero" opacity="1" stroke="#d8b725" stroke-linecap="round" stroke-linejoin="round" stroke-width="1"/>
<path d="M317.261 211.246C317.478 216.577 319.727 222.029 324.18 224.034C323.417 225.729 313.906 215.941 317.261 211.246Z" fill="#5d5d4a" fill-rule="nonzero" opacity="1" stroke="#5d5d4a" stroke-linecap="round" stroke-linejoin="round" stroke-width="1"/>
<path d="M310.126 256.737C311.598 253.466 298.051 245.272 295.856 243.975C295.669 244.391 295.669 244.391 295.481 244.807C300.389 247.707 305.439 254.627 310.126 256.737Z" fill="#8c955a" fill-rule="nonzero" opacity="1" stroke="#8c955a" stroke-linecap="round" stroke-linejoin="round" stroke-width="1"/>
<path d="M289.522 315.846C290.211 312.844 292.281 307.956 291.118 304.89C298.641 300.175 294.833 312.522 294.959 315.625C293.565 316.154 291.154 315.78 289.522 315.846Z" fill="#ef9e07" fill-rule="nonzero" opacity="1" stroke="#ef9e07" stroke-linecap="round" stroke-linejoin="round" stroke-width="1"/>
<path d="M331.553 271.386C330.367 271.434 329.182 271.242 328.002 271.122C328.345 270.361 328.26 270.77 328.224 269.888C333.263 270.399 330.648 263.159 330.958 260.11C330.258 260.227 328.493 259.716 329.016 259.236C333.752 254.886 332.464 263.659 332.538 265.492C332.802 265.277 332.802 265.277 333.065 265.062C333.169 267.618 332.188 268.978 331.553 271.386Z" fill="#b79857" fill-rule="nonzero" opacity="1" stroke="#b79857" stroke-linecap="round" stroke-linejoin="round" stroke-width="1"/>
<path d="M225.14 312.884C225.23 313.425 225.23 313.425 225.32 313.966C229.856 310.266 231.669 302.833 233.089 297.448C224.388 298.897 220.201 323.856 225.14 312.884Z" fill="#a8942a" fill-rule="nonzero" opacity="1" stroke="#a8942a" stroke-linecap="round" stroke-linejoin="round" stroke-width="1"/>
<path d="M299.302 298.566C299.924 295.889 305.653 297.079 308.054 296.168C318.416 292.239 297.046 308.283 299.302 298.566Z" fill="#5a8770" fill-rule="nonzero" opacity="1" stroke="#5a8770" stroke-linecap="round" stroke-linejoin="round" stroke-width="1"/>
<path d="M254.978 273.276C256.774 274.931 263.968 282.817 263.756 284.9C261.108 283.708 253.689 276.14 254.978 273.276Z" fill="#79875e" fill-rule="nonzero" opacity="1" stroke="#79875e" stroke-linecap="round" stroke-linejoin="round" stroke-width="1"/>
<path d="M326.118 251.593C326.158 252.555 326.615 253.49 327.311 254.132C326.261 256.465 329.63 261.577 328.156 264.853C327.378 260.187 325.62 256.076 325.439 251.621C325.779 251.607 325.779 251.607 326.118 251.593Z" fill="#b99654" fill-rule="nonzero" opacity="1" stroke="#b99654" stroke-linecap="round" stroke-linejoin="round" stroke-width="1"/>
<path d="M280.795 235.194C286.66 234.955 292.824 235.846 298.45 237.47C292.378 237.718 286.413 237.723 280.795 235.194Z" fill="#5b8057" fill-rule="nonzero" opacity="1" stroke="#5b8057" stroke-linecap="round" stroke-linejoin="round" stroke-width="1"/>
<path d="M258.199 252.042C258.995 250.274 258.509 251.053 259.6 249.671C263.13 251.093 263.13 251.093 266.659 252.515C267.048 252.022 267.048 252.022 267.436 251.53C264.108 250.032 264.108 250.032 260.779 248.533C261.325 247.32 260.965 247.94 261.931 246.717C267.342 249.153 270.289 247.24 269.586 254.166C265.155 254.346 261.728 255.295 258.199 252.042Z" fill="#507857" fill-rule="nonzero" opacity="1" stroke="#507857" stroke-linecap="round" stroke-linejoin="round" stroke-width="1"/>
<path d="M227.447 275.894C228.427 277.095 230.949 276.803 232.412 277.462C231.343 279.837 226.128 283.285 224.159 285.422C224.207 284.943 224.207 284.943 224.256 284.465C223.06 284.513 222.099 283.872 220.83 283.923C222.236 280.8 224.498 277.742 227.447 275.894Z" fill="#dba61b" fill-rule="nonzero" opacity="1" stroke="#dba61b" stroke-linecap="round" stroke-linejoin="round" stroke-width="1"/>
<path d="M252.525 263.165C249.091 270.793 267.649 264.155 256.645 254.011C256.194 254.642 256.194 254.642 255.744 255.273C256.817 255.757 257.623 256.474 258.545 257.202C257.662 259.164 256.972 262.048 257.06 264.206C254.745 265.083 253.464 265.641 252.525 263.165Z" fill="#b69755" fill-rule="nonzero" opacity="1" stroke="#b69755" stroke-linecap="round" stroke-linejoin="round" stroke-width="1"/>
<path d="M222.837 316.517C221.955 316.553 222.25 316.338 221.907 317.1C222.582 310.458 224.112 300.391 231.327 297.656C231.542 297.919 231.542 297.919 231.757 298.183C226.945 300.008 219.327 312.213 222.837 316.517Z" fill="#9f8041" fill-rule="nonzero" opacity="1" stroke="#9f8041" stroke-linecap="round" stroke-linejoin="round" stroke-width="1"/>
<path d="M269.134 310.005C268.003 314.933 268.212 326.936 260.422 323.429C262.566 318.667 266.275 314.41 269.134 310.005Z" fill="#e0a918" fill-rule="nonzero" opacity="1" stroke="#e0a918" stroke-linecap="round" stroke-linejoin="round" stroke-width="1"/>
<path d="M322.605 282.37C322.356 282.924 322.356 282.924 322.106 283.479C331.8 288.852 332.143 261.923 327.253 272.786C328.932 273.542 328.135 273.359 329.597 273.508C328.08 276.876 327.08 280.372 325.102 283.493C324.27 283.119 323.437 282.744 322.605 282.37Z" fill="#b89958" fill-rule="nonzero" opacity="1" stroke="#b89958" stroke-linecap="round" stroke-linejoin="round" stroke-width="1"/>
<path d="M280.995 296.997C285.292 298.931 295.837 297.04 296.042 302.103C289.995 302.349 285.287 302.26 280.995 296.997Z" fill="#4f8879" fill-rule="nonzero" opacity="1" stroke="#4f8879" stroke-linecap="round" stroke-linejoin="round" stroke-width="1"/>
<path d="M250.651 273.997C250.669 274.45 250.688 274.903 250.706 275.356C243.728 275.64 247.687 265.706 251.942 262.235C250.341 265.792 248.048 270.242 248.21 274.232C249.034 274.199 249.827 274.03 250.651 273.997Z" fill="#be9f5b" fill-rule="nonzero" opacity="1" stroke="#be9f5b" stroke-linecap="round" stroke-linejoin="round" stroke-width="1"/>
<path d="M331.721 255.45C331.319 255.602 331.319 255.602 330.917 255.755C332.344 257.505 330.337 258.307 328.836 258.154C328.684 254.406 325.453 252.219 324.926 249.055C324.502 246.51 330.977 253.486 331.721 255.45Z" fill="#a18f59" fill-rule="nonzero" opacity="1" stroke="#a18f59" stroke-linecap="round" stroke-linejoin="round" stroke-width="1"/>
<path d="M313.228 292.826C316.197 291.7 318.767 287.592 320.677 285.171C321.925 285.733 321.925 285.733 323.173 286.295C322.028 288.839 314.996 297.487 313.228 292.826Z" fill="#598b7d" fill-rule="nonzero" opacity="1" stroke="#598b7d" stroke-linecap="round" stroke-linejoin="round" stroke-width="1"/>
<path d="M279.983 288.869C284.521 289.33 288.092 295.485 291.924 297.913C287.698 298.085 282.555 292.023 279.983 288.869Z" fill="#81895c" fill-rule="nonzero" opacity="1" stroke="#81895c" stroke-linecap="round" stroke-linejoin="round" stroke-width="1"/>
<path d="M286.976 273.336C284.099 272.041 275.47 268.512 277.601 263.778C280.319 265.002 285.872 270.424 286.976 273.336Z" fill="#6d9359" fill-rule="nonzero" opacity="1" stroke="#6d9359" stroke-linecap="round" stroke-linejoin="round" stroke-width="1"/>
<path d="M294.959 315.625C292.977 320.029 291.817 327.554 285.804 324.847C291.862 311.388 287.452 318.471 294.959 315.625Z" fill="#e4b118" fill-rule="nonzero" opacity="1" stroke="#e4b118" stroke-linecap="round" stroke-linejoin="round" stroke-width="1"/>
<path d="M293.884 262.435C295.334 259.215 294.429 259.096 294.315 256.291C293.862 256.309 293.409 256.328 292.956 256.346C292.859 253.971 287.209 253.551 286.257 255.666C289.293 257.033 291.481 260.22 293.884 262.435Z" fill="#71a65c" fill-rule="nonzero" opacity="1" stroke="#71a65c" stroke-linecap="round" stroke-linejoin="round" stroke-width="1"/>
<path d="M276.195 299.506C272.267 297.861 267.889 296.9 264.546 294.262C265.124 292.977 263.202 292.061 263.853 290.614C267.695 292.201 271.646 293.619 275.225 295.734C274.62 297.078 273.873 297.695 272.312 297.758C274.254 298.632 274.254 298.632 276.195 299.506Z" fill="#4f897e" fill-rule="nonzero" opacity="1" stroke="#4f897e" stroke-linecap="round" stroke-linejoin="round" stroke-width="1"/>
<path d="M244.979 265.106C246.034 262.763 249.623 254.52 253.885 256.438C251.98 260.671 250.445 265.661 244.979 265.106Z" fill="#609c6a" fill-rule="nonzero" opacity="1" stroke="#609c6a" stroke-linecap="round" stroke-linejoin="round" stroke-width="1"/>
<path d="M313.762 239.026C315.808 239.947 326.893 243.944 325.023 248.098C323.239 247.295 313.775 239.33 313.762 239.026Z" fill="#af8e51" fill-rule="nonzero" opacity="1" stroke="#af8e51" stroke-linecap="round" stroke-linejoin="round" stroke-width="1"/>
<path d="M331.846 255.173C333.032 252.537 333.032 252.537 334.218 249.902C330.474 248.217 330.474 248.217 326.729 246.531C326.403 246.885 326.403 246.885 326.077 247.238C329.314 248.695 329.85 252.725 331.846 255.173Z" fill="#b7ba44" fill-rule="nonzero" opacity="1" stroke="#b7ba44" stroke-linecap="round" stroke-linejoin="round" stroke-width="1"/>
<path d="M328.474 269.333C329.833 266.313 329.279 263.314 329.599 260.165C330.139 260.075 330.139 260.075 330.68 259.985C331.78 262.885 330.854 266.847 330.54 269.93C329.007 269.654 329.687 269.879 328.474 269.333Z" fill="#50897c" fill-rule="nonzero" opacity="1" stroke="#50897c" stroke-linecap="round" stroke-linejoin="round" stroke-width="1"/>
<path d="M253.399 261.223C254.155 261.397 254.155 261.397 254.911 261.57C254.896 261.206 254.007 259.89 254.023 259.836C254.43 258.476 255.189 257.247 255.771 255.953C257.965 256.531 257.076 256.043 258.545 257.202C257.662 259.164 256.972 262.048 257.06 264.206C253.761 265.456 251.773 264.834 253.399 261.223Z" fill="#3b6f5d" fill-rule="nonzero" opacity="1" stroke="#3b6f5d" stroke-linecap="round" stroke-linejoin="round" stroke-width="1"/>
<path d="M268.505 241.003C270.513 239.366 276.652 241.072 279.157 241.795C279.032 242.073 279.032 242.073 278.908 242.35C275.459 242 271.917 241.617 268.505 241.003Z" fill="#a7995a" fill-rule="nonzero" opacity="1" stroke="#a7995a" stroke-linecap="round" stroke-linejoin="round" stroke-width="1"/>
<path d="M323.008 282.217C324.999 277.793 324.939 273.035 329.597 273.508C328.08 276.876 327.08 280.372 325.102 283.493C323.611 282.822 324.311 283.245 323.008 282.217Z" fill="#55877c" fill-rule="nonzero" opacity="1" stroke="#55877c" stroke-linecap="round" stroke-linejoin="round" stroke-width="1"/>
<path d="M312.003 329.636C310.225 328.836 308.53 326.68 306.802 325.627C309.8 318.968 311.867 326.288 312.003 329.636Z" fill="#d8a61e" fill-rule="nonzero" opacity="1" stroke="#d8a61e" stroke-linecap="round" stroke-linejoin="round" stroke-width="1"/>
<path d="M338.386 302.15C336.761 300.156 335.338 299.066 333.033 297.738C338.029 294.608 338.84 297.684 338.386 302.15Z" fill="#d4ae25" fill-rule="nonzero" opacity="1" stroke="#d4ae25" stroke-linecap="round" stroke-linejoin="round" stroke-width="1"/>
<path d="M305.692 331.799C304.194 329.962 303.206 328.334 301.268 326.805C306.269 324.37 306.836 327.46 305.692 331.799Z" fill="#d8b223" fill-rule="nonzero" opacity="1" stroke="#d8b223" stroke-linecap="round" stroke-linejoin="round" stroke-width="1"/>
<path d="M344.24 298.78C342.253 297.886 340.358 296.518 338.387 295.478C341.284 289.044 344.086 295.007 344.24 298.78Z" fill="#d9a81e" fill-rule="nonzero" opacity="1" stroke="#d9a81e" stroke-linecap="round" stroke-linejoin="round" stroke-width="1"/>
<path d="M287.18 301.782C284.686 301.884 282.124 301.174 279.774 300.45C280.735 298.314 280.387 299.379 280.87 297.274C283.175 298.921 284.376 299.912 287.18 301.782Z" fill="#4b8887" fill-rule="nonzero" opacity="1" stroke="#4b8887" stroke-linecap="round" stroke-linejoin="round" stroke-width="1"/>
<path d="M311.38 317.68C312.772 318.307 315.616 322.349 315.027 323.658C311.389 322.021 309.559 321.725 311.38 317.68Z" fill="#daa81d" fill-rule="nonzero" opacity="1" stroke="#daa81d" stroke-linecap="round" stroke-linejoin="round" stroke-width="1"/>
<path d="M248.487 274.357C248.41 272.462 249.252 266.565 251.026 266.493C249.944 268.898 251.723 274.225 248.487 274.357Z" fill="#57867b" fill-rule="nonzero" opacity="1" stroke="#57867b" stroke-linecap="round" stroke-linejoin="round" stroke-width="1"/>
<path d="M277.676 222.114C280.004 223.405 283.205 227.897 278.299 227.398C278.932 225.993 278.018 223.639 277.676 222.114Z" fill="#d0a725" fill-rule="nonzero" opacity="1" stroke="#d0a725" stroke-linecap="round" stroke-linejoin="round" stroke-width="1"/>
<path d="M237.587 267.449C237.016 270.621 233.324 270.415 231.248 268.932C232.063 267.122 235.808 267.268 237.587 267.449Z" fill="#d9a71e" fill-rule="nonzero" opacity="1" stroke="#d9a71e" stroke-linecap="round" stroke-linejoin="round" stroke-width="1"/>
<path d="M277.084 294.569C276.959 294.846 276.959 294.846 276.834 295.124C273.918 293.811 271.124 292.666 268.11 291.53C272.184 289.445 273.855 292.022 277.084 294.569Z" fill="#b19354" fill-rule="nonzero" opacity="1" stroke="#b19354" stroke-linecap="round" stroke-linejoin="round" stroke-width="1"/>
<path d="M281.989 224.389C282.554 223.134 282.711 221.44 282.225 220.159C284.879 217.994 287.819 227.014 281.989 224.389Z" fill="#dcaa1c" fill-rule="nonzero" opacity="1" stroke="#dcaa1c" stroke-linecap="round" stroke-linejoin="round" stroke-width="1"/>
<path d="M341.454 287.185C343.133 287.941 346.765 290.206 345.752 292.456C343.151 291.285 339.738 290.995 341.454 287.185Z" fill="#deaa1a" fill-rule="nonzero" opacity="1" stroke="#deaa1a" stroke-linecap="round" stroke-linejoin="round" stroke-width="1"/>
<path d="M276.195 299.506C274.254 298.632 274.254 298.632 272.312 297.758C273.873 297.695 274.62 297.078 275.225 295.734C273.977 295.172 273.977 295.172 272.729 294.61C275.01 295.47 275.01 295.47 277.292 296.33C276.82 297.378 276.681 298.427 276.195 299.506Z" fill="#408690" fill-rule="nonzero" opacity="1" stroke="#408690" stroke-linecap="round" stroke-linejoin="round" stroke-width="1"/>
</g>
</g>
<g id="レイヤー-5" opacity="0.707265">
<path d="M311.125 237.83C311.125 237.83 309.097 237.44 305.779 237.086C296.474 236.091 277.023 235.376 263.711 244.335C245.653 256.488 245.567 267.956 246.081 282.505C246.594 297.055 250.36 297.14 265.765 302.532C281.17 307.924 282.882 315.626 300.512 308.009C318.143 300.393 319.683 302.789 329.097 286.613C338.512 270.438 338.212 264.062 333.719 251.866C329.226 239.671 311.125 237.83 311.125 237.83Z" fill="#009545" fill-rule="nonzero" opacity="1" stroke="#d9a71e" stroke-linecap="round" stroke-linejoin="round" stroke-width="1"/>
<path d="M306.805 240.163C306.805 240.163 296.301 240.957 285.356 242.016C274.546 243.062 272.074 243.861 260.464 251.108C252.84 255.867 253.127 258.721 252.608 262.759C252.055 267.064 250.876 272.752 251.107 278.824C251.555 290.594 254.531 291.587 267.967 295.949C281.402 300.31 281.72 309.348 297.096 303.187C312.472 297.025 316.955 298.971 325.165 285.886C333.376 272.801 332.261 262.298 328.343 252.432C324.424 242.566 306.805 240.163 306.805 240.163Z" fill="#009545" fill-opacity="0.310811" fill-rule="nonzero" opacity="1" stroke="#f7b80a" stroke-linecap="round" stroke-linejoin="round" stroke-width="0.937448"/>
<path d="M294.703 256.247C294.703 256.247 294.108 256.132 293.133 256.028C290.4 255.736 284.687 255.526 280.777 258.157C275.473 261.726 275.448 265.095 275.599 269.368C275.75 273.641 276.856 273.667 281.381 275.25C285.905 276.834 286.408 279.096 291.586 276.859C296.764 274.622 297.217 275.326 299.982 270.575C302.747 265.824 302.659 263.951 301.339 260.369C300.02 256.787 294.703 256.247 294.703 256.247Z" fill="#009545" fill-rule="nonzero" opacity="1" stroke="#f7b80a" stroke-linecap="round" stroke-linejoin="round" stroke-width="3.06044"/>
<path d="M268.664 261.738C268.664 261.738 268.191 261.65 267.417 261.57C265.245 261.347 260.706 261.187 257.599 263.198C253.385 265.927 251.252 273.262 251.372 276.529C251.492 279.797 254.483 275.056 258.079 276.267C261.674 277.477 262.073 279.207 266.188 277.497C270.302 275.786 270.662 276.324 272.859 272.692C275.056 269.06 274.986 267.628 273.937 264.889C272.889 262.151 268.664 261.738 268.664 261.738Z" fill="#009545" fill-rule="nonzero" opacity="1" stroke="#f7b80a" stroke-linecap="round" stroke-linejoin="round" stroke-width="3.06044"/>
<path d="M278.36 276.589C278.36 276.589 277.886 276.502 277.112 276.422C274.941 276.199 270.401 276.038 267.294 278.05C263.08 280.779 263.06 283.354 263.18 286.621C263.3 289.888 264.684 292.266 266.025 293.477C267.365 294.688 269.371 293.443 270.143 293.824C271.575 294.531 273.21 293.46 275.883 292.348C279.997 290.638 280.357 291.176 282.554 287.544C284.751 283.912 284.681 282.48 283.633 279.741C282.584 277.003 278.36 276.589 278.36 276.589Z" fill="#009545" fill-rule="nonzero" opacity="1" stroke="#f7b80a" stroke-linecap="round" stroke-linejoin="round" stroke-width="3.06044"/>
<path d="M298.303 276.696C298.303 276.696 297.83 276.609 297.056 276.529C294.884 276.306 290.345 276.145 287.238 278.157C283.024 280.886 283.004 283.461 283.124 286.728C283.244 289.995 288.226 289.591 287.718 291.225C287.209 292.859 285.125 306.133 289.24 304.422C293.354 302.712 299.312 303.023 301.509 299.391C303.706 295.759 304.625 282.587 303.576 279.848C302.528 277.109 298.303 276.696 298.303 276.696Z" fill="#009545" fill-rule="nonzero" opacity="1" stroke="#f7b80a" stroke-linecap="round" stroke-linejoin="round" stroke-width="3.06044"/>
<path d="M315.42 265.228C315.42 265.228 314.947 265.14 314.173 265.061C312.001 264.837 307.462 264.677 304.355 266.688C300.141 269.417 300.121 271.993 300.241 275.26C300.36 278.527 301.239 278.546 304.834 279.757C308.43 280.968 314.607 286.537 318.721 284.827C322.836 283.116 322.792 283.163 324.989 279.531C327.186 275.898 327.891 275.031 326.842 272.293C325.794 269.554 315.42 265.228 315.42 265.228Z" fill="#009545" fill-rule="nonzero" opacity="1" stroke="#f7b80a" stroke-linecap="round" stroke-linejoin="round" stroke-width="3.06044"/>
<path d="M317.751 246.165C317.751 246.165 316.987 247.553 315.544 245.017C314.101 242.482 307.804 248.758 304.697 250.77C300.483 253.499 300.463 256.074 300.583 259.341C300.703 262.608 301.582 262.627 305.177 263.838C308.772 265.049 309.171 266.779 313.286 265.068C317.4 263.358 323.939 261.713 326.136 258.081C328.333 254.449 326.037 252.787 324.989 250.049C323.94 247.31 317.751 246.165 317.751 246.165Z" fill="#009545" fill-rule="nonzero" opacity="1" stroke="#f7b80a" stroke-linecap="round" stroke-linejoin="round" stroke-width="3.06044"/>
<path d="M297.276 241.949C297.276 241.949 296.803 241.861 296.029 241.782C293.857 241.558 286.962 242.388 283.855 244.399C279.641 247.128 281.977 248.714 282.097 251.981C282.217 255.248 283.095 255.267 286.691 256.478C290.286 257.689 290.685 259.418 294.8 257.708C298.914 255.998 299.274 256.536 301.471 252.903C303.668 249.271 303.598 247.839 302.549 245.101C301.501 242.362 297.276 241.949 297.276 241.949Z" fill="#009545" fill-rule="nonzero" opacity="1" stroke="#f7b80a" stroke-linecap="round" stroke-linejoin="round" stroke-width="3.06044"/>
<path d="M279.265 244.929C279.265 244.929 281.648 245.9 279.177 244.841C276.286 243.602 270.832 246.704 267.725 248.716C263.511 251.445 263.491 254.02 263.611 257.287C263.73 260.554 264.609 260.573 268.204 261.784C271.8 262.995 272.199 264.725 276.314 263.014C280.428 261.304 280.788 261.842 282.985 258.21C285.182 254.577 285.112 253.146 284.063 250.407C283.015 247.668 279.265 244.929 279.265 244.929Z" fill="#009545" fill-rule="nonzero" opacity="1" stroke="#f7b80a" stroke-linecap="round" stroke-linejoin="round" stroke-width="3.06044"/>
<path d="M260.696 276.924C260.696 276.924 260.459 276.871 260.071 276.822C258.982 276.685 256.705 276.587 255.147 277.819C253.033 279.49 253.023 281.068 253.083 283.069C253.143 285.07 255.299 284.323 253.402 286.592C251.506 288.862 258.93 293.554 260.993 292.506C263.057 291.459 261.698 285.859 262.8 283.634C263.902 281.409 263.867 280.532 263.341 278.855C262.815 277.177 260.696 276.924 260.696 276.924Z" fill="#009545" fill-rule="nonzero" opacity="1" stroke="#f7b80a" stroke-linecap="round" stroke-linejoin="round" stroke-width="3.06044"/>
<path d="M283.689 291.212C283.689 291.212 282.302 289.642 281.913 289.593C280.824 289.456 279.697 290.874 278.139 292.106C276.025 293.778 276.015 295.355 276.076 297.356C276.136 299.357 276.576 299.369 278.38 300.111C280.183 300.852 283.733 304.676 285.797 303.628C287.861 302.58 284.691 300.146 285.793 297.921C286.895 295.697 286.86 294.82 286.334 293.142C285.808 291.465 283.689 291.212 283.689 291.212Z" fill="#009545" fill-rule="nonzero" opacity="1" stroke="#f7b80a" stroke-linecap="round" stroke-linejoin="round" stroke-width="3.06044"/>
<path d="M310.164 281.375C310.164 281.375 309.927 281.321 309.538 281.272C308.449 281.136 306.172 281.037 304.614 282.269C302.5 283.941 302.49 285.518 302.551 287.519C302.611 289.52 301.383 291.412 303.186 292.153C304.989 292.895 302.358 299.644 304.422 298.597C306.486 297.549 313.912 296.408 315.014 294.183C316.116 291.959 316.07 286.239 315.544 284.562C315.018 282.885 310.164 281.375 310.164 281.375Z" fill="#009545" fill-rule="nonzero" opacity="1" stroke="#f7b80a" stroke-linecap="round" stroke-linejoin="round" stroke-width="3.06044"/>
<path d="M324.713 259.294C324.459 256.492 324.476 259.24 324.088 259.192C322.999 259.055 320.722 258.956 319.164 260.189C317.05 261.86 317.04 263.437 317.1 265.438C317.16 267.44 317.601 267.451 319.404 268.193C321.207 268.934 321.408 269.994 323.471 268.946C325.535 267.899 328.3 271.075 329.402 268.85C330.504 266.625 328.153 264.844 329.579 261.524C331.005 258.204 324.968 262.096 324.713 259.294Z" fill="#009545" fill-rule="nonzero" opacity="1" stroke="#f7b80a" stroke-linecap="round" stroke-linejoin="round" stroke-width="3.06044"/>
<path d="M311.042 242.722C310.315 241.12 309.652 241.341 309.365 241.31C308.561 241.224 302.2 243.299 301.509 241.751C300.818 240.204 303.016 246.135 303.06 247.392C303.104 248.649 303.43 248.657 304.761 249.123C306.092 249.589 306.239 250.255 307.763 249.596C309.286 248.938 309.419 249.145 310.232 247.747C311.046 246.349 312.754 243.865 312.366 242.811C311.978 241.757 311.769 244.325 311.042 242.722Z" fill="#009545" fill-rule="nonzero" opacity="1" stroke="#f7b80a" stroke-linecap="round" stroke-linejoin="round" stroke-width="3.06044"/>
<path d="M261.095 255.17C261.095 255.17 261.28 252.286 260.993 252.255C260.19 252.169 256.936 255.453 255.786 256.228C254.225 257.278 252.297 257.796 253.491 261.082C254.684 264.369 255.426 261.676 256.757 262.142C258.088 262.608 258.655 261.894 260.178 261.236C261.701 260.577 261.834 260.785 262.648 259.387C263.461 257.988 263.435 257.437 263.047 256.383C262.659 255.329 261.095 255.17 261.095 255.17Z" fill="#009545" fill-rule="nonzero" opacity="1" stroke="#f7b80a" stroke-linecap="round" stroke-linejoin="round" stroke-width="3.06044"/>
<path d="M339.519 193.591C330.565 188.634 336.852 201.515 333.922 210.394C331.829 216.739 327.37 221.126 327.047 221.093C326.274 221.013 328.614 222.96 326.072 218.749C323.529 214.537 320.835 201.584 318.733 202.705C311.537 206.542 310.985 215.826 311.105 219.093C311.225 222.36 311.857 218.055 314.735 225.25C317.613 232.445 312.657 234.844 318.413 236.922C324.999 239.301 331.566 248.709 333.763 245.077C335.054 242.943 344.446 234.533 345.115 228.128C345.585 223.633 348.175 215.98 348.953 214.697C350.838 211.585 348.473 198.548 339.519 193.591Z" fill="#026f35" fill-rule="nonzero" opacity="1" stroke="#024622" stroke-linecap="round" stroke-linejoin="round" stroke-width="1.42262"/>
<path d="M307.54 329.661C309.938 334.778 314.267 336.805 315.854 335.097C317.442 333.39 313.637 323.034 313.89 322.831C314.496 322.343 322.984 332.257 323.689 329.981C326.103 322.192 319.997 320.706 317.613 318.468C315.23 316.231 309.619 312.872 309.619 312.872C309.619 312.872 314.443 302.935 308.889 305.507C302.536 308.45 294.074 310.024 295.068 314.151C295.652 316.576 293.222 323.987 294.748 327.742C296.275 331.498 303.543 339.894 306.74 340.374C309.938 340.854 305.142 324.544 307.54 329.661Z" fill="#026f35" fill-rule="nonzero" opacity="1" stroke="#024622" stroke-linecap="round" stroke-linejoin="round" stroke-width="1.42262"/>
<path d="M346.394 292.725C347 292.238 353.749 287.289 353.11 280.733C351.647 265.744 347.978 281.052 345.595 278.815C343.211 276.577 339.679 284.251 339.679 284.251C339.679 284.251 338.559 266.503 338.719 269.541C338.879 272.579 326.088 293.045 327.207 296.723C328.664 301.511 346.142 292.929 346.394 292.725Z" fill="#026f35" fill-rule="nonzero" opacity="1" stroke="#024622" stroke-linecap="round" stroke-linejoin="round" stroke-width="1.42262"/>
<path d="M276.52 219.205C277.126 218.717 283.401 213.179 289.669 215.202C304.002 219.829 288.263 220.148 289.94 222.954C291.618 225.76 283.367 227.574 283.367 227.574C283.367 227.574 300.468 232.454 297.534 231.65C294.6 230.845 271.876 238.976 268.521 237.098C264.154 234.652 276.268 219.408 276.52 219.205Z" fill="#026f35" fill-rule="nonzero" opacity="1" stroke="#024622" stroke-linecap="round" stroke-linejoin="round" stroke-width="1.42262"/>
<path d="M246.736 260.145C246.736 260.145 226.486 262.525 218.21 274.191C209.934 285.858 212.441 304.874 212.441 304.874L215.743 317.423C215.743 317.423 222.784 300.587 229.776 291.248C236.769 281.909 243.715 280.066 243.715 280.066C243.715 280.066 242.552 277.092 243.307 272.112C244.062 267.131 246.736 260.145 246.736 260.145Z" fill="#ca8103" fill-rule="nonzero" opacity="1" stroke="#ea9300" stroke-linecap="round" stroke-linejoin="round" stroke-width="1.42262"/>
<path d="M294.109 310.314C294.109 310.314 293.642 328.512 282.916 337.975C272.191 347.439 255.636 343.488 255.636 343.488L242.808 341.531C242.808 341.531 258.805 332.75 267.352 324.808C275.899 316.866 275.561 308.235 275.561 308.235C275.561 308.235 279.962 313.031 284.835 311.753C289.707 310.475 294.109 310.314 294.109 310.314Z" fill="#cd8100" fill-rule="nonzero" opacity="1" stroke="#d98a03" stroke-linecap="round" stroke-linejoin="round" stroke-width="1.42262"/>
<path d="M278.914 308.887C278.914 308.887 272.625 329.91 256.688 337.669C240.751 345.428 221.991 335.819 221.991 335.819L207.106 329.66C207.106 329.66 229.198 324.29 242.024 317.642C254.849 310.994 257.156 300.853 257.156 300.853C257.156 300.853 260.334 303.008 266.287 305.037C273.323 307.436 278.914 308.887 278.914 308.887Z" fill="#875500" fill-rule="nonzero" opacity="1" stroke="#986206" stroke-linecap="round" stroke-linejoin="round" stroke-width="1.42262"/>
<path d="M255.255 302.159C255.255 302.159 254.077 312.321 238.14 320.081C222.203 327.84 206.807 321.027 206.807 321.027L188.558 312.072C188.558 312.072 205.493 304.81 218.319 298.162C231.145 291.513 243.103 279.934 243.103 279.934C243.103 279.934 243.982 289.887 246.78 295.284C249.578 300.68 255.255 302.159 255.255 302.159Z" fill="#7a4e02" fill-rule="nonzero" opacity="1" stroke="#6b4403" stroke-linecap="round" stroke-linejoin="round" stroke-width="1.42262"/>
</g>
</svg>
