<?xml version="1.0" encoding="utf-8"?>
<svg viewBox="107.717 56.6929 226.772 198.425" xmlns="http://www.w3.org/2000/svg" xmlns:xlink="http://www.w3.org/1999/xlink">
  <g id="am1">
    <g id="am2">
      <path id="am3" style="fill:#f6e9e2;fill-opacity:1;fill-rule:nonzero;opacity:1;stroke:#3a5beb;stroke-linecap:butt;stroke-linejoin:round;stroke-miterlimit:10;stroke-opacity:1;stroke-width:0.5;" d="M262.697,249.239 C262.697,249.239,277.675,225.644,270.802,210.969 C263.928,196.294,254.685,193.696,254.685,193.696 C254.685,193.696,234.595,187.508,231.49,182.979 C227.301,176.865,228.363,171.498,228.363,171.498 C228.363,171.498,208.681,171.9,208.681,171.9 C208.681,171.9,210.702,177.843,206.582,183.191 C200.622,190.927,180.658,190.518,173.567,200.619 C162.837,215.904,173.903,247.725,173.903,247.725"/>
      <path id="am4" style="fill:#00b3ff;fill-opacity:1;fill-rule:nonzero;opacity:1;stroke:#3a5beb;stroke-linecap:butt;stroke-linejoin:round;stroke-miterlimit:10;stroke-opacity:1;stroke-width:1;" d="M186.889,248.022 C186.889,248.022,180.443,226.881,180.443,226.881 C180.443,226.881,163.294,217.624,163.294,217.624 C163.294,217.624,171.19,198.011,178.806,194.87 C186.422,191.728,195.174,188.282,195.174,188.282 C195.174,188.282,207.999,200.162,220.447,200.597 C232.894,201.033,244.965,190.024,244.965,190.024 C244.965,190.024,255.165,190.256,263.135,198.192 C271.106,206.127,276.051,217.017,276.051,217.017 C276.051,217.017,260.175,224.774,260.175,224.774 C260.175,224.774,254.222,248.163,254.222,248.163"/>
      <path id="am5" style="fill:#3156f4;fill-opacity:1;fill-rule:nonzero;opacity:1;stroke:#3a5beb;stroke-linecap:butt;stroke-linejoin:round;stroke-miterlimit:10;stroke-opacity:1;stroke-width:1;" d="M228.66,175.641 C228.66,175.641,228.281,182.91,240.037,188.078 C248.22,191.676,229.932,200.739,225.706,209.173 C221.477,217.608,223.454,220.311,223.454,220.311 C223.454,220.311,229.468,220.69,237.944,214.974 C246.555,209.166,250.007,204.547,246.105,186.26 C244.726,179.796,228.66,175.641,228.66,175.641 z"/>
      <path id="am6" style="fill:#fbebdf;fill-opacity:1;fill-rule:nonzero;opacity:1;stroke:#3a5beb;stroke-linecap:butt;stroke-linejoin:round;stroke-miterlimit:10;stroke-opacity:1;stroke-width:0.3;" d="M193.419,95.5734 C193.419,95.5734,176.654,126.951,176.654,126.951 C176.654,126.951,174.407,150.102,182.425,159.571 C193.274,172.386,208.112,178.111,213.581,179.872 C216.237,180.727,222.302,180.435,224.266,179.872 C231.91,177.681,255.013,167.609,260.768,147.212 C268.318,120.449,244.259,96.3934,244.259,96.3934 C244.259,96.3934,193.419,95.5734,193.419,95.5734 z"/>
      <path id="am7" style="fill:#3408df;fill-opacity:1;fill-rule:nonzero;opacity:1;stroke:#3408df;stroke-linecap:butt;stroke-linejoin:round;stroke-miterlimit:10;stroke-opacity:1;stroke-width:1;" d="M242.331,138.027 C242.331,138.027,237.641,138.594,235.474,138.402 C232.77,138.163,230.702,138.773,230.702,138.773 C230.702,138.773,232.838,138.57,232.838,138.57 C232.838,138.57,234.524,138.276,236.229,138.027 C238.808,137.651,242.331,138.027,242.331,138.027 z"/>
      <path id="am8" style="fill:#3408df;fill-opacity:1;fill-rule:nonzero;opacity:1;stroke:#3408df;stroke-linecap:butt;stroke-linejoin:round;stroke-miterlimit:10;stroke-opacity:1;stroke-width:1;" d="M194.728,138.028 C194.728,138.028,199.396,138.758,201.568,138.642 C204.279,138.497,206.324,139.179,206.324,139.179 C206.324,139.179,204.197,138.901,204.197,138.901 C204.197,138.901,202.523,138.549,200.827,138.241 C198.263,137.775,194.728,138.028,194.728,138.028 z"/>
      <path id="am9" style="fill:#3156f4;fill-opacity:1;fill-rule:nonzero;opacity:1;stroke:#3a5beb;stroke-linecap:butt;stroke-linejoin:round;stroke-miterlimit:10;stroke-opacity:1;stroke-width:1;" d="M214.919,80.2701 C201.536,80.7413,174.24,98.3801,174.24,127.024 C174.24,145.299,182.637,163.632,189.673,169.448 C193.879,172.925,201.568,176.271,205.24,177.453 C205.452,177.521,208.456,178.542,208.456,178.542 C208.456,178.542,205.335,176.871,205.016,176.686 C201.72,174.77,193.96,172.228,188.909,163.486 C183.634,154.356,185.005,144.649,185.413,143.191 C185.413,143.191,191.684,124.28,191.684,124.28 C191.69,124.26,191.688,124.239,191.687,124.218 C191.648,123.138,197.451,113.418,197.385,114.128 C197.014,118.107,197.534,125.306,197.919,129.066 C198.27,132.502,200.821,141.849,200.821,141.849 C200.821,141.849,211.463,143.473,211.463,143.473 C211.964,143.48,206.786,120.615,206.786,120.615 C206.699,119.69,208.328,120.841,208.328,120.841 C208.328,120.841,212.969,134.671,212.969,134.671 C212.969,134.671,218.913,143.076,219.15,143.062 C219.15,143.062,227.077,142.602,227.077,142.602 C227.508,142.577,222.306,129.273,221.241,126.562 C221.169,126.379,222.841,126.114,222.977,126.255 C224.216,127.548,235.397,141.241,235.566,141.422 C235.571,141.428,235.578,141.432,235.585,141.437 C235.614,141.458,235.65,141.469,235.687,141.469 C235.687,141.469,248.859,141.474,248.859,141.474 C248.92,141.474,248.976,141.443,249.009,141.391 C249.009,141.391,251.428,137.621,251.428,137.621 C251.514,137.487,251.721,137.524,251.754,137.681 C252.06,139.129,253.038,143.854,253.079,145.312 C253.207,149.835,251.908,157.783,249.616,162.539 C246.046,169.945,237.723,174.249,230.146,178.073 C229.31,178.495,229.45,179.03,230.356,178.815 C230.367,178.813,230.377,178.807,230.388,178.803 C230.388,178.803,245.053,172.196,245.053,172.196 C245.133,172.177,264.395,161.392,265.006,128.185 C265.723,89.205,234.194,79.5914,214.919,80.2701 z"/>
      <path id="am10" style="fill:#fbebdf;fill-opacity:1;fill-rule:nonzero;opacity:1;stroke:#e9e1db;stroke-linecap:butt;stroke-linejoin:round;stroke-miterlimit:10;stroke-opacity:1;stroke-width:0;" d="M249.616,155.146 C253.391,152.3,253.118,153.57,254.059,152.591 C255.27,151.331,256.937,146.132,256.937,146.132 C256.937,146.132,257.697,141.464,256.239,140.962 C252.999,139.845,252.027,143.878,252.027,143.878"/>
      <path id="am11" style="fill:#fbebdf;fill-opacity:1;fill-rule:nonzero;opacity:1;stroke:#e9e1db;stroke-linecap:butt;stroke-linejoin:round;stroke-miterlimit:10;stroke-opacity:1;stroke-width:0;" d="M188.375,156.352 C187.449,155.738,184.658,154.487,184.161,154.206 C183.574,153.874,182.836,152.181,182.505,151.593 C182.505,151.593,181.364,147.95,181.364,147.95 C181.364,147.95,180.863,141.632,183.867,141.326 C185.881,141.12,186.59,145.595,186.59,145.595"/>
      <path id="am12" style="fill:#3408df;fill-opacity:1;fill-rule:nonzero;opacity:1;stroke:#3408df;stroke-linecap:butt;stroke-linejoin:round;stroke-miterlimit:10;stroke-opacity:1;stroke-width:1;" d="M205.624,147.271 C205.624,147.271,204.197,145.667,201.257,145.305 C198.791,145.001,196.228,147.768,196.228,147.768 C196.228,147.768,196.145,146.919,196.145,146.919 C196.145,146.919,197.185,145.104,201.019,144.492 C205.156,143.832,205.624,147.271,205.624,147.271 z"/>
      <path id="am13" style="fill:#3408df;fill-opacity:1;fill-rule:nonzero;opacity:1;stroke:#3408df;stroke-linecap:butt;stroke-linejoin:round;stroke-miterlimit:10;stroke-opacity:1;stroke-width:1;" d="M239.468,147.333 C239.468,147.333,238.1,145.667,235.161,145.305 C232.695,145.001,230.135,147.355,230.135,147.355 C230.135,147.355,230.049,146.919,230.049,146.919 C230.049,146.919,231.089,145.104,234.922,144.492 C239.06,143.832,239.468,147.333,239.468,147.333 z"/>
      <path id="am14" style="fill:#3408df;fill-opacity:1;fill-rule:nonzero;opacity:1;stroke:#3408df;stroke-linecap:butt;stroke-linejoin:round;stroke-miterlimit:10;stroke-opacity:1;stroke-width:1;" d="M205.922,148.12 C205.921,147.183,205.488,145.68,204.433,145.052 C202.776,144.066,201.144,145.023,200.474,145.663 C199.592,146.505,199.561,147.898,199.844,148.676 C200.279,149.87,201.303,151.077,203.23,150.878 C205.181,150.676,205.922,149.151,205.922,148.12 z"/>
      <path id="am15" style="fill:#3408df;fill-opacity:1;fill-rule:nonzero;opacity:1;stroke:#3408df;stroke-linecap:butt;stroke-linejoin:round;stroke-miterlimit:10;stroke-opacity:1;stroke-width:1;" d="M239.528,148.12 C239.528,147.183,239.095,145.68,238.039,145.052 C236.383,144.066,234.751,145.023,234.081,145.663 C233.199,146.505,233.167,147.898,233.451,148.676 C233.886,149.87,234.909,151.077,236.836,150.878 C238.787,150.676,239.528,149.151,239.528,148.12 z"/>
      <path id="am16" style="fill:#f2beef;fill-opacity:1;fill-rule:nonzero;opacity:1;stroke:#f2beef;stroke-linecap:butt;stroke-linejoin:round;stroke-miterlimit:10;stroke-opacity:1;stroke-width:1;" d="M212.007,168.891 C212.342,168.577,215.111,169.547,218.025,169.601 C221.345,169.663,223.738,168.739,224.039,169.031 C224.604,169.579,220.783,170.996,217.497,170.935 C214.211,170.871,211.292,169.564,212.007,168.891 z"/>
      <path id="am17" style="fill:#3408df;fill-opacity:0.503165;fill-rule:nonzero;opacity:1;stroke:#3408df;stroke-linecap:butt;stroke-linejoin:round;stroke-miterlimit:10;stroke-opacity:1;stroke-width:0;" d="M214.837,163.333 C214.809,162.783,215.769,163.016,216.073,162.179 C216.304,161.543,216.89,158.379,216.935,158.074 C216.945,158.003,217.062,160.568,217.062,160.751 C217.062,161.399,217,163,216.913,163.819 C216.873,164.195,214.859,163.775,214.837,163.333 z"/>
    </g>
  </g>
</svg>
