<?xml version="1.0" encoding="utf-8"?>
<svg viewBox="107.717 56.6929 226.772 198.425" xmlns="http://www.w3.org/2000/svg" xmlns:xlink="http://www.w3.org/1999/xlink">
  <g id="am1">
    <g id="am2">
      <path id="am3" style="fill:#f6e9e2;fill-opacity:1;fill-rule:nonzero;opacity:1;stroke:#3a5beb;stroke-linecap:butt;stroke-linejoin:round;stroke-miterlimit:10;stroke-opacity:1;stroke-width:0.5;" d="M262.697,249.239 C262.697,249.239,277.675,225.644,270.802,210.969 C263.928,196.294,254.685,193.696,254.685,193.696 C254.685,193.696,234.595,187.508,231.49,182.979 C227.301,176.865,228.363,171.498,228.363,171.498 C228.363,171.498,208.681,171.9,208.681,171.9 C208.681,171.9,210.702,177.843,206.582,183.191 C200.622,190.927,180.658,190.518,173.567,200.619 C162.837,215.904,173.903,247.725,173.903,247.725"/>
      <path id="am4" style="fill:#00b3ff;fill-opacity:1;fill-rule:nonzero;opacity:1;stroke:#3a5beb;stroke-linecap:butt;stroke-linejoin:round;stroke-miterlimit:10;stroke-opacity:1;stroke-width:1;" d="M186.889,248.022 C186.889,248.022,180.443,226.881,180.443,226.881 C180.443,226.881,163.294,217.624,163.294,217.624 C163.294,217.624,171.19,198.011,178.806,194.87 C186.422,191.728,195.174,188.282,195.174,188.282 C195.174,188.282,207.999,200.162,220.447,200.597 C232.894,201.033,244.965,190.024,244.965,190.024 C244.965,190.024,255.165,190.256,263.135,198.192 C271.106,206.127,276.051,217.017,276.051,217.017 C276.051,217.017,260.175,224.774,260.175,224.774 C260.175,224.774,254.222,248.163,254.222,248.163"/>
      <path id="am5" style="fill:#3156f4;fill-opacity:1;fill-rule:nonzero;opacity:1;stroke:#3a5beb;stroke-linecap:butt;stroke-linejoin:round;stroke-miterlimit:10;stroke-opacity:1;stroke-width:1;" d="M228.66,175.641 C228.66,175.641,228.281,182.91,240.037,188.078 C248.22,191.676,229.932,200.739,225.706,209.173 C221.477,217.608,223.454,220.311,223.454,220.311 C223.454,220.311,229.468,220.69,237.944,214.974 C246.555,209.166,250.007,204.547,246.105,186.26 C244.726,179.796,228.66,175.641,228.66,175.641 z"/>
      <path id="am6" style="fill:#fbebdf;fill-opacity:1;fill-rule:nonzero;opacity:1;stroke:#3a5beb;stroke-linecap:butt;stroke-linejoin:round;stroke-miterlimit:10;stroke-opacity:1;stroke-width:0.3;" d="M193.419,95.5734 C193.419,95.5734,176.654,126.951,176.654,126.951 C176.654,126.951,174.407,150.102,182.425,159.571 C193.274,172.386,208.112,178.111,213.581,179.872 C216.237,180.727,222.302,180.435,224.266,179.872 C231.91,177.681,255.013,167.609,260.768,147.212 C268.318,120.449,244.259,96.3934,244.259,96.3934 C244.259,96.3934,193.419,95.5734,193.419,95.5734 z"/>
      <path id="am7" style="fill:#3408df;fill-opacity:1;fill-rule:nonzero;opacity:1;stroke:#3408df;stroke-linecap:butt;stroke-linejoin:round;stroke-miterlimit:10;stroke-opacity:1;stroke-width:1;" d="M242.331,138.027 C242.331,138.027,237.641,138.594,235.474,138.402 C232.77,138.163,230.702,138.773,230.702,138.773 C230.702,138.773,232.838,138.57,232.838,138.57 C232.838,138.57,234.524,138.276,236.229,138.027 C238.808,137.651,242.331,138.027,242.331,138.027 z"/>
      <path id="am8" style="fill:#3408df;fill-opacity:1;fill-rule:nonzero;opacity:1;stroke:#3408df;stroke-linecap:butt;stroke-linejoin:round;stroke-miterlimit:10;stroke-opacity:1;stroke-width:1;" d="M194.728,138.028 C194.728,138.028,199.396,138.758,201.568,138.642 C204.279,138.497,206.324,139.179,206.324,139.179 C206.324,139.179,204.197,138.901,204.197,138.901 C204.197,138.901,202.523,138.549,200.827,138.241 C198.263,137.775,194.728,138.028,194.728,138.028 z"/>
      <path id="am9" style="fill:#3156f4;fill-opacity:1;fill-rule:nonzero;opacity:1;stroke:#3a5beb;stroke-linecap:butt;stroke-linejoin:round;stroke-miterlimit:10;stroke-opacity:1;stroke-width:1;" d="M214.919,80.2701 C201.536,80.7413,174.24,98.3801,174.24,127.024 C174.24,145.299,182.637,163.632,189.673,169.448 C193.879,172.925,201.568,176.271,205.24,177.453 C205.452,177.521,208.456,178.542,208.456,178.542 C208.456,178.542,205.335,176.871,205.016,176.686 C201.72,174.77,193.96,172.228,188.909,163.486 C183.634,154.356,185.005,144.649,185.413,143.191 C185.413,143.191,191.684,124.28,191.684,124.28 C191.69,124.26,191.688,124.239,191.687,124.218 C191.648,123.138,197.451,113.418,197.385,114.128 C197.014,118.107,197.534,125.306,197.919,129.066 C198.27,132.502,200.821,141.849,200.821,141.849 C200.821,141.849,211.463,143.473,211.463,143.473 C211.964,143.48,206.786,120.615,206.786,120.615 C206.699,119.69,208.328,120.841,208.328,120.841 C208.328,120.841,212.969,134.671,212.969,134.671 C212.969,134.671,218.913,143.076,219.15,143.062 C219.15,143.062,227.077,142.602,227.077,142.602 C227.508,142.577,222.306,129.273,221.241,126.562 C221.169,126.379,222.841,126.114,222.977,126.255 C224.216,127.548,235.397,141.241,235.566,141.422 C235.571,141.428,235.578,141.432,235.585,141.437 C235.614,141.458,235.65,141.469,235.687,141.469 C235.687,141.469,248.859,141.474,248.859,141.474 C248.92,141.474,248.976,141.443,249.009,141.391 C249.009,141.391,251.428,137.621,251.428,137.621 C251.514,137.487,251.721,137.524,251.754,137.681 C252.06,139.129,253.038,143.854,253.079,145.312 C253.207,149.835,251.908,157.783,249.616,162.539 C246.046,169.945,237.723,174.249,230.146,178.073 C229.31,178.495,229.45,179.03,230.356,178.815 C230.367,178.813,230.377,178.807,230.388,178.803 C230.388,178.803,245.053,172.196,245.053,172.196 C245.133,172.177,264.395,161.392,265.006,128.185 C265.723,89.205,234.194,79.5914,214.919,80.2701 z"/>
      <path id="am10" style="fill:#fbebdf;fill-opacity:1;fill-rule:nonzero;opacity:1;stroke:#e9e1db;stroke-linecap:butt;stroke-linejoin:round;stroke-miterlimit:10;stroke-opacity:1;stroke-width:0;" d="M249.616,155.146 C253.391,152.3,253.118,153.57,254.059,152.591 C255.27,151.331,256.937,146.132,256.937,146.132 C256.937,146.132,257.697,141.464,256.239,140.962 C252.999,139.845,252.027,143.878,252.027,143.878"/>
      <path id="am11" style="fill:#fbebdf;fill-opacity:1;fill-rule:nonzero;opacity:1;stroke:#e9e1db;stroke-linecap:butt;stroke-linejoin:round;stroke-miterlimit:10;stroke-opacity:1;stroke-width:0;" d="M188.375,156.352 C187.449,155.738,184.658,154.487,184.161,154.206 C183.574,153.874,182.836,152.181,182.505,151.593 C182.505,151.593,181.364,147.95,181.364,147.95 C181.364,147.95,180.863,141.632,183.867,141.326 C185.881,141.12,186.59,145.595,186.59,145.595"/>
      <path id="am12" style="fill:#3408df;fill-opacity:1;fill-rule:nonzero;opacity:1;stroke:#3408df;stroke-linecap:butt;stroke-linejoin:round;stroke-miterlimit:10;stroke-opacity:1;stroke-width:1;" d="M205.624,147.271 C205.624,147.271,204.197,145.667,201.257,145.305 C198.791,145.001,196.228,147.768,196.228,147.768 C196.228,147.768,196.145,146.919,196.145,146.919 C196.145,146.919,197.185,145.104,201.019,144.492 C205.156,143.832,205.624,147.271,205.624,147.271 z"/>
      <path id="am13" style="fill:#3408df;fill-opacity:1;fill-rule:nonzero;opacity:1;stroke:#3408df;stroke-linecap:butt;stroke-linejoin:round;stroke-miterlimit:10;stroke-opacity:1;stroke-width:1;" d="M239.468,147.333 C239.468,147.333,238.1,145.667,235.161,145.305 C232.695,145.001,230.135,147.355,230.135,147.355 C230.135,147.355,230.049,146.919,230.049,146.919 C230.049,146.919,231.089,145.104,234.922,144.492 C239.06,143.832,239.468,147.333,239.468,147.333 z"/>
      <path id="am14" style="fill:#3408df;fill-opacity:1;fill-rule:nonzero;opacity:1;stroke:#3408df;stroke-linecap:butt;stroke-linejoin:round;stroke-miterlimit:10;stroke-opacity:1;stroke-width:1;" d="M205.922,148.12 C205.921,147.183,205.488,145.68,204.433,145.052 C202.776,144.066,201.144,145.023,200.474,145.663 C199.592,146.505,199.561,147.898,199.844,148.676 C200.279,149.87,201.303,151.077,203.23,150.878 C205.181,150.676,205.922,149.151,205.922,148.12 z"/>
      <path id="am15" style="fill:#3408df;fill-opacity:1;fill-rule:nonzero;opacity:1;stroke:#3408df;stroke-linecap:butt;stroke-linejoin:round;stroke-miterlimit:10;stroke-opacity:1;stroke-width:1;" d="M239.528,148.12 C239.528,147.183,239.095,145.68,238.039,145.052 C236.383,144.066,234.751,145.023,234.081,145.663 C233.199,146.505,233.167,147.898,233.451,148.676 C233.886,149.87,234.909,151.077,236.836,150.878 C238.787,150.676,239.528,149.151,239.528,148.12 z"/>
      <path id="am16" style="fill:#f2beef;fill-opacity:1;fill-rule:nonzero;opacity:1;stroke:#f2beef;stroke-linecap:butt;stroke-linejoin:round;stroke-miterlimit:10;stroke-opacity:1;stroke-width:1;" d="M212.007,168.891 C212.342,168.577,215.111,169.547,218.025,169.601 C221.345,169.663,223.738,168.739,224.039,169.031 C224.604,169.579,220.783,170.996,217.497,170.935 C214.211,170.871,211.292,169.564,212.007,168.891 z"/>
      <path id="am17" style="fill:#3408df;fill-opacity:0.503165;fill-rule:nonzero;opacity:1;stroke:#3408df;stroke-linecap:butt;stroke-linejoin:round;stroke-miterlimit:10;stroke-opacity:1;stroke-width:0;" d="M214.837,163.333 C214.809,162.783,215.769,163.016,216.073,162.179 C216.304,161.543,216.89,158.379,216.935,158.074 C216.945,158.003,217.062,160.568,217.062,160.751 C217.062,161.399,217,163,216.913,163.819 C216.873,164.195,214.859,163.775,214.837,163.333 z"/>
    </g>
  </g>
  <g id="am18">
    <path id="am19" style="fill:#000000;fill-opacity:1;fill-rule:nonzero;opacity:1;stroke:#000000;stroke-linecap:butt;stroke-linejoin:round;stroke-miterlimit:10;stroke-opacity:1;stroke-width:0.5;" d="M241.093,106.293 C241.093,106.293,304.43,93.0974,304.43,93.0974"/>
    <path id="am20" style="fill:#000000;fill-opacity:1;fill-rule:nonzero;opacity:1;stroke:#000000;stroke-linecap:butt;stroke-linejoin:round;stroke-miterlimit:10;stroke-opacity:1;stroke-width:0.5;" d="M254.048,147.318 C254.048,147.318,300.832,136.042,300.832,136.042"/>
    <path id="am21" style="fill:#000000;fill-opacity:1;fill-rule:nonzero;opacity:1;stroke:#000000;stroke-linecap:butt;stroke-linejoin:round;stroke-miterlimit:10;stroke-opacity:1;stroke-width:0.5;" d="M193.981,146.933 C193.981,146.933,137.005,136.924,137.005,136.924"/>
    <path id="am22" style="fill:#000000;fill-opacity:1;fill-rule:nonzero;opacity:1;stroke:#000000;stroke-linecap:butt;stroke-linejoin:round;stroke-miterlimit:10;stroke-opacity:1;stroke-width:0.5;" d="M213.23,163.102 C213.23,163.102,140.085,183.428,140.085,183.428"/>
    <path id="am23" style="fill:#000000;fill-opacity:1;fill-rule:nonzero;opacity:1;stroke:#000000;stroke-linecap:butt;stroke-linejoin:round;stroke-miterlimit:10;stroke-opacity:1;stroke-width:0.5;" d="M226.458,170.111 C226.458,170.111,293.394,181.866,293.394,181.866"/>
    <g id="am24">
      <g id="am26">
        <path style="fill:#000000;fill-opacity:1;fill-rule:nonzero;opacity:1;stroke:none;" d="M300.062,78.0479 C300.133,78.0379,300.182,78.0379,300.223,78.0379 C300.242,78.0379,300.312,78.0379,300.402,78.0479 C301.202,78.0779,301.652,78.0979,301.753,78.0979 C301.753,78.0979,302.152,78.0979,302.152,78.0979 C302.103,78.8279,302.103,78.8779,302.092,79.6079 C300.642,80.2379,299.772,81.3579,299.772,82.5879 C299.772,83.4779,300.312,84.1079,301.062,84.1079 C301.762,84.1079,302.522,83.6979,303.292,82.8979 C304.073,82.1079,304.612,81.2479,305.193,79.8979 C306.272,80.1779,306.842,80.7779,306.842,81.6379 C306.842,82.5279,306.212,83.2579,305.122,83.6379 C304.642,83.8079,304.212,83.8879,303.622,83.9079 C303.802,84.1779,303.853,84.2879,303.943,84.5779 C304.842,84.4679,305.413,84.3079,305.982,84.0079 C307.012,83.4679,307.552,82.6779,307.552,81.6979 C307.552,80.5279,306.783,79.6779,305.402,79.3579 C305.573,78.8879,305.682,78.6179,305.712,78.5579 C305.712,78.5579,305.022,78.3479,305.022,78.3479 C304.982,78.6479,304.902,78.9479,304.783,79.2479 C304.533,79.2279,304.413,79.2179,304.202,79.2179 C303.672,79.2179,303.232,79.2779,302.723,79.4179 C302.732,78.9279,302.732,78.9279,302.792,78.0779 C303.723,78.0479,305.242,77.8779,306.332,77.6779 C306.522,77.6479,306.552,77.6479,306.682,77.6279 C306.682,77.6279,306.642,76.9279,306.642,76.9279 C305.883,77.1979,304.462,77.4079,302.832,77.4879 C302.902,76.7079,302.952,76.3679,303.042,76.0879 C303.042,76.0879,302.262,76.0379,302.262,76.0379 C302.272,76.1079,302.272,76.1679,302.272,76.1879 C302.272,76.2579,302.253,76.6479,302.242,76.7579 C302.202,77.2679,302.202,77.2679,302.193,77.5079 C302.012,77.5179,301.973,77.5179,301.943,77.5179 C301.022,77.5179,300.492,77.4779,300.073,77.3579 C300.073,77.3579,300.062,78.0479,300.062,78.0479 z M302.092,80.2379 C302.092,81.4479,302.152,82.1779,302.292,82.9479 C301.842,83.3079,301.512,83.4579,301.142,83.4579 C300.712,83.4579,300.422,83.0979,300.422,82.5479 C300.422,82.0479,300.642,81.5179,301.033,81.0579 C301.312,80.7379,301.603,80.5079,302.092,80.2379 z M302.832,82.5279 C302.832,82.4779,302.832,82.4279,302.832,82.4179 C302.832,82.3579,302.832,82.3379,302.823,82.2779 C302.732,81.4479,302.723,81.2779,302.712,79.9879 C303.172,79.8379,303.642,79.7579,304.103,79.7579 C304.212,79.7579,304.262,79.7579,304.582,79.7779 C304.122,80.8279,303.702,81.5279,303.052,82.2779 C302.973,82.3579,302.962,82.3779,302.862,82.5379 C302.862,82.5379,302.832,82.5279,302.832,82.5279 z M309.792,78.5879 C309.883,78.5779,309.943,78.5779,309.962,78.5779 C309.962,78.5779,309.982,78.5779,310.003,78.5779 C310.392,78.5979,310.482,78.5979,310.832,78.5979 C311.202,78.5979,311.323,78.5979,311.522,78.5879 C311.152,80.5479,310.383,82.8279,309.642,84.1179 C309.642,84.1179,310.372,84.4279,310.372,84.4279 C310.902,83.2079,311.193,82.4479,311.522,81.3779 C311.792,80.4679,312.073,79.3379,312.223,78.5479 C312.712,78.5079,313.402,78.4179,313.913,78.3079 C314.112,78.2679,314.112,78.2679,314.193,78.2579 C314.193,78.2579,314.142,77.5679,314.142,77.5679 C313.663,77.7279,313.122,77.8279,312.342,77.9079 C312.392,77.6079,312.422,77.4679,312.473,77.1479 C312.592,76.4379,312.592,76.4379,312.652,76.1979 C312.652,76.1979,311.862,76.1179,311.862,76.1179 C311.862,76.5579,311.842,76.7279,311.642,77.9579 C311.353,77.9779,311.242,77.9779,311.042,77.9779 C310.512,77.9779,310.112,77.9479,309.792,77.8879 C309.792,77.8879,309.792,78.5879,309.792,78.5879 z M317.342,79.0779 C316.592,79.0479,316.443,79.0479,316.253,79.0479 C315.413,79.0479,314.762,79.1279,313.603,79.3779 C313.603,79.3779,313.672,80.0579,313.672,80.0579 C314.582,79.8079,315.283,79.7179,316.172,79.7179 C316.592,79.7179,316.872,79.7379,317.353,79.7879 C317.353,79.7879,317.342,79.0779,317.342,79.0779 z M313.702,81.2379 C313.172,81.9179,313.033,82.2279,313.033,82.6779 C313.033,83.6679,313.883,84.1779,315.522,84.1779 C316.052,84.1779,316.633,84.1279,317.302,84.0079 C317.633,83.9579,317.633,83.9579,317.742,83.9379 C317.742,83.9379,317.672,83.1879,317.672,83.1879 C317.103,83.3879,316.212,83.5279,315.462,83.5279 C314.323,83.5279,313.712,83.2079,313.712,82.6079 C313.712,82.3679,313.802,82.1079,313.962,81.8979 C314.033,81.7879,314.062,81.7579,314.262,81.5179 C314.262,81.5179,313.702,81.2379,313.702,81.2379 z M327.432,83.3679 C327.302,83.2879,327.253,83.2579,327.092,83.1379 C326.042,82.3779,325.172,81.9179,324.302,81.6779 C324.262,80.7079,324.262,80.7079,324.242,80.1479 C324.982,80.0979,325.772,80.0179,326.462,79.9079 C326.812,79.8579,326.913,79.8479,327.043,79.8379 C327.043,79.8379,327.003,79.1479,327.003,79.1479 C326.452,79.3379,325.592,79.4579,324.232,79.5579 C324.223,79.0279,324.223,79.0279,324.212,78.2079 C325.322,78.1379,325.592,78.1079,326.533,77.9679 C327.052,77.8979,327.052,77.8979,327.223,77.8879 C327.223,77.8879,327.172,77.2079,327.172,77.2079 C326.622,77.3879,325.592,77.5279,324.212,77.6179 C324.223,76.8979,324.242,76.4179,324.283,76.2079 C324.283,76.2079,323.512,76.2079,323.512,76.2079 C323.552,76.4279,323.552,76.4279,323.562,77.6479 C323.232,77.6479,322.892,77.6579,322.693,77.6579 C321.603,77.6579,320.562,77.5779,320.133,77.4579 C320.133,77.4579,320.122,78.1379,320.122,78.1379 C320.182,78.1279,320.232,78.1279,320.262,78.1279 C320.312,78.1279,320.372,78.1279,320.443,78.1379 C321.342,78.2079,322.152,78.2379,322.883,78.2379 C323.112,78.2379,323.272,78.2379,323.562,78.2279 C323.562,78.2279,323.582,79.5979,323.582,79.5979 C323.302,79.6079,322.952,79.6079,322.693,79.6079 C321.682,79.6079,320.853,79.5479,320.402,79.4479 C320.402,79.4479,320.392,80.1079,320.392,80.1079 C320.422,80.1079,320.462,80.1079,320.473,80.1079 C320.533,80.1079,320.612,80.1079,320.723,80.1179 C321.342,80.1679,321.812,80.1879,322.413,80.1879 C322.732,80.1879,323.232,80.1779,323.592,80.1679 C323.603,80.4279,323.603,80.6179,323.612,80.7479 C323.622,81.0379,323.622,81.2479,323.633,81.3379 C323.633,81.3979,323.642,81.4379,323.642,81.4479 C323.642,81.5379,323.642,81.5379,323.652,81.5679 C323.223,81.4979,323.082,81.4879,322.753,81.4879 C322.312,81.4879,322.012,81.5179,321.712,81.5879 C320.832,81.7879,320.312,82.3079,320.312,82.9679 C320.312,83.3779,320.512,83.7679,320.853,84.0179 C321.193,84.2779,321.742,84.4179,322.402,84.4179 C323.193,84.4179,323.802,84.1979,324.092,83.7879 C324.272,83.5479,324.342,83.2279,324.342,82.6979 C324.342,82.5679,324.342,82.5679,324.323,82.3379 C324.592,82.4479,324.822,82.5479,324.992,82.6379 C325.842,83.0779,326.572,83.5879,327.033,84.0679 C327.033,84.0679,327.432,83.3679,327.432,83.3679 z M323.663,82.5579 C323.663,83.0379,323.603,83.3179,323.462,83.4579 C323.272,83.6779,322.892,83.7879,322.362,83.7879 C321.492,83.7879,320.992,83.4879,320.992,82.9579 C320.992,82.4279,321.642,82.0679,322.633,82.0679 C323.072,82.0679,323.272,82.0879,323.652,82.1779 C323.652,82.1779,323.663,82.5579,323.663,82.5579 z M309.342,95.5679 C309.473,95.5179,309.603,95.4779,309.732,95.4479 C310.872,95.1779,312.003,94.8479,313.193,94.4479 C313.193,94.4479,313.182,93.8779,313.182,93.8779 C312.622,94.0679,312.443,94.1179,312.003,94.2479 C312.253,93.7579,312.473,93.1979,312.753,92.2879 C312.753,92.2879,312.122,92.1079,312.122,92.1079 C312.022,92.7279,311.762,93.4979,311.353,94.4379 C310.362,94.6979,309.652,94.8379,309.163,94.8679 C309.163,94.8679,309.342,95.5679,309.342,95.5679 z M315.322,87.8879 C315.242,88.2079,315.112,88.5579,314.932,88.9779 C314.932,88.9779,314.482,88.9779,314.482,88.9779 C314.073,88.9779,313.853,88.9679,313.603,88.9479 C313.633,89.2179,313.642,89.4879,313.642,89.8779 C313.642,89.8779,313.642,93.0479,313.642,93.0479 C313.642,93.3579,313.633,93.6779,313.612,93.9779 C313.952,93.9579,314.182,93.9479,314.473,93.9479 C314.473,93.9479,316.802,93.9479,316.802,93.9479 C317.103,93.9479,317.392,93.9579,317.663,93.9779 C317.642,93.6779,317.633,93.4079,317.633,93.0379 C317.633,93.0379,317.633,89.8379,317.633,89.8379 C317.633,89.4479,317.642,89.1979,317.663,88.9379 C317.452,88.9679,317.212,88.9779,316.753,88.9779 C316.753,88.9779,315.543,88.9779,315.543,88.9779 C315.682,88.6779,315.842,88.2679,315.962,87.8879 C315.962,87.8879,317.112,87.8879,317.112,87.8879 C317.562,87.8879,317.783,87.8979,318.082,87.9479 C318.082,87.9479,318.082,87.2679,318.082,87.2679 C317.832,87.3079,317.562,87.3279,317.072,87.3279 C317.072,87.3279,314.492,87.3279,314.492,87.3279 C313.992,87.3279,313.732,87.3079,313.462,87.2679 C313.462,87.2679,313.462,87.9479,313.462,87.9479 C313.742,87.8979,313.992,87.8879,314.443,87.8879 C314.443,87.8879,315.322,87.8879,315.322,87.8879 z M314.232,89.5079 C314.232,89.5079,317.043,89.5079,317.043,89.5079 C317.043,89.5079,317.043,90.4479,317.043,90.4479 C317.043,90.4479,314.232,90.4479,314.232,90.4479 C314.232,90.4479,314.232,89.5079,314.232,89.5079 z M314.232,90.9579 C314.232,90.9579,317.043,90.9579,317.043,90.9579 C317.043,90.9579,317.043,91.8979,317.043,91.8979 C317.043,91.8979,314.232,91.8979,314.232,91.8979 C314.232,91.8979,314.232,90.9579,314.232,90.9579 z M314.232,92.4079 C314.232,92.4079,317.043,92.4079,317.043,92.4079 C317.043,92.4079,317.043,93.4079,317.043,93.4079 C317.043,93.4079,314.232,93.4079,314.232,93.4079 C314.232,93.4079,314.232,92.4079,314.232,92.4079 z M309.283,87.9379 C309.582,87.8879,309.783,87.8779,310.283,87.8779 C310.283,87.8779,312.082,87.8779,312.082,87.8779 C312.503,87.8779,312.753,87.8879,313.062,87.9179 C313.062,87.9179,313.062,87.2479,313.062,87.2479 C312.783,87.2979,312.542,87.3079,312.062,87.3079 C312.062,87.3079,310.302,87.3079,310.302,87.3079 C309.812,87.3079,309.562,87.2979,309.283,87.2479 C309.283,87.2479,309.283,87.9379,309.283,87.9379 z M309.712,90.8579 C309.712,91.2579,309.702,91.4679,309.672,91.7979 C309.943,91.7679,310.212,91.7579,310.582,91.7579 C310.582,91.7579,311.962,91.7579,311.962,91.7579 C312.302,91.7579,312.582,91.7679,312.842,91.7979 C312.812,91.5479,312.802,91.3579,312.802,90.9079 C312.802,90.9079,312.802,89.7379,312.802,89.7379 C312.802,89.3279,312.812,89.1679,312.842,88.8579 C312.552,88.8979,312.392,88.9079,311.932,88.9079 C311.932,88.9079,310.592,88.9079,310.592,88.9079 C310.152,88.9079,309.943,88.8979,309.672,88.8579 C309.702,89.1379,309.712,89.3679,309.712,89.7579 C309.712,89.7579,309.712,90.8579,309.712,90.8579 z M310.312,89.4379 C310.312,89.4379,312.202,89.4379,312.202,89.4379 C312.202,89.4379,312.202,91.2279,312.202,91.2279 C312.202,91.2279,310.312,91.2279,310.312,91.2279 C310.312,91.2279,310.312,89.4379,310.312,89.4379 z M311.033,94.0279 C310.792,93.2079,310.642,92.8179,310.323,92.1479 C310.323,92.1479,309.762,92.3479,309.762,92.3479 C310.092,93.0479,310.253,93.4879,310.443,94.2479 C310.443,94.2479,311.033,94.0279,311.033,94.0279 z M315.962,94.4679 C316.582,95.1179,317.062,95.4979,317.973,96.0479 C318.163,95.7979,318.292,95.6579,318.452,95.5179 C317.533,95.0579,317.092,94.7479,316.462,94.1079 C316.462,94.1079,315.962,94.4679,315.962,94.4679 z M314.562,94.1279 C314.232,94.4679,314.052,94.6179,313.693,94.8679 C313.283,95.1379,313.033,95.2679,312.482,95.4879 C312.732,95.6979,312.812,95.7779,312.973,95.9879 C313.872,95.5379,314.332,95.2179,315.082,94.4979 C315.082,94.4979,314.562,94.1279,314.562,94.1279 z M303.204,98.9707 C303.204,98.9707,304.083,98.9707,304.083,98.9707 C304.083,98.9707,304.083,101.646,304.083,101.646 C304.291,101.383,304.478,101.197,304.644,101.09 C304.928,100.904,305.281,100.811,305.704,100.811 C306.462,100.811,306.977,101.077,307.247,101.607 C307.393,101.897,307.467,102.299,307.467,102.813 C307.467,102.813,307.467,106.168,307.467,106.168 C307.467,106.168,306.563,106.168,306.563,106.168 C306.563,106.168,306.563,102.872,306.563,102.872 C306.563,102.488,306.515,102.206,306.417,102.027 C306.257,101.741,305.958,101.598,305.518,101.598 C305.154,101.598,304.823,101.723,304.527,101.974 C304.231,102.224,304.083,102.698,304.083,103.394 C304.083,103.394,304.083,106.168,304.083,106.168 C304.083,106.168,303.204,106.168,303.204,106.168 C303.204,106.168,303.204,98.9707,303.204,98.9707 z M310.943,100.821 C311.314,100.821,311.674,100.908,312.022,101.082 C312.371,101.257,312.636,101.482,312.818,101.759 C312.994,102.022,313.111,102.33,313.17,102.682 C313.222,102.922,313.248,103.307,313.248,103.834 C313.248,103.834,309.415,103.834,309.415,103.834 C309.431,104.365,309.557,104.79,309.791,105.111 C310.025,105.431,310.388,105.592,310.88,105.592 C311.339,105.592,311.705,105.44,311.978,105.138 C312.135,104.962,312.245,104.758,312.31,104.527 C312.31,104.527,313.175,104.527,313.175,104.527 C313.152,104.719,313.076,104.933,312.948,105.169 C312.819,105.405,312.675,105.598,312.516,105.748 C312.249,106.008,311.918,106.184,311.524,106.275 C311.313,106.327,311.073,106.353,310.807,106.353 C310.155,106.353,309.604,106.117,309.151,105.643 C308.699,105.169,308.473,104.506,308.473,103.653 C308.473,102.813,308.7,102.131,309.156,101.607 C309.612,101.083,310.208,100.821,310.943,100.821 z M312.345,103.136 C312.309,102.755,312.226,102.45,312.096,102.223 C311.855,101.799,311.453,101.588,310.89,101.588 C310.486,101.588,310.147,101.734,309.874,102.025 C309.6,102.316,309.456,102.686,309.439,103.136 C309.439,103.136,312.345,103.136,312.345,103.136 z M310.86,100.811 M315.001,104.776 C315.001,105.03,315.094,105.23,315.279,105.377 C315.465,105.523,315.684,105.597,315.938,105.597 C316.248,105.597,316.547,105.525,316.837,105.382 C317.325,105.144,317.569,104.755,317.569,104.215 C317.569,104.215,317.569,103.507,317.569,103.507 C317.462,103.575,317.323,103.632,317.154,103.678 C316.985,103.723,316.819,103.756,316.656,103.775 C316.656,103.775,316.124,103.844,316.124,103.844 C315.805,103.886,315.566,103.953,315.406,104.044 C315.136,104.197,315.001,104.441,315.001,104.776 z M317.13,102.999 C317.332,102.973,317.467,102.888,317.535,102.745 C317.574,102.667,317.594,102.555,317.594,102.408 C317.594,102.109,317.487,101.891,317.274,101.756 C317.061,101.621,316.755,101.554,316.358,101.554 C315.899,101.554,315.574,101.677,315.382,101.925 C315.274,102.061,315.204,102.265,315.172,102.535 C315.172,102.535,314.351,102.535,314.351,102.535 C314.368,101.891,314.577,101.442,314.979,101.19 C315.381,100.938,315.847,100.811,316.378,100.811 C316.993,100.811,317.493,100.929,317.877,101.163 C318.258,101.397,318.448,101.762,318.448,102.257 C318.448,102.257,318.448,105.269,318.448,105.269 C318.448,105.361,318.467,105.434,318.504,105.489 C318.542,105.545,318.621,105.572,318.741,105.572 C318.78,105.572,318.824,105.57,318.873,105.565 C318.922,105.56,318.974,105.553,319.029,105.543 C319.029,105.543,319.029,106.192,319.029,106.192 C318.892,106.231,318.788,106.256,318.717,106.266 C318.645,106.275,318.547,106.28,318.424,106.28 C318.121,106.28,317.901,106.173,317.765,105.958 C317.693,105.844,317.642,105.683,317.613,105.475 C317.434,105.709,317.177,105.912,316.842,106.085 C316.506,106.257,316.137,106.344,315.733,106.344 C315.248,106.344,314.852,106.196,314.544,105.902 C314.237,105.607,314.083,105.239,314.083,104.796 C314.083,104.311,314.234,103.935,314.537,103.668 C314.84,103.401,315.237,103.237,315.728,103.175 C315.728,103.175,317.13,102.999,317.13,102.999 z M316.402,100.811 M320.445,103.614 C320.445,104.174,320.564,104.643,320.802,105.02 C321.039,105.398,321.42,105.587,321.944,105.587 C322.351,105.587,322.686,105.412,322.948,105.062 C323.21,104.712,323.341,104.21,323.341,103.556 C323.341,102.895,323.206,102.406,322.935,102.088 C322.665,101.771,322.332,101.612,321.934,101.612 C321.492,101.612,321.133,101.782,320.858,102.12 C320.583,102.459,320.445,102.957,320.445,103.614 z M321.768,100.846 C322.169,100.846,322.504,100.93,322.774,101.1 C322.931,101.197,323.108,101.368,323.307,101.612 C323.307,101.612,323.307,98.9707,323.307,98.9707 C323.307,98.9707,324.151,98.9707,324.151,98.9707 C324.151,98.9707,324.151,106.168,324.151,106.168 C324.151,106.168,323.36,106.168,323.36,106.168 C323.36,106.168,323.36,105.44,323.36,105.44 C323.155,105.763,322.913,105.995,322.633,106.139 C322.353,106.282,322.032,106.353,321.671,106.353 C321.088,106.353,320.584,106.109,320.157,105.619 C319.731,105.129,319.517,104.477,319.517,103.663 C319.517,102.901,319.712,102.241,320.101,101.683 C320.49,101.125,321.046,100.846,321.768,100.846 z"/>
      </g>
    </g>
    <g id="am27">
      <g id="am29">
        <path style="fill:#000000;fill-opacity:1;fill-rule:nonzero;opacity:1;stroke:none;" d="M302.302,121.681 C302.532,121.651,302.632,121.641,303.032,121.631 C303.982,121.601,304.132,121.591,304.922,121.531 C304.572,122.691,304.452,123.071,304.122,124.051 C303.332,124.061,302.842,124.171,302.322,124.481 C301.562,124.911,301.132,125.641,301.132,126.461 C301.132,127.391,301.702,128.101,302.452,128.101 C302.932,128.101,303.302,127.801,303.662,127.111 C303.912,126.631,304.282,125.671,304.602,124.701 C305.622,124.811,306.462,125.061,307.362,125.531 C307.222,126.121,306.902,126.701,306.442,127.211 C305.992,127.711,305.582,128.011,304.822,128.361 C305.052,128.531,305.122,128.611,305.352,128.881 C305.962,128.571,306.482,128.171,306.942,127.661 C307.432,127.111,307.742,126.571,307.972,125.851 C308.712,126.261,309.222,126.591,309.532,126.841 C309.532,126.841,309.802,126.071,309.802,126.071 C309.662,126.011,309.592,125.971,309.512,125.921 C309.022,125.631,308.682,125.451,308.142,125.171 C308.252,124.561,308.292,124.021,308.322,123.001 C308.332,122.631,308.332,122.561,308.362,122.381 C308.362,122.381,307.612,122.371,307.612,122.371 C307.642,122.551,307.652,122.641,307.652,122.861 C307.652,123.901,307.622,124.331,307.532,124.891 C306.502,124.411,305.762,124.201,304.802,124.101 C304.982,123.571,305.052,123.381,305.272,122.701 C305.672,121.491,305.692,121.431,305.822,121.251 C305.822,121.251,305.292,120.831,305.292,120.831 C305.182,120.901,305.102,120.931,304.922,120.951 C304.592,120.991,303.792,121.021,303.242,121.021 C302.752,121.021,302.532,121.011,302.272,120.961 C302.272,120.961,302.302,121.681,302.302,121.681 z M303.922,124.651 C303.192,126.781,302.852,127.401,302.442,127.401 C302.082,127.401,301.792,126.981,301.792,126.451 C301.792,126.021,301.972,125.611,302.272,125.301 C302.672,124.901,303.172,124.711,303.922,124.651 z M312.302,121.681 C312.532,121.651,312.632,121.641,313.032,121.631 C313.982,121.601,314.132,121.591,314.922,121.531 C314.572,122.691,314.452,123.071,314.122,124.051 C313.332,124.061,312.842,124.171,312.322,124.481 C311.562,124.911,311.132,125.641,311.132,126.461 C311.132,127.391,311.702,128.101,312.452,128.101 C312.932,128.101,313.302,127.801,313.662,127.111 C313.912,126.631,314.282,125.671,314.602,124.701 C315.622,124.811,316.462,125.061,317.362,125.531 C317.222,126.121,316.902,126.701,316.442,127.211 C315.992,127.711,315.582,128.011,314.822,128.361 C315.052,128.531,315.122,128.611,315.352,128.881 C315.962,128.571,316.482,128.171,316.942,127.661 C317.432,127.111,317.742,126.571,317.972,125.851 C318.712,126.261,319.222,126.591,319.532,126.841 C319.532,126.841,319.802,126.071,319.802,126.071 C319.662,126.011,319.592,125.971,319.512,125.921 C319.022,125.631,318.682,125.451,318.142,125.171 C318.252,124.561,318.292,124.021,318.322,123.001 C318.332,122.631,318.332,122.561,318.362,122.381 C318.362,122.381,317.612,122.371,317.612,122.371 C317.642,122.551,317.652,122.641,317.652,122.861 C317.652,123.901,317.622,124.331,317.532,124.891 C316.502,124.411,315.762,124.201,314.802,124.101 C314.982,123.571,315.052,123.381,315.272,122.701 C315.672,121.491,315.692,121.431,315.822,121.251 C315.822,121.251,315.292,120.831,315.292,120.831 C315.182,120.901,315.102,120.931,314.922,120.951 C314.592,120.991,313.792,121.021,313.242,121.021 C312.752,121.021,312.532,121.011,312.272,120.961 C312.272,120.961,312.302,121.681,312.302,121.681 z M313.922,124.651 C313.192,126.781,312.852,127.401,312.442,127.401 C312.082,127.401,311.792,126.981,311.792,126.451 C311.792,126.021,311.972,125.611,312.272,125.301 C312.672,124.901,313.172,124.711,313.922,124.651 z M307.632,132.281 C307.632,132.281,307.632,138.001,307.632,138.001 C306.902,138.061,306.472,138.081,306.182,138.081 C305.992,138.081,305.862,138.071,305.732,138.051 C305.732,138.051,305.842,138.821,305.842,138.821 C306.162,138.751,306.472,138.721,307.262,138.671 C308.372,138.591,310.232,138.401,312.302,138.161 C312.302,138.161,312.302,139.191,312.302,139.191 C312.302,139.591,312.282,139.861,312.242,140.121 C312.242,140.121,313.012,140.121,313.012,140.121 C312.962,139.851,312.942,139.601,312.942,139.181 C312.942,139.181,312.942,138.081,312.942,138.081 C314.162,137.921,314.162,137.921,314.682,137.851 C314.682,137.851,314.682,137.221,314.682,137.221 C313.862,137.361,313.542,137.411,312.942,137.481 C312.942,137.481,312.942,132.281,312.942,132.281 C312.942,132.281,313.622,132.281,313.622,132.281 C314.012,132.281,314.302,132.291,314.652,132.331 C314.652,132.331,314.652,131.631,314.652,131.631 C314.322,131.671,314.012,131.691,313.582,131.691 C313.582,131.691,307.072,131.691,307.072,131.691 C306.622,131.691,306.322,131.671,306.012,131.631 C306.012,131.631,306.012,132.331,306.012,132.331 C306.342,132.291,306.642,132.281,307.042,132.281 C307.042,132.281,307.632,132.281,307.632,132.281 z M308.272,132.281 C308.272,132.281,312.302,132.281,312.302,132.281 C312.302,132.281,312.302,133.701,312.302,133.701 C312.302,133.701,308.272,133.701,308.272,133.701 C308.272,133.701,308.272,132.281,308.272,132.281 z M308.272,134.271 C308.272,134.271,312.302,134.271,312.302,134.271 C312.302,134.271,312.302,135.681,312.302,135.681 C312.302,135.681,308.272,135.681,308.272,135.681 C308.272,135.681,308.272,134.271,308.272,134.271 z M308.272,136.251 C308.272,136.251,312.302,136.251,312.302,136.251 C312.302,136.251,312.302,137.561,312.302,137.561 C310.582,137.771,309.472,137.881,308.272,137.961 C308.272,137.961,308.272,136.251,308.272,136.251 z M305.898,145.094 C306.269,145.094,306.629,145.181,306.977,145.356 C307.326,145.53,307.591,145.755,307.773,146.032 C307.949,146.296,308.066,146.603,308.125,146.955 C308.177,147.196,308.203,147.58,308.203,148.107 C308.203,148.107,304.37,148.107,304.37,148.107 C304.386,148.638,304.511,149.063,304.746,149.384 C304.98,149.705,305.343,149.865,305.835,149.865 C306.294,149.865,306.66,149.714,306.933,149.411 C307.09,149.235,307.2,149.032,307.265,148.8 C307.265,148.8,308.13,148.8,308.13,148.8 C308.107,148.992,308.031,149.207,307.903,149.443 C307.774,149.679,307.63,149.871,307.47,150.021 C307.203,150.282,306.873,150.457,306.479,150.548 C306.268,150.601,306.028,150.627,305.761,150.627 C305.11,150.627,304.559,150.39,304.106,149.916 C303.654,149.443,303.427,148.779,303.427,147.926 C303.427,147.087,303.655,146.405,304.111,145.881 C304.567,145.356,305.162,145.094,305.898,145.094 z M307.3,147.409 C307.264,147.028,307.181,146.724,307.051,146.496 C306.81,146.073,306.408,145.861,305.844,145.861 C305.441,145.861,305.102,146.007,304.829,146.298 C304.555,146.589,304.411,146.96,304.394,147.409 C304.394,147.409,307.3,147.409,307.3,147.409 z M305.815,145.085 M309.956,149.049 C309.956,149.303,310.049,149.504,310.234,149.65 C310.42,149.797,310.639,149.87,310.893,149.87 C311.203,149.87,311.502,149.798,311.792,149.655 C312.28,149.417,312.524,149.028,312.524,148.488 C312.524,148.488,312.524,147.78,312.524,147.78 C312.417,147.848,312.278,147.905,312.109,147.951 C311.94,147.996,311.774,148.029,311.611,148.048 C311.611,148.048,311.079,148.117,311.079,148.117 C310.76,148.159,310.521,148.226,310.361,148.317 C310.091,148.47,309.956,148.714,309.956,149.049 z M312.085,147.272 C312.286,147.246,312.422,147.161,312.49,147.018 C312.529,146.94,312.549,146.828,312.549,146.681 C312.549,146.382,312.442,146.165,312.229,146.029 C312.016,145.894,311.71,145.827,311.313,145.827 C310.854,145.827,310.529,145.951,310.337,146.198 C310.229,146.335,310.159,146.538,310.127,146.808 C310.127,146.808,309.306,146.808,309.306,146.808 C309.323,146.164,309.532,145.715,309.934,145.463 C310.336,145.211,310.802,145.085,311.333,145.085 C311.948,145.085,312.448,145.202,312.832,145.436 C313.213,145.671,313.403,146.035,313.403,146.53 C313.403,146.53,313.403,149.543,313.403,149.543 C313.403,149.634,313.422,149.707,313.459,149.762 C313.497,149.818,313.576,149.845,313.696,149.845 C313.735,149.845,313.779,149.843,313.828,149.838 C313.877,149.833,313.929,149.826,313.984,149.816 C313.984,149.816,313.984,150.465,313.984,150.465 C313.847,150.505,313.743,150.529,313.672,150.539 C313.6,150.548,313.502,150.553,313.379,150.553 C313.076,150.553,312.856,150.446,312.719,150.231 C312.648,150.117,312.597,149.956,312.568,149.748 C312.389,149.982,312.132,150.186,311.797,150.358 C311.461,150.531,311.092,150.617,310.688,150.617 C310.203,150.617,309.807,150.47,309.499,150.175 C309.192,149.88,309.038,149.512,309.038,149.069 C309.038,148.584,309.189,148.208,309.492,147.941 C309.795,147.674,310.192,147.51,310.683,147.448 C310.683,147.448,312.085,147.272,312.085,147.272 z M311.357,145.085 M314.868,145.212 C314.868,145.212,315.703,145.212,315.703,145.212 C315.703,145.212,315.703,146.115,315.703,146.115 C315.771,145.939,315.939,145.725,316.206,145.473 C316.473,145.221,316.78,145.094,317.129,145.094 C317.145,145.094,317.173,145.096,317.212,145.099 C317.251,145.103,317.317,145.109,317.412,145.119 C317.412,145.119,317.412,146.047,317.412,146.047 C317.36,146.037,317.312,146.03,317.268,146.027 C317.224,146.024,317.176,146.022,317.124,146.022 C316.681,146.022,316.341,146.165,316.103,146.449 C315.866,146.734,315.747,147.062,315.747,147.433 C315.747,147.433,315.747,150.441,315.747,150.441 C315.747,150.441,314.868,150.441,314.868,150.441 C314.868,150.441,314.868,145.212,314.868,145.212 z"/>
      </g>
    </g>
    <g id="am30">
      <g id="am32">
        <path style="fill:#000000;fill-opacity:1;fill-rule:nonzero;opacity:1;stroke:none;" d="M298.286,167.047 C297.936,167.597,296.686,168.767,295.356,169.787 C294.626,170.347,294.626,170.347,294.506,170.467 C294.316,170.667,294.216,170.897,294.216,171.137 C294.216,171.477,294.376,171.697,294.936,172.137 C296.396,173.277,296.796,173.607,297.466,174.227 C298.126,174.837,298.516,175.257,298.756,175.597 C298.756,175.597,299.386,174.977,299.386,174.977 C299.276,174.887,299.256,174.877,299.106,174.727 C297.636,173.337,297.356,173.107,295.906,171.997 C295.096,171.367,295.016,171.297,295.016,171.117 C295.016,170.977,295.086,170.897,295.456,170.617 C296.716,169.647,297.256,169.197,297.756,168.727 C298.796,167.727,298.876,167.657,298.986,167.567 C298.986,167.567,298.286,167.047,298.286,167.047 z M303.286,169.327 C303.316,169.327,303.346,169.327,303.366,169.327 C303.426,169.327,303.516,169.327,303.646,169.337 C304.226,169.377,304.666,169.397,305.306,169.407 C304.966,170.587,304.396,171.987,303.966,172.667 C303.966,172.667,304.686,172.957,304.686,172.957 C304.886,172.697,305.116,172.517,305.526,172.317 C306.206,171.977,307.076,171.777,307.846,171.777 C309.046,171.777,309.766,172.237,309.766,172.997 C309.766,173.957,308.726,174.587,307.146,174.587 C306.236,174.587,305.426,174.427,304.646,174.087 C304.676,174.407,304.696,174.587,304.696,174.637 C304.696,174.647,304.696,174.657,304.696,174.697 C304.696,174.727,304.696,174.787,304.686,174.857 C305.486,175.127,306.266,175.247,307.156,175.247 C309.176,175.247,310.506,174.357,310.506,172.997 C310.506,171.877,309.496,171.157,307.916,171.157 C306.826,171.157,305.706,171.477,305.006,171.997 C305.006,171.997,304.996,171.977,304.996,171.977 C305.276,171.517,305.716,170.377,305.996,169.407 C307.506,169.357,308.306,169.297,309.706,169.117 C309.916,169.087,309.976,169.087,310.146,169.067 C310.146,169.067,310.096,168.347,310.096,168.347 C309.446,168.567,308.116,168.707,306.156,168.777 C306.256,168.417,306.286,168.297,306.426,167.717 C306.536,167.227,306.536,167.227,306.586,167.077 C306.586,167.077,305.786,166.997,305.786,166.997 C305.776,167.447,305.676,168.007,305.466,168.787 C304.416,168.787,303.776,168.737,303.306,168.617 C303.306,168.617,303.286,169.327,303.286,169.327 z M299.136,186.437 C299.136,186.437,299.136,185.637,299.136,185.637 C299.136,185.637,305.086,185.637,305.086,185.637 C305.086,185.637,305.086,186.437,305.086,186.437 C305.086,186.437,305.836,186.437,305.836,186.437 C305.786,186.087,305.766,185.727,305.766,185.287 C305.766,185.287,305.766,179.747,305.766,179.747 C305.766,179.287,305.776,178.997,305.816,178.687 C305.466,178.727,305.206,178.737,304.736,178.737 C304.736,178.737,299.476,178.737,299.476,178.737 C299.006,178.737,298.756,178.727,298.406,178.687 C298.446,179.027,298.456,179.297,298.456,179.747 C298.456,179.747,298.456,185.287,298.456,185.287 C298.456,185.737,298.436,186.067,298.386,186.437 C298.386,186.437,299.136,186.437,299.136,186.437 z M299.136,179.357 C299.136,179.357,305.086,179.357,305.086,179.357 C305.086,179.357,305.086,185.017,305.086,185.017 C305.086,185.017,299.136,185.017,299.136,185.017 C299.136,185.017,299.136,179.357,299.136,179.357 z M288.844,191.878 C288.844,191.878,289.713,191.878,289.713,191.878 C289.713,191.878,289.713,192.62,289.713,192.62 C289.921,192.363,290.11,192.176,290.279,192.059 C290.569,191.86,290.898,191.761,291.266,191.761 C291.682,191.761,292.017,191.863,292.271,192.068 C292.415,192.186,292.545,192.358,292.662,192.586 C292.857,192.306,293.087,192.099,293.35,191.963 C293.614,191.828,293.91,191.761,294.239,191.761 C294.942,191.761,295.421,192.015,295.675,192.523 C295.811,192.796,295.88,193.164,295.88,193.626 C295.88,193.626,295.88,197.107,295.88,197.107 C295.88,197.107,294.967,197.107,294.967,197.107 C294.967,197.107,294.967,193.475,294.967,193.475 C294.967,193.126,294.88,192.887,294.705,192.757 C294.531,192.627,294.319,192.562,294.068,192.562 C293.723,192.562,293.426,192.677,293.177,192.908 C292.928,193.139,292.804,193.525,292.804,194.065 C292.804,194.065,292.804,197.107,292.804,197.107 C292.804,197.107,291.91,197.107,291.91,197.107 C291.91,197.107,291.91,193.694,291.91,193.694 C291.91,193.34,291.868,193.081,291.783,192.918 C291.65,192.674,291.401,192.552,291.036,192.552 C290.704,192.552,290.402,192.68,290.13,192.938 C289.858,193.195,289.723,193.66,289.723,194.334 C289.723,194.334,289.723,197.107,289.723,197.107 C289.723,197.107,288.844,197.107,288.844,197.107 C288.844,197.107,288.844,191.878,288.844,191.878 z M299.249,196.541 C299.832,196.541,300.231,196.321,300.448,195.879 C300.664,195.438,300.772,194.948,300.772,194.407 C300.772,193.919,300.694,193.522,300.538,193.216 C300.291,192.734,299.864,192.493,299.259,192.493 C298.722,192.493,298.331,192.698,298.087,193.108 C297.843,193.519,297.721,194.013,297.721,194.593 C297.721,195.149,297.843,195.613,298.087,195.984 C298.331,196.356,298.718,196.541,299.249,196.541 z M299.283,191.727 C299.957,191.727,300.527,191.951,300.992,192.4 C301.458,192.85,301.69,193.51,301.69,194.383 C301.69,195.226,301.485,195.923,301.075,196.473 C300.665,197.023,300.029,197.298,299.166,197.298 C298.447,197.298,297.875,197.055,297.452,196.568 C297.029,196.081,296.817,195.428,296.817,194.607 C296.817,193.729,297.04,193.029,297.486,192.508 C297.932,191.987,298.531,191.727,299.283,191.727 z M299.254,191.751 M303.614,191.878 C303.614,191.878,303.614,195.35,303.614,195.35 C303.614,195.617,303.656,195.835,303.741,196.004 C303.897,196.316,304.189,196.473,304.615,196.473 C305.227,196.473,305.644,196.199,305.865,195.652 C305.986,195.359,306.046,194.957,306.046,194.446 C306.046,194.446,306.046,191.878,306.046,191.878 C306.046,191.878,306.925,191.878,306.925,191.878 C306.925,191.878,306.925,197.107,306.925,197.107 C306.925,197.107,306.095,197.107,306.095,197.107 C306.095,197.107,306.104,196.336,306.104,196.336 C305.99,196.535,305.849,196.702,305.68,196.839 C305.344,197.112,304.937,197.249,304.459,197.249 C303.713,197.249,303.206,197,302.935,196.502 C302.789,196.235,302.716,195.879,302.716,195.433 C302.716,195.433,302.716,191.878,302.716,191.878 C302.716,191.878,303.614,191.878,303.614,191.878 z M304.82,191.751 M308.473,190.418 C308.473,190.418,309.361,190.418,309.361,190.418 C309.361,190.418,309.361,191.878,309.361,191.878 C309.361,191.878,310.196,191.878,310.196,191.878 C310.196,191.878,310.196,192.596,310.196,192.596 C310.196,192.596,309.361,192.596,309.361,192.596 C309.361,192.596,309.361,196.009,309.361,196.009 C309.361,196.191,309.423,196.313,309.547,196.375 C309.615,196.411,309.729,196.429,309.889,196.429 C309.931,196.429,309.976,196.428,310.025,196.426 C310.074,196.425,310.131,196.421,310.196,196.414 C310.196,196.414,310.196,197.107,310.196,197.107 C310.095,197.137,309.99,197.158,309.881,197.171 C309.772,197.184,309.654,197.19,309.527,197.19 C309.117,197.19,308.839,197.086,308.692,196.876 C308.546,196.666,308.473,196.393,308.473,196.058 C308.473,196.058,308.473,192.596,308.473,192.596 C308.473,192.596,307.765,192.596,307.765,192.596 C307.765,192.596,307.765,191.878,307.765,191.878 C307.765,191.878,308.473,191.878,308.473,191.878 C308.473,191.878,308.473,190.418,308.473,190.418 z M311.075,189.91 C311.075,189.91,311.954,189.91,311.954,189.91 C311.954,189.91,311.954,192.586,311.954,192.586 C312.162,192.322,312.349,192.137,312.516,192.029 C312.799,191.844,313.152,191.751,313.575,191.751 C314.334,191.751,314.848,192.016,315.118,192.547 C315.265,192.837,315.338,193.239,315.338,193.753 C315.338,193.753,315.338,197.107,315.338,197.107 C315.338,197.107,314.434,197.107,314.434,197.107 C314.434,197.107,314.434,193.812,314.434,193.812 C314.434,193.427,314.386,193.146,314.288,192.967 C314.128,192.68,313.829,192.537,313.39,192.537 C313.025,192.537,312.695,192.662,312.398,192.913 C312.102,193.164,311.954,193.637,311.954,194.334 C311.954,194.334,311.954,197.107,311.954,197.107 C311.954,197.107,311.075,197.107,311.075,197.107 C311.075,197.107,311.075,189.91,311.075,189.91 z"/>
      </g>
    </g>
    <g id="am33">
      <g id="am35">
        <path style="fill:#000000;fill-opacity:1;fill-rule:nonzero;opacity:1;stroke:none;" d="M128.453,121.468 C128.513,121.628,128.523,121.668,128.583,121.998 C128.673,122.498,128.793,123.088,128.863,123.408 C128.403,123.748,128.123,124.038,127.863,124.428 C127.493,124.998,127.283,125.688,127.283,126.338 C127.283,127.518,127.853,128.298,128.723,128.298 C129.303,128.298,129.863,127.938,130.503,127.158 C131.283,126.218,131.993,124.788,132.443,123.238 C133.823,123.528,134.553,124.328,134.553,125.548 C134.553,126.068,134.403,126.548,134.113,126.968 C133.813,127.408,133.313,127.768,132.613,128.058 C132.083,128.278,131.693,128.378,131.123,128.428 C131.383,128.758,131.433,128.838,131.513,129.098 C131.943,128.998,131.993,128.988,132.143,128.948 C132.933,128.738,133.653,128.388,134.163,127.958 C134.843,127.398,135.253,126.488,135.253,125.558 C135.253,124.048,134.263,122.958,132.603,122.648 C132.653,122.458,132.673,122.348,132.723,122.178 C132.933,121.288,132.933,121.288,132.993,121.128 C132.993,121.128,132.243,120.968,132.243,120.968 C132.223,121.258,132.103,121.918,131.933,122.578 C131.793,122.568,131.673,122.568,131.603,122.568 C130.853,122.568,130.163,122.728,129.463,123.068 C129.333,122.488,129.203,121.648,129.193,121.328 C129.193,121.328,128.453,121.468,128.453,121.468 z M129.033,124.078 C129.253,124.998,129.573,125.928,129.973,126.768 C129.523,127.318,129.093,127.618,128.743,127.618 C128.253,127.618,127.933,127.098,127.933,126.308 C127.933,125.878,128.083,125.338,128.333,124.908 C128.513,124.588,128.703,124.368,129.033,124.078 z M130.423,126.218 C130.403,126.138,130.393,126.118,130.343,125.988 C129.993,125.138,129.783,124.478,129.593,123.668 C130.173,123.328,130.813,123.158,131.523,123.158 C131.573,123.158,131.663,123.168,131.773,123.168 C131.463,124.238,131.023,125.258,130.553,125.998 C130.483,126.108,130.483,126.118,130.433,126.218 C130.433,126.218,130.423,126.218,130.423,126.218 z M128.993,132.058 C128.533,132.058,128.243,132.048,127.923,132.008 C127.963,132.308,127.973,132.578,127.973,132.998 C127.973,132.998,127.973,139.498,127.973,139.498 C127.973,139.938,127.953,140.228,127.913,140.518 C127.913,140.518,128.643,140.518,128.643,140.518 C128.643,140.518,128.643,139.858,128.643,139.858 C128.643,139.858,133.793,139.858,133.793,139.858 C133.793,139.858,133.793,140.518,133.793,140.518 C133.793,140.518,134.523,140.518,134.523,140.518 C134.483,140.218,134.463,139.928,134.463,139.458 C134.463,139.458,134.463,132.928,134.463,132.928 C134.463,132.558,134.473,132.298,134.513,132.008 C134.223,132.048,133.943,132.058,133.473,132.058 C133.473,132.058,128.993,132.058,128.993,132.058 z M128.643,134.398 C128.643,134.398,128.643,132.678,128.643,132.678 C128.643,132.678,133.793,132.678,133.793,132.678 C133.793,132.678,133.793,134.398,133.793,134.398 C133.793,134.398,128.643,134.398,128.643,134.398 z M128.643,134.998 C128.643,134.998,133.793,134.998,133.793,134.998 C133.793,134.998,133.793,136.788,133.793,136.788 C133.793,136.788,128.643,136.788,128.643,136.788 C128.643,136.788,128.643,134.998,128.643,134.998 z M128.643,137.388 C128.643,137.388,133.793,137.388,133.793,137.388 C133.793,137.388,133.793,139.248,133.793,139.248 C133.793,139.248,128.643,139.248,128.643,139.248 C128.643,139.248,128.643,137.388,128.643,137.388 z M125.993,145.512 C126.365,145.512,126.724,145.599,127.073,145.773 C127.421,145.947,127.686,146.172,127.868,146.449 C128.044,146.713,128.161,147.02,128.22,147.372 C128.272,147.613,128.298,147.997,128.298,148.524 C128.298,148.524,124.465,148.524,124.465,148.524 C124.481,149.055,124.607,149.48,124.841,149.801 C125.075,150.122,125.438,150.282,125.93,150.282 C126.389,150.282,126.755,150.131,127.029,149.828 C127.185,149.652,127.296,149.449,127.361,149.218 C127.361,149.218,128.225,149.218,128.225,149.218 C128.202,149.41,128.126,149.624,127.998,149.86 C127.869,150.096,127.725,150.289,127.566,150.438 C127.299,150.699,126.968,150.874,126.574,150.966 C126.363,151.018,126.124,151.044,125.857,151.044 C125.206,151.044,124.654,150.807,124.201,150.333 C123.749,149.86,123.523,149.196,123.523,148.344 C123.523,147.504,123.751,146.822,124.206,146.298 C124.662,145.774,125.258,145.512,125.993,145.512 z M127.395,147.826 C127.359,147.445,127.276,147.141,127.146,146.913 C126.905,146.49,126.503,146.278,125.94,146.278 C125.536,146.278,125.198,146.424,124.924,146.715 C124.651,147.006,124.506,147.377,124.49,147.826 C124.49,147.826,127.395,147.826,127.395,147.826 z M125.91,145.502 M132.644,145.629 C132.644,145.629,133.616,145.629,133.616,145.629 C133.492,145.964,133.217,146.729,132.79,147.924 C132.471,148.822,132.204,149.555,131.99,150.121 C131.482,151.456,131.124,152.269,130.915,152.562 C130.707,152.855,130.349,153.002,129.841,153.002 C129.717,153.002,129.622,152.997,129.555,152.987 C129.489,152.977,129.407,152.959,129.309,152.933 C129.309,152.933,129.309,152.133,129.309,152.133 C129.462,152.175,129.573,152.201,129.641,152.211 C129.709,152.221,129.769,152.225,129.822,152.225 C129.984,152.225,130.104,152.199,130.18,152.145 C130.257,152.091,130.321,152.025,130.373,151.947 C130.39,151.921,130.448,151.788,130.549,151.547 C130.65,151.306,130.723,151.127,130.769,151.01 C130.769,151.01,128.835,145.629,128.835,145.629 C128.835,145.629,129.831,145.629,129.831,145.629 C129.831,145.629,131.233,149.887,131.233,149.887 C131.233,149.887,132.644,145.629,132.644,145.629 z M131.228,145.502 M136.555,145.512 C136.926,145.512,137.286,145.599,137.634,145.773 C137.982,145.947,138.248,146.172,138.43,146.449 C138.606,146.713,138.723,147.02,138.782,147.372 C138.834,147.613,138.86,147.997,138.86,148.524 C138.86,148.524,135.027,148.524,135.027,148.524 C135.043,149.055,135.168,149.48,135.403,149.801 C135.637,150.122,136,150.282,136.491,150.282 C136.95,150.282,137.317,150.131,137.59,149.828 C137.746,149.652,137.857,149.449,137.922,149.218 C137.922,149.218,138.786,149.218,138.786,149.218 C138.764,149.41,138.688,149.624,138.559,149.86 C138.431,150.096,138.287,150.289,138.127,150.438 C137.86,150.699,137.53,150.874,137.136,150.966 C136.924,151.018,136.685,151.044,136.418,151.044 C135.767,151.044,135.215,150.807,134.763,150.333 C134.311,149.86,134.084,149.196,134.084,148.344 C134.084,147.504,134.312,146.822,134.768,146.298 C135.224,145.774,135.819,145.512,136.555,145.512 z M137.956,147.826 C137.921,147.445,137.838,147.141,137.707,146.913 C137.466,146.49,137.064,146.278,136.501,146.278 C136.098,146.278,135.759,146.424,135.486,146.715 C135.212,147.006,135.067,147.377,135.051,147.826 C135.051,147.826,137.956,147.826,137.956,147.826 z M136.472,145.502"/>
      </g>
    </g>
    <g id="am36">
      <g id="am38">
        <path style="fill:#000000;fill-opacity:1;fill-rule:nonzero;opacity:1;stroke:none;" d="M125.949,171.783 C125.969,171.783,125.979,171.783,125.989,171.783 C126.009,171.783,126.039,171.783,126.089,171.793 C126.109,171.793,126.169,171.793,126.259,171.803 C126.299,171.803,126.409,171.803,126.579,171.823 C126.929,171.843,127.299,171.853,127.709,171.853 C128.089,171.853,128.399,171.843,128.849,171.823 C128.879,173.283,128.919,174.223,128.949,174.433 C128.719,174.313,128.249,174.233,127.839,174.233 C126.729,174.233,125.939,174.823,125.939,175.653 C125.939,176.523,126.669,177.073,127.829,177.073 C128.649,177.073,129.259,176.763,129.499,176.233 C129.579,176.053,129.619,175.813,129.619,175.553 C129.619,175.463,129.619,175.443,129.599,175.293 C129.649,175.323,129.649,175.323,129.689,175.353 C129.749,175.393,129.749,175.393,129.789,175.413 C130.499,175.823,130.899,176.103,131.209,176.453 C131.209,176.453,131.519,175.753,131.519,175.753 C131.409,175.683,131.389,175.663,131.269,175.583 C130.609,175.093,130.329,174.933,129.599,174.603 C129.519,173.273,129.499,172.763,129.489,171.773 C130.009,171.713,130.289,171.673,130.549,171.613 C131.229,171.473,131.229,171.473,131.249,171.473 C131.249,171.473,131.219,170.793,131.219,170.793 C130.839,170.953,130.259,171.073,129.489,171.163 C129.479,170.943,129.479,170.783,129.479,170.673 C129.479,169.843,129.499,169.373,129.549,169.103 C129.549,169.103,128.799,169.103,128.799,169.103 C128.819,169.203,128.829,169.343,128.829,169.513 C128.829,170.273,128.829,170.273,128.839,171.213 C128.429,171.233,128.159,171.243,127.769,171.243 C126.889,171.243,126.459,171.203,125.969,171.083 C125.969,171.083,125.949,171.783,125.949,171.783 z M128.959,175.043 C128.959,175.043,128.969,175.273,128.969,175.343 C128.969,175.733,128.909,175.973,128.779,176.123 C128.589,176.343,128.199,176.473,127.759,176.473 C127.059,176.473,126.599,176.153,126.599,175.663 C126.599,175.163,127.109,174.833,127.889,174.833 C128.289,174.833,128.549,174.883,128.959,175.043 z M124.179,169.093 C124.169,169.223,124.159,169.283,124.069,169.723 C123.679,171.453,123.549,172.503,123.549,173.833 C123.549,174.843,123.649,175.873,123.829,176.803 C123.869,177.033,123.879,177.083,123.889,177.173 C123.889,177.173,124.599,177.103,124.599,177.103 C124.579,176.963,124.579,176.953,124.579,176.903 C124.579,176.313,124.969,175.043,125.439,174.063 C125.439,174.063,124.949,173.833,124.949,173.833 C124.929,173.903,124.909,173.943,124.869,174.033 C124.529,174.853,124.459,175.043,124.279,175.793 C124.279,175.793,124.239,175.783,124.239,175.783 C124.239,175.683,124.239,175.683,124.239,175.593 C124.229,175.413,124.229,175.393,124.229,175.313 C124.209,174.853,124.189,174.263,124.189,173.913 C124.189,172.273,124.529,170.223,124.959,169.223 C124.959,169.223,124.179,169.093,124.179,169.093 z M135.579,168.833 C135.559,169.293,135.399,170.143,135.239,170.713 C135.049,170.713,134.719,170.723,134.519,170.723 C133.969,170.723,133.669,170.703,133.329,170.643 C133.329,170.643,133.319,171.333,133.319,171.333 C133.379,171.333,133.429,171.333,133.449,171.333 C133.479,171.333,133.559,171.333,133.669,171.343 C133.819,171.343,134.159,171.353,134.329,171.353 C134.479,171.353,134.819,171.343,135.069,171.333 C134.779,172.283,134.489,173.003,134.029,173.913 C133.659,174.633,133.389,175.073,133.069,175.473 C133.069,175.473,133.749,175.873,133.749,175.873 C133.799,175.793,133.859,175.673,133.949,175.533 C134.329,174.873,134.419,174.703,134.659,174.223 C135.099,173.303,135.459,172.373,135.769,171.303 C136.379,171.263,136.999,171.183,137.409,171.093 C137.649,171.053,137.649,171.053,137.759,171.033 C137.759,171.033,137.729,170.343,137.729,170.343 C137.269,170.493,136.639,170.613,135.939,170.673 C136.079,170.163,136.139,169.923,136.209,169.583 C136.289,169.173,136.299,169.133,136.369,168.943 C136.369,168.943,135.579,168.833,135.579,168.833 z M141.469,171.593 C140.659,171.073,139.989,170.733,138.829,170.273 C138.829,170.273,138.459,170.833,138.459,170.833 C139.509,171.213,140.269,171.613,141.109,172.193 C141.109,172.193,141.469,171.593,141.469,171.593 z M141.489,176.023 C141.419,175.973,141.419,175.973,141.309,175.863 C140.769,175.383,140.149,175.003,139.349,174.653 C139.289,174.273,139.239,173.583,139.239,173.133 C139.239,172.783,139.269,172.573,139.369,172.203 C139.369,172.203,138.689,172.133,138.689,172.133 C138.609,172.503,138.589,172.743,138.589,173.103 C138.589,173.353,138.609,173.823,138.659,174.473 C138.269,174.363,138.019,174.323,137.649,174.323 C137.199,174.323,136.819,174.393,136.469,174.543 C135.909,174.773,135.539,175.273,135.539,175.813 C135.539,176.703,136.289,177.263,137.489,177.263 C138.709,177.263,139.389,176.693,139.389,175.663 C139.389,175.563,139.389,175.503,139.369,175.343 C140.099,175.723,140.729,176.223,141.119,176.703 C141.119,176.703,141.489,176.023,141.489,176.023 z M138.709,175.113 C138.709,175.113,138.729,175.423,138.729,175.543 C138.729,176.293,138.339,176.633,137.479,176.633 C136.689,176.633,136.209,176.323,136.209,175.813 C136.209,175.263,136.749,174.913,137.599,174.913 C137.999,174.913,138.289,174.963,138.709,175.113 z M130.279,180.153 C129.789,180.153,129.539,180.143,129.239,180.123 C129.259,180.443,129.259,180.513,129.259,181.173 C129.259,181.173,129.259,182.313,129.259,182.313 C129.259,182.313,129.249,182.813,129.249,182.813 C129.249,182.813,129.249,183.043,129.249,183.043 C129.249,183.103,129.239,183.183,129.229,183.343 C129.479,183.313,129.819,183.303,130.329,183.303 C130.329,183.303,134.309,183.303,134.309,183.303 C134.779,183.303,135.069,183.313,135.399,183.343 C135.369,183.103,135.359,182.843,135.359,182.313 C135.359,182.313,135.359,181.173,135.359,181.173 C135.359,180.653,135.369,180.393,135.389,180.113 C135.089,180.143,134.869,180.153,134.339,180.153 C134.339,180.153,132.229,180.153,132.229,180.153 C132.459,179.773,132.459,179.773,132.569,179.583 C132.569,179.583,131.909,179.443,131.909,179.443 C131.849,179.683,131.779,179.843,131.599,180.153 C131.599,180.153,130.279,180.153,130.279,180.153 z M129.839,180.593 C129.839,180.593,134.779,180.593,134.779,180.593 C134.779,180.593,134.779,181.073,134.779,181.073 C134.779,181.073,129.839,181.073,129.839,181.073 C129.839,181.073,129.839,180.593,129.839,180.593 z M129.839,181.483 C129.839,181.483,134.779,181.483,134.779,181.483 C134.779,181.483,134.779,181.973,134.779,181.973 C134.779,181.973,129.839,181.973,129.839,181.973 C129.839,181.973,129.839,181.483,129.839,181.483 z M129.839,182.383 C129.839,182.383,134.779,182.383,134.779,182.383 C134.779,182.383,134.779,182.883,134.779,182.883 C134.779,182.883,129.839,182.883,129.839,182.883 C129.839,182.883,129.839,182.383,129.839,182.383 z M130.649,186.133 C130.639,186.413,130.629,186.503,130.589,186.713 C130.589,186.713,128.729,186.713,128.729,186.713 C128.299,186.713,128.109,186.703,127.829,186.663 C127.829,186.663,127.829,187.273,127.829,187.273 C128.089,187.223,128.319,187.213,128.679,187.213 C128.679,187.213,130.399,187.213,130.399,187.213 C130.009,187.823,129.389,188.113,128.129,188.263 C128.299,188.423,128.419,188.593,128.539,188.803 C129.969,188.503,130.659,188.073,131.039,187.213 C131.039,187.213,133.559,187.213,133.559,187.213 C133.559,187.213,133.559,187.903,133.559,187.903 C133.559,188.273,133.539,188.513,133.499,188.783 C133.499,188.783,134.199,188.783,134.199,188.783 C134.159,188.513,134.139,188.283,134.139,187.903 C134.139,187.903,134.139,187.213,134.139,187.213 C134.139,187.213,135.919,187.213,135.919,187.213 C136.279,187.213,136.509,187.223,136.799,187.273 C136.799,187.273,136.799,186.663,136.799,186.663 C136.529,186.703,136.349,186.713,135.919,186.713 C135.919,186.713,134.139,186.713,134.139,186.713 C134.139,186.713,134.139,186.133,134.139,186.133 C134.139,186.133,135.199,186.133,135.199,186.133 C135.619,186.133,135.879,186.143,136.129,186.183 C136.099,185.923,136.089,185.803,136.089,185.403 C136.089,185.403,136.089,184.473,136.089,184.473 C136.089,184.073,136.099,183.963,136.129,183.703 C135.819,183.743,135.619,183.753,135.179,183.753 C135.179,183.753,129.459,183.753,129.459,183.753 C129.009,183.753,128.799,183.743,128.499,183.703 C128.529,183.943,128.539,184.093,128.539,184.483 C128.539,184.483,128.539,185.393,128.539,185.393 C128.539,185.783,128.529,185.913,128.499,186.183 C128.779,186.143,128.979,186.133,129.439,186.133 C129.439,186.133,130.649,186.133,130.649,186.133 z M133.559,186.133 C133.559,186.133,133.559,186.713,133.559,186.713 C133.559,186.713,131.199,186.713,131.199,186.713 C131.239,186.523,131.249,186.393,131.269,186.133 C131.269,186.133,133.559,186.133,133.559,186.133 z M129.109,184.183 C129.109,184.183,131.989,184.183,131.989,184.183 C131.989,184.183,131.989,184.733,131.989,184.733 C131.989,184.733,129.109,184.733,129.109,184.733 C129.109,184.733,129.109,184.183,129.109,184.183 z M132.549,184.183 C132.549,184.183,135.519,184.183,135.519,184.183 C135.519,184.183,135.519,184.733,135.519,184.733 C135.519,184.733,132.549,184.733,132.549,184.733 C132.549,184.733,132.549,184.183,132.549,184.183 z M129.109,185.153 C129.109,185.153,131.989,185.153,131.989,185.153 C131.989,185.153,131.989,185.703,131.989,185.703 C131.989,185.703,129.109,185.703,129.109,185.703 C129.109,185.703,129.109,185.153,129.109,185.153 z M132.549,185.153 C132.549,185.153,135.519,185.153,135.519,185.153 C135.519,185.153,135.519,185.703,135.519,185.703 C135.519,185.703,132.549,185.703,132.549,185.703 C132.549,185.703,132.549,185.153,132.549,185.153 z M122.081,193.714 C122.081,193.714,122.916,193.714,122.916,193.714 C122.916,193.714,122.916,194.456,122.916,194.456 C123.164,194.15,123.426,193.93,123.702,193.797 C123.979,193.663,124.287,193.596,124.625,193.596 C125.367,193.596,125.869,193.855,126.129,194.373 C126.272,194.656,126.344,195.061,126.344,195.589 C126.344,195.589,126.344,198.943,126.344,198.943 C126.344,198.943,125.45,198.943,125.45,198.943 C125.45,198.943,125.45,195.647,125.45,195.647 C125.45,195.328,125.403,195.071,125.309,194.876 C125.153,194.55,124.869,194.387,124.459,194.387 C124.251,194.387,124.08,194.409,123.946,194.451 C123.706,194.523,123.494,194.666,123.312,194.881 C123.165,195.053,123.07,195.231,123.026,195.415 C122.982,195.599,122.96,195.862,122.96,196.204 C122.96,196.204,122.96,198.943,122.96,198.943 C122.96,198.943,122.081,198.943,122.081,198.943 C122.081,198.943,122.081,193.714,122.081,193.714 z M124.147,193.587 M129.718,198.377 C130.301,198.377,130.7,198.156,130.917,197.715 C131.133,197.274,131.241,196.783,131.241,196.243 C131.241,195.755,131.163,195.358,131.007,195.052 C130.76,194.57,130.333,194.329,129.728,194.329 C129.191,194.329,128.8,194.534,128.556,194.944 C128.312,195.354,128.19,195.849,128.19,196.428 C128.19,196.985,128.312,197.449,128.556,197.82 C128.8,198.191,129.187,198.377,129.718,198.377 z M129.752,193.562 C130.426,193.562,130.996,193.787,131.461,194.236 C131.927,194.685,132.159,195.346,132.159,196.219 C132.159,197.062,131.954,197.758,131.544,198.308 C131.134,198.859,130.498,199.134,129.635,199.134 C128.916,199.134,128.344,198.89,127.921,198.404 C127.498,197.917,127.286,197.263,127.286,196.443 C127.286,195.564,127.509,194.864,127.955,194.344 C128.401,193.823,129,193.562,129.752,193.562 z M129.723,193.587 M133.727,197.303 C133.753,197.595,133.826,197.82,133.946,197.976 C134.168,198.26,134.552,198.401,135.099,198.401 C135.424,198.401,135.711,198.33,135.958,198.189 C136.206,198.047,136.329,197.828,136.329,197.532 C136.329,197.307,136.23,197.137,136.031,197.019 C135.904,196.948,135.654,196.865,135.279,196.77 C135.279,196.77,134.581,196.595,134.581,196.595 C134.135,196.484,133.807,196.36,133.595,196.223 C133.217,195.986,133.029,195.657,133.029,195.237 C133.029,194.742,133.207,194.342,133.563,194.036 C133.92,193.73,134.399,193.577,135.001,193.577 C135.789,193.577,136.357,193.808,136.705,194.27 C136.923,194.563,137.029,194.879,137.023,195.218 C137.023,195.218,136.193,195.218,136.193,195.218 C136.176,195.019,136.106,194.838,135.983,194.676 C135.781,194.444,135.431,194.329,134.933,194.329 C134.601,194.329,134.349,194.392,134.178,194.519 C134.008,194.646,133.922,194.814,133.922,195.022 C133.922,195.25,134.034,195.432,134.259,195.569 C134.389,195.65,134.581,195.722,134.835,195.784 C134.835,195.784,135.416,195.926,135.416,195.926 C136.048,196.079,136.471,196.227,136.686,196.37 C137.028,196.595,137.198,196.948,137.198,197.429 C137.198,197.895,137.022,198.297,136.669,198.636 C136.315,198.974,135.778,199.143,135.055,199.143 C134.277,199.143,133.726,198.967,133.402,198.614 C133.078,198.26,132.905,197.823,132.882,197.303 C132.882,197.303,133.727,197.303,133.727,197.303 z M135.026,193.587 M140.382,193.596 C140.753,193.596,141.113,193.684,141.461,193.858 C141.809,194.032,142.075,194.257,142.257,194.534 C142.433,194.798,142.55,195.105,142.609,195.457 C142.661,195.698,142.687,196.082,142.687,196.609 C142.687,196.609,138.854,196.609,138.854,196.609 C138.87,197.14,138.995,197.565,139.23,197.886 C139.464,198.207,139.827,198.367,140.319,198.367 C140.778,198.367,141.144,198.216,141.417,197.913 C141.573,197.737,141.684,197.534,141.749,197.303 C141.749,197.303,142.613,197.303,142.613,197.303 C142.591,197.495,142.515,197.709,142.386,197.945 C142.258,198.181,142.114,198.373,141.954,198.523 C141.687,198.784,141.357,198.959,140.963,199.051 C140.751,199.103,140.512,199.129,140.245,199.129 C139.594,199.129,139.043,198.892,138.59,198.418 C138.138,197.945,137.911,197.281,137.911,196.428 C137.911,195.589,138.139,194.907,138.595,194.383 C139.051,193.859,139.646,193.596,140.382,193.596 z M141.783,195.911 C141.748,195.53,141.665,195.226,141.534,194.998 C141.293,194.575,140.891,194.363,140.328,194.363 C139.925,194.363,139.586,194.509,139.313,194.8 C139.039,195.091,138.894,195.462,138.878,195.911 C138.878,195.911,141.783,195.911,141.783,195.911 z M140.299,193.587"/>
      </g>
    </g>
  </g>
</svg>
