<?xml version="1.0" encoding="UTF-8" standalone="no"?>
<!DOCTYPE svg PUBLIC "-//W3C//DTD SVG 1.1//EN" "http://www.w3.org/Graphics/SVG/1.1/DTD/svg11.dtd">
<!-- Created with Vectornator (http://vectornator.io/) -->
<svg height="100%" stroke-miterlimit="10" style="fill-rule:nonzero;clip-rule:evenodd;stroke-linecap:round;stroke-linejoin:round;" version="1.1" viewBox="0 0 400 400" width="100%" xml:space="preserve" xmlns="http://www.w3.org/2000/svg" xmlns:xlink="http://www.w3.org/1999/xlink">
<defs/>
<g id="レイヤー-1">
<path d="M40.4787 200.836C40.4787 112.007 112.503 39.9974 201.35 39.9974C290.196 39.9974 362.22 112.007 362.22 200.836C362.22 289.665 290.196 361.675 201.35 361.675C112.503 361.675 40.4787 289.665 40.4787 200.836Z" fill="#ffffff" fill-rule="nonzero" opacity="1" stroke="#000000" stroke-linecap="butt" stroke-linejoin="round" stroke-width="2"/>
<path d="M42.5309 199.531L362.397 199.369" fill="#ffffff" fill-rule="nonzero" opacity="1" stroke="#000000" stroke-dasharray="7.0" stroke-linecap="butt" stroke-linejoin="round" stroke-width="2"/>
<g fill="#1e1616" opacity="1" stroke="none">
<path d="M102.355 166.38C102.016 166.64 101.668 166.839 101.31 166.975C100.952 167.112 100.584 167.18 100.206 167.18C99.6463 167.18 99.2524 167.031 99.0245 166.731C98.7967 166.432 98.6827 165.872 98.6827 165.051L98.6827 162.454C98.6827 161.594 98.826 160.986 99.1124 160.628C99.3989 160.27 99.8937 160.091 100.597 160.091C101.365 160.091 101.99 160.462 102.472 161.204C102.758 161.607 102.999 161.907 103.194 162.102C103.832 162.675 104.575 163.105 105.421 163.391C106.267 163.678 107.231 163.821 108.312 163.821C109.249 163.821 109.998 163.639 110.558 163.274C111.118 162.91 111.398 162.434 111.398 161.848C111.398 160.794 109.894 160.065 106.886 159.661C106.222 159.583 105.701 159.511 105.323 159.446C103.058 159.134 101.372 158.518 100.265 157.6C99.158 156.682 98.6046 155.449 98.6046 153.899C98.6046 152.063 99.2687 150.644 100.597 149.641C101.925 148.639 103.819 148.137 106.28 148.137C107.127 148.137 107.996 148.206 108.888 148.343C109.78 148.479 110.694 148.691 111.632 148.977C111.905 148.652 112.195 148.411 112.501 148.255C112.807 148.098 113.149 148.02 113.526 148.02C114.06 148.02 114.467 148.186 114.747 148.518C115.027 148.85 115.167 149.348 115.167 150.012L115.167 152.415C115.167 152.975 115.024 153.408 114.737 153.714C114.451 154.02 114.047 154.173 113.526 154.173C112.993 154.173 112.078 153.707 110.782 152.776C109.487 151.845 108.188 151.38 106.886 151.38C105.87 151.38 105.082 151.546 104.523 151.878C103.963 152.21 103.683 152.669 103.683 153.255C103.683 154.166 104.855 154.778 107.198 155.091C107.875 155.169 108.409 155.234 108.8 155.286C111.743 155.716 113.764 156.357 114.864 157.21C115.965 158.063 116.515 159.329 116.515 161.009C116.515 162.975 115.789 164.495 114.337 165.569C112.885 166.643 110.825 167.18 108.155 167.18C107.114 167.18 106.111 167.112 105.148 166.975C104.184 166.839 103.253 166.64 102.355 166.38Z"/>
<path d="M134.249 162.376L138.448 162.376C139.347 162.376 139.985 162.538 140.362 162.864C140.74 163.19 140.929 163.73 140.929 164.485C140.929 165.253 140.737 165.807 140.353 166.145C139.969 166.484 139.334 166.653 138.448 166.653L125.245 166.653C124.36 166.653 123.725 166.484 123.341 166.145C122.957 165.807 122.765 165.253 122.765 164.485C122.765 163.73 122.95 163.19 123.321 162.864C123.692 162.538 124.334 162.376 125.245 162.376L129.444 162.376L129.444 152.884L127.237 152.884C126.365 152.884 125.74 152.718 125.362 152.385C124.985 152.053 124.796 151.503 124.796 150.735C124.796 149.967 124.978 149.42 125.343 149.094C125.707 148.769 126.339 148.606 127.237 148.606L133.116 148.606C133.481 148.606 133.761 148.681 133.956 148.831C134.151 148.981 134.249 149.186 134.249 149.446L134.249 162.376ZM131.437 139.778C132.387 139.778 133.019 139.96 133.331 140.325C133.644 140.69 133.8 141.562 133.8 142.942C133.8 144.27 133.66 145.094 133.38 145.413C133.1 145.732 132.439 145.891 131.398 145.891C130.382 145.891 129.728 145.742 129.435 145.442C129.142 145.143 128.995 144.544 128.995 143.645C128.995 141.979 129.145 140.917 129.444 140.462C129.744 140.006 130.408 139.778 131.437 139.778Z"/>
<path d="M154.679 152.259C153.403 152.259 152.345 152.721 151.505 153.645C150.665 154.57 150.245 155.748 150.245 157.18C150.245 158.587 150.665 159.749 151.505 160.667C152.345 161.585 153.403 162.044 154.679 162.044C155.968 162.044 157.032 161.585 157.872 160.667C158.712 159.749 159.132 158.587 159.132 157.18C159.132 155.748 158.712 154.57 157.872 153.645C157.032 152.721 155.968 152.259 154.679 152.259ZM159.523 150.423L159.523 149.407C159.523 149.147 159.617 148.948 159.806 148.811C159.995 148.675 160.278 148.606 160.655 148.606L163.839 148.606C164.737 148.606 165.369 148.772 165.734 149.104C166.098 149.436 166.28 149.98 166.28 150.735C166.28 151.438 166.101 151.972 165.743 152.337C165.385 152.701 164.861 152.884 164.171 152.884L163.839 152.884L163.839 166.341C163.839 169.192 163.064 171.262 161.515 172.551C159.965 173.841 157.478 174.485 154.054 174.485C151.931 174.485 150.372 174.277 149.376 173.86C148.38 173.443 147.882 172.786 147.882 171.887C147.882 171.262 148.084 170.755 148.487 170.364C148.891 169.973 149.425 169.778 150.089 169.778C150.258 169.778 150.818 169.837 151.769 169.954C152.719 170.071 153.598 170.13 154.405 170.13C156.267 170.13 157.553 169.778 158.263 169.075C158.972 168.372 159.327 167.109 159.327 165.286L159.327 164.407C158.403 164.941 157.488 165.335 156.583 165.589C155.678 165.843 154.737 165.969 153.761 165.969C151.144 165.969 149.005 165.152 147.345 163.518C145.685 161.884 144.855 159.785 144.855 157.219C144.855 154.576 145.724 152.402 147.462 150.696C149.2 148.99 151.424 148.137 154.132 148.137C155.304 148.137 156.332 148.323 157.218 148.694C158.103 149.065 158.872 149.641 159.523 150.423Z"/>
<path d="M187.726 162.337L187.98 162.337C188.709 162.337 189.256 162.516 189.62 162.874C189.985 163.232 190.167 163.769 190.167 164.485C190.167 165.253 189.982 165.807 189.61 166.145C189.239 166.484 188.611 166.653 187.726 166.653L182.921 166.653C182.049 166.653 181.42 166.484 181.036 166.145C180.652 165.807 180.46 165.253 180.46 164.485C180.46 163.769 180.646 163.232 181.017 162.874C181.388 162.516 181.944 162.337 182.687 162.337L182.921 162.337L182.921 156.692C182.921 155.13 182.703 154.02 182.267 153.362C181.831 152.704 181.105 152.376 180.089 152.376C179.008 152.376 178.126 152.77 177.442 153.557C176.759 154.345 176.417 155.39 176.417 156.692L176.417 162.337L176.651 162.337C177.394 162.337 177.947 162.516 178.312 162.874C178.676 163.232 178.859 163.769 178.859 164.485C178.859 165.253 178.67 165.807 178.292 166.145C177.914 166.484 177.289 166.653 176.417 166.653L171.573 166.653C170.701 166.653 170.076 166.484 169.698 166.145C169.321 165.807 169.132 165.253 169.132 164.485C169.132 163.769 169.314 163.232 169.679 162.874C170.043 162.516 170.597 162.337 171.339 162.337L171.573 162.337L171.573 152.884L171.241 152.884C170.538 152.884 170.004 152.704 169.64 152.346C169.275 151.988 169.093 151.464 169.093 150.774C169.093 150.006 169.282 149.453 169.659 149.114C170.037 148.775 170.675 148.606 171.573 148.606L174.894 148.606C175.258 148.606 175.535 148.678 175.724 148.821C175.913 148.964 176.007 149.173 176.007 149.446L176.007 150.969C176.606 150.032 177.371 149.326 178.302 148.85C179.233 148.375 180.31 148.137 181.534 148.137C183.618 148.137 185.17 148.769 186.192 150.032C187.215 151.295 187.726 153.222 187.726 155.813L187.726 162.337Z"/>
<path d="M206.261 162.376L210.46 162.376C211.359 162.376 211.997 162.538 212.374 162.864C212.752 163.19 212.941 163.73 212.941 164.485C212.941 165.253 212.748 165.807 212.364 166.145C211.98 166.484 211.345 166.653 210.46 166.653L197.257 166.653C196.372 166.653 195.737 166.484 195.353 166.145C194.969 165.807 194.776 165.253 194.776 164.485C194.776 163.73 194.962 163.19 195.333 162.864C195.704 162.538 196.345 162.376 197.257 162.376L201.456 162.376L201.456 152.884L199.249 152.884C198.377 152.884 197.752 152.718 197.374 152.385C196.997 152.053 196.808 151.503 196.808 150.735C196.808 149.967 196.99 149.42 197.355 149.094C197.719 148.769 198.351 148.606 199.249 148.606L205.128 148.606C205.493 148.606 205.773 148.681 205.968 148.831C206.163 148.981 206.261 149.186 206.261 149.446L206.261 162.376ZM203.448 139.778C204.399 139.778 205.03 139.96 205.343 140.325C205.655 140.69 205.812 141.562 205.812 142.942C205.812 144.27 205.672 145.094 205.392 145.413C205.112 145.732 204.451 145.891 203.409 145.891C202.394 145.891 201.739 145.742 201.446 145.442C201.153 145.143 201.007 144.544 201.007 143.645C201.007 141.979 201.157 140.917 201.456 140.462C201.756 140.006 202.42 139.778 203.448 139.778Z"/>
<path d="M228.78 149.173L232.98 149.173C233.878 149.173 234.516 149.339 234.894 149.671C235.271 150.003 235.46 150.546 235.46 151.301C235.46 152.057 235.268 152.604 234.884 152.942C234.5 153.281 233.865 153.45 232.98 153.45L228.78 153.45L228.78 162.376L232.667 162.376C233.566 162.376 234.204 162.538 234.581 162.864C234.959 163.19 235.148 163.73 235.148 164.485C235.148 165.253 234.956 165.807 234.571 166.145C234.187 166.484 233.553 166.653 232.667 166.653L221.905 166.653C221.007 166.653 220.369 166.484 219.991 166.145C219.614 165.807 219.425 165.253 219.425 164.485C219.425 163.73 219.61 163.19 219.982 162.864C220.353 162.538 220.994 162.376 221.905 162.376L223.976 162.376L223.976 153.45L221.905 153.45C221.007 153.45 220.369 153.281 219.991 152.942C219.614 152.604 219.425 152.057 219.425 151.301C219.425 150.533 219.61 149.986 219.982 149.661C220.353 149.335 220.994 149.173 221.905 149.173L223.976 149.173L223.976 148.059C223.976 145.507 224.633 143.694 225.948 142.62C227.263 141.546 229.503 141.009 232.667 141.009C234.308 141.009 235.515 141.204 236.29 141.594C237.065 141.985 237.452 142.591 237.452 143.411C237.452 143.958 237.28 144.394 236.935 144.719C236.59 145.045 236.124 145.208 235.538 145.208C235.109 145.208 234.5 145.149 233.712 145.032C232.924 144.915 232.374 144.856 232.062 144.856C230.851 144.856 230.001 145.126 229.513 145.667C229.025 146.207 228.78 147.161 228.78 148.528L228.78 149.173Z"/>
<path d="M254.269 162.376L258.468 162.376C259.366 162.376 260.004 162.538 260.382 162.864C260.76 163.19 260.948 163.73 260.948 164.485C260.948 165.253 260.756 165.807 260.372 166.145C259.988 166.484 259.353 166.653 258.468 166.653L245.265 166.653C244.379 166.653 243.745 166.484 243.36 166.145C242.976 165.807 242.784 165.253 242.784 164.485C242.784 163.73 242.97 163.19 243.341 162.864C243.712 162.538 244.353 162.376 245.265 162.376L249.464 162.376L249.464 152.884L247.257 152.884C246.385 152.884 245.76 152.718 245.382 152.385C245.004 152.053 244.816 151.503 244.816 150.735C244.816 149.967 244.998 149.42 245.362 149.094C245.727 148.769 246.359 148.606 247.257 148.606L253.136 148.606C253.5 148.606 253.78 148.681 253.976 148.831C254.171 148.981 254.269 149.186 254.269 149.446L254.269 162.376ZM251.456 139.778C252.407 139.778 253.038 139.96 253.351 140.325C253.663 140.69 253.819 141.562 253.819 142.942C253.819 144.27 253.679 145.094 253.4 145.413C253.12 145.732 252.459 145.891 251.417 145.891C250.401 145.891 249.747 145.742 249.454 145.442C249.161 145.143 249.015 144.544 249.015 143.645C249.015 141.979 249.164 140.917 249.464 140.462C249.763 140.006 250.428 139.778 251.456 139.778Z"/>
<path d="M270.226 158.782C270.564 160.227 271.219 161.308 272.189 162.024C273.159 162.74 274.451 163.098 276.066 163.098C277.68 163.098 279.275 162.704 280.851 161.917C282.426 161.129 283.377 160.735 283.702 160.735C284.184 160.735 284.578 160.914 284.884 161.272C285.19 161.63 285.343 162.089 285.343 162.649C285.343 163.873 284.438 164.928 282.628 165.813C280.818 166.699 278.579 167.141 275.909 167.141C272.758 167.141 270.196 166.256 268.224 164.485C266.251 162.714 265.265 160.436 265.265 157.649C265.265 154.876 266.251 152.604 268.224 150.833C270.196 149.062 272.758 148.176 275.909 148.176C278.722 148.176 281.053 149.007 282.901 150.667C284.75 152.327 285.675 154.361 285.675 156.77C285.675 157.538 285.489 158.066 285.118 158.352C284.747 158.639 283.982 158.782 282.823 158.782L270.226 158.782ZM280.753 155.735C280.532 154.524 279.962 153.587 279.044 152.923C278.126 152.259 276.931 151.926 275.46 151.926C274.041 151.926 272.898 152.242 272.032 152.874C271.166 153.505 270.564 154.459 270.226 155.735L280.753 155.735Z"/>
<path d="M307.862 162.376L308.194 162.376C308.898 162.376 309.425 162.555 309.776 162.913C310.128 163.271 310.304 163.795 310.304 164.485C310.304 165.253 310.118 165.807 309.747 166.145C309.376 166.484 308.748 166.653 307.862 166.653L304.874 166.653C304.497 166.653 304.207 166.578 304.005 166.428C303.803 166.279 303.702 166.074 303.702 165.813L303.702 164.446C303.064 165.318 302.244 165.986 301.241 166.448C300.239 166.91 299.112 167.141 297.862 167.141C295.31 167.141 293.175 166.272 291.456 164.534C289.737 162.796 288.878 160.624 288.878 158.02C288.878 155.312 289.747 153.066 291.485 151.282C293.224 149.498 295.434 148.606 298.116 148.606C299.041 148.606 299.942 148.759 300.821 149.065C301.7 149.371 302.504 149.804 303.234 150.364L303.234 145.423L300.636 145.423C299.737 145.423 299.099 145.25 298.722 144.905C298.344 144.56 298.155 144.01 298.155 143.255C298.155 142.486 298.344 141.933 298.722 141.594C299.099 141.256 299.737 141.087 300.636 141.087L306.71 141.087C307.153 141.087 307.456 141.178 307.618 141.36C307.781 141.542 307.862 141.881 307.862 142.376L307.862 162.376ZM298.702 152.766C297.426 152.766 296.368 153.245 295.528 154.202C294.689 155.159 294.269 156.373 294.269 157.844C294.269 159.355 294.685 160.589 295.519 161.546C296.352 162.503 297.413 162.981 298.702 162.981C299.991 162.981 301.056 162.499 301.896 161.536C302.735 160.572 303.155 159.342 303.155 157.844C303.155 156.386 302.732 155.175 301.886 154.212C301.039 153.248 299.978 152.766 298.702 152.766Z"/>
</g>
<g fill="#1e1616" opacity="1" stroke="none">
<path d="M101.715 267.874C101.377 268.135 101.028 268.333 100.67 268.47C100.312 268.607 99.9443 268.675 99.5667 268.675C99.0068 268.675 98.6129 268.525 98.3851 268.226C98.1572 267.926 98.0433 267.366 98.0433 266.546L98.0433 263.948C98.0433 263.089 98.1865 262.48 98.473 262.122C98.7594 261.764 99.2542 261.585 99.9573 261.585C100.726 261.585 101.351 261.956 101.832 262.698C102.119 263.102 102.36 263.402 102.555 263.597C103.193 264.17 103.935 264.599 104.782 264.886C105.628 265.172 106.591 265.316 107.672 265.316C108.61 265.316 109.358 265.133 109.918 264.769C110.478 264.404 110.758 263.929 110.758 263.343C110.758 262.288 109.254 261.559 106.246 261.155C105.582 261.077 105.062 261.006 104.684 260.941C102.418 260.628 100.732 260.013 99.6253 259.095C98.5185 258.177 97.9652 256.943 97.9652 255.394C97.9652 253.558 98.6292 252.139 99.9573 251.136C101.285 250.133 103.18 249.632 105.641 249.632C106.487 249.632 107.356 249.7 108.248 249.837C109.14 249.974 110.055 250.185 110.993 250.472C111.266 250.146 111.556 249.905 111.862 249.749C112.168 249.593 112.509 249.515 112.887 249.515C113.421 249.515 113.828 249.681 114.108 250.013C114.388 250.345 114.528 250.843 114.528 251.507L114.528 253.909C114.528 254.469 114.384 254.902 114.098 255.208C113.812 255.514 113.408 255.667 112.887 255.667C112.353 255.667 111.438 255.202 110.143 254.271C108.847 253.34 107.548 252.874 106.246 252.874C105.231 252.874 104.443 253.04 103.883 253.372C103.323 253.704 103.043 254.163 103.043 254.749C103.043 255.661 104.215 256.273 106.559 256.585C107.236 256.663 107.77 256.728 108.16 256.78C111.103 257.21 113.125 257.851 114.225 258.704C115.325 259.557 115.875 260.823 115.875 262.503C115.875 264.469 115.149 265.989 113.698 267.064C112.246 268.138 110.185 268.675 107.516 268.675C106.474 268.675 105.472 268.607 104.508 268.47C103.545 268.333 102.614 268.135 101.715 267.874Z"/>
<path d="M133.61 263.87L137.809 263.87C138.707 263.87 139.345 264.033 139.723 264.359C140.101 264.684 140.289 265.224 140.289 265.98C140.289 266.748 140.097 267.301 139.713 267.64C139.329 267.978 138.694 268.148 137.809 268.148L124.606 268.148C123.72 268.148 123.086 267.978 122.701 267.64C122.317 267.301 122.125 266.748 122.125 265.98C122.125 265.224 122.311 264.684 122.682 264.359C123.053 264.033 123.694 263.87 124.606 263.87L128.805 263.87L128.805 254.378L126.598 254.378C125.726 254.378 125.101 254.212 124.723 253.88C124.345 253.548 124.157 252.998 124.157 252.23C124.157 251.461 124.339 250.915 124.703 250.589C125.068 250.264 125.7 250.101 126.598 250.101L132.477 250.101C132.841 250.101 133.121 250.176 133.317 250.325C133.512 250.475 133.61 250.68 133.61 250.941L133.61 263.87ZM130.797 241.273C131.748 241.273 132.379 241.455 132.692 241.82C133.004 242.184 133.16 243.056 133.16 244.437C133.16 245.765 133.02 246.588 132.741 246.907C132.461 247.226 131.8 247.386 130.758 247.386C129.743 247.386 129.088 247.236 128.795 246.937C128.502 246.637 128.356 246.038 128.356 245.14C128.356 243.473 128.506 242.412 128.805 241.956C129.104 241.501 129.769 241.273 130.797 241.273Z"/>
<path d="M154.039 253.753C152.763 253.753 151.705 254.215 150.866 255.14C150.026 256.064 149.606 257.243 149.606 258.675C149.606 260.081 150.026 261.243 150.866 262.161C151.705 263.079 152.763 263.538 154.039 263.538C155.328 263.538 156.393 263.079 157.233 262.161C158.073 261.243 158.493 260.081 158.493 258.675C158.493 257.243 158.073 256.064 157.233 255.14C156.393 254.215 155.328 253.753 154.039 253.753ZM158.883 251.917L158.883 250.902C158.883 250.641 158.978 250.443 159.166 250.306C159.355 250.169 159.638 250.101 160.016 250.101L163.2 250.101C164.098 250.101 164.729 250.267 165.094 250.599C165.459 250.931 165.641 251.474 165.641 252.23C165.641 252.933 165.462 253.467 165.104 253.831C164.746 254.196 164.222 254.378 163.532 254.378L163.2 254.378L163.2 267.835C163.2 270.687 162.425 272.757 160.875 274.046C159.326 275.335 156.839 275.98 153.414 275.98C151.292 275.98 149.733 275.771 148.737 275.355C147.741 274.938 147.243 274.28 147.243 273.382C147.243 272.757 147.444 272.249 147.848 271.859C148.252 271.468 148.785 271.273 149.45 271.273C149.619 271.273 150.179 271.331 151.129 271.448C152.08 271.566 152.959 271.624 153.766 271.624C155.628 271.624 156.914 271.273 157.623 270.57C158.333 269.866 158.688 268.603 158.688 266.78L158.688 265.902C157.763 266.435 156.849 266.829 155.944 267.083C155.039 267.337 154.098 267.464 153.121 267.464C150.504 267.464 148.366 266.647 146.705 265.013C145.045 263.379 144.215 261.279 144.215 258.714C144.215 256.071 145.084 253.896 146.823 252.191C148.561 250.485 150.784 249.632 153.493 249.632C154.664 249.632 155.693 249.818 156.578 250.189C157.464 250.56 158.232 251.136 158.883 251.917Z"/>
<path d="M187.086 263.831L187.34 263.831C188.069 263.831 188.616 264.01 188.981 264.368C189.345 264.726 189.528 265.264 189.528 265.98C189.528 266.748 189.342 267.301 188.971 267.64C188.6 267.978 187.972 268.148 187.086 268.148L182.282 268.148C181.409 268.148 180.781 267.978 180.397 267.64C180.013 267.301 179.821 266.748 179.821 265.98C179.821 265.264 180.006 264.726 180.377 264.368C180.748 264.01 181.305 263.831 182.047 263.831L182.282 263.831L182.282 258.187C182.282 256.624 182.063 255.514 181.627 254.857C181.191 254.199 180.465 253.87 179.45 253.87C178.369 253.87 177.487 254.264 176.803 255.052C176.119 255.84 175.778 256.885 175.778 258.187L175.778 263.831L176.012 263.831C176.754 263.831 177.308 264.01 177.672 264.368C178.037 264.726 178.219 265.264 178.219 265.98C178.219 266.748 178.03 267.301 177.653 267.64C177.275 267.978 176.65 268.148 175.778 268.148L170.934 268.148C170.062 268.148 169.437 267.978 169.059 267.64C168.681 267.301 168.493 266.748 168.493 265.98C168.493 265.264 168.675 264.726 169.039 264.368C169.404 264.01 169.957 263.831 170.7 263.831L170.934 263.831L170.934 254.378L170.602 254.378C169.899 254.378 169.365 254.199 169 253.841C168.636 253.483 168.453 252.959 168.453 252.269C168.453 251.501 168.642 250.947 169.02 250.609C169.397 250.27 170.035 250.101 170.934 250.101L174.254 250.101C174.619 250.101 174.895 250.172 175.084 250.316C175.273 250.459 175.368 250.667 175.368 250.941L175.368 252.464C175.966 251.527 176.731 250.82 177.662 250.345C178.593 249.87 179.671 249.632 180.895 249.632C182.978 249.632 184.531 250.264 185.553 251.527C186.575 252.79 187.086 254.717 187.086 257.308L187.086 263.831Z"/>
<path d="M205.621 263.87L209.821 263.87C210.719 263.87 211.357 264.033 211.735 264.359C212.112 264.684 212.301 265.224 212.301 265.98C212.301 266.748 212.109 267.301 211.725 267.64C211.341 267.978 210.706 268.148 209.821 268.148L196.618 268.148C195.732 268.148 195.097 267.978 194.713 267.64C194.329 267.301 194.137 266.748 194.137 265.98C194.137 265.224 194.323 264.684 194.694 264.359C195.065 264.033 195.706 263.87 196.618 263.87L200.817 263.87L200.817 254.378L198.61 254.378C197.737 254.378 197.112 254.212 196.735 253.88C196.357 253.548 196.168 252.998 196.168 252.23C196.168 251.461 196.351 250.915 196.715 250.589C197.08 250.264 197.711 250.101 198.61 250.101L204.489 250.101C204.853 250.101 205.133 250.176 205.328 250.325C205.524 250.475 205.621 250.68 205.621 250.941L205.621 263.87ZM202.809 241.273C203.759 241.273 204.391 241.455 204.703 241.82C205.016 242.184 205.172 243.056 205.172 244.437C205.172 245.765 205.032 246.588 204.752 246.907C204.472 247.226 203.812 247.386 202.77 247.386C201.754 247.386 201.1 247.236 200.807 246.937C200.514 246.637 200.368 246.038 200.368 245.14C200.368 243.473 200.517 242.412 200.817 241.956C201.116 241.501 201.78 241.273 202.809 241.273Z"/>
<path d="M228.141 250.667L232.34 250.667C233.239 250.667 233.877 250.833 234.254 251.165C234.632 251.497 234.821 252.041 234.821 252.796C234.821 253.551 234.629 254.098 234.244 254.437C233.86 254.775 233.226 254.945 232.34 254.945L228.141 254.945L228.141 263.87L232.028 263.87C232.926 263.87 233.564 264.033 233.942 264.359C234.319 264.684 234.508 265.224 234.508 265.98C234.508 266.748 234.316 267.301 233.932 267.64C233.548 267.978 232.913 268.148 232.028 268.148L221.266 268.148C220.368 268.148 219.729 267.978 219.352 267.64C218.974 267.301 218.785 266.748 218.785 265.98C218.785 265.224 218.971 264.684 219.342 264.359C219.713 264.033 220.354 263.87 221.266 263.87L223.336 263.87L223.336 254.945L221.266 254.945C220.368 254.945 219.729 254.775 219.352 254.437C218.974 254.098 218.785 253.551 218.785 252.796C218.785 252.028 218.971 251.481 219.342 251.155C219.713 250.83 220.354 250.667 221.266 250.667L223.336 250.667L223.336 249.554C223.336 247.002 223.994 245.189 225.309 244.114C226.624 243.04 228.864 242.503 232.028 242.503C233.668 242.503 234.876 242.698 235.651 243.089C236.425 243.48 236.813 244.085 236.813 244.905C236.813 245.452 236.64 245.889 236.295 246.214C235.95 246.54 235.485 246.702 234.899 246.702C234.469 246.702 233.86 246.644 233.073 246.527C232.285 246.409 231.735 246.351 231.422 246.351C230.211 246.351 229.362 246.621 228.873 247.161C228.385 247.702 228.141 248.655 228.141 250.023L228.141 250.667Z"/>
<path d="M253.629 263.87L257.828 263.87C258.727 263.87 259.365 264.033 259.743 264.359C260.12 264.684 260.309 265.224 260.309 265.98C260.309 266.748 260.117 267.301 259.733 267.64C259.349 267.978 258.714 268.148 257.828 268.148L244.625 268.148C243.74 268.148 243.105 267.978 242.721 267.64C242.337 267.301 242.145 266.748 242.145 265.98C242.145 265.224 242.33 264.684 242.701 264.359C243.073 264.033 243.714 263.87 244.625 263.87L248.825 263.87L248.825 254.378L246.618 254.378C245.745 254.378 245.12 254.212 244.743 253.88C244.365 253.548 244.176 252.998 244.176 252.23C244.176 251.461 244.358 250.915 244.723 250.589C245.088 250.264 245.719 250.101 246.618 250.101L252.496 250.101C252.861 250.101 253.141 250.176 253.336 250.325C253.532 250.475 253.629 250.68 253.629 250.941L253.629 263.87ZM250.817 241.273C251.767 241.273 252.399 241.455 252.711 241.82C253.024 242.184 253.18 243.056 253.18 244.437C253.18 245.765 253.04 246.588 252.76 246.907C252.48 247.226 251.819 247.386 250.778 247.386C249.762 247.386 249.108 247.236 248.815 246.937C248.522 246.637 248.375 246.038 248.375 245.14C248.375 243.473 248.525 242.412 248.825 241.956C249.124 241.501 249.788 241.273 250.817 241.273Z"/>
<path d="M269.586 260.277C269.925 261.722 270.579 262.803 271.549 263.519C272.519 264.235 273.812 264.593 275.426 264.593C277.041 264.593 278.636 264.199 280.211 263.411C281.787 262.624 282.737 262.23 283.063 262.23C283.545 262.23 283.938 262.409 284.244 262.767C284.55 263.125 284.703 263.584 284.703 264.144C284.703 265.368 283.798 266.422 281.989 267.308C280.179 268.193 277.939 268.636 275.27 268.636C272.119 268.636 269.557 267.751 267.584 265.98C265.612 264.209 264.625 261.93 264.625 259.144C264.625 256.37 265.612 254.098 267.584 252.327C269.557 250.556 272.119 249.671 275.27 249.671C278.082 249.671 280.413 250.501 282.262 252.161C284.111 253.821 285.035 255.856 285.035 258.265C285.035 259.033 284.85 259.56 284.479 259.847C284.108 260.133 283.343 260.277 282.184 260.277L269.586 260.277ZM280.114 257.23C279.892 256.019 279.323 255.081 278.405 254.417C277.487 253.753 276.292 253.421 274.821 253.421C273.401 253.421 272.259 253.737 271.393 254.368C270.527 255 269.925 255.954 269.586 257.23L280.114 257.23Z"/>
<path d="M298.024 257.542L298.024 263.87L302.633 263.87C303.519 263.87 304.147 264.033 304.518 264.359C304.889 264.684 305.075 265.224 305.075 265.98C305.075 266.748 304.889 267.301 304.518 267.64C304.147 267.978 303.519 268.148 302.633 268.148L291.715 268.148C290.817 268.148 290.179 267.978 289.801 267.64C289.423 267.301 289.235 266.748 289.235 265.98C289.235 265.224 289.42 264.684 289.791 264.359C290.162 264.033 290.804 263.87 291.715 263.87L293.2 263.87L293.2 254.378L292.36 254.378C291.474 254.378 290.846 254.212 290.475 253.88C290.104 253.548 289.918 252.998 289.918 252.23C289.918 251.461 290.097 250.915 290.455 250.589C290.813 250.264 291.448 250.101 292.36 250.101L296.52 250.101C296.871 250.101 297.145 250.176 297.34 250.325C297.535 250.475 297.633 250.68 297.633 250.941L297.633 253.831C299.052 252.308 300.377 251.221 301.608 250.57C302.838 249.918 304.163 249.593 305.582 249.593C306.871 249.593 307.894 249.883 308.649 250.462C309.404 251.042 309.782 251.82 309.782 252.796C309.782 253.551 309.521 254.173 309 254.661C308.479 255.15 307.809 255.394 306.989 255.394C306.403 255.394 305.709 255.179 304.909 254.749C304.108 254.32 303.551 254.105 303.239 254.105C302.614 254.105 301.878 254.385 301.032 254.945C300.185 255.504 299.183 256.37 298.024 257.542Z"/>
</g>
<g opacity="1">
<path d="M21.23 378.434L21.7065 21.1193" fill="#ffffff" fill-rule="nonzero" stroke="none"/>
<path d="M21.6944 30.1257C21.6614 54.9392 21.23 378.434 21.23 378.434" fill="none" stroke="#000000" stroke-linecap="butt" stroke-linejoin="round" stroke-width="2"/>
<g fill="#000000" stroke="none">
<path d="M28.6904 33.1351L21.7064 21.1257L14.6905 33.1164L28.6904 33.1351Z" fill="#000000"/>
</g>
</g>
<g opacity="1">
<path d="M379.23 21.1193L379.706 378.434" fill="#ffffff" fill-rule="nonzero" stroke="none"/>
<path d="M379.694 369.428C379.661 344.614 379.23 21.1193 379.23 21.1193" fill="none" stroke="#000000" stroke-linecap="butt" stroke-linejoin="round" stroke-width="2"/>
<g fill="#000000" stroke="none">
<path d="M372.69 366.437L379.706 378.428L386.69 366.419L372.69 366.437Z" fill="#000000"/>
</g>
</g>
</g>
</svg>
