<?xml version="1.0" encoding="UTF-8" standalone="no"?>
<!DOCTYPE svg PUBLIC "-//W3C//DTD SVG 1.1//EN" "http://www.w3.org/Graphics/SVG/1.1/DTD/svg11.dtd">
<!-- Created with Vectornator (http://vectornator.io/) -->
<svg height="100%" stroke-miterlimit="10" style="fill-rule:nonzero;clip-rule:evenodd;stroke-linecap:round;stroke-linejoin:round;" version="1.1" viewBox="0 0 400 400" width="100%" xml:space="preserve" xmlns="http://www.w3.org/2000/svg" xmlns:vectornator="http://vectornator.io" xmlns:xlink="http://www.w3.org/1999/xlink">
<defs/>
<g id="レイヤー-1" vectornator:layerName="レイヤー 1">
<path d="M40.4787 200.836C40.4787 112.007 112.503 39.9974 201.35 39.9974C290.196 39.9974 362.22 112.007 362.22 200.836C362.22 289.665 290.196 361.675 201.35 361.675C112.503 361.675 40.4787 289.665 40.4787 200.836Z" fill="#ffffff" fill-rule="nonzero" opacity="1" stroke="#000000" stroke-linecap="butt" stroke-linejoin="round" stroke-width="2"/>
<path d="M42.5309 199.531L362.397 199.369" fill="#ffffff" fill-rule="nonzero" opacity="1" stroke="#000000" stroke-dasharray="7.0" stroke-linecap="butt" stroke-linejoin="round" stroke-width="2"/>
<g fill="#1e1616" opacity="0" stroke="none">
<path d="M102.355 166.223C102.016 166.484 101.668 166.682 101.31 166.819C100.952 166.956 100.584 167.024 100.206 167.024C99.6463 167.024 99.2524 166.874 99.0245 166.575C98.7967 166.275 98.6827 165.716 98.6827 164.895L98.6827 162.298C98.6827 161.438 98.826 160.829 99.1124 160.471C99.3989 160.113 99.8937 159.934 100.597 159.934C101.365 159.934 101.99 160.305 102.472 161.048C102.758 161.451 102.999 161.751 103.194 161.946C103.832 162.519 104.575 162.949 105.421 163.235C106.267 163.522 107.231 163.665 108.312 163.665C109.249 163.665 109.998 163.482 110.558 163.118C111.118 162.753 111.398 162.278 111.398 161.692C111.398 160.637 109.894 159.908 106.886 159.505C106.222 159.426 105.701 159.355 105.323 159.29C103.058 158.977 101.372 158.362 100.265 157.444C99.158 156.526 98.6046 155.292 98.6046 153.743C98.6046 151.907 99.2687 150.488 100.597 149.485C101.925 148.482 103.819 147.981 106.28 147.981C107.127 147.981 107.996 148.05 108.888 148.186C109.78 148.323 110.694 148.535 111.632 148.821C111.905 148.496 112.195 148.255 112.501 148.098C112.807 147.942 113.149 147.864 113.526 147.864C114.06 147.864 114.467 148.03 114.747 148.362C115.027 148.694 115.167 149.192 115.167 149.856L115.167 152.259C115.167 152.818 115.024 153.251 114.737 153.557C114.451 153.863 114.047 154.016 113.526 154.016C112.993 154.016 112.078 153.551 110.782 152.62C109.487 151.689 108.188 151.223 106.886 151.223C105.87 151.223 105.082 151.389 104.523 151.721C103.963 152.053 103.683 152.512 103.683 153.098C103.683 154.01 104.855 154.622 107.198 154.934C107.875 155.012 108.409 155.078 108.8 155.13C111.743 155.559 113.764 156.201 114.864 157.053C115.965 157.906 116.515 159.173 116.515 160.852C116.515 162.818 115.789 164.339 114.337 165.413C112.885 166.487 110.825 167.024 108.155 167.024C107.114 167.024 106.111 166.956 105.148 166.819C104.184 166.682 103.253 166.484 102.355 166.223Z"/>
<path d="M134.249 162.219L138.448 162.219C139.347 162.219 139.985 162.382 140.362 162.708C140.74 163.033 140.929 163.574 140.929 164.329C140.929 165.097 140.737 165.65 140.353 165.989C139.969 166.328 139.334 166.497 138.448 166.497L125.245 166.497C124.36 166.497 123.725 166.328 123.341 165.989C122.957 165.65 122.765 165.097 122.765 164.329C122.765 163.574 122.95 163.033 123.321 162.708C123.692 162.382 124.334 162.219 125.245 162.219L129.444 162.219L129.444 152.727L127.237 152.727C126.365 152.727 125.74 152.561 125.362 152.229C124.985 151.897 124.796 151.347 124.796 150.579C124.796 149.811 124.978 149.264 125.343 148.938C125.707 148.613 126.339 148.45 127.237 148.45L133.116 148.45C133.481 148.45 133.761 148.525 133.956 148.675C134.151 148.824 134.249 149.029 134.249 149.29L134.249 162.219ZM131.437 139.622C132.387 139.622 133.019 139.804 133.331 140.169C133.644 140.533 133.8 141.406 133.8 142.786C133.8 144.114 133.66 144.938 133.38 145.257C133.1 145.576 132.439 145.735 131.398 145.735C130.382 145.735 129.728 145.585 129.435 145.286C129.142 144.986 128.995 144.387 128.995 143.489C128.995 141.822 129.145 140.761 129.444 140.305C129.744 139.85 130.408 139.622 131.437 139.622Z"/>
<path d="M154.679 152.102C153.403 152.102 152.345 152.565 151.505 153.489C150.665 154.413 150.245 155.592 150.245 157.024C150.245 158.43 150.665 159.593 151.505 160.51C152.345 161.428 153.403 161.887 154.679 161.887C155.968 161.887 157.032 161.428 157.872 160.51C158.712 159.593 159.132 158.43 159.132 157.024C159.132 155.592 158.712 154.413 157.872 153.489C157.032 152.565 155.968 152.102 154.679 152.102ZM159.523 150.266L159.523 149.251C159.523 148.99 159.617 148.792 159.806 148.655C159.995 148.518 160.278 148.45 160.655 148.45L163.839 148.45C164.737 148.45 165.369 148.616 165.734 148.948C166.098 149.28 166.28 149.824 166.28 150.579C166.28 151.282 166.101 151.816 165.743 152.18C165.385 152.545 164.861 152.727 164.171 152.727L163.839 152.727L163.839 166.184C163.839 169.036 163.064 171.106 161.515 172.395C159.965 173.684 157.478 174.329 154.054 174.329C151.931 174.329 150.372 174.121 149.376 173.704C148.38 173.287 147.882 172.63 147.882 171.731C147.882 171.106 148.084 170.598 148.487 170.208C148.891 169.817 149.425 169.622 150.089 169.622C150.258 169.622 150.818 169.68 151.769 169.798C152.719 169.915 153.598 169.973 154.405 169.973C156.267 169.973 157.553 169.622 158.263 168.919C158.972 168.216 159.327 166.953 159.327 165.13L159.327 164.251C158.403 164.785 157.488 165.178 156.583 165.432C155.678 165.686 154.737 165.813 153.761 165.813C151.144 165.813 149.005 164.996 147.345 163.362C145.685 161.728 144.855 159.628 144.855 157.063C144.855 154.42 145.724 152.246 147.462 150.54C149.2 148.834 151.424 147.981 154.132 147.981C155.304 147.981 156.332 148.167 157.218 148.538C158.103 148.909 158.872 149.485 159.523 150.266Z"/>
<path d="M187.726 162.18L187.98 162.18C188.709 162.18 189.256 162.359 189.62 162.718C189.985 163.076 190.167 163.613 190.167 164.329C190.167 165.097 189.982 165.65 189.61 165.989C189.239 166.328 188.611 166.497 187.726 166.497L182.921 166.497C182.049 166.497 181.42 166.328 181.036 165.989C180.652 165.65 180.46 165.097 180.46 164.329C180.46 163.613 180.646 163.076 181.017 162.718C181.388 162.359 181.944 162.18 182.687 162.18L182.921 162.18L182.921 156.536C182.921 154.973 182.703 153.863 182.267 153.206C181.831 152.548 181.105 152.219 180.089 152.219C179.008 152.219 178.126 152.613 177.442 153.401C176.759 154.189 176.417 155.234 176.417 156.536L176.417 162.18L176.651 162.18C177.394 162.18 177.947 162.359 178.312 162.718C178.676 163.076 178.859 163.613 178.859 164.329C178.859 165.097 178.67 165.65 178.292 165.989C177.914 166.328 177.289 166.497 176.417 166.497L171.573 166.497C170.701 166.497 170.076 166.328 169.698 165.989C169.321 165.65 169.132 165.097 169.132 164.329C169.132 163.613 169.314 163.076 169.679 162.718C170.043 162.359 170.597 162.18 171.339 162.18L171.573 162.18L171.573 152.727L171.241 152.727C170.538 152.727 170.004 152.548 169.64 152.19C169.275 151.832 169.093 151.308 169.093 150.618C169.093 149.85 169.282 149.296 169.659 148.958C170.037 148.619 170.675 148.45 171.573 148.45L174.894 148.45C175.258 148.45 175.535 148.522 175.724 148.665C175.913 148.808 176.007 149.016 176.007 149.29L176.007 150.813C176.606 149.876 177.371 149.169 178.302 148.694C179.233 148.219 180.31 147.981 181.534 147.981C183.618 147.981 185.17 148.613 186.192 149.876C187.215 151.139 187.726 153.066 187.726 155.657L187.726 162.18Z"/>
<path d="M206.261 162.219L210.46 162.219C211.359 162.219 211.997 162.382 212.374 162.708C212.752 163.033 212.941 163.574 212.941 164.329C212.941 165.097 212.748 165.65 212.364 165.989C211.98 166.328 211.345 166.497 210.46 166.497L197.257 166.497C196.372 166.497 195.737 166.328 195.353 165.989C194.969 165.65 194.776 165.097 194.776 164.329C194.776 163.574 194.962 163.033 195.333 162.708C195.704 162.382 196.345 162.219 197.257 162.219L201.456 162.219L201.456 152.727L199.249 152.727C198.377 152.727 197.752 152.561 197.374 152.229C196.997 151.897 196.808 151.347 196.808 150.579C196.808 149.811 196.99 149.264 197.355 148.938C197.719 148.613 198.351 148.45 199.249 148.45L205.128 148.45C205.493 148.45 205.773 148.525 205.968 148.675C206.163 148.824 206.261 149.029 206.261 149.29L206.261 162.219ZM203.448 139.622C204.399 139.622 205.03 139.804 205.343 140.169C205.655 140.533 205.812 141.406 205.812 142.786C205.812 144.114 205.672 144.938 205.392 145.257C205.112 145.576 204.451 145.735 203.409 145.735C202.394 145.735 201.739 145.585 201.446 145.286C201.153 144.986 201.007 144.387 201.007 143.489C201.007 141.822 201.157 140.761 201.456 140.305C201.756 139.85 202.42 139.622 203.448 139.622Z"/>
<path d="M228.78 149.016L232.98 149.016C233.878 149.016 234.516 149.182 234.894 149.514C235.271 149.846 235.46 150.39 235.46 151.145C235.46 151.9 235.268 152.447 234.884 152.786C234.5 153.124 233.865 153.294 232.98 153.294L228.78 153.294L228.78 162.219L232.667 162.219C233.566 162.219 234.204 162.382 234.581 162.708C234.959 163.033 235.148 163.574 235.148 164.329C235.148 165.097 234.956 165.65 234.571 165.989C234.187 166.328 233.553 166.497 232.667 166.497L221.905 166.497C221.007 166.497 220.369 166.328 219.991 165.989C219.614 165.65 219.425 165.097 219.425 164.329C219.425 163.574 219.61 163.033 219.982 162.708C220.353 162.382 220.994 162.219 221.905 162.219L223.976 162.219L223.976 153.294L221.905 153.294C221.007 153.294 220.369 153.124 219.991 152.786C219.614 152.447 219.425 151.9 219.425 151.145C219.425 150.377 219.61 149.83 219.982 149.505C220.353 149.179 220.994 149.016 221.905 149.016L223.976 149.016L223.976 147.903C223.976 145.351 224.633 143.538 225.948 142.464C227.263 141.389 229.503 140.852 232.667 140.852C234.308 140.852 235.515 141.048 236.29 141.438C237.065 141.829 237.452 142.434 237.452 143.255C237.452 143.801 237.28 144.238 236.935 144.563C236.59 144.889 236.124 145.051 235.538 145.051C235.109 145.051 234.5 144.993 233.712 144.876C232.924 144.759 232.374 144.7 232.062 144.7C230.851 144.7 230.001 144.97 229.513 145.51C229.025 146.051 228.78 147.005 228.78 148.372L228.78 149.016Z"/>
<path d="M254.269 162.219L258.468 162.219C259.366 162.219 260.004 162.382 260.382 162.708C260.76 163.033 260.948 163.574 260.948 164.329C260.948 165.097 260.756 165.65 260.372 165.989C259.988 166.328 259.353 166.497 258.468 166.497L245.265 166.497C244.379 166.497 243.745 166.328 243.36 165.989C242.976 165.65 242.784 165.097 242.784 164.329C242.784 163.574 242.97 163.033 243.341 162.708C243.712 162.382 244.353 162.219 245.265 162.219L249.464 162.219L249.464 152.727L247.257 152.727C246.385 152.727 245.76 152.561 245.382 152.229C245.004 151.897 244.816 151.347 244.816 150.579C244.816 149.811 244.998 149.264 245.362 148.938C245.727 148.613 246.359 148.45 247.257 148.45L253.136 148.45C253.5 148.45 253.78 148.525 253.976 148.675C254.171 148.824 254.269 149.029 254.269 149.29L254.269 162.219ZM251.456 139.622C252.407 139.622 253.038 139.804 253.351 140.169C253.663 140.533 253.819 141.406 253.819 142.786C253.819 144.114 253.679 144.938 253.4 145.257C253.12 145.576 252.459 145.735 251.417 145.735C250.401 145.735 249.747 145.585 249.454 145.286C249.161 144.986 249.015 144.387 249.015 143.489C249.015 141.822 249.164 140.761 249.464 140.305C249.763 139.85 250.428 139.622 251.456 139.622Z"/>
<path d="M270.226 158.626C270.564 160.071 271.219 161.152 272.189 161.868C273.159 162.584 274.451 162.942 276.066 162.942C277.68 162.942 279.275 162.548 280.851 161.76C282.426 160.973 283.377 160.579 283.702 160.579C284.184 160.579 284.578 160.758 284.884 161.116C285.19 161.474 285.343 161.933 285.343 162.493C285.343 163.717 284.438 164.772 282.628 165.657C280.818 166.542 278.579 166.985 275.909 166.985C272.758 166.985 270.196 166.1 268.224 164.329C266.251 162.558 265.265 160.279 265.265 157.493C265.265 154.719 266.251 152.447 268.224 150.676C270.196 148.906 272.758 148.02 275.909 148.02C278.722 148.02 281.053 148.85 282.901 150.51C284.75 152.171 285.675 154.205 285.675 156.614C285.675 157.382 285.489 157.91 285.118 158.196C284.747 158.482 283.982 158.626 282.823 158.626L270.226 158.626ZM280.753 155.579C280.532 154.368 279.962 153.43 279.044 152.766C278.126 152.102 276.931 151.77 275.46 151.77C274.041 151.77 272.898 152.086 272.032 152.718C271.166 153.349 270.564 154.303 270.226 155.579L280.753 155.579Z"/>
<path d="M307.862 162.219L308.194 162.219C308.898 162.219 309.425 162.398 309.776 162.757C310.128 163.115 310.304 163.639 310.304 164.329C310.304 165.097 310.118 165.65 309.747 165.989C309.376 166.328 308.748 166.497 307.862 166.497L304.874 166.497C304.497 166.497 304.207 166.422 304.005 166.272C303.803 166.122 303.702 165.917 303.702 165.657L303.702 164.29C303.064 165.162 302.244 165.829 301.241 166.292C300.239 166.754 299.112 166.985 297.862 166.985C295.31 166.985 293.175 166.116 291.456 164.378C289.737 162.639 288.878 160.468 288.878 157.864C288.878 155.156 289.747 152.91 291.485 151.126C293.224 149.342 295.434 148.45 298.116 148.45C299.041 148.45 299.942 148.603 300.821 148.909C301.7 149.215 302.504 149.648 303.234 150.208L303.234 145.266L300.636 145.266C299.737 145.266 299.099 145.094 298.722 144.749C298.344 144.404 298.155 143.854 298.155 143.098C298.155 142.33 298.344 141.777 298.722 141.438C299.099 141.1 299.737 140.93 300.636 140.93L306.71 140.93C307.153 140.93 307.456 141.022 307.618 141.204C307.781 141.386 307.862 141.725 307.862 142.219L307.862 162.219ZM298.702 152.61C297.426 152.61 296.368 153.089 295.528 154.046C294.689 155.003 294.269 156.217 294.269 157.688C294.269 159.199 294.685 160.432 295.519 161.389C296.352 162.346 297.413 162.825 298.702 162.825C299.991 162.825 301.056 162.343 301.896 161.38C302.735 160.416 303.155 159.186 303.155 157.688C303.155 156.23 302.732 155.019 301.886 154.055C301.039 153.092 299.978 152.61 298.702 152.61Z"/>
</g>
<g fill="#1e1616" opacity="0" stroke="none">
<path d="M101.715 267.718C101.377 267.978 101.028 268.177 100.67 268.314C100.312 268.45 99.9443 268.519 99.5667 268.519C99.0068 268.519 98.6129 268.369 98.3851 268.07C98.1572 267.77 98.0433 267.21 98.0433 266.39L98.0433 263.792C98.0433 262.933 98.1865 262.324 98.473 261.966C98.7594 261.608 99.2542 261.429 99.9573 261.429C100.726 261.429 101.351 261.8 101.832 262.542C102.119 262.946 102.36 263.245 102.555 263.441C103.193 264.014 103.935 264.443 104.782 264.73C105.628 265.016 106.591 265.159 107.672 265.159C108.61 265.159 109.358 264.977 109.918 264.612C110.478 264.248 110.758 263.773 110.758 263.187C110.758 262.132 109.254 261.403 106.246 260.999C105.582 260.921 105.062 260.849 104.684 260.784C102.418 260.472 100.732 259.857 99.6253 258.939C98.5185 258.021 97.9652 256.787 97.9652 255.237C97.9652 253.402 98.6292 251.982 99.9573 250.98C101.285 249.977 103.18 249.476 105.641 249.476C106.487 249.476 107.356 249.544 108.248 249.681C109.14 249.818 110.055 250.029 110.993 250.316C111.266 249.99 111.556 249.749 111.862 249.593C112.168 249.437 112.509 249.359 112.887 249.359C113.421 249.359 113.828 249.525 114.108 249.857C114.388 250.189 114.528 250.687 114.528 251.351L114.528 253.753C114.528 254.313 114.384 254.746 114.098 255.052C113.812 255.358 113.408 255.511 112.887 255.511C112.353 255.511 111.438 255.045 110.143 254.114C108.847 253.183 107.548 252.718 106.246 252.718C105.231 252.718 104.443 252.884 103.883 253.216C103.323 253.548 103.043 254.007 103.043 254.593C103.043 255.504 104.215 256.116 106.559 256.429C107.236 256.507 107.77 256.572 108.16 256.624C111.103 257.054 113.125 257.695 114.225 258.548C115.325 259.401 115.875 260.667 115.875 262.347C115.875 264.313 115.149 265.833 113.698 266.907C112.246 267.982 110.185 268.519 107.516 268.519C106.474 268.519 105.472 268.45 104.508 268.314C103.545 268.177 102.614 267.978 101.715 267.718Z"/>
<path d="M133.61 263.714L137.809 263.714C138.707 263.714 139.345 263.877 139.723 264.202C140.101 264.528 140.289 265.068 140.289 265.823C140.289 266.592 140.097 267.145 139.713 267.484C139.329 267.822 138.694 267.991 137.809 267.991L124.606 267.991C123.72 267.991 123.086 267.822 122.701 267.484C122.317 267.145 122.125 266.592 122.125 265.823C122.125 265.068 122.311 264.528 122.682 264.202C123.053 263.877 123.694 263.714 124.606 263.714L128.805 263.714L128.805 254.222L126.598 254.222C125.726 254.222 125.101 254.056 124.723 253.724C124.345 253.392 124.157 252.842 124.157 252.073C124.157 251.305 124.339 250.758 124.703 250.433C125.068 250.107 125.7 249.945 126.598 249.945L132.477 249.945C132.841 249.945 133.121 250.019 133.317 250.169C133.512 250.319 133.61 250.524 133.61 250.784L133.61 263.714ZM130.797 241.116C131.748 241.116 132.379 241.299 132.692 241.663C133.004 242.028 133.16 242.9 133.16 244.28C133.16 245.609 133.02 246.432 132.741 246.751C132.461 247.07 131.8 247.23 130.758 247.23C129.743 247.23 129.088 247.08 128.795 246.78C128.502 246.481 128.356 245.882 128.356 244.984C128.356 243.317 128.506 242.256 128.805 241.8C129.104 241.344 129.769 241.116 130.797 241.116Z"/>
<path d="M154.039 253.597C152.763 253.597 151.705 254.059 150.866 254.984C150.026 255.908 149.606 257.086 149.606 258.519C149.606 259.925 150.026 261.087 150.866 262.005C151.705 262.923 152.763 263.382 154.039 263.382C155.328 263.382 156.393 262.923 157.233 262.005C158.073 261.087 158.493 259.925 158.493 258.519C158.493 257.086 158.073 255.908 157.233 254.984C156.393 254.059 155.328 253.597 154.039 253.597ZM158.883 251.761L158.883 250.745C158.883 250.485 158.978 250.286 159.166 250.15C159.355 250.013 159.638 249.945 160.016 249.945L163.2 249.945C164.098 249.945 164.729 250.111 165.094 250.443C165.459 250.775 165.641 251.318 165.641 252.073C165.641 252.777 165.462 253.31 165.104 253.675C164.746 254.04 164.222 254.222 163.532 254.222L163.2 254.222L163.2 267.679C163.2 270.53 162.425 272.601 160.875 273.89C159.326 275.179 156.839 275.823 153.414 275.823C151.292 275.823 149.733 275.615 148.737 275.198C147.741 274.782 147.243 274.124 147.243 273.226C147.243 272.601 147.444 272.093 147.848 271.702C148.252 271.312 148.785 271.116 149.45 271.116C149.619 271.116 150.179 271.175 151.129 271.292C152.08 271.409 152.959 271.468 153.766 271.468C155.628 271.468 156.914 271.116 157.623 270.413C158.333 269.71 158.688 268.447 158.688 266.624L158.688 265.745C157.763 266.279 156.849 266.673 155.944 266.927C155.039 267.181 154.098 267.308 153.121 267.308C150.504 267.308 148.366 266.491 146.705 264.857C145.045 263.223 144.215 261.123 144.215 258.558C144.215 255.915 145.084 253.74 146.823 252.034C148.561 250.329 150.784 249.476 153.493 249.476C154.664 249.476 155.693 249.661 156.578 250.032C157.464 250.404 158.232 250.98 158.883 251.761Z"/>
<path d="M187.086 263.675L187.34 263.675C188.069 263.675 188.616 263.854 188.981 264.212C189.345 264.57 189.528 265.107 189.528 265.823C189.528 266.592 189.342 267.145 188.971 267.484C188.6 267.822 187.972 267.991 187.086 267.991L182.282 267.991C181.409 267.991 180.781 267.822 180.397 267.484C180.013 267.145 179.821 266.592 179.821 265.823C179.821 265.107 180.006 264.57 180.377 264.212C180.748 263.854 181.305 263.675 182.047 263.675L182.282 263.675L182.282 258.03C182.282 256.468 182.063 255.358 181.627 254.7C181.191 254.043 180.465 253.714 179.45 253.714C178.369 253.714 177.487 254.108 176.803 254.896C176.119 255.683 175.778 256.728 175.778 258.03L175.778 263.675L176.012 263.675C176.754 263.675 177.308 263.854 177.672 264.212C178.037 264.57 178.219 265.107 178.219 265.823C178.219 266.592 178.03 267.145 177.653 267.484C177.275 267.822 176.65 267.991 175.778 267.991L170.934 267.991C170.062 267.991 169.437 267.822 169.059 267.484C168.681 267.145 168.493 266.592 168.493 265.823C168.493 265.107 168.675 264.57 169.039 264.212C169.404 263.854 169.957 263.675 170.7 263.675L170.934 263.675L170.934 254.222L170.602 254.222C169.899 254.222 169.365 254.043 169 253.685C168.636 253.327 168.453 252.803 168.453 252.112C168.453 251.344 168.642 250.791 169.02 250.452C169.397 250.114 170.035 249.945 170.934 249.945L174.254 249.945C174.619 249.945 174.895 250.016 175.084 250.159C175.273 250.303 175.368 250.511 175.368 250.784L175.368 252.308C175.966 251.37 176.731 250.664 177.662 250.189C178.593 249.713 179.671 249.476 180.895 249.476C182.978 249.476 184.531 250.107 185.553 251.37C186.575 252.633 187.086 254.56 187.086 257.152L187.086 263.675Z"/>
<path d="M205.621 263.714L209.821 263.714C210.719 263.714 211.357 263.877 211.735 264.202C212.112 264.528 212.301 265.068 212.301 265.823C212.301 266.592 212.109 267.145 211.725 267.484C211.341 267.822 210.706 267.991 209.821 267.991L196.618 267.991C195.732 267.991 195.097 267.822 194.713 267.484C194.329 267.145 194.137 266.592 194.137 265.823C194.137 265.068 194.323 264.528 194.694 264.202C195.065 263.877 195.706 263.714 196.618 263.714L200.817 263.714L200.817 254.222L198.61 254.222C197.737 254.222 197.112 254.056 196.735 253.724C196.357 253.392 196.168 252.842 196.168 252.073C196.168 251.305 196.351 250.758 196.715 250.433C197.08 250.107 197.711 249.945 198.61 249.945L204.489 249.945C204.853 249.945 205.133 250.019 205.328 250.169C205.524 250.319 205.621 250.524 205.621 250.784L205.621 263.714ZM202.809 241.116C203.759 241.116 204.391 241.299 204.703 241.663C205.016 242.028 205.172 242.9 205.172 244.28C205.172 245.609 205.032 246.432 204.752 246.751C204.472 247.07 203.812 247.23 202.77 247.23C201.754 247.23 201.1 247.08 200.807 246.78C200.514 246.481 200.368 245.882 200.368 244.984C200.368 243.317 200.517 242.256 200.817 241.8C201.116 241.344 201.78 241.116 202.809 241.116Z"/>
<path d="M228.141 250.511L232.34 250.511C233.239 250.511 233.877 250.677 234.254 251.009C234.632 251.341 234.821 251.885 234.821 252.64C234.821 253.395 234.629 253.942 234.244 254.28C233.86 254.619 233.226 254.788 232.34 254.788L228.141 254.788L228.141 263.714L232.028 263.714C232.926 263.714 233.564 263.877 233.942 264.202C234.319 264.528 234.508 265.068 234.508 265.823C234.508 266.592 234.316 267.145 233.932 267.484C233.548 267.822 232.913 267.991 232.028 267.991L221.266 267.991C220.368 267.991 219.729 267.822 219.352 267.484C218.974 267.145 218.785 266.592 218.785 265.823C218.785 265.068 218.971 264.528 219.342 264.202C219.713 263.877 220.354 263.714 221.266 263.714L223.336 263.714L223.336 254.788L221.266 254.788C220.368 254.788 219.729 254.619 219.352 254.28C218.974 253.942 218.785 253.395 218.785 252.64C218.785 251.872 218.971 251.325 219.342 250.999C219.713 250.674 220.354 250.511 221.266 250.511L223.336 250.511L223.336 249.398C223.336 246.846 223.994 245.032 225.309 243.958C226.624 242.884 228.864 242.347 232.028 242.347C233.668 242.347 234.876 242.542 235.651 242.933C236.425 243.323 236.813 243.929 236.813 244.749C236.813 245.296 236.64 245.732 236.295 246.058C235.95 246.383 235.485 246.546 234.899 246.546C234.469 246.546 233.86 246.487 233.073 246.37C232.285 246.253 231.735 246.195 231.422 246.195C230.211 246.195 229.362 246.465 228.873 247.005C228.385 247.545 228.141 248.499 228.141 249.866L228.141 250.511Z"/>
<path d="M253.629 263.714L257.828 263.714C258.727 263.714 259.365 263.877 259.743 264.202C260.12 264.528 260.309 265.068 260.309 265.823C260.309 266.592 260.117 267.145 259.733 267.484C259.349 267.822 258.714 267.991 257.828 267.991L244.625 267.991C243.74 267.991 243.105 267.822 242.721 267.484C242.337 267.145 242.145 266.592 242.145 265.823C242.145 265.068 242.33 264.528 242.701 264.202C243.073 263.877 243.714 263.714 244.625 263.714L248.825 263.714L248.825 254.222L246.618 254.222C245.745 254.222 245.12 254.056 244.743 253.724C244.365 253.392 244.176 252.842 244.176 252.073C244.176 251.305 244.358 250.758 244.723 250.433C245.088 250.107 245.719 249.945 246.618 249.945L252.496 249.945C252.861 249.945 253.141 250.019 253.336 250.169C253.532 250.319 253.629 250.524 253.629 250.784L253.629 263.714ZM250.817 241.116C251.767 241.116 252.399 241.299 252.711 241.663C253.024 242.028 253.18 242.9 253.18 244.28C253.18 245.609 253.04 246.432 252.76 246.751C252.48 247.07 251.819 247.23 250.778 247.23C249.762 247.23 249.108 247.08 248.815 246.78C248.522 246.481 248.375 245.882 248.375 244.984C248.375 243.317 248.525 242.256 248.825 241.8C249.124 241.344 249.788 241.116 250.817 241.116Z"/>
<path d="M269.586 260.12C269.925 261.566 270.579 262.646 271.549 263.362C272.519 264.079 273.812 264.437 275.426 264.437C277.041 264.437 278.636 264.043 280.211 263.255C281.787 262.467 282.737 262.073 283.063 262.073C283.545 262.073 283.938 262.252 284.244 262.611C284.55 262.969 284.703 263.428 284.703 263.987C284.703 265.211 283.798 266.266 281.989 267.152C280.179 268.037 277.939 268.48 275.27 268.48C272.119 268.48 269.557 267.594 267.584 265.823C265.612 264.053 264.625 261.774 264.625 258.987C264.625 256.214 265.612 253.942 267.584 252.171C269.557 250.4 272.119 249.515 275.27 249.515C278.082 249.515 280.413 250.345 282.262 252.005C284.111 253.665 285.035 255.7 285.035 258.109C285.035 258.877 284.85 259.404 284.479 259.691C284.108 259.977 283.343 260.12 282.184 260.12L269.586 260.12ZM280.114 257.073C279.892 255.862 279.323 254.925 278.405 254.261C277.487 253.597 276.292 253.265 274.821 253.265C273.401 253.265 272.259 253.581 271.393 254.212C270.527 254.844 269.925 255.797 269.586 257.073L280.114 257.073Z"/>
<path d="M298.024 257.386L298.024 263.714L302.633 263.714C303.519 263.714 304.147 263.877 304.518 264.202C304.889 264.528 305.075 265.068 305.075 265.823C305.075 266.592 304.889 267.145 304.518 267.484C304.147 267.822 303.519 267.991 302.633 267.991L291.715 267.991C290.817 267.991 290.179 267.822 289.801 267.484C289.423 267.145 289.235 266.592 289.235 265.823C289.235 265.068 289.42 264.528 289.791 264.202C290.162 263.877 290.804 263.714 291.715 263.714L293.2 263.714L293.2 254.222L292.36 254.222C291.474 254.222 290.846 254.056 290.475 253.724C290.104 253.392 289.918 252.842 289.918 252.073C289.918 251.305 290.097 250.758 290.455 250.433C290.813 250.107 291.448 249.945 292.36 249.945L296.52 249.945C296.871 249.945 297.145 250.019 297.34 250.169C297.535 250.319 297.633 250.524 297.633 250.784L297.633 253.675C299.052 252.152 300.377 251.064 301.608 250.413C302.838 249.762 304.163 249.437 305.582 249.437C306.871 249.437 307.894 249.726 308.649 250.306C309.404 250.885 309.782 251.663 309.782 252.64C309.782 253.395 309.521 254.017 309 254.505C308.479 254.993 307.809 255.237 306.989 255.237C306.403 255.237 305.709 255.023 304.909 254.593C304.108 254.163 303.551 253.948 303.239 253.948C302.614 253.948 301.878 254.228 301.032 254.788C300.185 255.348 299.183 256.214 298.024 257.386Z"/>
</g>
<g opacity="1">
<path d="M21.23 378.434L21.7065 21.1193" fill="#ffffff" fill-rule="nonzero" stroke="none"/>
<path d="M21.6944 30.1257C21.6614 54.9392 21.23 378.434 21.23 378.434" fill="none" stroke="#000000" stroke-linecap="butt" stroke-linejoin="round" stroke-width="2"/>
<g fill="#000000" stroke="none">
<path d="M28.6904 33.1351L21.7064 21.1257L14.6905 33.1164L28.6904 33.1351Z" fill="#000000"/>
</g>
</g>
<g opacity="1">
<path d="M379.23 21.1193L379.706 378.434" fill="#ffffff" fill-rule="nonzero" stroke="none"/>
<path d="M379.694 369.428C379.661 344.614 379.23 21.1193 379.23 21.1193" fill="none" stroke="#000000" stroke-linecap="butt" stroke-linejoin="round" stroke-width="2"/>
<g fill="#000000" stroke="none">
<path d="M372.69 366.437L379.706 378.428L386.69 366.419L372.69 366.437Z" fill="#000000"/>
</g>
</g>
</g>
<g id="レイヤー-2" vectornator:layerName="レイヤー 2">
<path d="M140.145 213.021L262.659 213.021C280.048 213.021 294.144 224.777 294.144 239.278L294.144 290.669C294.144 305.171 280.048 316.927 262.659 316.927L140.145 316.927C122.756 316.927 108.659 305.171 108.659 290.669L108.659 239.278C108.659 224.777 122.756 213.021 140.145 213.021Z" fill="#ffffff" fill-rule="nonzero" opacity="1" stroke="#1e1616" stroke-linecap="butt" stroke-linejoin="round" stroke-width="1"/>
<path d="M109.544 268.873L67.0802 309.226L109.83 290.605" fill="#ffffff" fill-rule="nonzero" opacity="1" stroke="#1e1616" stroke-linecap="butt" stroke-linejoin="round" stroke-width="1"/>
<g fill="#1e1616" opacity="1" stroke="none">
<path d="M144.802 266.941L149.001 266.941C149.899 266.941 150.537 267.107 150.915 267.439C151.293 267.771 151.481 268.315 151.481 269.07C151.481 269.825 151.289 270.372 150.905 270.711C150.521 271.049 149.886 271.219 149.001 271.219L144.802 271.219L144.802 280.144L148.688 280.144C149.587 280.144 150.225 280.307 150.602 280.633C150.98 280.958 151.169 281.498 151.169 282.254C151.169 283.022 150.977 283.575 150.593 283.914C150.209 284.252 149.574 284.422 148.688 284.422L137.927 284.422C137.028 284.422 136.39 284.252 136.013 283.914C135.635 283.575 135.446 283.022 135.446 282.254C135.446 281.498 135.632 280.958 136.003 280.633C136.374 280.307 137.015 280.144 137.927 280.144L139.997 280.144L139.997 271.219L137.927 271.219C137.028 271.219 136.39 271.049 136.013 270.711C135.635 270.372 135.446 269.825 135.446 269.07C135.446 268.302 135.632 267.755 136.003 267.429C136.374 267.104 137.015 266.941 137.927 266.941L139.997 266.941L139.997 265.828C139.997 263.276 140.655 261.463 141.97 260.388C143.285 259.314 145.524 258.777 148.688 258.777C150.329 258.777 151.537 258.972 152.311 259.363C153.086 259.754 153.474 260.359 153.474 261.179C153.474 261.726 153.301 262.163 152.956 262.488C152.611 262.814 152.145 262.976 151.56 262.976C151.13 262.976 150.521 262.918 149.733 262.801C148.946 262.683 148.395 262.625 148.083 262.625C146.872 262.625 146.022 262.895 145.534 263.435C145.046 263.976 144.802 264.929 144.802 266.297L144.802 266.941Z"/>
<path d="M169.958 280.144L174.157 280.144C175.056 280.144 175.687 280.307 176.052 280.633C176.416 280.958 176.599 281.498 176.599 282.254C176.599 283.022 176.413 283.575 176.042 283.914C175.671 284.252 175.043 284.422 174.157 284.422L160.915 284.422C160.043 284.422 159.421 284.252 159.05 283.914C158.679 283.575 158.493 283.022 158.493 282.254C158.493 281.485 158.672 280.942 159.03 280.623C159.388 280.304 160.017 280.144 160.915 280.144L165.114 280.144L165.114 263.191L162.966 263.191C162.08 263.191 161.446 263.019 161.061 262.674C160.677 262.329 160.485 261.778 160.485 261.023C160.485 260.255 160.674 259.702 161.052 259.363C161.429 259.025 162.067 258.855 162.966 258.855L168.806 258.855C169.17 258.855 169.453 258.93 169.655 259.08C169.857 259.23 169.958 259.435 169.958 259.695L169.958 280.144Z"/>
<path d="M191.56 270.066C190.036 270.066 188.783 270.564 187.8 271.56C186.817 272.556 186.325 273.829 186.325 275.379C186.325 276.941 186.817 278.234 187.8 279.256C188.783 280.278 190.036 280.789 191.56 280.789C193.083 280.789 194.339 280.278 195.329 279.256C196.319 278.234 196.813 276.941 196.813 275.379C196.813 273.829 196.322 272.556 195.339 271.56C194.356 270.564 193.096 270.066 191.56 270.066ZM191.56 265.945C194.724 265.945 197.289 266.831 199.255 268.601C201.221 270.372 202.204 272.644 202.204 275.418C202.204 278.204 201.221 280.483 199.255 282.254C197.289 284.025 194.724 284.91 191.56 284.91C188.408 284.91 185.85 284.025 183.884 282.254C181.918 280.483 180.935 278.204 180.935 275.418C180.935 272.644 181.921 270.372 183.893 268.601C185.866 266.831 188.421 265.945 191.56 265.945Z"/>
<path d="M209.567 270.652L211.13 280.261L213.22 272.82C213.441 272.039 213.721 271.525 214.06 271.277C214.398 271.03 214.899 270.906 215.563 270.906C216.227 270.906 216.729 271.023 217.067 271.258C217.406 271.492 217.692 272.013 217.927 272.82L220.095 280.261L221.579 270.652L221.247 270.652C220.544 270.652 220.01 270.47 219.645 270.105C219.281 269.741 219.099 269.207 219.099 268.504C219.099 267.735 219.284 267.189 219.655 266.863C220.026 266.538 220.668 266.375 221.579 266.375L226.169 266.375C227.067 266.375 227.705 266.541 228.083 266.873C228.461 267.205 228.649 267.748 228.649 268.504C228.649 269.207 228.464 269.741 228.093 270.105C227.722 270.47 227.191 270.652 226.501 270.652L226.169 270.652L223.727 282.976C223.597 283.653 223.298 284.145 222.829 284.451C222.36 284.757 221.677 284.91 220.778 284.91C219.893 284.91 219.216 284.757 218.747 284.451C218.278 284.145 217.94 283.653 217.731 282.976L215.446 275.379L213.415 282.976C213.246 283.627 212.907 284.112 212.399 284.431C211.892 284.75 211.201 284.91 210.329 284.91C209.431 284.91 208.754 284.757 208.298 284.451C207.842 284.145 207.549 283.653 207.419 282.976L204.938 270.652L204.606 270.652C203.916 270.652 203.392 270.47 203.034 270.105C202.676 269.741 202.497 269.207 202.497 268.504C202.497 267.748 202.679 267.205 203.044 266.873C203.408 266.541 204.04 266.375 204.938 266.375L209.567 266.375C210.466 266.375 211.097 266.541 211.462 266.873C211.826 267.205 212.009 267.748 212.009 268.504C212.009 269.207 211.83 269.741 211.472 270.105C211.114 270.47 210.589 270.652 209.899 270.652L209.567 270.652Z"/>
<path d="M234.255 276.551C234.593 277.996 235.248 279.077 236.218 279.793C237.188 280.509 238.48 280.867 240.095 280.867C241.709 280.867 243.304 280.473 244.88 279.685C246.455 278.898 247.406 278.504 247.731 278.504C248.213 278.504 248.607 278.683 248.913 279.041C249.219 279.399 249.372 279.858 249.372 280.418C249.372 281.642 248.467 282.696 246.657 283.582C244.847 284.467 242.608 284.91 239.938 284.91C236.787 284.91 234.226 284.025 232.253 282.254C230.28 280.483 229.294 278.204 229.294 275.418C229.294 272.644 230.28 270.372 232.253 268.601C234.226 266.831 236.787 265.945 239.938 265.945C242.751 265.945 245.082 266.775 246.931 268.435C248.78 270.095 249.704 272.13 249.704 274.539C249.704 275.307 249.518 275.834 249.147 276.121C248.776 276.407 248.011 276.551 246.852 276.551L234.255 276.551ZM244.782 273.504C244.561 272.293 243.991 271.355 243.073 270.691C242.155 270.027 240.961 269.695 239.489 269.695C238.07 269.695 236.927 270.011 236.061 270.642C235.196 271.274 234.593 272.228 234.255 273.504L244.782 273.504Z"/>
<path d="M262.692 273.816L262.692 280.144L267.302 280.144C268.187 280.144 268.815 280.307 269.186 280.633C269.558 280.958 269.743 281.498 269.743 282.254C269.743 283.022 269.558 283.575 269.186 283.914C268.815 284.252 268.187 284.422 267.302 284.422L256.384 284.422C255.485 284.422 254.847 284.252 254.47 283.914C254.092 283.575 253.903 283.022 253.903 282.254C253.903 281.498 254.089 280.958 254.46 280.633C254.831 280.307 255.472 280.144 256.384 280.144L257.868 280.144L257.868 270.652L257.028 270.652C256.143 270.652 255.515 270.486 255.143 270.154C254.772 269.822 254.587 269.272 254.587 268.504C254.587 267.735 254.766 267.189 255.124 266.863C255.482 266.538 256.117 266.375 257.028 266.375L261.188 266.375C261.54 266.375 261.813 266.45 262.009 266.599C262.204 266.749 262.302 266.954 262.302 267.215L262.302 270.105C263.721 268.582 265.046 267.495 266.276 266.844C267.507 266.192 268.832 265.867 270.251 265.867C271.54 265.867 272.562 266.157 273.317 266.736C274.073 267.316 274.45 268.094 274.45 269.07C274.45 269.825 274.19 270.447 273.669 270.935C273.148 271.424 272.477 271.668 271.657 271.668C271.071 271.668 270.378 271.453 269.577 271.023C268.776 270.594 268.22 270.379 267.907 270.379C267.282 270.379 266.546 270.659 265.7 271.219C264.854 271.778 263.851 272.644 262.692 273.816Z"/>
</g>
<path d="M273.421 78.7723C273.421 74.2921 277.053 70.6601 281.533 70.6601C286.014 70.6601 289.645 74.2921 289.645 78.7723C289.645 83.2525 286.014 86.8844 281.533 86.8844C277.053 86.8844 273.421 83.2525 273.421 78.7723Z" fill="#ffffff" fill-rule="nonzero" opacity="1" stroke="#1e1616" stroke-linecap="butt" stroke-linejoin="round" stroke-width="1"/>
<path d="M290.946 69.977C290.946 66.9498 293.4 64.4958 296.427 64.4958C299.454 64.4958 301.908 66.9498 301.908 69.977C301.908 73.0041 299.454 75.4582 296.427 75.4582C293.4 75.4582 290.946 73.0041 290.946 69.977Z" fill="#ffffff" fill-rule="nonzero" opacity="1" stroke="#1e1616" stroke-linecap="butt" stroke-linejoin="round" stroke-width="1"/>
<path d="M126.453 118.756C126.453 77.465 159.925 43.9923 201.216 43.9923C242.507 43.9923 275.979 77.465 275.979 118.756C275.979 160.046 242.507 193.519 201.216 193.519C159.925 193.519 126.453 160.046 126.453 118.756Z" fill="#ffffff" fill-rule="nonzero" opacity="1" stroke="#1e1616" stroke-linecap="butt" stroke-linejoin="round" stroke-width="1"/>
</g>
<g id="レイヤー-3" vectornator:layerName="レイヤー 3">
<g opacity="1" vectornator:layerName="(curve)">
<path d="M203.259 86.2621C203.259 86.2621 200.491 105.455 199.88 128.917C199.269 152.38 198.609 186.278 198.609 186.278" fill="#ffffff" fill-rule="nonzero" opacity="1" stroke="#1e1616" stroke-linecap="butt" stroke-linejoin="round" stroke-width="1"/>
<path d="M198.807 185.971C198.807 185.971 183.817 171.365 178.593 155.973C173.369 140.581 167.319 123.46 167.319 123.46C167.319 123.46 186.208 134.995 191.432 150.387C196.656 165.779 198.807 185.971 198.807 185.971Z" fill="#ffffff" fill-rule="nonzero" opacity="1" stroke="#1e1616" stroke-linecap="butt" stroke-linejoin="round" stroke-width="1"/>
<path d="M198.462 185.928C198.462 185.928 199.873 166.206 208.707 152.174C217.541 138.142 242.152 131.349 242.152 131.349C242.152 131.349 230.986 142.459 222.152 156.491C213.318 170.523 198.462 185.928 198.462 185.928Z" fill="#ffffff" fill-rule="nonzero" opacity="1" stroke="#1e1616" stroke-linecap="butt" stroke-linejoin="round" stroke-width="1"/>
<path d="M185.037 70.4419C182.93 65.5793 186.115 56.8832 191.32 55.2033C196.525 53.5234 203.055 59.8571 205.162 64.7197C207.269 69.5823 204.058 76.7036 198.496 78.0525C192.933 79.4015 187.144 75.3045 185.037 70.4419Z" fill="#ffffff" fill-rule="nonzero" opacity="1" stroke="#1e1616" stroke-linecap="butt" stroke-linejoin="round" stroke-width="1"/>
<path d="M179.134 76.3871C185.258 74.7685 194.739 77.3594 195.999 82.7693C197.259 88.1792 191.52 91.8697 185.396 93.4883C179.272 95.1069 175.871 92.0651 174.306 87.7898C172.74 83.5145 173.01 78.0057 179.134 76.3871Z" fill="#ffffff" fill-rule="nonzero" opacity="1" stroke="#1e1616" stroke-linecap="butt" stroke-linejoin="round" stroke-width="1"/>
<path d="M194.636 99.3248C192.57 93.9235 195.581 85.1768 201.682 83.4578C207.784 81.7389 211.22 88.6075 213.286 94.0088C215.353 99.4102 211.953 106.029 207.757 107.255C203.562 108.481 196.703 104.726 194.636 99.3248Z" fill="#ffffff" fill-rule="nonzero" opacity="1" stroke="#1e1616" stroke-linecap="butt" stroke-linejoin="round" stroke-width="1"/>
<path d="M212.666 70.554C218.906 69.3889 224.753 73.4257 224.887 78.0358C225.021 82.6458 219.443 87.8289 213.204 88.9941C206.965 90.1592 203.356 87.2649 202.009 81.7457C200.662 76.2266 206.427 71.7191 212.666 70.554Z" fill="#ffffff" fill-rule="nonzero" opacity="1" stroke="#1e1616" stroke-linecap="butt" stroke-linejoin="round" stroke-width="1"/>
<path d="M191.032 75.8222C194.359 71.0406 199.596 69.9634 205.018 72.9384C210.439 75.9135 212.526 83.2966 209.199 88.0781C205.872 92.8597 200.346 94.0811 194.925 91.1061C189.503 88.1311 187.704 80.6038 191.032 75.8222Z" fill="#ffffff" fill-rule="nonzero" opacity="1" stroke="#1e1616" stroke-linecap="butt" stroke-linejoin="round" stroke-width="1"/>
</g>
</g>
</svg>
