<?xml version="1.0" encoding="UTF-8" standalone="no"?>
<!DOCTYPE svg PUBLIC "-//W3C//DTD SVG 1.1//EN" "http://www.w3.org/Graphics/SVG/1.1/DTD/svg11.dtd">
<!-- Created with Vectornator (http://vectornator.io/) -->
<svg height="100%" stroke-miterlimit="10" style="fill-rule:nonzero;clip-rule:evenodd;stroke-linecap:round;stroke-linejoin:round;" version="1.1" viewBox="0 0 70.875 70.875" width="100%" xml:space="preserve" xmlns="http://www.w3.org/2000/svg" xmlns:xlink="http://www.w3.org/1999/xlink">
<defs>
<filter color-interpolation-filters="sRGB" filterUnits="userSpaceOnUse" height="53.0301" id="Filter" width="61.9528" x="4.92655" y="5.15945">
<feComponentTransfer in="SourceGraphic" result="Alpha">
<feFuncA slope="0.998894" type="linear"/>
</feComponentTransfer>
<feDropShadow dx="0.106741" dy="0.280368" flood-color="#ffffff" flood-opacity="1" in="Alpha" result="Shadow" stdDeviation="0"/>
</filter>
</defs>
<g id="レイヤー-1-copy" opacity="0.922885">
<path d="M35.5627 1.23315L35.5627 1.23315C54.441 1.23315 69.745 16.5371 69.745 35.4155L69.745 35.4155C69.745 54.2939 54.441 69.5978 35.5627 69.5978L35.5627 69.5978C16.6843 69.5978 1.38032 54.2939 1.38032 35.4155L1.38032 35.4155C1.38032 16.5371 16.6843 1.23315 35.5627 1.23315Z" fill="#ffc992" fill-rule="nonzero" opacity="1" stroke="#000000" stroke-linecap="butt" stroke-linejoin="round" stroke-width="1.5"/>
<path d="M36.412 12.2869L36.412 12.2869C49.0398 12.2869 59.2767 22.5238 59.2767 35.1516L59.2767 35.1516C59.2767 47.7795 49.0398 58.0164 36.412 58.0164L36.412 58.0164C23.7841 58.0164 13.5472 47.7795 13.5472 35.1516L13.5472 35.1516C13.5472 22.5238 23.7841 12.2869 36.412 12.2869Z" fill="#9fc6fd" fill-rule="nonzero" opacity="1" stroke="#000000" stroke-linecap="butt" stroke-linejoin="round" stroke-width="1.38554"/>
</g>
<g id="レイヤー-2" visibility="hidden">
<path d="M12.7162 32.5249C12.7162 20.4102 25.1324 10.5892 40.4485 10.5892C55.7646 10.5892 68.1808 20.4102 68.1808 32.5249C68.1808 44.6397 55.7646 54.4606 40.4485 54.4606C25.1324 54.4606 12.7162 44.6397 12.7162 32.5249Z" fill="#c4c4dc" fill-rule="nonzero" opacity="1" stroke="#20018c" stroke-linecap="round" stroke-linejoin="round" stroke-width="1.4"/>
</g>
<clipPath id="ArtboardFrame">
<rect height="70.875" width="70.875" x="0" y="0"/>
</clipPath>
<g clip-path="url(#ArtboardFrame)" id="moji">
<g fill="#000000" filter="url(#Filter)" stroke="#fefefe" stroke-linecap="butt" stroke-linejoin="round" stroke-width="0.1">
<path d="M16.9058 53.2693C16.8144 53.1906 16.7482 53.1504 16.7073 53.1486C16.6664 53.1468 16.6292 53.1605 16.5957 53.1898L13.9119 55.5327L15.023 56.7136C15.0575 56.7502 15.0965 56.7662 15.14 56.7615C15.1836 56.7568 15.2503 56.7236 15.3403 56.6617L15.4178 56.7441L14.1405 57.8592L14.0629 57.7768C14.1357 57.6967 14.1766 57.636 14.1856 57.5947C14.1947 57.5534 14.182 57.5145 14.1476 57.4778L10.9563 54.0862C10.9219 54.0496 10.8829 54.0336 10.8393 54.0383C10.7958 54.0429 10.729 54.0762 10.6391 54.138L10.5616 54.0557L11.8389 52.9406L11.9164 53.023C11.8437 53.1031 11.8028 53.1638 11.7937 53.2051C11.7846 53.2464 11.7973 53.2853 11.8318 53.322L12.9429 54.5028L15.6267 52.1599C15.6602 52.1307 15.678 52.0964 15.6802 52.057C15.6823 52.0176 15.6473 51.9503 15.575 51.8549L15.6611 51.7798L16.9919 53.1941L16.9058 53.2693Z"/>
<path d="M10.6975 50.5562C10.7926 50.703 10.9058 50.8278 11.0372 50.9307C11.1686 51.0337 11.309 51.1093 11.4583 51.1577C11.6076 51.206 11.7602 51.2213 11.9161 51.2037C12.0721 51.186 12.2266 51.1309 12.3797 51.0383C12.5328 50.9458 12.6517 50.8356 12.7363 50.7079C12.8209 50.5801 12.8733 50.4409 12.8935 50.2901C12.9137 50.1393 12.9046 49.9843 12.8661 49.8252C12.8277 49.6661 12.7609 49.5131 12.6658 49.3664C12.5673 49.2144 12.4532 49.0882 12.3235 48.9879C12.1938 48.8876 12.0543 48.8133 11.905 48.7649C11.7557 48.7166 11.6031 48.7013 11.4471 48.7189C11.2912 48.7366 11.1366 48.7917 10.9835 48.8843C10.8304 48.9768 10.7116 49.087 10.627 49.2147C10.5424 49.3425 10.4899 49.4817 10.4697 49.6325C10.4495 49.7833 10.4578 49.937 10.4946 50.0935C10.5313 50.25 10.599 50.4042 10.6975 50.5562ZM9.82812 51.0817C9.66846 50.8354 9.54349 50.5663 9.45321 50.2744C9.36293 49.9825 9.32758 49.6902 9.34715 49.3975C9.36672 49.1048 9.45329 48.8246 9.60687 48.5567C9.76045 48.2888 9.99853 48.0573 10.3211 47.8623C10.6492 47.664 10.9701 47.5575 11.284 47.5428C11.5979 47.5281 11.8941 47.5771 12.1725 47.6896C12.4509 47.8021 12.7036 47.963 12.9306 48.1723C13.1576 48.3816 13.3509 48.6094 13.5105 48.8557C13.6702 49.1021 13.7979 49.3695 13.8936 49.6581C13.9894 49.9467 14.0288 50.2366 14.012 50.5276C13.9952 50.8186 13.9113 51.0972 13.7605 51.3635C13.6096 51.6297 13.3702 51.862 13.0421 52.0603C12.7196 52.2553 12.3999 52.361 12.0833 52.3773C11.7667 52.3936 11.4678 52.3464 11.1866 52.2355C10.9055 52.1246 10.6487 51.9662 10.4163 51.7602C10.1838 51.5542 9.98778 51.3281 9.82812 51.0817Z"/>
<path d="M10.995 44.2419C10.9784 44.2017 10.9487 44.155 10.9058 44.1016C10.8629 44.0483 10.8085 44.0344 10.7427 44.06C10.7248 44.067 10.6897 44.1039 10.6375 44.1709C10.5854 44.2378 10.5239 44.32 10.4531 44.4175C10.3823 44.515 10.304 44.6238 10.2183 44.7438C10.1325 44.8638 10.0515 44.9786 9.9753 45.0882C9.89911 45.1978 9.83042 45.2962 9.76923 45.3833C9.70804 45.4704 9.66125 45.5336 9.62888 45.5728L10.6927 46.0294L11.4285 45.7434C11.4943 45.7178 11.5255 45.6757 11.5221 45.617C11.5187 45.5584 11.5081 45.4992 11.4903 45.4394L11.598 45.3976L12.2643 47.0086L12.1566 47.0504C12.1412 46.9964 12.112 46.9511 12.0691 46.9144C12.0262 46.8778 11.9718 46.8722 11.906 46.8978L8.49587 48.223C8.43006 48.2486 8.39469 48.289 8.38976 48.3443C8.38484 48.3995 8.39605 48.4518 8.42341 48.5012L8.31573 48.543L7.64945 46.932L7.75713 46.8902C7.78687 46.9453 7.8214 46.9952 7.86073 47.0399C7.90005 47.0846 7.95262 47.0942 8.01843 47.0686L9.66964 46.4269C9.55623 46.371 9.42134 46.3051 9.26496 46.2292C9.10858 46.1533 8.94533 46.0734 8.77523 45.9896C8.60512 45.9057 8.4371 45.8226 8.27118 45.7405C8.10525 45.6583 7.95214 45.5861 7.81186 45.524C7.67158 45.4618 7.55607 45.4134 7.46532 45.3787C7.37457 45.3439 7.32022 45.33 7.30227 45.337C7.23646 45.3626 7.20468 45.4033 7.20692 45.4591C7.20916 45.5149 7.21679 45.5669 7.22981 45.6152L7.12212 45.657L6.42734 43.9771L6.53503 43.9352C6.58262 44.0167 6.69176 44.1043 6.86244 44.198C7.03312 44.2917 7.22381 44.3875 7.43452 44.4857C7.64523 44.5838 7.85833 44.6793 8.07384 44.7722C8.28934 44.8651 8.46453 44.9487 8.5994 45.0229L10.2155 42.7349C10.2515 42.6876 10.272 42.6447 10.2768 42.6061C10.2817 42.5675 10.2788 42.527 10.2682 42.4845L10.3759 42.4426L11.1027 44.2001L10.995 44.2419Z"/>
<path d="M9.60727 39.9247C9.67665 39.9107 9.71632 39.8805 9.72626 39.8343C9.7362 39.788 9.73983 39.743 9.73716 39.6993L9.8507 39.6763L10.1895 41.277L10.0759 41.3C10.0606 41.2588 10.039 41.2189 10.0111 41.1803C9.98322 41.1417 9.93457 41.1294 9.86519 41.1434L8.64464 41.3903L6.56171 43.6231C6.529 43.655 6.51243 43.701 6.512 43.7612C6.51158 43.8213 6.51522 43.8696 6.52291 43.906L6.40938 43.9289L5.99555 41.9735L6.10909 41.9506C6.11679 41.9869 6.13082 42.0299 6.15119 42.0796C6.17156 42.1292 6.20698 42.1489 6.25744 42.1387C6.28898 42.1323 6.34123 42.0917 6.41419 42.0169C6.48716 41.9421 6.57458 41.8501 6.67646 41.741C6.77835 41.6318 6.88619 41.512 6.99999 41.3815C7.11379 41.251 7.22415 41.1275 7.33105 41.0111C7.27546 40.997 7.1756 40.9603 7.03148 40.9009C6.88736 40.8416 6.73597 40.7789 6.57732 40.713C6.41866 40.6471 6.27486 40.5892 6.14592 40.5394C6.01698 40.4896 5.93674 40.4679 5.90521 40.4743C5.85474 40.4845 5.82992 40.5148 5.83072 40.5653C5.83152 40.6157 5.83513 40.656 5.84155 40.6864L5.72801 40.7093L5.34691 38.9085L5.46045 38.8856C5.46686 38.9159 5.48215 38.9571 5.50632 39.0091C5.53048 39.0611 5.56405 39.0954 5.60703 39.112L8.34887 40.1792L9.60727 39.9247Z"/>
<path d="M6.21905 36.1235C6.22344 36.2969 6.25494 36.4602 6.31356 36.6133C6.37218 36.7665 6.45285 36.9005 6.55557 37.0152C6.65829 37.1298 6.78126 37.2176 6.92448 37.2784C7.0677 37.3392 7.2294 37.3669 7.40958 37.3615C7.58976 37.3561 7.74981 37.3188 7.88973 37.2495C8.02966 37.1802 8.148 37.0853 8.24477 36.9646C8.34153 36.844 8.4153 36.7054 8.46607 36.549C8.51685 36.3925 8.54004 36.2276 8.53565 36.0542C8.5311 35.8746 8.49956 35.7097 8.44102 35.5596C8.38248 35.4095 8.30185 35.2771 8.19913 35.1625C8.0964 35.0478 7.97343 34.96 7.83022 34.8992C7.687 34.8384 7.5253 34.8107 7.34512 34.8161C7.16494 34.8215 7.00489 34.8588 6.86496 34.9281C6.72504 34.9974 6.6067 35.0923 6.50993 35.213C6.41317 35.3336 6.33936 35.4706 6.28851 35.624C6.23765 35.7774 6.2145 35.9439 6.21905 36.1235ZM5.19588 36.1541C5.18851 35.863 5.22292 35.5691 5.29913 35.2724C5.37533 34.9758 5.4989 34.7056 5.66982 34.4618C5.84075 34.2181 6.06268 34.0178 6.33563 33.8609C6.60857 33.704 6.93487 33.6198 7.31454 33.6085C7.70064 33.5969 8.03232 33.6614 8.30957 33.8018C8.58682 33.9423 8.81534 34.1291 8.99512 34.3624C9.17491 34.5956 9.30713 34.8582 9.3918 35.15C9.47647 35.4419 9.52249 35.7334 9.52986 36.0244C9.53723 36.3155 9.50604 36.6093 9.43626 36.9058C9.36649 37.2022 9.24775 37.4723 9.08005 37.7159C8.91234 37.9596 8.69362 38.1598 8.4239 38.3166C8.15418 38.4734 7.82626 38.5576 7.44016 38.5691C7.06049 38.5805 6.73043 38.516 6.44996 38.3756C6.16949 38.2353 5.93775 38.0485 5.75475 37.8154C5.57175 37.5822 5.4347 37.3198 5.34359 37.0282C5.25249 36.7365 5.20325 36.4451 5.19588 36.1541Z"/>
<path d="M9.81772 30.6259C9.83208 30.5082 9.82832 30.4328 9.80644 30.3996C9.78456 30.3664 9.75164 30.3452 9.70769 30.3359L5.31861 29.411C5.27465 29.4017 5.23536 29.4078 5.20073 29.429C5.1661 29.4503 5.12905 29.5171 5.08957 29.6295L4.97655 29.6057L5.41431 27.7353L5.52734 27.7591C5.51298 27.8767 5.51674 27.9522 5.53862 27.9854C5.5605 28.0186 5.59342 28.0398 5.63737 28.0491L10.0265 28.974C10.0704 28.9832 10.1097 28.9772 10.1443 28.9559C10.179 28.9346 10.216 28.8678 10.2555 28.7555L10.3685 28.7793L9.93075 30.6497L9.81772 30.6259Z"/>
<path d="M12.0674 23.5026C12.133 23.5278 12.1844 23.5208 12.2217 23.4816C12.2589 23.4424 12.2951 23.3894 12.33 23.3226L12.4374 23.3638L11.7661 24.9615L11.6588 24.9203C11.6781 24.8742 11.6945 24.8187 11.708 24.7537C11.7215 24.6886 11.7014 24.6458 11.6477 24.6252C11.594 24.6046 11.4675 24.6296 11.2681 24.7001C11.0687 24.7707 10.82 24.864 10.5218 24.9802C10.2236 25.0964 9.88973 25.2274 9.52026 25.373C9.1508 25.5187 8.76614 25.6552 8.36628 25.7825L8.37692 25.8066L10.7212 26.7066C10.7868 26.7318 10.8377 26.7262 10.8737 26.6899C10.9097 26.6536 10.944 26.6049 10.9766 26.5439L11.084 26.5851L10.4635 28.0619L10.3561 28.0206C10.3744 27.9608 10.3836 27.9058 10.3838 27.8558C10.3841 27.8057 10.3514 27.7681 10.2858 27.7429L6.88568 26.4376C6.82006 26.4124 6.76863 26.4194 6.73138 26.4586C6.69413 26.4978 6.65922 26.5479 6.62665 26.609L6.51928 26.5677L7.38287 24.5124L7.49024 24.5536C7.47927 24.5962 7.47427 24.6411 7.47523 24.6882C7.47619 24.7354 7.50948 24.7716 7.5751 24.7968C7.58703 24.8013 7.66813 24.7773 7.81839 24.7247C7.96866 24.6721 8.15875 24.603 8.38867 24.5174C8.61859 24.4318 8.87366 24.3358 9.15388 24.2295C9.4341 24.1231 9.71432 24.0167 9.99455 23.9103L8.23186 23.2336C8.16624 23.2085 8.11481 23.2155 8.07756 23.2546C8.04032 23.2938 8.0042 23.3468 7.9692 23.4136L7.86183 23.3724L8.50045 21.8525L8.60782 21.8937C8.58476 21.9651 8.5725 22.0272 8.57104 22.0801C8.56959 22.1331 8.60167 22.1721 8.66728 22.1973L12.0674 23.5026Z"/>
<path d="M11.379 22.5282C11.3899 22.5347 11.4013 22.5433 11.4133 22.5541C11.4252 22.5649 11.4421 22.5767 11.4639 22.5897C11.5185 22.6223 11.6027 22.6031 11.7167 22.5321C11.8307 22.4612 11.9586 22.3601 12.1002 22.2289C12.2419 22.0978 12.3839 21.9485 12.5263 21.7812C12.6687 21.6139 12.7911 21.4511 12.8936 21.2929C12.9243 21.2454 12.9634 21.1792 13.0109 21.0942C13.0584 21.0092 13.0954 20.9198 13.1221 20.8261C13.1488 20.7323 13.1569 20.6439 13.1464 20.5609C13.1358 20.4779 13.0897 20.412 13.0078 20.3632C12.8987 20.2982 12.78 20.3151 12.6516 20.4141C12.5233 20.513 12.3845 20.6514 12.2353 20.8292C12.0861 21.0071 11.9253 21.2 11.7528 21.4079C11.5804 21.6157 11.3978 21.7956 11.2049 21.9475C11.012 22.0993 10.8105 22.2003 10.6003 22.2504C10.3901 22.3006 10.1705 22.2574 9.94131 22.1208C9.81581 22.046 9.70126 21.9338 9.59766 21.7844C9.49405 21.6349 9.42663 21.4558 9.39539 21.2472C9.36415 21.0385 9.38155 20.7985 9.44758 20.5272C9.51361 20.2559 9.65079 19.9594 9.85913 19.6377C9.98207 19.4478 10.11 19.2737 10.2428 19.1153C10.3756 18.9569 10.5009 18.816 10.6187 18.6925C10.7365 18.569 10.8379 18.4649 10.9229 18.3804C11.0079 18.2958 11.064 18.2325 11.0914 18.1903C11.1187 18.1481 11.1286 18.1065 11.1211 18.0655C11.1137 18.0245 11.1086 17.9885 11.1059 17.9577L11.195 17.8902L11.9188 18.9795L11.8031 19.0531C11.7922 19.0466 11.7794 19.0371 11.7647 19.0247C11.7501 19.0123 11.7346 19.0012 11.7182 18.9915C11.6964 18.9785 11.6486 18.9939 11.5749 19.0376C11.5012 19.0814 11.4146 19.145 11.3153 19.2283C11.216 19.3116 11.1122 19.4106 11.004 19.5252C10.8957 19.6397 10.7972 19.7656 10.7084 19.9027C10.6777 19.9502 10.6312 20.0248 10.5691 20.1266C10.5069 20.2285 10.4557 20.3368 10.4153 20.4516C10.375 20.5665 10.3532 20.676 10.3501 20.7801C10.347 20.8842 10.3918 20.9639 10.4845 21.0192C10.5827 21.0777 10.6933 21.0559 10.8162 20.9537C10.9391 20.8515 11.0751 20.7115 11.2243 20.5337C11.3735 20.3558 11.5357 20.1637 11.7109 19.9575C11.886 19.7512 12.0714 19.573 12.267 19.4228C12.4626 19.2725 12.6682 19.174 12.8838 19.1271C13.0995 19.0802 13.3273 19.1283 13.5674 19.2714C13.7256 19.3657 13.8548 19.4902 13.955 19.645C14.0552 19.7997 14.1138 19.9808 14.1307 20.1883C14.1476 20.3957 14.1138 20.6259 14.0294 20.8789C13.9449 21.132 13.8054 21.4088 13.6107 21.7094C13.4878 21.8992 13.3508 22.0844 13.1999 22.2649C13.049 22.4454 12.9029 22.6069 12.7615 22.7492C12.6202 22.8916 12.4995 23.0079 12.3995 23.0981C12.2995 23.1883 12.2443 23.2413 12.2341 23.2572C12.2102 23.2941 12.2011 23.3344 12.2069 23.378C12.2127 23.4216 12.2206 23.4648 12.2308 23.5074L12.1499 23.5798L11.2633 22.6017L11.379 22.5282Z"/>
<path d="M14.2326 14.305C14.2581 14.2769 14.2739 14.2407 14.2801 14.1963C14.2862 14.152 14.2554 14.1014 14.1877 14.0447L14.2641 13.9604L15.3235 14.8487L15.247 14.933C15.1793 14.8762 15.123 14.8538 15.0782 14.8657C15.0334 14.8775 14.9982 14.8975 14.9727 14.9256L14.0618 15.9302L16.2966 17.8044C16.3499 17.849 16.3996 17.8598 16.446 17.8369C16.4924 17.8139 16.535 17.7857 16.5738 17.7523L16.6608 17.8253L15.5142 19.0899L15.4271 19.0169C15.4563 18.9753 15.4795 18.9309 15.4969 18.8836C15.5142 18.8363 15.4963 18.7904 15.443 18.7458L13.2082 16.8716L12.2973 17.8763C12.2718 17.9044 12.256 17.9406 12.2499 17.9849C12.2438 18.0292 12.2745 18.0798 12.3423 18.1366L12.2658 18.2209L11.2065 17.3325L11.2829 17.2482C11.3506 17.305 11.4069 17.3275 11.4517 17.3156C11.4966 17.3037 11.5317 17.2837 11.5572 17.2556L14.2326 14.305Z"/>
<path d="M16.3032 12.6796C16.2356 12.7467 16.1879 12.8049 16.1601 12.8541C16.1323 12.9033 16.142 12.9531 16.1893 13.0035L18.6393 15.6166C18.6866 15.667 18.737 15.6814 18.7907 15.6597C18.8443 15.638 18.9092 15.5982 18.9854 15.5403L19.0627 15.6228L17.6397 16.8608L17.5623 16.7783C17.6299 16.7112 17.6776 16.653 17.7054 16.6038C17.7332 16.5547 17.7235 16.5048 17.6762 16.4544L15.2262 13.8413C15.1789 13.7909 15.1284 13.7765 15.0748 13.7982C15.0212 13.8199 14.9563 13.8597 14.8801 13.9176L14.8028 13.8351L16.2258 12.5971L16.3032 12.6796Z"/>
<path d="M20.5248 9.58602C20.5568 9.56499 20.5815 9.53373 20.5991 9.49226C20.6167 9.45079 20.6002 9.3943 20.5497 9.32277L20.6457 9.25967L21.4355 10.3785L21.3395 10.4416C21.289 10.3701 21.2406 10.3346 21.1942 10.3352C21.1478 10.3358 21.1086 10.3466 21.0766 10.3677L19.9329 11.1197L21.5991 13.48C21.6388 13.5361 21.6841 13.5588 21.7349 13.5478C21.7857 13.5368 21.8342 13.5199 21.8805 13.4969L21.9454 13.5889L20.5058 14.5355L20.4409 14.4435C20.48 14.4104 20.5141 14.373 20.5432 14.3314C20.5724 14.2897 20.5671 14.2408 20.5275 14.1846L18.8613 11.8244L17.7176 12.5764C17.6856 12.5974 17.6608 12.6287 17.6433 12.6701C17.6257 12.7116 17.6422 12.7681 17.6927 12.8396L17.5967 12.9027L16.8069 11.7839L16.9028 11.7208C16.9533 11.7923 17.0018 11.8278 17.0482 11.8272C17.0946 11.8266 17.1338 11.8158 17.1658 11.7947L20.5248 9.58602Z"/>
<path d="M21.7799 9.2052C21.7515 9.14294 21.7084 9.11404 21.6505 9.1185C21.5926 9.12296 21.527 9.13749 21.4537 9.1621L21.4072 9.06023L22.9994 8.37927L23.0459 8.48114C23.019 8.49941 22.9917 8.5246 22.9641 8.55671C22.9364 8.58882 22.9368 8.63601 22.9652 8.69826L23.9058 10.7612C24.0039 10.9762 24.1553 11.0958 24.36 11.1198C24.5648 11.1438 24.7998 11.0991 25.0652 10.9856C25.3306 10.8721 25.523 10.734 25.6426 10.5712C25.7622 10.4085 25.773 10.2196 25.6749 10.0045L24.7343 7.94165C24.7059 7.87939 24.6701 7.84734 24.627 7.84549C24.5839 7.84365 24.5463 7.8462 24.5142 7.85315L24.4678 7.75128L26.0599 7.07032L26.1064 7.17219C26.0382 7.20812 25.9829 7.24529 25.9406 7.28371C25.8982 7.32212 25.8912 7.37246 25.9196 7.43471L26.7712 9.30236C26.8744 9.52874 26.9364 9.75752 26.9573 9.9887C26.9781 10.2199 26.9431 10.4445 26.8523 10.6626C26.7615 10.8807 26.6021 11.0875 26.3742 11.283C26.1462 11.4786 25.8376 11.6596 25.4484 11.826C25.0592 11.9925 24.7132 12.0914 24.4105 12.1229C24.1077 12.1543 23.8425 12.1291 23.6149 12.0472C23.3873 11.9653 23.1923 11.839 23.0299 11.6684C22.8675 11.4977 22.7347 11.2992 22.6315 11.0728L21.7799 9.2052Z"/>
<path d="M30.7553 5.91542C30.7928 5.90638 30.8273 5.88532 30.8587 5.85224C30.8902 5.81915 30.8952 5.76054 30.8739 5.6764L30.9864 5.64927L31.3202 6.96546L31.2076 6.99259C31.1863 6.90845 31.1538 6.85888 31.1102 6.84388C31.0665 6.82888 31.026 6.82591 30.9885 6.83495L29.647 7.15822L30.351 9.93483C30.3678 10.0009 30.4019 10.0374 30.4533 10.0441C30.5048 10.0508 30.5563 10.0512 30.6079 10.0451L30.6353 10.1533L28.9468 10.5602L28.9193 10.452C28.9678 10.434 29.0133 10.4103 29.0556 10.3809C29.0979 10.3516 29.1107 10.3039 29.0939 10.2378L28.3899 7.46115L27.0485 7.78443C27.0109 7.79347 26.9765 7.81453 26.945 7.84762C26.9136 7.8807 26.9086 7.93931 26.9299 8.02345L26.8173 8.05058L26.4836 6.73439L26.5962 6.70726C26.6175 6.7914 26.65 6.84097 26.6936 6.85597C26.7372 6.87097 26.7778 6.87394 26.8153 6.8649L30.7553 5.91542Z"/>
<path d="M36.1657 8.70214C36.2941 8.69284 36.3721 8.60956 36.3996 8.45231L36.5152 8.44393L36.6017 9.65802L36.5054 9.665C36.4671 9.58083 36.4299 9.53384 36.3937 9.52404C36.3575 9.51424 36.3008 9.51213 36.2238 9.51771L31.9276 9.82888L31.9196 9.71766C31.9898 9.70637 32.0516 9.68948 32.1048 9.66699C32.1581 9.6445 32.1823 9.59927 32.1775 9.53131L31.9266 6.00952C31.9217 5.94155 31.8913 5.90028 31.8354 5.8857C31.7795 5.87111 31.716 5.86329 31.645 5.86223L31.637 5.75102L36.0103 5.43427C36.0488 5.43148 36.0865 5.41633 36.1233 5.38883C36.16 5.36132 36.1753 5.30432 36.1692 5.21782L36.2848 5.20945L36.3733 6.45134L36.2577 6.45971C36.2511 6.36704 36.2275 6.30819 36.187 6.28318C36.1465 6.25816 36.107 6.24705 36.0684 6.24984L33.2556 6.45356L33.3091 7.20426L35.1201 7.0731C35.1586 7.07031 35.1962 7.05362 35.2327 7.02302C35.2693 6.99243 35.2845 6.93388 35.2783 6.84738L35.3939 6.83901L35.4797 8.04383L35.3641 8.0522C35.358 7.9657 35.3346 7.90995 35.2941 7.88493C35.2536 7.85992 35.2141 7.84881 35.1756 7.8516L33.3646 7.98276L33.43 8.90028L36.1657 8.70214Z"/>
<path d="M42.6019 7.06634C42.4259 7.02998 42.2535 7.02132 42.0845 7.04036C41.9156 7.05939 41.7606 7.10353 41.6196 7.17277C41.4787 7.242 41.3599 7.33645 41.2633 7.4561C41.1667 7.57575 41.0989 7.7204 41.06 7.89004C41.021 8.05968 41.0192 8.21795 41.0546 8.36487C41.09 8.51179 41.1566 8.64454 41.2545 8.76312C41.3523 8.8817 41.4739 8.98296 41.6192 9.06692C41.7645 9.15088 41.9251 9.21104 42.1011 9.24739C42.2834 9.28505 42.4574 9.29403 42.6232 9.27434C42.789 9.25466 42.9424 9.2102 43.0834 9.14096C43.2243 9.07172 43.3431 8.97728 43.4397 8.85763C43.5363 8.73797 43.6041 8.59333 43.643 8.42369C43.682 8.25405 43.6838 8.09577 43.6484 7.94885C43.613 7.80193 43.5464 7.66918 43.4485 7.55061C43.3507 7.43203 43.2307 7.33109 43.0885 7.24778C42.9464 7.16447 42.7842 7.10399 42.6019 7.06634ZM42.8231 6.10304C43.1185 6.16406 43.4064 6.26479 43.6868 6.40523C43.9673 6.54566 44.2093 6.72418 44.4131 6.94078C44.6168 7.15738 44.7641 7.41151 44.8552 7.70319C44.9462 7.99487 44.9507 8.31943 44.8686 8.67688C44.7851 9.04039 44.6384 9.33531 44.4285 9.56163C44.2185 9.78795 43.9738 9.95791 43.6942 10.0715C43.4147 10.1851 43.1173 10.2474 42.8021 10.2584C42.4869 10.2695 42.1816 10.2445 41.8862 10.1834C41.5908 10.1224 41.3022 10.0247 41.0204 9.89032C40.7385 9.75595 40.4954 9.58197 40.291 9.36841C40.0866 9.15484 39.9385 8.90373 39.8468 8.61508C39.7551 8.32643 39.751 8.00035 39.8344 7.63685C39.9165 7.27939 40.0629 6.98599 40.2735 6.75664C40.4842 6.52729 40.7296 6.3543 41.0098 6.23768C41.29 6.12106 41.5885 6.05421 41.9051 6.03713C42.2217 6.02004 42.5277 6.04201 42.8231 6.10304Z"/>
<path d="M45.9537 7.21606C45.9803 7.15273 45.9733 7.10327 45.9328 7.06768C45.8924 7.0321 45.8316 6.9954 45.7505 6.9576L45.794 6.85396L49.6865 8.3476C49.7223 8.36133 49.7629 8.36355 49.8084 8.35426C49.8538 8.34496 49.8935 8.30001 49.9274 8.2194L50.0347 8.2606L49.5342 9.45245L49.4268 9.41125C49.4631 9.32488 49.4688 9.26188 49.4438 9.22223C49.4189 9.18259 49.3886 9.1559 49.3528 9.14216L46.9278 8.21164L46.5905 9.01484L48.228 9.6432C48.2638 9.65693 48.3044 9.65915 48.3499 9.64986C48.3954 9.64056 48.435 9.59561 48.4689 9.515L48.5763 9.55621L48.0902 10.7135L47.9828 10.6723C48.0191 10.5859 48.0248 10.5229 47.9999 10.4833C47.975 10.4436 47.9446 10.417 47.9088 10.4032L46.2713 9.77486L45.7744 10.9581C45.7478 11.0214 45.7547 11.0709 45.7952 11.1064C45.8357 11.142 45.8905 11.1764 45.9597 11.2097L45.9161 11.3133L44.216 10.6609L44.2595 10.5573C44.3335 10.579 44.398 10.5904 44.453 10.5914C44.5079 10.5924 44.5487 10.5613 44.5753 10.498L45.9537 7.21606Z"/>
<path d="M51.8819 14.2918C51.9858 14.3544 52.0582 14.3832 52.0989 14.3783C52.1395 14.3735 52.1738 14.3539 52.2018 14.3197L54.4394 11.5771L53.1359 10.595C53.0955 10.5645 53.0542 10.5551 53.012 10.5668C52.9699 10.5784 52.9099 10.622 52.832 10.6975L52.741 10.629L53.806 9.32369L53.8969 9.39221C53.8392 9.48294 53.8095 9.54935 53.8078 9.59147C53.806 9.63358 53.8254 9.66987 53.8658 9.70032L57.6095 12.5211C57.6499 12.5515 57.6912 12.5609 57.7334 12.5493C57.7755 12.5376 57.8355 12.494 57.9134 12.4185L58.0044 12.4871L56.9394 13.7924L56.8485 13.7238C56.9062 13.6331 56.9359 13.5667 56.9376 13.5246C56.9394 13.4825 56.92 13.4462 56.8796 13.4157L55.5761 12.4336L53.3385 15.1762C53.3106 15.2104 53.299 15.2471 53.3038 15.2862C53.3086 15.3254 53.355 15.386 53.443 15.4681L53.3712 15.5561L51.8101 14.3798L51.8819 14.2918Z"/>
<path d="M57.94 18.9044C58.0253 18.9967 58.141 19.005 58.2871 18.9293L58.3639 19.0123L57.4163 19.8249L57.3524 19.7557C57.3986 19.6748 57.4148 19.6175 57.4009 19.5838C57.3871 19.5502 57.3547 19.5057 57.3035 19.4503L54.4509 16.3635L54.5377 16.2891C54.5894 16.3357 54.6406 16.3724 54.6913 16.3992C54.742 16.426 54.7939 16.4167 54.847 16.3712L57.5955 14.014C57.6486 13.9685 57.6642 13.9199 57.6424 13.8683C57.6207 13.8167 57.5887 13.7634 57.5466 13.7085L57.6334 13.6341L60.5372 16.7763C60.5628 16.804 60.598 16.8234 60.6429 16.8345C60.6878 16.8457 60.744 16.8223 60.8115 16.7644L60.8882 16.8474L59.919 17.6787L59.8422 17.5956C59.9146 17.5336 59.9488 17.4794 59.9449 17.4331C59.941 17.3868 59.9263 17.3498 59.9007 17.3221L58.0331 15.3012L57.4472 15.8037L58.6496 17.1048C58.6752 17.1325 58.7117 17.1509 58.7589 17.16C58.8062 17.169 58.8636 17.1446 58.9311 17.0867L59.0079 17.1698L58.0676 17.9762L57.9908 17.8931C58.0583 17.8352 58.0902 17.7831 58.0863 17.7368C58.0824 17.6906 58.0676 17.6536 58.0421 17.6259L56.8396 16.3247L56.1235 16.9388L57.94 18.9044Z"/>
<path d="M61.81 21.6694L61.799 21.5244C61.8244 21.5169 61.8507 21.5107 61.8777 21.5059C61.9048 21.501 61.9322 21.4906 61.9598 21.4746C61.993 21.4554 62.0112 21.3998 62.0143 21.3079C62.0175 21.216 62.005 21.1079 61.9768 20.9836C61.9486 20.8594 61.908 20.7243 61.8551 20.5783C61.8021 20.4323 61.7345 20.293 61.6523 20.1604C61.5602 20.0119 61.447 19.8719 61.3129 19.7405C61.1788 19.6091 61.0338 19.5056 60.8779 19.4301C60.722 19.3545 60.5571 19.313 60.3833 19.3055C60.2095 19.2979 60.034 19.3454 59.857 19.4479C59.6855 19.5472 59.5607 19.6734 59.4828 19.8266C59.4049 19.9799 59.3637 20.1407 59.3591 20.3091C59.3546 20.4776 59.3807 20.6499 59.4373 20.8261C59.494 21.0024 59.5684 21.1648 59.6605 21.3133C59.7592 21.4724 59.8729 21.6103 60.0016 21.7268C60.1303 21.8433 60.2574 21.9392 60.3829 22.0143C60.5084 22.0894 60.6192 22.1407 60.7151 22.168C60.811 22.1954 60.8728 22.2011 60.9005 22.1851L60.9752 22.1418C61.0084 22.1226 61.0316 22.1056 61.0449 22.0906L61.1573 22.1445L60.4891 23.5585L60.3718 23.4966C60.4031 23.4137 60.4072 23.3536 60.3842 23.3165C60.371 23.2953 60.3107 23.2527 60.2034 23.1887C60.096 23.1247 59.9628 23.0342 59.8038 22.9172C59.6447 22.8002 59.4781 22.6497 59.3039 22.4658C59.1297 22.2819 58.9636 22.0627 58.8057 21.8081C58.6248 21.5163 58.4784 21.2136 58.3665 20.8999C58.2547 20.5862 58.2046 20.2782 58.2163 19.9758C58.2281 19.6735 58.3117 19.3872 58.4674 19.1169C58.6231 18.8465 58.8724 18.6121 59.2154 18.4136C59.5529 18.2182 59.8818 18.118 60.2019 18.1129C60.5221 18.1078 60.8243 18.1708 61.1085 18.3018C61.3928 18.4328 61.6559 18.6175 61.8978 18.856C62.1396 19.0944 62.351 19.3595 62.532 19.6513C62.6406 19.8263 62.7306 20.0048 62.8022 20.1869C62.8737 20.3689 62.9357 20.5385 62.988 20.6956C63.0404 20.8528 63.0826 20.9905 63.1147 21.1089C63.1467 21.2273 63.1759 21.3077 63.2022 21.3502C63.2187 21.3767 63.2418 21.3958 63.2716 21.4074C63.3013 21.419 63.3278 21.4253 63.351 21.4263L63.377 21.541L61.81 21.6694Z"/>
<path d="M60.706 24.7874C60.6394 24.8109 60.6058 24.8491 60.605 24.9021C60.6043 24.955 60.614 25.0174 60.6341 25.0893L60.5251 25.1278L59.9034 23.4705L60.0124 23.432C60.0446 23.4997 60.0786 23.5535 60.1142 23.5936C60.1498 23.6338 60.2009 23.642 60.2675 23.6185L63.7194 22.3993C63.7861 22.3758 63.8197 22.3376 63.8204 22.2846C63.8212 22.2317 63.8114 22.1692 63.7913 22.0973L63.9003 22.0588L64.5221 23.7161L64.4131 23.7546C64.3808 23.687 64.3469 23.6331 64.3113 23.593C64.2757 23.5529 64.2246 23.5446 64.1579 23.5682L63.0134 23.9724L63.7366 25.9001L64.8811 25.4959C64.9477 25.4724 64.9814 25.4341 64.9821 25.3812C64.9828 25.3282 64.9731 25.2658 64.953 25.1939L65.062 25.1554L65.6838 26.8127L65.5748 26.8512C65.5425 26.7836 65.5086 26.7297 65.473 26.6896C65.4374 26.6495 65.3862 26.6412 65.3196 26.6647L61.8677 27.8839C61.8011 27.9075 61.7674 27.9457 61.7667 27.9986C61.766 28.0516 61.7757 28.114 61.7958 28.1859L61.6868 28.2244L61.0651 26.5671L61.1741 26.5286C61.2063 26.5962 61.2403 26.6501 61.2759 26.6902C61.3115 26.7303 61.3626 26.7386 61.4292 26.7151L62.81 26.2274L62.0868 24.2997L60.706 24.7874Z"/>
<path d="M62.7265 32.8276C62.6566 32.8388 62.6162 32.8703 62.6052 32.9223C62.5942 32.9742 62.5916 33.0374 62.5973 33.1117L62.4829 33.13L62.2025 31.4337L62.3169 31.4155C62.325 31.4644 62.3407 31.5199 62.364 31.5821C62.3873 31.6442 62.4276 31.6707 62.4848 31.6616C62.542 31.6525 62.6374 31.5683 62.7709 31.409C62.9044 31.2496 63.0682 31.0463 63.2622 30.7989C63.4561 30.5515 63.6729 30.2739 63.9123 29.9659C64.1517 29.658 64.4091 29.3503 64.6845 29.0429L64.6624 29.0276L62.1641 29.426C62.0942 29.4371 62.0535 29.4672 62.042 29.516C62.0305 29.5649 62.0271 29.6235 62.0319 29.6917L61.9175 29.71L61.6582 28.1421L61.7726 28.1239C61.7891 28.184 61.8107 28.2354 61.8373 28.2782C61.864 28.3211 61.9123 28.3369 61.9822 28.3257L65.6057 27.7479C65.6757 27.7367 65.7161 27.7052 65.7271 27.6532C65.7381 27.6013 65.7412 27.5412 65.7364 27.4729L65.8509 27.4547L66.2117 29.6369L66.0972 29.6551C66.0838 29.6133 66.064 29.5726 66.0379 29.5328C66.0117 29.4931 65.9637 29.4788 65.8938 29.4899C65.8811 29.492 65.8242 29.5528 65.7233 29.6724C65.6224 29.792 65.496 29.9455 65.3443 30.1328C65.1926 30.3201 65.0248 30.5288 64.841 30.7589C64.6572 30.9889 64.4734 31.219 64.2896 31.4491L66.1682 31.1495C66.2381 31.1383 66.2785 31.1068 66.2895 31.0549C66.3005 31.0029 66.3031 30.9398 66.2974 30.8654L66.4118 30.8471L66.6786 32.4609L66.5642 32.4791C66.5457 32.4068 66.5229 32.3477 66.4957 32.3018C66.4686 32.256 66.42 32.2386 66.3501 32.2498L62.7265 32.8276Z"/>
<path d="M65.6989 35.3789C65.7017 35.2054 65.677 35.041 65.6248 34.8857C65.5726 34.7303 65.4976 34.5933 65.3997 34.4747C65.3019 34.3562 65.1827 34.2637 65.0422 34.1975C64.9016 34.1312 64.7412 34.0973 64.561 34.0957C64.3808 34.0942 64.2194 34.1253 64.0767 34.1892C63.9341 34.253 63.8119 34.3434 63.7103 34.4602C63.6086 34.5771 63.5291 34.7127 63.4719 34.8672C63.4147 35.0216 63.3847 35.1855 63.3819 35.359C63.3789 35.5387 63.4036 35.7047 63.4558 35.8569C63.5081 36.0092 63.5831 36.1446 63.681 36.2632C63.7788 36.3818 63.898 36.4742 64.0386 36.5405C64.1791 36.6068 64.3395 36.6407 64.5197 36.6422C64.6999 36.6438 64.8613 36.6126 65.004 36.5488C65.1466 36.4849 65.2688 36.3946 65.3705 36.2777C65.4721 36.1609 65.5516 36.0268 65.6087 35.8754C65.6659 35.7241 65.696 35.5586 65.6989 35.3789ZM66.7222 35.3877C66.7175 35.6789 66.6709 35.9713 66.5825 36.2649C66.494 36.5585 66.3594 36.8238 66.1785 37.0608C65.9976 37.2978 65.7676 37.4895 65.4884 37.6358C65.2093 37.7821 64.8798 37.8537 64.5001 37.8504C64.1139 37.8471 63.7853 37.7699 63.5141 37.6189C63.243 37.4678 63.0225 37.2723 62.8526 37.0322C62.6827 36.7922 62.5615 36.5247 62.4891 36.2297C62.4166 35.9348 62.3827 35.6417 62.3875 35.3505C62.3922 35.0593 62.4356 34.7669 62.5176 34.4732C62.5996 34.1796 62.7294 33.9142 62.9071 33.6772C63.0847 33.4401 63.3115 33.2485 63.5875 33.1021C63.8634 32.9558 64.1945 32.8842 64.5806 32.8876C64.9604 32.8908 65.2874 32.968 65.5618 33.1191C65.8361 33.2701 66.0598 33.4657 66.2329 33.7058C66.4061 33.9458 66.5321 34.2134 66.611 34.5084C66.6899 34.8034 66.7269 35.0965 66.7222 35.3877Z"/>
<path d="M66.2086 38.5715C66.2783 38.5828 66.3272 38.5655 66.3551 38.5197C66.383 38.4739 66.4062 38.4179 66.4247 38.3518L66.5389 38.3703L66.2275 40.0842L66.1134 40.0657C66.1193 39.9975 66.1169 39.9389 66.1062 39.89C66.0955 39.8411 66.0553 39.811 65.9855 39.7996L63.0562 39.325L62.6 41.8363C62.5934 41.873 62.601 41.9119 62.6228 41.9532C62.6447 41.9945 62.7064 42.0234 62.8078 42.0398L62.7878 42.1498L61.3707 41.9202L61.3907 41.8102C61.4922 41.8266 61.5557 41.818 61.5814 41.7845C61.6071 41.7509 61.6233 41.7158 61.6299 41.6791L62.3541 37.6921L62.4682 37.7106C62.4624 37.7789 62.4645 37.839 62.4747 37.8909C62.4848 37.9429 62.5247 37.9745 62.5945 37.9858L66.2086 38.5715Z"/>
<path d="M63.9225 45.0342C63.9823 44.8701 64.013 44.7063 64.0147 44.5426C64.0164 44.379 63.9905 44.226 63.9369 44.0834C63.8833 43.9409 63.8009 43.8167 63.6897 43.7108C63.5784 43.605 63.4378 43.5239 63.2678 43.4674C63.0977 43.411 62.9347 43.3915 62.7787 43.4087C62.6227 43.4259 62.4773 43.4745 62.3427 43.5546C62.208 43.6347 62.0882 43.7395 61.9832 43.8688C61.8783 43.9982 61.7959 44.1449 61.7362 44.309C61.6743 44.4789 61.6431 44.6442 61.6424 44.8049C61.6418 44.9656 61.6683 45.1172 61.7219 45.2597C61.7755 45.4023 61.8579 45.5265 61.9691 45.6323C62.0803 45.7382 62.2209 45.8193 62.3909 45.8757C62.561 45.9321 62.724 45.9517 62.88 45.9345C63.036 45.9173 63.1814 45.8686 63.316 45.7885C63.4507 45.7084 63.57 45.6051 63.6739 45.4787C63.7778 45.3523 63.8607 45.2041 63.9225 45.0342ZM64.8881 45.3544C64.7879 45.6298 64.6476 45.8936 64.4673 46.1457C64.287 46.3979 64.0723 46.609 63.8232 46.7792C63.574 46.9494 63.2933 47.0615 62.9809 47.1156C62.6686 47.1696 62.3332 47.1371 61.9749 47.0183C61.6105 46.8974 61.3249 46.7239 61.118 46.4976C60.9111 46.2714 60.7667 46.0183 60.6849 45.7383C60.603 45.4583 60.5764 45.1671 60.6048 44.8646C60.6333 44.5621 60.6976 44.2732 60.7979 43.9978C60.8982 43.7224 61.0354 43.4576 61.2096 43.2034C61.3838 42.9493 61.594 42.7366 61.8401 42.5654C62.0862 42.3942 62.3639 42.2811 62.6732 42.2261C62.9825 42.1711 63.3194 42.204 63.6838 42.3249C64.0421 42.4437 64.3262 42.6167 64.5362 42.844C64.7461 43.0712 64.8935 43.3253 64.9784 43.6063C65.0633 43.8873 65.0945 44.1801 65.0721 44.4846C65.0497 44.7891 64.9884 45.079 64.8881 45.3544Z"/>
<path d="M58.586 50.6017C58.53 50.5715 58.4716 50.5579 58.4109 50.5608C58.3503 50.5637 58.3057 50.5896 58.2771 50.6383L58.2343 50.7113L58.1335 50.657C58.1424 50.491 58.161 50.3052 58.1893 50.0997C58.2176 49.8942 58.2608 49.679 58.319 49.4539C58.3771 49.2289 58.451 49.0053 58.5407 48.7831C58.6305 48.5608 58.7356 48.3469 58.8561 48.1412C59.04 47.8273 59.2433 47.5558 59.4659 47.3268C59.6885 47.0978 59.9316 46.9315 60.195 46.8277C60.4585 46.7239 60.7401 46.6834 61.0401 46.706C61.34 46.7287 61.6552 46.829 61.9856 47.007C62.3161 47.185 62.5655 47.3976 62.7338 47.6449C62.9021 47.8921 63.0046 48.1574 63.0413 48.4406C63.078 48.7238 63.0588 49.0143 62.9838 49.3121C62.9088 49.6099 62.7904 49.8968 62.6287 50.1728C62.5081 50.3785 62.3853 50.5598 62.2602 50.7167C62.1351 50.8736 62.0177 51.0079 61.908 51.1197C61.7983 51.2315 61.7062 51.3226 61.6319 51.3929C61.5575 51.4632 61.5124 51.5119 61.4965 51.539C61.4712 51.5823 61.4629 51.6152 61.4718 51.6378C61.4807 51.6604 61.49 51.6885 61.4997 51.7222L61.4258 51.8106L60.5641 50.7912L60.6716 50.7209L60.7304 50.7526C60.7808 50.7797 60.8498 50.7688 60.9374 50.7199C61.0251 50.671 61.1188 50.6022 61.2186 50.5135C61.3185 50.4249 61.4139 50.325 61.5048 50.2138C61.5958 50.1025 61.6698 49.9982 61.7269 49.9008C61.8252 49.733 61.8992 49.5628 61.9488 49.3902C61.9983 49.2175 62.0108 49.0516 61.9862 48.8924C61.9616 48.7331 61.8997 48.5841 61.8005 48.4453C61.7014 48.3064 61.5538 48.1842 61.3577 48.0786C61.156 47.97 60.9648 47.9097 60.7839 47.8978C60.603 47.8858 60.433 47.9117 60.274 47.9756C60.115 48.0395 59.9687 48.1351 59.8351 48.2626C59.7014 48.39 59.5823 48.543 59.4777 48.7216C59.3984 48.8569 59.3305 48.9947 59.274 49.1352C59.2175 49.2756 59.1735 49.4229 59.1422 49.5769L59.6884 49.871L60.088 49.1891C60.126 49.1241 60.1246 49.07 60.0837 49.0266C60.0428 48.9832 60.0056 48.9525 59.972 48.9344L60.029 48.8369L61.0709 49.398L61.0138 49.4954C60.9802 49.4773 60.9335 49.4628 60.8735 49.4519C60.8136 49.441 60.7646 49.468 60.7265 49.533L59.7371 51.2216L58.586 50.6017Z"/>
<path d="M55.9739 52.5863C55.9197 52.5427 55.8708 52.5317 55.8269 52.5531C55.7831 52.5746 55.7442 52.6 55.7103 52.6294L55.6217 52.5581L56.7172 51.3005L56.8058 51.3719C56.7817 51.4092 56.7625 51.4504 56.7482 51.4957C56.7339 51.5409 56.7538 51.5853 56.8079 51.6289L57.7601 52.3956L60.8607 52.5704C60.9069 52.5751 60.9545 52.5588 61.0038 52.5215C61.0531 52.4842 61.0902 52.4512 61.115 52.4226L61.2036 52.494L59.8654 54.0301L59.7768 53.9588C59.8017 53.9302 59.8281 53.8927 59.856 53.8463C59.8839 53.7999 59.8781 53.7608 59.8388 53.7291C59.8142 53.7093 59.7489 53.6952 59.6431 53.687C59.5372 53.6788 59.4085 53.6703 59.2569 53.6617C59.1053 53.6531 58.9414 53.6467 58.765 53.6425C58.5887 53.6383 58.4202 53.6323 58.2595 53.6245C58.2823 53.6752 58.3138 53.7736 58.3541 53.9195C58.3945 54.0655 58.4366 54.2189 58.4805 54.3799C58.5245 54.5409 58.5658 54.6857 58.6046 54.8142C58.6434 54.9427 58.6751 55.0168 58.6997 55.0366C58.739 55.0683 58.779 55.0681 58.8196 55.0359C58.8602 55.0038 58.8908 54.9758 58.9116 54.952L59.0002 55.0233L57.7677 56.438L57.6791 56.3667C57.6999 56.3429 57.724 56.3056 57.7515 56.2548C57.779 56.204 57.7863 56.1571 57.7734 56.1143L56.9556 53.3769L55.9739 52.5863Z"/>
</g>
<path d="M9.65312 35.4547C9.84404 35.0097 12.3198 34.1819 15.0772 33.6523C16.4036 32.3329 18.4425 32.136 19.4002 32.1501C18.7383 31.6149 17.3737 28.6197 18.2469 27.324C19.12 26.0284 20.3632 25.3936 22.2247 25.0635C22.3373 23.6411 23.5353 21.0104 26.6757 20.5034C29.8162 19.9964 32.6935 22.3043 35.0783 23.3204C39.3877 22.7018 49.1371 21.6976 52.1906 21.1003C49.7278 22.799 45.8993 25.1912 43.5565 26.576C44.4047 26.7004 53.2196 28.7909 56.0689 29.7654C47.9795 32.7684 43.794 34.3031 35.9175 34.593C40.5887 35.5399 43.0135 36.5315 49.8516 36.2934C56.6897 36.0552 59.9933 35.1435 62.1433 33.9372C60.0139 37.6838 53.8775 40.8103 51.612 41.2123C54.7511 41.5499 58.0244 41.3817 61.0858 41.2905C57.2847 44.83 42.4906 44.6937 40.9291 44.0585C39.8439 45.1172 33.6623 45.8194 29.413 44.5989C26.2384 43.6871 22.0596 42.4403 18.1585 40.2287C14.2574 38.0172 15.0762 37.9055 13.2683 37.3774C11.4605 36.8493 9.46221 35.8996 9.65312 35.4547Z" fill="#aaaac7" fill-rule="nonzero" opacity="1" stroke="none"/>
<path d="M36.8552 43.317C36.8552 43.317 40.4515 45.21 40.9617 44.8255C42.059 45.2606 43.4794 44.129 43.9038 44.4937C44.1689 44.7216 42.354 45.1651 41.7868 45.5947C41.2196 46.0243 44.4797 44.6779 44.1866 45.1311C43.8936 45.5843 41.9578 46.2228 42.1517 46.3794C42.3456 46.536 44.8011 45.158 44.7268 45.6154C44.6899 45.8422 42.7553 47.0736 42.1169 46.951C41.2858 46.7913 40.8035 45.6561 40.6241 45.374C40.348 45.2386 36.1475 44.0652 36.1572 44.068C36.1572 44.068 36.1515 44.0664 36.1492 44.0657C36.1429 44.0639 36.7486 43.3957 36.7486 43.3957C36.7945 43.3455 36.8422 43.3102 36.8552 43.317Z" fill="#594c2e" fill-rule="nonzero" opacity="1" stroke="none"/>
<path d="M39.605 42.8164C39.605 42.8164 42.3836 44.9348 42.9916 44.7945C43.886 45.3448 45.5985 44.9131 45.8802 45.2585C46.0561 45.4742 44.196 45.3493 43.5195 45.5066C42.8429 45.6639 46.364 45.5174 45.9388 45.7547C45.5136 45.9921 43.4755 45.9705 43.6074 46.1216C43.7394 46.2726 46.5107 45.9166 46.2907 46.2079C46.1816 46.3523 43.9505 46.7312 43.3875 46.4992C42.6543 46.1971 42.5702 45.3182 42.4931 45.0858C42.2764 44.9299 38.6913 43.156 38.6996 43.1601C38.6996 43.1601 38.6947 43.1577 38.6928 43.1567C38.6874 43.154 39.4785 42.8446 39.4785 42.8446C39.5382 42.8214 39.5949 42.8088 39.605 42.8164Z" fill="#96793b" fill-rule="nonzero" opacity="1" stroke="none"/>
<path d="M28.5193 50.0299C28.5193 50.0299 32.1008 53.0803 32.8073 52.6041C33.3017 51.7585 33.914 51.6743 34.0409 51.8782C34.1093 51.988 33.7181 52.1457 33.6575 52.6305C33.8113 54.3716 35.7655 56.8888 35.4693 57.1699C35.1731 57.451 34.212 54.783 33.5963 55.2004C32.9805 55.6178 34.2382 57.9486 33.8283 58.125C33.4185 58.3014 33.3858 55.561 32.6338 55.6245C31.8818 55.688 31.9152 58.2352 31.4456 58.1409C31.2154 58.0947 31.3835 56.5179 31.6031 55.5413C32.2104 54.3561 32.3649 53.5141 32.204 53.149C31.8711 52.8963 27.7491 50.8176 27.7491 50.8176L28.5193 50.0299Z" fill="#836e42" fill-rule="nonzero" opacity="0" stroke="none"/>
<path d="M48.8847 40.7083C50.605 42.2169 52.5067 41.8329 59.4978 41.9787C52.7714 44.0031 41.2759 44.4921 37.8835 42.1738C36.368 41.1382 47.5847 39.5682 48.8847 40.7083Z" fill="#979798" fill-rule="nonzero" opacity="1" stroke="none"/>
<path d="M15.1201 36.9092C15.0739 36.9962 15.2323 37.2103 15.5668 37.5171C17.1148 38.9366 22.7974 41.7874 29.066 43.754C36.6894 46.1456 45.4681 41.7044 45.6876 41.0701C45.9071 40.4357 34.7435 40.1373 31.0257 38.9077C27.3078 37.6781 15.3801 36.4198 15.1201 36.9092Z" fill="#ffffff" fill-rule="nonzero" opacity="1" stroke="none"/>
<path d="M17.5984 37.0284C16.8403 36.4914 15.7616 36.7203 14.564 36.9976C15.7382 37.957 16.6475 38.7898 18.1433 39.398C18.301 38.2677 18.3565 37.5654 17.5984 37.0284Z" fill="#fe0000" fill-rule="nonzero" opacity="1" stroke="none"/>
<path d="M23.069 36.382C23.069 36.382 16.8534 29.1842 19.6104 27.0928C22.3673 25.0014 26.5771 25.6833 50.2653 21.7789C36.9602 30.6766 32.6728 28.9966 32.7738 30.4389C33.0196 33.9484 23.069 36.382 23.069 36.382Z" fill="#929292" fill-rule="nonzero" opacity="1" stroke="none"/>
<path d="M16.4754 36.0655C16.6473 35.666 12.7996 34.7585 15.2837 34.283C16.4785 33.0982 17.0549 32.9533 18.4792 32.7481C20.0746 32.4878 24.062 33.7956 24.062 33.7956C24.062 33.7956 20.0134 23.4818 25.8536 21.694C31.6938 19.9061 31.1372 25.0372 54.6699 29.7899C49.0494 31.2695 39.8838 34.92 33.1925 33.7838C36.6644 36.7507 53.7204 37.5719 59.1265 35.718C59.9192 35.4462 60.4201 35.2433 61.0317 34.974C60.6763 35.2786 60.2824 35.6711 59.5134 36.2136C57.5422 37.6041 54.5097 39.5013 51.9392 40.497C49.8169 41.3192 45.8006 42.0786 43.7478 42.1653C38.2388 42.3981 33.4664 41.6967 28.5193 40.4651C23.5723 39.2335 23.6802 38.8571 17.4309 37.2547C13.6688 36.6945 15.7203 37.3493 14.0917 36.8751C12.463 36.4009 16.3034 36.465 16.4754 36.0655Z" fill="#000000" fill-rule="nonzero" opacity="1" stroke="none"/>
<path d="M10.5073 35.4016C10.6079 35.1679 11.6152 34.9217 12.7152 34.755C13.4955 34.6367 13.629 34.6698 14.6599 34.4725C15.2435 34.224 18.3883 35.768 17.3713 37.3883C13.6092 36.8281 15.6608 37.4828 14.0321 37.0086C12.4034 36.5344 10.3353 35.8012 10.5073 35.4016Z" fill="#737385" fill-rule="nonzero" opacity="1" stroke="none"/>
<path d="M15.7644 33.8413L14.4702 34.5408L16.2888 35.0283C16.2888 35.0283 16.7576 34.8208 16.5944 34.3661C16.4312 33.9114 15.7644 33.8413 15.7644 33.8413Z" fill="#cd0606" fill-rule="nonzero" opacity="1" stroke="none"/>
<path d="M17.5257 36.5757C17.5665 36.4013 15.8371 35.9514 14.1185 35.677C12.3999 35.4027 10.7133 35.2983 10.6513 35.4783C10.5894 35.6583 12.0019 35.569 13.7205 35.8434C15.4391 36.1177 17.4849 36.7501 17.5257 36.5757Z" fill="#ffffff" fill-opacity="0.710938" fill-rule="nonzero" opacity="1" stroke="none"/>
<path d="M19.3546 33.723C19.7052 34.023 19.4868 35.1367 19.1224 35.4144L19.1224 35.4144C18.758 35.6921 18.1783 35.6739 17.8277 35.3739L17.8277 35.3739C17.4771 35.0738 17.2564 34.521 17.6208 34.2434L19.3546 33.723Z" fill="#ffffff" fill-rule="nonzero" opacity="1" stroke="none"/>
<path d="M18.4164 34.5317L18.4164 34.5317C18.5129 34.7696 18.4016 35.042 18.1677 35.1402L18.1677 35.1402C17.9338 35.2385 17.666 35.1252 17.5694 34.8874L17.5694 34.8874C17.4728 34.6495 17.5841 34.3771 17.818 34.2789L17.818 34.2789C18.0519 34.1807 18.3198 34.2939 18.4164 34.5317Z" fill="#000000" fill-rule="nonzero" opacity="1" stroke="none"/>
<g fill="#000000" opacity="1" stroke="none">
<path d="M24.9272 52.7947L24.9272 47.872L25.6324 47.872L25.6324 52.0895L27.029 52.0895L27.029 52.7947L24.9272 52.7947Z"/>
<path d="M27.4438 52.7947L27.4438 49.2894L28.149 49.2894L28.149 52.7947L27.4438 52.7947ZM27.4438 48.5773L27.4438 47.872L28.149 47.872L28.149 48.5773L27.4438 48.5773Z"/>
<path d="M28.7298 52.7947L28.7298 49.2894L29.435 49.2894L29.435 49.6282L29.4488 49.6282C29.5226 49.5175 29.6113 49.4265 29.715 49.3551C29.8187 49.2836 29.9512 49.2479 30.1125 49.2479C30.2001 49.2479 30.2877 49.2629 30.3753 49.2928C30.4628 49.3228 30.5412 49.3724 30.6103 49.4415C30.6795 49.5106 30.7348 49.5994 30.7763 49.7077C30.8178 49.816 30.8385 49.9485 30.8385 50.1052L30.8385 52.7947L30.1333 52.7947L30.1333 50.3679C30.1333 50.2389 30.1033 50.1375 30.0434 50.0637C29.9835 49.99 29.8982 49.9531 29.7876 49.9531C29.6539 49.9531 29.5617 49.9946 29.511 50.0776C29.4603 50.1605 29.435 50.2804 29.435 50.4371L29.435 52.7947L28.7298 52.7947Z"/>
<path d="M32.1245 53.2026C32.1291 53.2856 32.1625 53.364 32.2247 53.4377C32.287 53.5114 32.378 53.5483 32.4978 53.5483C32.6131 53.5483 32.696 53.5126 32.7467 53.4412C32.7974 53.3697 32.8228 53.2787 32.8228 53.1681L32.8228 52.4767L32.8089 52.4767C32.7306 52.5919 32.6373 52.6806 32.5289 52.7429C32.4206 52.8051 32.295 52.8362 32.1521 52.8362C31.8571 52.8362 31.652 52.7256 31.5368 52.5043C31.4953 52.426 31.4654 52.3292 31.4469 52.2139C31.4285 52.0987 31.4193 51.9443 31.4193 51.7507L31.4193 50.4163C31.4193 50.1628 31.4262 49.9762 31.44 49.8563C31.4677 49.6259 31.576 49.453 31.765 49.3378C31.8525 49.2779 31.9839 49.2479 32.159 49.2479C32.2466 49.2479 32.3215 49.2571 32.3837 49.2756C32.446 49.294 32.5024 49.3193 32.5531 49.3516C32.6038 49.3839 32.6499 49.4219 32.6914 49.4657C32.7329 49.5095 32.7767 49.5567 32.8228 49.6074L32.8228 49.2894L33.528 49.2894L33.528 53.2234C33.528 53.3432 33.5084 53.4642 33.4692 53.5863C33.43 53.7085 33.3667 53.818 33.2791 53.9148C33.1915 54.0162 33.0809 54.098 32.9472 54.1602C32.8136 54.2224 32.6545 54.2535 32.4702 54.2535C32.3642 54.2535 32.2535 54.2362 32.1383 54.2017C32.0231 54.1671 31.9171 54.1083 31.8203 54.0254C31.7189 53.947 31.6324 53.8422 31.561 53.7108C31.4896 53.5794 31.4423 53.41 31.4193 53.2026L32.1245 53.2026ZM32.1245 51.7161C32.1245 51.8268 32.1487 51.9236 32.1971 52.0065C32.2455 52.0895 32.3365 52.131 32.4702 52.131C32.5716 52.131 32.6557 52.0953 32.7225 52.0238C32.7894 51.9524 32.8228 51.8613 32.8228 51.7507L32.8228 50.3887C32.8228 50.2596 32.7905 50.1548 32.726 50.0741C32.6615 49.9934 32.5762 49.9531 32.4702 49.9531C32.3503 49.9531 32.2628 49.9969 32.2074 50.0845C32.1521 50.1721 32.1245 50.2873 32.1245 50.4302L32.1245 51.7161Z"/>
<path d="M36.2175 49.2894L36.2175 52.7947L35.5123 52.7947L35.5123 52.4559L35.4984 52.4559C35.4247 52.5666 35.336 52.6576 35.2323 52.729C35.1285 52.8005 34.996 52.8362 34.8347 52.8362C34.7471 52.8362 34.6596 52.8212 34.572 52.7913C34.4844 52.7613 34.406 52.7117 34.3369 52.6426C34.2678 52.5735 34.2125 52.4847 34.171 52.3764C34.1295 52.2681 34.1088 52.1356 34.1088 51.9789L34.1088 49.2894L34.814 49.2894L34.814 51.7161C34.814 51.8452 34.8439 51.9466 34.9038 52.0204C34.9638 52.0941 35.049 52.131 35.1597 52.131C35.2933 52.131 35.3855 52.0895 35.4362 52.0065C35.4869 51.9236 35.5123 51.8037 35.5123 51.647L35.5123 49.2894L36.2175 49.2894Z"/>
<path d="M36.7982 52.7947L36.7982 49.2894L37.5035 49.2894L37.5035 52.7947L36.7982 52.7947ZM36.7982 48.5773L36.7982 47.872L37.5035 47.872L37.5035 48.5773L36.7982 48.5773Z"/>
<path d="M39.3633 50.2712C39.3587 50.1513 39.3206 50.0614 39.2492 50.0015C39.1778 49.9416 39.0959 49.9116 39.0038 49.9116C38.8931 49.9116 38.8079 49.9474 38.7479 50.0188C38.688 50.0902 38.6581 50.1721 38.6581 50.2642C38.6581 50.3288 38.6742 50.3921 38.7065 50.4544C38.7387 50.5166 38.8217 50.5731 38.9554 50.6238L39.3702 50.7897C39.6329 50.8911 39.8138 51.0294 39.9129 51.2045C40.012 51.3797 40.0616 51.571 40.0616 51.7784C40.0616 51.9259 40.0351 52.063 39.9821 52.1897C39.9291 52.3165 39.8565 52.4283 39.7643 52.5251C39.6721 52.6219 39.5615 52.6979 39.4324 52.7532C39.3034 52.8085 39.1628 52.8362 39.0107 52.8362C38.7249 52.8362 38.4852 52.7463 38.2916 52.5666C38.1948 52.479 38.1165 52.3695 38.0566 52.2381C37.9966 52.1068 37.9644 51.9535 37.9598 51.7784L38.6235 51.7784C38.6373 51.8752 38.6707 51.965 38.7238 52.048C38.7768 52.131 38.8701 52.1725 39.0038 52.1725C39.1052 52.1725 39.1962 52.139 39.2769 52.0722C39.3575 52.0054 39.3979 51.912 39.3979 51.7922C39.3979 51.6954 39.3725 51.6124 39.3218 51.5433C39.2711 51.4742 39.1789 51.4142 39.0452 51.3635L38.7065 51.2391C38.4852 51.1561 38.3112 51.0328 38.1845 50.8692C38.0577 50.7056 37.9943 50.5062 37.9943 50.2712C37.9943 50.1237 38.022 49.9865 38.0773 49.8598C38.1326 49.733 38.2087 49.6236 38.3055 49.5314C38.3976 49.4392 38.506 49.3689 38.6304 49.3205C38.7549 49.2721 38.8885 49.2479 39.0314 49.2479C39.1743 49.2479 39.3068 49.2733 39.429 49.324C39.5511 49.3747 39.656 49.4461 39.7435 49.5383C39.8311 49.6305 39.9003 49.7399 39.951 49.8667C40.0017 49.9934 40.027 50.1283 40.027 50.2712L39.3633 50.2712Z"/>
<path d="M40.5179 49.2894L40.5179 48.2247L41.2231 48.2247L41.2231 49.2894L41.6587 49.2894L41.6587 49.8425L41.2231 49.8425L41.2231 51.7853C41.2231 51.8683 41.2312 51.9328 41.2473 51.9789C41.2634 52.025 41.2899 52.0595 41.3268 52.0826C41.3637 52.1056 41.4086 52.1195 41.4616 52.1241C41.5146 52.1287 41.5803 52.131 41.6587 52.131L41.6587 52.7947L41.3683 52.7947C41.207 52.7947 41.0722 52.7694 40.9638 52.7187C40.8555 52.668 40.7691 52.6034 40.7046 52.5251C40.64 52.4467 40.5928 52.358 40.5628 52.2589C40.5329 52.1598 40.5179 52.0641 40.5179 51.972L40.5179 49.8425L40.1653 49.8425L40.1653 49.2894L40.5179 49.2894Z"/>
<path d="M41.9283 52.7947L41.9283 49.2894L42.6335 49.2894L42.6335 52.7947L41.9283 52.7947ZM41.9283 48.5773L41.9283 47.872L42.6335 47.872L42.6335 48.5773L41.9283 48.5773Z"/>
<path d="M43.961 51.7853C43.961 51.8959 43.9921 51.9812 44.0543 52.0411C44.1166 52.101 44.2007 52.131 44.3067 52.131C44.4404 52.131 44.5291 52.0918 44.5729 52.0134C44.6167 51.9351 44.6432 51.8567 44.6524 51.7784L45.3576 51.7784C45.3576 52.0872 45.2631 52.3361 45.0741 52.5251C44.9819 52.6219 44.8713 52.6979 44.7423 52.7532C44.6132 52.8085 44.468 52.8362 44.3067 52.8362C44.0854 52.8362 43.8976 52.7901 43.7432 52.6979C43.5888 52.6057 43.4701 52.4836 43.3871 52.3315C43.3364 52.2393 43.3019 52.1333 43.2834 52.0134C43.265 51.8936 43.2558 51.7622 43.2558 51.6194L43.2558 50.4647C43.2558 50.3219 43.265 50.1905 43.2834 50.0707C43.3019 49.9508 43.3364 49.8448 43.3871 49.7526C43.4701 49.6005 43.5888 49.4784 43.7432 49.3862C43.8976 49.294 44.0854 49.2479 44.3067 49.2479C44.468 49.2479 44.6144 49.2756 44.7457 49.3309C44.8771 49.3862 44.9889 49.4622 45.081 49.559C45.2654 49.7664 45.3576 50.0361 45.3576 50.3679L44.6524 50.3679C44.6524 50.2251 44.6213 50.1202 44.559 50.0534C44.4968 49.9865 44.4127 49.9531 44.3067 49.9531C44.2007 49.9531 44.1166 49.9865 44.0543 50.0534C43.9921 50.1202 43.961 50.2205 43.961 50.3541L43.961 51.7853Z"/>
<path d="M47.0515 50.2712C47.0469 50.1513 47.0088 50.0614 46.9374 50.0015C46.866 49.9416 46.7841 49.9116 46.692 49.9116C46.5813 49.9116 46.4961 49.9474 46.4362 50.0188C46.3762 50.0902 46.3463 50.1721 46.3463 50.2642C46.3463 50.3288 46.3624 50.3921 46.3947 50.4544C46.4269 50.5166 46.5099 50.5731 46.6436 50.6238L47.0584 50.7897C47.3211 50.8911 47.502 51.0294 47.6011 51.2045C47.7002 51.3797 47.7498 51.571 47.7498 51.7784C47.7498 51.9259 47.7233 52.063 47.6703 52.1897C47.6173 52.3165 47.5447 52.4283 47.4525 52.5251C47.3603 52.6219 47.2497 52.6979 47.1206 52.7532C46.9916 52.8085 46.851 52.8362 46.6989 52.8362C46.4131 52.8362 46.1734 52.7463 45.9798 52.5666C45.883 52.479 45.8047 52.3695 45.7448 52.2381C45.6848 52.1068 45.6526 51.9535 45.648 51.7784L46.3117 51.7784C46.3255 51.8752 46.3589 51.965 46.412 52.048C46.465 52.131 46.5583 52.1725 46.692 52.1725C46.7934 52.1725 46.8844 52.139 46.9651 52.0722C47.0457 52.0054 47.0861 51.912 47.0861 51.7922C47.0861 51.6954 47.0607 51.6124 47.01 51.5433C46.9593 51.4742 46.8671 51.4142 46.7334 51.3635L46.3947 51.2391C46.1734 51.1561 45.9994 51.0328 45.8727 50.8692C45.7459 50.7056 45.6825 50.5062 45.6825 50.2712C45.6825 50.1237 45.7102 49.9865 45.7655 49.8598C45.8208 49.733 45.8969 49.6236 45.9937 49.5314C46.0859 49.4392 46.1942 49.3689 46.3186 49.3205C46.4431 49.2721 46.5767 49.2479 46.7196 49.2479C46.8625 49.2479 46.995 49.2733 47.1172 49.324C47.2393 49.3747 47.3442 49.4461 47.4317 49.5383C47.5193 49.6305 47.5885 49.7399 47.6392 49.8667C47.6899 49.9934 47.7152 50.1283 47.7152 50.2712L47.0515 50.2712Z"/>
</g>
<path d="M18.976 56.5529L19.7668 58.1552L21.535 58.4121L20.2555 59.6593L20.5576 61.4204L18.976 60.5889L17.3945 61.4204L17.6966 59.6593L16.4171 58.4121L18.1853 58.1552L18.976 56.5529Z" fill="#1201a8" fill-rule="nonzero" opacity="0" stroke="#ffffff" stroke-linecap="butt" stroke-linejoin="round" stroke-width="0.2"/>
<path d="M52.2987 56.6901L53.0895 58.2924L54.8577 58.5493L53.5782 59.7965L53.8803 61.5576L52.2987 60.7262L50.7172 61.5576L51.0192 59.7965L49.7397 58.5493L51.508 58.2924L52.2987 56.6901Z" fill="#1201a8" fill-rule="nonzero" opacity="0" stroke="#ffffff" stroke-linecap="butt" stroke-linejoin="round" stroke-width="0.2"/>
<g fill="#20018c" fill-opacity="0" opacity="0.998894" stroke="none">
<path d="M8.30392 64.5043C8.54577 64.6288 8.62574 64.6744 8.74646 64.7546L8.96427 64.3313C8.81814 64.2831 8.7345 64.2446 8.49265 64.1201L6.412 63.0494C6.16659 62.9231 6.09017 62.8792 5.966 62.7883L5.74819 63.2116C5.88355 63.2633 5.96719 63.3018 6.20904 63.4263L7.07687 63.8729C6.92343 64.1448 6.75111 64.3485 6.57444 64.4645C6.28413 64.6615 5.92037 64.7128 5.42585 64.6247C5.50191 64.8528 5.51703 64.9371 5.5126 65.1642C6.09159 65.2192 6.45189 65.1572 6.80146 64.9413C7.08435 64.7674 7.31452 64.5125 7.54279 64.1126L8.30392 64.5043ZM6.56317 62.5108C6.68786 62.557 6.77505 62.5974 7.02402 62.7255L8.404 63.4357C8.65297 63.5638 8.7365 63.6113 8.84655 63.6859L9.06985 63.252C8.92727 63.2056 8.85431 63.1726 8.59823 63.0408L7.23247 62.3379C6.97639 62.2062 6.90708 62.166 6.78647 62.0769L6.56317 62.5108Z"/>
<path d="M10.746 64.759L10.0231 64.5483C9.86084 64.4987 9.73815 64.4589 9.60606 64.4014L9.46969 64.8808C9.58106 64.8977 9.72695 64.9352 9.90714 64.9843L10.63 65.195L10.4603 65.8399L9.51395 65.5687C9.34633 65.521 9.2362 65.4826 9.11306 65.4249L8.97668 65.9044C9.12404 65.9293 9.19603 65.9453 9.38346 65.9978L10.3443 66.2759L10.1402 67.0505C10.0894 67.2344 10.0563 67.3426 10.009 67.4529L10.5351 67.5935C10.553 67.4517 10.5545 67.4391 10.6231 67.1797L10.822 66.4159L11.7485 66.6823C11.8261 66.7054 11.8765 66.7202 11.9036 66.7285C11.9234 66.7334 11.9432 66.7382 11.9649 66.7484C12.0478 66.7696 12.0623 66.7764 12.14 66.8084L12.2641 66.3364C12.1527 66.3196 12.0124 66.2891 11.8483 66.2432L10.9344 65.9782L11.1042 65.3333L11.9244 65.572C12.193 65.6493 12.193 65.6493 12.2942 65.6879L12.4218 65.2176C12.3124 65.2061 12.2278 65.1885 12.0368 65.1343L11.2165 64.8956L11.3063 64.5534C11.3471 64.4002 11.3819 64.2884 11.4224 64.1926L10.9087 64.0445C10.901 64.1646 10.8866 64.233 10.836 64.4257L10.746 64.759Z"/>
<path d="M12.0933 68.0951L13.1826 65.4636L13.5596 65.6196L13.0929 66.7469L13.5586 66.9397L14.0252 65.8124L14.4022 65.9685L13.313 68.5999L12.936 68.4439L13.4209 67.2723L12.9553 67.0795L12.4703 68.2511L12.0933 68.0951Z"/>
<path d="M13.6494 68.7283L14.3766 66.8352L14.7575 66.9815L14.0302 68.8746L13.6494 68.7283ZM14.5244 66.4506L14.6707 66.0698L15.0516 66.2161L14.9052 66.5969L14.5244 66.4506Z"/>
<path d="M15.2956 66.3077L15.6791 66.4471L14.9013 68.5861C14.8749 68.6588 14.87 68.7131 14.8868 68.7489C14.9035 68.7848 14.9469 68.8197 15.0168 68.8537L14.8856 69.2146C14.7979 69.1827 14.7214 69.1471 14.6563 69.1078C14.5911 69.0685 14.5407 69.0197 14.5052 68.9613C14.4688 68.9055 14.4499 68.8384 14.4486 68.7599C14.4474 68.6814 14.4673 68.5858 14.5083 68.473L15.2956 66.3077Z"/>
<path d="M15.4305 67.9558C15.4563 67.8773 15.4851 67.8068 15.5169 67.7442C15.5487 67.6817 15.5868 67.6297 15.6313 67.5881C15.7044 67.5195 15.7917 67.4738 15.8932 67.4511C15.9948 67.4283 16.1063 67.4369 16.2279 67.4768C16.3495 67.5168 16.4444 67.5761 16.5126 67.6546C16.5809 67.7332 16.624 67.8217 16.6422 67.9203C16.6534 67.9802 16.6532 68.0447 16.6417 68.1139C16.6302 68.1831 16.6115 68.2569 16.5857 68.3355L16.3772 68.9701C16.3514 69.0486 16.3226 69.1191 16.2908 69.1817C16.259 69.2442 16.2209 69.2962 16.1764 69.3378C16.1033 69.4064 16.016 69.4521 15.9145 69.4748C15.813 69.4976 15.7014 69.489 15.5798 69.4491C15.4582 69.4091 15.3633 69.3498 15.2951 69.2713C15.2268 69.1927 15.1837 69.1042 15.1655 69.0056C15.1543 68.9457 15.1545 68.8812 15.166 68.812C15.1775 68.7428 15.1962 68.669 15.222 68.5904L15.4305 67.9558ZM15.5896 68.7786C15.5655 68.8521 15.5644 68.9128 15.5866 68.9608C15.6087 69.0088 15.6489 69.0423 15.7072 69.0615C15.7654 69.0806 15.8177 69.0774 15.864 69.0519C15.9103 69.0264 15.9455 68.977 15.9696 68.9035L16.2181 68.1473C16.2423 68.0738 16.2433 68.0131 16.2211 67.9651C16.199 67.9171 16.1588 67.8836 16.1005 67.8644C16.0423 67.8453 15.99 67.8485 15.9437 67.874C15.8975 67.8995 15.8622 67.9489 15.8381 68.0224L15.5896 68.7786Z"/>
<path d="M16.5036 69.7125L16.9702 68.0695L16.7778 68.0149L16.8652 67.707L17.0576 67.7617L17.133 67.4962C17.16 67.4013 17.1969 67.3251 17.2437 67.2677C17.2904 67.2103 17.3444 67.1667 17.4055 67.1369C17.4641 67.1065 17.5261 67.0908 17.5914 67.0899C17.6568 67.0891 17.7216 67.0978 17.7857 67.116L17.9666 67.1674L17.8617 67.5368L17.6847 67.4865C17.6077 67.4646 17.5565 67.4986 17.531 67.5884L17.4501 67.8731L17.7425 67.9562L17.6551 68.264L17.3627 68.181L16.8961 69.824L16.5036 69.7125Z"/>
<path d="M18.946 68.2343L18.4976 70.2121L18.0997 70.1219L18.143 69.9308L18.1352 69.929C18.0794 69.982 18.0177 70.022 17.9501 70.049C17.8824 70.0761 17.8031 70.0793 17.7121 70.0586C17.6627 70.0474 17.6152 70.0278 17.5696 69.9996C17.524 69.9715 17.4861 69.9336 17.456 69.8857C17.4258 69.8378 17.4059 69.7807 17.3964 69.7143C17.3868 69.6479 17.3921 69.5704 17.4122 69.482L17.7562 67.9645L18.1541 68.0548L17.8437 69.424C17.8272 69.4968 17.8311 69.5579 17.8555 69.6072C17.8798 69.6564 17.9232 69.6881 17.9856 69.7023C18.0611 69.7194 18.1184 69.7078 18.1576 69.6675C18.1968 69.6271 18.2265 69.5628 18.2465 69.4743L18.5481 68.1441L18.946 68.2343Z"/>
<path d="M18.8254 70.302L19.018 68.2832L19.4242 68.322L19.4056 68.5171L19.4135 68.5178C19.4621 68.4582 19.5182 68.4106 19.5819 68.3752C19.6455 68.3397 19.7238 68.3264 19.8167 68.3353C19.9043 68.3437 19.9753 68.3719 20.0296 68.4199C20.084 68.468 20.1273 68.519 20.1597 68.573C20.2154 68.522 20.2757 68.4796 20.3406 68.4456C20.4055 68.4116 20.4923 68.3998 20.6011 68.4102C20.6516 68.415 20.7025 68.4285 20.754 68.4509C20.8054 68.4732 20.8505 68.5063 20.8891 68.5501C20.9278 68.594 20.9574 68.6484 20.978 68.7133C20.9986 68.7782 21.0046 68.8558 20.996 68.9461L20.8482 70.495L20.4421 70.4563L20.5754 69.0586C20.5825 68.9843 20.5708 68.9243 20.5404 68.8785C20.5099 68.8327 20.4628 68.8068 20.3991 68.8007C20.3221 68.7934 20.2668 68.8122 20.233 68.8572C20.1992 68.9022 20.1781 68.9698 20.1694 69.0601L20.0399 70.4179L19.6337 70.3792L19.7671 68.9815C19.7742 68.9072 19.7625 68.8471 19.732 68.8014C19.7016 68.7556 19.6545 68.7297 19.5908 68.7236C19.5138 68.7163 19.4584 68.7351 19.4247 68.7801C19.3909 68.8251 19.3697 68.8927 19.3611 68.983L19.2316 70.3408L18.8254 70.302Z"/>
<path d="M21.1872 70.4446L21.1167 68.4178L21.5245 68.4036L21.595 70.4304L21.1872 70.4446ZM21.1024 68.0061L21.0882 67.5983L21.496 67.5841L21.5102 67.9919L21.1024 68.0061Z"/>
<path d="M23.0722 70.2927L22.9041 69.1005L22.12 67.5508L22.5478 67.4905L23.0306 68.5656L23.0386 68.5645L23.2053 67.3978L23.633 67.3375L23.3081 69.0436L23.4762 70.2358L23.0722 70.2927Z"/>
<path d="M25.1047 69.9051L25.0572 69.7026L25.0494 69.7044C25.0146 69.7893 24.9751 69.8574 24.931 69.9089C24.8869 69.9603 24.8168 69.9972 24.7207 70.0198C24.674 70.0307 24.6249 70.0347 24.5736 70.0317C24.5222 70.0286 24.4699 70.0128 24.4166 69.9842C24.3639 69.9582 24.3159 69.914 24.2725 69.8516C24.2291 69.7892 24.1947 69.7034 24.1691 69.5944C24.143 69.4828 24.1291 69.3826 24.1275 69.294C24.1259 69.2053 24.143 69.1267 24.179 69.058C24.2129 68.9925 24.267 68.9367 24.3411 68.8906C24.4152 68.8445 24.5145 68.8068 24.6391 68.7776C24.6521 68.7746 24.6664 68.7712 24.682 68.7676C24.6976 68.7639 24.7121 68.7619 24.7257 68.7614C24.7393 68.761 24.7552 68.7586 24.7734 68.7544C24.7916 68.7501 24.8113 68.7468 24.8327 68.7446L24.7843 68.5382C24.7685 68.4707 24.7412 68.4182 24.7022 68.3807C24.6633 68.3433 24.6062 68.3334 24.531 68.351C24.479 68.3632 24.4356 68.3912 24.4007 68.435C24.3657 68.4788 24.3494 68.5346 24.3516 68.6026L23.9661 68.693C23.9351 68.514 23.9613 68.3572 24.0448 68.2226C24.0846 68.1585 24.1373 68.103 24.203 68.0561C24.2687 68.0092 24.347 67.9751 24.4379 67.9538C24.5209 67.9343 24.6019 67.9291 24.6807 67.938C24.7594 67.9469 24.8322 67.9709 24.8989 68.0101C24.963 68.0499 25.0197 68.105 25.0691 68.1756C25.1185 68.2462 25.1554 68.3334 25.1797 68.4373L25.5019 69.812L25.1047 69.9051ZM24.9057 69.0561C24.8598 69.0587 24.8225 69.0633 24.7939 69.07C24.7083 69.0901 24.6396 69.1274 24.5881 69.1819C24.5365 69.2365 24.5232 69.317 24.5481 69.4234C24.5657 69.4987 24.5982 69.5555 24.6455 69.5937C24.6928 69.6319 24.7489 69.6434 24.8138 69.6282C24.8813 69.6124 24.9287 69.578 24.956 69.525C24.9833 69.4721 24.9876 69.4053 24.9687 69.3248L24.9057 69.0561Z"/>
<path d="M25.7957 69.7455L25.1702 67.8164L25.5584 67.6906L25.6188 67.877L25.6264 67.8745C25.6473 67.8005 25.6799 67.7346 25.7242 67.6767C25.7685 67.6189 25.8351 67.5756 25.9238 67.5468C26.0076 67.5197 26.0839 67.5174 26.1529 67.5398C26.2218 67.5623 26.2819 67.5919 26.333 67.6286C26.3639 67.5597 26.4024 67.4968 26.4484 67.4398C26.4944 67.3828 26.5694 67.3375 26.6734 67.3038C26.7216 67.2882 26.7738 67.2804 26.8298 67.2804C26.8859 67.2804 26.9404 67.2929 26.9933 67.3178C27.0463 67.3427 27.0951 67.3808 27.1398 67.4322C27.1845 67.4836 27.2208 67.5524 27.2488 67.6387L27.7287 69.1188L27.3406 69.2446L26.9075 67.9091C26.8845 67.8381 26.8499 67.7876 26.8038 67.7577C26.7577 67.7278 26.7041 67.7227 26.6433 67.7425C26.5697 67.7663 26.5264 67.8056 26.5133 67.8603C26.5002 67.915 26.5076 67.9855 26.5356 68.0717L26.9563 69.3692L26.5681 69.4951L26.1351 68.1595C26.1121 68.0885 26.0775 68.038 26.0314 68.0081C25.9852 67.9782 25.9317 67.9732 25.8708 67.9929C25.7973 68.0168 25.754 68.056 25.7409 68.1107C25.7278 68.1655 25.7352 68.2359 25.7632 68.3222L26.1838 69.6197L25.7957 69.7455Z"/>
<path d="M28.7545 68.6973L28.6764 68.5045L28.669 68.5076C28.6476 68.5968 28.6191 68.6702 28.5834 68.7278C28.5478 68.7854 28.4842 68.8327 28.3928 68.8697C28.3483 68.8878 28.3004 68.8992 28.2492 68.9042C28.198 68.9091 28.1438 68.9015 28.0868 68.8815C28.0308 68.8639 27.9765 68.8276 27.924 68.7726C27.8715 68.7176 27.8243 68.6382 27.7822 68.5344C27.7392 68.4282 27.71 68.3313 27.6948 68.244C27.6796 68.1567 27.6844 68.0763 27.7094 68.0029C27.7328 67.933 27.7776 67.8695 27.8437 67.8125C27.9098 67.7556 28.0022 67.703 28.1208 67.655C28.1332 67.65 28.1468 67.6445 28.1616 67.6385C28.1764 67.6325 28.1905 67.6282 28.2039 67.6257C28.2173 67.6231 28.2326 67.6183 28.2499 67.6113C28.2672 67.6043 28.2862 67.5981 28.307 67.5925L28.2274 67.396C28.2014 67.3318 28.1663 67.2841 28.1221 67.2531C28.0779 67.2221 28.0199 67.2211 27.9482 67.2502C27.8988 67.2702 27.8602 67.3045 27.8324 67.3532C27.8047 67.4018 27.7971 67.4596 27.8098 67.5263L27.4428 67.675C27.3846 67.5029 27.3864 67.344 27.4481 67.1981C27.4775 67.1287 27.5211 67.0657 27.5788 67.0093C27.6365 66.9528 27.7086 66.9071 27.7951 66.872C27.8742 66.84 27.9533 66.8223 28.0325 66.819C28.1117 66.8157 28.1873 66.8282 28.2592 66.8566C28.3287 66.886 28.3933 66.9318 28.453 66.9939C28.5127 67.0561 28.5625 67.1366 28.6026 67.2354L29.1327 68.5442L28.7545 68.6973ZM28.4271 67.8891C28.3821 67.8987 28.346 67.909 28.3188 67.92C28.2373 67.9531 28.1752 68.0005 28.1326 68.0624C28.0901 68.1242 28.0893 68.2058 28.1304 68.3071C28.1594 68.3788 28.2002 68.4299 28.2528 68.4603C28.3055 68.4908 28.3627 68.4935 28.4245 68.4685C28.4887 68.4425 28.5303 68.4012 28.5491 68.3447C28.5679 68.2881 28.5618 68.2215 28.5308 68.1449L28.4271 67.8891Z"/>
<path d="M29.4121 68.4332L28.5357 66.6043L28.9037 66.428L28.9884 66.6048L28.9956 66.6013C29.0064 66.5251 29.0299 66.4555 29.0662 66.3923C29.1024 66.3291 29.1626 66.2773 29.2468 66.237C29.3262 66.1989 29.4015 66.1865 29.4729 66.1996C29.5442 66.2127 29.6076 66.2341 29.6632 66.2636C29.6847 66.1912 29.7145 66.1237 29.7525 66.0612C29.7905 65.9986 29.8588 65.9437 29.9574 65.8964C30.0031 65.8745 30.0538 65.8599 30.1093 65.8525C30.1649 65.845 30.2206 65.8502 30.2764 65.8678C30.3321 65.8854 30.3856 65.9167 30.4367 65.9617C30.4878 66.0067 30.533 66.0701 30.5722 66.1519L31.2446 67.5551L30.8766 67.7314L30.2699 66.4652C30.2376 66.3979 30.1967 66.3525 30.147 66.329C30.0973 66.3055 30.0436 66.3076 29.9858 66.3352C29.9161 66.3687 29.8784 66.4133 29.8727 66.4693C29.867 66.5253 29.8837 66.5941 29.9229 66.6759L30.5123 67.906L30.1444 68.0823L29.5376 66.8161C29.5054 66.7488 29.4644 66.7034 29.4147 66.6799C29.365 66.6564 29.3113 66.6585 29.2536 66.6861C29.1838 66.7196 29.1461 66.7642 29.1404 66.8202C29.1347 66.8762 29.1514 66.945 29.1906 67.0268L29.78 68.2569L29.4121 68.4332Z"/>
<path d="M30.8576 66.2253C30.8178 66.1529 30.7859 66.0837 30.7619 66.0178C30.7379 65.9519 30.7259 65.8885 30.726 65.8276C30.7257 65.7274 30.7519 65.6324 30.8045 65.5426C30.8572 65.4529 30.9396 65.3772 31.0518 65.3156C31.164 65.254 31.2721 65.2251 31.3761 65.2289C31.4801 65.2327 31.5743 65.2616 31.6587 65.3156C31.7101 65.3482 31.7571 65.3924 31.7998 65.448C31.8425 65.5037 31.8838 65.5677 31.9236 65.6402L32.245 66.2258C32.2848 66.2982 32.3167 66.3674 32.3407 66.4333C32.3647 66.4993 32.3767 66.5626 32.3766 66.6235C32.3769 66.7237 32.3507 66.8187 32.2981 66.9085C32.2454 66.9982 32.163 67.0739 32.0508 67.1355C31.9386 67.1971 31.8305 67.226 31.7265 67.2222C31.6225 67.2185 31.5283 67.1895 31.4439 67.1355C31.3925 67.1029 31.3455 67.0587 31.3028 67.0031C31.2601 66.9474 31.2188 66.8834 31.179 66.8109L30.8576 66.2253ZM31.5675 66.6707C31.6047 66.7385 31.6484 66.7807 31.6986 66.7972C31.7487 66.8138 31.8007 66.8073 31.8545 66.7778C31.9082 66.7483 31.9416 66.7079 31.9545 66.6567C31.9675 66.6055 31.9553 66.546 31.9181 66.4782L31.5351 65.7804C31.4979 65.7126 31.4542 65.6704 31.404 65.6539C31.3539 65.6373 31.3019 65.6438 31.2481 65.6733C31.1944 65.7028 31.161 65.7432 31.1481 65.7944C31.1351 65.8456 31.1472 65.9051 31.1845 65.9729L31.5675 66.6707Z"/>
<path d="M31.8003 64.9214L31.4875 64.3907L31.839 64.1835L32.1518 64.7142L32.3689 64.5862L32.5314 64.8619L32.3143 64.9899L32.8851 65.9582C32.9095 65.9995 32.9324 66.0293 32.954 66.0475C32.9756 66.0658 32.999 66.0752 33.0241 66.0759C33.0493 66.0765 33.0757 66.0702 33.1035 66.0569C33.1313 66.0437 33.1647 66.0255 33.2037 66.0025L33.3987 66.3333L33.254 66.4186C33.1736 66.466 33.099 66.493 33.0301 66.4995C32.9612 66.5061 32.8992 66.4993 32.844 66.4792C32.7888 66.4591 32.7392 66.4288 32.6952 66.3882C32.6511 66.3476 32.6155 66.3043 32.5885 66.2584L31.9628 65.1971L31.7871 65.3007L31.6246 65.025L31.8003 64.9214Z"/>
<path d="M32.7841 65.1326C32.74 65.0627 32.704 64.9955 32.6761 64.9312C32.6482 64.8668 32.6324 64.8043 32.6288 64.7435C32.6225 64.6435 32.6429 64.5471 32.6901 64.4543C32.7372 64.3616 32.8149 64.2811 32.9232 64.2129C33.0315 64.1446 33.1377 64.1093 33.2417 64.1068C33.3457 64.1043 33.4415 64.1275 33.529 64.1763C33.5822 64.2058 33.6319 64.2471 33.6778 64.3C33.7238 64.353 33.7689 64.4145 33.8129 64.4844L34.169 65.0496C34.2131 65.1195 34.2491 65.1867 34.277 65.251C34.305 65.3154 34.3207 65.3779 34.3243 65.4387C34.3306 65.5387 34.3102 65.6351 34.2631 65.7278C34.2159 65.8206 34.1382 65.9011 34.0299 65.9693C33.9216 66.0375 33.8154 66.0729 33.7114 66.0754C33.6074 66.0779 33.5117 66.0547 33.4241 66.0059C33.3709 65.9764 33.3213 65.9351 33.2753 65.8822C33.2293 65.8292 33.1843 65.7677 33.1402 65.6978L32.7841 65.1326ZM33.5195 65.5344C33.5607 65.5999 33.6069 65.6394 33.658 65.6529C33.709 65.6664 33.7605 65.6568 33.8124 65.6241C33.8643 65.5914 33.8952 65.5491 33.905 65.4972C33.9149 65.4453 33.8992 65.3866 33.8579 65.3212L33.4336 64.6477C33.3924 64.5823 33.3462 64.5428 33.2952 64.5293C33.2441 64.5158 33.1926 64.5254 33.1407 64.5581C33.0888 64.5908 33.058 64.6331 33.0481 64.685C33.0383 64.7369 33.054 64.7956 33.0952 64.861L33.5195 65.5344Z"/>
<path d="M34.9448 65.7024L34.5527 65.1177L34.8916 64.8905L35.1188 65.2293L34.9448 65.7024Z"/>
<path d="M36.0266 64.6007L34.3155 62.324L34.8047 61.9563C34.8942 61.889 34.9819 61.8415 35.0678 61.8137C35.1536 61.7858 35.2467 61.7809 35.347 61.799C35.4472 61.817 35.5381 61.858 35.6195 61.9219C35.7009 61.9858 35.7928 62.086 35.8954 62.2224C35.9723 62.3247 36.0313 62.4155 36.0725 62.4946C36.1136 62.5738 36.1382 62.6587 36.1463 62.7494C36.1576 62.8576 36.1416 62.9606 36.0982 63.0582C36.0549 63.1559 35.9724 63.2503 35.8509 63.3417L35.6846 63.4666L36.3527 64.3556L36.0266 64.6007ZM34.8723 62.3859L35.4539 63.1597L35.6106 63.0419C35.6767 62.9922 35.7206 62.9442 35.7425 62.8978C35.7643 62.8514 35.7709 62.8047 35.7623 62.7578C35.7553 62.713 35.7358 62.6659 35.7038 62.6166C35.6717 62.5673 35.6341 62.5139 35.5908 62.4563C35.5508 62.403 35.5116 62.3532 35.4735 62.3069C35.4353 62.2605 35.3941 62.2256 35.3498 62.2022C35.3055 62.1788 35.2591 62.1703 35.2105 62.1767C35.162 62.1832 35.1058 62.2104 35.0418 62.2585L34.8723 62.3859Z"/>
</g>
<g fill="#000000" opacity="0.998894" stroke="#ffffff" stroke-linecap="butt" stroke-linejoin="round" stroke-width="0">
<path d="M20.5464 61.7368L21.5509 57.6081L21.9551 57.8187L21.5248 59.5873L22.0242 59.8473L22.4545 58.0788L22.8587 58.2893L21.8542 62.418L21.45 62.2074L21.8972 60.3692L21.3979 60.1091L20.9506 61.9473L20.5464 61.7368Z"/>
<path d="M22.2154 62.5849L22.867 59.6135L23.2756 59.8053L22.624 62.7767L22.2154 62.5849ZM22.9994 59.0098L23.1305 58.412L23.539 58.6038L23.4079 59.2016L22.9994 59.0098Z"/>
<path d="M23.7986 58.7221L24.2095 58.9026L23.5212 62.2569C23.4979 62.3709 23.496 62.4547 23.5158 62.5084C23.5355 62.562 23.5831 62.6119 23.6586 62.6579L23.5425 63.2238C23.4485 63.1825 23.3661 63.1345 23.2953 63.0799C23.2245 63.0252 23.1687 62.9547 23.1279 62.8682C23.0863 62.7856 23.0624 62.6841 23.0564 62.5637C23.0504 62.4432 23.0655 62.2945 23.1018 62.1177L23.7986 58.7221Z"/>
<path d="M24.0442 61.243C24.0669 61.1202 24.0931 61.0094 24.123 60.9107C24.1528 60.812 24.19 60.7289 24.2344 60.6615C24.3073 60.55 24.3964 60.4726 24.5017 60.4293C24.607 60.3859 24.7247 60.3899 24.8546 60.4413C24.9846 60.4927 25.0876 60.5759 25.1636 60.691C25.2397 60.8061 25.29 60.9386 25.3146 61.0886C25.3298 61.1796 25.3332 61.2788 25.3251 61.3861C25.3169 61.4933 25.3014 61.6084 25.2787 61.7312L25.0954 62.7235C25.0728 62.8463 25.0465 62.957 25.0166 63.0557C24.9868 63.1545 24.9497 63.2375 24.9052 63.305C24.8324 63.4164 24.7433 63.4938 24.6379 63.5372C24.5326 63.5806 24.415 63.5766 24.285 63.5252C24.155 63.4738 24.052 63.3905 23.976 63.2754C23.8999 63.1604 23.8496 63.0278 23.825 62.8778C23.8098 62.7868 23.8064 62.6877 23.8146 62.5804C23.8228 62.4731 23.8382 62.3581 23.8609 62.2353L24.0442 61.243ZM24.2575 62.4942C24.2363 62.609 24.2387 62.7024 24.2646 62.7743C24.2906 62.8462 24.3347 62.8945 24.3969 62.9191C24.4592 62.9437 24.5139 62.9345 24.5611 62.8915C24.6082 62.8486 24.6424 62.7696 24.6637 62.6547L24.8821 61.4723C24.9033 61.3574 24.9009 61.264 24.875 61.1921C24.849 61.1202 24.8049 61.072 24.7427 61.0474C24.6804 61.0227 24.6257 61.0319 24.5785 61.0749C24.5314 61.1179 24.4972 61.1968 24.476 61.3117L24.2575 62.4942Z"/>
<path d="M25.2692 63.859L25.6872 61.3029L25.4826 61.2313L25.561 60.7524L25.7655 60.824L25.8331 60.4109C25.8572 60.2633 25.8926 60.1438 25.9393 60.0526C25.9859 59.9613 26.0407 59.8908 26.1036 59.8411C26.1638 59.7905 26.2282 59.7624 26.2969 59.7569C26.3656 59.7514 26.434 59.7606 26.5022 59.7845L26.6945 59.8518L26.6005 60.4265L26.4123 60.3606C26.3305 60.3319 26.2781 60.3874 26.2553 60.5271L26.1828 60.9701L26.4938 61.079L26.4154 61.5579L26.1045 61.449L25.6865 64.0051L25.2692 63.859Z"/>
<path d="M27.8152 61.4857L27.3805 64.5409L26.9604 64.4129L27.0024 64.1177L26.9942 64.1152C26.9365 64.1982 26.8724 64.2614 26.8017 64.3049C26.7311 64.3483 26.6477 64.3554 26.5516 64.3261C26.4995 64.3103 26.4492 64.2813 26.4007 64.2393C26.3523 64.1973 26.3117 64.1399 26.2791 64.0671C26.2465 63.9943 26.2246 63.9069 26.2133 63.805C26.202 63.7031 26.2061 63.5838 26.2255 63.4472L26.559 61.1031L26.9791 61.2311L26.6782 63.3462C26.6622 63.4587 26.6675 63.5525 26.694 63.6276C26.7205 63.7028 26.7668 63.7504 26.8327 63.7705C26.9123 63.7947 26.9723 63.7753 27.0128 63.7122C27.0533 63.6491 27.0833 63.5492 27.1027 63.4126L27.3951 61.3578L27.8152 61.4857Z"/>
<path d="M27.7264 64.6486L28.0628 61.567L28.4865 61.666L28.454 61.9639L28.4623 61.9658C28.5172 61.8789 28.5793 61.8113 28.6484 61.7631C28.7176 61.7148 28.8007 61.702 28.8976 61.7247C28.989 61.746 29.0616 61.7963 29.1154 61.8753C29.1693 61.9544 29.2114 62.0369 29.2418 62.123C29.3037 62.0502 29.3698 61.9909 29.4401 61.945C29.5105 61.8991 29.6024 61.8894 29.7159 61.9159C29.7686 61.9282 29.8211 61.954 29.8736 61.9933C29.9262 62.0325 29.9713 62.0878 30.0089 62.1589C30.0466 62.23 30.0741 62.3164 30.0914 62.4181C30.1087 62.5198 30.1098 62.6396 30.0948 62.7773L29.8367 65.1417L29.413 65.0427L29.6459 62.9093C29.6583 62.7958 29.65 62.7025 29.6211 62.6292C29.5921 62.556 29.5444 62.5116 29.478 62.4961C29.3977 62.4773 29.3383 62.5008 29.2999 62.5667C29.2614 62.6325 29.2347 62.7343 29.2197 62.872L28.9935 64.9447L28.5697 64.8457L28.8026 62.7123C28.815 62.5988 28.8067 62.5054 28.7778 62.4322C28.7488 62.359 28.7011 62.3146 28.6347 62.299C28.5544 62.2803 28.495 62.3038 28.4566 62.3696C28.4181 62.4354 28.3914 62.5372 28.3764 62.675L28.1502 64.7476L27.7264 64.6486Z"/>
<path d="M30.189 65.1911L30.4479 62.0936L30.8738 62.1698L30.6149 65.2673L30.189 65.1911ZM30.5005 61.4643L30.5525 60.8411L30.9785 60.9173L30.9264 61.5405L30.5005 61.4643Z"/>
<path d="M32.1678 65.4939L32.2693 63.6471L31.8209 61.0565L32.2737 61.1097L32.5222 62.8865L32.5305 62.8875L32.9698 61.1916L33.4227 61.2449L32.697 63.6975L32.5955 65.5442L32.1678 65.4939Z"/>
<path d="M34.1464 65.6705L34.156 65.3507L34.1476 65.3502C34.0881 65.4614 34.0288 65.5459 33.9695 65.6037C33.9102 65.6615 33.8287 65.6871 33.7251 65.6805C33.6746 65.6772 33.6238 65.6627 33.5727 65.6368C33.5215 65.6109 33.473 65.5657 33.4272 65.5012C33.3813 65.4408 33.3453 65.3553 33.3191 65.2448C33.2929 65.1342 33.2824 64.9929 33.2876 64.8207C33.2929 64.6444 33.3073 64.4903 33.3309 64.3583C33.3545 64.2263 33.3942 64.117 33.4502 64.0302C33.5032 63.9473 33.5738 63.8872 33.6619 63.8497C33.75 63.8122 33.8614 63.7977 33.9959 63.8064C34.0099 63.8073 34.0253 63.8082 34.0421 63.8093C34.0589 63.8104 34.0742 63.8134 34.0881 63.8184C34.102 63.8234 34.1188 63.8265 34.1384 63.8278C34.158 63.8291 34.1789 63.8325 34.2012 63.838L34.211 63.5121C34.2142 63.4055 34.2014 63.3164 34.1727 63.2447C34.1439 63.173 34.0889 63.1346 34.0077 63.1294C33.9516 63.1258 33.8997 63.1492 33.8519 63.1995C33.8041 63.2499 33.7716 63.3258 33.7545 63.4274L33.3385 63.4008C33.358 63.1227 33.4292 62.9014 33.552 62.7367C33.6105 62.6583 33.6797 62.5981 33.7595 62.5559C33.8394 62.5138 33.9284 62.4959 34.0264 62.5022C34.1161 62.5079 34.1995 62.5338 34.2768 62.5798C34.354 62.6258 34.4208 62.6917 34.4772 62.7775C34.5308 62.8631 34.5725 62.9684 34.6025 63.0935C34.6324 63.2187 34.6449 63.3632 34.64 63.5272L34.5751 65.6979L34.1464 65.6705ZM34.1865 64.3299C34.1393 64.3146 34.1002 64.3059 34.0694 64.3039C33.9769 64.298 33.8968 64.3247 33.8291 64.3841C33.7614 64.4434 33.725 64.5571 33.7199 64.7252C33.7164 64.8441 33.7331 64.9416 33.7701 65.018C33.8072 65.0943 33.8607 65.1346 33.9307 65.1391C34.0036 65.1438 34.0614 65.1126 34.1041 65.0455C34.1468 64.9784 34.17 64.8813 34.1738 64.7542L34.1865 64.3299Z"/>
<path d="M34.8906 65.7215L34.8911 62.6009L35.3202 62.601L35.3201 62.9026L35.3285 62.9026C35.3734 62.8041 35.4274 62.7231 35.4905 62.6595C35.5536 62.596 35.6343 62.5642 35.7324 62.5642C35.825 62.5642 35.9021 62.5971 35.9638 62.6628C36.0255 62.7284 36.0759 62.8003 36.1152 62.8783C36.1685 62.7921 36.2274 62.7183 36.2919 62.6567C36.3564 62.5952 36.4462 62.5644 36.5612 62.5645C36.6144 62.5645 36.6691 62.5779 36.7252 62.6045C36.7813 62.6312 36.8318 62.6754 36.8766 62.7369C36.9215 62.7985 36.958 62.8775 36.986 62.9739C37.014 63.0704 37.028 63.1884 37.028 63.3279L37.0276 65.7222L36.5985 65.7221L36.5989 63.5616C36.5989 63.4467 36.5807 63.3564 36.5442 63.2908C36.5078 63.2251 36.4559 63.1923 36.3886 63.1923C36.3073 63.1922 36.2512 63.2291 36.2203 63.303C36.1894 63.3768 36.174 63.4835 36.174 63.623L36.1737 65.7219L35.7446 65.7218L35.7449 63.5613C35.7449 63.4465 35.7267 63.3562 35.6902 63.2905C35.6538 63.2248 35.6019 63.192 35.5346 63.192C35.4533 63.1919 35.3972 63.2289 35.3663 63.3027C35.3355 63.3766 35.32 63.4832 35.32 63.6228L35.3197 65.7217L34.8906 65.7215Z"/>
<path d="M38.1924 65.6495L38.1837 65.3297L38.1753 65.3302C38.1224 65.4483 38.068 65.5397 38.0123 65.6046C37.9565 65.6695 37.8768 65.7049 37.7731 65.711C37.7226 65.7139 37.6712 65.7056 37.6187 65.6861C37.5663 65.6666 37.5154 65.6275 37.4661 65.5688C37.4169 65.5141 37.3761 65.4334 37.3437 65.3264C37.3113 65.2195 37.2927 65.0799 37.288 64.9077C37.2832 64.7314 37.2888 64.5761 37.3048 64.4417C37.3208 64.3073 37.3541 64.1934 37.4049 64.1001C37.453 64.011 37.5199 63.9424 37.6056 63.8943C37.6913 63.8462 37.8014 63.8182 37.9359 63.8103C37.9499 63.8095 37.9653 63.8086 37.9821 63.8076C37.999 63.8066 38.0144 63.8078 38.0285 63.8111C38.0427 63.8144 38.0595 63.8154 38.0792 63.8143C38.0988 63.8131 38.1198 63.814 38.1424 63.8167L38.1335 63.4908C38.1306 63.3842 38.1127 63.2969 38.08 63.229C38.0473 63.1611 37.9903 63.1295 37.909 63.1343C37.853 63.1376 37.8026 63.1672 37.7578 63.2232C37.713 63.2792 37.685 63.3589 37.6738 63.4622L37.2577 63.4865C37.2613 63.2071 37.3195 62.9778 37.4325 62.7987C37.4863 62.7134 37.5518 62.6449 37.629 62.5932C37.7062 62.5414 37.7938 62.5127 37.8919 62.507C37.9816 62.5017 38.0662 62.5173 38.1458 62.5537C38.2254 62.5902 38.2957 62.6476 38.3568 62.7262C38.4151 62.8049 38.4627 62.9048 38.4997 63.0259C38.5367 63.1469 38.5574 63.2894 38.5619 63.4534L38.6212 65.6245L38.1924 65.6495ZM38.1558 64.3088C38.1078 64.2992 38.0684 64.2954 38.0376 64.2972C37.9451 64.3026 37.8668 64.339 37.8027 64.4064C37.7386 64.4738 37.7088 64.5916 37.7134 64.7597C37.7167 64.8786 37.7389 64.9738 37.7802 65.0453C37.8214 65.1168 37.8771 65.1505 37.9471 65.1464C38.02 65.1421 38.0758 65.104 38.1145 65.0319C38.1532 64.9598 38.1709 64.8602 38.1674 64.7331L38.1558 64.3088Z"/>
<path d="M38.9367 65.61L38.7651 62.4995L39.1927 62.4489L39.2093 62.7496L39.2177 62.7486C39.257 62.6451 39.3064 62.558 39.3658 62.4872C39.4252 62.4163 39.5038 62.3751 39.6016 62.3636C39.6939 62.3527 39.7726 62.3763 39.8377 62.4345C39.9028 62.4927 39.9571 62.5583 40.0005 62.6314C40.0489 62.5392 40.1035 62.4587 40.1644 62.3897C40.2253 62.3208 40.3131 62.2795 40.4277 62.266C40.4808 62.2597 40.536 62.2665 40.5934 62.2865C40.6508 62.3065 40.7035 62.3445 40.7517 62.4006C40.7998 62.4567 40.8405 62.5311 40.8737 62.6239C40.907 62.7167 40.9274 62.8327 40.9351 62.9717L41.0668 65.3583L40.6391 65.4088L40.5203 63.2554C40.514 63.1409 40.4908 63.053 40.4509 62.9919C40.4109 62.9308 40.3574 62.9041 40.2903 62.9121C40.2092 62.9216 40.1554 62.9651 40.1287 63.0423C40.102 63.1196 40.0925 63.2277 40.1002 63.3668L40.2156 65.4589L39.7879 65.5094L39.6691 63.356C39.6628 63.2415 39.6396 63.1536 39.5997 63.0925C39.5597 63.0313 39.5062 63.0047 39.4391 63.0127C39.358 63.0222 39.3042 63.0656 39.2775 63.1429C39.2508 63.2202 39.2413 63.3283 39.249 63.4674L39.3644 65.5595L38.9367 65.61Z"/>
<path d="M41.2049 63.2399C41.1941 63.1137 41.1898 62.9966 41.1919 62.8887C41.194 62.7808 41.2069 62.6834 41.2306 62.5964C41.2693 62.4529 41.3318 62.3319 41.4181 62.2335C41.5043 62.135 41.6143 62.0736 41.7479 62.0493C41.8815 62.025 41.9983 62.045 42.0985 62.1095C42.1987 62.1739 42.2795 62.2688 42.341 62.394C42.3786 62.4699 42.4074 62.5597 42.4276 62.6636C42.4477 62.7674 42.4632 62.8824 42.4739 63.0087L42.5607 64.0287C42.5715 64.1549 42.5758 64.272 42.5737 64.3799C42.5716 64.4878 42.5587 64.5853 42.535 64.6723C42.4963 64.8158 42.4338 64.9367 42.3475 65.0352C42.2612 65.1336 42.1513 65.195 42.0177 65.2193C41.8841 65.2437 41.7673 65.2236 41.6671 65.1592C41.5669 65.0947 41.4861 64.9999 41.4245 64.8746C41.387 64.7988 41.3582 64.7089 41.338 64.6051C41.3179 64.5012 41.3024 64.3862 41.2917 64.26L41.2049 63.2399ZM41.7258 64.2801C41.7359 64.3982 41.7622 64.4833 41.8048 64.5355C41.8474 64.5877 41.9007 64.608 41.9647 64.5963C42.0287 64.5846 42.077 64.5459 42.1095 64.48C42.1421 64.4141 42.1533 64.3221 42.1433 64.204L42.0398 62.9885C42.0297 62.8704 42.0034 62.7853 41.9608 62.7331C41.9182 62.6809 41.8649 62.6606 41.8009 62.6723C41.7369 62.684 41.6886 62.7228 41.6561 62.7886C41.6235 62.8545 41.6123 62.9465 41.6223 63.0646L41.7258 64.2801Z"/>
<path d="M42.6399 61.9112L42.5423 60.9741L42.9665 60.8796L43.0641 61.8167L43.3261 61.7583L43.3767 62.2451L43.1147 62.3035L43.2927 64.0133C43.3003 64.0864 43.3111 64.1421 43.325 64.1805C43.3389 64.2189 43.358 64.2458 43.3823 64.2611C43.4066 64.2764 43.4349 64.2826 43.4672 64.2795C43.4995 64.2765 43.5392 64.2697 43.5864 64.2592L43.6472 64.8434L43.4725 64.8823C43.3755 64.9039 43.2921 64.8997 43.2223 64.8696C43.1525 64.8395 43.0946 64.7943 43.0486 64.7339C43.0026 64.6736 42.966 64.6019 42.9389 64.5187C42.9118 64.4355 42.8941 64.3533 42.8856 64.2722L42.6905 62.398L42.4784 62.4453L42.4278 61.9585L42.6399 61.9112Z"/>
<path d="M43.5192 62.7762C43.5037 62.651 43.4949 62.5345 43.4929 62.4266C43.491 62.3187 43.5001 62.2203 43.5205 62.1315C43.5536 61.9851 43.6114 61.8592 43.6939 61.754C43.7763 61.6487 43.8837 61.5784 44.0162 61.5433C44.1486 61.5081 44.2661 61.5186 44.3685 61.5748C44.471 61.631 44.5553 61.7192 44.6215 61.8392C44.6619 61.9119 44.6941 61.9993 44.7181 62.1013C44.7422 62.2034 44.762 62.317 44.7775 62.4421L44.9029 63.4535C44.9185 63.5787 44.9272 63.6952 44.9292 63.8031C44.9312 63.911 44.922 64.0094 44.9016 64.0982C44.8685 64.2446 44.8107 64.3705 44.7283 64.4758C44.6459 64.5811 44.5384 64.6513 44.406 64.6865C44.2735 64.7216 44.156 64.7111 44.0536 64.6549C43.9511 64.5987 43.8668 64.5106 43.8006 64.3905C43.7603 64.3178 43.728 64.2304 43.704 64.1284C43.6799 64.0264 43.6601 63.9128 43.6446 63.7876L43.5192 62.7762ZM44.0788 63.7724C44.0934 63.8895 44.1229 63.9724 44.1674 64.021C44.2119 64.0697 44.2659 64.0856 44.3294 64.0687C44.3928 64.0519 44.4396 64.0092 44.4695 63.9408C44.4995 63.8724 44.5073 63.7796 44.4928 63.6625L44.3433 62.4573C44.3288 62.3402 44.2993 62.2574 44.2547 62.2087C44.2102 62.1601 44.1562 62.1442 44.0928 62.161C44.0293 62.1779 43.9826 62.2205 43.9526 62.2889C43.9226 62.3574 43.9149 62.4501 43.9294 62.5672L44.0788 63.7724Z"/>
<path d="M45.4034 64.8313L45.2504 63.7713L45.6703 63.6416L45.7589 64.2559L45.4034 64.8313Z"/>
<path d="M46.8912 63.8787L46.1189 59.6444L46.7408 59.4016C46.8546 59.3572 46.9588 59.3398 47.0535 59.3496C47.1482 59.3593 47.2409 59.406 47.3316 59.4895C47.4223 59.573 47.4947 59.6838 47.5489 59.8219C47.6031 59.96 47.6534 60.1559 47.6997 60.4096C47.7344 60.5999 47.7562 60.7634 47.7652 60.9001C47.7741 61.0367 47.7647 61.1721 47.7369 61.3061C47.7053 61.4671 47.6491 61.6047 47.5684 61.7191C47.4876 61.8334 47.37 61.9207 47.2156 61.981L47.0042 62.0636L47.3057 63.7168L46.8912 63.8787ZM46.6376 60.0535L46.9001 61.4926L47.0993 61.4149C47.1833 61.3821 47.2451 61.3388 47.2846 61.2852C47.3242 61.2315 47.349 61.1687 47.3591 61.0968C47.3699 61.0289 47.3694 60.9505 47.3576 60.8617C47.3457 60.7729 47.3301 60.675 47.3105 60.5679C47.2925 60.4688 47.2739 60.3752 47.255 60.287C47.236 60.1989 47.2095 60.1253 47.1755 60.0664C47.1416 60.0075 47.0997 59.9686 47.0498 59.9499C46.9999 59.9311 46.9343 59.9376 46.8531 59.9693L46.6376 60.0535Z"/>
<path d="M48.5189 63.23L47.6122 59.0532L48.0212 58.8631L48.3446 60.3532L48.3527 60.3495C48.375 60.2357 48.4097 60.1346 48.4567 60.046C48.5037 59.9574 48.574 59.8914 48.6675 59.8479C48.7183 59.8243 48.7718 59.8135 48.8282 59.8153C48.8845 59.8171 48.939 59.838 48.9918 59.8781C49.0447 59.9181 49.0931 59.9785 49.1371 60.0592C49.1811 60.1399 49.2175 60.2468 49.2464 60.3797L49.7418 62.6618L49.3328 62.8518L48.8858 60.7927C48.8621 60.6832 48.826 60.6052 48.7777 60.5588C48.7294 60.5124 48.6731 60.5041 48.609 60.5339C48.5314 60.5699 48.4856 60.6299 48.4715 60.714C48.4574 60.7981 48.4648 60.9066 48.4936 61.0395L48.9278 63.04L48.5189 63.23Z"/>
<path d="M50.0743 62.486L49.9297 61.8948L50.3337 61.6834L50.4783 62.2745L50.0743 62.486Z"/>
<path d="M50.8358 62.0911L49.7125 58.0285L50.3013 57.6799C50.5301 57.5445 50.7289 57.5331 50.8977 57.6456C51.0664 57.7582 51.1971 57.9819 51.2897 58.3166L51.815 60.2167C51.9202 60.597 51.9347 60.9149 51.8586 61.1702C51.7825 61.4256 51.6261 61.6232 51.3895 61.7633L50.8358 62.0911ZM50.2617 58.3408L51.0821 61.3079L51.2654 61.1994C51.3772 61.1332 51.4452 61.0454 51.4693 60.9359C51.4935 60.8264 51.4814 60.6842 51.433 60.5092L50.8919 58.5521C50.8477 58.3923 50.7914 58.2817 50.7231 58.2204C50.6547 58.1591 50.562 58.1631 50.445 58.2323L50.2617 58.3408Z"/>
<path d="M52.4665 61.0965L52.2881 60.5255L52.6784 60.2645L52.8567 60.8356L52.4665 61.0965Z"/>
</g>
<g fill="#20018c" fill-opacity="0" opacity="0.998894" stroke="none">
<path d="M81.3576 75.0453C81.6296 75.0453 81.7216 75.0493 81.8656 75.0653L81.8656 74.5893C81.7136 74.6133 81.6216 74.6173 81.3496 74.6173L79.0096 74.6173C78.7336 74.6173 78.6456 74.6133 78.4936 74.5893L78.4936 75.0653C78.6376 75.0493 78.7296 75.0453 79.0016 75.0453L79.9776 75.0453C79.9656 75.3573 79.9056 75.6173 79.8016 75.8013C79.6336 76.1093 79.3336 76.3213 78.8536 76.4693C79.0256 76.6373 79.0776 76.7053 79.1776 76.9093C79.7176 76.6933 80.0096 76.4733 80.2216 76.1213C80.3936 75.8373 80.4816 75.5053 80.5016 75.0453L81.3576 75.0453ZM78.8976 74.0693C79.0296 74.0533 79.1256 74.0493 79.4056 74.0493L80.9576 74.0493C81.2376 74.0493 81.3336 74.0533 81.4656 74.0693L81.4656 73.5813C81.3176 73.6053 81.2376 73.6093 80.9496 73.6093L79.4136 73.6093C79.1256 73.6093 79.0456 73.6053 78.8976 73.5813L78.8976 74.0693Z"/>
<path d="M83.7376 74.1973L82.9936 74.3133C82.8256 74.3373 82.6976 74.3533 82.5536 74.3573L82.6336 74.8493C82.7416 74.8173 82.8896 74.7893 83.0736 74.7573L83.8176 74.6413L83.9376 75.2973L82.9656 75.4533C82.7936 75.4813 82.6776 75.4933 82.5416 75.4933L82.6216 75.9853C82.7656 75.9453 82.8376 75.9293 83.0296 75.8973L84.0176 75.7413L84.1616 76.5293C84.1936 76.7173 84.2096 76.8293 84.2136 76.9493L84.7496 76.8533C84.7056 76.7173 84.7016 76.7053 84.6536 76.4413L84.5096 75.6653L85.4616 75.5133C85.5416 75.5013 85.5936 75.4933 85.6216 75.4893C85.6416 75.4853 85.6616 75.4813 85.6856 75.4813C85.7696 75.4653 85.7856 75.4653 85.8696 75.4613L85.7816 74.9813C85.6736 75.0133 85.5336 75.0453 85.3656 75.0733L84.4256 75.2213L84.3056 74.5653L85.1496 74.4333C85.4256 74.3893 85.4256 74.3893 85.5336 74.3813L85.4496 73.9013C85.3456 73.9373 85.2616 73.9573 85.0656 73.9893L84.2216 74.1213L84.1576 73.7733C84.1296 73.6173 84.1136 73.5013 84.1096 73.3973L83.5816 73.4813C83.6256 73.5933 83.6416 73.6613 83.6776 73.8573L83.7376 74.1973Z"/>
<path d="M89.6736 76.3933C89.1896 75.9253 89.1896 75.9253 89.0896 75.8373C88.8176 75.5933 88.6016 75.4253 88.3496 75.2573C88.5936 74.9293 88.7896 74.5813 88.9736 74.1533C89.0176 74.0533 89.0496 73.9973 89.1016 73.9373L88.8376 73.6653C88.7376 73.7013 88.7056 73.7053 88.4816 73.7093L87.0736 73.7293C87.0256 73.7293 86.9936 73.7293 86.9776 73.7293C86.8136 73.7293 86.7376 73.7253 86.6256 73.7053L86.6416 74.2173C86.7776 74.1973 86.8856 74.1893 87.0776 74.1853C88.3376 74.1653 88.3376 74.1653 88.4016 74.1613L88.3576 74.2653C88.0976 74.8893 87.6176 75.4693 87.0136 75.8933C86.7136 76.1053 86.5216 76.2133 86.2136 76.3333C86.3776 76.5053 86.4256 76.5693 86.5376 76.7773C87.1496 76.4773 87.6096 76.1253 88.0616 75.6213C88.4976 75.9533 88.9576 76.4013 89.2896 76.8093L89.6736 76.3933Z"/>
<path d="M91.5496 76.8573C91.5376 76.7253 91.5336 76.6213 91.5336 76.4133L91.5336 75.3573C91.5336 75.2453 91.5296 75.1973 91.5176 75.0853C91.5496 75.1053 91.5616 75.1093 91.6536 75.1533C92.3216 75.4613 92.7376 75.6893 93.0696 75.9173L93.3496 75.4453C92.7096 75.0853 92.0816 74.7933 91.5336 74.6013L91.5336 73.8573C91.5336 73.6093 91.5336 73.5573 91.5496 73.4373L91.0016 73.4373C91.0176 73.5453 91.0256 73.6493 91.0256 73.8453L91.0256 76.4093C91.0256 76.6213 91.0216 76.7293 91.0016 76.8573L91.5496 76.8573Z"/>
</g>
</g>
</svg>
