<?xml version="1.0" encoding="UTF-8" standalone="no"?>
<!DOCTYPE svg PUBLIC "-//W3C//DTD SVG 1.1//EN" "http://www.w3.org/Graphics/SVG/1.1/DTD/svg11.dtd">
<!-- Created with Vectornator (http://vectornator.io/) -->
<svg height="100%" stroke-miterlimit="10" style="fill-rule:nonzero;clip-rule:evenodd;stroke-linecap:round;stroke-linejoin:round;" version="1.1" viewBox="0 0 52.8232 26.7737" width="100%" xml:space="preserve" xmlns="http://www.w3.org/2000/svg" xmlns:xlink="http://www.w3.org/1999/xlink">
<defs/>
<g id="moji">
<g opacity="1">
<path d="M0.0300909 14.7577C0.221008 14.3128 2.72782 13.7584 5.48523 13.2289C6.81158 11.9094 9.42851 11.7759 10.3861 11.79C9.72425 11.2548 8.20926 8.22088 9.08239 6.92527C9.95552 5.62966 10.7103 5.59361 11.6729 5.24943C11.7856 3.82707 12.3337 2.17028 16.191 1.55603C18.6516 1.16418 20.1501 2.22128 22.2651 3.37465C26.5745 2.75604 39.5141 1.00061 42.5675 0.403384C40.1047 2.10205 33.9826 5.92684 30.6782 7.14068C36.4667 9.60958 44.1564 10.9794 46.9857 12.0176C38.3355 13.7589 33.0267 13.9104 26.991 13.948C31.1989 15.1222 31.524 16.4584 38.3621 16.2202C45.2002 15.9821 50.3702 14.4465 52.5203 13.2403C50.8864 16.9253 43.9232 19.422 42.2184 20.414C44.0772 20.5213 45.693 21.2023 51.4628 20.5936C50.2141 22.3022 41.3135 23.8578 36.4421 23.603C38.17 26.115 37.3187 26.1983 32.0821 26.7737C30.6931 25.7676 30.9782 25.4506 28.2562 24.8279C25.0946 24.1046 21.5035 24.3647 19.79 23.902C16.6012 23.041 12.7111 21.538 8.81005 19.3264C4.90896 17.1149 5.05577 16.8131 3.24789 16.285C1.44001 15.7569-0.160827 15.2026 0.0300909 14.7577Z" fill="#aaaac7" fill-rule="nonzero" opacity="1" stroke="none"/>
<path d="M27.2322 22.62C27.2322 22.62 30.8285 24.5131 31.3387 24.1285C32.436 24.5637 33.8563 23.432 34.2808 23.7968C34.5459 24.0247 32.731 24.4681 32.1638 24.8977C31.5966 25.3273 34.8566 23.981 34.5636 24.4341C34.2705 24.8873 32.3348 25.5258 32.5287 25.6825C32.7226 25.8391 35.1781 24.4611 35.1037 24.9184C35.0669 25.1452 33.1323 26.3766 32.4939 26.254C31.6627 26.0943 31.1805 24.9592 31.0011 24.677C30.7249 24.5417 26.5245 23.3683 26.5342 23.3711C26.5342 23.3711 26.5285 23.3694 26.5262 23.3688C26.5198 23.3669 27.1256 22.6987 27.1256 22.6987C27.1714 22.6485 27.2192 22.6133 27.2322 22.62Z" fill="#594c2e" fill-rule="nonzero" opacity="1" stroke="none"/>
<path d="M29.9819 22.1195C29.9819 22.1195 32.7605 24.2379 33.3686 24.0976C34.263 24.6478 35.9755 24.2161 36.2571 24.5615C36.4331 24.7773 34.573 24.6523 33.8964 24.8096C33.2199 24.967 36.741 24.8204 36.3158 25.0578C35.8906 25.2951 33.8524 25.2736 33.9844 25.4246C34.1164 25.5756 36.8876 25.2196 36.6677 25.5109C36.5586 25.6554 34.3275 26.0342 33.7645 25.8022C33.0313 25.5001 32.9471 24.6212 32.87 24.3889C32.6533 24.233 29.0683 22.459 29.0766 22.4632C29.0766 22.4632 29.0717 22.4607 29.0698 22.4598C29.0644 22.4571 29.8555 22.1477 29.8555 22.1477C29.9152 22.1245 29.9718 22.1119 29.9819 22.1195Z" fill="#96793b" fill-rule="nonzero" opacity="1" stroke="none"/>
<path d="M39.2617 20.0113C40.982 21.5199 42.8837 21.1359 49.8748 21.2817C43.1484 23.3062 31.6529 23.7951 28.2605 21.4769C26.745 20.4413 37.9616 18.8713 39.2617 20.0113Z" fill="#979798" fill-rule="nonzero" opacity="1" stroke="none"/>
<path d="M5.49707 16.2123C5.45086 16.2993 5.60926 16.5134 5.9438 16.8202C7.49179 18.2397 13.1744 21.0904 19.443 23.0571C27.0664 25.4487 35.8451 21.0075 36.0646 20.3731C36.2841 19.7388 25.1205 19.4404 21.4026 18.2108C17.6848 16.9812 5.75711 15.7229 5.49707 16.2123Z" fill="#ffffff" fill-rule="nonzero" opacity="1" stroke="none"/>
<path d="M7.97535 16.3314C7.21725 15.7944 6.13853 16.0233 4.94097 16.3007C6.11514 17.26 7.0245 18.0928 8.52023 18.701C8.67792 17.5708 8.73345 16.8684 7.97535 16.3314Z" fill="#fe0000" fill-rule="nonzero" opacity="1" stroke="none"/>
<path d="M13.4459 15.685C13.4459 15.685 7.23035 8.48729 9.98733 6.39588C12.7443 4.30446 16.9541 4.98638 40.6423 1.08196C27.3372 9.97962 23.0498 8.29965 23.1508 9.74198C23.3966 13.2514 13.4459 15.685 13.4459 15.685Z" fill="#929292" fill-rule="nonzero" opacity="1" stroke="none"/>
<path d="M6.85233 15.3685C7.02432 14.969 3.17658 14.0615 5.66063 13.586C6.85549 12.4013 7.43186 12.2563 8.85621 12.0512C10.4516 11.7908 14.4389 13.0986 14.4389 13.0986C14.4389 13.0986 8.76162 3.97758 14.6018 2.18977C20.442 0.401949 20.2774 5.74275 45.1482 12.0181C28.8137 14.1868 24.1533 13.587 24.1533 13.587C24.1533 13.587 25.3012 13.5835 30.844 15.7095C35.678 17.5637 44.0973 16.8749 49.5034 15.0211C50.2962 14.7492 51.0107 14.4734 51.6223 14.204C51.2668 14.5087 50.6593 14.9741 49.8903 15.5166C47.9192 16.9072 44.8867 18.8043 42.3162 19.8001C40.1939 20.6222 36.1776 21.3816 34.1248 21.4684C28.6157 21.7012 23.8433 20.9998 18.8963 19.7682C13.9492 18.5366 14.0572 18.1601 7.80786 16.5578C4.04576 15.9976 6.09731 16.6523 4.46866 16.1781C2.84 15.7039 6.68033 15.768 6.85233 15.3685Z" fill="#000000" fill-rule="nonzero" opacity="1" stroke="none"/>
<path d="M0.884226 14.7047C0.984846 14.471 1.99212 14.2248 3.09221 14.058C3.87251 13.9398 4.00601 13.9729 5.03682 13.7756C5.62047 13.527 8.76526 15.0711 7.74827 16.6913C3.98616 16.1311 6.03772 16.7859 4.40907 16.3117C2.78041 15.8375 0.712236 15.1042 0.884226 14.7047Z" fill="#737385" fill-rule="nonzero" opacity="1" stroke="none"/>
<path d="M6.08532 13.4593L5.08268 13.7741L6.66575 14.3314C6.66575 14.3314 7.13461 14.1239 6.97138 13.6692C6.80816 13.2145 6.08532 13.4593 6.08532 13.4593Z" fill="#800000" fill-rule="nonzero" opacity="1" stroke="none"/>
<path d="M7.90268 15.8787C7.9435 15.7043 6.21408 15.2544 4.49548 14.9801C2.77688 14.7057 1.09024 14.6013 1.02828 14.7813C0.966328 14.9613 2.3789 14.8721 4.0975 15.1464C5.8161 15.4208 7.86187 16.0531 7.90268 15.8787Z" fill="#ffffff" fill-opacity="0.710938" fill-rule="nonzero" opacity="1" stroke="none"/>
<path d="M9.25629 14.0646L9.25629 14.0646C9.39048 14.3897 9.23578 14.7619 8.91075 14.8961L8.91075 14.8961C8.58573 15.0303 8.21346 14.8756 8.07927 14.5506L8.07927 14.5506C7.94508 14.2256 8.09978 13.8533 8.4248 13.7191L8.4248 13.7191C8.74982 13.5849 9.12209 13.7396 9.25629 14.0646Z" fill="#ffffff" fill-rule="nonzero" opacity="1" stroke="none"/>
<path d="M8.87168 14.1126L8.87168 14.1126C8.96292 14.3336 8.85774 14.5867 8.63675 14.6779L8.63675 14.6779C8.41576 14.7692 8.16265 14.664 8.07141 14.443L8.07141 14.443C7.98017 14.222 8.08535 13.9689 8.30634 13.8776L8.30634 13.8776C8.52733 13.7864 8.78044 13.8916 8.87168 14.1126Z" fill="#000000" fill-rule="nonzero" opacity="1" stroke="none"/>
</g>
</g>
</svg>
