<?xml version="1.0" encoding="UTF-8" standalone="no"?>
<!DOCTYPE svg PUBLIC "-//W3C//DTD SVG 1.1//EN" "http://www.w3.org/Graphics/SVG/1.1/DTD/svg11.dtd">
<!-- Created with Vectornator (http://vectornator.io/) -->
<svg height="100%" stroke-miterlimit="10" style="fill-rule:nonzero;clip-rule:evenodd;stroke-linecap:round;stroke-linejoin:round;" version="1.1" viewBox="0 0 419.58 283.5" width="100%" xml:space="preserve" xmlns="http://www.w3.org/2000/svg" xmlns:vectornator="http://vectornator.io" xmlns:xlink="http://www.w3.org/1999/xlink">
<defs/>
<g id="背鰭" vectornator:layerName="背鰭">
<path d="M9.62379 186.933L12.1364 179.263L15.5747 183.627L17.5584 178.998L21.1289 183.494L22.0546 176.353L26.6832 182.701L26.4187 173.576L32.5018 182.304L32.3696 173.047L38.3205 182.172L37.9238 170.931L44.536 175.692L45.3294 169.477L51.5449 173.179L55.5121 167.096L60.0084 173.576L63.579 166.435L67.5463 170.931L72.836 164.451L73.6294 170.402L74.1584 174.237L76.0127 176.371L80.3661 170.422L81.3819 167.737L84.792 171.292L90.4514 163.674L93.2811 164.762L91.83 170.93L94.8048 171.51L97.8521 172.381L97.4168 177.968L97.1266 183.264L99.8837 184.933L104.527 184.788L107.139 181.74L105.325 176.081L105.18 173.251L107.647 175.283L111.13 177.677L113.669 178.548L114.467 173.904L116.426 168.898L118.168 173.759L120.272 176.589L124.77 178.621L123.61 182.611L124.48 185.513L127.745 185.586L130.502 183.554L131.736 178.475L134.638 182.756L136.815 184.207L139.282 183.554L136.685 178.47L132.204 171.168L129.631 164.032L132.702 161.127L137.847 161.957L142.328 166.355L146.975 168.513L150.128 169.508L147.389 166.355L142.66 160.878L139.257 155.235L135.191 149.178L135.689 144.863L138.842 147.601L139.589 144.199L146.228 148.763L149.215 156.563L149.63 149.925L152.451 147.352L154.941 148.514L156.6 153.908L159.754 158.306L160.998 154.904L161.579 150.754L158.758 146.191L152.534 144.946L147.389 135.154L154.692 135.652L146.56 130.922L142.66 127.188L142.411 122.458L147.306 122.873L148.385 120.632L152.451 122.375L146.311 111.172L146.442 106.58L152.105 109.515L151.979 103.955L150.002 97.5134L159.793 102.118L162.888 105.762L168.179 109.63L166.311 103.477L171.551 105.121L165.782 100.511L161.331 95.2029L168.569 93.5841L163.334 89.1671L158.197 83.7893L166.393 83.655L159.279 78.6301L152.279 71.1208L160.413 74.3084L165.58 78.0252L160.354 69.4489L158.259 53.2878L165.836 60.5786L171.017 70.9531L169.978 62.1107L170.219 51.5963L174.174 57.6854L179.644 61.1558L181.246 69.917L185.649 78.4093L184.75 68.1945L189.153 69.8919L193.315 75.3089L190.508 64.7607L186.061 51.2716L191.758 57.9546L194.858 65.6207L193.181 53.5237L193.822 41.802L198.116 50.0059L200.505 56.4899L198.897 43.7067L202.992 48.4235L201.449 37.7269L201.631 29.1478L206.155 32.3829L209.104 40.1722L214.305 40.8417L212.23 35.3604L214.028 28.6103L218.333 31.2684L222.691 34.7639L224.279 29.3852L226.085 22.2295L227.106 17.1541L230.678 21.8399L231.229 28.9771L232.138 39.6939L234.02 33.2212L236.071 24.2487L239.589 28.0864L241.443 33.045L246.838 26.7096L248.046 21.4913L252.885 25.5072L253.303 33.6353L256.382 29.51L260.845 27.5894L261.596 33.2402L260.509 38.8111L258.783 44.1277L251.71 52.9275L234.279 66.2161L215.859 85.5934L183.693 128.342L163.396 172.859L139.798 193.219L109.79 195.045L82.2593 184.145L48.9143 180.23L39.9972 181.792L9.62379 186.933Z" fill="#da8cb7" fill-opacity="0.997531" fill-rule="nonzero" opacity="1" stroke="#df008b" stroke-linecap="round" stroke-linejoin="miter" stroke-opacity="0.679688" stroke-width="3"/>
<path d="M47.3522 177.737L51.5714 174.413L55.451 176.36L55.8356 172.085L58.2472 176.945L64.2135 172.132L64.564 177.056L71.0562 172.911L71.7599 179.828L80.4294 176.873L82.0815 173.304L83.385 177.359L88.8212 171.604L88.7441 180.111L93.1838 176.578L92.8973 187.151L106.939 185.724L110.163 182.726L109.236 179.099L112.976 182.36L117.017 179.075L119.899 181.044L119.689 185.155L120.792 189.778L120.951 193.77L125.732 189.424L130.968 187.633L136.435 190.671L143.426 182.579L140.687 176.75L137.201 169.008L142.817 172.752L147.765 177.092L154.162 181.039L155.131 170.764L152.204 163.784L144.985 157.032L152.198 160.012L153.267 154.623L156.177 161.92L160.101 164.775L162.446 167.539L165.132 149.979L163.558 141.491L155.309 141.114L158.52 138.731L165.484 137.197L163.064 134.08L155.962 130.282L152.502 127.612L156.068 126.77L161.439 128.156L158.835 121.607L155.297 115.226L157.633 108.38L162.646 113.463L169.168 119.688L171.953 111.033L177.352 113.011L183.137 112.909L178.328 103.908L172.018 98.3761L180.15 96.0393L173.026 90.1771L171.623 81.8925L177.468 81.037L185.892 88.8855L192.292 94.5683L190.941 81.9441L196.014 87.2981L198.774 80.8133L197.668 70.2981L202.281 71.3134L207.296 77.9332L207.182 65.9997L207.305 52.0766L213.672 59.5034L217.373 66.0153L215.609 49.6927L219.049 43.2181L220.719 48.0639L221.631 56.0278L223.49 62.2517L225.215 44.3167L229.139 46.8179L230.266 54.2759L233.894 49.1793L238.062 43.2231L239.6 48.0484L244.067 43.6224L246.696 37.156L249.279 41.3355L249.234 47.6663L247.078 55.4202L217.677 83.0537L184.305 136.092L177.445 153.937L151.271 192.966L117.369 200.08L76.7441 190.157L58.7868 185.758L32.8459 183.424L15.0802 185.312L47.3522 177.737Z" fill="#c1d4d6" fill-opacity="0.997531" fill-rule="nonzero" opacity="1" stroke="#e7b1f8" stroke-linecap="round" stroke-linejoin="miter" stroke-width="2"/>
</g>
<g id="左腕" vectornator:layerName="左腕">
<path d="M263.807 109.551C265.132 113.65 275.329 124.863 279.767 132.013C284.206 139.164 301.587 139.126 304.299 144.427C307.011 149.728 308.293 158.536 304.594 161.865C300.896 165.194 289.943 156.649 286.861 151.225C283.779 145.8 275.146 149.407 266.763 144.723C258.379 140.038 252.898 133.387 250.802 127.284C248.706 121.182 262.482 105.451 263.807 109.551Z" fill="#0f3b11" fill-rule="nonzero" opacity="1" stroke="#000000" stroke-linecap="round" stroke-linejoin="miter" stroke-opacity="0" stroke-width="0.5"/>
<path d="M291.186 143.823C293.553 141.772 302.444 141.946 304.288 141.368C306.131 140.791 308.788 143.218 310.441 145.185C312.931 148.148 309.364 151.846 309.364 151.846C309.364 151.846 312.728 152.789 312.468 156.126C312.209 159.463 308.01 159.297 308.01 159.297C308.01 159.297 311.532 160.899 307.798 162.996C306.19 163.898 300.401 162.44 299.157 161.158C297.912 159.876 291.089 157.858 289.204 154.297C287.319 150.736 287.536 146.985 291.186 143.823Z" fill="#1f3d27" fill-rule="nonzero" opacity="1" stroke="none"/>
<path d="M310.387 151.948C311.841 151.925 312.653 152.775 313.232 153.807C313.811 154.839 313.636 155.605 313.408 156.226C313.18 156.848 312.012 157.808 311.349 157.925C310.685 158.041 309.893 158.192 308.31 157.709C306.726 157.227 303.18 154.909 303.815 154.688C304.449 154.467 305.529 154.485 307.282 153.734C309.034 152.983 308.932 151.971 310.387 151.948Z" fill="#eaf1e1" fill-rule="nonzero" opacity="1" stroke="#000000" stroke-linecap="round" stroke-linejoin="miter" stroke-width="0.5"/>
<path d="M310.454 145.265C311.87 144.93 312.845 145.586 313.633 146.47C314.42 147.353 314.413 148.139 314.324 148.795C314.235 149.451 313.301 150.64 312.678 150.896C312.055 151.152 311.313 151.47 309.663 151.338C308.013 151.207 304.052 149.705 304.624 149.353C305.197 149.001 306.255 148.786 307.805 147.676C309.356 146.567 309.038 145.6 310.454 145.265Z" fill="#eaf1e1" fill-rule="nonzero" opacity="1" stroke="#000000" stroke-linecap="round" stroke-linejoin="miter" stroke-width="0.5"/>
<path d="M306.988 145.166C307.969 144.092 307.87 142.921 307.481 141.803C307.092 140.685 306.403 140.309 305.786 140.068C305.17 139.827 303.676 140.065 303.15 140.484C302.623 140.904 301.985 141.398 301.297 142.903C300.609 144.408 299.995 148.6 300.58 148.271C301.166 147.943 301.869 147.122 303.592 146.307C305.316 145.492 306.006 146.24 306.988 145.166Z" fill="#eaf1e1" fill-rule="nonzero" opacity="1" stroke="#000000" stroke-linecap="round" stroke-linejoin="miter" stroke-width="0.5"/>
<path d="M299.421 141.955C298.904 141.542 293.483 142.526 292.855 142.771C292.228 143.016 289.308 144.483 288.533 146.645C287.758 148.806 287.053 151.399 288.941 151.131C289.872 150.998 295.058 148.811 297.097 147.297C299.19 145.742 299.939 142.368 299.421 141.955Z" fill="#498868" fill-rule="nonzero" opacity="1" stroke="#000000" stroke-linecap="round" stroke-linejoin="miter" stroke-opacity="0" stroke-width="0.5"/>
<path d="M288.37 151.906C287.22 152.798 290.466 156.72 292.529 158.104C295.873 160.347 302.23 164.108 302.357 161.815C302.561 158.145 299.137 153.986 297.341 152.191C296.77 151.62 291.102 149.785 288.37 151.906Z" fill="#488766" fill-rule="nonzero" opacity="1" stroke="#000000" stroke-linecap="round" stroke-linejoin="miter" stroke-opacity="0" stroke-width="0.5"/>
<path d="M309.78 157.869C311.092 158.498 311.439 159.62 311.497 160.803C311.555 161.985 311.057 162.592 310.576 163.046C310.094 163.501 308.62 163.84 307.975 163.648C307.329 163.456 306.553 163.238 305.351 162.099C304.149 160.961 302.01 157.305 302.676 157.39C303.342 157.476 304.301 157.973 306.204 158.083C308.108 158.193 308.468 157.241 309.78 157.869Z" fill="#eaf1e1" fill-rule="nonzero" opacity="1" stroke="#000000" stroke-linecap="round" stroke-linejoin="miter" stroke-width="0.5"/>
<path d="M258.768 122.507C258.768 122.507 264.482 139.372 268.594 142.037C272.707 144.701 282.407 145.976 284.315 145.456C286.224 144.936 293.964 142.429 293.964 142.429C293.964 142.429 292.062 143.077 290.588 144.143C289.587 144.867 288.931 145.939 288.629 146.53C287.943 147.872 287.699 149.618 287.773 150.047C288.008 151.399 288.248 153.12 287.97 152.827C285.428 150.145 286.986 149.512 281.428 148.283C275.87 147.054 273.314 147.412 268.076 145.652C262.838 143.891 260.476 141.242 260.476 141.242C260.476 141.242 254.504 136.002 252.735 131.342C250.965 126.683 258.768 122.507 258.768 122.507Z" fill="#0a250b" fill-rule="nonzero" opacity="1" stroke="#000000" stroke-linecap="round" stroke-linejoin="miter" stroke-opacity="0" stroke-width="0.5"/>
<path d="M288.076 151.793C286.843 152.566 291.361 157.811 293.425 159.195C293.906 159.518 298.087 161.724 299.174 161.907C300.21 162.082 303.327 163.238 302.703 162.659C301.405 161.454 297.08 158.484 294.687 157.057C292.295 155.629 294.561 147.724 288.076 151.793Z" fill="#142d20" fill-rule="nonzero" opacity="1" stroke="#000000" stroke-linecap="round" stroke-linejoin="miter" stroke-opacity="0" stroke-width="0.5"/>
<path d="M244.341 54.7115L242.492 57.3133L244.35 57.6487L246 54.6934L244.341 54.7115Z" fill="#98ccb2" fill-rule="nonzero" opacity="1" stroke="#f80303" stroke-linecap="round" stroke-linejoin="miter" stroke-width="0.5"/>
<path d="M244.831 53.9228L242.718 56.9778L244.232 57.5127L246.245 54.6027L244.831 53.9228Z" fill="#33ec90" fill-rule="nonzero" opacity="1" stroke="#f80303" stroke-linecap="round" stroke-linejoin="miter" stroke-width="0.5"/>
</g>
<g id="左足" vectornator:layerName="左足">
<path d="M225.309 169.86C230.564 158.132 246.482 150.423 252.706 151.377C256.014 151.884 262.165 157.673 263.308 160.103C264.317 162.245 268.216 166.016 269.97 169.485C273.713 176.889 274.845 178.9 275.599 182.245C276.298 185.344 275.787 188.438 274.943 190.69C273.856 193.588 265.373 202.605 265.373 202.605C265.373 202.605 255.663 212.938 255.052 214.803C253.48 219.598 255.111 217.135 257.773 221.276C259.462 223.904 265.136 227.67 267.343 229.533C269.55 231.397 268.903 231.737 269.219 234.6C269.536 237.462 266.759 241.624 266.759 241.624C266.759 241.624 259.91 248.765 258.669 249.364C257.394 249.979 255.038 248.039 253.705 247.901C252.19 247.744 250.287 247.144 248.666 246.37C243.356 243.836 236.514 243.346 231.314 239.854C224.526 235.295 226.381 230.24 227.467 228.501C228.554 226.762 230.094 223.81 230.094 223.81C230.094 223.81 229.562 220.092 229.912 218.483C230.261 216.873 228.482 218.153 227.749 210.674C227.016 203.195 233.284 197.82 233.284 197.82C233.284 197.82 221.247 178.928 225.309 169.86Z" fill="#1d4e28" fill-rule="nonzero" opacity="1" stroke="#000000" stroke-linecap="round" stroke-linejoin="miter" stroke-width="0.5"/>
<path d="M270.627 238.54C268.844 237.227 265.185 234.224 264.528 232.16C263.871 230.096 263.965 228.97 266.311 228.595C268.656 228.22 276.108 233.954 276.444 236.101C276.78 238.247 276.632 247.078 275.506 243.325C274.38 239.572 272.409 239.854 270.627 238.54Z" fill="#ffffff" fill-rule="nonzero" opacity="1" stroke="#000000" stroke-linecap="round" stroke-linejoin="miter" stroke-width="0.5"/>
<path d="M265.466 241.824C261.901 239.385 258.148 238.165 258.523 233.661C258.899 229.158 260.025 230.753 262.276 230.753C264.528 230.753 267.343 235.256 270.627 238.353C273.911 241.449 273.248 249.54 272.597 247.829C271.946 246.118 269.032 244.264 265.466 241.824Z" fill="#ffffff" fill-rule="nonzero" opacity="1" stroke="#000000" stroke-linecap="round" stroke-linejoin="miter" stroke-width="0.5"/>
<path d="M253.738 244.357C252.143 239.948 249.704 239.385 250.361 236.195C251.017 233.005 253.644 233.005 255.615 232.348C257.585 231.691 261.057 234.131 262.464 238.916C263.871 243.701 259.831 254.606 259.18 252.895C258.529 251.185 255.333 248.767 253.738 244.357Z" fill="#ffffff" fill-rule="nonzero" opacity="1" stroke="#000000" stroke-linecap="round" stroke-linejoin="miter" stroke-width="0.5"/>
<path d="M246.795 246.422C242.942 244.288 240.978 242.762 241.353 241.074C241.729 239.385 241.635 237.602 245.576 234.975C249.516 232.348 252.049 237.602 253.363 241.73C254.677 245.859 253.457 253.646 251.299 251.488C249.141 249.33 250.648 248.555 246.795 246.422Z" fill="#ffffff" fill-rule="nonzero" opacity="1" stroke="#000000" stroke-linecap="round" stroke-linejoin="miter" stroke-width="0.5"/>
<path d="M251.363 214.91C251.811 215.974 247.031 212.76 242.202 213.556C239.599 213.986 236.637 215.921 234.954 216.133C230.898 216.644 231.905 220.957 234.693 221.579C236.679 222.021 256.076 218.866 247.296 221.512C245.371 222.092 236.196 225.538 233.112 226.376C231.614 226.783 228.153 232.904 231.747 233.859C233.551 234.339 239.43 234.151 242.639 232.635C243.579 232.19 246.322 233.803 248.663 232.173C250.388 230.972 251.856 228.885 253.651 228.408C254.94 228.066 256.816 229.431 257.952 229.437C259.366 229.444 259.651 229.546 258.869 230.911C258.537 231.491 258.372 232.731 258.343 232.714C257.615 232.263 256.886 232.036 256.657 232C255.989 231.895 254.037 232.567 253.646 232.699C252.844 232.97 252.065 233.362 251.006 234.062C250.637 234.306 250.405 235.749 250.279 235.54C249.112 233.613 246.933 233.869 246.167 234.358C244.556 235.386 241.679 236.677 241.198 241.498C241.047 243.012 243.53 244.813 243.53 244.813C243.53 244.813 238.987 243.696 236.601 242.913C233.712 241.965 231.097 240.287 230.504 239.835C229.977 239.433 227.468 238.755 225.914 234.959C225.096 232.963 225.84 231.707 227.121 228.404C228.402 225.102 229.89 224.719 229.742 223.328C229.531 221.34 229.402 220.307 229.485 218.935C229.551 217.828 229.457 218.278 228.692 216.366C227.418 213.185 227.25 209.07 227.38 208.661C227.585 208.016 227.713 205.322 228.252 203.925C228.446 203.421 229.605 201.39 230.779 199.839C231.543 198.829 232.517 198.147 232.542 197.791C232.646 196.303 231.026 195.743 230.364 194.812C229.379 193.428 229.192 192 229.274 191.744C229.608 190.701 233.935 189.495 232.999 187.938C232.063 186.381 239.024 185.16 239.024 185.16L237.094 192.307C237.094 192.307 234.107 198.587 233.798 198.88C233.756 198.919 225.053 207.591 234.69 205.091C244.327 202.59 232.485 210.294 232.488 210.555C232.497 211.193 240.752 208.344 243.889 209.245C246.956 210.125 250.86 213.716 251.363 214.91Z" fill="#3b4f3c" fill-rule="nonzero" opacity="1" stroke="#000000" stroke-linecap="round" stroke-linejoin="miter" stroke-opacity="0.0078125" stroke-width="0.5"/>
<path d="M253.759 151.817C253.748 151.296 257.851 153.171 261.639 157.784C266.498 163.7 271.15 171.996 271.15 171.996C271.15 171.996 278.126 181.522 275.399 190.234C274.235 193.95 262.386 206.224 260.064 208.687C257.551 211.352 256.087 213.567 255.877 213.844C254.999 215.001 255.249 214.867 254.894 216.126C254.671 216.919 254.54 217.509 254.834 218.01C255.113 218.486 255.698 218.653 256.185 219.031C256.786 219.499 257.142 220.052 257.316 220.292C258.376 221.757 259.75 223.268 261.589 224.825C262.618 225.697 264.71 227.433 266.004 228.174C266.257 228.319 264.597 228.773 264.196 229.507C263.796 230.241 264.132 231.207 263.986 231.137C263.66 230.981 262.898 230.515 262.744 230.52C261.617 230.554 261.049 230.287 260.783 230.307C259.666 230.388 258.951 229.688 258.328 232.797C258.281 233.034 258.241 229.804 258.873 229.192C259.853 228.246 261.009 225.185 256.849 222.88C256.445 222.657 254.316 220.163 253.358 220.008C250.619 219.567 250.189 220.141 248.189 220.141C246.471 220.141 250.554 219.499 252.651 217.534C253.017 217.192 251.981 215.354 251.37 214.132C250.796 212.984 247.199 210.947 248.1 211.172C250.117 211.676 253.445 210.618 253.844 210.288C254.566 209.691 260.143 205.638 258.93 204.084C257.672 202.472 250.018 202.618 250.398 201.982C251.043 200.904 257.075 201.624 260.339 200.171C262.834 199.06 265.753 195.416 266.039 195.047C266.607 194.311 262.458 192.795 260.123 192.251C256.947 191.51 251.101 193.085 251.627 192.143C251.922 191.613 256.839 189.499 261.157 189.502C265.218 189.504 268.699 191.627 268.835 191.067C269.061 190.141 275.02 183.03 272.277 182.356C270.458 181.908 267.948 179.646 265.198 179.525C261.279 179.353 257.204 181.312 256.789 180.097C256.595 179.53 260.498 177.135 264.314 176.906C267.143 176.737 269.827 178.824 271.266 178.135C274.421 176.624 268.684 173.125 268.069 171.982C267.616 171.138 266.762 165.534 263.668 165.058C260.872 164.628 255.725 169.365 256.751 168.002C261.862 161.206 259.516 158.462 257.985 158.277C254.691 157.878 252.212 168.93 250.73 166.389C247.849 161.45 253.855 156.076 253.759 151.817Z" fill="#0b2c13" fill-opacity="0.966281" fill-rule="nonzero" opacity="1" stroke="none"/>
</g>
<g id="ボディ" vectornator:layerName="ボディ">
<path d="M157.164 176.801C150.805 194.029 191.01 214.537 212.386 208.6C227.478 204.409 241.635 184.626 248.914 171.37C256.193 158.114 251.201 156.894 253.946 141.642C256.691 126.391 273.701 127.108 275.593 108.937C277.485 90.766 277.13 80.8112 275.334 71.1275C273.538 61.4438 262.124 43.5706 254.043 44.5571C250.866 44.9449 245.554 54.0506 241.184 58.6396C233.625 66.5762 235.939 71.7511 219.987 74.5919C201.737 77.8419 177.024 129.318 177.024 129.318C177.024 129.318 164.052 158.141 157.164 176.801Z" fill="#033f2e" fill-rule="nonzero" opacity="1" stroke="#000000" stroke-linecap="round" stroke-linejoin="miter" stroke-opacity="0.348958" stroke-width="0.5"/>
<path d="M155.33 182.837C155.566 183.084 160.296 198.104 162.398 194.732C167.13 187.143 180.813 150.978 194.142 125.838C195.532 123.217 194.511 116.866 195.412 113.394C197.031 107.158 204.229 91.0449 205.968 89.415C206.918 88.5245 209.855 85.5081 213.896 84.8257C218.881 83.984 225.091 85.4783 225.845 84.2724C226.859 82.649 217.563 79.5561 218.496 78.1147C219.563 76.4642 228.848 78.9323 228.848 78.9323C228.848 78.9323 225.256 75.6799 226.136 74.3441C228.228 71.1641 237.435 72.3089 237.435 72.3089C237.435 72.3089 235.364 67.8875 235.961 67.6419C236.922 67.2463 242.917 67.7823 242.917 67.7823C242.917 67.7823 240.612 63.6659 241.441 62.0373C242.688 59.5883 246.944 63.1152 246.944 63.1152C246.944 63.1152 243.408 59.397 245.378 56.253C246.488 54.483 258.645 44.3175 256.809 43.141C254.03 41.3595 243.294 56.3605 238.142 61.7298C237.087 62.8289 235.434 64.6153 232.471 67.4709C229.996 69.8558 226.899 73.0097 219.41 74.3413C200.584 77.6887 175.127 131.011 175.127 131.011C175.127 131.011 153.255 180.667 155.33 182.837Z" fill="#bfdfca" fill-rule="nonzero" opacity="1" stroke="#ff00dd" stroke-linecap="round" stroke-linejoin="miter" stroke-opacity="0" stroke-width="0.5"/>
<path d="M253.924 140.572C253.438 141.475 254.099 158.507 251.691 167.379C249.291 176.219 241.52 181.539 236.95 188.067C227.962 200.908 211.978 210.507 209.367 209.774C204.088 208.293 209.214 203.486 206.593 196.228C203.971 188.969 240.55 109.919 242.268 103.734C243.986 97.5487 259.784 73.4582 265.379 69.0526C269.936 65.4655 273.2 78.5181 273.975 77.5501C274.751 76.5821 276.321 79.6942 277.051 80.0338C278.946 80.9151 280.729 82.3945 283.044 83.7215C284.43 84.5165 277.03 85.5352 277.219 86.7661C277.585 89.1426 276.728 100.717 275.266 108.395C273.803 116.073 272.543 119.147 271.701 119.821C270.859 120.495 263.2 127.682 261.738 129.419C260.275 131.155 255.844 137.007 253.924 140.572Z" fill="#22542e" fill-opacity="0.997531" fill-rule="nonzero" opacity="1" stroke="#000000" stroke-linecap="round" stroke-linejoin="miter" stroke-opacity="0.106771" stroke-width="0.5"/>
<path d="M256.979 88.7558C257.292 86.7897 260.494 81.6144 263.575 80.9891C265.198 80.6596 266.815 83.3958 267.898 84.6128C270.598 87.6483 277.489 84.7675 277.299 87.5298C277.199 88.9714 276.923 94.6302 276.582 97.1154C276.391 98.5102 260.387 93.3317 260.31 94.7188C260.24 95.977 276.475 98.2173 276.476 98.8024C276.479 100.466 275.689 108.825 275.49 110.583C275.338 111.934 261.515 102.961 261.522 103.682C261.533 104.717 275.385 111.397 275.227 112.235C274.528 115.936 271.882 120.858 269.08 122.087C268.081 122.526 259.449 116.672 257.322 115.802C254.573 114.677 268.396 121.455 267.616 123.876C267.217 125.117 264.401 127.519 260.45 131.358C257.565 134.162 249.234 123.563 248.279 124.66C247.551 125.497 258.776 132.995 258.305 133.631C254.145 139.256 253.869 140.935 253.511 146.883C253.153 152.831 253.814 155.949 253.143 159.706C252.472 163.463 252.299 165.374 249.604 171.234C246.909 177.093 247.028 175.751 243.688 180.79C240.348 185.829 239.34 186.655 235.244 192.166C231.149 197.678 230.866 197.606 226.471 201.004C222.077 204.402 220.641 205.809 218.892 205.57C215.037 205.041 221.713 199.265 223.295 190.71C224.877 182.155 217.58 179.483 222.326 168.585C222.395 168.428 240.115 168.173 241.46 164.062C243.103 159.038 225.992 149.78 226.848 148.72C228.697 146.433 246.191 157.557 246.551 155.503C246.97 153.115 224.616 150.731 231.075 141.034C235.569 134.286 248.804 148.812 250.196 146.923C251.346 145.363 230.838 140.148 235.105 131.959C239.371 123.77 250.174 138.074 250.99 135.796C251.845 133.408 235.391 129.496 240.408 119.648C245.426 109.799 261.42 127.465 262.256 125.588C262.941 124.049 241.239 116.046 246.292 107.616C248.941 103.196 266.649 116.135 267.343 114.246C267.904 112.722 245.692 108.242 250.992 99.571C254.153 94.3997 270.966 106.719 271.908 104.395C272.637 102.596 250.508 98.7962 253.777 93.2077C256.633 88.3241 271.829 93.9582 271.955 92.1253C272.081 90.2924 256.499 91.7579 256.979 88.7558Z" fill="#327442" fill-opacity="0.997531" fill-rule="nonzero" opacity="1" stroke="none"/>
<path d="M243.883 180.518C244.65 181.612 232.966 195.857 230.244 198.137C227.923 200.083 220.111 206.149 220.544 204.886C221.327 202.602 222.777 195.432 223.169 192.691C223.56 189.95 221.515 177.176 223.197 180.127C226.655 186.196 243.382 179.804 243.883 180.518Z" fill="#14311b" fill-opacity="0.997531" fill-rule="nonzero" opacity="1" stroke="#000000" stroke-linecap="round" stroke-linejoin="miter" stroke-opacity="0.106771" stroke-width="0.5"/>
</g>
<g id="尻尾" vectornator:layerName="尻尾">
<path d="M162.133 171.028C160.821 173.106 148.326 182.313 147.651 184.623C147.154 186.325 130.818 191.892 116.283 191.588C104.532 191.341 94.3678 185.517 91.4941 184.328C85.0656 181.668 83.44 180.042 74.647 178.417C65.854 176.791 63.1201 176.643 52.7754 177.234C44.5906 177.702 42.311 177.808 31.4949 179.303C20.6788 180.798 6.37214 182.259 9.0322 189.057C11.6923 195.855 29.4803 190.412 33.2683 190.239C37.0563 190.067 52.5946 188.488 57.8028 188.966C63.011 189.445 64.7431 189.31 71.3194 191.01C77.8957 192.709 80.7496 194.074 84.4006 196.15C88.1739 198.296 89.7207 198.81 103.908 206.791C118.095 214.771 121.715 219.066 126.666 219.795C131.617 220.525 136.166 220.287 147.355 222.455C158.545 224.623 174.09 216.387 176.025 214.771C176.938 214.008 204.72 187.513 199.374 175.757C194.028 164 199.916 146.864 183.414 146.791C166.911 146.718 169.227 159.796 162.133 171.028Z" fill="#064335" fill-opacity="0.997396" fill-rule="nonzero" opacity="1" stroke="#000000" stroke-linecap="round" stroke-linejoin="miter" stroke-width="0.5"/>
<path d="M9.67784 184.817C7.49151 187.218 8.92034 187.626 9.25565 189.19C9.37446 189.745 9.41651 187.619 9.914 186.135C10.0065 185.859 10.1722 187.385 11.2128 188.473C12.1388 189.441 12.4498 189.152 12.6833 189.041C13.2475 188.773 11.3369 187.678 11.1185 186.359C10.9232 185.179 11.7383 184.104 12.0499 184.123C12.8126 184.17 13.2414 185.719 14.4851 186.877C16.3 188.568 17.1852 188.899 17.6013 188.818C18.8612 188.571 15.7775 187.104 14.6952 185.316C14.0526 184.254 13.9128 183.415 15.962 182.894C16.3162 182.804 17.0843 184.081 18.7562 185.614C20.7709 187.461 22.1723 188.079 22.7055 188.296C24.9961 189.228 20.0368 186.454 19.3896 184.235C19.0287 182.998 17.5163 182.412 20.0975 182.074C23.2271 181.664 21.8874 182.532 23.786 184.496C25.9491 186.733 28.4972 188.079 29.4118 187.961C30.4593 187.825 25.0444 185.422 24.4566 182.782C24.0538 180.973 28.54 180.703 29.3017 180.687C30.1452 180.669 29.723 182.19 31.397 183.973C33.1682 185.859 35.5879 186.896 36.4534 186.806C37.5593 186.69 32.8559 184.83 32.4297 182.633C32.056 180.707 32.1316 180.174 35.1867 179.764C38.2418 179.354 37.5366 181.626 39.6266 183.623C41.3713 185.29 42.9581 186.429 43.8676 186.359C45.2294 186.254 39.2742 183.391 39.8066 181.143C40.1419 179.727 39.5269 179.145 42.8244 178.87C44.6128 178.721 45.2135 180.86 46.9961 182.816C48.7172 184.705 50.7943 185.868 51.7289 185.837C52.9852 185.795 47.109 182.111 46.7737 180.621C46.4384 179.131 45.3135 178.408 50.8347 178.162C52.5113 178.088 54.6127 181.413 56.7887 183.946C59.1589 186.704 61.6738 188.116 62.4816 188.144C63.6579 188.184 57.3287 183.184 57.9314 180.512C58.415 178.368 58.3151 178.077 63.4671 178.143C64.8007 178.16 64.0645 181.392 65.8885 184.561C67.6211 187.572 70.2234 188.79 71.433 188.966C71.5934 188.989 67.8309 185.16 67.2886 182.111C66.683 178.705 67.847 178.694 70.4261 179.145C71.9059 179.404 72.7729 182.69 73.3821 184.868C74.36 188.365 76.311 190.746 77.651 190.927C78.8258 191.085 75.2105 185.86 74.9863 182.688C74.8446 180.682 75.1432 179.51 79.5872 180.86C81.214 181.354 79.6562 182.67 80.3426 186.229C80.9797 189.532 83.3694 193.262 83.7021 193.474C85.0734 194.348 82.4356 188.84 82.4337 185.493C82.4323 183.014 82.4543 181.825 85.3278 182.668C86.6709 183.063 85.5314 185.844 86.3258 188.578C87.3445 192.085 90.6287 196.024 91.1382 195.891C92.5467 195.522 88.378 190.33 88.4657 187.929C88.5346 186.045 88.4416 184.252 91.1116 185.1C93.7816 185.948 92.4957 189.226 93.5636 192.649C94.7361 196.407 98.5648 199.764 99.2981 200.045C100.764 200.605 94.8199 194.253 94.9465 190.685C95.0431 187.962 94.2507 186.503 98.2737 188.175C100.81 189.229 99.8529 190.817 101.128 194.518C102.534 198.597 107.064 204.67 107.876 204.982C109.086 205.447 104.691 197.187 103.785 193.939C102.981 191.058 102.187 189.142 107.285 190.666C108.58 191.053 109.803 194.587 111.748 199.477C113.684 204.347 119.216 211.594 120.309 211.837C122.433 212.309 115.03 203.011 113.619 198.438C112.004 193.202 113.022 192.413 118.586 193.493C119.932 193.754 123.432 197.595 125.298 202.366C127.074 206.905 135.592 217.134 136.592 217.152C138.482 217.186 129.829 209.193 128.745 202.576C127.923 197.556 123.714 194.954 130.797 193.389C139.136 191.547 137.671 195.679 140.516 201.327C144.257 208.753 151.846 217.582 153.606 218.356C155.423 219.155 147.321 208.415 144.735 200.359C142.911 194.674 141.207 191.259 142.521 189.989C143.152 189.38 149.076 184.512 153.678 185.512C158.666 186.597 160.038 194.305 160.753 193.178C164.979 186.528 167.324 163.384 164.214 166.412C156.559 173.866 148.981 184.473 139.638 187.429C134.458 189.069 130.326 189.884 123.455 190.653C117.553 191.313 108.849 190.513 99.0355 186.999C93.4918 185.014 94.1268 184.194 81.7135 179.485C69.3002 174.776 53.487 176.736 45.5932 177.35C33.508 178.289 13.4863 180.634 9.67784 184.817Z" fill="#5a9175" fill-rule="nonzero" opacity="1" stroke="#000000" stroke-linecap="round" stroke-linejoin="miter" stroke-opacity="0.0078125" stroke-width="0.5"/>
</g>
<g id="右足" vectornator:layerName="右足">
<g opacity="1" vectornator:layerName="(curve)">
<path d="M215.669 153.623C222.702 164.733 223.487 193.708 221.594 196.692C220.686 198.125 221.139 219.431 215.244 221.989C211.969 223.41 209.757 231.262 207.61 236.233C206.317 239.229 206.954 241.604 212.152 244.881C216.266 247.475 222.571 247.265 220.369 251.971C218.167 256.677 222.318 261.384 219.465 264.06C217.257 266.132 213.059 275.673 204.099 274.568C201.486 274.245 185.005 274.116 181.615 271.178C178.226 268.241 179.13 265.077 179.13 265.077C179.13 265.077 177.209 263.495 175.966 259.202C174.723 254.908 178 251.293 178 251.293C178 251.293 174.695 245.051 175.288 241.35C175.882 237.65 174.046 235.249 174.046 235.249C174.046 235.249 170.545 222.643 170.565 221.451C170.573 220.928 162.807 205.106 162.931 203.399C163.013 202.26 160.647 175.554 160.835 174.854C161.124 173.78 171.401 135.785 185.734 127.914C200.067 120.044 208.636 142.513 215.669 153.623Z" fill="#1b4426" fill-rule="nonzero" opacity="1" stroke="#000000" stroke-linecap="round" stroke-linejoin="miter" stroke-opacity="0.299479" stroke-width="0.5"/>
<path d="M228.173 268.552C228.173 268.552 231.304 264.587 230.813 260.331C230.322 256.074 228.492 254.257 226.21 251.526C223.928 248.795 219.164 249.065 217.973 251.08C216.781 253.096 215.92 254.445 217.344 256.606C218.768 258.766 219.973 258.69 222.786 261.46C225.6 264.231 228.173 268.552 228.173 268.552Z" fill="#ffffff" fill-rule="nonzero" opacity="1" stroke="#000000" stroke-linecap="round" stroke-linejoin="miter" stroke-width="0.5"/>
<path d="M220.285 279.337C220.285 279.337 225.132 274.185 224.518 269.406C223.903 264.627 222.646 262.632 219.787 259.566C216.929 256.5 212.019 257.573 210.526 259.836C209.033 262.098 210.686 267.913 214.211 271.024C217.735 274.135 220.285 279.337 220.285 279.337Z" fill="#ffffff" fill-rule="nonzero" opacity="1" stroke="#000000" stroke-linecap="round" stroke-linejoin="miter" stroke-width="0.5"/>
<path d="M207.534 281.276C207.534 281.276 213.548 273.079 212.411 270.066C211.274 267.053 209.318 262.294 206.816 261.857C204.314 261.42 200.174 263.953 199.992 266.748C199.81 269.542 198.41 270.755 201.63 273.778C204.85 276.801 207.534 281.276 207.534 281.276Z" fill="#ffffff" fill-rule="nonzero" opacity="1" stroke="#000000" stroke-linecap="round" stroke-linejoin="miter" stroke-width="0.5"/>
<path d="M198.529 281.153C198.529 281.153 201.759 278.018 199.803 272.716C197.846 267.415 196.219 266.278 192.697 264.263C189.175 262.248 187.691 265.316 187.403 267.868C187.114 270.421 185.82 271.805 188.224 273.54C190.627 275.276 189.399 275.281 193.473 277.141C197.547 279.001 198.529 281.153 198.529 281.153Z" fill="#ffffff" fill-rule="nonzero" opacity="1" stroke="#000000" stroke-linecap="round" stroke-linejoin="miter" stroke-width="0.5"/>
<path d="M182.695 205.66C182.545 206.057 178.007 203.392 174.391 206.651C173.908 207.086 170.097 212.763 176.023 215.098C180.638 216.916 195.188 215.061 195.69 217.797C196.143 220.263 184.034 218.697 179.301 221.542C175.189 224.014 178.287 230.926 179.491 232.835C181.269 235.655 191.471 230.362 192.387 233.605C193.232 236.594 179.67 235.241 180.157 238.492C180.324 239.613 192.874 237.097 193.148 241.107C193.216 242.09 181.28 240.662 181.003 243.898C180.951 244.508 186.096 245.824 191.85 245.839C197.216 245.853 203.197 244.532 203.66 245.919C204.502 248.443 184.181 248.274 182.748 251.386C181.788 253.472 181.264 258.572 182.77 261.447C184.419 264.598 190.927 262.048 191.041 262.519C191.507 264.434 189.266 262.59 188.274 264.357C187.549 265.647 187.253 267.911 186.557 269.981C185.986 271.678 187.435 273.295 187.357 273.241C187.304 273.204 184.874 273.4 182.83 272.59C181.405 272.024 180.231 270.524 179.915 269.987C179.137 268.666 174.711 264.829 176.053 260.898C176.331 260.083 175.028 258.765 175.523 256.226C175.774 254.938 175.543 253.997 176.641 252.57C177.74 251.142 175.39 246.689 175 244.822C174.774 243.735 175.294 242.027 174.465 237.912C174.073 235.965 172.964 233.493 172.47 231.181C171.043 224.492 165.773 216.817 163.629 209.907C161.308 202.433 163.652 211.623 160.153 197.594C156.653 183.565 160.48 175.437 160.972 172.66C161.463 169.884 167.044 155.538 168.881 150.976C169.747 148.825 176.089 135.798 180.392 130.984C185.217 125.586 195.255 123.722 195.235 125.483C195.111 136.514 180.96 135.013 181.828 137.492C182.695 139.971 191.867 138.607 191.867 138.607C191.867 138.607 177.366 142.945 178.109 146.54C178.853 150.134 192.611 143.813 192.611 143.813C192.611 143.813 181.323 150.511 176.622 152.241C171.921 153.971 190.132 153.232 190.132 153.232C190.132 153.232 174.019 159.261 174.019 160.917C174.019 165.379 192.97 157.909 192.858 158.562C192.747 159.215 172.043 169.546 172.043 169.546L186.537 173.311C186.537 173.311 168.194 175.046 168.69 179.756C169.031 182.997 186.785 182.731 186.785 182.731C186.785 182.731 170.115 188.958 169.807 189.474C169.765 189.544 191.991 194.505 191.991 194.505C191.991 194.505 170.921 189.176 171.912 193.513C172.137 194.496 183.81 197.632 185.05 197.975C190.875 199.587 171.323 198.055 171.327 198.517C171.343 200.747 182.882 205.167 182.695 205.66Z" fill="#68876a" fill-rule="nonzero" opacity="1" stroke="#000000" stroke-linecap="round" stroke-linejoin="miter" stroke-opacity="0.0078125" stroke-width="0.5"/>
<path d="M214.369 164.469C216.392 169.64 215.474 170.708 215.343 177.208C215.212 183.709 215.428 189.18 215.428 189.18C215.428 189.18 217.091 196.143 212.797 197.677C207.74 199.483 195.825 197.727 195.558 200.196C195.295 202.624 207.521 203.472 211.353 205.243C214.95 206.906 212.197 210.435 211.772 211.381C209.977 215.379 200.757 215.107 200.035 217.42C199.269 219.872 208.817 215.992 207.584 220.32C207.317 221.255 204.352 227.987 203.072 228.852C200.644 230.494 194.643 231.868 194.496 232.794C194.253 234.318 200.497 231.392 202.412 232.261C204.23 233.087 203.319 236.37 203.037 238.236C202.823 239.656 196.77 240.691 196.924 241.29C197.15 242.175 201.285 240.978 203.674 241.694C205.018 242.097 204.727 244.349 205.527 244.876C208.711 246.974 211.353 246.749 214.669 247.649C217.985 248.548 219.23 247.892 219.23 247.892C219.23 247.892 207.075 243.481 207.12 239.52C207.165 235.56 212.256 225.894 213.259 223.76C214.261 221.626 216.381 221.332 216.765 220.784C217.149 220.236 218.566 217.899 219.69 213.253C220.814 208.607 219.858 211.304 220.739 205.235C221.619 199.165 223.886 196.355 223.362 188.374C222.837 180.393 221.694 178.501 220.214 172.188C218.734 165.874 217.554 165.706 216.317 164.019C215.081 162.333 212.346 159.298 214.369 164.469Z" fill="#112a18" fill-opacity="0.916667" fill-rule="nonzero" opacity="1" stroke="#000000" stroke-linecap="round" stroke-linejoin="miter" stroke-opacity="0.299479" stroke-width="0.5"/>
</g>
</g>
<g id="右腕" vectornator:layerName="右腕">
<g opacity="1" vectornator:layerName="(curve)">
<path d="M223.346 154.258C226.639 160.515 234.331 156.781 231.743 162.49C229.155 168.2 224.042 172.327 221.206 171.217C218.37 170.106 218.736 166.607 214.784 161.338C213.108 159.102 193.38 156.234 204.741 146.025C216.102 135.817 220.053 148.001 223.346 154.258Z" fill="#1d4f29" fill-opacity="0.997531" fill-rule="nonzero" opacity="1" stroke="#000000" stroke-linecap="round" stroke-linejoin="miter" stroke-opacity="0.265625" stroke-width="0.2"/>
<path d="M200.453 124.6C205.447 121.089 208.917 122.396 211.766 124.356C214.614 126.316 215.443 127.47 217.468 130.951C219.493 134.432 224.411 145.966 220.125 150.411C215.84 154.855 204.505 153.757 202.09 151.727C199.674 149.697 197.712 144.674 195.926 140.564C194.14 136.453 194.69 138.24 194.362 135.947C194.033 133.654 195.459 128.111 200.453 124.6Z" fill="#0b4b1a" fill-opacity="0.997531" fill-rule="nonzero" opacity="1" stroke="#000000" stroke-linecap="round" stroke-linejoin="miter" stroke-opacity="0.591146" stroke-width="0.1"/>
<path d="M216.895 138.53C214.472 139.987 210.897 142.011 205.618 140.659C200.338 139.306 197.813 136.177 195.192 129.549C192.571 122.921 197.811 107.344 199.529 101.697C201.247 96.0487 205.339 89.8388 205.339 89.8388C205.339 89.8388 210.554 84.9357 214.597 84.8117C218.64 84.6877 223.008 85.9097 224.921 89.5229C226.833 93.1362 228.322 96.714 228.07 102.417C227.818 108.12 226.478 112.268 225.636 112.883C224.794 113.498 226.982 116.018 226.169 121.155C225.356 126.291 219.318 137.073 216.895 138.53Z" fill="#034914" fill-opacity="0.997531" fill-rule="nonzero" opacity="1" stroke="#000000" stroke-linecap="round" stroke-linejoin="miter" stroke-opacity="0.106771" stroke-width="0.5"/>
<path d="M225.549 162.383C227.582 160.047 226.095 159.031 228.793 157.336C231.49 155.641 232.359 155.786 236.398 155.741C240.438 155.695 249.811 158.734 248.666 163.178C247.521 167.623 242.337 165.136 243.529 166.982C244.721 168.828 247.145 170.916 244.286 174.082C241.428 177.249 239.037 175.393 237.963 175.027C236.888 174.661 238.477 176.549 238.072 179.104C237.667 181.66 237.584 182.639 234.65 183.296C231.716 183.952 224.883 182.352 224.424 182.471C223.965 182.591 220.362 178.752 220.354 176.992C220.346 175.233 220.268 169.063 221.658 167.13C223.049 165.197 223.516 164.719 225.549 162.383Z" fill="#30593a" fill-opacity="0.997531" fill-rule="nonzero" opacity="1" stroke="#000000" stroke-linecap="round" stroke-linejoin="miter" stroke-width="0.2"/>
<path d="M242.902 164.763C242.629 166.393 242.942 167.841 244.956 169.068C246.97 170.296 245.581 171.797 248.03 172.946C250.479 174.094 252.903 176.804 252.903 176.804C252.903 176.804 254.629 170.459 253.567 167.877C252.505 165.294 252.557 163.948 249.878 162.931C247.2 161.913 243.174 163.134 242.902 164.763Z" fill="#fcfafd" fill-rule="nonzero" opacity="1" stroke="#000000" stroke-linecap="round" stroke-linejoin="miter" stroke-width="0.5"/>
<path d="M239.684 169.166C238.835 170.726 238.565 171.961 239.534 174.177C240.503 176.392 244.449 178.935 245.5 179.606C246.551 180.278 252.081 182.026 252.328 181.312C252.574 180.598 249.912 179.786 248.563 177.271C247.214 174.757 246.648 170.489 245.145 169.109C243.642 167.728 240.533 167.605 239.684 169.166Z" fill="#ffffff" fill-rule="nonzero" opacity="1" stroke="#000000" stroke-linecap="round" stroke-linejoin="miter" stroke-width="0.5"/>
<path d="M235.244 175.77C234.322 178.346 234.522 178.737 235.919 181.224C237.316 183.71 240.651 185.203 240.651 185.203C240.651 185.203 243.444 186.271 245.996 186.299C248.547 186.326 252.082 185.482 251.186 184.683C250.29 183.885 247.863 182.508 244.863 180.37C241.863 178.233 241.874 176.756 240.162 175.373C238.45 173.99 236.167 173.194 235.244 175.77Z" fill="#ffffff" fill-rule="nonzero" opacity="1" stroke="#000000" stroke-linecap="round" stroke-linejoin="miter" stroke-width="0.5"/>
<path d="M233.508 187.782C235.511 188.83 240.724 187.642 240.684 186.367C240.645 185.091 239.033 185.338 237.524 183.629C236.015 181.92 236.065 180.78 234.649 179.532C233.232 178.283 231.558 178.744 230.485 179.233C229.411 179.722 229.533 181.475 228.987 182.951C228.442 184.427 231.506 186.734 233.508 187.782Z" fill="#f8f8f8" fill-rule="nonzero" opacity="1" stroke="#000000" stroke-linecap="round" stroke-linejoin="miter" stroke-width="0.5"/>
<path d="M209.095 86.9355C205.375 89.3634 204.668 91.1271 201.537 96.8843C198.406 102.641 199.499 100.821 196.955 109.097C194.412 117.372 194.453 120.384 194.818 126.645C195.183 132.907 198.092 135.7 201.088 138.955C204.084 142.209 197.187 128.726 198.092 121.908C198.996 115.09 198.763 114.056 200.675 107.805C202.586 101.555 203.361 99.23 205.065 96.1305C206.77 93.031 208.526 87.452 214.054 86.0573C219.581 84.6625 212.814 84.5075 209.095 86.9355Z" fill="#4a8458" fill-opacity="0.997531" fill-rule="nonzero" opacity="1" stroke="#000000" stroke-linecap="round" stroke-linejoin="miter" stroke-opacity="0.106771" stroke-width="0.5"/>
<path d="M206.479 153.941C203.007 152.862 204.336 153.841 201.588 151.354C198.841 148.867 198.513 146.505 196.45 142.955C194.387 139.404 193.831 136.741 194.478 134.083C195.124 131.425 194.982 129.248 195.664 131.103C196.346 132.958 196.556 134.343 197.584 136.647C197.888 137.329 201.866 141.184 201.943 141.679C202.17 143.147 196.851 139.886 198.009 141.892C199.098 143.777 204.015 145.806 205.026 146.959C205.453 147.446 201.902 147.405 202.439 148.625C202.976 149.845 207.776 149.821 211.228 150.432C212.689 150.691 205.33 150.891 207.01 152.062C210.519 154.508 215.303 152.736 213.506 153.419C212.499 153.801 208.3 154.507 206.479 153.941Z" fill="#4a8458" fill-opacity="0.997531" fill-rule="nonzero" opacity="1" stroke="#000000" stroke-linecap="round" stroke-linejoin="miter" stroke-opacity="0.106771" stroke-width="0.5"/>
<path d="M223.914 166.338C222.228 167.859 221.512 168.296 220.822 171.018C220.566 172.03 219.481 170.019 218.563 167.772C217.919 166.198 217.517 164.464 216.854 163.757C215.105 161.891 214.521 161.22 212.546 160.398C208.755 158.819 204.364 158.204 203.27 155.697C203.002 155.082 201.998 154.146 201.806 153.568C200.709 150.273 202.557 152.047 204.893 153.269C206.4 154.058 208.498 154.025 208.331 154.07C206.161 154.66 205.206 155.885 208.469 156.444C210.393 156.774 212.955 155.573 213.089 155.702C214.158 156.733 208.938 156.902 211.074 157.797C213.081 158.639 217.016 156.637 218.518 156.943C219.152 157.073 214.518 159.279 215.684 159.925C216.849 160.572 217.59 161.337 220.708 159.734C222.027 159.056 218.655 162.829 220.701 162.745C224.974 162.568 225.309 162.297 226.386 161.131C227.205 160.245 225.751 164.681 223.914 166.338Z" fill="#4a8458" fill-opacity="0.997531" fill-rule="nonzero" opacity="1" stroke="#000000" stroke-linecap="round" stroke-linejoin="miter" stroke-opacity="0.106771" stroke-width="0.5"/>
<path d="M224.119 166.307C219.599 169.273 220.114 174.156 220.412 177.525C220.577 179.398 223.7 181.978 224.239 182.189C224.776 182.398 227.517 182.869 228.855 182.763C229.07 182.746 228.967 181.054 229.988 179.387C230.403 178.708 228.212 180.587 225.65 178.457C223.952 177.046 223 175.777 222.827 174.87C222.469 172.98 222.888 171.547 222.995 171.138C223.641 168.675 224.202 166.253 224.119 166.307Z" fill="#568261" fill-opacity="0.997531" fill-rule="nonzero" opacity="1" stroke="none"/>
</g>
</g>
<g id="頭" vectornator:layerName="頭">
<g opacity="1" vectornator:layerName="(curve)">
<path d="M266.678 64.4396C265.511 65.1262 267.023 69.6738 267.546 71.0734C268.069 72.473 269.533 73.875 270.557 75.7681C271.581 77.6612 271.963 77.1711 274.282 79.2891C276.601 81.4071 277.324 81.6389 280.282 83.8233C283.24 86.0077 285.916 87.8513 287.396 87.6579C288.877 87.4645 295.469 87.7047 296.735 86.5353C298.001 85.3658 296.735 83.4225 296.939 81.8406C297.143 80.2587 295.663 77.2479 294.642 74.0841C293.622 70.9203 291.867 70.7899 289.642 69.2363C287.417 67.6828 279.019 65.4991 276.068 65.6643C273.117 65.8295 267.846 63.753 266.678 64.4396Z" fill="#295013" fill-rule="nonzero" opacity="1" stroke="none"/>
<path d="M268.988 57.6296C267.821 58.3162 268.25 60.5871 268.773 61.9868C268.977 62.5322 271.062 64.6271 273.975 65.1958C278.536 66.0865 284.811 65.4052 286.648 65.8101C289.659 66.4734 291.579 66.8942 296.529 67.2004C301.479 67.5065 304.781 66.4504 306.261 66.2569C307.742 66.0635 309.65 60.0641 307.425 58.5105C306.347 57.7579 304.53 56.9153 301.246 56.6501C297.751 56.368 292.763 57.2032 291.242 57.2883C288.29 57.4536 270.155 56.9431 268.988 57.6296Z" fill="#204c07" fill-rule="nonzero" opacity="1" stroke="none"/>
<path d="M271.22 65.3581C271.683 66.5496 273.214 69.2737 274.121 70.8845C274.352 71.2943 274.845 71.8336 275.494 72.4405C277.396 74.2192 280.645 76.5787 282.606 77.9614C285.235 79.816 285.462 80.2959 287.645 81.2059C289.828 82.1158 289.618 81.7716 290.938 81.6033C292.257 81.435 290.648 81.8833 292.193 81.4834C293.739 81.0835 294.889 81.003 296.02 80.0035C297.151 79.004 295.12 76.974 294.898 75.7681C294.675 74.5622 294.274 71.5756 292.295 70.2569C290.317 68.9382 285.056 66.7123 282.549 65.9705C280.041 65.2287 279.871 65.3125 277.242 65.4602C274.612 65.6079 270.758 64.1666 271.22 65.3581Z" fill="#a80a2a" fill-rule="nonzero" opacity="1" stroke="none"/>
<path d="M270.038 64.4377C270.038 64.4377 270.124 66.0652 269.88 66.9329C269.636 67.8006 268.714 67.6194 268.155 67.5156C267.596 67.4118 267.479 66.8785 267.384 66.5548C267.288 66.2311 267.626 65.7994 268.115 65.1176C268.605 64.4358 270.038 64.4377 270.038 64.4377Z" fill="#f0eaeb" fill-rule="nonzero" opacity="1" stroke="#000000" stroke-linecap="round" stroke-linejoin="miter" stroke-width="0.1"/>
<path d="M271.164 65.1976C271.164 65.1976 272.215 63.9064 272.383 63.0516C272.551 62.1968 271.907 62.1094 271.519 62.0511C271.132 61.9928 270.862 62.4452 270.683 62.7133C270.504 62.9813 270.555 63.4655 270.61 64.2185C270.664 64.9715 271.164 65.1976 271.164 65.1976Z" fill="#f0eaeb" fill-rule="nonzero" opacity="1" stroke="#000000" stroke-linecap="round" stroke-linejoin="miter" stroke-width="0.1"/>
<path d="M273.355 65.7635C273.355 65.7635 274.024 64.3587 274.196 63.5333C274.367 62.7078 273.709 62.6235 273.313 62.5672C272.917 62.5109 272.641 62.9477 272.458 63.2066C272.275 63.4655 272.327 63.933 272.383 64.6601C272.439 65.3872 273.355 65.7635 273.355 65.7635Z" fill="#f0eaeb" fill-rule="nonzero" opacity="1" stroke="#000000" stroke-linecap="round" stroke-linejoin="miter" stroke-width="0.1"/>
<path d="M275.141 66.3032C275.141 66.3032 275.81 64.8984 275.981 64.073C276.152 63.2475 275.495 63.1632 275.098 63.1069C274.702 63.0506 274.426 63.4874 274.243 63.7463C274.06 64.0052 274.113 64.4727 274.168 65.1998C274.224 65.9269 275.141 66.3032 275.141 66.3032Z" fill="#f0eaeb" fill-rule="nonzero" opacity="1" stroke="#000000" stroke-linecap="round" stroke-linejoin="miter" stroke-width="0.1"/>
<path d="M276.644 68.3175C276.644 68.3175 277.72 66.1693 278.078 64.8876C278.437 63.6058 277.64 63.4156 277.161 63.2924C276.682 63.1692 276.264 63.8313 275.992 64.2219C275.72 64.6125 275.702 65.3517 275.641 66.4989C275.58 67.646 276.644 68.3175 276.644 68.3175Z" fill="#f0eaeb" fill-rule="nonzero" opacity="1" stroke="#000000" stroke-linecap="round" stroke-linejoin="miter" stroke-width="0.1"/>
<path d="M278.777 68.6768C278.777 68.6768 279.853 66.5286 280.211 65.2469C280.57 63.9651 279.773 63.775 279.294 63.6517C278.815 63.5285 278.397 64.1906 278.125 64.5812C277.853 64.9719 277.834 65.711 277.774 66.8582C277.713 68.0054 278.777 68.6768 278.777 68.6768Z" fill="#f0eaeb" fill-rule="nonzero" opacity="1" stroke="#000000" stroke-linecap="round" stroke-linejoin="miter" stroke-width="0.1"/>
<path d="M281.406 68.884C281.406 68.884 282.154 66.6008 282.32 65.2802C282.486 63.9596 281.67 63.8889 281.178 63.8375C280.686 63.7861 280.37 64.5026 280.159 64.929C279.947 65.3554 280.038 66.0892 280.146 67.2329C280.255 68.3765 281.406 68.884 281.406 68.884Z" fill="#f0eaeb" fill-rule="nonzero" opacity="1" stroke="#000000" stroke-linecap="round" stroke-linejoin="miter" stroke-width="0.1"/>
<path d="M283.402 69.6612C283.402 69.6612 284.124 67.1365 284.274 65.6796C284.425 64.2227 283.609 64.1549 283.116 64.1045C282.624 64.0541 282.315 64.8474 282.109 65.3198C281.902 65.7922 282.001 66.5994 282.123 67.858C282.245 69.1165 283.402 69.6612 283.402 69.6612Z" fill="#f0eaeb" fill-rule="nonzero" opacity="1" stroke="#000000" stroke-linecap="round" stroke-linejoin="miter" stroke-width="0.1"/>
<path d="M287.595 69.8912C287.595 69.8912 288.454 67.5946 288.626 66.2711C288.799 64.9477 287.804 64.892 287.204 64.8497C286.604 64.8074 286.234 65.5297 285.987 65.9599C285.739 66.3901 285.866 67.1221 286.024 68.2635C286.182 69.405 287.595 69.8912 287.595 69.8912Z" fill="#f0eaeb" fill-rule="nonzero" opacity="1" stroke="#000000" stroke-linecap="round" stroke-linejoin="miter" stroke-width="0.1"/>
<path d="M289.933 70.8191C289.933 70.8191 290.793 68.5225 290.965 67.199C291.137 65.8756 290.143 65.8199 289.543 65.7776C288.942 65.7353 288.573 66.4576 288.326 66.8878C288.078 67.318 288.204 68.05 288.363 69.1914C288.521 70.3329 289.933 70.8191 289.933 70.8191Z" fill="#f0eaeb" fill-rule="nonzero" opacity="1" stroke="#000000" stroke-linecap="round" stroke-linejoin="miter" stroke-width="0.1"/>
<path d="M285.401 68.8097C285.401 68.8097 286.143 66.8149 286.306 65.6738C286.47 64.5327 285.657 64.5106 285.167 64.4899C284.677 64.4691 284.363 65.099 284.153 65.4749C283.943 65.8508 284.034 66.4762 284.144 67.4525C284.254 68.4287 285.401 68.8097 285.401 68.8097Z" fill="#f0eaeb" fill-rule="nonzero" opacity="1" stroke="#000000" stroke-linecap="round" stroke-linejoin="miter" stroke-width="0.1"/>
<path d="M271.734 65.7442C271.734 65.7442 271.818 67.3274 271.581 68.1715C271.343 69.0157 270.446 68.8394 269.902 68.7384C269.358 68.6374 269.244 68.1186 269.152 67.8037C269.059 67.4888 269.387 67.0688 269.864 66.4056C270.34 65.7424 271.734 65.7442 271.734 65.7442Z" fill="#f0eaeb" fill-rule="nonzero" opacity="1" stroke="#000000" stroke-linecap="round" stroke-linejoin="miter" stroke-width="0.1"/>
<path d="M274.198 66.9395C274.198 66.9395 274.776 67.8489 273.797 69.3018C272.818 70.7547 273.171 70.4178 272.502 70.3125C271.832 70.2072 271.133 69.415 271.019 69.0867C270.905 68.7584 271.309 68.3205 271.895 67.6291C272.482 66.9376 274.198 66.9395 274.198 66.9395Z" fill="#f0eaeb" fill-rule="nonzero" opacity="1" stroke="#000000" stroke-linecap="round" stroke-linejoin="miter" stroke-width="0.1"/>
<path d="M276.228 68.9066C276.228 68.9066 276.876 69.9291 275.778 71.5628C274.68 73.1965 275.077 72.8177 274.326 72.6993C273.576 72.5809 272.791 71.6902 272.664 71.321C272.536 70.9518 272.989 70.4595 273.646 69.682C274.304 68.9045 276.228 68.9066 276.228 68.9066Z" fill="#f0eaeb" fill-rule="nonzero" opacity="1" stroke="#000000" stroke-linecap="round" stroke-linejoin="miter" stroke-width="0.1"/>
<path d="M278.77 70.2589C278.77 70.2589 279.501 71.4067 278.263 73.2404C277.025 75.0742 277.472 74.649 276.626 74.5161C275.78 74.3832 274.895 73.3834 274.751 72.969C274.607 72.5546 275.117 72.0019 275.859 71.1292C276.6 70.2565 278.77 70.2589 278.77 70.2589Z" fill="#f0eaeb" fill-rule="nonzero" opacity="1" stroke="#000000" stroke-linecap="round" stroke-linejoin="miter" stroke-width="0.1"/>
<path d="M280.799 71.9605C280.799 71.9605 281.348 73.0874 280.037 75.1627C278.726 77.2381 279.175 76.7386 278.419 76.6952C277.662 76.6518 276.958 75.6986 276.869 75.2781C276.78 74.8575 277.3 74.2164 278.062 73.2113C278.825 72.2061 280.799 71.9605 280.799 71.9605Z" fill="#f0eaeb" fill-rule="nonzero" opacity="1" stroke="#000000" stroke-linecap="round" stroke-linejoin="miter" stroke-width="0.1"/>
<path d="M282.916 73.7609C282.916 73.7609 283.465 74.8877 282.153 76.9631C280.842 79.0384 281.292 78.5389 280.535 78.4955C279.778 78.4521 279.074 77.4989 278.985 77.0784C278.896 76.6578 279.416 76.0167 280.179 75.0116C280.941 74.0065 282.916 73.7609 282.916 73.7609Z" fill="#f0eaeb" fill-rule="nonzero" opacity="1" stroke="#000000" stroke-linecap="round" stroke-linejoin="miter" stroke-width="0.1"/>
<path d="M284.54 75.1677C284.54 75.1677 285.138 76.2229 284.128 78.3862C283.118 80.5496 283.483 80.0162 282.792 80.0452C282.1 80.0743 281.377 79.2043 281.259 78.7996C281.141 78.3948 281.558 77.7156 282.163 76.6558C282.768 75.596 284.54 75.1677 284.54 75.1677Z" fill="#f0eaeb" fill-rule="nonzero" opacity="1" stroke="#000000" stroke-linecap="round" stroke-linejoin="miter" stroke-width="0.1"/>
<path d="M285.931 76.4572C285.931 76.4572 286.558 77.4663 285.824 79.7406C285.089 82.0149 285.375 81.4435 284.752 81.5363C284.13 81.6292 283.404 80.8185 283.264 80.4212C283.124 80.0239 283.445 79.3007 283.905 78.1764C284.364 77.0521 285.931 76.4572 285.931 76.4572Z" fill="#f0eaeb" fill-rule="nonzero" opacity="1" stroke="#000000" stroke-linecap="round" stroke-linejoin="miter" stroke-width="0.1"/>
<path d="M287.85 77.7086C287.85 77.7086 288.552 78.6045 287.992 80.7969C287.433 82.9892 287.674 82.4303 287.061 82.5676C286.447 82.7048 285.663 82.0029 285.493 81.6415C285.323 81.2802 285.588 80.576 285.961 79.4844C286.334 78.3928 287.85 77.7086 287.85 77.7086Z" fill="#f0eaeb" fill-rule="nonzero" opacity="1" stroke="#000000" stroke-linecap="round" stroke-linejoin="miter" stroke-width="0.1"/>
<path d="M289.887 78.7586C289.887 78.7586 290.67 79.5066 290.322 81.5724C289.974 83.6383 290.161 83.1014 289.564 83.2906C288.967 83.4798 288.12 82.9181 287.917 82.6047C287.714 82.2913 287.91 81.619 288.176 80.5806C288.443 79.5423 289.887 78.7586 289.887 78.7586Z" fill="#f0eaeb" fill-rule="nonzero" opacity="1" stroke="#000000" stroke-linecap="round" stroke-linejoin="miter" stroke-width="0.1"/>
<path d="M292.125 78.8531C292.125 78.8531 292.977 79.5215 292.831 81.6113C292.686 83.7012 292.82 83.1486 292.244 83.3949C291.668 83.6412 290.77 83.1645 290.538 82.8723C290.305 82.5801 290.435 81.8919 290.6 80.8326C290.764 79.7732 292.125 78.8531 292.125 78.8531Z" fill="#f0eaeb" fill-rule="nonzero" opacity="1" stroke="#000000" stroke-linecap="round" stroke-linejoin="miter" stroke-width="0.1"/>
<path d="M293.887 79.27C293.887 79.27 294.666 79.7423 294.727 81.458C294.788 83.1736 294.852 82.7119 294.388 82.9616C293.923 83.2112 293.123 82.8989 292.9 82.6805C292.678 82.4622 292.727 81.8903 292.773 81.0128C292.819 80.1354 293.887 79.27 293.887 79.27Z" fill="#f0eaeb" fill-rule="nonzero" opacity="1" stroke="#000000" stroke-linecap="round" stroke-linejoin="miter" stroke-width="0.1"/>
<path d="M294.314 69.5261C294.804 69.4281 294.744 69.8842 293.9 70.3974C293.057 70.9106 293.447 71.0438 292.961 70.7944C292.474 70.5451 292.021 69.9119 291.963 69.6998C291.906 69.4878 292.418 69.8011 292.909 69.5914C293.4 69.3817 293.824 69.6241 294.314 69.5261Z" fill="#f0eaeb" fill-rule="nonzero" opacity="1" stroke="#000000" stroke-linecap="round" stroke-linejoin="miter" stroke-width="0.1"/>
<path d="M294.515 66.752C295.261 67.0729 293.816 69.0096 293.139 69.7987C292.463 70.5878 291.957 71.589 291.467 70.4632C290.978 69.3373 290.996 67.2895 291.116 66.4703C291.235 65.651 293.769 66.431 294.515 66.752Z" fill="#f0eaeb" fill-rule="nonzero" opacity="1" stroke="#000000" stroke-linecap="round" stroke-linejoin="miter" stroke-width="0.1"/>
<path d="M293.174 70.9259C293.174 70.9259 292.582 70.7191 293.249 71.4469C293.916 72.1747 293.584 71.8685 294.121 71.7646C294.658 71.6606 294.84 70.8715 294.992 70.4793C295.145 70.0872 295.145 69.8258 294.753 70.0655C294.361 70.3051 293.174 70.9259 293.174 70.9259Z" fill="#f0eaeb" fill-rule="nonzero" opacity="1" stroke="#000000" stroke-linecap="round" stroke-linejoin="miter" stroke-width="0.1"/>
<path d="M293.756 71.9497C293.756 71.9497 293.164 71.743 293.831 72.4707C294.499 73.1985 294.167 72.8924 294.704 72.7884C295.241 72.6845 295.422 71.8953 295.575 71.5032C295.727 71.1111 295.727 70.8497 295.335 71.0893C294.943 71.3289 293.756 71.9497 293.756 71.9497Z" fill="#f0eaeb" fill-rule="nonzero" opacity="1" stroke="#000000" stroke-linecap="round" stroke-linejoin="miter" stroke-width="0.1"/>
<path d="M294.083 72.8296C294.083 72.8296 293.946 72.7192 294.312 73.5484C294.519 74.0168 294.44 73.8602 294.889 73.5484C295.423 73.1781 295.641 73.0038 295.902 72.383C295.993 72.1667 296.118 72.0169 296.044 71.98C295.905 71.911 295.417 72.1288 295.162 72.285C294.77 72.5246 294.083 72.8296 294.083 72.8296Z" fill="#f0eaeb" fill-rule="nonzero" opacity="1" stroke="#000000" stroke-linecap="round" stroke-linejoin="miter" stroke-width="0.1"/>
<path d="M294.499 73.9256C294.499 73.9256 294.387 73.8043 294.728 74.6445C295.055 75.4505 294.91 75.893 295.36 75.5812C295.893 75.2109 296.024 74.6663 296.285 74.0454C296.377 73.8292 296.403 72.71 296.329 72.6731C296.19 72.604 296.018 72.9199 295.763 73.0761C295.624 73.1607 295.235 73.4814 295.142 73.5553C295.049 73.6292 294.499 73.9256 294.499 73.9256Z" fill="#f0eaeb" fill-rule="nonzero" opacity="1" stroke="#000000" stroke-linecap="round" stroke-linejoin="miter" stroke-width="0.1"/>
<path d="M295.028 75.9876C295.028 75.9876 294.829 75.4742 295.17 76.3144C295.497 77.1204 295.32 77.6391 295.769 77.3273C296.303 76.957 296.499 75.7698 296.76 75.1489C296.851 74.9327 296.758 74.2492 296.684 74.2122C296.545 74.1432 296.373 74.4809 296.118 74.637C295.979 74.7217 295.764 75.184 295.671 75.2579C295.578 75.3317 295.028 75.9876 295.028 75.9876Z" fill="#f0eaeb" fill-rule="nonzero" opacity="1" stroke="#000000" stroke-linecap="round" stroke-linejoin="miter" stroke-width="0.1"/>
<path d="M295.69 77.5798C295.69 77.5798 295.528 77.1544 295.806 77.8505C296.072 78.5183 295.927 78.9481 296.293 78.6898C296.728 78.3829 296.887 77.3993 297.1 76.8849C297.174 76.7057 297.099 76.1394 297.038 76.1088C296.925 76.0516 296.785 76.3314 296.577 76.4607C296.464 76.5309 296.289 76.9139 296.213 76.9751C296.138 77.0363 295.69 77.5798 295.69 77.5798Z" fill="#f0eaeb" fill-rule="nonzero" opacity="1" stroke="#000000" stroke-linecap="round" stroke-linejoin="miter" stroke-width="0.1"/>
<path d="M296.314 78.7695C296.314 78.7695 296.142 78.3026 296.372 79.4443C296.593 80.5395 296.31 80.7546 296.614 80.3309C296.975 79.8277 296.919 79.6555 297.096 78.8119C297.158 78.518 297.326 77.5926 297.276 77.5424C297.182 77.4486 296.859 78.0844 296.796 78.1848C296.733 78.2852 296.314 78.7695 296.314 78.7695Z" fill="#f0eaeb" fill-rule="nonzero" opacity="1" stroke="#000000" stroke-linecap="round" stroke-linejoin="miter" stroke-width="0.1"/>
<path d="M294.309 67.0943C294.026 67.7194 294.305 68.2248 294.398 69.2277C294.492 70.2305 294.629 72.5046 295.254 71.5733C296.135 70.2614 296.563 69.7627 296.747 69.2515C297.157 68.1161 297.495 67.4085 297.057 67.059C296.613 66.7041 296.06 66.677 295.53 66.7271C295.034 66.774 294.592 66.4691 294.309 67.0943Z" fill="#f0eaeb" fill-rule="nonzero" opacity="1" stroke="#000000" stroke-linecap="round" stroke-linejoin="miter" stroke-width="0.1"/>
<path d="M296.925 67.4453C296.642 68.0705 296.921 68.5758 297.014 69.5787C297.108 70.5816 297.245 72.8557 297.87 71.9244C298.751 70.6124 299.179 70.1137 299.363 69.6026C299.773 68.4671 300.111 67.7596 299.673 67.41C299.229 67.0552 298.676 67.0281 298.146 67.0781C297.65 67.125 297.208 66.8202 296.925 67.4453Z" fill="#f0eaeb" fill-rule="nonzero" opacity="1" stroke="#000000" stroke-linecap="round" stroke-linejoin="miter" stroke-width="0.1"/>
<path d="M299.343 67.54C299.06 68.1652 299.343 68.5965 299.437 69.5993C299.53 70.6022 299.829 72.7389 300.454 71.8076C301.335 70.4957 301.78 69.9538 301.964 69.4427C302.374 68.3072 302.724 67.2676 302.286 66.9181C301.841 66.5632 301.058 67.1381 300.528 67.1882C300.032 67.2351 299.626 66.9149 299.343 67.54Z" fill="#f0eaeb" fill-rule="nonzero" opacity="1" stroke="#000000" stroke-linecap="round" stroke-linejoin="miter" stroke-width="0.1"/>
<path d="M302.241 67.1924C302.17 67.8749 302.322 67.5526 302.119 68.8041C301.951 69.8358 301.563 71.7946 302.489 71.1611C304.155 70.0209 304.459 69.2797 304.819 68.4288C305.289 67.3169 305.517 66.1734 304.991 65.9797C304.458 65.783 304.176 66.3355 303.689 66.5498C303.233 66.7506 302.313 66.5099 302.241 67.1924Z" fill="#f0eaeb" fill-rule="nonzero" opacity="1" stroke="#000000" stroke-linecap="round" stroke-linejoin="miter" stroke-width="0.1"/>
<path d="M305.137 66.3703C305.17 67.0557 305.272 66.714 305.262 67.9818C305.253 69.027 305.167 71.022 305.986 70.2551C307.459 68.8747 307.647 68.0958 307.873 67.2C308.169 66.0296 308.22 64.8648 307.671 64.7533C307.114 64.6401 306.919 65.2289 306.471 65.5148C306.051 65.7827 305.104 65.6848 305.137 66.3703Z" fill="#f0eaeb" fill-rule="nonzero" opacity="1" stroke="#000000" stroke-linecap="round" stroke-linejoin="miter" stroke-width="0.1"/>
<path d="M296.117 78.2901C296.117 78.2901 296.703 78.8937 296.554 80.8546C296.405 82.8154 296.512 82.2945 296.101 82.5402C295.689 82.7859 295.068 82.3629 294.91 82.0954C294.753 81.8278 294.859 81.18 294.999 80.1836C295.138 79.1873 296.117 78.2901 296.117 78.2901Z" fill="#f0eaeb" fill-rule="nonzero" opacity="1" stroke="#000000" stroke-linecap="round" stroke-linejoin="miter" stroke-width="0.1"/>
<path d="M304.154 57.5778C305.608 57.8613 304.153 56.6785 301.591 55.9458C301.336 55.8728 300.549 55.5812 300.293 55.5072C298.434 54.9695 296.527 55.1511 296.577 54.2234C296.654 52.7906 297.007 51.951 298.546 51.0663C299.209 50.685 299.913 51.0365 300.675 50.6413C301.819 50.0476 302.827 48.6018 302.852 47.7568C302.929 45.0437 300.925 45.8548 297.735 45.4826C294.611 45.1182 289.032 41.2135 287.977 40.4718C287.392 40.0602 285.597 38.4296 283.575 37.6562C282.833 37.3722 281.056 37.3633 279.642 36.8494C277.966 36.2406 277.653 34.8379 277.237 34.5517C276.301 33.9067 272.323 36.0289 270.916 37.0901C269.509 38.1514 264.592 38.3839 263.223 38.9124C260.222 40.0711 258.261 41.1335 255.427 42.6751C252.414 44.3139 244.381 52.5174 244.756 54.4261C245.131 56.3348 248.137 55.7041 248.898 56.9017C249.659 58.0992 251.68 60.6241 253.611 61.5108C255.542 62.3975 256.689 62.1918 258.634 62.2023C260.579 62.2127 260.365 60.6342 262.355 59.3709C265.12 57.6163 265.457 58.5782 268.493 57.7535C271.4 56.9641 275.367 58.4647 278.253 58.3607C288.636 57.9865 302.228 57.2021 304.154 57.5778Z" fill="#1b4526" fill-rule="nonzero" opacity="1" stroke="#000000" stroke-linecap="round" stroke-linejoin="miter" stroke-opacity="0" stroke-width="0.5"/>
<path d="M291.099 53.6665C289.924 52.8442 289.062 52.8442 287.026 52.6484C284.99 52.4526 284.598 52.6484 282.562 51.8261C280.526 51.0037 279.782 51.1995 280.761 53.0008C281.74 54.8022 283.146 55.9536 286.165 56.8384C289.183 57.7233 292.274 54.4889 291.099 53.6665Z" fill="#f0eaeb" fill-rule="nonzero" opacity="1" stroke="none"/>
<path d="M298.13 51.7669C297.42 50.9632 295.907 53.6471 296.501 54.4069C297.095 55.1668 297.413 55.4219 298.566 55.4985C299.719 55.575 298.841 52.5706 298.13 51.7669Z" fill="#f0eaeb" fill-rule="nonzero" opacity="1" stroke="none"/>
<path d="M289.972 54.6677C290.165 53.6322 287.291 52.627 286.89 53.3025C286.489 53.978 286.55 55.7641 287.369 56.258C288.187 56.7518 289.779 55.7032 289.972 54.6677Z" fill="#000000" fill-rule="nonzero" opacity="1" stroke="#000000" stroke-linecap="round" stroke-linejoin="miter" stroke-width="1"/>
<path d="M298.089 54.9824C298.205 55.0548 298.272 54.3 298.171 53.9268C298.045 53.4628 298.022 52.6551 297.844 53.0645C297.712 53.3669 297.466 53.7807 297.459 54.1232C297.453 54.4658 297.82 54.8144 298.089 54.9824Z" fill="#000000" fill-rule="nonzero" opacity="1" stroke="#000000" stroke-linecap="round" stroke-linejoin="miter" stroke-width="1"/>
<path d="M281.722 39.4976C283.033 40.4284 290.217 45.6894 290.939 46.8961C291.662 48.1029 293.827 51.5708 293.152 52.0831C292.476 52.5955 290.722 49.4779 290.318 48.8253C289.913 48.1728 289.043 47.5464 287.999 46.2655C286.955 44.9845 284.713 43.108 283.468 42.2334C282.222 41.3589 279.354 39.3165 278.161 38.7828C276.969 38.2492 273.522 36.3182 274.044 35.4193C274.566 34.5204 280.41 38.5668 281.722 39.4976Z" fill="#b7e3ba" fill-rule="nonzero" opacity="1" stroke="#000000" stroke-linecap="round" stroke-linejoin="miter" stroke-opacity="0.0078125" stroke-width="0.5"/>
<path d="M293.343 44.423C294.187 45.0067 295.961 45.4111 296.899 46.0258C297.467 46.3985 300.857 45.6519 302.279 46.7252C304.433 48.3518 297.805 50.2557 297.112 50.7681C296.418 51.2804 294.688 51.4657 294.587 50.8976C294.485 50.3295 293.509 48.5992 292.881 47.2621C292.253 45.925 291.246 45.0552 289.967 44.1806C288.689 43.3061 285.47 40.317 284.246 39.7834C283.023 39.2498 279.908 38.0855 280.444 37.1866C280.818 36.5592 286.094 39.4718 289.748 42.3974C291.239 43.5917 292.937 44.1419 293.343 44.423Z" fill="#8fd893" fill-opacity="0.341146" fill-rule="nonzero" opacity="1" stroke="#000000" stroke-linecap="round" stroke-linejoin="miter" stroke-opacity="0.0078125" stroke-width="0.5"/>
<path d="M276.01 38.9289C279.783 41.8092 283.174 44.4232 284.298 45.2823C285.423 46.1414 286.267 46.4178 287.484 47.6396C288.7 48.8614 290.814 50.3089 290.286 50.9906C289.758 51.6723 277.104 48.9973 277.006 47.1609C276.907 45.3245 281.206 45.918 280.719 45.3308C280.232 44.7436 276.231 40.4314 272.679 39.2636C269.127 38.0957 264.39 40.8098 266.232 38.9958C268.075 37.1818 272.236 36.0486 276.01 38.9289Z" fill="#84d486" fill-opacity="0.398437" fill-rule="nonzero" opacity="1" stroke="#000000" stroke-linecap="round" stroke-linejoin="miter" stroke-opacity="0.0078125" stroke-width="0.5"/>
<path d="M260.929 46.7684C264.511 48.1627 268.11 48.608 269.202 49.1933C270.295 49.7786 273.908 50.1161 273.071 51.1749C272.234 52.2336 268.888 50.6658 268.171 50.3358C267.454 50.0059 259.732 47.779 258.287 47.9148C256.842 48.0506 255.493 48.5651 255.179 47.3523C254.866 46.1395 257.347 45.3741 260.929 46.7684Z" fill="#84d486" fill-opacity="0.398437" fill-rule="nonzero" opacity="1" stroke="#000000" stroke-linecap="round" stroke-linejoin="miter" stroke-opacity="0.0078125" stroke-width="0.5"/>
<path d="M261.658 49.1338C264.826 50.4287 268.01 50.8422 268.976 51.3858C269.943 51.9294 273.139 52.2428 272.399 53.2261C271.659 54.2093 268.699 52.7533 268.064 52.4469C267.43 52.1404 260.6 50.0723 259.321 50.1985C258.043 50.3246 256.849 50.8024 256.572 49.6761C256.295 48.5498 258.489 47.8389 261.658 49.1338Z" fill="#84d486" fill-opacity="0.398437" fill-rule="nonzero" opacity="1" stroke="#000000" stroke-linecap="round" stroke-linejoin="miter" stroke-opacity="0.0078125" stroke-width="0.5"/>
<path d="M261.766 51.5601C264.778 52.7183 267.805 53.0882 268.723 53.5745C269.642 54.0607 272.681 54.341 271.977 55.2205C271.273 56.1 268.46 54.7976 267.856 54.5235C267.253 54.2494 260.76 52.3996 259.545 52.5124C258.33 52.6252 257.195 53.0526 256.931 52.0452C256.668 51.0378 258.754 50.4019 261.766 51.5601Z" fill="#84d486" fill-opacity="0.398437" fill-rule="nonzero" opacity="1" stroke="#000000" stroke-linecap="round" stroke-linejoin="miter" stroke-opacity="0.0078125" stroke-width="0.5"/>
<path d="M302.816 47.5715C302.305 49.7519 301.031 50.8683 299.635 50.8367C298.868 50.8193 298.345 51.3429 297.901 51.5684C296.351 52.3542 296.377 54.1625 296.286 53.8664C296.301 53.047 295.126 51.3673 295.739 51.01C296.344 50.6572 297.692 50.5249 299.156 49.7577C299.794 49.423 300.843 49.1974 301.388 48.8565C302.34 48.2617 302.863 47.5133 302.816 47.5715Z" fill="#041706" fill-rule="nonzero" opacity="1" stroke="#000000" stroke-linecap="round" stroke-linejoin="miter" stroke-opacity="0.0078125" stroke-width="0.5"/>
<path d="M268.773 57.8159C268.078 58.5607 267.509 60.4433 271.752 60.8447C272.9 60.9533 280.242 60.1451 285.095 59.5345C286.531 59.3537 288.572 58.8014 289.249 58.996C290.67 59.4048 294.837 61.6981 296.573 61.589C297.859 61.5082 299.585 58.887 301.756 58.7541C305.176 58.5447 305.221 58.4243 306.112 58.9082C306.278 58.998 307.069 58.3092 306.827 58.1341C306.66 58.0127 304.934 56.9773 301.761 56.7706C301.502 56.7537 298.921 56.859 297.44 56.2394C296.435 55.8186 295.552 52.8174 294.83 52.4871C293.65 51.9475 296.582 56.7452 295.034 56.6715C293.962 56.6205 293.86 53.967 292.993 54.1711C292.125 54.3752 292.497 57.0568 292.014 57.0838C290.707 57.157 285.855 57.8131 281.221 57.6762C274.185 57.4683 269.468 57.0711 268.773 57.8159Z" fill="#b5eef8" fill-opacity="0.479167" fill-rule="nonzero" opacity="1" stroke="#000000" stroke-linecap="round" stroke-linejoin="miter" stroke-opacity="0" stroke-width="0.5"/>
<path d="M305.281 58.002C305.777 57.9545 306.735 57.5085 308.05 59.1625C308.767 60.0641 308.413 62.2388 308.355 62.1257C308.231 61.8849 307.7 60.9022 307.182 60.3266C306.6 59.6805 306.506 59.1739 305.601 59.3244C304.635 59.485 302.629 59.8185 301.202 59.485C300.216 59.2546 298.04 60.9967 296.856 61.5446C296.72 61.6078 296.581 61.3048 296.523 61.2007C296.446 61.0621 296.287 60.5499 296.679 60.0335C297.238 59.2952 298.59 58.505 300.088 58.4169C302.634 58.2672 304.04 58.1211 305.281 58.002Z" fill="#85a589" fill-rule="nonzero" opacity="1" stroke="none"/>
<path d="M307.32 61.7139C307.5 61.8652 307.321 61.9648 306.931 62.4832C306.54 63.0016 306.505 63.2426 306.297 63.7741C306.09 64.3056 305.927 64.7584 305.902 64.4801C305.878 64.2017 305.356 63.1737 305.895 62.4681C306.434 61.7624 307.14 61.5626 307.32 61.7139Z" fill="#19191b" fill-rule="nonzero" opacity="1" stroke="none"/>
<path d="M299.577 63.1238C299.45 62.347 300.059 62.4392 300.761 62.5307C301.463 62.6221 301.858 62.697 302.54 62.9403C303.222 63.1836 304.515 64.1345 304.471 64.6037C304.427 65.0729 302.883 64.1785 301.966 63.9092C301.049 63.6398 299.704 63.9007 299.577 63.1238Z" fill="#19191b" fill-rule="nonzero" opacity="1" stroke="none"/>
<path d="M249.047 57.1777C249.544 57.8657 248.005 55.6608 247.869 55.4498C247.311 54.5845 246.489 53.3003 247.24 52.1314C248.174 50.6774 252.274 52.3368 252.274 52.3368C252.274 52.3368 249.36 49.1157 250.537 48.2963C251.714 47.477 255.287 48.8099 255.287 48.8099C255.287 48.8099 251.631 47.6013 253.125 46.3445C254.618 45.0877 259.541 46.0364 259.541 46.0364C259.541 46.0364 256.655 44.6416 257.223 43.3932C257.985 41.7165 262.128 40.0836 260.746 40.3522C258.335 40.8209 255.804 42.3709 251.618 45.6573C247.433 48.9438 244.049 54.1174 242.49 57.0279C246.425 54.3913 248.225 56.0422 249.047 57.1777Z" fill="#98ccb2" fill-rule="nonzero" opacity="1" stroke="#f803dd" stroke-linecap="round" stroke-linejoin="miter" stroke-opacity="0" stroke-width="0.5"/>
<path d="M276.99 46.9765C276.036 49.2053 283.218 52.1847 284.314 52.3303C285.045 52.4275 286.925 52.4476 288.511 52.7498C289.879 53.0103 290.991 53.5308 291.414 53.8988C291.86 54.2858 291.313 52.0597 291.246 51.9136C290.594 50.4895 285.512 50.8217 281.08 49.2995C276.648 47.7772 277 47.0092 276.99 46.9765Z" fill="#032a06" fill-rule="nonzero" opacity="1" stroke="none"/>
<path d="M242.819 56.6634C242.077 57.6254 241.649 58.2546 241.586 58.5647C241.415 59.409 242.605 59.1721 243.567 58.4653C243.907 58.2155 245.13 55.9328 245.815 55.4791C246.578 54.9734 245.66 54.3618 245.015 54.4959C244.504 54.6021 243.655 55.5808 242.819 56.6634Z" fill="#b2d6c4" fill-rule="nonzero" opacity="1" stroke="#000000" stroke-linecap="round" stroke-linejoin="miter" stroke-opacity="0" stroke-width="0.5"/>
</g>
</g>
</svg>
