<?xml version="1.0" encoding="UTF-8" standalone="no"?>
<!DOCTYPE svg PUBLIC "-//W3C//DTD SVG 1.1//EN" "http://www.w3.org/Graphics/SVG/1.1/DTD/svg11.dtd">
<!-- Created with Vectornator (http://vectornator.io/) -->
<svg height="100%" stroke-miterlimit="10" style="fill-rule:nonzero;clip-rule:evenodd;stroke-linecap:round;stroke-linejoin:round;" version="1.1" viewBox="0 0 400 400" width="100%" xml:space="preserve" xmlns="http://www.w3.org/2000/svg" xmlns:vectornator="http://vectornator.io" xmlns:xlink="http://www.w3.org/1999/xlink">
<defs>
<filter color-interpolation-filters="sRGB" filterUnits="userSpaceOnUse" height="51.05" id="Filter" width="176.183" x="110.949" y="148.477">
<feComponentTransfer in="SourceGraphic" result="Alpha">
<feFuncA slope="0.978383" type="linear"/>
</feComponentTransfer>
<feDropShadow dx="2.09369" dy="2.1486" flood-color="#757575" flood-opacity="1" in="Alpha" result="Shadow" stdDeviation="0.436047"/>
</filter>
<filter color-interpolation-filters="sRGB" filterUnits="userSpaceOnUse" height="58.702" id="Filter_2" width="182.912" x="107.158" y="232.017">
<feComponentTransfer in="SourceGraphic" result="Alpha">
<feFuncA slope="0.978383" type="linear"/>
</feComponentTransfer>
<feDropShadow dx="0" dy="0" flood-color="#000000" flood-opacity="1" in="Alpha" result="Shadow" stdDeviation="0"/>
</filter>
<filter color-interpolation-filters="sRGB" filterUnits="userSpaceOnUse" height="21.0231" id="Filter_3" width="191.943" x="106.306" y="250.817">
<feComponentTransfer in="SourceGraphic" result="Alpha">
<feFuncA slope="0.978383" type="linear"/>
</feComponentTransfer>
<feDropShadow dx="0" dy="0" flood-color="#000000" flood-opacity="1" in="Alpha" result="Shadow" stdDeviation="0"/>
</filter>
<filter color-interpolation-filters="sRGB" filterUnits="userSpaceOnUse" height="114.23" id="Filter_4" width="21.1049" x="186.952" y="200.276">
<feComponentTransfer in="SourceGraphic" result="Alpha">
<feFuncA slope="0.978383" type="linear"/>
</feComponentTransfer>
<feDropShadow dx="0" dy="0" flood-color="#000000" flood-opacity="1" in="Alpha" result="Shadow" stdDeviation="0"/>
</filter>
<filter color-interpolation-filters="sRGB" filterUnits="userSpaceOnUse" height="138.141" id="Filter_5" width="240.823" x="79.9013" y="84.0881">
<feComponentTransfer in="SourceGraphic" result="Alpha">
<feFuncA slope="0.978383" type="linear"/>
</feComponentTransfer>
<feDropShadow dx="1.04684" dy="1.0743" flood-color="#5f5f61" flood-opacity="1" in="Alpha" result="Shadow" stdDeviation="0.5"/>
</filter>
</defs>
<path d="M0 0L400 0L400 400L0 400L0 0Z" fill="#ffffff" fill-rule="nonzero" opacity="1" stroke="none" vectornator:artboardBackground="true"/>
<g id="レイヤー-1" vectornator:layerName="レイヤー 1">
<path d="M4.43697 199.876C4.43697 92.2476 91.8004 4.99785 199.569 4.99785C307.337 4.99785 394.7 92.2476 394.7 199.876C394.7 307.504 307.337 394.754 199.569 394.754C91.8004 394.754 4.43697 307.504 4.43697 199.876Z" fill="#ffffff" fill-rule="nonzero" opacity="1" stroke="#0008c7" stroke-linecap="butt" stroke-linejoin="round" stroke-width="5"/>
<path d="M9.75594 200.165C9.75594 95.3079 94.7628 10.3041 199.624 10.3041C304.485 10.3041 389.492 95.3079 389.492 200.165C389.492 305.023 304.485 390.027 199.624 390.027C94.7628 390.027 9.75594 305.023 9.75594 200.165Z" fill="#0008c7" fill-rule="nonzero" opacity="1" stroke="#018760" stroke-linecap="butt" stroke-linejoin="round" stroke-opacity="0" stroke-width="8"/>
<path d="M66.8247 200.933C66.8247 126.803 126.919 66.7087 201.049 66.7087C275.18 66.7087 335.274 126.803 335.274 200.933C335.274 275.064 275.18 335.158 201.049 335.158C126.919 335.158 66.8247 275.064 66.8247 200.933Z" fill="#ffffff" fill-rule="nonzero" opacity="1" stroke="#034f38" stroke-linecap="butt" stroke-linejoin="round" stroke-opacity="0" stroke-width="2.56555"/>
<g fill="#ffffff" opacity="1" stroke="#ffffff" stroke-linecap="butt" stroke-linejoin="round" stroke-opacity="0" stroke-width="1" vectornator:layerName="tokyo ">
<path d="M98.904 337.376L100.228 338.211C99.9253 339.479 99.7906 340.956 99.8238 342.644C99.8571 344.331 100.177 345.431 100.784 345.942C101.122 346.219 101.55 346.545 102.067 346.919C102.584 347.293 103.037 347.603 103.427 347.849L104.235 348.359L116.307 329.221C116.568 328.808 116.723 328.397 116.773 327.988C116.822 327.578 116.687 327.145 116.368 326.687C116.169 326.417 115.826 326.053 115.339 325.593C114.851 325.133 114.427 324.758 114.067 324.466L114.913 323.125L128.514 331.704L127.668 333.046C127.314 332.87 126.816 332.624 126.174 332.308C125.533 331.991 125.074 331.81 124.799 331.764C124.236 331.666 123.782 331.724 123.438 331.94C123.094 332.155 122.788 332.475 122.52 332.899L110.339 352.209L111.148 352.719C111.537 352.965 112.013 353.241 112.573 353.546C113.134 353.852 113.612 354.097 114.007 354.283C114.73 354.61 115.86 354.426 117.397 353.729C118.935 353.032 120.21 352.274 121.223 351.455L122.547 352.29L118.144 359.272L94.5002 344.358L98.904 337.376Z"/>
<path d="M72.2768 319.651C72.155 317.726 72.4337 315.811 73.1126 313.905C73.7916 312 74.9494 310.198 76.586 308.5C78.0438 306.987 79.6849 305.792 81.5091 304.915C83.3333 304.038 85.1986 303.568 87.105 303.504C89.0977 303.448 91.0474 303.788 92.9542 304.524C94.8609 305.261 96.7511 306.532 98.6248 308.338C100.137 309.796 101.327 311.423 102.194 313.218C103.061 315.014 103.551 316.879 103.663 318.813C103.785 320.718 103.504 322.621 102.82 324.522C102.136 326.423 101.009 328.189 99.4378 329.818C97.8013 331.516 96.0272 332.776 94.1157 333.597C92.2041 334.419 90.2659 334.833 88.301 334.841C86.3647 334.838 84.4545 334.432 82.5705 333.623C80.6864 332.815 78.9636 331.658 77.4022 330.153C75.8505 328.657 74.6385 327 73.7663 325.18C72.894 323.361 72.3975 321.518 72.2768 319.651ZM90.3588 308.419C89.0637 308.883 87.7778 309.583 86.501 310.517C85.2242 311.451 83.9039 312.626 82.5401 314.041C81.3832 315.241 80.3423 316.492 79.4173 317.794C78.4923 319.095 77.8068 320.387 77.3608 321.67C76.9245 322.963 76.7942 324.211 76.9698 325.416C77.1453 326.621 77.7504 327.721 78.7848 328.718C80.5512 330.421 82.6995 330.877 85.2299 330.088C87.7603 329.298 90.4975 327.376 93.4414 324.322C94.6923 323.024 95.7727 321.702 96.6825 320.358C97.5923 319.014 98.2463 317.705 98.6446 316.433C99.0426 315.141 99.1377 313.929 98.9299 312.797C98.7221 311.665 98.1254 310.624 97.1397 309.674C96.1736 308.743 95.1089 308.187 93.9458 308.007C92.7826 307.827 91.5869 307.965 90.3588 308.419Z"/>
<path d="M67.0582 268.408L73.3406 277.952C72.0794 280.843 71.0874 283.354 70.3645 285.485C69.6416 287.616 68.7519 290.319 67.6952 293.594L68.2765 294.478L75.8502 289.492C76.2578 289.224 76.5546 288.923 76.7408 288.589C76.9269 288.256 76.9709 287.805 76.8727 287.237C76.8291 286.973 76.7203 286.611 76.5463 286.149C76.3723 285.688 76.1776 285.244 75.962 284.818L77.2866 283.946L85.7152 296.75L84.3906 297.622C84.1668 297.331 83.8478 296.921 83.4336 296.39C83.0194 295.859 82.6925 295.511 82.4529 295.344C82.0261 295.041 81.6191 294.903 81.2317 294.931C80.8444 294.959 80.4356 295.114 80.0054 295.397L62.9221 306.643C62.5259 306.904 62.2366 307.192 62.0544 307.506C61.8721 307.821 61.8225 308.275 61.9055 308.87C61.978 309.325 62.1273 309.835 62.3533 310.401C62.5793 310.966 62.7759 311.412 62.9432 311.74L61.6186 312.612L52.9106 299.384L54.2351 298.512C54.5001 298.841 54.8258 299.231 55.2122 299.682C55.5987 300.134 55.964 300.497 56.3083 300.774C56.7461 301.119 57.1719 301.26 57.5858 301.199C57.9996 301.137 58.399 300.98 58.7839 300.726L66.901 295.383L66.4315 294.67C65.0465 294.316 63.4004 293.923 61.4932 293.491C59.5861 293.059 58.0579 292.758 56.9085 292.59C55.3048 292.348 54.0688 292.208 53.2007 292.171C52.3325 292.134 51.6834 292.257 51.2532 292.54C51.0607 292.667 51.0477 292.967 51.2141 293.442C51.3805 293.917 51.7168 294.588 52.223 295.455L50.8984 296.327L44.0013 285.85L45.3258 284.978C46.2963 286.156 47.2261 287.07 48.1151 287.718C49.0041 288.366 50.1074 288.864 51.4248 289.214C53.309 289.71 54.9091 290.089 56.2252 290.35C57.5413 290.612 59.2281 290.949 61.2857 291.364C61.8948 289.405 62.6558 287.03 63.5686 284.238C64.4815 281.447 65.3499 278.693 66.1739 275.976C66.3847 275.285 66.5384 274.551 66.6351 273.774C66.7317 272.996 66.7127 272.222 66.5781 271.45C66.5163 271.085 66.4002 270.699 66.2296 270.292C66.0591 269.885 65.8938 269.548 65.7337 269.28L67.0582 268.408Z"/>
<path d="M31.4574 250.788C31.6863 251.222 31.9319 251.606 32.1942 251.94C32.4565 252.274 32.7555 252.571 33.0912 252.833C33.6071 253.256 34.1846 253.586 34.8237 253.823C35.4629 254.059 36.1519 254.265 36.8908 254.441C38.4114 254.79 40.0522 255.139 41.8132 255.488C43.5742 255.837 45.5081 256.209 47.6149 256.604C48.9598 256.877 49.9502 256.979 50.5861 256.911C51.222 256.843 52.2464 256.532 53.6592 255.976L57.4624 254.481C57.9165 254.303 58.2803 254.062 58.554 253.758C58.8276 253.453 58.9775 253.019 59.0035 252.456C59.0075 252.207 58.9457 251.707 58.8181 250.956C58.6905 250.205 58.5748 249.661 58.4711 249.323L59.947 248.743L65.8297 263.71L64.3538 264.29C64.1898 263.946 63.9398 263.458 63.6038 262.826C63.2678 262.194 62.9973 261.765 62.7923 261.539C62.407 261.152 62.0137 260.939 61.6125 260.9C61.2113 260.861 60.771 260.936 60.2917 261.124L55.5614 262.983C55.1451 263.147 54.7818 263.297 54.4714 263.434C54.161 263.57 53.9134 263.719 53.7287 263.879C53.5238 264.061 53.2774 264.333 52.9895 264.693C52.7017 265.054 52.3283 265.521 51.8693 266.095C50.5481 267.735 49.3029 269.31 48.1335 270.818C46.9642 272.326 45.8721 273.753 44.8573 275.098C44.332 275.8 43.9437 276.451 43.6922 277.053C43.4406 277.654 43.2717 278.234 43.1852 278.792C43.1299 279.207 43.1472 279.677 43.2372 280.202C43.3272 280.728 43.4364 281.191 43.5648 281.592L42.089 282.172L36.0427 266.789L37.5186 266.209C38.1117 267.607 38.5838 268.521 38.9348 268.951C39.2859 269.381 39.6001 269.541 39.8777 269.432C40.0164 269.377 40.258 269.177 40.6024 268.83C40.9467 268.484 41.4624 267.906 42.1493 267.097C42.8007 266.346 43.683 265.275 44.7963 263.883C45.9095 262.492 47.2031 260.837 48.6769 258.918C43.938 258.013 40.6389 257.41 38.7794 257.106C36.92 256.803 35.82 256.719 35.4794 256.852C35.0506 257.021 34.8255 257.412 34.8042 258.024C34.7829 258.637 34.9712 259.543 35.3693 260.74L33.8934 261.321L29.9815 251.368L31.4574 250.788Z"/>
<path d="M27.5163 219.739C28.5645 218.121 29.9287 216.748 31.609 215.622C33.2893 214.495 35.2924 213.737 37.6184 213.348C39.6903 213.001 41.7202 213.018 43.7081 213.4C45.6959 213.781 47.4746 214.514 49.0441 215.598C50.6783 216.74 52.042 218.174 53.1352 219.901C54.2283 221.628 54.9898 223.775 55.4197 226.342C55.7667 228.414 55.7538 230.429 55.381 232.388C55.0082 234.347 54.291 236.137 53.2294 237.757C52.1923 239.36 50.8331 240.722 49.1517 241.842C47.4703 242.961 45.5134 243.708 43.281 244.082C40.9551 244.472 38.7798 244.427 36.7551 243.949C34.7304 243.47 32.9266 242.649 31.3436 241.485C29.7896 240.329 28.4967 238.866 27.4648 237.094C26.4328 235.323 25.7378 233.367 25.3796 231.228C25.0236 229.103 25.037 227.05 25.4198 225.069C25.8026 223.087 26.5015 221.311 27.5163 219.739ZM48.7312 221.484C47.4141 221.086 45.9645 220.882 44.3824 220.872C42.8004 220.863 41.0402 221.02 39.102 221.345C37.4578 221.62 35.8766 222.005 34.3585 222.5C32.8403 222.994 31.5201 223.624 30.3977 224.39C29.2775 225.168 28.4293 226.093 27.853 227.166C27.2767 228.238 27.1073 229.482 27.3446 230.899C27.7498 233.319 29.2039 234.965 31.7068 235.838C34.2098 236.71 37.5533 236.796 41.7373 236.095C43.5151 235.798 45.1698 235.38 46.7013 234.841C48.2327 234.303 49.5374 233.642 50.6152 232.856C51.7042 232.056 52.5023 231.139 53.0095 230.105C53.5167 229.072 53.6573 227.881 53.4311 226.531C53.2095 225.207 52.685 224.127 51.8577 223.29C51.0304 222.453 49.9882 221.851 48.7312 221.484Z"/>
<path d="M53.5766 182.893L52.3884 198.849L50.807 198.731C50.8072 198.364 50.8066 197.824 50.8054 197.11C50.8042 196.397 50.7596 195.901 50.6716 195.622C50.5061 195.107 50.2645 194.746 49.947 194.539C49.6294 194.332 49.2138 194.209 48.7002 194.171L28.3043 192.652C27.8447 192.618 27.4327 192.675 27.0682 192.825C26.7037 192.975 26.3942 193.298 26.1397 193.796C25.9804 194.11 25.8061 194.579 25.6169 195.204C25.4276 195.829 25.2889 196.369 25.2006 196.824L23.6192 196.707L24.8074 180.751L26.3888 180.869C26.3991 181.277 26.4188 181.788 26.4479 182.402C26.4769 183.016 26.5434 183.537 26.6474 183.966C26.7838 184.506 27.0314 184.878 27.39 185.082C27.7486 185.285 28.1644 185.404 28.6375 185.44L49.0132 186.957C49.4997 186.993 49.9222 186.933 50.2804 186.776C50.6387 186.619 50.945 186.292 51.1996 185.795C51.3423 185.52 51.4956 185.059 51.6593 184.412C51.823 183.765 51.935 183.219 51.9952 182.775L53.5766 182.893Z"/>
<path d="M35.0253 141.916C34.9704 142.293 34.9079 142.837 34.8378 143.547C34.7677 144.256 34.8655 144.939 35.131 145.595C35.3609 146.172 35.8797 146.672 36.6874 147.096C37.4952 147.52 38.7327 147.946 40.4 148.374L60.3687 153.495L59.4696 157.001L33.4012 168.868L46.5167 172.232C48.1446 172.65 49.4098 172.859 50.3121 172.859C51.2145 172.86 51.9249 172.668 52.4433 172.283C52.8231 172.003 53.2239 171.504 53.6458 170.787C54.0676 170.069 54.3769 169.491 54.5735 169.052L56.1096 169.446L53.0283 181.458L51.4923 181.064C51.5842 180.542 51.6397 179.93 51.6588 179.229C51.6779 178.527 51.5871 177.912 51.3866 177.385C51.1372 176.776 50.6529 176.277 49.9337 175.89C49.2145 175.502 47.949 175.076 46.1372 174.612L32.9036 171.217C32.2472 171.049 31.6007 170.991 30.9643 171.045C30.3279 171.099 29.7441 171.288 29.2128 171.614C28.6486 171.959 28.1619 172.397 27.7526 172.929C27.3434 173.461 26.9689 174.089 26.6292 174.813L25.0538 174.409L27.7511 163.893L50.576 153.46L40.0009 150.748C38.3205 150.317 37.0413 150.108 36.1636 150.12C35.2858 150.133 34.5877 150.332 34.0692 150.717C33.6696 151.02 33.2655 151.518 32.8569 152.211C32.4484 152.903 32.1458 153.469 31.9491 153.909L30.4131 153.515L33.4892 141.522L35.0253 141.916Z"/>
<path d="M68.0491 137.806C67.2825 139.392 66.3723 140.777 65.3184 141.962C64.2645 143.146 63.2391 144.084 62.2422 144.777L62.9132 146.659L62.1614 148.215L52.6557 143.915L53.4164 142.341C54.4783 142.417 55.6361 142.42 56.89 142.348C58.1438 142.277 59.3352 142.07 60.4642 141.727C61.6415 141.378 62.7091 140.866 63.6668 140.193C64.6246 139.519 65.4012 138.566 65.9968 137.333C66.7988 135.674 67.0077 134.205 66.6237 132.928C66.2397 131.651 65.4314 130.715 64.1988 130.12C63.1859 129.63 62.1534 129.594 61.1012 130.012C60.049 130.429 58.8925 131.304 57.6314 132.636C56.8066 133.502 56.046 134.298 55.3496 135.022C54.6532 135.747 53.9757 136.417 53.3173 137.032C51.7784 138.441 50.1573 139.257 48.4539 139.48C46.7505 139.703 45.0994 139.429 43.5007 138.656C42.4878 138.167 41.6207 137.477 40.8994 136.586C40.1781 135.696 39.6487 134.65 39.3112 133.448C39.0047 132.307 38.9356 131.001 39.1036 129.532C39.2716 128.063 39.7124 126.59 40.4259 125.113C41.1217 123.673 41.9716 122.42 42.9756 121.355C43.9796 120.29 44.8569 119.494 45.6075 118.969L45.0487 117.321L45.8182 115.729L54.7489 119.863L53.9882 121.438C52.8594 121.344 51.6783 121.304 50.4449 121.317C49.2115 121.331 48.1326 121.453 47.2082 121.684C46.2115 121.94 45.3139 122.357 44.5155 122.934C43.7171 123.512 43.0643 124.326 42.5572 125.375C41.9203 126.693 41.7721 127.95 42.1126 129.146C42.4531 130.341 43.1726 131.204 44.2709 131.735C45.3082 132.236 46.3318 132.283 47.3416 131.875C48.3515 131.468 49.4781 130.616 50.7214 129.32C51.4629 128.564 52.2132 127.79 52.9723 126.998C53.7314 126.206 54.4282 125.511 55.0627 124.915C56.6012 123.476 58.194 122.586 59.8413 122.245C61.4885 121.905 63.203 122.165 64.9848 123.026C66.1075 123.568 67.0669 124.355 67.8628 125.387C68.6588 126.419 69.1893 127.548 69.4545 128.775C69.7516 130.123 69.798 131.538 69.5937 133.02C69.3895 134.502 68.8746 136.097 68.0491 137.806Z"/>
<path d="M72.6138 91.1466L71.6933 92.4128C70.4486 92.0273 68.9833 91.7956 67.2972 91.7177C65.6111 91.6397 64.4931 91.8867 63.9432 92.4588C63.6443 92.7777 63.2911 93.1829 62.8836 93.6742C62.4761 94.1655 62.1369 94.5975 61.8659 94.9703L61.304 95.7431L79.6059 109.049C80.0006 109.336 80.4004 109.518 80.8055 109.595C81.2106 109.671 81.6523 109.565 82.1305 109.276C82.4125 109.096 82.7988 108.778 83.2895 108.322C83.7802 107.866 84.183 107.467 84.4978 107.126L85.7805 108.059L76.3239 121.066L75.0412 120.133C75.2395 119.792 75.5177 119.311 75.8758 118.692C76.234 118.072 76.4449 117.627 76.5086 117.354C76.6441 116.799 76.6156 116.343 76.4232 115.985C76.2308 115.628 75.9318 115.301 75.5262 115.006L57.0599 101.581L56.498 102.354C56.227 102.726 55.9206 103.182 55.5789 103.721C55.2372 104.26 54.9608 104.721 54.7496 105.104C54.375 105.804 54.4848 106.943 55.0789 108.523C55.6731 110.103 56.3454 111.426 57.0959 112.491L56.1754 113.757L49.4992 108.903L65.9377 86.2928L72.6138 91.1466Z"/>
<path d="M101.183 91.8226L89.9229 103.19L88.7963 102.074C89.0346 101.794 89.3849 101.383 89.8472 100.839C90.3094 100.296 90.5974 99.8895 90.7111 99.6206C90.9196 99.1212 90.9703 98.6897 90.8632 98.326C90.756 97.9624 90.5195 97.5993 90.1536 97.2368L75.6235 82.8432C75.2961 82.5189 74.9453 82.2953 74.5709 82.1725C74.1966 82.0496 73.7511 82.0949 73.2346 82.3082C72.9094 82.4439 72.4721 82.6879 71.9226 83.0403C71.3732 83.3927 70.9171 83.7136 70.5543 84.0028L69.4277 82.8868L80.6879 71.5198L81.8145 72.6358C81.5572 72.9533 81.2405 73.3549 80.8642 73.8407C80.4879 74.3264 80.2001 74.7663 80.0007 75.1601C79.7539 75.6597 79.7008 76.1032 79.8416 76.4907C79.9824 76.8782 80.2213 77.2388 80.5584 77.5727L95.074 91.952C95.4207 92.2954 95.7811 92.5237 96.1554 92.637C96.5297 92.7502 96.9752 92.7002 97.4917 92.4869C97.7787 92.3705 98.1944 92.1194 98.7388 91.7335C99.2833 91.3475 99.7226 91.0052 100.057 90.7065L101.183 91.8226Z"/>
<path d="M111.804 57.7454L110.544 58.6747C109.474 57.9315 108.147 57.2682 106.563 56.685C104.979 56.1017 103.839 55.9997 103.142 56.3791C102.76 56.5929 102.301 56.8725 101.765 57.2179C101.228 57.5633 100.774 57.8728 100.403 58.1463L99.6341 58.7135L113.066 76.9237C113.355 77.3163 113.682 77.6104 114.045 77.8057C114.408 78.0011 114.861 78.0332 115.404 77.902C115.727 77.8151 116.192 77.6284 116.797 77.3418C117.403 77.0552 117.907 76.797 118.31 76.5671L119.251 77.8433L106.309 87.389L105.368 86.1128C105.66 85.8467 106.071 85.4725 106.599 84.9902C107.127 84.5078 107.463 84.1466 107.606 83.9064C107.903 83.4182 108.013 82.9745 107.938 82.5754C107.862 82.1763 107.676 81.7749 107.378 81.3714L93.8259 62.9976L93.0569 63.5648C92.686 63.8383 92.2563 64.1805 91.7678 64.5914C91.2793 65.0022 90.8766 65.3582 90.5598 65.6593C89.9915 66.2132 89.7521 67.3328 89.8417 69.0183C89.9312 70.7038 90.173 72.1675 90.5669 73.4095L89.3071 74.3388L84.4076 67.6961L106.904 51.1027L111.804 57.7454Z"/>
<path d="M143.315 35.1811C142.974 35.382 142.498 35.7011 141.886 36.1386C141.274 36.576 140.814 37.0595 140.505 37.5889C140.178 38.1117 140.103 38.8173 140.28 39.7056C140.456 40.5939 140.912 41.8388 141.647 43.4401L146.124 53.1962C147.442 56.0664 147.528 58.8227 146.385 61.4651C145.241 64.1075 143.068 66.1637 139.866 67.6335C136.133 69.3465 132.857 69.8284 130.038 69.0793C127.218 68.3301 125.116 66.4465 123.731 63.4286L117.575 50.0139C117.377 49.5828 117.124 49.2514 116.816 49.0198C116.509 48.7881 116.064 48.6565 115.483 48.625C115.09 48.6119 114.636 48.6634 114.123 48.7797C113.609 48.896 113.196 49.0035 112.884 49.1022L112.239 47.6979L125.987 41.3888L126.631 42.7931C126.248 42.9986 125.869 43.2286 125.494 43.4829C125.118 43.7372 124.752 44.0282 124.395 44.3559C123.995 44.7185 123.794 45.1091 123.792 45.5275C123.79 45.9459 123.889 46.3707 124.086 46.8018L130.158 60.0316C131.351 62.6308 132.791 64.2588 134.48 64.9156C136.168 65.5724 138.102 65.4004 140.283 64.3998C142.426 63.4161 143.808 61.9916 144.428 60.1262C145.049 58.2607 144.776 56.0592 143.612 53.5217L139.533 44.634C138.809 43.0573 138.16 41.9273 137.586 41.244C137.011 40.5607 136.423 40.1484 135.821 40.007C135.376 39.883 134.706 39.8924 133.81 40.0353C132.913 40.1782 132.294 40.2986 131.951 40.3963L131.29 38.955L142.653 33.7398L143.315 35.1811Z"/>
<path d="M176.535 34.1909L175.01 34.5442C174.323 33.4375 173.367 32.3023 172.145 31.1386C170.922 29.9749 169.916 29.4289 169.126 29.5007C168.691 29.5458 168.158 29.6204 167.529 29.7245C166.899 29.8287 166.36 29.9328 165.911 30.0368L164.98 30.2524L170.086 52.2964C170.197 52.7718 170.38 53.1711 170.635 53.4944C170.891 53.8178 171.294 54.027 171.845 54.122C172.176 54.1705 172.677 54.1833 173.346 54.1604C174.015 54.1374 174.581 54.1004 175.042 54.0492L175.4 55.5941L159.733 59.2233L159.375 57.6785C159.749 57.5502 160.274 57.3694 160.951 57.1362C161.627 56.903 162.078 56.7045 162.305 56.5408C162.771 56.2102 163.048 55.8468 163.137 55.4505C163.226 55.0542 163.214 54.6118 163.101 54.1233L157.949 31.8812L157.018 32.0969C156.569 32.2009 156.039 32.3446 155.427 32.5279C154.816 32.7113 154.305 32.8783 153.895 33.029C153.153 33.3121 152.49 34.245 151.903 35.8277C151.317 37.4105 150.958 38.85 150.827 40.1464L149.302 40.4997L147.439 32.4585L174.672 26.1497L176.535 34.1909Z"/>
<path d="M206.558 31.7447L205.014 31.804C204.579 30.7221 203.859 29.6375 202.855 28.5503C201.85 27.4632 200.869 26.8362 199.914 26.6695C199.504 26.5903 198.936 26.5544 198.211 26.562C197.485 26.5695 196.886 26.5824 196.412 26.6006L192.227 26.7614L192.654 37.8942L195.62 37.7803C196.365 37.7516 197.039 37.6376 197.642 37.4381C198.244 37.2386 198.787 36.8787 199.269 36.3583C199.568 36.0349 199.862 35.4742 200.15 34.6765C200.438 33.8787 200.618 33.1868 200.691 32.6008L202.235 32.5415L202.697 44.5682L201.153 44.6276C201.05 44.0619 200.816 43.3554 200.451 42.5081C200.086 41.6608 199.748 41.0804 199.438 40.7668C198.972 40.2964 198.431 39.9815 197.815 39.822C197.198 39.6626 196.49 39.5983 195.691 39.629L192.725 39.7429L193.045 48.0519C193.078 48.9187 193.169 49.6036 193.317 50.1065C193.465 50.6095 193.72 50.9896 194.083 51.247C194.431 51.4913 194.902 51.6428 195.494 51.7014C196.086 51.76 196.89 51.7698 197.906 51.7308C198.38 51.7126 198.949 51.6839 199.612 51.6449C200.275 51.6059 200.856 51.5429 201.354 51.4559C201.92 51.3663 202.448 51.2443 202.937 51.0899C203.426 50.9355 203.788 50.7249 204.022 50.4582C204.646 49.7696 205.339 48.7291 206.099 47.3368C206.86 45.9444 207.355 44.9047 207.587 44.2176L209.07 44.1606L208.866 53.1611L181.826 54.2L181.765 52.6154C182.144 52.5737 182.656 52.4998 183.303 52.3936C183.95 52.2873 184.407 52.1748 184.674 52.0561C185.18 51.8196 185.515 51.5321 185.678 51.1935C185.841 50.8549 185.913 50.4283 185.893 49.9136L185.112 29.5779C185.093 29.0903 185.003 28.6902 184.842 28.3777C184.681 28.0651 184.311 27.7911 183.732 27.5556C183.374 27.4066 182.874 27.2767 182.232 27.1657C181.59 27.0547 181.106 26.9851 180.78 26.957L180.719 25.3724L206.276 24.3905L206.558 31.7447Z"/>
<path d="M253.385 35.6436C254.454 37.2486 255.171 39.0459 255.537 41.0355C255.903 43.0251 255.803 45.1645 255.236 47.4537C254.732 49.493 253.909 51.3489 252.769 53.0214C251.629 54.6939 250.25 56.035 248.631 57.0446C246.934 58.0905 245.076 58.7719 243.057 59.0888C241.037 59.4057 238.765 59.2515 236.239 58.6261C234.199 58.1213 232.355 57.3086 230.706 56.1882C229.056 55.0677 227.699 53.6984 226.633 52.0802C225.574 50.4916 224.865 48.7033 224.506 46.7154C224.146 44.7274 224.238 42.6349 224.782 40.4377C225.349 38.1485 226.254 36.17 227.498 34.5022C228.742 32.8343 230.212 31.5054 231.909 30.5153C233.587 29.5483 235.444 28.9433 237.479 28.7003C239.515 28.4574 241.586 28.5964 243.691 29.1176C245.783 29.6355 247.662 30.4637 249.328 31.6022C250.993 32.7407 252.346 34.0878 253.385 35.6436ZM243.354 54.4186C244.243 53.368 245.006 52.1187 245.643 50.6709C246.281 49.223 246.836 47.5453 247.308 45.6376C247.709 44.0193 247.984 42.4154 248.133 40.8256C248.282 39.2359 248.229 37.774 247.973 36.44C247.703 35.1027 247.191 33.9566 246.436 33.0018C245.681 32.0469 244.607 31.3968 243.212 31.0516C240.831 30.462 238.742 31.1423 236.947 33.0925C235.152 35.0427 233.744 38.0767 232.725 42.1947C232.292 43.9445 232.018 45.629 231.903 47.2482C231.788 48.8675 231.877 50.3276 232.17 51.6287C232.472 52.9462 232.996 54.0429 233.743 54.9189C234.489 55.7949 235.527 56.3974 236.856 56.7263C238.158 57.0488 239.358 56.9968 240.455 56.5702C241.552 56.1436 242.518 55.4264 243.354 54.4186Z"/>
<path d="M285.601 54.4624L284.186 53.7924C284.312 52.6075 284.197 51.2292 283.839 49.6575C283.481 48.0858 282.924 47.0533 282.167 46.5602C281.823 46.3372 281.353 46.0623 280.758 45.7355C280.163 45.4087 279.609 45.1234 279.094 44.8798L275.033 42.9567L270.187 53.191L272.777 54.418C273.512 54.766 274.188 54.985 274.806 55.0749C275.423 55.1648 276.041 55.094 276.661 54.8625C277.112 54.7013 277.651 54.3306 278.279 53.7503C278.906 53.17 279.372 52.6372 279.677 52.1517L281.073 52.8131L275.878 63.7824L274.482 63.121C274.694 62.5466 274.822 61.786 274.865 60.8393C274.909 59.8926 274.875 59.2355 274.764 58.868C274.594 58.3078 274.279 57.8023 273.818 57.3513C273.356 56.9004 272.74 56.4922 271.968 56.1268L269.377 54.8998L265.287 63.5356C265.079 63.9766 264.983 64.3924 265 64.7831C265.018 65.1738 265.213 65.5773 265.585 65.9937C265.803 66.2316 266.125 66.5082 266.553 66.8234C266.982 67.1386 267.417 67.4309 267.859 67.7004L267.18 69.1335L253.124 62.4767L253.803 61.0435C254.176 61.175 254.672 61.3463 255.292 61.5574C255.912 61.7684 256.361 61.8801 256.64 61.8923C257.162 61.9297 257.582 61.8358 257.898 61.6108C258.215 61.3858 258.486 61.0344 258.712 60.5567L267.423 42.1643C267.62 41.7478 267.716 41.3471 267.711 40.9623C267.706 40.5774 267.514 40.1677 267.135 39.7332C266.861 39.4238 266.472 39.0744 265.966 38.6851C265.461 38.2957 265.07 38.0131 264.793 37.8371L265.472 36.4039L288.899 47.4987L285.601 54.4624Z"/>
<path d="M320.125 81.2242L318.922 80.2218C319.389 79.0054 319.717 77.5586 319.907 75.8814C320.096 74.2042 319.924 73.0723 319.389 72.4856C319.091 72.1663 318.71 71.7871 318.247 71.3479C317.783 70.9088 317.375 70.5417 317.021 70.2467L316.287 69.6348L301.798 87.0158C301.486 87.3906 301.278 87.7776 301.175 88.1767C301.071 88.5758 301.148 89.0235 301.405 89.5199C301.566 89.8132 301.858 90.2197 302.281 90.7395C302.703 91.2593 303.074 91.6876 303.393 92.0243L302.378 93.2424L290.025 82.9455L291.041 81.7274C291.369 81.9479 291.83 82.2573 292.424 82.6556C293.018 83.054 293.449 83.294 293.716 83.3756C294.261 83.5474 294.718 83.5492 295.088 83.381C295.458 83.2127 295.803 82.936 296.124 82.5508L310.743 65.0136L310.009 64.4018C309.655 64.1067 309.22 63.7709 308.705 63.3942C308.19 63.0176 307.748 62.7112 307.38 62.4751C306.707 62.0551 305.562 62.0892 303.947 62.5775C302.331 63.0657 300.967 63.649 299.855 64.3274L298.652 63.325L303.937 56.9848L325.41 74.8839L320.125 81.2242Z"/>
<path d="M340.181 103.728L339.204 102.532C339.805 101.533 340.237 100.305 340.499 98.8479C340.762 97.3909 340.671 96.2307 340.229 95.3674C340.045 94.9925 339.731 94.5178 339.288 93.9434C338.845 93.369 338.474 92.8982 338.174 92.5308L335.524 89.2876L326.896 96.3364L328.774 98.6351C329.246 99.2123 329.743 99.6814 330.265 100.042C330.787 100.403 331.401 100.619 332.107 100.69C332.546 100.734 333.17 100.631 333.98 100.38C334.791 100.13 335.452 99.8566 335.963 99.5613L336.94 100.758L327.62 108.373L326.642 107.176C327.032 106.753 327.455 106.141 327.911 105.339C328.368 104.537 328.627 103.918 328.691 103.481C328.785 102.826 328.711 102.205 328.467 101.617C328.222 101.029 327.847 100.425 327.341 99.8056L325.463 97.507L319.024 102.768C318.352 103.317 317.861 103.802 317.548 104.223C317.236 104.644 317.087 105.077 317.1 105.522C317.115 105.947 317.277 106.414 317.587 106.922C317.897 107.43 318.374 108.077 319.017 108.864C319.317 109.232 319.683 109.668 320.113 110.174C320.544 110.68 320.944 111.105 321.314 111.451C321.727 111.849 322.142 112.196 322.56 112.494C322.978 112.791 323.364 112.953 323.717 112.979C324.643 113.062 325.891 112.988 327.46 112.756C329.03 112.524 330.158 112.293 330.846 112.064L331.785 113.213L324.479 118.474L307.358 97.5185L308.586 96.5152C308.847 96.792 309.215 97.1565 309.69 97.6089C310.164 98.0612 310.529 98.3581 310.785 98.4994C311.279 98.761 311.71 98.855 312.079 98.7814C312.447 98.7077 312.831 98.508 313.23 98.1821L328.99 85.3063C329.367 84.9976 329.632 84.6848 329.785 84.3678C329.937 84.0508 329.933 83.5905 329.772 82.9867C329.675 82.6109 329.478 82.1335 329.18 81.5544C328.881 80.9753 328.645 80.547 328.471 80.2694L329.699 79.2661L345.881 99.0719L340.181 103.728Z"/>
<path d="M331.972 133.734C330.975 131.87 330.343 129.964 330.077 128.015C329.811 126.067 329.929 124.183 330.431 122.362C330.921 120.578 331.812 118.902 333.102 117.336C334.393 115.769 336.031 114.455 338.014 113.394C339.986 112.339 341.996 111.706 344.042 111.495C346.089 111.284 348.06 111.47 349.956 112.055C351.815 112.628 353.534 113.592 355.111 114.946C356.689 116.3 357.999 117.951 359.041 119.899C359.795 121.309 360.312 122.685 360.592 124.027C360.871 125.368 361.01 126.554 361.008 127.585L362.589 128.169L363.423 129.729L354.224 134.858L353.38 133.28C355.733 130.868 357.237 128.68 357.892 126.716C358.547 124.751 358.392 122.867 357.427 121.062C356.225 118.816 354.321 117.636 351.717 117.522C349.113 117.409 346.024 118.309 342.45 120.22C340.431 121.301 338.814 122.423 337.6 123.588C336.386 124.752 335.515 125.89 334.988 127.002C334.451 128.181 334.222 129.356 334.303 130.527C334.384 131.698 334.731 132.858 335.345 134.005C336.24 135.678 337.492 136.926 339.1 137.749C340.709 138.572 342.721 139.028 345.136 139.119L345.029 141.16C343.702 141.208 342.448 141.126 341.266 140.913C340.084 140.7 338.964 140.324 337.906 139.783C336.743 139.19 335.672 138.422 334.691 137.479C333.709 136.536 332.803 135.288 331.972 133.734Z"/>
<path d="M348.773 179.216L344.587 164.195L346.114 163.769C346.231 164.088 346.403 164.554 346.63 165.166C346.857 165.778 347.056 166.187 347.226 166.393C347.556 166.822 347.907 167.083 348.277 167.177C348.648 167.27 349.082 167.248 349.578 167.11L359.155 164.441L355.847 152.573L346.486 155.182C346.042 155.305 345.67 155.511 345.37 155.798C345.071 156.086 344.887 156.486 344.818 156.997C344.783 157.274 344.79 157.73 344.84 158.363C344.89 158.996 344.954 159.506 345.034 159.892L343.506 160.317L339.32 145.296L340.848 144.871C340.952 145.193 341.128 145.661 341.376 146.275C341.624 146.888 341.841 147.323 342.025 147.582C342.326 148.004 342.675 148.259 343.072 148.345C343.469 148.432 343.902 148.409 344.372 148.278L364.035 142.799C364.492 142.671 364.854 142.482 365.122 142.232C365.39 141.981 365.57 141.569 365.663 140.994C365.728 140.568 365.743 140.029 365.709 139.377C365.675 138.726 365.633 138.259 365.582 137.978L367.11 137.552L371.296 152.573L369.769 152.999C369.63 152.601 369.43 152.136 369.169 151.604C368.908 151.072 368.69 150.668 368.515 150.393C368.203 149.931 367.839 149.671 367.421 149.611C367.003 149.552 366.586 149.58 366.168 149.697L357.864 152.011L361.172 163.879L369.28 161.619C369.736 161.492 370.098 161.3 370.364 161.042C370.63 160.785 370.81 160.37 370.903 159.795C370.965 159.412 370.985 158.917 370.964 158.311C370.943 157.705 370.905 157.227 370.849 156.876L372.377 156.451L376.563 171.472L375.035 171.897C374.893 171.487 374.706 171.032 374.476 170.534C374.245 170.035 374.007 169.595 373.76 169.214C373.452 168.765 373.091 168.506 372.678 168.439C372.266 168.371 371.844 168.397 371.413 168.517L351.731 174.002C351.261 174.133 350.886 174.329 350.607 174.589C350.328 174.85 350.147 175.259 350.063 175.817C350.02 176.167 350.029 176.654 350.09 177.277C350.151 177.9 350.221 178.405 350.3 178.79L348.773 179.216Z"/>
<path d="M377.282 212.833C377.228 212.455 377.134 211.916 377 211.215C376.866 210.515 376.578 209.888 376.138 209.334C375.754 208.847 375.114 208.514 374.219 208.336C373.324 208.159 372.017 208.101 370.297 208.164L349.695 208.916L349.563 205.3L371.196 186.526L357.664 187.02C355.985 187.081 354.712 187.24 353.847 187.495C352.981 187.75 352.355 188.136 351.967 188.652C351.682 189.029 351.439 189.621 351.238 190.428C351.037 191.236 350.905 191.878 350.841 192.355L349.256 192.413L348.803 180.02L350.388 179.962C350.448 180.489 350.568 181.091 350.749 181.769C350.93 182.448 351.191 183.011 351.533 183.46C351.945 183.974 352.551 184.315 353.35 184.482C354.15 184.649 355.484 184.699 357.353 184.631L371.006 184.132C371.684 184.108 372.32 183.979 372.915 183.747C373.51 183.516 374.016 183.168 374.433 182.705C374.876 182.215 375.219 181.656 375.46 181.03C375.702 180.404 375.883 179.696 376.003 178.905L377.629 178.845L378.025 189.695L359.096 206.173L370.006 205.774C371.74 205.711 373.026 205.549 373.864 205.288C374.702 205.026 375.315 204.638 375.703 204.122C376 203.718 376.247 203.126 376.442 202.345C376.637 201.565 376.767 200.937 376.831 200.46L378.416 200.402L378.867 212.775L377.282 212.833Z"/>
<path d="M370.029 245.38C368.484 246.534 366.729 247.348 364.762 247.821C362.795 248.295 360.653 248.31 358.337 247.868C356.273 247.475 354.375 246.754 352.644 245.706C350.912 244.658 349.498 243.354 348.402 241.793C347.266 240.155 346.485 238.336 346.059 236.337C345.633 234.338 345.664 232.06 346.151 229.504C346.545 227.44 347.256 225.555 348.286 223.847C349.315 222.139 350.609 220.71 352.167 219.558C353.696 218.415 355.443 217.61 357.409 217.143C359.374 216.676 361.469 216.655 363.692 217.079C366.009 217.521 368.033 218.317 369.766 219.469C371.499 220.62 372.906 222.017 373.986 223.658C375.043 225.28 375.747 227.102 376.1 229.121C376.453 231.141 376.427 233.216 376.02 235.346C375.617 237.463 374.891 239.384 373.845 241.109C372.798 242.834 371.526 244.258 370.029 245.38ZM350.738 236.381C351.835 237.211 353.124 237.906 354.604 238.464C356.085 239.022 357.79 239.485 359.721 239.854C361.358 240.166 362.975 240.354 364.57 240.416C366.166 240.479 367.622 240.347 368.941 240.019C370.261 239.677 371.378 239.104 372.291 238.298C373.203 237.493 373.794 236.384 374.063 234.973C374.523 232.563 373.73 230.515 371.686 228.828C369.641 227.141 366.535 225.9 362.368 225.105C360.598 224.767 358.901 224.585 357.278 224.558C355.655 224.532 354.201 224.699 352.918 225.062C351.619 225.435 350.552 226.018 349.718 226.811C348.884 227.604 348.338 228.672 348.082 230.017C347.83 231.335 347.947 232.53 348.433 233.603C348.918 234.675 349.687 235.601 350.738 236.381Z"/>
<path d="M341.447 275.199L333.113 271.145L343.246 246.581L344.712 247.186C344.569 247.64 344.417 248.178 344.255 248.801C344.094 249.423 344.012 249.844 344.009 250.063C343.999 250.586 344.114 251 344.355 251.305C344.595 251.609 344.96 251.862 345.449 252.064L364.262 259.825C364.713 260.011 365.114 260.096 365.465 260.08C365.816 260.063 366.22 259.841 366.675 259.413C367.01 259.097 367.344 258.689 367.675 258.187C368.007 257.686 368.265 257.283 368.449 256.978L369.915 257.583L363.875 272.223L362.409 271.619C362.537 271.202 362.679 270.707 362.835 270.134C362.991 269.56 363.089 269.047 363.129 268.595C363.168 268.039 363.048 267.608 362.771 267.303C362.494 266.998 362.136 266.755 361.697 266.574L344.162 259.341C343.335 259 342.661 258.787 342.138 258.703C341.615 258.62 341.174 258.694 340.814 258.927C340.442 259.155 340.101 259.545 339.792 260.1C339.482 260.654 339.116 261.445 338.692 262.472C338.278 263.474 337.936 264.473 337.665 265.468C337.394 266.463 337.373 267.25 337.604 267.829C337.979 268.732 338.608 269.757 339.49 270.906C340.373 272.054 341.214 273.028 342.013 273.827L341.447 275.199Z"/>
<path d="M339.209 308.519C337.335 308.973 335.4 309.03 333.406 308.692C331.411 308.354 329.436 307.526 327.48 306.208C325.738 305.034 324.276 303.625 323.096 301.981C321.916 300.336 321.13 298.581 320.736 296.714C320.336 294.761 320.333 292.782 320.728 290.777C321.123 288.771 322.047 286.689 323.501 284.531C324.675 282.788 326.071 281.335 327.689 280.169C329.307 279.004 331.059 278.199 332.944 277.753C334.8 277.303 336.723 277.25 338.713 277.594C340.704 277.938 342.638 278.743 344.515 280.007C346.471 281.325 348.019 282.854 349.16 284.594C350.3 286.334 351.044 288.171 351.392 290.105C351.725 292.013 351.656 293.964 351.186 295.96C350.716 297.956 349.875 299.853 348.664 301.651C347.46 303.439 346.038 304.92 344.397 306.094C342.756 307.269 341.027 308.077 339.209 308.519ZM325.013 292.658C325.695 293.853 326.607 294.998 327.748 296.093C328.89 297.189 330.275 298.286 331.905 299.384C333.288 300.315 334.7 301.123 336.142 301.809C337.585 302.494 338.976 302.945 340.317 303.162C341.666 303.368 342.918 303.28 344.074 302.898C345.23 302.517 346.209 301.73 347.011 300.538C348.382 298.504 348.459 296.309 347.243 293.953C346.027 291.598 343.659 289.236 340.141 286.866C338.646 285.859 337.157 285.023 335.676 284.36C334.194 283.697 332.792 283.28 331.47 283.108C330.128 282.94 328.918 283.057 327.839 283.458C326.761 283.858 325.839 284.627 325.074 285.762C324.324 286.875 323.962 288.02 323.986 289.196C324.011 290.373 324.353 291.527 325.013 292.658Z"/>
<path d="M299 329.872C299.277 329.554 299.516 329.263 299.715 329C299.914 328.738 300.135 328.379 300.378 327.926C300.66 327.416 300.726 326.953 300.575 326.537C300.423 326.12 300.194 325.749 299.887 325.424L297.582 322.987C297.117 322.494 296.737 322.103 296.443 321.812C296.149 321.521 295.783 321.163 295.344 320.738C295.77 319.216 296.699 317.284 298.131 314.941C299.563 312.599 301.086 310.664 302.702 309.137C304.218 307.703 305.86 306.589 307.627 305.795C309.394 305.001 311.218 304.591 313.098 304.567C314.968 304.533 316.834 304.924 318.695 305.738C320.557 306.552 322.316 307.836 323.973 309.589C325.519 311.224 326.678 312.992 327.449 314.892C328.22 316.793 328.569 318.73 328.494 320.703C328.43 322.647 327.933 324.573 327.002 326.478C326.072 328.384 324.73 330.166 322.977 331.824C321.785 332.95 320.545 333.848 319.256 334.516C317.967 335.185 316.834 335.664 315.857 335.953L315.71 337.631L314.424 338.847L307.056 331.32L308.356 330.091C311.274 331.678 313.782 332.534 315.878 332.66C317.974 332.786 319.82 332.095 321.415 330.586C323.306 328.798 323.984 326.591 323.449 323.963C322.913 321.335 321.272 318.569 318.525 315.664C315.611 312.581 312.825 310.645 310.167 309.857C307.509 309.068 305.255 309.549 303.403 311.3C302.537 312.119 301.889 312.978 301.461 313.877C301.034 314.776 300.795 315.575 300.747 316.273L304.77 320.528C305.105 320.882 305.451 321.119 305.807 321.24C306.163 321.36 306.617 321.327 307.169 321.141C307.595 321 308.071 320.764 308.598 320.433C309.125 320.103 309.555 319.818 309.887 319.578L310.977 320.73L300.09 331.024L299 329.872Z"/>
<path d="M278.804 360.428C279.192 360.127 279.528 359.818 279.811 359.502C280.094 359.186 280.335 358.839 280.533 358.463C280.861 357.882 281.085 357.255 281.207 356.585C281.329 355.914 281.412 355.2 281.456 354.442C281.535 352.884 281.593 351.207 281.63 349.412C281.667 347.617 281.697 345.648 281.719 343.505C281.753 342.133 281.682 341.14 281.504 340.526C281.327 339.911 280.841 338.957 280.049 337.662L277.915 334.177C277.66 333.761 277.359 333.445 277.012 333.228C276.664 333.012 276.211 332.94 275.652 333.012C275.406 333.052 274.924 333.2 274.207 333.456C273.49 333.712 272.974 333.921 272.659 334.082L271.831 332.73L285.545 324.331L286.373 325.684C286.064 325.905 285.627 326.236 285.063 326.677C284.498 327.118 284.123 327.459 283.937 327.7C283.622 328.147 283.481 328.571 283.513 328.973C283.544 329.375 283.694 329.795 283.963 330.235L286.618 334.569C286.851 334.951 287.062 335.282 287.251 335.564C287.439 335.846 287.628 336.064 287.818 336.218C288.033 336.388 288.344 336.583 288.749 336.804C289.154 337.025 289.679 337.311 290.324 337.663C292.17 338.679 293.937 339.631 295.626 340.52C297.314 341.409 298.909 342.236 300.411 343.001C301.193 343.396 301.902 343.665 302.538 343.808C303.174 343.951 303.774 344.016 304.339 344.004C304.757 343.987 305.217 343.888 305.719 343.708C306.221 343.528 306.658 343.339 307.03 343.143L307.858 344.495L293.763 353.127L292.935 351.775C294.208 350.948 295.026 350.324 295.388 349.903C295.75 349.483 295.854 349.145 295.698 348.891C295.62 348.764 295.381 348.561 294.979 348.282C294.578 348.003 293.92 347.596 293.003 347.06C292.15 346.55 290.942 345.867 289.378 345.013C287.814 344.159 285.959 343.174 283.812 342.056C283.747 346.88 283.727 350.234 283.752 352.118C283.777 354.002 283.885 355.1 284.076 355.412C284.317 355.805 284.741 355.958 285.348 355.873C285.955 355.787 286.814 355.444 287.924 354.843L288.752 356.196L279.632 361.78L278.804 360.428Z"/>
</g>
<path d="M72.9088 200.573C72.9088 129.908 130.194 72.6231 200.858 72.6231C271.523 72.6231 328.808 129.908 328.808 200.573C328.808 271.237 271.523 328.522 200.858 328.522C130.194 328.522 72.9088 271.237 72.9088 200.573Z" fill="#ffffff" fill-opacity="0" fill-rule="nonzero" opacity="1" stroke="#0008c7" stroke-linecap="butt" stroke-linejoin="round" stroke-width="5"/>
<g fill="#ffffff" opacity="1" stroke="#000000" stroke-linecap="butt" stroke-linejoin="round" stroke-opacity="0.00434783" stroke-width="1">
<path d="M150.013 352.896C150.013 353.482 149.847 353.909 149.515 354.176C149.183 354.443 148.763 354.576 148.255 354.576C147.929 354.576 147.256 354.433 146.233 354.146C145.211 353.86 144.127 353.645 142.981 353.502C143.737 354.491 144.57 355.422 145.481 356.295C146.393 357.167 146.849 357.909 146.849 358.521C146.849 358.951 146.66 359.325 146.282 359.644C145.905 359.963 145.507 360.123 145.091 360.123C144.804 360.123 144.537 360.041 144.29 359.879C144.043 359.716 143.828 359.485 143.646 359.185C143.489 358.899 143.278 358.248 143.011 357.232C142.744 356.217 142.389 355.175 141.946 354.107C141.517 355.123 141.159 356.168 140.872 357.242C140.586 358.316 140.377 358.964 140.247 359.185C140.039 359.511 139.827 359.749 139.612 359.898C139.397 360.048 139.127 360.123 138.802 360.123C138.372 360.123 137.972 359.97 137.601 359.664C137.229 359.358 137.044 358.977 137.044 358.521C137.044 357.909 137.5 357.167 138.411 356.295C139.323 355.422 140.156 354.491 140.911 353.502C139.817 353.632 138.743 353.844 137.688 354.137C136.634 354.429 135.95 354.576 135.638 354.576C135.13 354.576 134.71 354.443 134.378 354.176C134.046 353.909 133.88 353.482 133.88 352.896C133.88 352.362 134.046 351.949 134.378 351.656C134.71 351.363 135.13 351.217 135.638 351.217C136.041 351.217 136.689 351.35 137.581 351.617C138.473 351.884 139.583 352.096 140.911 352.252C140.052 351.158 139.192 350.198 138.333 349.371C137.474 348.544 137.044 347.831 137.044 347.232C137.044 346.803 137.233 346.428 137.61 346.109C137.988 345.79 138.385 345.631 138.802 345.631C139.101 345.631 139.371 345.709 139.612 345.865C139.853 346.021 140.065 346.249 140.247 346.549C140.403 346.835 140.618 347.493 140.892 348.521C141.165 349.55 141.517 350.592 141.946 351.646C142.376 350.579 142.731 349.53 143.011 348.502C143.291 347.473 143.502 346.822 143.646 346.549C143.802 346.275 144.007 346.054 144.261 345.885C144.515 345.715 144.791 345.631 145.091 345.631C145.521 345.631 145.921 345.784 146.292 346.09C146.663 346.396 146.849 346.776 146.849 347.232C146.849 347.831 146.442 348.531 145.628 349.332C144.814 350.133 143.938 351.106 143.001 352.252C144.303 352.082 145.42 351.868 146.351 351.607C147.282 351.347 147.916 351.217 148.255 351.217C148.763 351.217 149.183 351.363 149.515 351.656C149.847 351.949 150.013 352.362 150.013 352.896Z"/>
<path d="M184.505 347.857C183.984 347.922 183.541 347.987 183.177 348.053C182.812 348.118 182.402 348.209 181.946 348.326C181.412 348.469 181.071 348.723 180.921 349.088C180.771 349.452 180.696 349.869 180.696 350.338L180.696 365.611C180.696 367.017 180.413 368.306 179.847 369.478C179.28 370.65 178.502 371.633 177.513 372.428C176.51 373.209 175.39 373.798 174.153 374.195C172.916 374.592 171.595 374.791 170.188 374.791C167.754 374.791 165.791 374.205 164.3 373.033C162.809 371.861 162.063 370.253 162.063 368.209C162.063 366.998 162.405 365.995 163.089 365.201C163.772 364.407 164.713 364.01 165.911 364.01C167.044 364.01 167.946 364.342 168.616 365.006C169.287 365.67 169.622 366.49 169.622 367.467C169.622 368.3 169.332 369.071 168.753 369.781C168.174 370.491 167.513 371.145 166.771 371.744L166.771 371.998C166.888 372.258 167.142 372.48 167.532 372.662C167.923 372.844 168.32 372.935 168.724 372.935C170.286 372.935 171.513 372.375 172.405 371.256C173.297 370.136 173.743 368.443 173.743 366.178L173.743 350.533C173.743 350.064 173.672 349.674 173.528 349.361C173.385 349.049 173.04 348.775 172.493 348.541C172.103 348.372 171.631 348.228 171.077 348.111C170.524 347.994 170.065 347.909 169.7 347.857L169.7 346.334L184.505 346.334L184.505 347.857Z"/>
<path d="M212.962 365.162L212.415 374.049L186.888 374.049L186.888 372.525C187.343 372.486 187.877 372.424 188.489 372.34C189.101 372.255 189.505 372.174 189.7 372.096C190.169 371.913 190.494 371.659 190.677 371.334C190.859 371.008 190.95 370.592 190.95 370.084L190.95 350.533C190.95 350.064 190.879 349.677 190.735 349.371C190.592 349.065 190.247 348.788 189.7 348.541C189.297 348.359 188.812 348.212 188.245 348.101C187.679 347.991 187.226 347.909 186.888 347.857L186.888 346.334L202.103 346.334L202.103 347.857C201.686 347.896 201.194 347.952 200.628 348.023C200.062 348.095 199.57 348.196 199.153 348.326C198.646 348.495 198.307 348.759 198.138 349.117C197.968 349.475 197.884 349.882 197.884 350.338L197.884 368.56C197.884 369.42 197.942 370.097 198.06 370.592C198.177 371.086 198.405 371.451 198.743 371.685C199.082 371.933 199.554 372.092 200.159 372.164C200.765 372.235 201.601 372.271 202.669 372.271C203.711 372.271 204.723 372.209 205.706 372.086C206.689 371.962 207.396 371.692 207.825 371.275C208.489 370.611 209.17 369.677 209.866 368.472C210.563 367.268 211.119 366.165 211.536 365.162L212.962 365.162Z"/>
<path d="M228.841 374.791C226.81 374.791 224.909 374.462 223.138 373.804C221.367 373.147 219.824 372.193 218.509 370.943C217.22 369.719 216.204 368.206 215.462 366.402C214.72 364.599 214.349 362.616 214.349 360.455C214.349 358.306 214.723 356.318 215.472 354.488C216.22 352.659 217.272 351.073 218.626 349.732C219.954 348.417 221.549 347.398 223.411 346.676C225.273 345.953 227.265 345.592 229.388 345.592C230.924 345.592 232.324 345.777 233.587 346.148C234.85 346.519 235.918 346.939 236.79 347.408L238.001 346.334L239.7 346.334L239.876 356.451L238.157 356.451C237.181 353.365 236.009 351.099 234.642 349.654C233.274 348.209 231.608 347.486 229.642 347.486C227.194 347.486 225.332 348.564 224.056 350.719C222.78 352.874 222.142 355.898 222.142 359.791C222.142 361.991 222.36 363.87 222.796 365.426C223.232 366.982 223.802 368.235 224.505 369.185C225.26 370.175 226.152 370.901 227.181 371.363C228.209 371.825 229.349 372.056 230.599 372.056C232.422 372.056 234.046 371.562 235.472 370.572C236.897 369.582 238.196 368.085 239.368 366.08L241.048 367.096C240.488 368.241 239.85 369.267 239.134 370.172C238.418 371.077 237.591 371.855 236.653 372.506C235.625 373.222 234.489 373.782 233.245 374.185C232.002 374.589 230.534 374.791 228.841 374.791Z"/>
<path d="M269.446 352.896C269.446 353.482 269.28 353.909 268.948 354.176C268.616 354.443 268.196 354.576 267.688 354.576C267.363 354.576 266.689 354.433 265.667 354.146C264.645 353.86 263.561 353.645 262.415 353.502C263.17 354.491 264.004 355.422 264.915 356.295C265.826 357.167 266.282 357.909 266.282 358.521C266.282 358.951 266.093 359.325 265.716 359.644C265.338 359.963 264.941 360.123 264.524 360.123C264.238 360.123 263.971 360.041 263.724 359.879C263.476 359.716 263.261 359.485 263.079 359.185C262.923 358.899 262.711 358.248 262.444 357.232C262.177 356.217 261.823 355.175 261.38 354.107C260.95 355.123 260.592 356.168 260.306 357.242C260.019 358.316 259.811 358.964 259.681 359.185C259.472 359.511 259.261 359.749 259.046 359.898C258.831 360.048 258.561 360.123 258.235 360.123C257.806 360.123 257.405 359.97 257.034 359.664C256.663 359.358 256.478 358.977 256.478 358.521C256.478 357.909 256.933 357.167 257.845 356.295C258.756 355.422 259.59 354.491 260.345 353.502C259.251 353.632 258.177 353.844 257.122 354.137C256.067 354.429 255.384 354.576 255.071 354.576C254.563 354.576 254.144 354.443 253.812 354.176C253.479 353.909 253.313 353.482 253.313 352.896C253.313 352.362 253.479 351.949 253.812 351.656C254.144 351.363 254.563 351.217 255.071 351.217C255.475 351.217 256.123 351.35 257.015 351.617C257.907 351.884 259.017 352.096 260.345 352.252C259.485 351.158 258.626 350.198 257.767 349.371C256.907 348.544 256.478 347.831 256.478 347.232C256.478 346.803 256.666 346.428 257.044 346.109C257.422 345.79 257.819 345.631 258.235 345.631C258.535 345.631 258.805 345.709 259.046 345.865C259.287 346.021 259.498 346.249 259.681 346.549C259.837 346.835 260.052 347.493 260.325 348.521C260.599 349.55 260.95 350.592 261.38 351.646C261.81 350.579 262.164 349.53 262.444 348.502C262.724 347.473 262.936 346.822 263.079 346.549C263.235 346.275 263.44 346.054 263.694 345.885C263.948 345.715 264.225 345.631 264.524 345.631C264.954 345.631 265.354 345.784 265.726 346.09C266.097 346.396 266.282 346.776 266.282 347.232C266.282 347.831 265.875 348.531 265.062 349.332C264.248 350.133 263.372 351.106 262.435 352.252C263.737 352.082 264.853 351.868 265.784 351.607C266.715 351.347 267.35 351.217 267.688 351.217C268.196 351.217 268.616 351.363 268.948 351.656C269.28 351.949 269.446 352.362 269.446 352.896Z"/>
</g>
</g>
<g id="レイヤー-4" vectornator:layerName="レイヤー 4">
<g fill="#0008c7" filter="url(#Filter)" stroke="none" vectornator:shadowAngle="0.79834" vectornator:shadowColor="#757575" vectornator:shadowOffset="3" vectornator:shadowOpacity="1" vectornator:shadowRadius="0.872093">
<path d="M147.37 152.648C146.537 152.752 145.829 152.857 145.245 152.961C144.662 153.065 144.006 153.211 143.276 153.398C142.422 153.627 141.875 154.034 141.636 154.617C141.396 155.2 141.276 155.867 141.276 156.617L141.276 181.054C141.276 183.304 140.823 185.367 139.917 187.242C139.011 189.117 137.766 190.69 136.183 191.961C134.579 193.211 132.787 194.153 130.808 194.789C128.829 195.424 126.714 195.742 124.464 195.742C120.568 195.742 117.427 194.804 115.042 192.929C112.657 191.054 111.464 188.482 111.464 185.211C111.464 183.273 112.011 181.669 113.105 180.398C114.198 179.127 115.704 178.492 117.62 178.492C119.433 178.492 120.875 179.023 121.948 180.086C123.021 181.148 123.558 182.461 123.558 184.023C123.558 185.357 123.094 186.591 122.167 187.726C121.24 188.862 120.183 189.909 118.995 190.867L118.995 191.273C119.183 191.69 119.589 192.044 120.214 192.336C120.839 192.627 121.474 192.773 122.12 192.773C124.62 192.773 126.584 191.877 128.011 190.086C129.438 188.294 130.151 185.586 130.151 181.961L130.151 156.929C130.151 156.179 130.037 155.554 129.808 155.054C129.579 154.554 129.026 154.117 128.151 153.742C127.526 153.471 126.771 153.242 125.886 153.054C125 152.867 124.266 152.732 123.683 152.648L123.683 150.211L147.37 150.211L147.37 152.648Z"/>
<path d="M173.433 195.742C170.183 195.742 167.141 195.216 164.308 194.164C161.474 193.112 159.006 191.586 156.901 189.586C154.839 187.627 153.214 185.205 152.026 182.32C150.839 179.435 150.245 176.263 150.245 172.804C150.245 169.367 150.844 166.185 152.042 163.258C153.24 160.33 154.922 157.794 157.089 155.648C159.214 153.544 161.766 151.914 164.745 150.758C167.724 149.601 170.912 149.023 174.308 149.023C176.766 149.023 179.006 149.32 181.026 149.914C183.047 150.508 184.756 151.179 186.151 151.929L188.089 150.211L190.808 150.211L191.089 166.398L188.339 166.398C186.776 161.461 184.901 157.836 182.714 155.523C180.526 153.211 177.86 152.054 174.714 152.054C170.797 152.054 167.818 153.778 165.776 157.226C163.735 160.674 162.714 165.513 162.714 171.742C162.714 175.263 163.063 178.268 163.761 180.758C164.459 183.247 165.37 185.252 166.495 186.773C167.704 188.357 169.131 189.518 170.776 190.258C172.422 190.997 174.245 191.367 176.245 191.367C179.162 191.367 181.761 190.575 184.042 188.992C186.323 187.409 188.401 185.013 190.276 181.804L192.964 183.429C192.068 185.263 191.047 186.903 189.901 188.351C188.756 189.799 187.433 191.044 185.933 192.086C184.287 193.232 182.469 194.127 180.48 194.773C178.49 195.419 176.141 195.742 173.433 195.742Z"/>
<path d="M235.933 155.148C238.12 157.148 239.855 159.565 241.136 162.398C242.417 165.232 243.058 168.461 243.058 172.086C243.058 175.315 242.516 178.388 241.433 181.304C240.349 184.221 238.787 186.732 236.745 188.836C234.599 191.023 232.079 192.726 229.183 193.945C226.287 195.164 222.839 195.773 218.839 195.773C215.61 195.773 212.558 195.242 209.683 194.179C206.808 193.117 204.276 191.575 202.089 189.554C199.922 187.575 198.204 185.169 196.933 182.336C195.662 179.502 195.026 176.346 195.026 172.867C195.026 169.242 195.646 165.955 196.886 163.008C198.125 160.06 199.829 157.534 201.995 155.429C204.141 153.367 206.688 151.778 209.636 150.664C212.584 149.549 215.724 148.992 219.058 148.992C222.37 148.992 225.48 149.534 228.386 150.617C231.292 151.7 233.808 153.211 235.933 155.148ZM227.901 186.867C228.839 184.971 229.516 182.825 229.933 180.429C230.349 178.034 230.558 175.325 230.558 172.304C230.558 169.742 230.375 167.247 230.011 164.82C229.646 162.393 229.026 160.232 228.151 158.336C227.256 156.44 226.068 154.919 224.589 153.773C223.11 152.627 221.266 152.054 219.058 152.054C215.287 152.054 212.422 153.841 210.464 157.414C208.506 160.987 207.526 166.034 207.526 172.554C207.526 175.325 207.74 177.94 208.167 180.398C208.594 182.857 209.266 185.002 210.183 186.836C211.12 188.69 212.308 190.133 213.745 191.164C215.183 192.195 216.954 192.711 219.058 192.711C221.12 192.711 222.891 192.19 224.37 191.148C225.849 190.107 227.026 188.679 227.901 186.867Z"/>
<path d="M265.026 195.742C262.318 195.742 259.792 195.409 257.448 194.742C255.105 194.075 253.12 193.284 251.495 192.367L249.339 194.554L246.683 194.554L246.276 178.523L248.964 178.523C249.568 180.044 250.339 181.648 251.276 183.336C252.214 185.023 253.297 186.534 254.526 187.867C255.797 189.263 257.219 190.398 258.792 191.273C260.365 192.148 262.204 192.586 264.308 192.586C267.141 192.586 269.313 191.893 270.823 190.508C272.334 189.122 273.089 187.377 273.089 185.273C273.089 183.544 272.448 182.091 271.167 180.914C269.886 179.737 267.901 178.721 265.214 177.867C263.464 177.304 261.855 176.784 260.386 176.304C258.917 175.825 257.537 175.336 256.245 174.836C253.266 173.648 251.052 171.95 249.605 169.742C248.157 167.534 247.433 165.065 247.433 162.336C247.433 160.607 247.808 158.945 248.558 157.351C249.308 155.758 250.401 154.325 251.839 153.054C253.214 151.867 254.974 150.898 257.12 150.148C259.266 149.398 261.599 149.023 264.12 149.023C266.579 149.023 268.881 149.362 271.026 150.039C273.172 150.716 274.86 151.398 276.089 152.086L277.995 150.211L280.714 150.211L280.964 165.336L278.276 165.336C277.651 163.711 276.917 162.049 276.073 160.351C275.23 158.653 274.339 157.242 273.401 156.117C272.381 154.909 271.204 153.945 269.87 153.226C268.537 152.508 266.974 152.148 265.183 152.148C262.933 152.148 261.094 152.784 259.667 154.054C258.24 155.325 257.526 156.898 257.526 158.773C257.526 160.544 258.146 161.992 259.386 163.117C260.625 164.242 262.558 165.232 265.183 166.086C266.724 166.607 268.297 167.127 269.901 167.648C271.506 168.169 272.933 168.669 274.183 169.148C277.204 170.315 279.5 171.924 281.073 173.976C282.646 176.028 283.433 178.575 283.433 181.617C283.433 183.534 282.985 185.388 282.089 187.179C281.193 188.971 279.985 190.461 278.464 191.648C276.797 192.961 274.87 193.971 272.683 194.679C270.495 195.388 267.943 195.742 265.026 195.742Z"/>
</g>
<path d="M110.658 236.786C119.647 236.661 126.85 252.299 131.634 261.832C136.418 271.365 142.172 286.912 153.135 286.691C164.099 286.471 167.409 275.421 175.799 261.557C184.189 247.694 185.719 235.675 197.491 235.518C209.262 235.362 211.579 247.103 220.361 262.211C229.142 277.319 229.714 286.232 241.555 287.183C253.397 288.135 259.315 269.663 262.93 262.411C266.546 255.16 274.796 236.043 286.57 235.823" fill="#0036ff" fill-opacity="0" fill-rule="nonzero" filter="url(#Filter_2)" stroke="#0008c7" stroke-linecap="round" stroke-linejoin="round" stroke-width="7" vectornator:shadowAngle="0.79834" vectornator:shadowColor="#000000" vectornator:shadowOffset="0" vectornator:shadowOpacity="1" vectornator:shadowRadius="0"/>
<g filter="url(#Filter_3)" vectornator:shadowAngle="0.79834" vectornator:shadowColor="#000000" vectornator:shadowOffset="0" vectornator:shadowOpacity="1" vectornator:shadowRadius="0">
<path d="M296.749 261.317L107.806 261.524" fill="#0036ff" fill-opacity="0" fill-rule="nonzero" stroke="none"/>
<path d="M286.235 261.328C269.702 261.346 107.806 261.524 107.806 261.524" fill="none" stroke="#000000" stroke-linecap="round" stroke-linejoin="round" stroke-width="3"/>
<g fill="#000000" stroke="none">
<path d="M283.61 261.331L275.746 271.84L296.735 261.317L275.723 250.84L283.61 261.331Z" fill="#000000"/>
</g>
</g>
<g filter="url(#Filter_4)" vectornator:shadowAngle="0.79834" vectornator:shadowColor="#000000" vectornator:shadowOffset="0" vectornator:shadowOpacity="1" vectornator:shadowRadius="0">
<path d="M197 313.007L197.557 201.776" fill="#0036ff" fill-opacity="0" fill-rule="nonzero" stroke="none"/>
<path d="M197.504 212.287C197.451 222.894 197 313.007 197 313.007" fill="none" stroke="#000000" stroke-linecap="round" stroke-linejoin="round" stroke-width="3"/>
<g fill="#000000" stroke="none">
<path d="M197.491 214.912L207.951 222.839L197.557 201.787L186.952 222.734L197.491 214.912Z" fill="#000000"/>
</g>
</g>
</g>
<g id="レイヤー-5" vectornator:layerName="レイヤー 5">
<g fill="#0008c7" filter="url(#Filter_5)" stroke="none" vectornator:shadowAngle="0.79834" vectornator:shadowColor="#5f5f61" vectornator:shadowOffset="1.5" vectornator:shadowOpacity="1" vectornator:shadowRadius="1">
<path d="M80.9903 204.969C81.0513 205.269 81.1088 205.524 81.1628 205.733C81.2168 205.942 81.288 206.177 81.3764 206.436C81.4834 206.74 81.6462 206.928 81.8648 206.999C82.0835 207.07 82.3291 207.095 82.6016 207.074L91.4829 206.396C92.3007 206.334 93.0628 206.442 93.7693 206.719C94.4759 206.996 95.0821 207.405 95.5878 207.945C96.0866 208.494 96.4789 209.119 96.7647 209.82C97.0505 210.522 97.2246 211.282 97.2869 212.099C97.395 213.515 97.1413 214.683 96.526 215.601C95.9107 216.52 95.0087 217.025 93.82 217.116C93.1159 217.17 92.5177 217.015 92.0255 216.653C91.5334 216.291 91.2607 215.761 91.2075 215.065C91.1573 214.406 91.3104 213.867 91.6668 213.448C92.0232 213.028 92.4853 212.797 93.0531 212.754C93.5377 212.717 93.9992 212.851 94.4375 213.156C94.8759 213.462 95.2856 213.817 95.6669 214.222L95.8145 214.211C95.9607 214.131 96.0782 213.974 96.1669 213.738C96.2555 213.503 96.2909 213.268 96.273 213.033C96.2037 212.125 95.8237 211.436 95.133 210.967C94.4423 210.498 93.4382 210.314 92.1207 210.414L83.0237 211.108C82.7511 211.129 82.5271 211.188 82.3518 211.285C82.1764 211.383 82.0327 211.595 81.9207 211.924C81.8396 212.158 81.7772 212.439 81.7336 212.766C81.6901 213.093 81.6612 213.364 81.6471 213.578L80.7612 213.646L80.1045 205.037L80.9903 204.969Z"/>
<path d="M96.5925 190.279C96.7209 190.62 96.835 191.021 96.9349 191.481C97.0347 191.942 97.0727 192.427 97.0487 192.935C97.0047 193.868 96.8338 194.548 96.5362 194.975C96.2386 195.401 95.8281 195.682 95.3048 195.817L95.3016 195.886C95.5473 196.156 95.7556 196.414 95.9263 196.662C96.0971 196.909 96.2405 197.173 96.3565 197.452C96.5066 197.816 96.6136 198.165 96.6777 198.499C96.7418 198.833 96.7598 199.295 96.7319 199.887C96.6904 200.767 96.3951 201.506 95.8462 202.103C95.2973 202.7 94.5942 202.979 93.7371 202.939C93.2441 202.915 92.8283 202.827 92.4896 202.674C92.1509 202.522 91.8547 202.314 91.6011 202.051C91.3691 201.812 91.1806 201.539 91.0354 201.232C90.8903 200.925 90.7579 200.59 90.6382 200.227C90.4201 199.532 90.199 198.701 89.9748 197.732C89.7507 196.764 89.5428 196.055 89.3512 195.605L88.2589 195.553C88.0693 195.544 87.8183 195.548 87.5059 195.563C87.1934 195.579 86.9287 195.631 86.7117 195.72C86.464 195.814 86.2513 195.971 86.0737 196.191C85.8961 196.411 85.7985 196.706 85.7809 197.078C85.7652 197.412 85.7994 197.693 85.8837 197.921C85.9679 198.149 86.0561 198.334 86.1483 198.475C86.3011 198.46 86.5354 198.406 86.8514 198.315C87.1674 198.223 87.4696 198.184 87.7578 198.198C87.8867 198.204 88.0463 198.246 88.2365 198.323C88.4267 198.4 88.5756 198.506 88.6833 198.641C88.8268 198.822 88.9351 199.023 89.0084 199.243C89.0816 199.463 89.1076 199.797 89.0865 200.245C89.0564 200.882 88.8801 201.356 88.5575 201.668C88.2349 201.979 87.8271 202.124 87.3341 202.1C86.9093 202.08 86.5362 201.893 86.2146 201.54C85.893 201.187 85.6336 200.762 85.4366 200.266C85.2316 199.777 85.0812 199.219 84.9854 198.591C84.8896 197.963 84.8543 197.384 84.8793 196.853C84.9141 196.117 84.9895 195.444 85.1058 194.834C85.222 194.224 85.4283 193.679 85.7246 193.199C86.0123 192.741 86.4149 192.385 86.9323 192.132C87.4498 191.879 88.1144 191.772 88.9259 191.81C89.7831 191.851 90.7986 191.916 91.9727 192.005C93.1468 192.095 93.9196 192.149 94.2913 192.166C94.6326 192.182 94.9043 192.144 95.1063 192.051C95.3084 191.958 95.4637 191.807 95.5724 191.599C95.6391 191.473 95.6847 191.272 95.7092 190.996C95.7336 190.72 95.7512 190.468 95.762 190.24L96.5925 190.279ZM90.3979 195.654C90.522 196.086 90.6671 196.514 90.8332 196.94C90.9993 197.366 91.1785 197.717 91.3708 197.992C91.5699 198.283 91.8307 198.515 92.1531 198.69C92.4756 198.865 92.8605 198.963 93.3081 198.984C93.8997 199.012 94.3346 198.898 94.6128 198.641C94.891 198.384 95.0394 198.059 95.058 197.664C95.0777 197.247 95.0086 196.9 94.8506 196.623C94.6926 196.345 94.4934 196.098 94.2527 195.882L90.3979 195.654Z"/>
<path d="M93.8351 175.516C95.4118 175.801 96.6691 176.572 97.6069 177.83C98.5448 179.088 98.8678 180.523 98.5761 182.137C98.4464 182.855 98.2682 183.424 98.0414 183.846C97.8147 184.268 97.5703 184.606 97.3084 184.86L97.2922 184.949L100.442 185.519C100.703 185.566 100.942 185.549 101.157 185.469C101.372 185.388 101.544 185.251 101.671 185.058C101.79 184.871 101.916 184.599 102.05 184.241C102.184 183.883 102.281 183.583 102.341 183.339L103.17 183.489L101.707 191.581L100.878 191.431C100.897 191.242 100.911 191.001 100.921 190.71C100.932 190.419 100.927 190.198 100.908 190.048C100.869 189.794 100.758 189.606 100.576 189.484C100.393 189.362 100.175 189.279 99.9209 189.233L88.4546 187.16C88.204 187.138 87.9768 187.157 87.7731 187.216C87.5694 187.276 87.3784 187.394 87.1999 187.57C87.0758 187.702 86.9596 187.885 86.8515 188.12C86.7435 188.355 86.6566 188.59 86.5909 188.825L85.7727 188.678L86.468 183.166L86.6441 183.025L87.8883 183.249L87.9269 183.164C87.5154 182.58 87.2258 181.963 87.0581 181.311C86.8903 180.66 86.8598 180.039 86.9665 179.448C87.2461 177.902 88.0143 176.779 89.2711 176.08C90.5279 175.381 92.0492 175.193 93.8351 175.516ZM93.1526 179.548C92.5921 179.447 92.0486 179.391 91.5219 179.381C90.9952 179.37 90.5111 179.433 90.0698 179.57C89.6298 179.698 89.2602 179.907 88.961 180.197C88.6618 180.486 88.4689 180.87 88.3825 181.348C88.2947 181.834 88.3085 182.237 88.424 182.559C88.5394 182.881 88.7121 183.175 88.9419 183.44L95.2971 184.589C95.4547 184.571 95.6626 184.52 95.9209 184.435C96.1793 184.351 96.3909 184.258 96.5559 184.157C96.7914 184.006 96.9793 183.82 97.1197 183.599C97.2601 183.377 97.3559 183.124 97.4072 182.84C97.541 182.101 97.2501 181.437 96.5347 180.848C95.8192 180.26 94.6919 179.826 93.1526 179.548Z"/>
<path d="M103.239 163.431C103.274 163.793 103.28 164.21 103.256 164.681C103.232 165.152 103.142 165.63 102.987 166.114C102.701 167.003 102.359 167.615 101.96 167.949C101.561 168.284 101.092 168.448 100.552 168.442L100.531 168.507C100.697 168.832 100.831 169.136 100.931 169.419C101.032 169.703 101.101 169.995 101.141 170.294C101.191 170.685 101.203 171.05 101.178 171.389C101.153 171.728 101.049 172.179 100.868 172.743C100.599 173.582 100.121 174.218 99.4353 174.651C98.7496 175.085 97.9983 175.171 97.1814 174.908C96.7115 174.757 96.333 174.564 96.0459 174.328C95.7588 174.092 95.527 173.814 95.3507 173.494C95.189 173.203 95.0782 172.89 95.0181 172.556C94.9581 172.222 94.9176 171.864 94.8967 171.482C94.8672 170.755 94.8705 169.894 94.9066 168.901C94.9428 167.908 94.927 167.169 94.8593 166.684L93.8183 166.35C93.6376 166.292 93.3943 166.229 93.0887 166.163C92.783 166.097 92.5138 166.078 92.2812 166.107C92.0173 166.134 91.771 166.23 91.5423 166.396C91.3135 166.562 91.1422 166.822 91.0284 167.176C90.9262 167.494 90.886 167.774 90.9078 168.017C90.9296 168.259 90.9666 168.46 91.0188 168.621C91.1703 168.645 91.4106 168.655 91.7395 168.649C92.0684 168.643 92.3702 168.684 92.6449 168.772C92.7678 168.812 92.911 168.894 93.0744 169.018C93.2379 169.142 93.3541 169.283 93.423 169.441C93.5142 169.654 93.5664 169.876 93.5797 170.108C93.593 170.339 93.5311 170.668 93.394 171.095C93.1989 171.702 92.905 172.114 92.5123 172.331C92.1196 172.548 91.6883 172.58 91.2184 172.429C90.8135 172.299 90.502 172.022 90.2836 171.597C90.0653 171.171 89.9257 170.694 89.8647 170.164C89.7942 169.639 89.7946 169.061 89.8658 168.429C89.9371 167.798 90.054 167.23 90.2166 166.724C90.442 166.022 90.6903 165.392 90.9617 164.834C91.233 164.275 91.5743 163.802 91.9856 163.416C92.3826 163.049 92.864 162.811 93.4295 162.701C93.9951 162.592 94.6646 162.662 95.4381 162.91C96.255 163.173 97.2185 163.5 98.3286 163.893C99.4387 164.286 100.171 164.539 100.525 164.653C100.85 164.757 101.123 164.791 101.342 164.754C101.561 164.717 101.751 164.612 101.91 164.44C102.007 164.335 102.103 164.153 102.199 163.893C102.295 163.632 102.377 163.394 102.447 163.177L103.239 163.431ZM95.8569 167.005C95.8642 167.454 95.8925 167.906 95.9418 168.36C95.9912 168.815 96.0728 169.2 96.1866 169.516C96.3031 169.848 96.4942 170.141 96.7598 170.394C97.0255 170.647 97.3716 170.842 97.7981 170.979C98.362 171.16 98.8117 171.163 99.1472 170.988C99.4827 170.812 99.7109 170.537 99.8317 170.161C99.9595 169.763 99.9833 169.41 99.9031 169.101C99.8229 168.792 99.6949 168.502 99.5191 168.23L95.8569 167.005Z"/>
<path d="M109.975 149.822L107.008 156.004L106.259 155.644C106.307 155.507 106.366 155.342 106.434 155.147C106.502 154.952 106.535 154.795 106.533 154.677C106.527 154.497 106.467 154.341 106.353 154.211C106.238 154.08 106.041 153.948 105.76 153.813L100.954 151.507C100.256 151.171 99.6691 151.048 99.1934 151.135C98.7176 151.223 98.3598 151.516 98.1199 152.016C97.9885 152.29 97.9072 152.565 97.876 152.84C97.8448 153.116 97.8537 153.404 97.9028 153.706C97.9444 153.97 98.0084 154.197 98.0946 154.385C98.1809 154.574 98.2591 154.736 98.3292 154.871L103.844 157.517C104.083 157.632 104.3 157.694 104.494 157.703C104.687 157.711 104.863 157.657 105.021 157.539C105.135 157.459 105.255 157.348 105.382 157.207C105.509 157.066 105.62 156.921 105.716 156.774L106.466 157.133L103.47 163.377L102.72 163.017C102.789 162.839 102.853 162.657 102.913 162.471C102.972 162.285 103.011 162.121 103.029 161.978C103.059 161.723 103.015 161.516 102.897 161.358C102.779 161.201 102.593 161.061 102.34 160.939L96.3636 158.071C96.1514 157.969 95.9163 157.924 95.6584 157.935C95.4004 157.946 95.1637 158.009 94.9482 158.125C94.8069 158.209 94.6637 158.331 94.5186 158.493C94.3735 158.655 94.2365 158.844 94.1075 159.061L93.3579 158.701L95.4416 153.674L95.6696 153.594L97.1586 154.309L97.1783 154.268C97.0991 153.994 97.0054 153.663 96.8973 153.274C96.7891 152.885 96.7155 152.538 96.6766 152.233C96.6339 151.901 96.6529 151.501 96.7336 151.035C96.8144 150.568 96.9665 150.102 97.1899 149.637C97.7254 148.521 98.4437 147.836 99.3447 147.582C100.246 147.328 101.22 147.452 102.267 147.955L107.299 150.37C107.552 150.491 107.772 150.55 107.959 150.547C108.146 150.544 108.333 150.462 108.521 150.299C108.621 150.212 108.734 150.1 108.859 149.962C108.984 149.824 109.106 149.658 109.225 149.462L109.975 149.822Z"/>
<path d="M114.585 137.983C114.802 138.442 114.968 138.934 115.083 139.458C115.198 139.983 115.239 140.52 115.205 141.07C115.168 141.654 115.069 142.204 114.908 142.72C114.747 143.237 114.482 143.777 114.112 144.343C113.496 145.283 112.832 146.008 112.118 146.516C111.404 147.025 110.676 147.354 109.934 147.503C109.192 147.653 108.442 147.636 107.686 147.454C106.929 147.272 106.192 146.946 105.474 146.477C104.826 146.052 104.283 145.527 103.845 144.9C103.406 144.273 103.099 143.588 102.922 142.846C102.753 142.119 102.745 141.335 102.895 140.495C103.046 139.654 103.388 138.827 103.92 138.014C104.502 137.124 105.088 136.464 105.678 136.034C106.269 135.603 106.877 135.325 107.504 135.2C108.103 135.075 108.703 135.091 109.303 135.248C109.904 135.405 110.474 135.66 111.014 136.013L111.634 136.419L107.418 142.862C108.72 143.714 109.875 144.112 110.884 144.055C111.892 143.998 112.754 143.423 113.469 142.33C113.86 141.732 114.048 141.088 114.032 140.398C114.017 139.707 113.868 139.029 113.587 138.364L114.585 137.983ZM108.581 139.253C108.2 139.004 107.796 138.767 107.371 138.543C106.946 138.32 106.575 138.172 106.258 138.101C105.889 138.014 105.567 138.014 105.292 138.102C105.017 138.189 104.785 138.376 104.598 138.662C104.278 139.151 104.27 139.704 104.575 140.321C104.879 140.937 105.56 141.61 106.617 142.338L108.581 139.253Z"/>
<path d="M120.787 135.4C120.317 135.967 119.774 136.451 119.159 136.854C118.544 137.256 118.019 137.529 117.585 137.671L117.963 138.429L117.396 139.113L114.032 136.514L114.562 135.874C114.898 136.004 115.316 136.104 115.816 136.174C116.316 136.243 116.806 136.256 117.287 136.211C117.778 136.154 118.261 136.025 118.735 135.821C119.21 135.618 119.615 135.315 119.949 134.912C120.39 134.38 120.615 133.898 120.624 133.466C120.632 133.034 120.42 132.638 119.987 132.279C119.754 132.085 119.512 131.984 119.263 131.974C119.014 131.965 118.75 132.017 118.469 132.129C118.163 132.26 117.856 132.428 117.549 132.631C117.242 132.835 116.865 133.087 116.418 133.388C115.972 133.688 115.571 133.93 115.216 134.114C114.861 134.298 114.429 134.436 113.919 134.526C113.473 134.6 113.024 134.582 112.572 134.474C112.119 134.365 111.671 134.126 111.227 133.757C110.403 133.074 110.024 132.175 110.091 131.06C110.157 129.946 110.655 128.828 111.586 127.706C112.028 127.174 112.488 126.73 112.967 126.372C113.446 126.015 113.876 125.738 114.257 125.54L113.892 124.927L114.445 124.261L117.55 126.601L117.034 127.223C116.256 126.924 115.441 126.839 114.588 126.97C113.734 127.1 113.07 127.452 112.595 128.025C112.221 128.475 112.022 128.906 111.995 129.318C111.969 129.73 112.122 130.075 112.455 130.351C112.899 130.719 113.377 130.798 113.889 130.586C114.4 130.374 115.025 130.001 115.762 129.469C116.899 128.646 117.901 128.185 118.768 128.085C119.635 127.986 120.428 128.234 121.147 128.831C122.105 129.626 122.536 130.617 122.439 131.805C122.341 132.992 121.791 134.19 120.787 135.4Z"/>
<path d="M131.297 120.066C131.404 120.562 131.455 121.079 131.45 121.616C131.444 122.153 131.363 122.686 131.207 123.214C131.039 123.774 130.819 124.288 130.546 124.755C130.273 125.222 129.893 125.689 129.405 126.157C128.594 126.935 127.784 127.491 126.974 127.826C126.164 128.161 125.38 128.318 124.624 128.297C123.867 128.275 123.14 128.091 122.444 127.744C121.748 127.396 121.103 126.913 120.509 126.293C119.973 125.734 119.562 125.1 119.276 124.391C118.99 123.681 118.844 122.945 118.838 122.182C118.838 121.436 119.006 120.67 119.342 119.885C119.678 119.1 120.196 118.371 120.898 117.698C121.665 116.962 122.385 116.451 123.057 116.164C123.728 115.877 124.384 115.743 125.022 115.762C125.634 115.775 126.215 115.925 126.765 116.213C127.315 116.501 127.813 116.878 128.26 117.344L128.773 117.879L123.215 123.208C124.293 124.332 125.329 124.979 126.325 125.15C127.32 125.321 128.289 124.955 129.232 124.051C129.747 123.557 130.075 122.971 130.215 122.295C130.355 121.619 130.363 120.925 130.238 120.213L131.297 120.066ZM125.16 119.954C124.845 119.625 124.505 119.304 124.141 118.99C123.777 118.676 123.449 118.449 123.157 118.309C122.817 118.141 122.503 118.068 122.215 118.092C121.927 118.115 121.66 118.245 121.413 118.482C120.991 118.887 120.859 119.424 121.017 120.093C121.175 120.762 121.687 121.57 122.553 122.518L125.16 119.954Z"/>
<path d="M145.509 113.711C144.513 114.353 143.478 114.793 142.402 115.03C141.326 115.268 140.269 115.288 139.229 115.091C138.21 114.898 137.234 114.477 136.301 113.828C135.367 113.179 134.558 112.324 133.875 111.265C133.196 110.212 132.751 109.119 132.54 107.986C132.329 106.853 132.343 105.743 132.583 104.658C132.818 103.594 133.278 102.59 133.962 101.648C134.646 100.705 135.509 99.8982 136.549 99.2274C137.302 98.7419 138.046 98.3904 138.783 98.1731C139.519 97.9558 140.175 97.8242 140.751 97.7782L141.005 96.869L141.838 96.332L145.121 101.235L144.279 101.778C142.825 100.574 141.535 99.8343 140.408 99.5581C139.281 99.2818 138.236 99.4543 137.272 100.076C136.072 100.849 135.5 101.966 135.556 103.425C135.611 104.885 136.254 106.569 137.485 108.477C138.18 109.555 138.881 110.407 139.586 111.032C140.292 111.656 140.967 112.091 141.612 112.334C142.295 112.581 142.962 112.654 143.612 112.556C144.262 112.457 144.894 112.211 145.506 111.815C146.4 111.239 147.039 110.484 147.426 109.548C147.812 108.612 147.975 107.468 147.916 106.115L149.06 106.082C149.147 106.82 149.159 107.524 149.094 108.194C149.029 108.864 148.869 109.507 148.616 110.122C148.338 110.798 147.958 111.432 147.476 112.022C146.994 112.613 146.339 113.176 145.509 113.711Z"/>
<path d="M157.764 95.6328C158.494 95.874 159.145 96.2639 159.719 96.8025C160.293 97.341 160.757 97.9967 161.113 98.7693C161.465 99.5351 161.664 100.319 161.711 101.121C161.758 101.922 161.637 102.682 161.349 103.4C161.042 104.168 160.574 104.863 159.946 105.487C159.317 106.11 158.516 106.645 157.544 107.093C156.702 107.48 155.872 107.715 155.054 107.799C154.236 107.883 153.443 107.809 152.676 107.576C151.939 107.355 151.263 106.975 150.647 106.435C150.03 105.895 149.529 105.204 149.142 104.362C148.761 103.534 148.555 102.737 148.524 101.97C148.493 101.203 148.627 100.445 148.927 99.6971C149.215 98.9794 149.673 98.3156 150.299 97.7057C150.926 97.0959 151.701 96.5784 152.625 96.1532C153.591 95.7091 154.503 95.4508 155.36 95.3785C156.216 95.3063 157.018 95.391 157.764 95.6328ZM158.413 104.022C158.387 103.566 158.284 103.046 158.102 102.46C157.921 101.875 157.662 101.217 157.326 100.486C157.104 100.003 156.815 99.4667 156.461 98.8776C156.106 98.2884 155.778 97.8462 155.475 97.5509C155.109 97.1924 154.723 96.9564 154.315 96.8429C153.908 96.7294 153.48 96.7757 153.032 96.9819C152.542 97.2072 152.212 97.5218 152.043 97.9257C151.873 98.3296 151.808 98.7819 151.846 99.2826C151.882 99.7424 151.993 100.249 152.181 100.802C152.368 101.355 152.594 101.918 152.857 102.491C153.203 103.243 153.513 103.854 153.789 104.325C154.064 104.796 154.409 105.237 154.823 105.648C155.179 106.003 155.562 106.237 155.973 106.348C156.384 106.46 156.817 106.412 157.272 106.202C157.686 106.012 157.988 105.733 158.178 105.365C158.369 104.998 158.447 104.55 158.413 104.022Z"/>
<path d="M178.267 99.1702L173.159 101.051L172.949 100.947L172.52 99.5181L172.454 99.5378C172.275 99.8375 172.099 100.13 171.927 100.416C171.755 100.701 171.532 100.981 171.257 101.253C170.946 101.561 170.638 101.812 170.336 102.006C170.033 102.2 169.566 102.392 168.933 102.582C167.835 102.913 166.894 102.835 166.11 102.349C165.325 101.863 164.752 101.017 164.389 99.8095L162.913 94.901C162.828 94.6173 162.704 94.4029 162.541 94.2575C162.379 94.1121 162.186 93.9977 161.963 93.9141C161.784 93.8488 161.572 93.8274 161.325 93.8501C161.078 93.8728 160.858 93.9053 160.664 93.9476L160.425 93.1513L165.63 91.2774L165.799 91.4049L167.98 98.6588C168.205 99.4078 168.515 99.9173 168.909 100.187C169.303 100.457 169.751 100.517 170.253 100.366C170.769 100.211 171.193 99.9369 171.523 99.5443C171.853 99.1517 172.066 98.7743 172.163 98.4121L170.396 92.5326C170.322 92.2854 170.208 92.0778 170.054 91.9099C169.901 91.742 169.714 91.6235 169.496 91.5545C169.338 91.5066 169.134 91.5047 168.881 91.5489C168.629 91.593 168.373 91.6461 168.114 91.708L167.875 90.9118L173.08 89.0378L173.293 89.1523L175.824 97.5732C175.901 97.8278 176.017 98.0288 176.172 98.1764C176.328 98.3239 176.522 98.43 176.755 98.4946C176.92 98.5403 177.118 98.5462 177.35 98.5123C177.581 98.4783 177.807 98.4322 178.027 98.3739L178.267 99.1702Z"/>
<path d="M188.081 88.5559C188.177 89.125 188.085 89.6544 187.805 90.1441C187.526 90.6339 187.098 90.9272 186.521 91.0241C185.974 91.116 185.489 91.0552 185.064 90.8417C184.639 90.6281 184.381 90.2518 184.291 89.7126C184.247 89.4505 184.231 89.2433 184.244 89.091C184.257 88.9387 184.268 88.7964 184.276 88.664C183.934 88.7369 183.591 88.9178 183.247 89.2066C182.903 89.4955 182.616 89.8516 182.387 90.2751L183.424 96.4418C183.468 96.7039 183.545 96.9142 183.657 97.0726C183.768 97.231 183.929 97.3425 184.14 97.4071C184.319 97.4618 184.598 97.486 184.978 97.4799C185.359 97.4738 185.632 97.4606 185.798 97.4404L185.935 98.2604L178.421 99.5234L178.283 98.7034C178.468 98.657 178.653 98.6046 178.84 98.5463C179.026 98.488 179.183 98.425 179.311 98.3574C179.536 98.2348 179.68 98.0798 179.741 97.8925C179.801 97.7051 179.809 97.4729 179.762 97.1959L178.663 90.6585C178.618 90.3889 178.514 90.1581 178.351 89.9661C178.187 89.774 178.005 89.6295 177.804 89.5324C177.654 89.4652 177.471 89.4189 177.255 89.3936C177.039 89.3683 176.806 89.3652 176.555 89.3843L176.417 88.5643L181.726 87.3717L181.923 87.5119L182.197 89.1406L182.242 89.1331C182.658 88.4472 183.127 87.8851 183.65 87.4468C184.173 87.0086 184.749 86.7366 185.378 86.6308C186.075 86.5138 186.671 86.635 187.166 86.9945C187.662 87.3539 187.967 87.8744 188.081 88.5559Z"/>
<path d="M195.019 97.7435C194.283 97.7864 193.559 97.7203 192.845 97.5452C192.131 97.3701 191.574 97.1725 191.173 96.9525L190.877 97.7457L189.99 97.7974L189.595 93.5648L190.425 93.5163C190.559 93.8508 190.771 94.2244 191.061 94.6373C191.351 95.0501 191.677 95.4171 192.038 95.7383C192.414 96.0586 192.838 96.3229 193.311 96.5311C193.783 96.7393 194.281 96.8282 194.804 96.7976C195.494 96.7574 195.999 96.5928 196.321 96.304C196.643 96.0152 196.787 95.5904 196.754 95.0294C196.737 94.7262 196.646 94.4804 196.483 94.2922C196.32 94.104 196.102 93.9456 195.828 93.817C195.523 93.6827 195.192 93.5727 194.833 93.4872C194.474 93.4016 194.033 93.2981 193.509 93.1766C192.984 93.055 192.534 92.9273 192.157 92.7934C191.78 92.6594 191.385 92.4372 190.971 92.1267C190.613 91.8509 190.319 91.5106 190.09 91.1056C189.861 90.7006 189.73 90.2101 189.696 89.634C189.634 88.5651 190.033 87.6747 190.892 86.9628C191.752 86.2508 192.91 85.8524 194.365 85.7674C195.055 85.7271 195.694 85.7602 196.282 85.8666C196.87 85.9729 197.366 86.098 197.77 86.2418L197.97 85.557L198.834 85.5065L199.242 89.3733L198.435 89.4205C198.124 88.6476 197.629 87.9938 196.951 87.4591C196.274 86.9243 195.563 86.6787 194.82 86.722C194.237 86.7561 193.785 86.9042 193.466 87.1662C193.146 87.4283 192.999 87.7753 193.025 88.2074C193.058 88.7836 193.327 89.1862 193.831 89.4154C194.335 89.6446 195.033 89.8472 195.926 90.0233C197.303 90.2928 198.324 90.7105 198.988 91.2765C199.653 91.8424 200.012 92.5915 200.067 93.5239C200.139 94.7672 199.708 95.7583 198.774 96.4974C197.84 97.2365 196.588 97.6519 195.019 97.7435Z"/>
<path d="M213.399 94.9503C213.11 95.3681 212.768 95.7582 212.372 96.1208C211.976 96.4833 211.531 96.7881 211.039 97.0351C210.515 97.2956 209.99 97.4857 209.462 97.6054C208.935 97.725 208.334 97.7665 207.659 97.7299C206.537 97.669 205.577 97.4571 204.779 97.0944C203.981 96.7317 203.331 96.2668 202.83 95.6996C202.328 95.1324 201.967 94.4759 201.745 93.73C201.523 92.9841 201.435 92.1828 201.482 91.326C201.524 90.5526 201.706 89.8191 202.029 89.1256C202.352 88.4321 202.79 87.8228 203.343 87.2977C203.888 86.7874 204.562 86.3867 205.365 86.0957C206.168 85.8047 207.054 85.6855 208.025 85.7382C209.086 85.7959 209.951 85.9721 210.62 86.267C211.288 86.5618 211.834 86.9489 212.256 87.4281C212.665 87.8838 212.952 88.4107 213.117 89.0091C213.282 89.6074 213.348 90.2288 213.313 90.8733L213.272 91.6126L205.584 91.1951C205.5 92.7495 205.735 93.9486 206.29 94.7924C206.845 95.6362 207.774 96.0936 209.079 96.1644C209.791 96.2031 210.443 96.0426 211.032 95.683C211.622 95.3234 212.134 94.855 212.569 94.2778L213.399 94.9503ZM209.289 90.3925C209.314 89.9376 209.317 89.47 209.297 88.9899C209.277 88.5097 209.219 88.1149 209.122 87.8054C209.012 87.4421 208.851 87.1633 208.637 86.9692C208.423 86.7751 208.145 86.6688 207.804 86.6502C207.22 86.6185 206.738 86.8889 206.357 87.4614C205.976 88.0339 205.736 88.96 205.636 90.2397L209.289 90.3925Z"/>
<path d="M237.773 88.3437C238.357 89.2523 238.743 90.2655 238.931 91.3833C239.118 92.5011 239.043 93.6986 238.705 94.976C238.404 96.1138 237.927 97.1461 237.273 98.0729C236.62 98.9996 235.835 99.7386 234.919 100.29C233.959 100.861 232.912 101.226 231.778 101.385C230.644 101.545 229.373 101.438 227.963 101.065C226.825 100.764 225.799 100.293 224.885 99.6503C223.971 99.0079 223.223 98.2287 222.641 97.3128C222.062 96.4134 221.68 95.4054 221.497 94.2885C221.313 93.1717 221.383 92.0003 221.708 90.7744C222.045 89.4971 222.57 88.3968 223.282 87.4736C223.993 86.5504 224.829 85.819 225.788 85.2795C226.737 84.7528 227.782 84.4304 228.925 84.3125C230.068 84.1945 231.226 84.2909 232.401 84.6015C233.568 84.9103 234.613 85.391 235.536 86.0436C236.459 86.6962 237.205 87.4629 237.773 88.3437ZM231.987 98.7717C232.494 98.1911 232.932 97.4981 233.302 96.6927C233.673 95.8873 233.998 94.9524 234.28 93.888C234.519 92.985 234.687 92.089 234.785 91.1997C234.883 90.3105 234.866 89.4911 234.734 88.7416C234.595 87.99 234.318 87.3435 233.904 86.8018C233.49 86.2602 232.893 85.8865 232.115 85.6807C230.787 85.3292 229.611 85.6917 228.588 86.7681C227.564 87.8446 226.749 89.5317 226.141 91.8294C225.883 92.8057 225.715 93.7469 225.636 94.653C225.557 95.559 225.594 96.3777 225.746 97.1092C225.904 97.8499 226.188 98.469 226.598 98.9663C227.008 99.4637 227.584 99.8104 228.326 100.007C229.053 100.199 229.725 100.18 230.343 99.9511C230.962 99.722 231.509 99.3288 231.987 98.7717Z"/>
<path d="M250.725 109.235L244.457 106.455L244.794 105.695C244.933 105.739 245.1 105.793 245.296 105.855C245.493 105.917 245.651 105.946 245.77 105.94C245.949 105.929 246.103 105.864 246.23 105.746C246.357 105.628 246.484 105.426 246.61 105.142L248.771 100.269C249.085 99.561 249.191 98.9705 249.09 98.4976C248.988 98.0246 248.684 97.6758 248.177 97.451C247.899 97.3279 247.622 97.2548 247.346 97.2319C247.069 97.209 246.781 97.2266 246.481 97.2846C246.218 97.3342 245.994 97.4049 245.808 97.4968C245.622 97.5886 245.462 97.6716 245.33 97.7458L242.85 103.337C242.742 103.58 242.687 103.798 242.684 103.992C242.681 104.186 242.741 104.36 242.863 104.514C242.947 104.626 243.061 104.743 243.206 104.866C243.351 104.988 243.499 105.095 243.649 105.187L243.312 105.947L236.982 103.139L237.319 102.379C237.498 102.442 237.682 102.501 237.87 102.555C238.058 102.609 238.223 102.643 238.367 102.657C238.623 102.679 238.828 102.629 238.982 102.506C239.136 102.383 239.27 102.194 239.384 101.937L242.072 95.877C242.167 95.6618 242.206 95.4255 242.187 95.168C242.168 94.9105 242.098 94.6757 241.976 94.4638C241.888 94.3251 241.761 94.1856 241.594 94.0454C241.428 93.9052 241.235 93.7739 241.015 93.6515L241.352 92.8914L246.439 94.8236L246.526 95.0491L245.856 96.5588L245.898 96.5773C246.169 96.4899 246.498 96.3864 246.883 96.2666C247.268 96.1468 247.613 96.0629 247.917 96.0149C248.247 95.9622 248.647 95.9692 249.116 96.0359C249.585 96.1027 250.055 96.2407 250.527 96.4501C251.659 96.9519 252.365 97.6493 252.646 98.5423C252.927 99.4353 252.832 100.413 252.361 101.475L250.098 106.577C249.984 106.834 249.931 107.055 249.94 107.242C249.948 107.428 250.037 107.613 250.205 107.796C250.294 107.893 250.41 108.003 250.552 108.124C250.693 108.245 250.863 108.362 251.062 108.475L250.725 109.235Z"/>
<path d="M256.777 112.989L250.595 109.414L251.011 108.694C251.189 108.78 251.365 108.859 251.537 108.933C251.71 109.006 251.872 109.056 252.023 109.082C252.279 109.125 252.488 109.094 252.649 108.99C252.81 108.886 252.961 108.712 253.101 108.469L259.419 97.544C259.564 97.2942 259.647 97.0331 259.669 96.7605C259.69 96.4879 259.648 96.2464 259.542 96.0358C259.46 95.8743 259.308 95.6771 259.088 95.4443C258.867 95.2115 258.659 95.0296 258.463 94.8986L258.879 94.1788L263.987 96.7906L264.043 97.0339L256.42 110.217C256.279 110.46 256.208 110.682 256.206 110.883C256.204 111.083 256.273 111.281 256.414 111.477C256.512 111.612 256.619 111.745 256.737 111.874C256.855 112.004 257.007 112.136 257.193 112.269L256.777 112.989Z"/>
<path d="M263.275 117.389L257.324 113.338L257.792 112.651C257.964 112.75 258.135 112.843 258.304 112.931C258.474 113.019 258.63 113.079 258.773 113.112C259.025 113.174 259.24 113.162 259.418 113.076C259.596 112.99 259.764 112.831 259.922 112.599L263.652 107.119C263.802 106.899 263.883 106.672 263.895 106.437C263.908 106.203 263.874 105.984 263.791 105.781C263.73 105.629 263.608 105.44 263.425 105.215C263.243 104.99 263.065 104.804 262.889 104.657L263.357 103.97L268.137 106.865L268.182 107.103L263.094 114.579C262.944 114.798 262.864 115.017 262.853 115.235C262.843 115.453 262.9 115.659 263.024 115.854C263.111 115.996 263.215 116.141 263.336 116.287C263.457 116.434 263.592 116.572 263.743 116.702L263.275 117.389ZM270.642 103.61C270.318 104.087 269.857 104.369 269.262 104.455C268.666 104.54 268.117 104.412 267.615 104.071C267.106 103.724 266.783 103.259 266.644 102.673C266.505 102.087 266.598 101.556 266.923 101.078C267.248 100.601 267.709 100.318 268.307 100.229C268.905 100.14 269.458 100.269 269.967 100.615C270.475 100.961 270.796 101.428 270.929 102.014C271.063 102.601 270.967 103.133 270.642 103.61Z"/>
<path d="M275.288 127.382L270.083 122.918L270.625 122.287C270.744 122.369 270.889 122.468 271.059 122.584C271.23 122.701 271.373 122.773 271.488 122.802C271.664 122.842 271.829 122.824 271.985 122.748C272.14 122.671 272.32 122.515 272.522 122.278L275.993 118.232C276.497 117.644 276.768 117.109 276.807 116.627C276.845 116.145 276.654 115.723 276.233 115.362C276.003 115.165 275.758 115.015 275.5 114.914C275.242 114.812 274.961 114.746 274.657 114.716C274.391 114.688 274.155 114.691 273.951 114.725C273.746 114.76 273.57 114.794 273.421 114.827L269.439 119.469C269.266 119.671 269.151 119.864 269.092 120.049C269.034 120.234 269.041 120.418 269.114 120.601C269.162 120.732 269.238 120.877 269.341 121.036C269.445 121.195 269.556 121.34 269.674 121.471L269.132 122.102L263.876 117.594L264.417 116.962C264.571 117.075 264.73 117.183 264.894 117.289C265.059 117.395 265.207 117.475 265.341 117.53C265.58 117.625 265.791 117.635 265.973 117.562C266.156 117.489 266.339 117.346 266.522 117.132L270.838 112.1C270.991 111.922 271.096 111.706 271.152 111.454C271.208 111.202 271.208 110.957 271.152 110.719C271.107 110.561 271.026 110.391 270.907 110.209C270.788 110.027 270.641 109.846 270.465 109.665L271.007 109.034L275.323 112.346L275.342 112.587L274.267 113.841L274.301 113.871C274.586 113.865 274.931 113.86 275.334 113.856C275.738 113.852 276.092 113.871 276.397 113.912C276.728 113.956 277.109 114.078 277.539 114.277C277.969 114.475 278.38 114.743 278.772 115.079C279.712 115.885 280.188 116.756 280.2 117.692C280.213 118.628 279.841 119.537 279.084 120.419L275.451 124.655C275.268 124.868 275.154 125.066 275.108 125.247C275.063 125.428 275.095 125.63 275.203 125.853C275.261 125.973 275.34 126.111 275.441 126.267C275.542 126.424 275.671 126.585 275.83 126.75L275.288 127.382Z"/>
<path d="M285.548 134.891C285.048 134.982 284.53 135.015 283.994 134.991C283.457 134.967 282.927 134.868 282.405 134.695C281.85 134.509 281.344 134.271 280.887 133.983C280.429 133.694 279.975 133.298 279.524 132.795C278.774 131.958 278.245 131.129 277.938 130.309C277.63 129.488 277.5 128.7 277.547 127.944C277.593 127.189 277.802 126.469 278.173 125.784C278.543 125.1 279.048 124.472 279.687 123.899C280.264 123.382 280.912 122.993 281.63 122.731C282.349 122.469 283.09 122.348 283.852 122.368C284.598 122.393 285.358 122.586 286.132 122.948C286.905 123.311 287.616 123.854 288.265 124.577C288.974 125.369 289.461 126.105 289.725 126.787C289.989 127.468 290.101 128.127 290.061 128.765C290.027 129.376 289.857 129.952 289.551 130.491C289.244 131.031 288.851 131.517 288.37 131.947L287.819 132.442L282.68 126.708C281.52 127.747 280.839 128.761 280.634 129.75C280.429 130.739 280.763 131.72 281.635 132.693C282.111 133.224 282.685 133.571 283.356 133.734C284.028 133.897 284.721 133.929 285.436 133.828L285.548 134.891ZM285.866 128.762C286.206 128.458 286.538 128.129 286.864 127.776C287.19 127.422 287.428 127.102 287.578 126.814C287.758 126.48 287.84 126.169 287.827 125.88C287.813 125.592 287.692 125.32 287.464 125.066C287.073 124.631 286.541 124.481 285.867 124.616C285.193 124.751 284.368 125.236 283.392 126.07L285.866 128.762Z"/>
<path d="M290.547 147.857C290.034 147.014 289.66 146.164 289.424 145.308C289.188 144.451 289.058 143.684 289.036 143.004L287.947 142.747L287.444 141.919L292.36 138.757L292.868 139.594C292.509 140.07 292.155 140.614 291.807 141.226C291.459 141.837 291.194 142.461 291.012 143.096C290.817 143.756 290.733 144.414 290.758 145.069C290.784 145.725 290.996 146.38 291.394 147.036C291.931 147.918 292.557 148.463 293.275 148.671C293.992 148.879 294.679 148.784 295.334 148.386C295.873 148.058 296.204 147.584 296.328 146.962C296.452 146.34 296.393 145.53 296.15 144.531C295.994 143.879 295.851 143.28 295.722 142.731C295.593 142.183 295.484 141.661 295.396 141.164C295.201 140.011 295.311 139 295.725 138.131C296.138 137.262 296.77 136.569 297.62 136.052C298.158 135.725 298.747 135.527 299.385 135.459C300.024 135.391 300.677 135.46 301.345 135.667C301.975 135.871 302.61 136.235 303.25 136.762C303.89 137.288 304.448 137.944 304.926 138.729C305.391 139.494 305.722 140.275 305.917 141.072C306.113 141.868 306.22 142.523 306.238 143.036L307.183 143.275L307.698 144.122L303.035 147.063L302.526 146.226C302.914 145.724 303.292 145.181 303.661 144.596C304.03 144.012 304.301 143.468 304.474 142.963C304.657 142.416 304.734 141.867 304.705 141.315C304.677 140.764 304.493 140.209 304.154 139.651C303.728 138.951 303.182 138.498 302.516 138.295C301.85 138.091 301.225 138.166 300.641 138.521C300.089 138.857 299.756 139.324 299.64 139.923C299.524 140.522 299.582 141.311 299.813 142.29C299.943 142.869 300.078 143.458 300.22 144.056C300.361 144.654 300.476 145.193 300.563 145.673C300.772 146.835 300.706 147.855 300.364 148.734C300.023 149.612 299.379 150.339 298.431 150.915C297.835 151.278 297.172 151.49 296.445 151.55C295.717 151.61 295.024 151.516 294.366 151.267C293.642 150.996 292.963 150.588 292.328 150.04C291.693 149.493 291.099 148.766 290.547 147.857Z"/>
<path d="M309.483 161.504C309.296 161.214 309.043 160.963 308.724 160.751C308.405 160.54 308.005 160.425 307.523 160.407C305.995 160.374 304.378 160.359 302.671 160.363C300.964 160.367 299.111 160.353 297.11 160.322C295.989 160.307 295.061 160.221 294.327 160.066C293.593 159.911 292.998 159.723 292.542 159.502C292.116 159.293 291.768 159.053 291.498 158.783C291.228 158.513 291.019 158.211 290.87 157.878C290.577 157.219 290.523 156.605 290.71 156.035C290.897 155.466 291.219 155.079 291.677 154.875C291.871 154.789 292.061 154.731 292.248 154.702C292.435 154.672 292.65 154.691 292.896 154.756C293.098 154.799 293.304 154.913 293.515 155.097C293.726 155.281 293.897 155.519 294.027 155.811C294.2 156.199 294.23 156.63 294.117 157.105C294.004 157.579 293.794 158.113 293.485 158.708C293.816 158.835 294.283 158.965 294.888 159.099C295.492 159.233 296.069 159.273 296.618 159.22C297.985 157.621 299.162 156.22 300.15 155.014C301.138 153.809 302.24 152.462 303.455 150.972C303.711 150.651 303.866 150.303 303.92 149.93C303.974 149.557 303.949 149.198 303.845 148.853L304.605 148.515L307.442 154.882L306.683 155.22C306.571 154.988 306.397 154.739 306.163 154.473C305.928 154.208 305.734 154.109 305.582 154.177C305.526 154.202 305.47 154.239 305.414 154.289C305.357 154.34 305.279 154.42 305.179 154.531C304.798 154.984 304.273 155.619 303.603 156.437C302.932 157.256 302.146 158.211 301.245 159.303C302.421 159.294 303.432 159.282 304.277 159.266C305.123 159.251 305.952 159.233 306.766 159.211C306.97 159.203 307.125 159.182 307.23 159.148C307.335 159.113 307.405 159.088 307.44 159.073C307.565 159.017 307.647 158.908 307.686 158.745C307.726 158.582 307.743 158.401 307.738 158.204C307.73 158 307.708 157.81 307.672 157.635C307.635 157.46 307.601 157.318 307.568 157.207L308.328 156.869L310.243 161.166L309.483 161.504Z"/>
<path d="M300.884 170.495C300.662 169.792 300.548 169.074 300.543 168.339C300.538 167.604 300.593 167.015 300.708 166.573L299.866 166.48L299.599 165.633L303.606 164.212L303.856 165.005C303.564 165.217 303.254 165.514 302.925 165.896C302.596 166.279 302.32 166.685 302.097 167.113C301.879 167.557 301.727 168.033 301.64 168.542C301.554 169.051 301.59 169.555 301.748 170.055C301.956 170.714 302.24 171.163 302.598 171.405C302.957 171.646 303.405 171.681 303.94 171.512C304.23 171.421 304.446 171.273 304.589 171.069C304.731 170.864 304.831 170.614 304.889 170.317C304.944 169.989 304.97 169.64 304.965 169.272C304.96 168.903 304.952 168.449 304.941 167.911C304.93 167.373 304.944 166.905 304.981 166.507C305.019 166.109 305.137 165.671 305.337 165.194C305.517 164.779 305.775 164.411 306.111 164.09C306.448 163.768 306.891 163.521 307.441 163.347C308.462 163.025 309.423 163.193 310.324 163.852C311.225 164.511 311.895 165.536 312.334 166.926C312.542 167.585 312.667 168.212 312.708 168.809C312.749 169.405 312.749 169.916 312.709 170.343L313.422 170.369L313.683 171.194L310.034 172.538L309.79 171.767C310.463 171.276 310.976 170.636 311.328 169.848C311.68 169.06 311.744 168.311 311.52 167.601C311.344 167.044 311.09 166.642 310.758 166.397C310.425 166.151 310.053 166.094 309.64 166.224C309.09 166.398 308.765 166.757 308.667 167.302C308.568 167.847 308.543 168.573 308.591 169.482C308.667 170.883 308.512 171.975 308.126 172.758C307.741 173.541 307.102 174.073 306.212 174.354C305.024 174.729 303.958 174.555 303.012 173.83C302.067 173.105 301.357 171.994 300.884 170.495Z"/>
<path d="M305.257 184.324C304.947 183.893 304.651 183.425 304.368 182.918C304.085 182.412 303.861 181.769 303.694 180.989C303.447 179.831 303.545 178.911 303.99 178.23C304.435 177.548 305.181 177.096 306.228 176.872L313.067 175.412L312.639 173.407L313.842 173.15L314.28 175.2L317.655 174.479L318.428 178.099L315.053 178.82L315.719 181.939L314.516 182.196L313.854 179.099L307.75 180.402C306.881 180.588 306.291 180.84 305.978 181.159C305.666 181.478 305.576 181.95 305.71 182.574C305.752 182.774 305.827 183.049 305.933 183.399C306.038 183.75 306.125 183.991 306.192 184.124L305.257 184.324Z"/>
<path d="M308.883 196.588C308.424 196.37 307.984 196.095 307.563 195.762C307.141 195.43 306.769 195.04 306.446 194.594C306.104 194.119 305.832 193.631 305.629 193.129C305.427 192.628 305.289 192.041 305.217 191.369C305.096 190.252 305.151 189.271 305.381 188.425C305.61 187.579 305.965 186.863 306.444 186.277C306.923 185.691 307.513 185.228 308.213 184.889C308.914 184.55 309.691 184.335 310.544 184.243C311.314 184.16 312.067 184.222 312.804 184.429C313.54 184.637 314.212 184.971 314.819 185.433C315.41 185.888 315.914 186.489 316.33 187.234C316.747 187.98 317.007 188.836 317.111 189.803C317.225 190.859 317.19 191.742 317.006 192.449C316.823 193.156 316.529 193.756 316.124 194.251C315.739 194.727 315.266 195.095 314.702 195.355C314.138 195.614 313.535 195.778 312.893 195.847L312.157 195.926L311.333 188.271C309.785 188.437 308.639 188.863 307.896 189.546C307.152 190.229 306.85 191.22 306.99 192.519C307.066 193.229 307.329 193.846 307.779 194.37C308.229 194.894 308.774 195.324 309.413 195.66L308.883 196.588ZM312.721 191.799C313.174 191.75 313.635 191.677 314.106 191.581C314.577 191.484 314.957 191.363 315.247 191.218C315.588 191.051 315.837 190.847 315.994 190.604C316.152 190.362 316.212 190.071 316.175 189.731C316.113 189.15 315.768 188.717 315.142 188.434C314.516 188.15 313.563 188.061 312.284 188.168L312.721 191.799Z"/>
<path d="M305.235 219.854L305.643 213.078L306.473 213.128C306.486 213.296 306.494 213.472 306.499 213.655C306.503 213.837 306.531 213.991 306.585 214.116C306.651 214.288 306.771 214.401 306.947 214.458C307.122 214.514 307.35 214.55 307.63 214.567L312.94 214.887C313.721 214.934 314.314 214.831 314.721 214.578C315.128 214.325 315.348 213.94 315.379 213.425C315.398 213.099 315.364 212.806 315.277 212.546C315.19 212.286 315.077 212.045 314.939 211.824C314.793 211.594 314.644 211.414 314.492 211.283C314.34 211.152 314.21 211.042 314.101 210.952L307.996 210.584C307.723 210.568 307.499 210.586 307.325 210.641C307.15 210.695 307.009 210.806 306.9 210.974C306.824 211.092 306.755 211.226 306.693 211.378C306.63 211.531 306.582 211.693 306.549 211.866L305.719 211.816L306.11 205.324L306.94 205.374C306.947 205.519 306.955 205.695 306.965 205.901C306.976 206.107 307.005 206.26 307.052 206.362C307.126 206.526 307.241 206.638 307.397 206.697C307.553 206.756 307.786 206.794 308.097 206.813L313.407 207.133C314.188 207.18 314.781 207.077 315.188 206.824C315.595 206.571 315.814 206.186 315.845 205.671C315.865 205.345 315.831 205.052 315.744 204.792C315.657 204.532 315.544 204.291 315.406 204.07C315.26 203.84 315.111 203.66 314.959 203.529C314.807 203.398 314.677 203.288 314.568 203.198L308.463 202.83C308.197 202.814 307.975 202.835 307.797 202.893C307.619 202.95 307.475 203.063 307.366 203.232C307.29 203.349 307.221 203.484 307.159 203.636C307.096 203.788 307.049 203.951 307.015 204.123L306.185 204.074L306.596 197.263L307.426 197.313C307.429 197.511 307.436 197.706 307.447 197.896C307.459 198.087 307.487 198.253 307.532 198.392C307.608 198.64 307.729 198.815 307.894 198.916C308.059 199.017 308.282 199.076 308.562 199.093L315.179 199.492C315.422 199.506 315.663 199.456 315.901 199.341C316.14 199.226 316.33 199.082 316.47 198.908C316.569 198.777 316.655 198.609 316.728 198.404C316.801 198.199 316.857 197.972 316.895 197.724L317.725 197.774L317.694 203.215L317.513 203.375L315.91 203.278L315.907 203.324C316.084 203.548 316.294 203.813 316.538 204.121C316.782 204.428 316.976 204.716 317.119 204.983C317.284 205.274 317.414 205.644 317.509 206.09C317.604 206.537 317.635 207.022 317.604 207.545C317.552 208.409 317.321 209.12 316.911 209.677C316.501 210.235 315.978 210.616 315.341 210.821L315.335 210.923C315.527 211.155 315.751 211.439 316.009 211.774C316.266 212.109 316.47 212.414 316.621 212.689C316.793 212.997 316.929 213.383 317.03 213.85C317.132 214.316 317.166 214.811 317.135 215.334C317.066 216.478 316.676 217.339 315.964 217.916C315.252 218.493 314.275 218.744 313.032 218.669L307.506 218.337C307.226 218.32 306.998 218.348 306.822 218.421C306.646 218.494 306.507 218.638 306.402 218.852C306.342 218.97 306.28 219.117 306.216 219.292C306.152 219.467 306.102 219.671 306.065 219.904L305.235 219.854Z"/>
</g>
</g>
</svg>
