<?xml version="1.0" encoding="UTF-8" standalone="no"?>
<!DOCTYPE svg PUBLIC "-//W3C//DTD SVG 1.1//EN" "http://www.w3.org/Graphics/SVG/1.1/DTD/svg11.dtd">
<!-- Created with Vectornator (http://vectornator.io/) -->
<svg height="100%" stroke-miterlimit="10" style="fill-rule:nonzero;clip-rule:evenodd;stroke-linecap:round;stroke-linejoin:round;" version="1.1" viewBox="0 0 140 100" width="100%" xml:space="preserve" xmlns="http://www.w3.org/2000/svg" xmlns:xlink="http://www.w3.org/1999/xlink">
<defs/>
<g id="レイヤー-1">
<g opacity="1">
<path d="M99.9543 20.2357C103.095 16.4455 103.964 13.5661 110.649 12.6056C114.755 12.0156 124.327 24.2714 125.579 28.731C126.832 33.1907 131.827 47.2208 127.045 49.3247C122.264 51.4285 120.597 45.2576 119.65 42.4213C118.703 39.585 120.526 36.5192 120.526 36.5192C120.526 36.5192 117.691 34.8131 116.835 32.564C115.979 30.3149 116.972 27.8969 116.972 27.8969C116.972 27.8969 114.508 26.3453 113.554 24.6421C112.6 22.9389 113.129 20.3097 113.129 20.3097C113.129 20.3097 109.55 18.8251 108.317 20.3489C107.084 21.8727 114.36 29.364 113.555 32.4348C112.751 35.5057 112.885 35.3816 111.396 37.6321C109.906 39.8826 110.881 43.239 107.638 40.72C104.394 38.2009 100.341 32.6769 98.4205 27.5558C96.4997 22.4348 96.8131 24.026 99.9543 20.2357Z" fill="#747070" fill-opacity="0.992188" fill-rule="nonzero" opacity="1" stroke="#000000" stroke-linecap="round" stroke-linejoin="miter" stroke-width="1"/>
<path d="M43.4083 28.4696C35.4235 40.3494 34.1576 71.8017 39.5133 79.2996C44.8689 86.7975 67.7521 93.9059 82.0663 93.0295C96.3805 92.1532 103.099 87.966 109.916 82.3182C116.732 76.6705 117.998 43.0759 106.605 28.7618C95.212 14.4476 81.8716 13.7659 74.2763 13.7659C66.681 13.7659 51.3931 16.5898 43.4083 28.4696Z" fill="#ccc6c6" fill-rule="nonzero" opacity="1" stroke="#000000" stroke-linecap="round" stroke-linejoin="miter" stroke-width="1"/>
<path d="M46.8164 24.0877C47.4007 28.9078 67.7521 32.1699 76.4186 31.683C85.085 31.1961 100.86 27.8367 100.276 23.0166C99.6913 18.1965 86.0344 12.5731 74.3737 12.6948C62.713 12.8165 46.2322 19.2676 46.8164 24.0877Z" fill="#bdbaba" fill-rule="nonzero" opacity="1" stroke="#000000" stroke-linecap="round" stroke-linejoin="miter" stroke-width="1"/>
<path d="M6.89979 34.6007C4.99025 32.2505 13.7926 24.9124 22.6168 27.9907C31.441 31.069 34.9655 31.0484 44.5031 37.2446C54.0406 43.4408 53.3898 50.8318 51.113 52.8148C48.8363 54.7977 43.328 56.6338 38.4072 55.3853C33.4865 54.1367 31.9364 45.8834 26.2155 40.9903C20.4947 36.0972 16.9471 35.6039 15.5589 35.2859C14.1707 34.9679 8.80933 36.9509 6.89979 34.6007Z" fill="#cacaca" fill-opacity="0.997396" fill-rule="nonzero" opacity="1" stroke="#000000" stroke-linecap="round" stroke-linejoin="miter" stroke-width="1"/>
<path d="M21.1204 28.633C17.643 23.9793 4.7305 31.3177 6.54593 34.565C8.36135 37.8123 24.5979 33.2866 21.1204 28.633Z" fill="#747070" fill-opacity="0.992188" fill-rule="nonzero" opacity="1" stroke="#000000" stroke-linecap="round" stroke-linejoin="miter" stroke-width="1"/>
<path d="M67.0899 7.64495C65.0567 11.3795 70.2557 19.2978 71.5055 20.8402C72.7553 22.3825 76.3011 22.1399 77.5771 20.9861C78.8531 19.8323 83.0499 11.15 81.1817 7.12438C79.3135 3.09871 69.1232 3.91045 67.0899 7.64495Z" fill="#020000" fill-rule="nonzero" opacity="1" stroke="#000000" stroke-linecap="round" stroke-linejoin="round" stroke-width="1"/>
</g>
</g>
</svg>
