<?xml version="1.0" encoding="UTF-8" standalone="no"?>
<!DOCTYPE svg PUBLIC "-//W3C//DTD SVG 1.1//EN" "http://www.w3.org/Graphics/SVG/1.1/DTD/svg11.dtd">
<!-- Created with Vectornator (http://vectornator.io/) -->
<svg height="100%" stroke-miterlimit="10" style="fill-rule:nonzero;clip-rule:evenodd;stroke-linecap:round;stroke-linejoin:round;" version="1.1" viewBox="0 0 400 400" width="100%" xml:space="preserve" xmlns="http://www.w3.org/2000/svg" xmlns:xlink="http://www.w3.org/1999/xlink">
<defs/>
<g id="レイヤー-2">
<g opacity="1">
<path d="M237.371 381.102C237.371 381.102 224.2 349.092 223.701 321.143C223.201 293.194 234.049 268.036 234.049 268.036C234.049 268.036 246.56 226.665 245.087 207.652C243.614 188.639 228.157 191.985 228.157 191.985L205.132 187.244C205.132 187.244 192.776 182.76 181.057 174.035C175.458 169.866 163.995 155.526 157.123 153.099C146.138 149.219 124.891 148.287 115.784 149.701C98.3455 152.41 92.5654 155.742 84.4542 164.084C76.2194 172.553 75.7667 173.653 69.8128 179.474C64.3308 184.834 69.719 186.585 70.7389 191.514C71.5328 195.351 71.1723 204.203 69.8128 203.29C68.1784 202.191 59.2995 200.581 56.5876 189.416C54.7209 181.731 76.6119 161.236 81.7503 155.464C86.8888 149.692 95.6596 140.265 96.936 135.283C98.2123 130.302 95.7634 120.478 104.119 96.2976C114.496 66.2667 119.926 52.7249 155.691 34.5062C191.455 16.2874 259.238 10.581 304.282 40.7535C348.614 70.4497 353.898 138.654 335.04 185.326C323.912 212.868 315.013 231.687 295.257 262.388C274.67 294.382 311.891 378.984 311.891 378.984" fill="#ffffff" fill-rule="nonzero" opacity="1" stroke="#1e1616" stroke-linecap="butt" stroke-linejoin="round" stroke-width="1"/>
<path d="M72.9835 207.128C72.9835 207.128 75.6594 210.537 74.3031 215.339C72.9469 220.141 64.2931 222.09 68.145 225.749C74.0099 231.321 82.514 221.497 82.514 221.497L86.9126 232.934L88.2322 223.697C88.2322 223.697 119.023 206.175 151.72 211.674C184.416 217.172 187.372 223.66 203.331 236.453C221.805 251.262 226.753 243.234 230.602 233.374C234.451 223.513 235.734 215.193 234.561 207.568C233.254 199.07 220.962 212.407 201.864 211.234C182.767 210.061 177.525 203.023 154.212 200.237C130.899 197.451 129.286 201.19 115.504 200.53C101.721 199.871 103.004 196.755 95.8566 197.451C88.7087 198.148 87.5724 201.777 83.2471 204.196C78.9217 206.615 72.9835 207.128 72.9835 207.128Z" fill="#ffffff" fill-rule="nonzero" opacity="1" stroke="#1e1616" stroke-linecap="butt" stroke-linejoin="round" stroke-width="1"/>
<path d="M193.122 379.208C193.122 379.208 183.735 330.44 188.092 304.565C190.987 287.378 215.592 281.046 213.059 276.161C208.527 267.42 196.053 278.694 196.053 278.694C196.053 278.694 198.123 273.236 198.467 267.316C198.8 261.588 194.982 253.241 194.425 251.014C192.977 245.224 179.269 229.888 156.432 229.303C133.594 228.718 106.86 231.293 102.156 249.204C99.0188 261.15 119.739 265.495 118.173 268.413C113.916 276.342 88.2697 254.42 88.2697 254.42L86.9279 241.769L80.9856 250.778C80.9856 250.778 78.2369 238.665 71.593 245.794C64.7061 253.185 74.255 258.104 73.3166 267.239C71.8386 281.628 63.256 295.955 82.617 307.822C93.834 314.697 133.05 301.258 151.728 313.973C176.655 330.942 179.704 379.399 179.704 379.399" fill="#ffffff" fill-rule="nonzero" opacity="1" stroke="#1e1616" stroke-linecap="butt" stroke-linejoin="round" stroke-width="1"/>
<path d="M207.079 379.878L199.063 318.474C199.063 318.474 197.097 310.458 203.298 310.307C209.499 310.156 209.197 316.81 209.197 316.81L221.447 379.121" fill="#ffffff" fill-rule="nonzero" opacity="1" stroke="#1e1616" stroke-linecap="butt" stroke-linejoin="round" stroke-width="1"/>
<path d="M188.325 317.188C188.325 315.977 190.492 314.995 193.165 314.995C195.838 314.995 198.005 315.977 198.005 317.188C198.005 318.399 195.838 319.381 193.165 319.381C190.492 319.381 188.325 318.399 188.325 317.188Z" fill="#ffffff" fill-rule="nonzero" opacity="1" stroke="#1e1616" stroke-linecap="butt" stroke-linejoin="round" stroke-width="1"/>
</g>
</g>
<g id="レイヤー-1">
<path d="M121.094 221.615L177.604 221.875L179.167 266.667L135.937 266.406L121.094 221.615Z" fill="#989899" fill-rule="nonzero" opacity="1" stroke="none"/>
<path d="M184.115 260.417C184.115 260.417 225.911 289.909 270.052 283.333C314.193 276.758 354.948 237.76 354.948 237.76L363.021 245.833L374.479 219.792L345.573 223.698L350.781 231.771C350.781 231.771 312.109 270.703 271.615 275.781C231.12 280.859 183.854 247.396 183.854 247.396" fill="#ffffff" fill-rule="nonzero" opacity="1" stroke="#000004" stroke-linecap="butt" stroke-linejoin="round" stroke-width="0.5"/>
</g>
<g id="レイヤー-3"/>
<g id="organ" visibility="hidden">
<g fill="#1e1616" opacity="1" stroke="none">
<path d="M169.496 131.801L169.572 131.801C169.791 131.801 169.955 131.855 170.065 131.962C170.174 132.07 170.229 132.231 170.229 132.446C170.229 132.676 170.173 132.842 170.062 132.944C169.95 133.045 169.762 133.096 169.496 133.096L168.055 133.096C167.793 133.096 167.605 133.045 167.489 132.944C167.374 132.842 167.316 132.676 167.316 132.446C167.316 132.231 167.372 132.07 167.483 131.962C167.595 131.855 167.762 131.801 167.984 131.801L168.055 131.801L168.055 130.108C168.055 129.639 167.989 129.306 167.858 129.109C167.728 128.911 167.51 128.813 167.205 128.813C166.881 128.813 166.616 128.931 166.411 129.167C166.206 129.404 166.104 129.717 166.104 130.108L166.104 131.801L166.174 131.801C166.397 131.801 166.563 131.855 166.672 131.962C166.781 132.07 166.836 132.231 166.836 132.446C166.836 132.676 166.779 132.842 166.666 132.944C166.553 133.045 166.365 133.096 166.104 133.096L164.65 133.096C164.389 133.096 164.201 133.045 164.088 132.944C163.975 132.842 163.918 132.676 163.918 132.446C163.918 132.231 163.973 132.07 164.082 131.962C164.191 131.855 164.358 131.801 164.58 131.801L164.65 131.801L164.65 128.965L164.551 128.965C164.34 128.965 164.18 128.911 164.07 128.804C163.961 128.697 163.906 128.539 163.906 128.332C163.906 128.102 163.963 127.936 164.076 127.834C164.19 127.733 164.381 127.682 164.65 127.682L165.647 127.682C165.756 127.682 165.839 127.703 165.896 127.746C165.952 127.789 165.981 127.852 165.981 127.934L165.981 128.391C166.16 128.11 166.39 127.898 166.669 127.755C166.948 127.613 167.272 127.541 167.639 127.541C168.264 127.541 168.73 127.731 169.036 128.11C169.343 128.489 169.496 129.067 169.496 129.844L169.496 131.801Z"/>
<path d="M176.627 131.813L176.721 131.813C176.932 131.813 177.093 131.868 177.204 131.98C177.316 132.091 177.371 132.25 177.371 132.457C177.371 132.684 177.314 132.847 177.198 132.947C177.083 133.046 176.893 133.096 176.627 133.096L176.076 133.096C175.881 133.096 175.735 133.059 175.64 132.985C175.544 132.91 175.465 132.776 175.402 132.58C175.078 132.795 174.734 132.959 174.371 133.073C174.008 133.186 173.641 133.242 173.27 133.242C172.641 133.242 172.147 133.086 171.787 132.774C171.428 132.461 171.248 132.033 171.248 131.49C171.248 130.905 171.481 130.449 171.945 130.125C172.41 129.801 173.063 129.639 173.902 129.639C174.09 129.639 174.289 129.649 174.5 129.668C174.711 129.688 174.947 129.719 175.209 129.762L175.209 129.651C175.209 129.299 175.124 129.032 174.954 128.848C174.784 128.664 174.533 128.573 174.201 128.573C173.943 128.573 173.614 128.668 173.214 128.86C172.814 129.051 172.52 129.147 172.332 129.147C172.149 129.147 172 129.093 171.887 128.986C171.774 128.878 171.717 128.737 171.717 128.561C171.717 128.244 171.948 127.993 172.411 127.808C172.874 127.622 173.504 127.53 174.301 127.53C175.133 127.53 175.729 127.69 176.088 128.01C176.447 128.33 176.627 128.873 176.627 129.639L176.627 131.813ZM175.209 130.682C175.014 130.639 174.834 130.607 174.67 130.585C174.506 130.564 174.354 130.553 174.213 130.553C173.783 130.553 173.446 130.625 173.202 130.77C172.958 130.914 172.836 131.114 172.836 131.367C172.836 131.594 172.914 131.767 173.07 131.886C173.227 132.005 173.451 132.065 173.744 132.065C174.014 132.065 174.268 132.026 174.506 131.948C174.744 131.869 174.979 131.748 175.209 131.584L175.209 130.682Z"/>
<path d="M179.891 133.014C179.789 133.092 179.685 133.152 179.577 133.193C179.47 133.234 179.359 133.254 179.246 133.254C179.078 133.254 178.96 133.209 178.892 133.119C178.823 133.03 178.789 132.862 178.789 132.615L178.789 131.836C178.789 131.578 178.832 131.396 178.918 131.288C179.004 131.181 179.152 131.127 179.363 131.127C179.594 131.127 179.781 131.239 179.926 131.461C180.012 131.582 180.084 131.672 180.143 131.731C180.334 131.903 180.557 132.032 180.811 132.117C181.065 132.203 181.354 132.246 181.678 132.246C181.959 132.246 182.184 132.192 182.352 132.082C182.52 131.973 182.604 131.83 182.604 131.655C182.604 131.338 182.152 131.119 181.25 130.998C181.051 130.975 180.895 130.953 180.781 130.934C180.102 130.84 179.596 130.656 179.264 130.38C178.932 130.105 178.766 129.735 178.766 129.27C178.766 128.719 178.965 128.293 179.363 127.992C179.762 127.692 180.33 127.541 181.068 127.541C181.322 127.541 181.583 127.562 181.851 127.603C182.118 127.644 182.393 127.707 182.674 127.793C182.756 127.696 182.843 127.623 182.935 127.576C183.026 127.53 183.129 127.506 183.242 127.506C183.402 127.506 183.525 127.556 183.608 127.656C183.692 127.755 183.734 127.905 183.734 128.104L183.734 128.824C183.734 128.992 183.691 129.122 183.606 129.214C183.52 129.306 183.399 129.352 183.242 129.352C183.082 129.352 182.808 129.212 182.419 128.933C182.03 128.654 181.641 128.514 181.25 128.514C180.945 128.514 180.709 128.564 180.541 128.663C180.373 128.763 180.289 128.901 180.289 129.076C180.289 129.35 180.641 129.533 181.344 129.627C181.547 129.651 181.707 129.67 181.824 129.686C182.707 129.815 183.314 130.007 183.644 130.263C183.974 130.519 184.139 130.899 184.139 131.403C184.139 131.992 183.921 132.448 183.485 132.771C183.05 133.093 182.432 133.254 181.631 133.254C181.318 133.254 181.018 133.234 180.729 133.193C180.44 133.152 180.16 133.092 179.891 133.014Z"/>
<path d="M191.029 131.813L191.123 131.813C191.334 131.813 191.495 131.868 191.607 131.98C191.718 132.091 191.774 132.25 191.774 132.457C191.774 132.684 191.716 132.847 191.601 132.947C191.485 133.046 191.295 133.096 191.029 133.096L190.479 133.096C190.283 133.096 190.138 133.059 190.042 132.985C189.946 132.91 189.867 132.776 189.805 132.58C189.481 132.795 189.137 132.959 188.774 133.073C188.41 133.186 188.043 133.242 187.672 133.242C187.043 133.242 186.549 133.086 186.19 132.774C185.83 132.461 185.65 132.033 185.65 131.49C185.65 130.905 185.883 130.449 186.348 130.125C186.813 129.801 187.465 129.639 188.305 129.639C188.492 129.639 188.691 129.649 188.902 129.668C189.113 129.688 189.35 129.719 189.611 129.762L189.611 129.651C189.611 129.299 189.526 129.032 189.357 128.848C189.187 128.664 188.936 128.573 188.604 128.573C188.346 128.573 188.017 128.668 187.616 128.86C187.216 129.051 186.922 129.147 186.734 129.147C186.551 129.147 186.402 129.093 186.289 128.986C186.176 128.878 186.119 128.737 186.119 128.561C186.119 128.244 186.351 127.993 186.814 127.808C187.276 127.622 187.906 127.53 188.703 127.53C189.535 127.53 190.131 127.69 190.49 128.01C190.85 128.33 191.029 128.873 191.029 129.639L191.029 131.813ZM189.611 130.682C189.416 130.639 189.236 130.607 189.072 130.585C188.908 130.564 188.756 130.553 188.615 130.553C188.186 130.553 187.849 130.625 187.605 130.77C187.36 130.914 187.238 131.114 187.238 131.367C187.238 131.594 187.316 131.767 187.473 131.886C187.629 132.005 187.854 132.065 188.147 132.065C188.416 132.065 188.67 132.026 188.908 131.948C189.147 131.869 189.381 131.748 189.611 131.584L189.611 130.682Z"/>
<path d="M196.561 131.813L197.82 131.813C198.09 131.813 198.279 131.862 198.389 131.959C198.498 132.057 198.553 132.219 198.553 132.446C198.553 132.676 198.497 132.842 198.386 132.944C198.275 133.045 198.086 133.096 197.82 133.096L193.848 133.096C193.586 133.096 193.4 133.045 193.288 132.944C193.177 132.842 193.121 132.676 193.121 132.446C193.121 132.215 193.175 132.052 193.282 131.956C193.39 131.861 193.578 131.813 193.848 131.813L195.108 131.813L195.108 126.727L194.463 126.727C194.197 126.727 194.007 126.675 193.892 126.572C193.776 126.468 193.719 126.303 193.719 126.076C193.719 125.846 193.775 125.68 193.889 125.578C194.002 125.477 194.193 125.426 194.463 125.426L196.215 125.426C196.324 125.426 196.409 125.448 196.47 125.493C196.53 125.538 196.561 125.6 196.561 125.678L196.561 131.813Z"/>
<path d="M211.983 127.998C212.029 127.846 212.103 127.732 212.202 127.656C212.302 127.579 212.43 127.541 212.586 127.541C212.797 127.541 212.947 127.605 213.037 127.732C213.127 127.859 213.172 128.078 213.172 128.391L213.172 129.352C213.172 129.59 213.123 129.766 213.025 129.879C212.928 129.992 212.777 130.049 212.574 130.049C212.43 130.049 212.309 130.016 212.211 129.949C212.113 129.883 212.01 129.756 211.9 129.569C211.744 129.303 211.539 129.107 211.285 128.98C211.031 128.853 210.721 128.789 210.354 128.789C209.897 128.789 209.523 128.939 209.232 129.238C208.941 129.536 208.795 129.918 208.795 130.383C208.795 130.871 208.945 131.264 209.246 131.561C209.547 131.858 209.951 132.006 210.459 132.006C210.92 132.006 211.378 131.878 211.833 131.622C212.288 131.366 212.566 131.239 212.668 131.239C212.813 131.239 212.933 131.294 213.028 131.406C213.124 131.517 213.172 131.657 213.172 131.824C213.172 132.192 212.894 132.52 212.337 132.809C211.78 133.098 211.119 133.242 210.354 133.242C209.408 133.242 208.64 132.977 208.048 132.446C207.456 131.914 207.16 131.231 207.16 130.395C207.16 129.578 207.453 128.899 208.039 128.356C208.625 127.813 209.363 127.541 210.254 127.541C210.555 127.541 210.848 127.578 211.133 127.653C211.418 127.727 211.701 127.842 211.983 127.998Z"/>
<path d="M219.834 131.813L219.928 131.813C220.139 131.813 220.3 131.868 220.411 131.98C220.523 132.091 220.578 132.25 220.578 132.457C220.578 132.684 220.521 132.847 220.405 132.947C220.29 133.046 220.1 133.096 219.834 133.096L219.283 133.096C219.088 133.096 218.942 133.059 218.847 132.985C218.751 132.91 218.672 132.776 218.609 132.58C218.285 132.795 217.941 132.959 217.578 133.073C217.215 133.186 216.848 133.242 216.477 133.242C215.848 133.242 215.354 133.086 214.994 132.774C214.635 132.461 214.455 132.033 214.455 131.49C214.455 130.905 214.688 130.449 215.152 130.125C215.617 129.801 216.27 129.639 217.109 129.639C217.297 129.639 217.496 129.649 217.707 129.668C217.918 129.688 218.154 129.719 218.416 129.762L218.416 129.651C218.416 129.299 218.331 129.032 218.161 128.848C217.991 128.664 217.74 128.573 217.408 128.573C217.15 128.573 216.821 128.668 216.421 128.86C216.021 129.051 215.727 129.147 215.539 129.147C215.356 129.147 215.207 129.093 215.094 128.986C214.981 128.878 214.924 128.737 214.924 128.561C214.924 128.244 215.155 127.993 215.618 127.808C216.081 127.622 216.711 127.53 217.508 127.53C218.34 127.53 218.936 127.69 219.295 128.01C219.654 128.33 219.834 128.873 219.834 129.639L219.834 131.813ZM218.416 130.682C218.221 130.639 218.041 130.607 217.877 130.585C217.713 130.564 217.561 130.553 217.42 130.553C216.99 130.553 216.653 130.625 216.409 130.77C216.165 130.914 216.043 131.114 216.043 131.367C216.043 131.594 216.121 131.767 216.277 131.886C216.434 132.005 216.658 132.065 216.951 132.065C217.221 132.065 217.475 132.026 217.713 131.948C217.951 131.869 218.186 131.748 218.416 131.584L218.416 130.682Z"/>
<path d="M223.613 128.965L224.668 131.461L225.775 128.965L225.682 128.965C225.471 128.965 225.31 128.91 225.198 128.801C225.087 128.692 225.031 128.532 225.031 128.321C225.031 128.09 225.087 127.926 225.198 127.828C225.31 127.731 225.502 127.682 225.775 127.682L227.152 127.682C227.426 127.682 227.618 127.732 227.73 127.831C227.841 127.931 227.897 128.094 227.897 128.321C227.897 128.532 227.842 128.692 227.733 128.801C227.623 128.91 227.463 128.965 227.252 128.965L227.152 128.965L225.412 132.662C225.283 132.928 225.167 133.091 225.064 133.152C224.96 133.212 224.801 133.242 224.586 133.242C224.195 133.242 223.932 133.078 223.795 132.75C223.779 132.711 223.768 132.682 223.76 132.662L222.125 128.965L222.031 128.965C221.82 128.965 221.659 128.91 221.548 128.801C221.437 128.692 221.381 128.532 221.381 128.321C221.381 128.09 221.438 127.926 221.551 127.828C221.664 127.731 221.856 127.682 222.125 127.682L223.613 127.682C223.883 127.682 224.074 127.732 224.188 127.831C224.301 127.931 224.358 128.094 224.358 128.321C224.358 128.532 224.302 128.692 224.191 128.801C224.079 128.91 223.92 128.965 223.713 128.965L223.613 128.965Z"/>
<path d="M232.666 131.813L233.926 131.813C234.195 131.813 234.387 131.862 234.5 131.959C234.613 132.057 234.67 132.219 234.67 132.446C234.67 132.676 234.612 132.842 234.497 132.944C234.382 133.045 234.191 133.096 233.926 133.096L229.965 133.096C229.699 133.096 229.509 133.045 229.394 132.944C229.278 132.842 229.221 132.676 229.221 132.446C229.221 132.219 229.276 132.057 229.388 131.959C229.499 131.862 229.691 131.813 229.965 131.813L231.225 131.813L231.225 128.965L230.563 128.965C230.301 128.965 230.113 128.915 230 128.816C229.887 128.716 229.83 128.551 229.83 128.321C229.83 128.09 229.885 127.926 229.994 127.828C230.104 127.731 230.293 127.682 230.563 127.682L232.326 127.682C232.436 127.682 232.52 127.704 232.578 127.749C232.637 127.794 232.666 127.856 232.666 127.934L232.666 131.813ZM231.822 125.033C232.108 125.033 232.297 125.088 232.391 125.198C232.484 125.307 232.531 125.569 232.531 125.983C232.531 126.381 232.489 126.628 232.405 126.724C232.321 126.82 232.123 126.867 231.811 126.867C231.506 126.867 231.31 126.823 231.222 126.733C231.134 126.643 231.09 126.463 231.09 126.194C231.09 125.694 231.135 125.375 231.225 125.239C231.315 125.102 231.514 125.033 231.822 125.033Z"/>
<path d="M238.643 128.01L240.43 128.01C240.699 128.01 240.891 128.059 241.004 128.157C241.117 128.254 241.174 128.416 241.174 128.643C241.174 128.873 241.116 129.039 241.001 129.141C240.886 129.242 240.695 129.293 240.43 129.293L238.643 129.293L238.643 130.793C238.643 131.215 238.707 131.504 238.836 131.66C238.965 131.817 239.191 131.895 239.516 131.895C239.82 131.895 240.18 131.807 240.594 131.631C241.008 131.455 241.285 131.367 241.426 131.367C241.586 131.367 241.724 131.431 241.839 131.558C241.954 131.685 242.012 131.838 242.012 132.018C242.012 132.319 241.739 132.593 241.194 132.841C240.65 133.089 240.031 133.213 239.34 133.213C238.938 133.213 238.584 133.158 238.279 133.049C237.975 132.94 237.734 132.783 237.559 132.58C237.43 132.424 237.338 132.237 237.283 132.018C237.229 131.799 237.201 131.434 237.201 130.922L237.201 130.793L237.201 129.293L236.65 129.293C236.385 129.293 236.196 129.242 236.085 129.141C235.974 129.039 235.918 128.873 235.918 128.643C235.918 128.412 235.973 128.249 236.082 128.154C236.191 128.058 236.381 128.01 236.65 128.01L237.201 128.01L237.201 126.639C237.201 126.369 237.257 126.18 237.368 126.071C237.48 125.961 237.664 125.907 237.922 125.907C238.18 125.907 238.364 125.961 238.476 126.071C238.587 126.18 238.643 126.369 238.643 126.639L238.643 128.01Z"/>
<path d="M245.217 128.965L246.272 131.461L247.379 128.965L247.285 128.965C247.074 128.965 246.913 128.91 246.802 128.801C246.691 128.692 246.635 128.532 246.635 128.321C246.635 128.09 246.691 127.926 246.802 127.828C246.913 127.731 247.106 127.682 247.379 127.682L248.756 127.682C249.029 127.682 249.222 127.732 249.333 127.831C249.444 127.931 249.5 128.094 249.5 128.321C249.5 128.532 249.445 128.692 249.336 128.801C249.227 128.91 249.066 128.965 248.856 128.965L248.756 128.965L246.348 134.139L246.611 134.139C246.877 134.139 247.067 134.19 247.183 134.291C247.298 134.393 247.356 134.559 247.356 134.789C247.356 135.016 247.298 135.18 247.183 135.282C247.067 135.383 246.877 135.434 246.611 135.434L244.045 135.434C243.775 135.434 243.584 135.384 243.471 135.284C243.358 135.185 243.301 135.02 243.301 134.789C243.301 134.559 243.358 134.393 243.471 134.291C243.584 134.19 243.775 134.139 244.045 134.139L244.953 134.139L245.504 132.961L243.729 128.965L243.635 128.965C243.424 128.965 243.263 128.91 243.151 128.801C243.04 128.692 242.984 128.532 242.984 128.321C242.984 128.09 243.041 127.926 243.154 127.828C243.268 127.731 243.459 127.682 243.729 127.682L245.217 127.682C245.486 127.682 245.678 127.732 245.791 127.831C245.904 127.931 245.961 128.094 245.961 128.321C245.961 128.532 245.905 128.692 245.794 128.801C245.683 128.91 245.524 128.965 245.316 128.965L245.217 128.965Z"/>
</g>
<path d="M132.957 181.017L163.784 135.161" fill="#1e1616" fill-rule="nonzero" opacity="1" stroke="#1e1616" stroke-linecap="butt" stroke-linejoin="round" stroke-width="0.5"/>
<g fill="#1e1616" opacity="1" stroke="none">
<path d="M274.145 153.505L274.145 155.099L274.889 155.099C275.155 155.099 275.345 155.15 275.461 155.251C275.576 155.353 275.633 155.519 275.633 155.749C275.633 155.976 275.577 156.138 275.463 156.236C275.35 156.333 275.159 156.382 274.889 156.382L272.405 156.382C272.135 156.382 271.946 156.334 271.837 156.239C271.727 156.143 271.672 155.98 271.672 155.749C271.672 155.519 271.728 155.353 271.839 155.251C271.951 155.15 272.139 155.099 272.405 155.099L272.751 155.099L272.751 149.925L272.657 149.925C272.45 149.925 272.292 149.871 272.182 149.761C272.073 149.652 272.018 149.492 272.018 149.281C272.018 149.05 272.073 148.886 272.182 148.789C272.292 148.691 272.481 148.642 272.751 148.642L273.653 148.642C273.766 148.642 273.85 148.663 273.905 148.704C273.96 148.745 273.987 148.804 273.987 148.882L273.987 149.304C274.186 149.039 274.427 148.838 274.711 148.704C274.994 148.569 275.313 148.501 275.669 148.501C276.469 148.501 277.133 148.757 277.661 149.269C278.188 149.781 278.452 150.425 278.452 151.203C278.452 152.015 278.196 152.688 277.684 153.221C277.172 153.754 276.528 154.021 275.751 154.021C275.434 154.021 275.138 153.977 274.863 153.889C274.588 153.801 274.348 153.673 274.145 153.505ZM275.499 149.749C275.112 149.749 274.794 149.892 274.544 150.177C274.294 150.462 274.169 150.828 274.169 151.273C274.169 151.718 274.294 152.083 274.544 152.369C274.794 152.654 275.112 152.796 275.499 152.796C275.885 152.796 276.205 152.653 276.457 152.366C276.709 152.079 276.835 151.714 276.835 151.273C276.835 150.828 276.71 150.462 276.46 150.177C276.21 149.892 275.889 149.749 275.499 149.749Z"/>
<path d="M284.85 152.773L284.944 152.773C285.155 152.773 285.316 152.829 285.427 152.94C285.539 153.051 285.594 153.21 285.594 153.417C285.594 153.644 285.537 153.807 285.421 153.907C285.306 154.006 285.116 154.056 284.85 154.056L284.299 154.056C284.104 154.056 283.959 154.019 283.863 153.945C283.767 153.871 283.688 153.736 283.626 153.54C283.301 153.755 282.958 153.919 282.594 154.033C282.231 154.146 281.864 154.203 281.493 154.203C280.864 154.203 280.37 154.046 280.01 153.734C279.651 153.421 279.471 152.994 279.471 152.451C279.471 151.865 279.704 151.41 280.169 151.085C280.633 150.761 281.286 150.599 282.126 150.599C282.313 150.599 282.512 150.609 282.723 150.628C282.934 150.648 283.171 150.679 283.432 150.722L283.432 150.611C283.432 150.259 283.347 149.992 283.177 149.808C283.007 149.624 282.756 149.533 282.424 149.533C282.167 149.533 281.838 149.628 281.437 149.82C281.037 150.011 280.743 150.107 280.555 150.107C280.372 150.107 280.223 150.053 280.11 149.946C279.997 149.838 279.94 149.697 279.94 149.521C279.94 149.205 280.171 148.954 280.634 148.768C281.097 148.582 281.727 148.49 282.524 148.49C283.356 148.49 283.952 148.65 284.311 148.97C284.671 149.29 284.85 149.833 284.85 150.599L284.85 152.773ZM283.432 151.642C283.237 151.599 283.057 151.567 282.893 151.545C282.729 151.524 282.577 151.513 282.436 151.513C282.006 151.513 281.67 151.585 281.425 151.73C281.181 151.874 281.059 152.074 281.059 152.328C281.059 152.554 281.137 152.727 281.294 152.846C281.45 152.965 281.674 153.025 281.967 153.025C282.237 153.025 282.491 152.986 282.729 152.908C282.967 152.83 283.202 152.708 283.432 152.544L283.432 151.642Z"/>
<path d="M290.381 152.773L291.641 152.773C291.911 152.773 292.1 152.822 292.21 152.919C292.319 153.017 292.374 153.179 292.374 153.406C292.374 153.636 292.318 153.802 292.207 153.904C292.095 154.005 291.907 154.056 291.641 154.056L287.669 154.056C287.407 154.056 287.22 154.005 287.109 153.904C286.998 153.802 286.942 153.636 286.942 153.406C286.942 153.175 286.996 153.012 287.103 152.916C287.211 152.821 287.399 152.773 287.669 152.773L288.928 152.773L288.928 147.687L288.284 147.687C288.018 147.687 287.828 147.635 287.713 147.532C287.597 147.428 287.54 147.263 287.54 147.037C287.54 146.806 287.596 146.64 287.71 146.539C287.823 146.437 288.014 146.386 288.284 146.386L290.036 146.386C290.145 146.386 290.23 146.409 290.291 146.454C290.351 146.498 290.381 146.56 290.381 146.638L290.381 152.773Z"/>
<path d="M299.253 152.773L299.346 152.773C299.557 152.773 299.718 152.829 299.83 152.94C299.941 153.051 299.997 153.21 299.997 153.417C299.997 153.644 299.939 153.807 299.824 153.907C299.709 154.006 299.518 154.056 299.253 154.056L298.702 154.056C298.506 154.056 298.361 154.019 298.265 153.945C298.17 153.871 298.09 153.736 298.028 153.54C297.704 153.755 297.36 153.919 296.997 154.033C296.633 154.146 296.266 154.203 295.895 154.203C295.266 154.203 294.772 154.046 294.413 153.734C294.053 153.421 293.874 152.994 293.874 152.451C293.874 151.865 294.106 151.41 294.571 151.085C295.036 150.761 295.688 150.599 296.528 150.599C296.715 150.599 296.915 150.609 297.126 150.628C297.337 150.648 297.573 150.679 297.835 150.722L297.835 150.611C297.835 150.259 297.75 149.992 297.58 149.808C297.41 149.624 297.159 149.533 296.827 149.533C296.569 149.533 296.24 149.628 295.839 149.82C295.439 150.011 295.145 150.107 294.958 150.107C294.774 150.107 294.626 150.053 294.512 149.946C294.399 149.838 294.342 149.697 294.342 149.521C294.342 149.205 294.574 148.954 295.037 148.768C295.5 148.582 296.13 148.49 296.926 148.49C297.758 148.49 298.354 148.65 298.713 148.97C299.073 149.29 299.253 149.833 299.253 150.599L299.253 152.773ZM297.835 151.642C297.639 151.599 297.46 151.567 297.296 151.545C297.131 151.524 296.979 151.513 296.838 151.513C296.409 151.513 296.072 151.585 295.828 151.73C295.584 151.874 295.462 152.074 295.462 152.328C295.462 152.554 295.54 152.727 295.696 152.846C295.852 152.965 296.077 153.025 296.37 153.025C296.639 153.025 296.893 152.986 297.131 152.908C297.37 152.83 297.604 152.708 297.835 152.544L297.835 151.642Z"/>
<path d="M303.659 148.97L305.446 148.97C305.715 148.97 305.907 149.019 306.02 149.117C306.133 149.214 306.19 149.376 306.19 149.603C306.19 149.833 306.132 149.999 306.017 150.101C305.902 150.203 305.712 150.253 305.446 150.253L303.659 150.253L303.659 151.753C303.659 152.175 303.723 152.464 303.852 152.621C303.981 152.777 304.208 152.855 304.532 152.855C304.837 152.855 305.196 152.767 305.61 152.591C306.024 152.415 306.301 152.328 306.442 152.328C306.602 152.328 306.74 152.391 306.855 152.518C306.97 152.645 307.028 152.798 307.028 152.978C307.028 153.279 306.755 153.553 306.211 153.801C305.666 154.049 305.047 154.173 304.356 154.173C303.954 154.173 303.6 154.119 303.296 154.009C302.991 153.9 302.751 153.744 302.575 153.54C302.446 153.384 302.354 153.197 302.299 152.978C302.245 152.759 302.217 152.394 302.217 151.882L302.217 151.753L302.217 150.253L301.667 150.253C301.401 150.253 301.213 150.203 301.101 150.101C300.99 149.999 300.934 149.833 300.934 149.603C300.934 149.373 300.989 149.209 301.098 149.114C301.208 149.018 301.397 148.97 301.667 148.97L302.217 148.97L302.217 147.599C302.217 147.33 302.273 147.14 302.384 147.031C302.496 146.921 302.68 146.867 302.938 146.867C303.196 146.867 303.38 146.921 303.492 147.031C303.603 147.14 303.659 147.33 303.659 147.599L303.659 148.97Z"/>
<path d="M309.671 151.695C309.772 152.128 309.968 152.453 310.259 152.667C310.55 152.882 310.938 152.99 311.422 152.99C311.907 152.99 312.385 152.872 312.858 152.635C313.331 152.399 313.616 152.281 313.713 152.281C313.858 152.281 313.976 152.334 314.068 152.442C314.16 152.549 314.206 152.687 314.206 152.855C314.206 153.222 313.934 153.539 313.391 153.804C312.848 154.07 312.176 154.203 311.376 154.203C310.43 154.203 309.662 153.937 309.07 153.406C308.478 152.874 308.182 152.191 308.182 151.355C308.182 150.523 308.478 149.841 309.07 149.31C309.662 148.779 310.43 148.513 311.376 148.513C312.219 148.513 312.919 148.762 313.473 149.26C314.028 149.758 314.305 150.369 314.305 151.091C314.305 151.322 314.25 151.48 314.138 151.566C314.027 151.652 313.797 151.695 313.45 151.695L309.671 151.695ZM312.829 150.781C312.762 150.417 312.591 150.136 312.316 149.937C312.041 149.738 311.682 149.638 311.241 149.638C310.815 149.638 310.472 149.733 310.213 149.922C309.953 150.112 309.772 150.398 309.671 150.781L312.829 150.781Z"/>
</g>
<g fill="#1e1616" opacity="1" stroke="none">
<path d="M282.14 181.282L283.195 183.778L284.302 181.282L284.208 181.282C283.997 181.282 283.836 181.227 283.725 181.118C283.613 181.008 283.558 180.848 283.558 180.637C283.558 180.407 283.613 180.243 283.725 180.145C283.836 180.047 284.029 179.999 284.302 179.999L285.679 179.999C285.952 179.999 286.145 180.048 286.256 180.148C286.367 180.248 286.423 180.411 286.423 180.637C286.423 180.848 286.368 181.008 286.259 181.118C286.15 181.227 285.989 181.282 285.779 181.282L285.679 181.282L283.939 184.979C283.81 185.245 283.694 185.408 283.59 185.468C283.487 185.529 283.327 185.559 283.113 185.559C282.722 185.559 282.458 185.395 282.321 185.067C282.306 185.028 282.294 184.999 282.286 184.979L280.652 181.282L280.558 181.282C280.347 181.282 280.186 181.227 280.074 181.118C279.963 181.008 279.907 180.848 279.907 180.637C279.907 180.407 279.964 180.243 280.077 180.145C280.191 180.047 280.382 179.999 280.652 179.999L282.14 179.999C282.409 179.999 282.601 180.048 282.714 180.148C282.827 180.248 282.884 180.411 282.884 180.637C282.884 180.848 282.828 181.008 282.717 181.118C282.606 181.227 282.446 181.282 282.239 181.282L282.14 181.282Z"/>
<path d="M288.779 183.051C288.88 183.485 289.076 183.809 289.367 184.024C289.658 184.239 290.046 184.346 290.53 184.346C291.015 184.346 291.493 184.228 291.966 183.992C292.439 183.755 292.724 183.637 292.821 183.637C292.966 183.637 293.084 183.691 293.176 183.798C293.268 183.906 293.314 184.044 293.314 184.212C293.314 184.579 293.042 184.895 292.499 185.161C291.956 185.426 291.284 185.559 290.484 185.559C289.538 185.559 288.77 185.294 288.178 184.762C287.586 184.231 287.29 183.547 287.29 182.712C287.29 181.879 287.586 181.198 288.178 180.667C288.77 180.135 289.538 179.87 290.484 179.87C291.327 179.87 292.027 180.119 292.581 180.617C293.136 181.115 293.413 181.725 293.413 182.448C293.413 182.678 293.358 182.837 293.246 182.922C293.135 183.008 292.905 183.051 292.558 183.051L288.779 183.051ZM291.937 182.137C291.87 181.774 291.699 181.493 291.424 181.294C291.149 181.094 290.79 180.995 290.349 180.995C289.923 180.995 289.58 181.089 289.321 181.279C289.061 181.468 288.88 181.754 288.779 182.137L291.937 182.137Z"/>
<path d="M298.294 184.129L299.554 184.129C299.823 184.129 300.013 184.178 300.122 184.276C300.232 184.374 300.286 184.536 300.286 184.762C300.286 184.993 300.231 185.159 300.119 185.26C300.008 185.362 299.82 185.413 299.554 185.413L295.581 185.413C295.32 185.413 295.133 185.362 295.022 185.26C294.91 185.159 294.855 184.993 294.855 184.762C294.855 184.532 294.908 184.369 295.016 184.273C295.123 184.177 295.312 184.129 295.581 184.129L296.841 184.129L296.841 179.044L296.196 179.044C295.931 179.044 295.74 178.992 295.625 178.888C295.51 178.785 295.452 178.62 295.452 178.393C295.452 178.163 295.509 177.997 295.622 177.895C295.736 177.794 295.927 177.743 296.196 177.743L297.948 177.743C298.058 177.743 298.143 177.765 298.203 177.81C298.264 177.855 298.294 177.917 298.294 177.995L298.294 184.129Z"/>
<path d="M305.7 181.282L305.607 181.282C305.396 181.282 305.237 181.227 305.129 181.118C305.022 181.008 304.968 180.848 304.968 180.637C304.968 180.407 305.023 180.243 305.132 180.145C305.241 180.047 305.431 179.999 305.7 179.999L306.808 179.999C306.913 179.999 306.995 180.021 307.054 180.066C307.113 180.111 307.142 180.172 307.142 180.251L307.142 184.129L307.236 184.129C307.446 184.129 307.608 184.184 307.719 184.294C307.83 184.403 307.886 184.559 307.886 184.762C307.886 184.997 307.829 185.164 307.716 185.263C307.603 185.363 307.411 185.413 307.142 185.413L306.157 185.413C306.048 185.413 305.963 185.389 305.903 185.342C305.842 185.295 305.812 185.231 305.812 185.149L305.812 184.704C305.624 184.985 305.395 185.196 305.123 185.337C304.852 185.477 304.532 185.547 304.165 185.547C303.536 185.547 303.07 185.358 302.765 184.979C302.46 184.6 302.308 184.02 302.308 183.239L302.308 181.282L302.208 181.282C301.997 181.282 301.837 181.227 301.728 181.118C301.618 181.008 301.564 180.848 301.564 180.637C301.564 180.407 301.619 180.243 301.731 180.145C301.842 180.047 302.034 179.999 302.308 179.999L303.409 179.999C303.515 179.999 303.595 180.021 303.65 180.066C303.704 180.111 303.732 180.172 303.732 180.251L303.732 182.975C303.732 183.456 303.798 183.794 303.931 183.989C304.064 184.184 304.282 184.282 304.587 184.282C304.911 184.282 305.178 184.162 305.387 183.921C305.596 183.681 305.7 183.366 305.7 182.975L305.7 181.282Z"/>
<path d="M312.351 180.397C312.515 180.221 312.704 180.087 312.919 179.996C313.134 179.904 313.364 179.858 313.611 179.858C314.142 179.858 314.525 180.015 314.759 180.33C314.993 180.644 315.111 181.17 315.111 181.909L315.111 184.129L315.193 184.129C315.376 184.129 315.514 184.183 315.606 184.291C315.697 184.398 315.743 184.555 315.743 184.762C315.743 184.997 315.696 185.164 315.6 185.263C315.504 185.363 315.341 185.413 315.111 185.413L314.114 185.413C314.009 185.413 313.927 185.39 313.868 185.345C313.81 185.3 313.78 185.239 313.78 185.161L313.78 181.85C313.78 181.588 313.739 181.393 313.657 181.264C313.575 181.135 313.456 181.071 313.3 181.071C313.105 181.071 312.953 181.158 312.846 181.332C312.738 181.505 312.685 181.754 312.685 182.079L312.685 184.129L312.773 184.129C312.952 184.129 313.089 184.183 313.183 184.291C313.277 184.398 313.323 184.555 313.323 184.762C313.323 184.997 313.275 185.164 313.177 185.263C313.079 185.363 312.915 185.413 312.685 185.413L311.689 185.413C311.583 185.413 311.499 185.39 311.437 185.345C311.374 185.3 311.343 185.239 311.343 185.161L311.343 181.85C311.343 181.588 311.304 181.393 311.226 181.264C311.148 181.135 311.03 181.071 310.874 181.071C310.679 181.071 310.526 181.159 310.414 181.335C310.303 181.51 310.247 181.758 310.247 182.079L310.247 184.129L310.335 184.129C310.519 184.129 310.656 184.182 310.748 184.288C310.84 184.393 310.886 184.551 310.886 184.762C310.886 184.997 310.837 185.164 310.739 185.263C310.642 185.363 310.478 185.413 310.247 185.413L308.917 185.413C308.691 185.413 308.529 185.362 308.431 185.26C308.333 185.159 308.284 184.993 308.284 184.762C308.284 184.555 308.33 184.398 308.422 184.291C308.514 184.183 308.652 184.129 308.835 184.129L308.917 184.129L308.917 181.282L308.835 181.282C308.652 181.282 308.512 181.226 308.416 181.115C308.321 181.004 308.273 180.844 308.273 180.637C308.273 180.411 308.322 180.248 308.422 180.148C308.522 180.048 308.687 179.999 308.917 179.999L309.708 179.999C309.868 179.999 309.977 180.031 310.033 180.095C310.09 180.16 310.118 180.284 310.118 180.467C310.263 180.268 310.437 180.117 310.64 180.013C310.843 179.91 311.07 179.858 311.32 179.858C311.546 179.858 311.743 179.902 311.911 179.99C312.079 180.078 312.226 180.213 312.351 180.397Z"/>
</g>
<g fill="#1e1616" opacity="1" stroke="none">
<path d="M278.405 226.091L278.312 226.091C278.101 226.091 277.942 226.036 277.834 225.927C277.727 225.817 277.673 225.657 277.673 225.446C277.673 225.216 277.728 225.052 277.837 224.954C277.946 224.856 278.136 224.807 278.405 224.807L279.513 224.807C279.618 224.807 279.7 224.83 279.759 224.875C279.817 224.92 279.847 224.981 279.847 225.059L279.847 228.938L279.941 228.938C280.151 228.938 280.313 228.993 280.424 229.102C280.535 229.212 280.591 229.368 280.591 229.571C280.591 229.806 280.534 229.973 280.421 230.072C280.308 230.172 280.116 230.222 279.847 230.222L278.862 230.222C278.753 230.222 278.668 230.198 278.608 230.151C278.547 230.104 278.517 230.04 278.517 229.958L278.517 229.513C278.329 229.794 278.1 230.005 277.828 230.145C277.557 230.286 277.237 230.356 276.87 230.356C276.241 230.356 275.775 230.167 275.47 229.788C275.165 229.409 275.013 228.829 275.013 228.048L275.013 226.091L274.913 226.091C274.702 226.091 274.542 226.036 274.433 225.927C274.323 225.817 274.269 225.657 274.269 225.446C274.269 225.216 274.324 225.052 274.436 224.954C274.547 224.856 274.739 224.807 275.013 224.807L276.114 224.807C276.22 224.807 276.3 224.83 276.355 224.875C276.409 224.92 276.437 224.981 276.437 225.059L276.437 227.784C276.437 228.265 276.503 228.602 276.636 228.798C276.769 228.993 276.987 229.091 277.292 229.091C277.616 229.091 277.883 228.971 278.092 228.73C278.301 228.49 278.405 228.175 278.405 227.784L278.405 226.091Z"/>
<path d="M283.65 226.091L284.704 228.587L285.812 226.091L285.718 226.091C285.507 226.091 285.346 226.036 285.234 225.927C285.123 225.817 285.067 225.657 285.067 225.446C285.067 225.216 285.123 225.052 285.234 224.954C285.346 224.856 285.538 224.807 285.812 224.807L287.189 224.807C287.462 224.807 287.654 224.857 287.766 224.957C287.877 225.057 287.933 225.22 287.933 225.446C287.933 225.657 287.878 225.817 287.769 225.927C287.659 226.036 287.499 226.091 287.288 226.091L287.189 226.091L285.448 229.788C285.319 230.054 285.203 230.217 285.1 230.277C284.996 230.338 284.837 230.368 284.622 230.368C284.232 230.368 283.968 230.204 283.831 229.876C283.816 229.837 283.804 229.807 283.796 229.788L282.161 226.091L282.067 226.091C281.857 226.091 281.695 226.036 281.584 225.927C281.473 225.817 281.417 225.657 281.417 225.446C281.417 225.216 281.474 225.052 281.587 224.954C281.7 224.856 281.892 224.807 282.161 224.807L283.65 224.807C283.919 224.807 284.11 224.857 284.224 224.957C284.337 225.057 284.394 225.22 284.394 225.446C284.394 225.657 284.338 225.817 284.227 225.927C284.115 226.036 283.956 226.091 283.749 226.091L283.65 226.091Z"/>
<path d="M292.808 226.091L292.714 226.091C292.503 226.091 292.344 226.036 292.236 225.927C292.129 225.817 292.075 225.657 292.075 225.446C292.075 225.216 292.13 225.052 292.239 224.954C292.349 224.856 292.538 224.807 292.808 224.807L293.915 224.807C294.021 224.807 294.103 224.83 294.161 224.875C294.22 224.92 294.249 224.981 294.249 225.059L294.249 228.938L294.343 228.938C294.554 228.938 294.715 228.993 294.826 229.102C294.938 229.212 294.993 229.368 294.993 229.571C294.993 229.806 294.937 229.973 294.823 230.072C294.71 230.172 294.519 230.222 294.249 230.222L293.265 230.222C293.155 230.222 293.07 230.198 293.01 230.151C292.949 230.104 292.919 230.04 292.919 229.958L292.919 229.513C292.732 229.794 292.502 230.005 292.231 230.145C291.959 230.286 291.64 230.356 291.273 230.356C290.644 230.356 290.177 230.167 289.872 229.788C289.567 229.409 289.415 228.829 289.415 228.048L289.415 226.091L289.316 226.091C289.105 226.091 288.944 226.036 288.835 225.927C288.726 225.817 288.671 225.657 288.671 225.446C288.671 225.216 288.727 225.052 288.838 224.954C288.949 224.856 289.142 224.807 289.415 224.807L290.517 224.807C290.622 224.807 290.702 224.83 290.757 224.875C290.812 224.92 290.839 224.981 290.839 225.059L290.839 227.784C290.839 228.265 290.905 228.602 291.038 228.798C291.171 228.993 291.39 229.091 291.694 229.091C292.019 229.091 292.285 228.971 292.494 228.73C292.703 228.49 292.808 228.175 292.808 227.784L292.808 226.091Z"/>
<path d="M299.804 228.938L301.064 228.938C301.333 228.938 301.523 228.987 301.632 229.085C301.741 229.182 301.796 229.345 301.796 229.571C301.796 229.802 301.74 229.968 301.629 230.069C301.518 230.171 301.329 230.222 301.064 230.222L297.091 230.222C296.829 230.222 296.643 230.171 296.531 230.069C296.42 229.968 296.364 229.802 296.364 229.571C296.364 229.341 296.418 229.178 296.526 229.082C296.633 228.986 296.821 228.938 297.091 228.938L298.351 228.938L298.351 223.852L297.706 223.852C297.441 223.852 297.25 223.801 297.135 223.697C297.02 223.594 296.962 223.429 296.962 223.202C296.962 222.972 297.019 222.806 297.132 222.704C297.245 222.602 297.437 222.552 297.706 222.552L299.458 222.552C299.567 222.552 299.652 222.574 299.713 222.619C299.774 222.664 299.804 222.725 299.804 222.804L299.804 228.938Z"/>
<path d="M308.675 228.938L308.769 228.938C308.98 228.938 309.141 228.994 309.252 229.105C309.363 229.217 309.419 229.376 309.419 229.583C309.419 229.809 309.361 229.973 309.246 230.072C309.131 230.172 308.941 230.222 308.675 230.222L308.124 230.222C307.929 230.222 307.783 230.184 307.688 230.11C307.592 230.036 307.513 229.901 307.45 229.706C307.126 229.921 306.782 230.085 306.419 230.198C306.056 230.311 305.689 230.368 305.317 230.368C304.689 230.368 304.194 230.212 303.835 229.899C303.476 229.587 303.296 229.159 303.296 228.616C303.296 228.03 303.528 227.575 303.993 227.251C304.458 226.927 305.11 226.765 305.95 226.765C306.138 226.765 306.337 226.774 306.548 226.794C306.759 226.813 306.995 226.845 307.257 226.888L307.257 226.776C307.257 226.425 307.172 226.157 307.002 225.974C306.832 225.79 306.581 225.698 306.249 225.698C305.991 225.698 305.662 225.794 305.262 225.985C304.861 226.177 304.567 226.272 304.38 226.272C304.196 226.272 304.048 226.219 303.935 226.111C303.821 226.004 303.765 225.862 303.765 225.686C303.765 225.37 303.996 225.119 304.459 224.933C304.922 224.748 305.552 224.655 306.349 224.655C307.181 224.655 307.776 224.815 308.136 225.136C308.495 225.456 308.675 225.999 308.675 226.765L308.675 228.938ZM307.257 227.807C307.062 227.765 306.882 227.732 306.718 227.711C306.554 227.689 306.401 227.679 306.261 227.679C305.831 227.679 305.494 227.751 305.25 227.895C305.006 228.04 304.884 228.239 304.884 228.493C304.884 228.72 304.962 228.892 305.118 229.012C305.275 229.131 305.499 229.19 305.792 229.19C306.062 229.19 306.316 229.151 306.554 229.073C306.792 228.995 307.026 228.874 307.257 228.71L307.257 227.807Z"/>
</g>
<g fill="#1e1616" opacity="1" stroke="none">
<path d="M323.783 263.291L323.783 264.885L324.527 264.885C324.793 264.885 324.984 264.935 325.099 265.037C325.214 265.139 325.272 265.305 325.272 265.535C325.272 265.762 325.215 265.924 325.102 266.021C324.988 266.119 324.797 266.168 324.527 266.168L322.043 266.168C321.774 266.168 321.584 266.12 321.475 266.024C321.365 265.929 321.311 265.765 321.311 265.535C321.311 265.305 321.366 265.139 321.478 265.037C321.589 264.935 321.777 264.885 322.043 264.885L322.389 264.885L322.389 259.711L322.295 259.711C322.088 259.711 321.93 259.656 321.82 259.547C321.711 259.437 321.656 259.277 321.656 259.066C321.656 258.836 321.711 258.672 321.82 258.574C321.93 258.476 322.119 258.428 322.389 258.428L323.291 258.428C323.404 258.428 323.488 258.448 323.543 258.489C323.598 258.53 323.625 258.59 323.625 258.668L323.625 259.09C323.824 258.824 324.066 258.624 324.349 258.489C324.632 258.354 324.951 258.287 325.307 258.287C326.108 258.287 326.772 258.543 327.299 259.055C327.826 259.566 328.09 260.211 328.09 260.988C328.09 261.801 327.834 262.474 327.322 263.007C326.811 263.54 326.166 263.807 325.389 263.807C325.072 263.807 324.776 263.763 324.501 263.675C324.226 263.587 323.986 263.459 323.783 263.291ZM325.137 259.535C324.75 259.535 324.432 259.678 324.182 259.963C323.932 260.248 323.807 260.613 323.807 261.058C323.807 261.504 323.932 261.869 324.182 262.154C324.432 262.439 324.75 262.582 325.137 262.582C325.524 262.582 325.843 262.438 326.095 262.151C326.347 261.864 326.473 261.5 326.473 261.058C326.473 260.613 326.348 260.248 326.098 259.963C325.848 259.678 325.527 259.535 325.137 259.535Z"/>
<path d="M331.154 259.019C331.291 258.781 331.485 258.599 331.735 258.474C331.985 258.349 332.283 258.287 332.631 258.287C333.248 258.287 333.724 258.467 334.058 258.826C334.392 259.185 334.559 259.701 334.559 260.373L334.559 262.558L334.658 262.558C334.865 262.558 335.023 262.612 335.13 262.72C335.237 262.827 335.291 262.984 335.291 263.191C335.291 263.422 335.235 263.588 335.124 263.689C335.013 263.791 334.824 263.842 334.559 263.842L333.106 263.842C332.844 263.842 332.657 263.791 332.546 263.689C332.435 263.588 332.379 263.422 332.379 263.191C332.379 262.98 332.432 262.822 332.537 262.717C332.643 262.611 332.801 262.558 333.012 262.558L333.106 262.558L333.106 260.853C333.106 260.353 333.044 260.007 332.921 259.813C332.798 259.62 332.588 259.523 332.291 259.523C331.979 259.523 331.711 259.649 331.488 259.901C331.266 260.153 331.154 260.471 331.154 260.853L331.154 262.558L331.248 262.558C331.459 262.558 331.618 262.612 331.726 262.72C331.833 262.827 331.887 262.984 331.887 263.191C331.887 263.422 331.83 263.588 331.717 263.689C331.604 263.791 331.416 263.842 331.154 263.842L329.701 263.842C329.432 263.842 329.242 263.792 329.133 263.692C329.024 263.593 328.969 263.426 328.969 263.191C328.969 262.984 329.023 262.827 329.13 262.72C329.237 262.612 329.395 262.558 329.602 262.558L329.701 262.558L329.701 257.473L329.602 257.473C329.395 257.473 329.235 257.417 329.124 257.306C329.013 257.194 328.957 257.033 328.957 256.822C328.957 256.592 329.014 256.426 329.127 256.324C329.24 256.223 329.432 256.172 329.701 256.172L330.803 256.172C330.936 256.172 331.027 256.199 331.078 256.254C331.129 256.308 331.154 256.41 331.154 256.558L331.154 259.019Z"/>
<path d="M341.69 262.558L341.783 262.558C341.994 262.558 342.155 262.614 342.267 262.725C342.378 262.837 342.434 262.996 342.434 263.203C342.434 263.43 342.376 263.593 342.261 263.692C342.146 263.792 341.955 263.842 341.69 263.842L341.139 263.842C340.943 263.842 340.798 263.805 340.702 263.73C340.607 263.656 340.527 263.521 340.465 263.326C340.141 263.541 339.797 263.705 339.434 263.818C339.07 263.932 338.703 263.988 338.332 263.988C337.703 263.988 337.209 263.832 336.85 263.519C336.49 263.207 336.311 262.779 336.311 262.236C336.311 261.65 336.543 261.195 337.008 260.871C337.473 260.547 338.125 260.385 338.965 260.385C339.152 260.385 339.352 260.394 339.563 260.414C339.774 260.433 340.01 260.465 340.272 260.508L340.272 260.396C340.272 260.045 340.187 259.777 340.017 259.594C339.847 259.41 339.596 259.318 339.264 259.318C339.006 259.318 338.677 259.414 338.276 259.605C337.876 259.797 337.582 259.892 337.395 259.892C337.211 259.892 337.063 259.839 336.949 259.731C336.836 259.624 336.779 259.482 336.779 259.307C336.779 258.99 337.011 258.739 337.474 258.554C337.937 258.368 338.567 258.275 339.363 258.275C340.195 258.275 340.791 258.435 341.151 258.756C341.51 259.076 341.69 259.619 341.69 260.385L341.69 262.558ZM340.272 261.428C340.076 261.385 339.897 261.352 339.733 261.331C339.568 261.309 339.416 261.299 339.276 261.299C338.846 261.299 338.509 261.371 338.265 261.515C338.021 261.66 337.899 261.859 337.899 262.113C337.899 262.34 337.977 262.513 338.133 262.632C338.289 262.751 338.514 262.81 338.807 262.81C339.076 262.81 339.33 262.771 339.568 262.693C339.807 262.615 340.041 262.494 340.272 262.33L340.272 261.428Z"/>
<path d="M346.236 260.66L346.236 262.558L347.619 262.558C347.885 262.558 348.073 262.607 348.185 262.705C348.296 262.803 348.352 262.965 348.352 263.191C348.352 263.422 348.296 263.588 348.185 263.689C348.073 263.791 347.885 263.842 347.619 263.842L344.344 263.842C344.074 263.842 343.883 263.791 343.77 263.689C343.656 263.588 343.6 263.422 343.6 263.191C343.6 262.965 343.655 262.803 343.767 262.705C343.878 262.607 344.07 262.558 344.344 262.558L344.789 262.558L344.789 259.711L344.537 259.711C344.272 259.711 344.083 259.661 343.972 259.561C343.86 259.462 343.805 259.297 343.805 259.066C343.805 258.836 343.859 258.672 343.966 258.574C344.073 258.476 344.264 258.428 344.537 258.428L345.785 258.428C345.891 258.428 345.973 258.45 346.031 258.495C346.09 258.54 346.119 258.601 346.119 258.68L346.119 259.547C346.545 259.09 346.943 258.764 347.312 258.568C347.681 258.373 348.078 258.275 348.504 258.275C348.891 258.275 349.197 258.362 349.424 258.536C349.651 258.71 349.764 258.943 349.764 259.236C349.764 259.463 349.686 259.649 349.529 259.796C349.373 259.942 349.172 260.015 348.926 260.015C348.75 260.015 348.542 259.951 348.302 259.822C348.062 259.693 347.895 259.629 347.801 259.629C347.613 259.629 347.393 259.713 347.139 259.881C346.885 260.049 346.584 260.308 346.236 260.66Z"/>
<path d="M352.67 259.711L353.725 262.207L354.832 259.711L354.738 259.711C354.527 259.711 354.366 259.656 354.255 259.547C354.144 259.437 354.088 259.277 354.088 259.066C354.088 258.836 354.144 258.672 354.255 258.574C354.366 258.476 354.559 258.428 354.832 258.428L356.209 258.428C356.483 258.428 356.675 258.477 356.786 258.577C356.898 258.677 356.953 258.84 356.953 259.066C356.953 259.277 356.899 259.437 356.789 259.547C356.68 259.656 356.52 259.711 356.309 259.711L356.209 259.711L353.801 264.885L354.065 264.885C354.33 264.885 354.521 264.935 354.636 265.037C354.751 265.139 354.809 265.305 354.809 265.535C354.809 265.762 354.751 265.926 354.636 266.027C354.521 266.129 354.33 266.18 354.065 266.18L351.498 266.18C351.229 266.18 351.037 266.13 350.924 266.03C350.811 265.931 350.754 265.765 350.754 265.535C350.754 265.305 350.811 265.139 350.924 265.037C351.037 264.935 351.229 264.885 351.498 264.885L352.406 264.885L352.957 263.707L351.182 259.711L351.088 259.711C350.877 259.711 350.716 259.656 350.605 259.547C350.493 259.437 350.438 259.277 350.438 259.066C350.438 258.836 350.494 258.672 350.608 258.574C350.721 258.476 350.912 258.428 351.182 258.428L352.67 258.428C352.94 258.428 353.131 258.477 353.244 258.577C353.358 258.677 353.414 258.84 353.414 259.066C353.414 259.277 353.359 259.437 353.247 259.547C353.136 259.656 352.977 259.711 352.77 259.711L352.67 259.711Z"/>
<path d="M363.363 262.547L363.44 262.547C363.658 262.547 363.822 262.6 363.932 262.708C364.041 262.815 364.096 262.976 364.096 263.191C364.096 263.422 364.04 263.588 363.929 263.689C363.818 263.791 363.629 263.842 363.363 263.842L361.922 263.842C361.66 263.842 361.472 263.791 361.357 263.689C361.241 263.588 361.184 263.422 361.184 263.191C361.184 262.976 361.239 262.815 361.351 262.708C361.462 262.6 361.629 262.547 361.852 262.547L361.922 262.547L361.922 260.853C361.922 260.385 361.857 260.052 361.726 259.854C361.595 259.657 361.377 259.558 361.072 259.558C360.748 259.558 360.484 259.677 360.278 259.913C360.073 260.149 359.971 260.463 359.971 260.853L359.971 262.547L360.041 262.547C360.264 262.547 360.43 262.6 360.539 262.708C360.649 262.815 360.703 262.976 360.703 263.191C360.703 263.422 360.647 263.588 360.533 263.689C360.42 263.791 360.233 263.842 359.971 263.842L358.518 263.842C358.256 263.842 358.068 263.791 357.955 263.689C357.842 263.588 357.785 263.422 357.785 263.191C357.785 262.976 357.84 262.815 357.949 262.708C358.059 262.6 358.225 262.547 358.447 262.547L358.518 262.547L358.518 259.711L358.418 259.711C358.207 259.711 358.047 259.657 357.938 259.55C357.828 259.442 357.774 259.285 357.774 259.078C357.774 258.848 357.83 258.682 357.943 258.58C358.057 258.478 358.248 258.428 358.518 258.428L359.514 258.428C359.623 258.428 359.706 258.449 359.763 258.492C359.819 258.535 359.848 258.598 359.848 258.68L359.848 259.137C360.027 258.855 360.257 258.643 360.536 258.501C360.816 258.358 361.139 258.287 361.506 258.287C362.131 258.287 362.597 258.476 362.903 258.855C363.21 259.234 363.363 259.812 363.363 260.59L363.363 262.547Z"/>
<path d="M367.506 259.605L368.127 260.338L368.801 259.605C368.672 259.605 368.578 259.559 368.52 259.468C368.461 259.376 368.432 259.23 368.432 259.031C368.432 258.836 368.482 258.686 368.581 258.583C368.681 258.479 368.826 258.428 369.018 258.428L370.266 258.428C370.527 258.428 370.715 258.478 370.828 258.58C370.942 258.682 370.998 258.848 370.998 259.078C370.998 259.293 370.943 259.452 370.831 259.556C370.72 259.659 370.547 259.711 370.313 259.711L370.084 259.711L368.86 261.047L370.324 262.547L370.459 262.547C370.686 262.547 370.857 262.6 370.972 262.708C371.087 262.815 371.145 262.976 371.145 263.191C371.145 263.422 371.085 263.588 370.966 263.689C370.847 263.791 370.654 263.842 370.389 263.842L368.971 263.842C368.779 263.842 368.634 263.79 368.534 263.686C368.435 263.583 368.385 263.435 368.385 263.244C368.385 263.041 368.415 262.893 368.476 262.802C368.536 262.71 368.633 262.664 368.766 262.664L368.813 262.664L368.068 261.838L367.348 262.664L367.371 262.664C367.512 262.664 367.613 262.708 367.676 262.796C367.738 262.884 367.77 263.019 367.77 263.203C367.77 263.422 367.722 263.583 367.626 263.686C367.53 263.79 367.383 263.842 367.184 263.842L365.936 263.842C365.67 263.842 365.482 263.791 365.37 263.689C365.259 263.588 365.203 263.422 365.203 263.191C365.203 262.976 365.257 262.815 365.364 262.708C365.472 262.6 365.633 262.547 365.848 262.547L365.959 262.547L367.348 261.14L366.006 259.711L365.824 259.711C365.594 259.711 365.42 259.658 365.303 259.553C365.186 259.447 365.127 259.289 365.127 259.078C365.127 258.848 365.186 258.682 365.303 258.58C365.42 258.478 365.61 258.428 365.871 258.428L367.289 258.428C367.488 258.428 367.636 258.48 367.732 258.586C367.827 258.691 367.875 258.851 367.875 259.066C367.875 259.246 367.845 259.381 367.784 259.471C367.724 259.56 367.631 259.605 367.506 259.605Z"/>
</g>
<g fill="#1e1616" opacity="1" stroke="none">
<path d="M325.002 306.089L326.261 306.089C326.531 306.089 326.72 306.138 326.83 306.235C326.939 306.333 326.994 306.495 326.994 306.722C326.994 306.952 326.938 307.118 326.827 307.22C326.716 307.321 326.527 307.372 326.261 307.372L322.289 307.372C322.027 307.372 321.841 307.321 321.729 307.22C321.618 307.118 321.562 306.952 321.562 306.722C321.562 306.491 321.616 306.328 321.723 306.233C321.831 306.137 322.019 306.089 322.289 306.089L323.549 306.089L323.549 301.003L322.904 301.003C322.638 301.003 322.448 300.951 322.333 300.848C322.217 300.744 322.16 300.579 322.16 300.353C322.16 300.122 322.217 299.956 322.33 299.855C322.443 299.753 322.634 299.702 322.904 299.702L324.656 299.702C324.765 299.702 324.85 299.725 324.911 299.77C324.971 299.815 325.002 299.876 325.002 299.954L325.002 306.089Z"/>
<path d="M333.873 306.089L333.967 306.089C334.177 306.089 334.339 306.145 334.45 306.256C334.561 306.367 334.617 306.527 334.617 306.734C334.617 306.96 334.559 307.123 334.444 307.223C334.329 307.322 334.138 307.372 333.873 307.372L333.322 307.372C333.127 307.372 332.981 307.335 332.885 307.261C332.79 307.187 332.711 307.052 332.648 306.857C332.324 307.071 331.98 307.235 331.617 307.349C331.254 307.462 330.886 307.519 330.515 307.519C329.886 307.519 329.392 307.362 329.033 307.05C328.674 306.737 328.494 306.31 328.494 305.767C328.494 305.181 328.726 304.726 329.191 304.402C329.656 304.077 330.308 303.915 331.148 303.915C331.336 303.915 331.535 303.925 331.746 303.944C331.957 303.964 332.193 303.995 332.455 304.038L332.455 303.927C332.455 303.575 332.37 303.308 332.2 303.124C332.03 302.941 331.779 302.849 331.447 302.849C331.189 302.849 330.86 302.944 330.46 303.136C330.059 303.327 329.765 303.423 329.578 303.423C329.394 303.423 329.246 303.369 329.133 303.262C329.019 303.154 328.963 303.013 328.963 302.837C328.963 302.521 329.194 302.27 329.657 302.084C330.12 301.899 330.75 301.806 331.547 301.806C332.379 301.806 332.974 301.966 333.334 302.286C333.693 302.607 333.873 303.15 333.873 303.915L333.873 306.089ZM332.455 304.958C332.259 304.915 332.08 304.883 331.916 304.861C331.752 304.84 331.599 304.829 331.459 304.829C331.029 304.829 330.692 304.902 330.448 305.046C330.204 305.191 330.082 305.39 330.082 305.644C330.082 305.87 330.16 306.043 330.316 306.162C330.472 306.281 330.697 306.341 330.99 306.341C331.259 306.341 331.513 306.302 331.752 306.224C331.99 306.146 332.224 306.025 332.455 305.86L332.455 304.958Z"/>
<path d="M338.42 304.191L338.42 306.089L339.802 306.089C340.068 306.089 340.257 306.138 340.368 306.235C340.479 306.333 340.535 306.495 340.535 306.722C340.535 306.952 340.479 307.118 340.368 307.22C340.257 307.321 340.068 307.372 339.802 307.372L336.527 307.372C336.258 307.372 336.066 307.321 335.953 307.22C335.84 307.118 335.783 306.952 335.783 306.722C335.783 306.495 335.839 306.333 335.95 306.235C336.061 306.138 336.254 306.089 336.527 306.089L336.972 306.089L336.972 303.241L336.72 303.241C336.455 303.241 336.266 303.192 336.155 303.092C336.044 302.992 335.988 302.827 335.988 302.597C335.988 302.366 336.042 302.202 336.149 302.105C336.257 302.007 336.447 301.958 336.72 301.958L337.968 301.958C338.074 301.958 338.156 301.981 338.215 302.026C338.273 302.07 338.302 302.132 338.302 302.21L338.302 303.077C338.728 302.62 339.126 302.294 339.495 302.099C339.864 301.903 340.261 301.806 340.687 301.806C341.074 301.806 341.381 301.893 341.607 302.067C341.834 302.24 341.947 302.474 341.947 302.767C341.947 302.993 341.869 303.18 341.713 303.326C341.556 303.473 341.355 303.546 341.109 303.546C340.933 303.546 340.725 303.482 340.485 303.353C340.245 303.224 340.078 303.159 339.984 303.159C339.797 303.159 339.576 303.243 339.322 303.411C339.068 303.579 338.767 303.839 338.42 304.191Z"/>
<path d="M344.853 303.241L345.908 305.737L347.015 303.241L346.922 303.241C346.711 303.241 346.55 303.187 346.438 303.077C346.327 302.968 346.271 302.808 346.271 302.597C346.271 302.366 346.327 302.202 346.438 302.105C346.55 302.007 346.742 301.958 347.015 301.958L348.392 301.958C348.666 301.958 348.858 302.008 348.969 302.108C349.081 302.207 349.136 302.37 349.136 302.597C349.136 302.808 349.082 302.968 348.972 303.077C348.863 303.187 348.703 303.241 348.492 303.241L348.392 303.241L345.984 308.415L346.248 308.415C346.513 308.415 346.704 308.466 346.819 308.568C346.934 308.669 346.992 308.835 346.992 309.066C346.992 309.292 346.934 309.456 346.819 309.558C346.704 309.659 346.513 309.71 346.248 309.71L343.681 309.71C343.412 309.71 343.22 309.66 343.107 309.561C342.994 309.461 342.937 309.296 342.937 309.066C342.937 308.835 342.994 308.669 343.107 308.568C343.22 308.466 343.412 308.415 343.681 308.415L344.59 308.415L345.14 307.237L343.365 303.241L343.271 303.241C343.06 303.241 342.899 303.187 342.788 303.077C342.676 302.968 342.621 302.808 342.621 302.597C342.621 302.366 342.677 302.202 342.791 302.105C342.904 302.007 343.095 301.958 343.365 301.958L344.853 301.958C345.123 301.958 345.314 302.008 345.427 302.108C345.541 302.207 345.597 302.37 345.597 302.597C345.597 302.808 345.542 302.968 345.43 303.077C345.319 303.187 345.16 303.241 344.953 303.241L344.853 303.241Z"/>
<path d="M355.547 306.077L355.623 306.077C355.842 306.077 356.006 306.131 356.115 306.238C356.224 306.346 356.279 306.507 356.279 306.722C356.279 306.952 356.223 307.118 356.112 307.22C356.001 307.321 355.812 307.372 355.547 307.372L354.105 307.372C353.843 307.372 353.655 307.321 353.54 307.22C353.425 307.118 353.367 306.952 353.367 306.722C353.367 306.507 353.423 306.346 353.534 306.238C353.645 306.131 353.812 306.077 354.035 306.077L354.105 306.077L354.105 304.384C354.105 303.915 354.04 303.582 353.909 303.385C353.778 303.188 353.56 303.089 353.256 303.089C352.931 303.089 352.667 303.207 352.462 303.444C352.257 303.68 352.154 303.993 352.154 304.384L352.154 306.077L352.224 306.077C352.447 306.077 352.613 306.131 352.722 306.238C352.832 306.346 352.886 306.507 352.886 306.722C352.886 306.952 352.83 307.118 352.717 307.22C352.603 307.321 352.416 307.372 352.154 307.372L350.701 307.372C350.439 307.372 350.252 307.321 350.138 307.22C350.025 307.118 349.968 306.952 349.968 306.722C349.968 306.507 350.023 306.346 350.133 306.238C350.242 306.131 350.408 306.077 350.631 306.077L350.701 306.077L350.701 303.241L350.601 303.241C350.39 303.241 350.23 303.188 350.121 303.08C350.011 302.973 349.957 302.816 349.957 302.609C349.957 302.378 350.013 302.212 350.127 302.11C350.24 302.009 350.431 301.958 350.701 301.958L351.697 301.958C351.806 301.958 351.889 301.98 351.946 302.023C352.003 302.066 352.031 302.128 352.031 302.21L352.031 302.667C352.211 302.386 352.44 302.174 352.719 302.031C352.999 301.889 353.322 301.818 353.689 301.818C354.314 301.818 354.78 302.007 355.087 302.386C355.393 302.765 355.547 303.343 355.547 304.12L355.547 306.077Z"/>
<path d="M359.689 303.136L360.31 303.868L360.984 303.136C360.855 303.136 360.761 303.09 360.703 302.998C360.644 302.906 360.615 302.761 360.615 302.562C360.615 302.366 360.665 302.217 360.764 302.113C360.864 302.01 361.009 301.958 361.201 301.958L362.449 301.958C362.711 301.958 362.898 302.009 363.011 302.11C363.125 302.212 363.181 302.378 363.181 302.609C363.181 302.823 363.126 302.983 363.014 303.086C362.903 303.19 362.73 303.241 362.496 303.241L362.267 303.241L361.043 304.577L362.508 306.077L362.642 306.077C362.869 306.077 363.04 306.131 363.155 306.238C363.27 306.346 363.328 306.507 363.328 306.722C363.328 306.952 363.268 307.118 363.149 307.22C363.03 307.321 362.838 307.372 362.572 307.372L361.154 307.372C360.963 307.372 360.817 307.32 360.717 307.217C360.618 307.113 360.568 306.966 360.568 306.775C360.568 306.571 360.598 306.424 360.659 306.332C360.719 306.24 360.816 306.194 360.949 306.194L360.996 306.194L360.252 305.368L359.531 306.194L359.554 306.194C359.695 306.194 359.797 306.238 359.859 306.326C359.922 306.414 359.953 306.55 359.953 306.734C359.953 306.952 359.905 307.113 359.809 307.217C359.714 307.32 359.566 307.372 359.367 307.372L358.119 307.372C357.853 307.372 357.665 307.321 357.553 307.22C357.442 307.118 357.386 306.952 357.386 306.722C357.386 306.507 357.44 306.346 357.548 306.238C357.655 306.131 357.816 306.077 358.031 306.077L358.142 306.077L359.531 304.671L358.189 303.241L358.008 303.241C357.777 303.241 357.603 303.189 357.486 303.083C357.369 302.978 357.31 302.819 357.31 302.609C357.31 302.378 357.369 302.212 357.486 302.11C357.603 302.009 357.793 301.958 358.054 301.958L359.472 301.958C359.672 301.958 359.819 302.011 359.915 302.116C360.01 302.222 360.058 302.382 360.058 302.597C360.058 302.777 360.028 302.911 359.967 303.001C359.907 303.091 359.814 303.136 359.689 303.136Z"/>
</g>
<g fill="#1e1616" opacity="1" stroke="none">
<path d="M78.0579 347.197L79.1126 349.693L80.22 347.197L80.1263 347.197C79.9153 347.197 79.7542 347.142 79.6429 347.033C79.5315 346.923 79.4759 346.763 79.4759 346.552C79.4759 346.322 79.5315 346.158 79.6429 346.06C79.7542 345.962 79.9466 345.913 80.22 345.913L81.597 345.913C81.8704 345.913 82.0628 345.963 82.1741 346.063C82.2854 346.162 82.3411 346.326 82.3411 346.552C82.3411 346.763 82.2864 346.923 82.177 347.033C82.0677 347.142 81.9075 347.197 81.6966 347.197L81.597 347.197L79.8567 350.894C79.7278 351.16 79.6116 351.323 79.5081 351.383C79.4046 351.444 79.2454 351.474 79.0306 351.474C78.6399 351.474 78.3763 351.31 78.2395 350.982C78.2239 350.943 78.2122 350.913 78.2044 350.894L76.5696 347.197L76.4759 347.197C76.2649 347.197 76.1038 347.142 75.9925 347.033C75.8811 346.923 75.8255 346.763 75.8255 346.552C75.8255 346.322 75.8821 346.158 75.9954 346.06C76.1087 345.962 76.3001 345.913 76.5696 345.913L78.0579 345.913C78.3274 345.913 78.5188 345.963 78.6321 346.063C78.7454 346.162 78.802 346.326 78.802 346.552C78.802 346.763 78.7464 346.923 78.6351 347.033C78.5237 347.142 78.3645 347.197 78.1575 347.197L78.0579 347.197Z"/>
<path d="M86.2903 347.021C85.8333 347.021 85.4573 347.17 85.1624 347.469C84.8675 347.768 84.72 348.15 84.72 348.615C84.72 349.083 84.8675 349.471 85.1624 349.778C85.4573 350.084 85.8333 350.238 86.2903 350.238C86.7474 350.238 87.1243 350.084 87.4212 349.778C87.7181 349.471 87.8665 349.083 87.8665 348.615C87.8665 348.15 87.719 347.768 87.4241 347.469C87.1292 347.17 86.7513 347.021 86.2903 347.021ZM86.2903 345.785C87.2395 345.785 88.0091 346.05 88.5989 346.581C89.1888 347.113 89.4837 347.794 89.4837 348.626C89.4837 349.462 89.1888 350.146 88.5989 350.677C88.0091 351.208 87.2395 351.474 86.2903 351.474C85.345 351.474 84.5774 351.208 83.9876 350.677C83.3977 350.146 83.1028 349.462 83.1028 348.626C83.1028 347.794 83.3987 347.113 83.9905 346.581C84.5823 346.05 85.3489 345.785 86.2903 345.785Z"/>
<path d="M95.2317 346.23C95.2786 346.077 95.3519 345.963 95.4515 345.887C95.5511 345.811 95.679 345.773 95.8352 345.773C96.0462 345.773 96.1966 345.836 96.2864 345.963C96.3763 346.09 96.4212 346.31 96.4212 346.622L96.4212 347.583C96.4212 347.822 96.3724 347.997 96.2747 348.111C96.177 348.224 96.0267 348.281 95.8235 348.281C95.679 348.281 95.5579 348.247 95.4602 348.181C95.3626 348.115 95.2591 347.988 95.1497 347.8C94.9935 347.535 94.7884 347.338 94.5345 347.211C94.2806 347.084 93.97 347.021 93.6028 347.021C93.1458 347.021 92.7718 347.17 92.4808 347.469C92.1897 347.768 92.0442 348.15 92.0442 348.615C92.0442 349.103 92.1946 349.495 92.4954 349.792C92.7962 350.089 93.2005 350.238 93.7083 350.238C94.1692 350.238 94.6272 350.11 95.0823 349.854C95.5374 349.598 95.8157 349.47 95.9173 349.47C96.0618 349.47 96.1819 349.526 96.2776 349.637C96.3733 349.748 96.4212 349.888 96.4212 350.056C96.4212 350.423 96.1429 350.751 95.5862 351.04C95.0296 351.329 94.3685 351.474 93.6028 351.474C92.6575 351.474 91.889 351.208 91.2972 350.677C90.7054 350.146 90.4095 349.462 90.4095 348.626C90.4095 347.81 90.7024 347.13 91.2884 346.587C91.8743 346.044 92.6126 345.773 93.5032 345.773C93.804 345.773 94.097 345.81 94.3821 345.884C94.6673 345.958 94.9505 346.074 95.2317 346.23Z"/>
<path d="M103.083 350.044L103.177 350.044C103.388 350.044 103.549 350.1 103.66 350.211C103.772 350.323 103.827 350.482 103.827 350.689C103.827 350.915 103.77 351.078 103.655 351.178C103.539 351.278 103.349 351.327 103.083 351.327L102.533 351.327C102.337 351.327 102.192 351.29 102.096 351.216C102 351.142 101.921 351.007 101.859 350.812C101.534 351.027 101.191 351.191 100.827 351.304C100.464 351.417 100.097 351.474 99.7259 351.474C99.097 351.474 98.6028 351.318 98.2435 351.005C97.8841 350.693 97.7044 350.265 97.7044 349.722C97.7044 349.136 97.9368 348.681 98.4017 348.357C98.8665 348.033 99.5188 347.87 100.359 347.87C100.546 347.87 100.745 347.88 100.956 347.9C101.167 347.919 101.404 347.951 101.665 347.994L101.665 347.882C101.665 347.531 101.58 347.263 101.41 347.079C101.241 346.896 100.99 346.804 100.658 346.804C100.4 346.804 100.071 346.9 99.6702 347.091C99.2698 347.283 98.9759 347.378 98.7884 347.378C98.6048 347.378 98.4563 347.325 98.3431 347.217C98.2298 347.11 98.1731 346.968 98.1731 346.792C98.1731 346.476 98.4046 346.225 98.8675 346.039C99.3304 345.854 99.9602 345.761 100.757 345.761C101.589 345.761 102.185 345.921 102.544 346.242C102.904 346.562 103.083 347.105 103.083 347.87L103.083 350.044ZM101.665 348.913C101.47 348.87 101.29 348.838 101.126 348.817C100.962 348.795 100.81 348.785 100.669 348.785C100.24 348.785 99.9026 348.857 99.6585 349.001C99.4144 349.146 99.2923 349.345 99.2923 349.599C99.2923 349.826 99.3704 349.998 99.5267 350.118C99.6829 350.237 99.9075 350.296 100.2 350.296C100.47 350.296 100.724 350.257 100.962 350.179C101.2 350.101 101.435 349.98 101.665 349.816L101.665 348.913Z"/>
<path d="M108.615 350.044L109.874 350.044C110.144 350.044 110.333 350.093 110.443 350.191C110.552 350.288 110.607 350.451 110.607 350.677C110.607 350.908 110.551 351.074 110.44 351.175C110.328 351.277 110.14 351.327 109.874 351.327L105.902 351.327C105.64 351.327 105.453 351.277 105.342 351.175C105.231 351.074 105.175 350.908 105.175 350.677C105.175 350.447 105.229 350.284 105.336 350.188C105.444 350.092 105.632 350.044 105.902 350.044L107.161 350.044L107.161 344.958L106.517 344.958C106.251 344.958 106.061 344.907 105.946 344.803C105.83 344.7 105.773 344.535 105.773 344.308C105.773 344.077 105.829 343.911 105.943 343.81C106.056 343.708 106.247 343.658 106.517 343.658L108.269 343.658C108.378 343.658 108.463 343.68 108.524 343.725C108.584 343.77 108.615 343.831 108.615 343.91L108.615 350.044Z"/>
<path d="M124.036 346.23C124.083 346.077 124.157 345.963 124.256 345.887C124.356 345.811 124.484 345.773 124.64 345.773C124.851 345.773 125.001 345.836 125.091 345.963C125.181 346.09 125.226 346.31 125.226 346.622L125.226 347.583C125.226 347.822 125.177 347.997 125.079 348.111C124.982 348.224 124.831 348.281 124.628 348.281C124.484 348.281 124.363 348.247 124.265 348.181C124.167 348.115 124.064 347.988 123.954 347.8C123.798 347.535 123.593 347.338 123.339 347.211C123.085 347.084 122.775 347.021 122.408 347.021C121.95 347.021 121.576 347.17 121.285 347.469C120.994 347.768 120.849 348.15 120.849 348.615C120.849 349.103 120.999 349.495 121.3 349.792C121.601 350.089 122.005 350.238 122.513 350.238C122.974 350.238 123.432 350.11 123.887 349.854C124.342 349.598 124.62 349.47 124.722 349.47C124.866 349.47 124.987 349.526 125.082 349.637C125.178 349.748 125.226 349.888 125.226 350.056C125.226 350.423 124.948 350.751 124.391 351.04C123.834 351.329 123.173 351.474 122.408 351.474C121.462 351.474 120.694 351.208 120.102 350.677C119.51 350.146 119.214 349.462 119.214 348.626C119.214 347.81 119.507 347.13 120.093 346.587C120.679 346.044 121.417 345.773 122.308 345.773C122.609 345.773 122.902 345.81 123.187 345.884C123.472 345.958 123.755 346.074 124.036 346.23Z"/>
<path d="M129.497 347.021C129.04 347.021 128.664 347.17 128.369 347.469C128.075 347.768 127.927 348.15 127.927 348.615C127.927 349.083 128.075 349.471 128.369 349.778C128.664 350.084 129.04 350.238 129.497 350.238C129.954 350.238 130.331 350.084 130.628 349.778C130.925 349.471 131.074 349.083 131.074 348.615C131.074 348.15 130.926 347.768 130.631 347.469C130.336 347.17 129.958 347.021 129.497 347.021ZM129.497 345.785C130.447 345.785 131.216 346.05 131.806 346.581C132.396 347.113 132.691 347.794 132.691 348.626C132.691 349.462 132.396 350.146 131.806 350.677C131.216 351.208 130.447 351.474 129.497 351.474C128.552 351.474 127.784 351.208 127.195 350.677C126.605 350.146 126.31 349.462 126.31 348.626C126.31 347.794 126.606 347.113 127.198 346.581C127.789 346.05 128.556 345.785 129.497 345.785Z"/>
<path d="M139.195 350.044L139.294 350.044C139.505 350.044 139.663 350.098 139.769 350.205C139.874 350.313 139.927 350.47 139.927 350.677C139.927 350.908 139.871 351.074 139.76 351.175C139.649 351.277 139.46 351.327 139.195 351.327L138.298 351.327C138.185 351.327 138.098 351.305 138.037 351.26C137.977 351.215 137.947 351.154 137.947 351.076L137.947 350.665C137.755 350.927 137.509 351.127 137.208 351.266C136.908 351.405 136.57 351.474 136.195 351.474C135.429 351.474 134.788 351.213 134.273 350.692C133.757 350.17 133.499 349.519 133.499 348.738C133.499 347.925 133.76 347.251 134.282 346.716C134.803 346.181 135.466 345.913 136.271 345.913C136.548 345.913 136.819 345.959 137.082 346.051C137.346 346.143 137.587 346.273 137.806 346.441L137.806 344.958L137.027 344.958C136.757 344.958 136.566 344.907 136.452 344.803C136.339 344.7 136.283 344.535 136.283 344.308C136.283 344.077 136.339 343.911 136.452 343.81C136.566 343.708 136.757 343.658 137.027 343.658L138.849 343.658C138.982 343.658 139.073 343.685 139.121 343.74C139.17 343.794 139.195 343.896 139.195 344.044L139.195 350.044ZM136.447 347.161C136.064 347.161 135.746 347.305 135.494 347.592C135.242 347.879 135.116 348.244 135.116 348.685C135.116 349.138 135.241 349.508 135.491 349.795C135.741 350.082 136.06 350.226 136.447 350.226C136.833 350.226 137.153 350.081 137.405 349.792C137.657 349.503 137.783 349.134 137.783 348.685C137.783 348.247 137.656 347.884 137.402 347.595C137.148 347.306 136.829 347.161 136.447 347.161Z"/>
<path d="M142.306 348.966C142.408 349.4 142.604 349.724 142.895 349.939C143.186 350.154 143.574 350.261 144.058 350.261C144.542 350.261 145.021 350.143 145.493 349.907C145.966 349.67 146.251 349.552 146.349 349.552C146.493 349.552 146.612 349.606 146.703 349.713C146.795 349.821 146.841 349.958 146.841 350.126C146.841 350.494 146.57 350.81 146.027 351.076C145.484 351.341 144.812 351.474 144.011 351.474C143.066 351.474 142.297 351.208 141.705 350.677C141.114 350.146 140.818 349.462 140.818 348.626C140.818 347.794 141.114 347.113 141.705 346.581C142.297 346.05 143.066 345.785 144.011 345.785C144.855 345.785 145.554 346.034 146.109 346.532C146.663 347.03 146.941 347.64 146.941 348.363C146.941 348.593 146.885 348.751 146.774 348.837C146.662 348.923 146.433 348.966 146.085 348.966L142.306 348.966ZM145.464 348.052C145.398 347.689 145.227 347.408 144.951 347.208C144.676 347.009 144.318 346.91 143.876 346.91C143.45 346.91 143.108 347.004 142.848 347.194C142.588 347.383 142.408 347.669 142.306 348.052L145.464 348.052Z"/>
</g>
<g fill="#1e1616" opacity="1" stroke="none">
<path d="M37.5921 324.636L39.3792 324.636C39.6487 324.636 39.8401 324.685 39.9534 324.783C40.0667 324.88 40.1233 325.042 40.1233 325.269C40.1233 325.499 40.0657 325.665 39.9505 325.767C39.8352 325.869 39.6448 325.919 39.3792 325.919L37.5921 325.919L37.5921 327.419C37.5921 327.841 37.6565 328.13 37.7854 328.287C37.9143 328.443 38.1409 328.521 38.4651 328.521C38.7698 328.521 39.1292 328.433 39.5433 328.257C39.9573 328.081 40.2347 327.994 40.3753 327.994C40.5354 327.994 40.6731 328.057 40.7884 328.184C40.9036 328.311 40.9612 328.464 40.9612 328.644C40.9612 328.945 40.6888 329.219 40.1438 329.467C39.5989 329.715 38.9808 329.839 38.2893 329.839C37.887 329.839 37.5335 329.785 37.2288 329.675C36.9241 329.566 36.6839 329.41 36.5081 329.206C36.3792 329.05 36.2874 328.863 36.2327 328.644C36.178 328.425 36.1507 328.06 36.1507 327.548L36.1507 327.419L36.1507 325.919L35.5999 325.919C35.3343 325.919 35.1458 325.869 35.0345 325.767C34.9231 325.665 34.8675 325.499 34.8675 325.269C34.8675 325.038 34.9222 324.875 35.0315 324.78C35.1409 324.684 35.3304 324.636 35.5999 324.636L36.1507 324.636L36.1507 323.265C36.1507 322.995 36.2063 322.806 36.3177 322.697C36.429 322.587 36.6136 322.533 36.8714 322.533C37.1292 322.533 37.3138 322.587 37.4251 322.697C37.5364 322.806 37.5921 322.995 37.5921 323.265L37.5921 324.636Z"/>
<path d="M45.1975 325.415C44.7405 325.415 44.3645 325.565 44.0696 325.864C43.7747 326.162 43.6272 326.544 43.6272 327.009C43.6272 327.478 43.7747 327.866 44.0696 328.172C44.3645 328.479 44.7405 328.632 45.1975 328.632C45.6546 328.632 46.0315 328.479 46.3284 328.172C46.6253 327.866 46.7737 327.478 46.7737 327.009C46.7737 326.544 46.6263 326.162 46.3313 325.864C46.0364 325.565 45.6585 325.415 45.1975 325.415ZM45.1975 324.179C46.1468 324.179 46.9163 324.445 47.5061 324.976C48.096 325.507 48.3909 326.189 48.3909 327.021C48.3909 327.857 48.096 328.54 47.5061 329.072C46.9163 329.603 46.1468 329.869 45.1975 329.869C44.2522 329.869 43.4847 329.603 42.8948 329.072C42.305 328.54 42.01 327.857 42.01 327.021C42.01 326.189 42.3059 325.507 42.8977 324.976C43.4895 324.445 44.2561 324.179 45.1975 324.179Z"/>
<path d="M54.8597 328.427L54.9358 328.427C55.1546 328.427 55.3186 328.481 55.428 328.588C55.5374 328.696 55.5921 328.857 55.5921 329.072C55.5921 329.302 55.5364 329.468 55.4251 329.57C55.3138 329.671 55.1253 329.722 54.8597 329.722L53.4183 329.722C53.1565 329.722 52.9681 329.671 52.8528 329.57C52.7376 329.468 52.68 329.302 52.68 329.072C52.68 328.857 52.7356 328.696 52.847 328.588C52.9583 328.481 53.1253 328.427 53.3479 328.427L53.4183 328.427L53.4183 326.734C53.4183 326.265 53.3528 325.932 53.222 325.735C53.0911 325.537 52.8733 325.439 52.5686 325.439C52.2444 325.439 51.9798 325.557 51.7747 325.793C51.5696 326.03 51.4671 326.343 51.4671 326.734L51.4671 328.427L51.5374 328.427C51.76 328.427 51.9261 328.481 52.0354 328.588C52.1448 328.696 52.1995 328.857 52.1995 329.072C52.1995 329.302 52.1429 329.468 52.0296 329.57C51.9163 329.671 51.7288 329.722 51.4671 329.722L50.014 329.722C49.7522 329.722 49.5647 329.671 49.4515 329.57C49.3382 329.468 49.2815 329.302 49.2815 329.072C49.2815 328.857 49.3362 328.696 49.4456 328.588C49.555 328.481 49.721 328.427 49.9436 328.427L50.014 328.427L50.014 325.591L49.9143 325.591C49.7034 325.591 49.5433 325.537 49.4339 325.43C49.3245 325.323 49.2698 325.165 49.2698 324.958C49.2698 324.728 49.3265 324.562 49.4397 324.46C49.553 324.359 49.7444 324.308 50.014 324.308L51.01 324.308C51.1194 324.308 51.2024 324.329 51.2591 324.372C51.3157 324.415 51.344 324.478 51.344 324.56L51.344 325.017C51.5237 324.736 51.7532 324.524 52.0325 324.381C52.3118 324.239 52.635 324.167 53.0022 324.167C53.6272 324.167 54.0931 324.357 54.3997 324.736C54.7063 325.115 54.8597 325.693 54.8597 326.47L54.8597 328.427Z"/>
<path d="M59.3479 325.404C58.9651 325.404 58.6477 325.542 58.3958 325.82C58.1438 326.097 58.0179 326.451 58.0179 326.88C58.0179 327.302 58.1438 327.651 58.3958 327.926C58.6477 328.202 58.9651 328.339 59.3479 328.339C59.7347 328.339 60.054 328.202 60.3059 327.926C60.5579 327.651 60.6839 327.302 60.6839 326.88C60.6839 326.451 60.5579 326.097 60.3059 325.82C60.054 325.542 59.7347 325.404 59.3479 325.404ZM60.8011 324.853L60.8011 324.548C60.8011 324.47 60.8294 324.411 60.886 324.37C60.9427 324.328 61.0276 324.308 61.1409 324.308L62.096 324.308C62.3655 324.308 62.555 324.358 62.6643 324.457C62.7737 324.557 62.8284 324.72 62.8284 324.947C62.8284 325.158 62.7747 325.318 62.6673 325.427C62.5599 325.537 62.4026 325.591 62.1956 325.591L62.096 325.591L62.096 329.628C62.096 330.484 61.8636 331.105 61.3987 331.492C60.9339 331.878 60.1878 332.072 59.1604 332.072C58.5237 332.072 58.0559 332.009 57.7571 331.884C57.4583 331.759 57.3089 331.562 57.3089 331.292C57.3089 331.105 57.3694 330.953 57.4905 330.835C57.6116 330.718 57.7718 330.66 57.971 330.66C58.0218 330.66 58.1897 330.677 58.4749 330.712C58.76 330.747 59.0237 330.765 59.2659 330.765C59.8245 330.765 60.2102 330.66 60.4231 330.449C60.636 330.238 60.7425 329.859 60.7425 329.312L60.7425 329.048C60.4651 329.208 60.1907 329.327 59.9192 329.403C59.6477 329.479 59.3655 329.517 59.0725 329.517C58.2874 329.517 57.6458 329.272 57.1477 328.782C56.6497 328.291 56.4007 327.662 56.4007 326.892C56.4007 326.099 56.6614 325.447 57.1829 324.935C57.7044 324.423 58.3714 324.167 59.1839 324.167C59.5354 324.167 59.844 324.223 60.1097 324.334C60.3753 324.446 60.6058 324.619 60.8011 324.853Z"/>
<path d="M67.7268 325.591L67.6331 325.591C67.4222 325.591 67.263 325.537 67.1556 325.427C67.0481 325.318 66.9944 325.158 66.9944 324.947C66.9944 324.716 67.0491 324.552 67.1585 324.454C67.2679 324.357 67.4573 324.308 67.7268 324.308L68.8343 324.308C68.9397 324.308 69.0218 324.33 69.0804 324.375C69.139 324.42 69.1683 324.482 69.1683 324.56L69.1683 328.439L69.262 328.439C69.4729 328.439 69.6341 328.494 69.7454 328.603C69.8567 328.712 69.9124 328.869 69.9124 329.072C69.9124 329.306 69.8558 329.473 69.7425 329.573C69.6292 329.672 69.4378 329.722 69.1683 329.722L68.1839 329.722C68.0745 329.722 67.9895 329.699 67.929 329.652C67.8684 329.605 67.8382 329.54 67.8382 329.458L67.8382 329.013C67.6507 329.294 67.4212 329.505 67.1497 329.646C66.8782 329.787 66.5589 329.857 66.1917 329.857C65.5628 329.857 65.096 329.667 64.7913 329.288C64.4866 328.91 64.3343 328.329 64.3343 327.548L64.3343 325.591L64.2347 325.591C64.0237 325.591 63.8636 325.537 63.7542 325.427C63.6448 325.318 63.5901 325.158 63.5901 324.947C63.5901 324.716 63.6458 324.552 63.7571 324.454C63.8684 324.357 64.0608 324.308 64.3343 324.308L65.4358 324.308C65.5413 324.308 65.6214 324.33 65.6761 324.375C65.7308 324.42 65.7581 324.482 65.7581 324.56L65.7581 327.285C65.7581 327.765 65.8245 328.103 65.9573 328.298C66.0901 328.494 66.3089 328.591 66.6136 328.591C66.9378 328.591 67.2044 328.471 67.4134 328.231C67.6224 327.991 67.7268 327.675 67.7268 327.285L67.7268 325.591Z"/>
<path d="M72.4085 327.361C72.51 327.794 72.7063 328.119 72.9974 328.333C73.2884 328.548 73.6761 328.656 74.1604 328.656C74.6448 328.656 75.1233 328.537 75.596 328.301C76.0686 328.065 76.3538 327.947 76.4515 327.947C76.596 327.947 76.7141 328 76.8059 328.108C76.8977 328.215 76.9436 328.353 76.9436 328.521C76.9436 328.888 76.6722 329.204 76.1292 329.47C75.5862 329.736 74.9143 329.869 74.1136 329.869C73.1683 329.869 72.3997 329.603 71.8079 329.072C71.2161 328.54 70.9202 327.857 70.9202 327.021C70.9202 326.189 71.2161 325.507 71.8079 324.976C72.3997 324.445 73.1683 324.179 74.1136 324.179C74.9573 324.179 75.6565 324.428 76.2112 324.926C76.7659 325.424 77.0433 326.035 77.0433 326.757C77.0433 326.988 76.9876 327.146 76.8763 327.232C76.7649 327.318 76.5354 327.361 76.1878 327.361L72.4085 327.361ZM75.5667 326.447C75.5003 326.083 75.3294 325.802 75.054 325.603C74.7786 325.404 74.4202 325.304 73.9788 325.304C73.553 325.304 73.2102 325.399 72.9505 325.588C72.6907 325.778 72.51 326.064 72.4085 326.447L75.5667 326.447Z"/>
</g>
<g fill="#1e1616" opacity="1" stroke="none">
<path d="M33.0181 134.118L33.1118 134.118C33.3228 134.118 33.4839 134.173 33.5952 134.285C33.7065 134.396 33.7622 134.555 33.7622 134.762C33.7622 134.989 33.7046 135.152 33.5894 135.251C33.4741 135.351 33.2837 135.401 33.0181 135.401L32.4673 135.401C32.272 135.401 32.1265 135.364 32.0308 135.289C31.9351 135.215 31.856 135.08 31.7935 134.885C31.4692 135.1 31.1255 135.264 30.7622 135.377C30.3989 135.491 30.0317 135.547 29.6606 135.547C29.0317 135.547 28.5376 135.391 28.1782 135.078C27.8188 134.766 27.6392 134.338 27.6392 133.795C27.6392 133.209 27.8716 132.754 28.3364 132.43C28.8013 132.106 29.4536 131.944 30.2935 131.944C30.481 131.944 30.6802 131.953 30.8911 131.973C31.1021 131.993 31.3384 132.024 31.6001 132.067L31.6001 131.955C31.6001 131.604 31.5151 131.336 31.3452 131.153C31.1753 130.969 30.9243 130.877 30.5923 130.877C30.3345 130.877 30.0054 130.973 29.605 131.164C29.2046 131.356 28.9106 131.452 28.7231 131.452C28.5396 131.452 28.3911 131.398 28.2778 131.29C28.1646 131.183 28.1079 131.041 28.1079 130.866C28.1079 130.549 28.3394 130.298 28.8022 130.113C29.2651 129.927 29.895 129.834 30.6919 129.834C31.5239 129.834 32.1196 129.994 32.479 130.315C32.8384 130.635 33.0181 131.178 33.0181 131.944L33.0181 134.118ZM31.6001 132.987C31.4048 132.944 31.2251 132.911 31.061 132.89C30.897 132.869 30.7446 132.858 30.604 132.858C30.1743 132.858 29.8374 132.93 29.5933 133.075C29.3491 133.219 29.2271 133.418 29.2271 133.672C29.2271 133.899 29.3052 134.072 29.4614 134.191C29.6177 134.31 29.8423 134.369 30.1353 134.369C30.4048 134.369 30.6587 134.33 30.897 134.252C31.1353 134.174 31.3696 134.053 31.6001 133.889L31.6001 132.987Z"/>
<path d="M38.5493 134.118L39.8091 134.118C40.0786 134.118 40.2681 134.166 40.3774 134.264C40.4868 134.362 40.5415 134.524 40.5415 134.75C40.5415 134.981 40.4858 135.147 40.3745 135.248C40.2632 135.35 40.0747 135.401 39.8091 135.401L35.8364 135.401C35.5747 135.401 35.3882 135.35 35.2769 135.248C35.1655 135.147 35.1099 134.981 35.1099 134.75C35.1099 134.52 35.1636 134.357 35.271 134.261C35.3784 134.165 35.5669 134.118 35.8364 134.118L37.0962 134.118L37.0962 129.032L36.4517 129.032C36.186 129.032 35.9956 128.98 35.8804 128.876C35.7651 128.773 35.7075 128.608 35.7075 128.381C35.7075 128.151 35.7642 127.985 35.8774 127.883C35.9907 127.782 36.1821 127.731 36.4517 127.731L38.2036 127.731C38.313 127.731 38.398 127.753 38.4585 127.798C38.519 127.843 38.5493 127.905 38.5493 127.983L38.5493 134.118Z"/>
<path d="M43.9985 131.27L45.0532 133.766L46.1606 131.27L46.0669 131.27C45.856 131.27 45.6948 131.215 45.5835 131.106C45.4722 130.996 45.4165 130.836 45.4165 130.625C45.4165 130.395 45.4722 130.231 45.5835 130.133C45.6948 130.036 45.8872 129.987 46.1606 129.987L47.5376 129.987C47.811 129.987 48.0034 130.036 48.1147 130.136C48.2261 130.236 48.2817 130.399 48.2817 130.625C48.2817 130.836 48.2271 130.996 48.1177 131.106C48.0083 131.215 47.8481 131.27 47.6372 131.27L47.5376 131.27L45.7974 134.967C45.6685 135.233 45.5522 135.396 45.4487 135.456C45.3452 135.517 45.186 135.547 44.9712 135.547C44.5806 135.547 44.3169 135.383 44.1802 135.055C44.1646 135.016 44.1528 134.987 44.145 134.967L42.5103 131.27L42.4165 131.27C42.2056 131.27 42.0444 131.215 41.9331 131.106C41.8218 130.996 41.7661 130.836 41.7661 130.625C41.7661 130.395 41.8228 130.231 41.936 130.133C42.0493 130.036 42.2407 129.987 42.5103 129.987L43.9985 129.987C44.2681 129.987 44.4595 130.036 44.5728 130.136C44.686 130.236 44.7427 130.399 44.7427 130.625C44.7427 130.836 44.687 130.996 44.5757 131.106C44.4644 131.215 44.3052 131.27 44.0981 131.27L43.9985 131.27Z"/>
<path d="M50.6372 133.039C50.7388 133.473 50.9351 133.797 51.2261 134.012C51.5171 134.227 51.9048 134.334 52.3892 134.334C52.8735 134.334 53.3521 134.216 53.8247 133.98C54.2974 133.744 54.5825 133.625 54.6802 133.625C54.8247 133.625 54.9429 133.679 55.0347 133.786C55.1265 133.894 55.1724 134.032 55.1724 134.2C55.1724 134.567 54.9009 134.883 54.3579 135.149C53.8149 135.414 53.1431 135.547 52.3423 135.547C51.397 135.547 50.6284 135.282 50.0366 134.75C49.4448 134.219 49.1489 133.536 49.1489 132.7C49.1489 131.868 49.4448 131.186 50.0366 130.655C50.6284 130.123 51.397 129.858 52.3423 129.858C53.186 129.858 53.8853 130.107 54.4399 130.605C54.9946 131.103 55.272 131.713 55.272 132.436C55.272 132.666 55.2163 132.825 55.105 132.911C54.9937 132.996 54.7642 133.039 54.4165 133.039L50.6372 133.039ZM53.7954 132.125C53.729 131.762 53.5581 131.481 53.2827 131.282C53.0073 131.082 52.6489 130.983 52.2075 130.983C51.7817 130.983 51.439 131.078 51.1792 131.267C50.9194 131.456 50.7388 131.743 50.6372 132.125L53.7954 132.125Z"/>
<path d="M59.4321 131.094C58.9751 131.094 58.5991 131.244 58.3042 131.542C58.0093 131.841 57.8618 132.223 57.8618 132.688C57.8618 133.157 58.0093 133.544 58.3042 133.851C58.5991 134.158 58.9751 134.311 59.4321 134.311C59.8892 134.311 60.2661 134.158 60.563 133.851C60.8599 133.544 61.0083 133.157 61.0083 132.688C61.0083 132.223 60.8608 131.841 60.5659 131.542C60.271 131.244 59.8931 131.094 59.4321 131.094ZM59.4321 129.858C60.3813 129.858 61.1509 130.123 61.7407 130.655C62.3306 131.186 62.6255 131.868 62.6255 132.7C62.6255 133.536 62.3306 134.219 61.7407 134.75C61.1509 135.282 60.3813 135.547 59.4321 135.547C58.4868 135.547 57.7192 135.282 57.1294 134.75C56.5396 134.219 56.2446 133.536 56.2446 132.7C56.2446 131.868 56.5405 131.186 57.1323 130.655C57.7241 130.123 58.4907 129.858 59.4321 129.858Z"/>
<path d="M67.354 134.118L68.6138 134.118C68.8833 134.118 69.0728 134.166 69.1821 134.264C69.2915 134.362 69.3462 134.524 69.3462 134.75C69.3462 134.981 69.2905 135.147 69.1792 135.248C69.0679 135.35 68.8794 135.401 68.6138 135.401L64.6411 135.401C64.3794 135.401 64.1929 135.35 64.0815 135.248C63.9702 135.147 63.9146 134.981 63.9146 134.75C63.9146 134.52 63.9683 134.357 64.0757 134.261C64.1831 134.165 64.3716 134.118 64.6411 134.118L65.9009 134.118L65.9009 129.032L65.2563 129.032C64.9907 129.032 64.8003 128.98 64.6851 128.876C64.5698 128.773 64.5122 128.608 64.5122 128.381C64.5122 128.151 64.5688 127.985 64.6821 127.883C64.7954 127.782 64.9868 127.731 65.2563 127.731L67.0083 127.731C67.1177 127.731 67.2026 127.753 67.2632 127.798C67.3237 127.843 67.354 127.905 67.354 127.983L67.354 134.118Z"/>
<path d="M76.2251 134.118L76.3188 134.118C76.5298 134.118 76.6909 134.173 76.8022 134.285C76.9136 134.396 76.9692 134.555 76.9692 134.762C76.9692 134.989 76.9116 135.152 76.7964 135.251C76.6812 135.351 76.4907 135.401 76.2251 135.401L75.6743 135.401C75.479 135.401 75.3335 135.364 75.2378 135.289C75.1421 135.215 75.063 135.08 75.0005 134.885C74.6763 135.1 74.3325 135.264 73.9692 135.377C73.606 135.491 73.2388 135.547 72.8677 135.547C72.2388 135.547 71.7446 135.391 71.3853 135.078C71.0259 134.766 70.8462 134.338 70.8462 133.795C70.8462 133.209 71.0786 132.754 71.5435 132.43C72.0083 132.106 72.6606 131.944 73.5005 131.944C73.688 131.944 73.8872 131.953 74.0981 131.973C74.3091 131.993 74.5454 132.024 74.8071 132.067L74.8071 131.955C74.8071 131.604 74.7222 131.336 74.5522 131.153C74.3823 130.969 74.1313 130.877 73.7993 130.877C73.5415 130.877 73.2124 130.973 72.812 131.164C72.4116 131.356 72.1177 131.452 71.9302 131.452C71.7466 131.452 71.5981 131.398 71.4849 131.29C71.3716 131.183 71.3149 131.041 71.3149 130.866C71.3149 130.549 71.5464 130.298 72.0093 130.113C72.4722 129.927 73.1021 129.834 73.8989 129.834C74.731 129.834 75.3267 129.994 75.686 130.315C76.0454 130.635 76.2251 131.178 76.2251 131.944L76.2251 134.118ZM74.8071 132.987C74.6118 132.944 74.4321 132.911 74.2681 132.89C74.104 132.869 73.9517 132.858 73.811 132.858C73.3813 132.858 73.0444 132.93 72.8003 133.075C72.5562 133.219 72.4341 133.418 72.4341 133.672C72.4341 133.899 72.5122 134.072 72.6685 134.191C72.8247 134.31 73.0493 134.369 73.3423 134.369C73.6118 134.369 73.8657 134.33 74.104 134.252C74.3423 134.174 74.5767 134.053 74.8071 133.889L74.8071 132.987Z"/>
<path d="M80.772 132.219L80.772 134.118L82.1548 134.118C82.4204 134.118 82.6089 134.166 82.7202 134.264C82.8315 134.362 82.8872 134.524 82.8872 134.75C82.8872 134.981 82.8315 135.147 82.7202 135.248C82.6089 135.35 82.4204 135.401 82.1548 135.401L78.8794 135.401C78.6099 135.401 78.4185 135.35 78.3052 135.248C78.1919 135.147 78.1353 134.981 78.1353 134.75C78.1353 134.524 78.1909 134.362 78.3022 134.264C78.4136 134.166 78.606 134.118 78.8794 134.118L79.3247 134.118L79.3247 131.27L79.0728 131.27C78.8071 131.27 78.6187 131.22 78.5073 131.12C78.396 131.021 78.3403 130.856 78.3403 130.625C78.3403 130.395 78.394 130.231 78.5015 130.133C78.6089 130.036 78.7993 129.987 79.0728 129.987L80.3208 129.987C80.4263 129.987 80.5083 130.009 80.5669 130.054C80.6255 130.099 80.6548 130.161 80.6548 130.239L80.6548 131.106C81.0806 130.649 81.478 130.323 81.8472 130.127C82.2163 129.932 82.6138 129.834 83.0396 129.834C83.4263 129.834 83.7329 129.921 83.9595 130.095C84.186 130.269 84.2993 130.502 84.2993 130.795C84.2993 131.022 84.2212 131.208 84.0649 131.355C83.9087 131.501 83.7075 131.575 83.4614 131.575C83.2856 131.575 83.0776 131.51 82.8374 131.381C82.5972 131.252 82.4302 131.188 82.3364 131.188C82.1489 131.188 81.9282 131.272 81.6743 131.44C81.4204 131.608 81.1196 131.868 80.772 132.219Z"/>
<path d="M30.3638 146.619L30.3638 148.518L31.7466 148.518C32.0122 148.518 32.2007 148.566 32.312 148.664C32.4233 148.762 32.479 148.924 32.479 149.15C32.479 149.381 32.4233 149.547 32.312 149.648C32.2007 149.75 32.0122 149.801 31.7466 149.801L28.4712 149.801C28.2017 149.801 28.0103 149.75 27.897 149.648C27.7837 149.547 27.7271 149.381 27.7271 149.15C27.7271 148.924 27.7827 148.762 27.894 148.664C28.0054 148.566 28.1978 148.518 28.4712 148.518L28.9165 148.518L28.9165 145.67L28.6646 145.67C28.3989 145.67 28.2105 145.62 28.0991 145.52C27.9878 145.421 27.9321 145.256 27.9321 145.025C27.9321 144.795 27.9858 144.631 28.0933 144.533C28.2007 144.436 28.3911 144.387 28.6646 144.387L29.9126 144.387C30.0181 144.387 30.1001 144.409 30.1587 144.454C30.2173 144.499 30.2466 144.561 30.2466 144.639L30.2466 145.506C30.6724 145.049 31.0698 144.723 31.439 144.527C31.8081 144.332 32.2056 144.234 32.6313 144.234C33.0181 144.234 33.3247 144.321 33.5513 144.495C33.7778 144.669 33.8911 144.902 33.8911 145.195C33.8911 145.422 33.813 145.608 33.6567 145.755C33.5005 145.901 33.2993 145.975 33.0532 145.975C32.8774 145.975 32.6694 145.91 32.4292 145.781C32.189 145.652 32.022 145.588 31.9282 145.588C31.7407 145.588 31.52 145.672 31.2661 145.84C31.0122 146.008 30.7114 146.268 30.3638 146.619Z"/>
<path d="M38.6489 148.518L39.9087 148.518C40.1782 148.518 40.3696 148.566 40.4829 148.664C40.5962 148.762 40.6528 148.924 40.6528 149.15C40.6528 149.381 40.5952 149.547 40.48 149.648C40.3647 149.75 40.1743 149.801 39.9087 149.801L35.9478 149.801C35.6821 149.801 35.4917 149.75 35.3765 149.648C35.2612 149.547 35.2036 149.381 35.2036 149.15C35.2036 148.924 35.2593 148.762 35.3706 148.664C35.4819 148.566 35.6743 148.518 35.9478 148.518L37.2075 148.518L37.2075 145.67L36.5454 145.67C36.2837 145.67 36.0962 145.62 35.9829 145.52C35.8696 145.421 35.813 145.256 35.813 145.025C35.813 144.795 35.8677 144.631 35.9771 144.533C36.0864 144.436 36.2759 144.387 36.5454 144.387L38.3091 144.387C38.4185 144.387 38.5024 144.409 38.561 144.454C38.6196 144.499 38.6489 144.561 38.6489 144.639L38.6489 148.518ZM37.8052 141.738C38.0903 141.738 38.2798 141.793 38.3735 141.902C38.4673 142.012 38.5142 142.273 38.5142 142.687C38.5142 143.086 38.4722 143.333 38.3882 143.429C38.3042 143.524 38.106 143.572 37.7935 143.572C37.4888 143.572 37.2925 143.527 37.2046 143.437C37.1167 143.348 37.0728 143.168 37.0728 142.898C37.0728 142.398 37.1177 142.08 37.2075 141.943C37.2974 141.807 37.4966 141.738 37.8052 141.738Z"/>
<path d="M47.5259 148.518L47.6255 148.518C47.8364 148.518 47.9946 148.571 48.1001 148.679C48.2056 148.786 48.2583 148.943 48.2583 149.15C48.2583 149.381 48.2026 149.547 48.0913 149.648C47.98 149.75 47.7915 149.801 47.5259 149.801L46.6294 149.801C46.5161 149.801 46.4292 149.778 46.3687 149.733C46.3081 149.688 46.2778 149.627 46.2778 149.549L46.2778 149.139C46.0864 149.4 45.8403 149.601 45.5396 149.739C45.2388 149.878 44.9009 149.947 44.5259 149.947C43.7603 149.947 43.1196 149.686 42.604 149.165C42.0884 148.644 41.8306 147.992 41.8306 147.211C41.8306 146.398 42.0913 145.725 42.6128 145.189C43.1343 144.654 43.7974 144.387 44.6021 144.387C44.8794 144.387 45.1499 144.433 45.4136 144.524C45.6772 144.616 45.9185 144.746 46.1372 144.914L46.1372 143.432L45.3579 143.432C45.0884 143.432 44.897 143.38 44.7837 143.276C44.6704 143.173 44.6138 143.008 44.6138 142.781C44.6138 142.551 44.6704 142.385 44.7837 142.283C44.897 142.182 45.0884 142.131 45.3579 142.131L47.1802 142.131C47.313 142.131 47.4038 142.158 47.4526 142.213C47.5015 142.268 47.5259 142.369 47.5259 142.518L47.5259 148.518ZM44.7778 145.635C44.395 145.635 44.0776 145.778 43.8257 146.065C43.5737 146.353 43.4478 146.717 43.4478 147.158C43.4478 147.611 43.5728 147.981 43.8228 148.269C44.0728 148.556 44.3911 148.699 44.7778 148.699C45.1646 148.699 45.4839 148.555 45.7358 148.266C45.9878 147.977 46.1138 147.607 46.1138 147.158C46.1138 146.721 45.9868 146.357 45.7329 146.068C45.479 145.779 45.1606 145.635 44.7778 145.635Z"/>
<path d="M51.979 145.482C51.5962 145.482 51.2788 145.621 51.0269 145.898C50.7749 146.176 50.6489 146.529 50.6489 146.959C50.6489 147.381 50.7749 147.729 51.0269 148.005C51.2788 148.28 51.5962 148.418 51.979 148.418C52.3657 148.418 52.6851 148.28 52.937 148.005C53.189 147.729 53.3149 147.381 53.3149 146.959C53.3149 146.529 53.189 146.176 52.937 145.898C52.6851 145.621 52.3657 145.482 51.979 145.482ZM53.4321 144.932L53.4321 144.627C53.4321 144.549 53.4605 144.489 53.5171 144.448C53.5737 144.407 53.6587 144.387 53.772 144.387L54.7271 144.387C54.9966 144.387 55.186 144.436 55.2954 144.536C55.4048 144.636 55.4595 144.799 55.4595 145.025C55.4595 145.236 55.4058 145.396 55.2983 145.506C55.1909 145.615 55.0337 145.67 54.8267 145.67L54.7271 145.67L54.7271 149.707C54.7271 150.562 54.4946 151.184 54.0298 151.57C53.5649 151.957 52.8188 152.15 51.7915 152.15C51.1548 152.15 50.687 152.088 50.3882 151.963C50.0894 151.838 49.9399 151.641 49.9399 151.371C49.9399 151.184 50.0005 151.031 50.1216 150.914C50.2427 150.797 50.4028 150.738 50.6021 150.738C50.6528 150.738 50.8208 150.756 51.106 150.791C51.3911 150.826 51.6548 150.844 51.897 150.844C52.4556 150.844 52.8413 150.738 53.0542 150.527C53.2671 150.316 53.3735 149.937 53.3735 149.391L53.3735 149.127C53.0962 149.287 52.8218 149.405 52.5503 149.481C52.2788 149.558 51.9966 149.596 51.7036 149.596C50.9185 149.596 50.2769 149.351 49.7788 148.86C49.2808 148.37 49.0317 147.74 49.0317 146.971C49.0317 146.178 49.2925 145.525 49.814 145.014C50.3355 144.502 51.0024 144.246 51.8149 144.246C52.1665 144.246 52.4751 144.302 52.7407 144.413C53.0063 144.524 53.2368 144.697 53.4321 144.932Z"/>
<path d="M57.8384 147.439C57.9399 147.873 58.1362 148.197 58.4272 148.412C58.7183 148.627 59.106 148.734 59.5903 148.734C60.0747 148.734 60.5532 148.616 61.0259 148.38C61.4985 148.144 61.7837 148.025 61.8813 148.025C62.0259 148.025 62.144 148.079 62.2358 148.186C62.3276 148.294 62.3735 148.432 62.3735 148.6C62.3735 148.967 62.1021 149.283 61.5591 149.549C61.0161 149.814 60.3442 149.947 59.5435 149.947C58.5981 149.947 57.8296 149.682 57.2378 149.15C56.646 148.619 56.3501 147.936 56.3501 147.1C56.3501 146.268 56.646 145.586 57.2378 145.055C57.8296 144.523 58.5981 144.258 59.5435 144.258C60.3872 144.258 61.0864 144.507 61.6411 145.005C62.1958 145.503 62.4731 146.113 62.4731 146.836C62.4731 147.066 62.4175 147.225 62.3062 147.311C62.1948 147.396 61.9653 147.439 61.6177 147.439L57.8384 147.439ZM60.9966 146.525C60.9302 146.162 60.7593 145.881 60.4839 145.682C60.2085 145.482 59.8501 145.383 59.4087 145.383C58.9829 145.383 58.6401 145.478 58.3804 145.667C58.1206 145.856 57.9399 146.143 57.8384 146.525L60.9966 146.525Z"/>
</g>
<path d="M33.9016 197.452L94.8895 214.341" fill="#1e1616" fill-rule="nonzero" opacity="1" stroke="none"/>
<path d="M171.359 211.057L350.101 166.489" fill="#1e1616" fill-rule="nonzero" opacity="1" stroke="none"/>
<path d="M174.643 211.995L267.888 153.723" fill="#1e1616" fill-rule="nonzero" opacity="1" stroke="#1e1616" stroke-linecap="butt" stroke-linejoin="round" stroke-width="0.5"/>
<path d="M218.055 226.128L275.406 183.796" fill="#1e1616" fill-rule="nonzero" opacity="1" stroke="#1e1616" stroke-linecap="butt" stroke-linejoin="round" stroke-width="0.5"/>
<path d="M216.371 242.927L262.876 228.904" fill="#1e1616" fill-rule="nonzero" opacity="1" stroke="#1e1616" stroke-linecap="butt" stroke-linejoin="round" stroke-width="0.5"/>
<path d="M222.563 269.331L316.576 259.693" fill="#1e1616" fill-rule="nonzero" opacity="1" stroke="#1e1616" stroke-linecap="butt" stroke-linejoin="round" stroke-width="0.5"/>
<path d="M192.912 308.214L318.008 303.011" fill="#1e1616" fill-rule="nonzero" opacity="1" stroke="#1e1616" stroke-linecap="butt" stroke-linejoin="round" stroke-width="0.5"/>
<path d="M192.849 326.434L316.218 303.011" fill="#1e1616" fill-rule="nonzero" opacity="1" stroke="#1e1616" stroke-linecap="butt" stroke-linejoin="round" stroke-width="0.5"/>
<path d="M192.509 316.666L150.418 342.567" fill="#1e1616" fill-rule="nonzero" opacity="1" stroke="#1e1616" stroke-linecap="butt" stroke-linejoin="round" stroke-width="0.5"/>
<path d="M142.168 252.425L81.6001 322.207" fill="#1e1616" fill-rule="nonzero" opacity="1" stroke="#1e1616" stroke-linecap="butt" stroke-linejoin="round" stroke-width="0.5"/>
<path d="M92.2022 213.354L32.3283 151.588" fill="#1e1616" fill-rule="nonzero" opacity="1" stroke="#1e1616" stroke-linecap="butt" stroke-linejoin="round" stroke-width="0.5"/>
</g>
</svg>
