<?xml version="1.0" encoding="UTF-8" standalone="no"?>
<!DOCTYPE svg PUBLIC "-//W3C//DTD SVG 1.1//EN" "http://www.w3.org/Graphics/SVG/1.1/DTD/svg11.dtd">
<!-- Created with Vectornator (http://vectornator.io/) -->
<svg height="100%" stroke-miterlimit="10" style="fill-rule:nonzero;clip-rule:evenodd;stroke-linecap:round;stroke-linejoin:round;" version="1.1" viewBox="0 0 400 400" width="100%" xml:space="preserve" xmlns="http://www.w3.org/2000/svg" xmlns:vectornator="http://vectornator.io" xmlns:xlink="http://www.w3.org/1999/xlink">
<defs/>
<g id="レイヤー-1" vectornator:layerName="レイヤー 1">
<path d="M35.6771 67.7083L127.989 325L346.354 325L368.75 67.1875L35.6771 67.7083Z" fill="#ffffff" fill-rule="nonzero" opacity="1" stroke="#000004" stroke-linecap="butt" stroke-linejoin="round" stroke-width="0.5"/>
<path d="M105.693 136.356C105.693 136.356 111.393 182.617 151.562 219.531C191.732 256.445 228.255 278.971 269.01 272.656C309.766 266.341 312.826 254.717 320.443 222.491C328.06 190.264 304.43 152.22 304.43 152.22L309.884 148.653L294.319 141.752L295.763 158.281L301.058 155.232C301.058 155.232 321.411 190.704 315.514 220.613C309.618 250.522 303.561 262.475 268.34 267.553C233.118 272.631 192.86 251.976 156.857 217.797C120.855 183.617 111.091 135.182 111.091 135.182L105.693 136.356Z" fill="#000004" fill-rule="nonzero" opacity="1" stroke="#000004" stroke-linecap="butt" stroke-linejoin="round" stroke-width="0.5"/>
<path d="M76.1486 126.305C76.1486 111.616 88.0565 99.708 102.746 99.708C117.435 99.708 129.343 111.616 129.343 126.305C129.343 140.994 117.435 152.902 102.746 152.902C88.0565 152.902 76.1486 140.994 76.1486 126.305Z" fill="#ffffff" fill-rule="nonzero" opacity="1" stroke="#000004" stroke-linecap="butt" stroke-linejoin="round" stroke-width="0.5"/>
<path d="M77.4688 103.325L75.0254 103.325L75.0254 96.4049L74.0469 96.4049L74.0469 94.278L77.4688 94.278L77.4688 103.325Z" fill="#000004" opacity="1" stroke="none"/>
<path d="M119.808 210.317L113.579 210.317L116.052 207.018C116.333 206.643 116.57 206.308 116.761 206.013C116.952 205.718 117.103 205.457 117.212 205.231C117.427 204.805 117.534 204.367 117.534 203.918C117.534 203.672 117.484 203.477 117.382 203.332C117.28 203.188 117.142 203.115 116.966 203.115C116.575 203.115 116.38 203.483 116.38 204.217C116.38 204.256 116.381 204.303 116.383 204.358C116.385 204.412 116.388 204.477 116.392 204.551L114.019 204.551L114.007 204.223C114.007 203.313 114.288 202.567 114.851 201.985C115.417 201.399 116.142 201.106 117.025 201.106C117.876 201.106 118.571 201.383 119.111 201.938C119.654 202.481 119.925 203.19 119.925 204.065C119.925 204.768 119.739 205.451 119.368 206.115C119.181 206.447 118.938 206.796 118.639 207.161C118.34 207.527 117.978 207.91 117.552 208.313C117.919 208.285 118.289 208.266 118.662 208.254C119.035 208.242 119.417 208.237 119.808 208.237L119.808 210.317Z" fill="#000004" opacity="1" stroke="none"/>
<path d="M195.636 272.903L198.021 272.903C198.021 273.446 198.22 273.718 198.619 273.718C198.818 273.718 198.98 273.64 199.105 273.486C199.23 273.332 199.292 273.13 199.292 272.88C199.292 272.243 198.96 271.925 198.296 271.925C198.249 271.925 198.191 271.927 198.12 271.933C198.05 271.939 197.97 271.946 197.88 271.954L197.88 270.026C197.947 270.03 198.004 270.033 198.053 270.035C198.102 270.037 198.142 270.038 198.173 270.038C198.841 270.038 199.175 269.731 199.175 269.118C199.175 268.618 199.001 268.368 198.654 268.368C198.38 268.368 198.224 268.569 198.185 268.971L198.173 269.094L195.812 269.094C195.878 268.251 196.173 267.585 196.697 267.096C197.216 266.6 197.898 266.352 198.742 266.352C199.546 266.352 200.214 266.606 200.745 267.114C201.288 267.618 201.56 268.241 201.56 268.983C201.56 269.815 201.195 270.45 200.464 270.887C201.273 271.352 201.677 272.051 201.677 272.985C201.677 273.794 201.39 274.452 200.816 274.96C200.249 275.468 199.513 275.721 198.607 275.721C197.72 275.721 197.005 275.473 196.462 274.977C195.911 274.481 195.636 273.835 195.636 273.038L195.636 272.903Z" fill="#000004" opacity="1" stroke="none"/>
<path d="M291.131 205.53L288.694 205.53L288.694 203.696L285.407 203.696L285.407 201.786L288.137 196.484L291.131 196.484L291.131 201.751L291.905 201.751L291.905 203.696L291.131 203.696L291.131 205.53ZM288.805 201.751L288.805 200.058C288.805 199.98 288.81 199.855 288.82 199.683C288.829 199.511 288.844 199.29 288.864 199.021L288.5 199.794C288.321 200.173 288.141 200.526 287.961 200.852C287.782 201.178 287.602 201.478 287.422 201.751L288.805 201.751Z" fill="#000004" opacity="1" stroke="none"/>
<path d="M243.653 102.158L243.94 100.014C244.663 100.432 245.31 100.641 245.88 100.641C246.251 100.641 246.552 100.547 246.782 100.359C247.017 100.172 247.134 99.9277 247.134 99.6269C247.134 99.3066 247.007 99.0575 246.753 98.8798C246.499 98.7021 246.142 98.6132 245.681 98.6132C245.177 98.6132 244.647 98.7187 244.093 98.9296L244.796 93.6562L249.296 93.6562L249.296 95.7831L246.718 95.7831L246.524 96.7968C246.692 96.7851 246.829 96.7792 246.935 96.7792C247.677 96.7792 248.304 97.0488 248.815 97.5878C249.323 98.1191 249.577 98.7831 249.577 99.58C249.577 100.518 249.249 101.299 248.593 101.924C247.944 102.549 247.126 102.861 246.138 102.861C245.294 102.861 244.466 102.627 243.653 102.158Z" fill="#000004" opacity="1" stroke="none"/>
<path d="M127.137 219.682C127.137 204.993 139.045 193.085 153.735 193.085C168.424 193.085 180.332 204.993 180.332 219.682C180.332 234.371 168.424 246.279 153.735 246.279C139.045 246.279 127.137 234.371 127.137 219.682Z" fill="#ffffff" fill-rule="nonzero" opacity="1" stroke="#000004" stroke-linecap="butt" stroke-linejoin="round" stroke-width="0.5"/>
<path d="M216.829 270.057C216.829 255.368 228.737 243.46 243.426 243.46C258.115 243.46 270.023 255.368 270.023 270.057C270.023 284.746 258.115 296.654 243.426 296.654C228.737 296.654 216.829 284.746 216.829 270.057Z" fill="#ffffff" fill-rule="nonzero" opacity="1" stroke="#000004" stroke-linecap="butt" stroke-linejoin="round" stroke-width="0.5"/>
<path d="M292.698 222.447C292.698 207.758 304.606 195.85 319.295 195.85C333.984 195.85 345.892 207.758 345.892 222.447C345.892 237.136 333.984 249.044 319.295 249.044C304.606 249.044 292.698 237.136 292.698 222.447Z" fill="#ffffff" fill-rule="nonzero" opacity="1" stroke="#000004" stroke-linecap="butt" stroke-linejoin="round" stroke-width="0.5"/>
<path d="M251.672 118.329C251.672 103.64 263.58 91.7323 278.269 91.7323C292.959 91.7323 304.866 103.64 304.866 118.329C304.866 133.019 292.959 144.926 278.269 144.926C263.58 144.926 251.672 133.019 251.672 118.329Z" fill="#ffffff" fill-rule="nonzero" opacity="1" stroke="#000004" stroke-linecap="butt" stroke-linejoin="round" stroke-width="0.5"/>
</g>
</svg>
