<?xml version="1.0" encoding="utf-8"?>
<svg viewBox="0 0 340 170" xmlns="http://www.w3.org/2000/svg" xmlns:xlink="http://www.w3.org/1999/xlink">
  <!--Generated by AMDN-->
  <g id="am1">
    <g id="am2">
      <g id="am3">
        <path id="am4" style="fill:#000000;fill-opacity:0;fill-rule:nonzero;opacity:1;stroke:#000000;stroke-linecap:butt;stroke-linejoin:round;stroke-miterlimit:10;stroke-opacity:1;stroke-width:1.6115;" d="M49.1815,137.734 C53.7032,131.748,54.7637,128.774,55.8568,122.896 C57.155,115.915,57.5823,108.159,55.3149,106.875 C46.2307,101.73,40.3847,89.4305,39.3458,83.2468 C37.3215,71.1969,39.2811,61.2722,45.4101,50.4121 C63.2308,18.8358,106.778,14.461,125.05,42.8936 C137.421,62.1464,130.868,71.2967,130.25,79.1098 C129.632,86.9231,140.653,97.7941,139.019,101.038 C137.659,103.736,132.963,102.059,131.774,104.052 C130.723,105.815,130.972,106.37,131.375,109.758 C131.515,110.923,133.577,110.718,132.711,111.924 C130.291,115.292,123.139,115.646,123.157,118.286 C123.175,121.034,124.941,120.738,129.13,121.817 C129.915,122.02,130.801,122.999,130.473,124.03 C130.323,124.501,128.142,125.227,127.748,126.47 C126.853,129.304,128.008,133.301,123.611,136.654 C118.906,140.241,114.235,135.462,110.528,135.662 C105.558,135.929,98.4049,144.219,97.2645,152.719"/>
        <path id="am5" style="fill:#000000;fill-opacity:0;fill-rule:nonzero;opacity:1;stroke:#020000;stroke-linecap:butt;stroke-linejoin:round;stroke-miterlimit:10;stroke-opacity:1;stroke-width:1.6115;" d="M270.334,128.684 C265.938,122.715,267.098,116.794,267.28,110.837 C267.578,101.125,271.468,97.3796,272.621,96.1206 C281.062,86.9063,282.504,83.4316,284.287,77.4494 C288.543,63.1636,285.648,53.4862,279.688,42.657 C262.359,11.1703,214.138,12.3748,196.37,40.7266 C184.34,59.9248,191.478,69.5581,191.066,74.5073 C190.63,79.7329,181.679,91.1316,183.268,94.3661 C184.591,97.0565,187.178,96.3013,189.282,97.1664 C190.314,97.5891,191.59,98.118,191.198,101.496 C191.063,102.659,190.4,103.954,190.415,104.961 C190.427,105.72,190.587,107.762,190.759,108.598 C190.899,109.277,190.759,110.185,191.046,110.788 C191.331,111.392,191.578,113.478,192.169,115.962 C192.919,119.108,194.422,119.963,194.533,121.257 C195.392,131.176,199.964,131.742,200.648,131.832 C205.947,132.523,207.174,129.752,209.991,129.586 C214.131,129.342,227.212,131.331,228.32,139.806"/>
        <g id="am6">
          <path id="am7" style="fill:#000000;fill-opacity:0;fill-rule:nonzero;opacity:1;stroke:none;" d="M89.2605,66.4467 C89.2605,66.4467,88.7797,103.749,88.7967,103.463"/>
          <path id="am8" style="fill:none;opacity:1;stroke:#000000;stroke-linecap:round;stroke-linejoin:round;stroke-miterlimit:10;stroke-opacity:1;stroke-width:0.966902;" d="M88.8588,98.0631 C88.9854,87.7918,89.2605,66.4467,89.2605,66.4467"/>
          <g id="am9">
            <path id="am10" style="fill:#000000;fill-opacity:1;fill-rule:nonzero;opacity:1;stroke:none;" d="M85.7316,96.2001 C85.7316,96.2001,88.7967,103.459,88.7967,103.459 C88.7967,103.459,92.0273,96.3287,92.0273,96.3287 C92.0273,96.3287,85.7316,96.2001,85.7316,96.2001 z"/>
          </g>
        </g>
        <g id="am11">
          <path id="am12" style="fill:#000000;fill-opacity:0;fill-rule:nonzero;opacity:1;stroke:none;" d="M242.144,82.3023 C242.169,82.2905,250.064,78.8728,248.601,66.6349 C247.497,57.4109,233.238,54.4617,233.17,54.5744"/>
          <path id="am13" style="fill:none;opacity:1;stroke:#000000;stroke-linecap:round;stroke-linejoin:round;stroke-miterlimit:10;stroke-opacity:1;stroke-width:0.966902;" d="M237.135,55.6653 C241.461,57.2174,247.875,60.5697,248.601,66.6349 C250.064,78.8728,242.169,82.2905,242.144,82.3023"/>
          <g id="am14">
            <path id="am15" style="fill:#000000;fill-opacity:1;fill-rule:nonzero;opacity:1;stroke:none;" d="M239.093,51.9178 C239.093,51.9178,233.171,54.5747,233.171,54.5747 C233.171,54.5747,237.821,60.1396,237.821,60.1396 C237.821,60.1396,239.093,51.9178,239.093,51.9178 z"/>
          </g>
        </g>
        <g id="am16">
          <path id="am17" style="fill:#000000;fill-opacity:0;fill-rule:nonzero;opacity:1;stroke:none;" d="M167.771,119.488 C167.771,119.488,180.209,120.08,190.816,114.747 C203.066,108.588,216.267,95.8752,216.277,95.722"/>
          <path id="am18" style="fill:none;opacity:1;stroke:#000000;stroke-linecap:round;stroke-linejoin:round;stroke-miterlimit:10;stroke-opacity:1;stroke-width:0.966902;" d="M212.972,98.8396 C208.283,103.037,199.32,110.471,190.816,114.747 C180.209,120.08,167.771,119.488,167.771,119.488"/>
          <g id="am19">
            <path id="am20" style="fill:#000000;fill-opacity:1;fill-rule:nonzero;opacity:1;stroke:none;" d="M213.689,103.306 C213.689,103.306,216.276,95.7226,216.276,95.7226 C216.276,95.7226,210.052,96.4519,210.052,96.4519 C210.052,96.4519,213.689,103.306,213.689,103.306 z"/>
          </g>
        </g>
        <g id="am21">
          <path id="am22" style="fill:#000000;fill-opacity:0;fill-rule:nonzero;opacity:1;stroke:none;" d="M97.5514,118.675 C97.5514,118.675,98.7173,118.7,100.457,118.742 C111.826,119.019,153.79,118.966,153.614,118.946"/>
          <path id="am23" style="fill:none;opacity:1;stroke:#000000;stroke-linecap:round;stroke-linejoin:round;stroke-miterlimit:10;stroke-opacity:1;stroke-width:0.966902;" d="M149.565,118.959 C138.8,118.974,109.642,118.966,100.457,118.742 C98.7173,118.7,97.5514,118.675,97.5514,118.675"/>
          <g id="am24">
            <path id="am25" style="fill:#000000;fill-opacity:1;fill-rule:nonzero;opacity:1;stroke:none;" d="M148.224,123.161 C148.224,123.161,153.613,118.946,153.613,118.946 C153.613,118.946,148.209,114.766,148.209,114.766 C148.209,114.766,148.224,123.161,148.224,123.161 z"/>
          </g>
        </g>
        <path id="am26" style="fill:#000000;fill-opacity:0;fill-rule:nonzero;opacity:1;stroke:#000000;stroke-linecap:round;stroke-linejoin:round;stroke-miterlimit:10;stroke-opacity:1;stroke-width:0.966902;" d="M222.395,78.8728 C225.345,71.7884,232.918,69.6501,235.591,77.0745 C237.743,83.0546,236.57,85.5679,233.051,89.5473 C230.377,92.5711,233.808,97.1499,231.448,100.595 C230.101,102.56,227.349,103.861,226.235,102.139"/>
        <path id="am27" style="fill:#000000;fill-opacity:1;fill-rule:nonzero;opacity:1;stroke:none;" d="M87.3357,61.6134 C87.3357,61.6134,90.2635,61.6134,90.2635,61.6134 C90.2635,61.6134,90.7042,63.3763,90.7042,63.3763 C90.7882,63.7261,90.8301,64.006,90.8301,64.1739 C90.8301,64.5796,90.6098,64.7475,90.0746,64.7755 C90.0746,64.7755,90.0746,65.1253,90.0746,65.1253 C90.0746,65.1253,92.782,65.1253,92.782,65.1253 C92.782,65.1253,92.782,64.7755,92.782,64.7755 C92.1734,64.7475,91.974,64.4817,91.6801,63.3344 C91.6801,63.3344,89.4555,54.8833,89.4555,54.8833 C89.4555,54.8833,88.8048,54.9813,88.8048,54.9813 C88.8048,54.9813,86.5697,62.8726,86.5697,62.8726 C86.1709,64.2858,85.8246,64.7755,85.2264,64.7755 C85.2264,64.7755,85.2264,65.1253,85.2264,65.1253 C85.2264,65.1253,87.682,65.1253,87.682,65.1253 C87.682,65.1253,87.682,64.7755,87.682,64.7755 C87.0734,64.7475,86.8005,64.5237,86.8005,64.0199 C86.8005,63.7541,86.874,63.3204,86.9999,62.8726 C86.9999,62.8726,87.3357,61.6134,87.3357,61.6134 z M90.1271,61.0957 C90.1271,61.0957,87.4826,61.0957,87.4826,61.0957 C87.4826,61.0957,88.8468,56.1985,88.8468,56.1985 C88.8468,56.1985,90.1271,61.0957,90.1271,61.0957 z"/>
        <path id="am28" style="fill:#000000;fill-opacity:1;fill-rule:nonzero;opacity:1;stroke:none;" d="M86.2382,121.953 C86.2382,121.953,89.0505,121.953,89.0505,121.953 C89.7641,121.953,90.4252,121.855,90.824,121.701 C91.7684,121.295,92.2302,120.498,92.2302,119.211 C92.2302,118.147,91.8944,117.42,91.1808,116.93 C90.8135,116.678,90.4882,116.58,89.974,116.552 C89.974,116.552,89.974,116.454,89.974,116.454 C91.2962,116.23,91.9363,115.489,91.9363,114.16 C91.9363,113.236,91.6425,112.607,91.0339,112.215 C90.6246,111.963,89.9215,111.809,89.103,111.809 C89.103,111.809,86.2382,111.809,86.2382,111.809 C86.2382,111.809,86.2382,112.145,86.2382,112.145 C86.7209,112.145,86.9098,112.257,86.9833,112.551 C87.0147,112.676,87.0147,112.69,87.0357,113.586 C87.0357,113.586,87.0357,120.176,87.0357,120.176 C87.0147,121.225,87.0147,121.239,86.8993,121.407 C86.8049,121.547,86.595,121.617,86.2382,121.617 C86.2382,121.617,86.2382,121.953,86.2382,121.953 z M87.9697,116.3 C87.9697,116.3,87.9697,112.229,87.9697,112.229 C87.9697,112.229,88.9351,112.229,88.9351,112.229 C90.2888,112.229,90.9394,112.872,90.9394,114.216 C90.9394,115.587,90.2888,116.3,89.0296,116.3 C89.0296,116.3,87.9697,116.3,87.9697,116.3 z M87.9697,121.533 C87.9697,121.533,87.9697,116.762,87.9697,116.762 C87.9697,116.762,88.9876,116.762,88.9876,116.762 C89.5647,116.762,90.0789,116.888,90.3833,117.098 C90.887,117.462,91.1598,118.147,91.1598,119.099 C91.1598,119.924,90.9709,120.596,90.6351,120.96 C90.2993,121.351,89.7536,121.533,88.9876,121.533 C88.9876,121.533,87.9697,121.533,87.9697,121.533 z"/>
        <path id="am29" style="fill:#000000;fill-opacity:1;fill-rule:nonzero;opacity:1;stroke:none;" d="M161.973,117.992 C161.973,117.992,161.973,114.941,161.973,114.941 C161.627,115.109,161.575,115.137,161.428,115.137 C161.249,115.137,161.144,115.109,160.651,114.899 C160.189,114.703,159.728,114.592,159.318,114.592 C158.615,114.592,157.87,114.899,157.335,115.445 C156.391,116.369,155.856,118.034,155.856,119.992 C155.856,121.545,156.191,122.819,156.842,123.756 C157.461,124.638,158.311,125.127,159.256,125.127 C160.179,125.127,160.977,124.75,161.512,124.064 C161.879,123.588,162.141,123.029,162.372,122.217 C162.372,122.217,162.068,122.035,162.068,122.035 C161.659,123.616,160.714,124.568,159.549,124.568 C157.965,124.568,156.915,122.651,156.915,119.727 C156.915,118.369,157.125,117.18,157.524,116.327 C157.902,115.487,158.605,114.969,159.36,114.969 C160.043,114.969,160.683,115.389,161.113,116.103 C161.396,116.606,161.543,117.124,161.638,117.992 C161.638,117.992,161.973,117.992,161.973,117.992 z"/>
        <path id="am30" style="fill:#000000;fill-opacity:1;fill-rule:nonzero;opacity:1;stroke:none;" d="M218.154,100.778 C218.154,100.778,220.851,100.778,220.851,100.778 C222.121,100.778,222.982,100.54,223.622,99.994 C224.577,99.1685,225.091,97.6434,225.091,95.6425 C225.091,93.5438,224.535,92.0187,223.464,91.2072 C222.95,90.8154,222.195,90.6335,221.114,90.6335 C221.114,90.6335,218.154,90.6335,218.154,90.6335 C218.154,90.6335,218.154,90.9693,218.154,90.9693 C218.637,90.9693,218.826,91.0812,218.899,91.3751 C218.931,91.501,218.931,91.515,218.952,92.4104 C218.952,92.4104,218.952,99.0006,218.952,99.0006 C218.931,100.05,218.931,100.064,218.815,100.232 C218.721,100.372,218.511,100.442,218.154,100.442 C218.154,100.442,218.154,100.778,218.154,100.778 z M219.907,100.358 C219.907,100.358,219.907,91.0532,219.907,91.0532 C219.907,91.0532,220.904,91.0532,220.904,91.0532 C222.163,91.0532,223.024,91.5569,223.464,92.5364 C223.832,93.3759,224.031,94.5372,224.031,95.8804 C224.031,97.3355,223.769,98.4969,223.286,99.2384 C222.814,99.966,222.006,100.358,220.977,100.358 C220.977,100.358,219.907,100.358,219.907,100.358 z"/>
        <path id="am31" style="fill:#000000;fill-opacity:1;fill-rule:nonzero;opacity:1;stroke:none;" d="M222.785,63.4738 C222.785,63.4738,228.252,63.4738,228.252,63.4738 C228.252,63.4738,228.462,60.6894,228.462,60.6894 C228.462,60.6894,228.169,60.6614,228.169,60.6614 C227.875,62.5923,227.497,63.054,226.175,63.054 C226.175,63.054,224.517,63.054,224.517,63.054 C224.517,63.054,224.517,58.4227,224.517,58.4227 C224.517,58.4227,225.597,58.4227,225.597,58.4227 C226.217,58.4227,226.626,58.5347,226.783,58.7445 C226.93,58.9544,227.004,59.2203,227.077,59.8639 C227.077,59.8639,227.371,59.8639,227.371,59.8639 C227.371,59.8639,227.371,56.5758,227.371,56.5758 C227.371,56.5758,227.077,56.5758,227.077,56.5758 C226.962,57.8071,226.762,58.003,225.597,58.003 C225.597,58.003,224.517,58.003,224.517,58.003 C224.517,58.003,224.517,53.7495,224.517,53.7495 C224.517,53.7495,225.965,53.7495,225.965,53.7495 C227.308,53.7495,227.696,54.1692,227.948,55.8622 C227.948,55.8622,228.252,55.8343,228.252,55.8343 C228.252,55.8343,228.085,53.3297,228.085,53.3297 C228.085,53.3297,222.785,53.3297,222.785,53.3297 C222.785,53.3297,222.785,53.6655,222.785,53.6655 C223.268,53.6655,223.457,53.7775,223.53,54.0713 C223.562,54.1972,223.562,54.2112,223.583,55.1067 C223.583,55.1067,223.583,61.6968,223.583,61.6968 C223.562,62.7462,223.562,62.7602,223.446,62.9281 C223.352,63.068,223.142,63.138,222.785,63.138 C222.785,63.138,222.785,63.4738,222.785,63.4738 z"/>
      </g>
    </g>
  </g>
</svg>
