<?xml version="1.0" encoding="UTF-8" standalone="no"?>
<!DOCTYPE svg PUBLIC "-//W3C//DTD SVG 1.1//EN" "http://www.w3.org/Graphics/SVG/1.1/DTD/svg11.dtd">
<!-- Created with Vectornator (http://vectornator.io/) -->
<svg height="100%" stroke-miterlimit="10" style="fill-rule:nonzero;clip-rule:evenodd;stroke-linecap:round;stroke-linejoin:round;" version="1.1" viewBox="0 0 283.5 198.45" width="100%" xml:space="preserve" xmlns="http://www.w3.org/2000/svg" xmlns:xlink="http://www.w3.org/1999/xlink">
<defs>
<filter color-interpolation-filters="sRGB" filterUnits="userSpaceOnUse" height="175.469" id="Filter" width="106.098" x="169.417" y="23.6314">
<feDropShadow dx="-1.36773e-05" dy="3.77827" flood-color="#ffffff" flood-opacity="0" in="SourceGraphic" result="Shadow" stdDeviation="5"/>
</filter>
<filter color-interpolation-filters="sRGB" filterUnits="userSpaceOnUse" height="38.8766" id="Filter_2" width="36.2087" x="-4.00183" y="137.977">
<feDropShadow dx="-1.36773e-05" dy="3.77827" flood-color="#ffffff" flood-opacity="0" in="SourceGraphic" result="Shadow" stdDeviation="5"/>
</filter>
<filter color-interpolation-filters="sRGB" filterUnits="userSpaceOnUse" height="46.6592" id="Filter_3" width="38.6557" x="1.11298" y="130.415">
<feDropShadow dx="-1.36773e-05" dy="3.77827" flood-color="#ffffff" flood-opacity="0" in="SourceGraphic" result="Shadow" stdDeviation="5"/>
</filter>
<filter color-interpolation-filters="sRGB" filterUnits="userSpaceOnUse" height="46.6592" id="Filter_4" width="37.9244" x="9.7281" y="127.385">
<feDropShadow dx="-1.36773e-05" dy="3.77827" flood-color="#ffffff" flood-opacity="0" in="SourceGraphic" result="Shadow" stdDeviation="5"/>
</filter>
<filter color-interpolation-filters="sRGB" filterUnits="userSpaceOnUse" height="40.6088" id="Filter_5" width="34.587" x="8.04027" y="132.57">
<feDropShadow dx="-1.36773e-05" dy="3.77827" flood-color="#ffffff" flood-opacity="0" in="SourceGraphic" result="Shadow" stdDeviation="5"/>
</filter>
<filter color-interpolation-filters="sRGB" filterUnits="userSpaceOnUse" height="53.1676" id="Filter_6" width="41.47" x="12.2762" y="121.867">
<feDropShadow dx="-1.36773e-05" dy="3.77827" flood-color="#ffffff" flood-opacity="0" in="SourceGraphic" result="Shadow" stdDeviation="5"/>
</filter>
<filter color-interpolation-filters="sRGB" filterUnits="userSpaceOnUse" height="72.4076" id="Filter_7" width="90.6343" x="105.25" y="137.406">
<feDropShadow dx="-1.36773e-05" dy="3.77827" flood-color="#ffffff" flood-opacity="0" in="SourceGraphic" result="Shadow" stdDeviation="5"/>
</filter>
</defs>
<clipPath id="ArtboardFrame">
<rect height="198.45" width="283.5" x="0" y="0"/>
</clipPath>
<g clip-path="url(#ArtboardFrame)" id="レイヤー-2">
<path d="M-9.18781-11.7677L434.341-11.7677L434.341 300.538L-9.18781 300.538L-9.18781-11.7677Z" fill="#ffffff" fill-rule="nonzero" opacity="1" stroke="#000000" stroke-linecap="butt" stroke-linejoin="round" stroke-opacity="0" stroke-width="0.1"/>
</g>
<g clip-path="url(#ArtboardFrame)" id="レイヤー-1">
<path d="M256.895 127.61C252.092 121.201 253.359 114.842 253.558 108.446C253.884 98.0152 258.133 93.9933 259.393 92.6415C268.615 82.7465 270.19 79.0152 272.138 72.591C276.788 57.2499 273.625 46.8577 267.114 35.2285C248.182 1.41589 195.501 2.70929 176.09 33.1555C162.947 53.7719 170.745 64.1168 170.294 69.4317C169.819 75.0432 160.04 87.2841 161.776 90.7575C163.221 93.6468 166.047 92.836 168.346 93.764C169.473 94.2188 170.868 94.787 170.439 98.414C170.292 99.6626 169.567 101.053 169.584 102.135C169.597 102.95 169.772 105.142 169.96 106.04C170.113 106.77 169.96 107.744 170.273 108.392C170.585 109.041 170.854 111.282 171.5 113.949C172.319 117.326 173.961 118.246 174.083 119.634C175.021 130.286 180.016 130.894 180.763 130.99C186.552 131.733 187.893 128.757 190.97 128.579C195.493 128.317 209.784 130.452 210.995 139.554" fill="#000000" fill-opacity="0" fill-rule="nonzero" opacity="1" stroke="#030000" stroke-linecap="butt" stroke-linejoin="round" stroke-width="2"/>
<g opacity="1">
<path d="M182.321 68.7377C182.321 68.7377 105.109 68.4757 104.822 68.4819" fill="#000000" fill-opacity="0" fill-rule="nonzero" stroke="none"/>
<path d="M110.224 68.4973C127.808 68.5527 182.321 68.7377 182.321 68.7377" fill="none" stroke="#000000" stroke-linecap="round" stroke-linejoin="round" stroke-width="1.2"/>
<g fill="#000000" stroke="none">
<path d="M112.036 64.3024L104.824 68.4819L112.012 72.7024L112.036 64.3024Z" fill="#000000"/>
</g>
</g>
<g opacity="1">
<path d="M240.369 73.1819C240.402 73.1702 250.935 69.7504 248.982 57.5053C247.511 48.2759 228.487 45.3249 228.397 45.4378" fill="#000000" fill-opacity="0" fill-rule="nonzero" stroke="none"/>
<path d="M233.687 46.5292C239.458 48.0823 248.015 51.4365 248.982 57.5053C250.935 69.7504 240.402 73.1702 240.369 73.1819" fill="none" stroke="#000000" stroke-linecap="round" stroke-linejoin="round" stroke-width="1.2"/>
<g fill="#000000" stroke="none">
<path d="M236.298 42.7795L228.398 45.438L234.601 51.0063L236.298 42.7795Z" fill="#000000"/>
</g>
</g>
<g opacity="1">
<path d="M45.2278 150.84C45.2278 150.84 151.801 121.902 165.951 116.567C182.294 110.404 205.846 86.7629 205.859 86.6095" fill="#000000" fill-opacity="0" fill-rule="nonzero" stroke="none"/>
<path d="M202.01 90.3992C194.662 97.3657 178.262 111.925 165.951 116.567C151.801 121.902 45.2278 150.84 45.2278 150.84" fill="none" stroke="#000000" stroke-linecap="round" stroke-linejoin="round" stroke-width="1.2"/>
<g fill="#000000" stroke="none">
<path d="M203.675 94.6547L205.858 86.6102L197.781 88.6697L203.675 94.6547Z" fill="#000000"/>
</g>
</g>
<g filter="url(#Filter)">
<path d="M226.525 32.9531C226.525 32.9531 228.08 32.9787 230.4 33.0211C237.701 33.1544 258.986 34.5085 262.264 56.225C264.171 68.854 247.795 114.159 226.656 142.255C203.852 172.566 183.663 178.98 183.599 178.975" fill="#000000" fill-opacity="0" fill-rule="nonzero" stroke="none"/>
<path d="M188.548 176.81C195.917 173.042 210.642 163.541 226.656 142.255C247.795 114.159 264.171 68.854 262.264 56.225C258.986 34.5085 237.701 33.1544 230.4 33.0211C228.08 32.9787 226.525 32.9531 226.525 32.9531" fill="none" stroke="#000000" stroke-linecap="round" stroke-linejoin="round" stroke-width="1.2"/>
<g fill="#000000" stroke="none">
<path d="M188.514 172.241L183.601 178.974L191.88 179.937L188.514 172.241Z" fill="#000000"/>
</g>
</g>
<path d="M214.022 69.7504C217.957 62.6618 228.06 60.5224 231.625 67.951C234.498 73.9347 232.933 76.4494 228.238 80.4312C224.671 83.4567 229.248 88.0382 226.099 91.4851C224.302 93.4515 220.631 94.7537 219.145 93.0303" fill="#000000" fill-opacity="0" fill-rule="nonzero" opacity="1" stroke="#000000" stroke-linecap="round" stroke-linejoin="round" stroke-width="1.2"/>
<path d="M91.9465 72.3052L95.8525 72.3052L96.4405 74.0692C96.5525 74.4192 96.6085 74.6992 96.6085 74.8672C96.6085 75.2732 96.3145 75.4412 95.6005 75.4692L95.6005 75.8192L99.2125 75.8192L99.2125 75.4692C98.4005 75.4412 98.1345 75.1752 97.7425 74.0272L94.7745 65.5712L93.9065 65.6692L90.9245 73.5652C90.3925 74.9792 89.9305 75.4692 89.1325 75.4692L89.1325 75.8192L92.4085 75.8192L92.4085 75.4692C91.5965 75.4412 91.2325 75.2172 91.2325 74.7132C91.2325 74.4472 91.3305 74.0132 91.4985 73.5652L91.9465 72.3052ZM95.6705 71.7872L92.1425 71.7872L93.9625 66.8872L95.6705 71.7872Z" fill="#000000" opacity="1" stroke="none"/>
<path d="M35.5238 129.584L39.2758 129.584C40.2278 129.584 41.1098 129.486 41.6418 129.332C42.9018 128.926 43.5178 128.128 43.5178 126.84C43.5178 125.776 43.0698 125.048 42.1178 124.558C41.6278 124.306 41.1938 124.208 40.5078 124.18L40.5078 124.082C42.2718 123.858 43.1258 123.116 43.1258 121.786C43.1258 120.862 42.7338 120.232 41.9218 119.84C41.3758 119.588 40.4378 119.434 39.3458 119.434L35.5238 119.434L35.5238 119.77C36.1678 119.77 36.4198 119.882 36.5178 120.176C36.5598 120.302 36.5598 120.316 36.5878 121.212L36.5878 127.806C36.5598 128.856 36.5598 128.87 36.4058 129.038C36.2798 129.178 35.9998 129.248 35.5238 129.248L35.5238 129.584ZM37.8338 123.928L37.8338 119.854L39.1218 119.854C40.9278 119.854 41.7958 120.498 41.7958 121.842C41.7958 123.214 40.9278 123.928 39.2478 123.928L37.8338 123.928ZM37.8338 129.164L37.8338 124.39L39.1918 124.39C39.9618 124.39 40.6478 124.516 41.0538 124.726C41.7258 125.09 42.0898 125.776 42.0898 126.728C42.0898 127.554 41.8378 128.226 41.3898 128.59C40.9418 128.982 40.2138 129.164 39.1918 129.164L37.8338 129.164Z" fill="#000000" opacity="1" stroke="none"/>
<path d="M220.822 79.3073L220.822 76.2553C220.36 76.4233 220.29 76.4513 220.094 76.4513C219.856 76.4513 219.716 76.4233 219.058 76.2133C218.442 76.0173 217.826 75.9053 217.28 75.9053C216.342 75.9053 215.348 76.2133 214.634 76.7593C213.374 77.6833 212.66 79.3493 212.66 81.3093C212.66 82.8633 213.108 84.1373 213.976 85.0753C214.802 85.9573 215.936 86.4473 217.196 86.4473C218.428 86.4473 219.492 86.0693 220.206 85.3833C220.696 84.9073 221.046 84.3473 221.354 83.5353L220.948 83.3533C220.402 84.9353 219.142 85.8873 217.588 85.8873C215.474 85.8873 214.074 83.9693 214.074 81.0433C214.074 79.6853 214.354 78.4953 214.886 77.6413C215.39 76.8013 216.328 76.2833 217.336 76.2833C218.246 76.2833 219.1 76.7033 219.674 77.4173C220.052 77.9213 220.248 78.4393 220.374 79.3073L220.822 79.3073Z" fill="#000000" opacity="1" stroke="none"/>
<path d="M214.449 45.9887L218.047 45.9887C219.741 45.9887 220.889 45.7507 221.743 45.2047C223.017 44.3787 223.703 42.8527 223.703 40.8507C223.703 38.7507 222.961 37.2247 221.533 36.4127C220.847 36.0207 219.839 35.8387 218.397 35.8387L214.449 35.8387L214.449 36.1747C215.093 36.1747 215.345 36.2867 215.443 36.5807C215.485 36.7067 215.485 36.7207 215.513 37.6167L215.513 44.2107C215.485 45.2607 215.485 45.2747 215.331 45.4427C215.205 45.5827 214.925 45.6527 214.449 45.6527L214.449 45.9887ZM216.787 45.5687L216.787 36.2587L218.117 36.2587C219.797 36.2587 220.945 36.7627 221.533 37.7427C222.023 38.5827 222.289 39.7447 222.289 41.0887C222.289 42.5447 221.939 43.7067 221.295 44.4487C220.665 45.1767 219.587 45.5687 218.215 45.5687L216.787 45.5687Z" fill="#000000" opacity="1" stroke="none"/>
<path d="M116.083 187.016L123.377 187.016L123.657 184.23L123.265 184.202C122.873 186.134 122.369 186.596 120.605 186.596L118.393 186.596L118.393 181.962L119.835 181.962C120.661 181.962 121.207 182.074 121.417 182.284C121.613 182.494 121.711 182.76 121.809 183.404L122.201 183.404L122.201 180.114L121.809 180.114C121.655 181.346 121.389 181.542 119.835 181.542L118.393 181.542L118.393 177.286L120.325 177.286C122.117 177.286 122.635 177.706 122.971 179.4L123.377 179.372L123.153 176.866L116.083 176.866L116.083 177.202C116.727 177.202 116.979 177.314 117.077 177.608C117.119 177.734 117.119 177.748 117.147 178.644L117.147 185.238C117.119 186.288 117.119 186.302 116.965 186.47C116.839 186.61 116.559 186.68 116.083 186.68L116.083 187.016Z" fill="#000000" opacity="1" stroke="none"/>
<g opacity="1">
<path d="M9.09819 149.746L13.9921 159.975L19.1069 157.528L14.213 147.299L9.09819 149.746Z" fill="#000000" fill-opacity="0" fill-rule="nonzero" filter="url(#Filter_2)" stroke="#000000" stroke-linecap="round" stroke-linejoin="round" stroke-width="1.2"/>
<path d="M14.213 147.299L19.1069 157.528L26.6687 160.196L16.8808 139.737L14.213 147.299Z" fill="#000000" fill-opacity="0" fill-rule="nonzero" filter="url(#Filter_3)" stroke="#000000" stroke-linecap="round" stroke-linejoin="round" stroke-width="1.2"/>
<path d="M22.8281 136.707C22.8281 136.707 29.6659 137.037 33.117 144.355C36.6169 151.776 32.616 157.166 32.616 157.166" fill="#000000" fill-opacity="0" fill-rule="nonzero" filter="url(#Filter_4)" stroke="#000000" stroke-linecap="round" stroke-linejoin="round" stroke-width="1.2"/>
<path d="M21.1403 141.892C21.1403 141.892 26.123 142.045 28.5523 147.2C31.0159 152.427 28.0336 156.301 28.0336 156.301" fill="#000000" fill-opacity="0" fill-rule="nonzero" filter="url(#Filter_5)" stroke="#000000" stroke-linecap="round" stroke-linejoin="round" stroke-width="1.2"/>
<path d="M25.3762 131.189C25.3762 131.189 34.148 131.741 38.6988 141.385C43.3139 151.166 38.2777 158.157 38.2777 158.157" fill="#000000" fill-opacity="0" fill-rule="nonzero" filter="url(#Filter_6)" stroke="#000000" stroke-linecap="round" stroke-linejoin="round" stroke-width="1.2"/>
</g>
<path d="M134.706 153.692C134.706 153.692 122.694 162.795 119.566 167.423C116.438 172.051 119.919 173.092 123.541 172.626C127.163 172.159 131.211 163.375 135.815 160.329C140.42 157.283 143.949 161.377 143.949 161.377C143.949 161.377 140.196 164.748 141.583 168.573C142.969 172.398 149.124 175.63 149.124 175.63C149.124 175.63 152.575 178.971 154.596 179.682C156.617 180.393 161.053 177.846 161.053 177.846C161.053 177.846 164.551 181.385 168.626 185.157C172.701 188.93 177.351 192.935 177.351 192.935L182.784 183.602C182.784 183.602 180.221 182.059 176.187 178.774C172.153 175.488 166.648 170.46 166.648 170.46L159.698 157.465C159.698 157.465 155.574 148.874 151.417 147.474C147.26 146.074 145.289 146.695 141.462 148.911C137.634 151.128 134.706 153.692 134.706 153.692Z" fill="#000000" fill-opacity="0" fill-rule="nonzero" filter="url(#Filter_7)" stroke="#000000" stroke-linecap="round" stroke-linejoin="round" stroke-width="1.2"/>
<g fill="#000000" opacity="1" stroke="none">
<path d="M39.4684 70.9142C38.7476 71.528 38.1032 72.1041 37.6073 72.5911C37.4616 72.7378 37.43 72.9229 37.4788 73.0837C37.5113 73.1909 37.5666 73.2765 37.658 73.3365C37.7884 73.4286 37.9427 73.4549 38.09 73.4102C38.2106 73.3736 38.3457 73.2887 38.4687 73.1636C39.3201 72.3052 40.2327 71.3113 41.0695 70.5012C41.2833 70.29 41.3376 70.0833 41.2685 69.8556C41.2441 69.7752 41.2063 69.6989 41.1685 69.6226C41.0283 69.4018 40.7343 69.3008 40.453 69.3862C40.4262 69.3944 40.3994 69.4025 40.386 69.4066C39.5717 69.7123 38.3555 70.1401 37.0293 70.5427C35.77 70.925 34.5656 71.2468 33.7013 71.436C33.6879 71.4401 33.6611 71.4482 33.6343 71.4563C33.3262 71.5499 33.1874 71.7676 33.2408 72.0879C33.253 72.1281 33.2611 72.1549 33.2692 72.1817C33.3546 72.463 33.5764 72.6151 33.8833 72.5658C34.7115 72.4022 35.8181 72.0955 36.9032 71.7661C37.7472 71.5098 38.6687 71.1716 39.4212 70.8553L39.4684 70.9142ZM34.6009 79.1221C34.9099 80.1402 35.6532 80.6608 36.7706 80.7751C37.6679 80.8392 38.8595 80.6677 40.2795 80.2366C42.0076 79.7119 43.4271 79.1347 44.3866 78.5361C44.6931 78.3407 44.833 78.0787 44.7435 77.784C44.7273 77.7304 44.6935 77.6675 44.6598 77.6046C44.5208 77.3395 44.2885 77.2491 44.0072 77.3345C43.9402 77.3549 43.8639 77.3926 43.7876 77.4304C42.852 77.9632 41.5064 78.5912 39.8989 79.0792C38.7468 79.429 37.8569 79.5821 37.1488 79.563C36.3522 79.5414 35.8725 79.2628 35.6773 78.6197C35.5106 78.0705 35.6974 77.3846 36.1294 76.639C36.2175 76.4952 36.2304 76.345 36.1938 76.2244C36.1531 76.0905 36.0629 75.9862 35.8964 75.9197C35.7608 75.8584 35.628 75.8548 35.494 75.8955C35.3333 75.9443 35.1929 76.0601 35.0955 76.2213C34.442 77.2976 34.3528 78.305 34.6009 79.1221Z"/>
<path d="M52.8646 66.8472C52.1439 67.461 51.4994 68.0371 51.0035 68.5242C50.8578 68.6708 50.8263 68.856 50.8751 69.0167C50.9076 69.1239 50.9629 69.2095 51.0543 69.2696C51.1846 69.3617 51.3389 69.388 51.4863 69.3432C51.6069 69.3066 51.742 69.2217 51.865 69.0966C52.7163 68.2383 53.6289 67.2443 54.4657 66.4343C54.6796 66.223 54.7339 66.0164 54.6647 65.7886C54.6403 65.7082 54.6025 65.6319 54.5647 65.5556C54.4246 65.3348 54.1306 65.2339 53.8492 65.3193C53.8224 65.3274 53.7957 65.3356 53.7823 65.3396C52.968 65.6454 51.7518 66.0731 50.4255 66.4757C49.1663 66.858 47.9618 67.1798 47.0975 67.369C47.0841 67.3731 47.0573 67.3812 47.0305 67.3894C46.7224 67.4829 46.5837 67.7006 46.637 68.0209C46.6492 68.0611 46.6574 68.0879 46.6655 68.1147C46.7509 68.396 46.9727 68.5481 47.2796 68.4989C48.1078 68.3352 49.2144 68.0285 50.2995 67.6991C51.1435 67.4429 52.0649 67.1046 52.8175 66.7884L52.8646 66.8472ZM47.9971 75.0552C48.3062 76.0733 49.0495 76.5938 50.1669 76.7081C51.0642 76.7722 52.2557 76.6007 53.6757 76.1696C55.4039 75.645 56.8234 75.0677 57.7829 74.4691C58.0893 74.2737 58.2293 74.0118 58.1398 73.717C58.1235 73.6634 58.0898 73.6005 58.0561 73.5376C57.9171 73.2726 57.6848 73.1821 57.4035 73.2676C57.3365 73.2879 57.2602 73.3257 57.1839 73.3635C56.2483 73.8962 54.9027 74.5242 53.2951 75.0123C52.143 75.362 51.2531 75.5151 50.5451 75.496C49.7485 75.4745 49.2688 75.1958 49.0736 74.5528C48.9069 74.0035 49.0937 73.3177 49.5257 72.572C49.6137 72.4283 49.6266 72.278 49.59 72.1575C49.5494 72.0235 49.4592 71.9192 49.2927 71.8527C49.157 71.7915 49.0243 71.7879 48.8903 71.8285C48.7296 71.8773 48.5891 71.9931 48.4918 72.1544C47.8382 73.2306 47.749 74.238 47.9971 75.0552Z"/>
<path d="M67.5996 62.9005C67.4735 62.4853 67.3393 62.0432 67.201 61.5877C67.1319 61.36 67.0627 61.1322 66.9936 60.9045C66.896 60.583 66.6247 60.4605 66.2764 60.5663C65.9549 60.6639 65.8202 60.8949 65.926 61.2433C66.1334 61.9265 66.3583 62.619 66.575 63.2847C65.8545 63.562 65.1083 63.8032 64.3849 64.0228C63.8759 64.1773 63.3628 64.3185 62.8764 64.4515C62.863 64.4555 62.8496 64.4596 62.8496 64.4596C62.5415 64.5532 62.4284 64.807 62.5219 65.1151C62.6195 65.4366 62.832 65.6062 63.1843 65.5139C63.6439 65.389 64.1168 65.26 64.5857 65.1177C65.3894 64.8737 66.1985 64.5988 66.9231 64.3349C67.1683 65.0944 67.4066 65.7829 67.642 66.4137C67.803 66.8477 68.0058 67.3713 68.1802 67.8012C67.6398 67.8043 67.0487 67.8814 66.4459 68.0644C64.8517 68.5483 64.1114 69.7241 64.4733 70.9164C64.88 72.256 66.1998 72.7478 67.8476 72.2476C69.5355 71.7351 70.2967 70.7725 69.8656 69.3525C69.8371 69.2587 69.7924 69.1114 69.7424 68.9949C70.349 69.1618 70.9882 69.436 71.6856 69.8534C71.8293 69.9414 71.993 69.9503 72.1269 69.9096C72.2609 69.8689 72.392 69.7706 72.4759 69.6135C72.5465 69.4604 72.5554 69.2967 72.5106 69.1494C72.4659 69.002 72.3501 68.8616 72.2104 68.787C71.4339 68.3497 70.2928 67.9645 69.3751 67.8335C69.1601 67.2696 68.8857 66.6068 68.6909 66.1099C68.434 65.4564 68.201 64.737 67.9477 63.9507C68.7043 63.6478 69.3899 63.3519 69.9695 63.0443C70.2212 62.9093 70.3063 62.7079 70.2209 62.4266C70.2087 62.3864 70.1965 62.3462 70.1709 62.3101C70.0803 62.0596 69.8532 61.9384 69.5853 62.0197C69.5451 62.0319 69.5049 62.0441 69.4688 62.0697C68.8851 62.3639 68.2357 62.6343 67.5996 62.9005ZM68.5685 68.8392C68.6307 68.9959 68.6726 69.0856 68.7092 69.2061C69.0386 70.2912 68.7348 70.8809 67.4488 71.2713C66.4708 71.5682 65.7163 71.2998 65.5089 70.6166C65.3015 69.9334 65.7794 69.2909 66.7306 69.0021C67.3468 68.815 67.9461 68.7648 68.5685 68.8392ZM60.0902 62.5028C60.0192 62.5098 59.9656 62.526 59.912 62.5423C59.6441 62.6237 59.4972 62.8146 59.5051 63.1779C59.5731 65.0886 60.008 67.6779 60.5692 69.5266C61.0451 71.0939 61.6276 72.4826 62.2493 73.5667C62.4139 73.8679 62.6584 73.9985 62.9531 73.909C62.9933 73.8968 63.0603 73.8765 63.1098 73.8468C63.3883 73.7038 63.4519 73.4796 63.3624 73.1849C63.3421 73.1179 63.3043 73.0416 63.2665 72.9653C62.6797 71.8998 62.096 70.5554 61.6771 69.1756C61.1199 67.3403 60.7541 64.9788 60.6768 63.0856C60.6751 62.9837 60.6682 62.9126 60.6438 62.8322C60.5706 62.5911 60.3744 62.4751 60.0902 62.5028Z"/>
<path d="M74.4536 58.5373C74.3221 58.4894 74.1893 58.4859 74.0553 58.5265C73.8946 58.5753 73.7448 58.7086 73.6637 58.9234C72.8452 61.191 72.6545 63.1655 73.4191 65.684C74.1878 68.2159 75.448 69.7646 77.3797 71.2118C77.5666 71.3453 77.7517 71.3769 77.9125 71.3281C78.0465 71.2874 78.1682 71.2066 78.2603 71.0762C78.3885 70.9202 78.4644 70.7363 78.4074 70.5487C78.379 70.4549 78.3062 70.36 78.1892 70.2638C76.5305 69.0409 75.319 67.653 74.6114 65.3221C73.9119 63.0179 74.142 61.2216 74.8596 59.248C74.9074 59.1164 74.9151 58.9971 74.8866 58.9033C74.8297 58.7157 74.6603 58.5916 74.4536 58.5373Z"/>
<path d="M98.7143 51.172C98.5726 51.3321 98.5143 51.5254 98.5672 51.6995C98.5997 51.8067 98.6724 51.9016 98.7853 51.9844C100.479 53.2259 101.669 54.5911 102.368 56.8953C103.076 59.2263 102.841 61.0534 102.142 62.9921C102.094 63.1236 102.086 63.243 102.119 63.3502C102.172 63.5243 102.341 63.6485 102.534 63.7069C102.679 63.7506 102.83 63.7635 102.95 63.7269C103.124 63.6741 103.261 63.5449 103.328 63.3341C104.129 61.0572 104.329 59.0652 103.561 56.5333C102.796 54.0148 101.54 52.4796 99.5855 51.0538C99.4121 50.9163 99.2135 50.8888 99.0394 50.9416C98.9188 50.9782 98.797 51.0591 98.7143 51.172Z"/>
<path d="M107.37 51.1047C106.52 51.436 105.448 51.9075 104.681 52.2721C104.412 52.3977 104.299 52.6515 104.376 52.906C104.388 52.9462 104.401 52.9864 104.422 53.0091C104.548 53.2783 104.78 53.3687 105.008 53.2995C105.048 53.2873 105.088 53.2751 105.124 53.2495C105.855 52.9106 106.766 52.4878 107.433 52.2268C107.458 52.9361 107.425 53.6483 107.402 54.343C107.316 56.2273 107.056 57.9741 106.643 59.5042C106.599 59.6491 106.609 59.7778 106.641 59.885C106.698 60.0726 106.858 60.2142 107.078 60.2644C107.192 60.3029 107.308 60.2972 107.401 60.2687C107.589 60.2118 107.748 60.0611 107.809 59.7793C108.223 58.2049 108.455 56.3644 108.535 54.3647C108.567 53.5064 108.568 52.6428 108.547 51.8008C108.874 51.6723 109.227 51.5357 109.683 51.3974C110.942 51.0151 111.481 51.3929 111.932 52.8798C112.294 54.0721 112.507 55.3976 112.52 56.2129C112.539 57.1434 112.264 57.4903 111.701 57.6611C111.206 57.8116 110.625 57.8269 110.18 57.7573C110.039 57.7269 109.91 57.7368 109.803 57.7693C109.615 57.8262 109.487 57.9822 109.464 58.1942C109.435 58.2908 109.45 58.3886 109.478 58.4824C109.539 58.6834 109.703 58.8384 109.923 58.8886C110.566 59.03 111.369 58.9764 112.012 58.7812C113.084 58.4558 113.701 57.7417 113.678 56.315C113.666 55.2651 113.451 53.8819 113.061 52.5959C112.426 50.506 111.338 49.8123 109.502 50.3695C109.181 50.4671 108.863 50.5781 108.479 50.7094C108.429 49.9198 108.35 49.0806 108.226 48.2845C108.227 48.2402 108.215 48.2 108.202 48.1598C108.121 47.8919 107.898 47.784 107.582 47.8508C107.538 47.8496 107.497 47.8618 107.457 47.874C107.189 47.9553 107.025 48.1369 107.091 48.4974C107.218 49.3512 107.323 50.2265 107.37 51.1047ZM117.143 52.4537C116.173 50.9926 114.502 49.2468 113.062 48.2645C112.897 48.1538 112.694 48.1129 112.507 48.1698C112.413 48.1983 112.328 48.2536 112.25 48.3356C112.091 48.4863 112.041 48.7064 112.094 48.8806C112.122 48.9743 112.177 49.06 112.269 49.12C113.726 50.1116 115.24 51.7734 116.195 53.1367C116.374 53.3895 116.602 53.4666 116.83 53.3974C116.91 53.373 117 53.3312 117.068 53.2666C117.262 53.1345 117.33 52.9238 117.257 52.6826C117.236 52.6156 117.195 52.5259 117.143 52.4537Z"/>
<path d="M124.864 44.872C122.559 46.5812 121.696 48.8476 122.31 50.8705C122.827 52.5718 124.121 53.5102 125.704 53.7611C126.67 53.9068 127.794 53.7999 128.906 53.4623C129.307 53.3403 129.457 53.0609 129.366 52.6643C129.357 52.6375 129.353 52.6241 129.345 52.5973C129.252 52.2892 128.978 52.109 128.589 52.227C127.687 52.4861 126.745 52.6112 125.933 52.4918C124.835 52.3426 123.841 51.7665 123.434 50.4269C122.779 48.2701 124.216 45.727 126.963 44.3662C127.255 44.2191 127.461 44.1272 127.681 44.0313C128.071 43.8691 128.114 43.578 128.029 43.2967L128.016 43.2565C127.896 42.9565 127.657 42.795 127.282 42.9089L127.242 42.9211C124.044 44.0527 120.577 45.3541 117.386 46.6009C117.099 46.7172 116.971 47.0193 117.061 47.3141L117.077 47.3676C117.201 47.681 117.459 47.8076 117.808 47.7018C117.834 47.6937 117.848 47.6896 117.875 47.6815C119.535 47.031 121.358 46.2875 123.225 45.5452C123.655 45.3708 124.21 45.1289 124.826 44.7957L124.864 44.872ZM126.262 46.8761C126.299 46.9967 126.385 47.0876 126.494 47.157C126.995 47.4584 127.564 47.8856 127.995 48.2959C128.125 48.4322 128.252 48.4667 128.413 48.4179C128.667 48.3406 128.802 48.1095 128.741 47.9086C128.688 47.7344 128.606 47.6569 128.542 47.5887C128.153 47.2239 127.475 46.7273 126.934 46.4381C126.794 46.3635 126.688 46.3518 126.541 46.3965C126.327 46.4616 126.209 46.702 126.262 46.8761ZM127.472 45.558C127.52 45.7188 127.581 45.7735 127.738 45.8575C128.218 46.1362 128.725 46.5529 129.174 46.9725C129.312 47.0914 129.426 47.1299 129.587 47.0811C129.842 47.0038 129.937 46.7407 129.889 46.5799C129.844 46.4326 129.771 46.3376 129.707 46.2694C129.335 45.9139 128.615 45.3719 128.165 45.1427C128.012 45.0721 127.902 45.047 127.754 45.0918C127.567 45.1487 127.419 45.3839 127.472 45.558Z"/>
<path d="M138.84 46.0422L138.918 46.2968C139.398 47.8775 138.56 49.3607 136.297 50.5308C136.045 50.6657 135.945 50.9154 136.031 51.1968C136.043 51.237 136.059 51.2905 136.089 51.3401C136.232 51.6185 136.491 51.7008 136.759 51.6195C136.812 51.6032 136.853 51.591 136.889 51.5654C137.648 51.174 138.298 50.7133 138.803 50.2087C139.995 49.0275 140.404 47.6744 139.875 45.9329C139.684 45.3033 139.389 44.7638 138.954 44.2959C138.673 43.3716 138.385 42.4205 138.112 41.5229C138.483 41.3956 138.845 41.2858 139.207 41.176C140.077 40.9117 140.912 40.6729 141.706 40.4464C142.015 40.3528 142.157 40.1485 142.06 39.827C142.056 39.8136 142.052 39.8002 142.048 39.7868C141.938 39.4251 141.697 39.3079 141.336 39.4177C140.876 39.5426 140.394 39.689 139.912 39.8354C139.228 40.0428 138.522 40.2718 137.803 40.5048C137.657 40.0225 137.523 39.5804 137.409 39.2054C137.303 38.8571 137.08 38.7492 136.691 38.8671C136.357 38.9688 136.239 39.2092 136.329 39.5039C136.451 39.9058 136.607 40.3706 136.749 40.8395C134.725 41.4978 132.655 42.1993 130.799 42.8799C130.495 42.9868 130.386 43.254 130.471 43.5354C130.471 43.5354 130.475 43.5487 130.479 43.5621C130.586 43.8662 130.826 44.0277 131.134 43.9341C131.147 43.9301 131.174 43.9219 131.187 43.9179C133.093 43.2076 135.118 42.505 137.075 41.8669C137.267 42.4965 137.474 43.1798 137.634 43.658C137.123 43.374 136.509 43.3264 135.853 43.5257C134.325 43.9893 133.514 45.3182 133.942 46.7248C134.348 48.0644 135.628 48.7146 137.021 48.2917C138.08 47.9704 138.779 47.3338 138.774 46.0626L138.84 46.0422ZM137.991 45.1734C138.28 46.1245 137.836 46.9762 136.899 47.2609C136.055 47.5171 135.296 47.2353 135.024 46.3377C134.768 45.4938 135.281 44.6795 136.192 44.4029C137.049 44.1426 137.772 44.45 137.991 45.1734Z"/>
<path d="M147.715 39.1782C147.804 38.9901 147.823 38.809 147.778 38.6617C147.705 38.4205 147.465 38.2591 147.175 38.3619C147.01 37.7242 146.833 37.0905 146.682 36.4487C146.678 36.4353 146.67 36.4085 146.665 36.3951C146.58 36.1138 146.33 36.014 146.032 36.0901C146.018 36.0942 146.005 36.0982 145.991 36.1023C145.683 36.1958 145.531 36.4176 145.615 36.7432C145.787 37.452 145.977 38.1259 146.141 38.7636C145.55 38.9868 144.82 39.2815 144.198 39.5437C143.934 39.6385 143.838 39.9016 143.928 40.1963C143.932 40.2097 143.936 40.2231 143.94 40.2365C144.035 40.5004 144.27 40.6485 144.538 40.5671C144.551 40.563 144.578 40.5549 144.591 40.5508C145.147 40.309 145.863 40.0183 146.427 39.8033C146.646 40.5709 146.848 41.285 147.058 42.0258C146.425 43.3152 145.864 44.5977 145.502 45.5269C145.445 45.6759 145.436 45.8395 145.477 45.9735C145.517 46.1074 145.616 46.2385 145.773 46.3225C145.913 46.3971 146.063 46.41 146.197 46.3694C146.344 46.3246 146.471 46.2129 146.538 46.0464C146.761 45.4811 147.034 44.74 147.276 44.1398C147.353 43.9116 147.472 43.5827 147.518 43.3492C147.568 43.6561 147.644 43.9549 147.729 44.2362C147.933 44.906 148.171 45.7407 148.432 46.598C148.537 46.9463 148.647 47.308 148.753 47.6563C148.842 47.9511 149.158 48.0747 149.439 47.9893C149.747 47.8958 149.931 47.635 149.838 47.3269C149.275 45.5225 148.754 43.852 148.237 42.1507C149.791 39.0748 150.816 38.1636 151.928 37.826C153.254 37.4234 154.344 38.4094 154.946 40.3921C155.116 40.9547 155.243 41.5162 155.309 42.0228C154.504 41.8284 153.623 41.8178 152.859 42.0497C151.426 42.4848 150.689 43.674 151.043 44.8395C151.397 46.005 152.708 46.5142 154.128 46.0831C155.427 45.6886 156.26 44.8652 156.474 43.4981C156.881 43.6818 157.308 43.9325 157.678 44.1861C157.812 44.2916 157.98 44.3138 158.127 44.2691C158.261 44.2284 158.379 44.1341 158.436 43.9851C158.497 43.8495 158.51 43.6992 158.465 43.5519C158.425 43.4179 158.344 43.2962 158.204 43.2215C157.726 42.8986 157.092 42.5936 156.496 42.3649C156.464 41.7307 156.296 40.8892 156.069 40.139C155.219 37.3391 153.594 36.1792 151.664 36.7648C150.352 37.1634 149.297 38.1712 148.049 40.4228C147.98 40.5317 147.927 40.6941 147.846 40.9089C147.795 40.6462 147.743 40.4278 147.691 40.2537C147.65 40.1197 147.569 39.8518 147.501 39.5798L147.715 39.1782ZM155.378 43.0699C155.356 44.2031 154.701 44.8409 153.764 45.1255C152.96 45.3696 152.236 45.1064 152.061 44.5304C151.878 43.9276 152.264 43.2692 153.121 43.0089C153.885 42.7771 154.593 42.7962 155.378 43.0699Z"/>
<path d="M160.842 40.1528C159.69 40.5025 159.037 41.7249 159.387 42.877C159.737 44.0291 160.959 44.6822 162.111 44.3324C163.263 43.9826 163.916 42.7602 163.567 41.6081C163.217 40.4561 161.995 39.803 160.842 40.1528ZM161.099 40.9967C161.768 40.7934 162.519 41.1945 162.723 41.8643C162.926 42.5342 162.525 43.2851 161.855 43.4884C161.185 43.6918 160.434 43.2906 160.231 42.6208C160.028 41.951 160.429 41.2001 161.099 40.9967Z"/>
</g>
<g fill="#000000" opacity="1" stroke="none">
<path d="M45.4098 143.476L45.9503 142.572L48.4303 144.589C48.5365 144.674 48.6751 144.688 48.8004 144.653C48.8969 144.627 48.9784 144.584 49.0424 144.515C49.1467 144.403 49.2036 144.232 49.164 144.088C49.1429 144.01 49.1052 143.948 49.0385 143.894L46.4199 141.863L47.6332 139.893C47.6963 139.782 47.7111 139.685 47.6848 139.588C47.6557 139.482 47.5662 139.382 47.453 139.31C47.3495 139.234 47.2205 139.218 47.0951 139.252C46.9987 139.278 46.9031 139.346 46.8401 139.457L45.1275 142.444L43.9563 138.161C43.8877 137.911 43.685 137.852 43.4342 137.921C43.1642 137.994 43.0248 138.167 43.0934 138.418L44.9717 145.286C45.0429 145.546 45.2412 145.627 45.5112 145.553C45.7717 145.482 45.911 145.309 45.8398 145.048L45.4098 143.476Z"/>
<path d="M50.9709 138.109C49.4083 138.536 48.7813 139.921 49.2377 141.59C49.7073 143.307 50.9393 144.172 52.5308 143.737C54.0355 143.325 54.645 141.915 54.186 140.236C53.727 138.558 52.5143 137.687 50.9709 138.109ZM51.203 138.844C52.1869 138.575 52.9635 139.254 53.2959 140.469C53.6468 141.752 53.3212 142.723 52.2698 143.01C51.2763 143.282 50.468 142.601 50.133 141.376C49.7822 140.093 50.1613 139.129 51.203 138.844Z"/>
<path d="M56.3963 140.472L56.9368 139.567L59.4168 141.584C59.523 141.669 59.6616 141.683 59.787 141.649C59.8834 141.622 59.965 141.579 60.029 141.51C60.1333 141.399 60.1901 141.228 60.1506 141.083C60.1295 141.006 60.0917 140.943 60.025 140.889L57.4064 138.858L58.6198 136.888C58.6828 136.778 58.6977 136.68 58.6713 136.584C58.6423 136.478 58.5528 136.378 58.4396 136.305C58.336 136.23 58.2071 136.213 58.0817 136.247C57.9852 136.274 57.8897 136.341 57.8266 136.452L56.1141 139.439L54.9428 135.157C54.8742 134.906 54.6716 134.847 54.4208 134.916C54.1507 134.99 54.0114 135.163 54.08 135.413L55.9582 142.281C56.0294 142.542 56.2277 142.622 56.4978 142.548C56.7582 142.477 56.8975 142.304 56.8263 142.044L56.3963 140.472Z"/>
<path d="M61.9575 135.104C60.3949 135.532 59.7679 136.916 60.2242 138.585C60.6938 140.302 61.9258 141.168 63.5173 140.732C65.0221 140.321 65.6315 138.91 65.1725 137.232C64.7135 135.553 63.5008 134.682 61.9575 135.104ZM62.1895 135.839C63.1734 135.57 63.9501 136.249 64.2825 137.465C64.6333 138.748 64.3077 139.718 63.2563 140.005C62.2628 140.277 61.4546 139.596 61.1196 138.371C60.7687 137.088 61.1478 136.124 62.1895 135.839Z"/>
<path d="M69.0817 136.173C69.0812 135.489 69.0158 134.833 68.9408 134.065C69.264 134.755 69.5539 135.36 69.8919 135.951L71.1407 138.129C71.2847 138.39 71.5548 138.43 71.8346 138.354C72.0854 138.285 72.2685 138.121 72.2789 137.818L72.492 132.835C72.4911 132.794 72.4875 132.743 72.4796 132.714C72.4242 132.511 72.2067 132.436 72.0128 132.448C71.9716 132.449 71.9234 132.462 71.8848 132.472C71.7015 132.523 71.5683 132.642 71.5658 132.86L71.5317 135.503C71.5313 136.146 71.5554 136.803 71.6341 137.621C71.2757 136.879 70.9955 136.272 70.6829 135.735L69.4517 133.584C69.2954 133.315 69.02 133.256 68.7403 133.332C68.4702 133.406 68.2633 133.598 68.2557 133.911L68.2618 136.397C68.257 137.062 68.3303 137.747 68.4001 138.495C68.0795 137.815 67.7651 137.197 67.4323 136.624L66.0967 134.356C65.9808 134.16 65.808 134.134 65.6343 134.182C65.5765 134.198 65.5309 134.22 65.4756 134.246C65.3029 134.335 65.1706 134.495 65.226 134.698C65.2339 134.727 65.2567 134.772 65.2769 134.808L67.919 139.01C68.0823 139.266 68.3235 139.314 68.5839 139.243C68.854 139.169 69.0688 139.007 69.0668 138.696L69.0817 136.173Z"/>
<path d="M77.1354 133.172C76.1085 133.474 75.6228 133.669 75.1318 133.958C74.2841 134.46 73.9022 135.186 74.1502 136.093C74.4219 137.087 75.2317 137.508 76.2927 137.218C77.2477 136.957 77.656 136.441 77.9091 135.926C77.9715 136.116 78.0383 136.284 78.0989 136.392C78.185 136.555 78.3744 136.565 78.5673 136.513C78.5963 136.505 78.6252 136.497 78.6541 136.489C78.89 136.404 78.9978 136.229 78.9555 136.075C78.9476 136.046 78.9274 136.01 78.9099 135.984C78.8019 135.816 78.664 135.501 78.5716 135.164L77.8515 132.53C77.5402 131.392 76.7637 131.055 75.4712 131.409C74.6899 131.622 74.3007 131.905 74.0343 132.258C73.8599 132.492 73.6857 132.84 73.671 133.166C73.6719 133.207 73.6728 133.248 73.6833 133.287C73.7308 133.46 73.9028 133.559 74.1019 133.566C74.1773 133.577 74.2571 133.565 74.3343 133.544C74.4983 133.499 74.6245 133.392 74.6419 133.191C74.6845 132.702 74.9579 132.337 75.6621 132.144C76.4241 131.936 76.8478 132.121 77.0219 132.757L77.1354 133.172ZM77.502 134.513C77.6023 134.879 77.5849 135.081 77.4649 135.363C77.2618 135.833 76.842 136.269 76.2343 136.435C75.6555 136.594 75.1774 136.362 75.0402 135.86C74.9136 135.397 75.0344 135.043 75.3674 134.744C75.7005 134.446 76.2047 134.204 77.3253 133.867L77.502 134.513Z"/>
<path d="M84.9808 132.177C85.9061 132.111 86.2281 132.303 86.3573 132.775C86.4919 133.267 86.0826 133.742 85.311 133.953C84.549 134.161 84.077 133.99 83.7503 133.478C83.6424 133.31 83.4476 133.281 83.2644 133.331C83.2258 133.341 83.1802 133.364 83.1346 133.387C82.9619 133.476 82.8348 133.656 82.8876 133.849C82.8981 133.887 82.9183 133.923 82.9412 133.969C83.4267 134.759 84.2847 135.053 85.5194 134.715C86.8698 134.346 87.4734 133.445 87.2202 132.519C86.9432 131.506 86.3414 131.276 85.0162 131.359L84.3839 131.397C83.5261 131.445 83.2901 131.302 83.1688 130.859C83.058 130.453 83.3375 130.035 84.1188 129.821C84.6686 129.671 85.1537 129.777 85.3978 130.176C85.4961 130.346 85.6908 130.376 85.8645 130.329C85.9127 130.315 85.9679 130.29 86.0135 130.267C86.174 130.171 86.3036 130.001 86.2535 129.818C86.243 129.779 86.2228 129.743 86.2026 129.707C85.7689 129.069 84.96 128.803 83.8893 129.096C82.645 129.436 82.0562 130.24 82.2963 131.118C82.5469 132.034 83.1523 132.314 84.402 132.222L84.9808 132.177Z"/>
<path d="M92.1712 128.863C91.8468 127.677 91.0395 127.151 89.8917 127.465C88.8788 127.742 88.4881 128.398 88.3571 129.17C88.3369 129.02 88.3148 128.788 88.2805 128.662L87.6183 126.241C87.5471 125.981 87.3515 125.91 87.1007 125.978C86.8306 126.052 86.6816 126.228 86.7502 126.479L88.6285 133.346C88.6997 133.607 88.9172 133.682 89.1873 133.608C89.4381 133.54 89.5678 133.369 89.4966 133.109L88.7579 130.408C88.6551 130.032 88.6847 129.723 88.8361 129.329C89.0384 128.818 89.3942 128.451 89.9343 128.303C90.6578 128.105 91.1194 128.466 91.3436 129.286L92.1877 132.373C92.259 132.633 92.4669 132.711 92.7273 132.64C92.9781 132.572 93.1367 132.393 93.0655 132.133L92.1712 128.863Z"/>
<path d="M94.4159 131.764C94.4871 132.024 94.6854 132.105 94.9555 132.031C95.2159 131.96 95.3649 131.784 95.2937 131.524L94.009 126.826C93.9404 126.575 93.7228 126.5 93.4624 126.571C93.1923 126.645 93.0626 126.815 93.1312 127.066L94.4159 131.764ZM92.8759 124.389C92.5093 124.489 92.2965 124.848 92.3967 125.214C92.4996 125.59 92.8655 125.791 93.232 125.691C93.5889 125.593 93.8018 125.234 93.6989 124.858C93.5986 124.492 93.2328 124.291 92.8759 124.389Z"/>
<path d="M100.39 130.482C100.611 130.422 100.687 130.204 100.626 129.982C100.565 129.76 100.417 129.635 100.176 129.701L97.9863 130.3C97.6583 130.39 97.3628 130.522 97.0604 130.667C97.2881 130.325 97.487 129.991 97.6437 129.616L99.1595 126.174C99.2681 125.927 99.318 125.768 99.2467 125.508C99.1808 125.267 99.0053 125.118 98.7641 125.184L95.4846 126.08C95.2531 126.144 95.1751 126.352 95.2358 126.573C95.2965 126.795 95.4641 126.915 95.6956 126.852L97.4029 126.385C97.7791 126.282 98.1061 126.151 98.4305 126.011C98.2361 126.323 98.0372 126.657 97.8594 127.069L96.3551 130.476C96.2395 130.736 96.1992 130.892 96.2705 131.153C96.3364 131.394 96.5216 131.54 96.7724 131.472L100.39 130.482Z"/>
<path d="M101.234 128.375C101.555 129.552 102.378 130.094 103.516 129.783C104.48 129.519 104.905 128.874 105.02 128.117C105.033 128.279 105.057 128.48 105.086 128.586L105.16 128.856C105.226 129.098 105.44 129.163 105.701 129.092C105.952 129.023 106.091 128.851 106.02 128.59L104.738 123.902C104.667 123.642 104.449 123.567 104.198 123.635C103.938 123.706 103.789 123.882 103.86 124.142L104.593 126.824C104.696 127.2 104.682 127.525 104.54 127.917C104.336 128.46 103.987 128.814 103.476 128.954C102.762 129.149 102.298 128.779 102.071 127.949L101.227 124.863C101.155 124.602 100.938 124.527 100.677 124.598C100.417 124.669 100.268 124.845 100.339 125.105L101.234 128.375Z"/>
<path d="M107.857 126.398L108.397 125.493L110.877 127.511C110.983 127.596 111.122 127.609 111.247 127.575C111.344 127.549 111.425 127.506 111.489 127.436C111.593 127.325 111.65 127.154 111.611 127.009C111.59 126.932 111.552 126.87 111.485 126.816L108.867 124.784L110.08 122.814C110.143 122.704 110.158 122.607 110.132 122.51C110.103 122.404 110.013 122.304 109.9 122.231C109.796 122.156 109.667 122.139 109.542 122.174C109.445 122.2 109.35 122.268 109.287 122.378L107.574 125.366L106.403 121.083C106.334 120.832 106.132 120.774 105.881 120.842C105.611 120.916 105.472 121.089 105.54 121.34L107.418 128.208C107.49 128.468 107.688 128.549 107.958 128.475C108.218 128.404 108.358 128.231 108.287 127.97L107.857 126.398Z"/>
<path d="M114.995 122.818C113.968 123.12 113.482 123.315 112.992 123.604C112.144 124.106 111.762 124.832 112.01 125.739C112.282 126.732 113.091 127.154 114.152 126.864C115.107 126.602 115.516 126.086 115.769 125.571C115.831 125.762 115.898 125.93 115.959 126.038C116.045 126.201 116.234 126.211 116.427 126.159C116.456 126.151 116.485 126.143 116.514 126.135C116.75 126.05 116.857 125.875 116.815 125.721C116.807 125.692 116.787 125.656 116.77 125.63C116.662 125.462 116.524 125.147 116.431 124.81L115.711 122.176C115.4 121.038 114.623 120.701 113.331 121.055C112.55 121.268 112.16 121.551 111.894 121.904C111.72 122.138 111.545 122.486 111.531 122.812C111.532 122.853 111.532 122.894 111.543 122.933C111.591 123.106 111.762 123.204 111.962 123.212C112.037 123.223 112.117 123.211 112.194 123.19C112.358 123.145 112.484 123.038 112.502 122.836C112.544 122.348 112.818 121.983 113.522 121.79C114.284 121.582 114.708 121.767 114.882 122.403L114.995 122.818ZM115.362 124.159C115.462 124.525 115.445 124.727 115.325 125.009C115.121 125.479 114.702 125.915 114.094 126.081C113.515 126.24 113.037 126.008 112.9 125.506C112.773 125.043 112.894 124.689 113.227 124.39C113.56 124.092 114.064 123.85 115.185 123.513L115.362 124.159Z"/>
<path d="M123.808 118.614C123.866 118.826 123.962 119.101 124.042 119.317C123.517 118.725 122.861 118.448 121.964 118.694C120.536 119.084 119.957 120.414 120.418 122.102C120.893 123.838 122.084 124.705 123.492 124.32C124.389 124.074 124.826 123.509 124.969 122.744C124.996 122.882 125.032 123.09 125.061 123.196L125.117 123.399C125.172 123.601 125.349 123.718 125.629 123.642C125.899 123.568 126.038 123.395 125.967 123.135L124.092 116.277C124.02 116.016 123.822 115.936 123.552 116.01C123.311 116.075 123.162 116.251 123.233 116.511L123.808 118.614ZM122.285 119.414C123.346 119.124 124.163 119.834 124.484 121.011C124.812 122.207 124.425 123.256 123.412 123.533C122.438 123.799 121.654 123.133 121.308 121.869C120.973 120.644 121.311 119.681 122.285 119.414Z"/>
<path d="M130.753 119.483C131.052 119.401 131.186 119.168 131.091 118.82C131.083 118.792 131.077 118.772 131.07 118.743C130.627 117.506 129.536 116.623 128.128 117.008C126.555 117.438 126.006 118.842 126.463 120.511C126.919 122.18 128.141 123.048 129.723 122.616C130.977 122.273 131.363 121.483 131.497 120.762C131.52 120.694 131.514 120.633 131.498 120.575C131.45 120.402 131.284 120.323 131.107 120.319C131.034 120.318 130.961 120.318 130.893 120.336C130.758 120.373 130.652 120.475 130.612 120.672C130.52 121.247 130.23 121.7 129.535 121.889C128.493 122.174 127.702 121.593 127.358 120.411L130.753 119.483ZM127.194 119.699C127.061 118.72 127.394 117.965 128.32 117.712C129.208 117.469 129.815 118.06 130.118 118.713C130.123 118.733 130.128 118.752 130.131 118.761C130.155 118.848 130.127 118.897 130.021 118.926L127.194 119.699Z"/>
<path d="M134.406 118.66C135.331 118.594 135.653 118.786 135.782 119.258C135.917 119.75 135.508 120.225 134.736 120.436C133.974 120.644 133.502 120.473 133.175 119.961C133.067 119.793 132.873 119.764 132.689 119.814C132.651 119.824 132.605 119.847 132.56 119.87C132.387 119.959 132.26 120.139 132.313 120.332C132.323 120.37 132.343 120.406 132.366 120.452C132.852 121.242 133.71 121.536 134.944 121.198C136.295 120.829 136.898 119.928 136.645 119.002C136.368 117.989 135.766 117.759 134.441 117.842L133.809 117.88C132.951 117.928 132.715 117.785 132.594 117.342C132.483 116.936 132.762 116.518 133.544 116.304C134.094 116.154 134.579 116.26 134.823 116.659C134.921 116.829 135.116 116.859 135.289 116.812C135.338 116.798 135.393 116.773 135.439 116.75C135.599 116.654 135.729 116.484 135.678 116.301C135.668 116.262 135.648 116.226 135.628 116.19C135.194 115.552 134.385 115.286 133.314 115.579C132.07 115.919 131.481 116.723 131.721 117.601C131.972 118.517 132.577 118.797 133.827 118.704L134.406 118.66Z"/>
<path d="M137.627 118.422C137.949 119.599 138.771 120.141 139.909 119.83C140.874 119.566 141.299 118.921 141.413 118.164C141.426 118.326 141.45 118.527 141.479 118.633L141.553 118.903C141.619 119.145 141.834 119.21 142.094 119.139C142.345 119.07 142.485 118.897 142.413 118.637L141.131 113.949C141.06 113.689 140.842 113.613 140.592 113.682C140.331 113.753 140.182 113.929 140.253 114.189L140.987 116.871C141.09 117.247 141.075 117.572 140.933 117.964C140.729 118.507 140.38 118.861 139.869 119.001C139.155 119.196 138.691 118.826 138.464 117.996L137.62 114.909C137.549 114.649 137.331 114.574 137.071 114.645C136.811 114.716 136.662 114.892 136.733 115.152L137.627 118.422Z"/>
<path d="M147.345 113.774C147.021 112.587 146.213 112.062 145.066 112.376C144.149 112.626 143.689 113.219 143.539 113.996C143.498 113.81 143.501 113.705 143.467 113.58L143.395 113.32C143.327 113.069 143.119 112.991 142.868 113.06C142.598 113.133 142.449 113.309 142.518 113.56L143.802 118.257C143.874 118.518 144.081 118.596 144.352 118.522C144.602 118.453 144.751 118.278 144.68 118.017L143.941 115.316C143.839 114.94 143.859 114.634 144.01 114.24C144.214 113.697 144.585 113.347 145.106 113.204C145.829 113.007 146.284 113.38 146.508 114.2L147.352 117.286C147.423 117.547 147.641 117.622 147.901 117.551C148.152 117.482 148.311 117.304 148.239 117.044L147.345 113.774Z"/>
<path d="M152.997 113.4C153.296 113.318 153.429 113.085 153.334 112.737C153.326 112.708 153.321 112.689 153.313 112.66C152.871 111.423 151.779 110.54 150.371 110.925C148.798 111.355 148.25 112.759 148.706 114.428C149.162 116.097 150.385 116.965 151.967 116.532C153.22 116.189 153.606 115.4 153.74 114.679C153.763 114.61 153.757 114.55 153.741 114.492C153.694 114.318 153.527 114.24 153.35 114.236C153.277 114.235 153.204 114.234 153.137 114.253C153.002 114.29 152.895 114.392 152.855 114.589C152.764 115.164 152.473 115.616 151.778 115.806C150.737 116.091 149.945 115.509 149.601 114.328L152.997 113.4ZM149.438 113.616C149.305 112.637 149.637 111.882 150.563 111.629C151.451 111.386 152.058 111.977 152.361 112.63C152.366 112.649 152.372 112.669 152.374 112.678C152.398 112.765 152.37 112.814 152.264 112.843L149.438 113.616Z"/>
<path d="M155.62 114.009C155.244 114.112 155.029 114.461 155.134 114.847C155.245 115.252 155.608 115.443 155.984 115.34C156.361 115.237 156.576 114.888 156.465 114.483C156.36 114.097 155.996 113.906 155.62 114.009Z"/>
</g>
</g>
</svg>
