<?xml version="1.0" encoding="UTF-8" standalone="no"?> <!-- Created with Vectornator for iOS (http://vectornator.io/) --><!DOCTYPE svg PUBLIC "-//W3C//DTD SVG 1.1//EN" "http://www.w3.org/Graphics/SVG/1.1/DTD/svg11.dtd">
<svg xmlns:vectornator="http://vectornator.io" viewBox="0 0 226.8 226.8" xml:space="preserve" xmlns="http://www.w3.org/2000/svg" width="100%" version="1.1" xmlns:xlink="http://www.w3.org/1999/xlink" style="fill-rule:nonzero;clip-rule:evenodd;stroke-linecap:round;stroke-linejoin:round;" height="100%">
<metadata>
<vectornator:setting value="false" key="WDIsolateActiveLayer"/>
<vectornator:setting key="VNDimensionsVisible" value="true"/>
<vectornator:setting key="WDDynamicGuides" value="false"/>
<vectornator:setting value="false" key="UndoHistoryDisabled"/>
<vectornator:setting value="false" key="IsTimeLapseWatermarkDisabled"/>
<vectornator:setting value="false" key="WDCMYKEnabledKey"/>
<vectornator:setting key="WDSnapToGrid" value="false"/>
<vectornator:setting key="VNPencilOnly" value="true"/>
<vectornator:setting value="false" key="WDSnapToEdges"/>
<vectornator:setting value="true" key="WDRulersVisible"/>
<vectornator:setting value="true" key="WDGuidesVisible"/>
<vectornator:setting key="WDOutlineMode" value="false"/>
<vectornator:setting value="true" key="VNSnapToGuides"/>
<vectornator:setting key="WDSnapToPoints" value="false"/>
<vectornator:setting key="WDUnits" value="Millimeters"/>
<vectornator:setting value="false" key="WDDisplayWhiteBackground"/>
</metadata>
<defs>
<path d="M130.421+332.429C57.2515+295.442+27.9075+206.168+64.8791+133.029C101.851+59.8904+191.137+30.5838+264.307+67.5708C337.476+104.558+366.82+193.832+329.849+266.971C292.877+340.11+203.59+369.416+130.421+332.429ZM130.421+332.429C57.2515+295.442+27.9075+206.168+64.8791+133.029C101.851+59.8904+191.137+30.5838+264.307+67.5708C337.476+104.558+366.82+193.832+329.849+266.971C292.877+340.11+203.59+369.416+130.421+332.429Z" transform="matrix(0.390062 0.771636 -0.771636 0.390062 279.811 -28.5606)" id="TextPath"/>
</defs>
<g id="レイヤー 1" visibility="hidden" vectornator:layerName="レイヤー 1">
<path stroke-linejoin="round" stroke="#2704a0" stroke-linecap="butt" d="M10.0755+199.165C10.0755+94.3076+95.0823+9.30373+199.944+9.30373C304.805+9.30373+389.812+94.3076+389.812+199.165C389.812+304.023+304.805+389.026+199.944+389.026C95.0823+389.026+10.0755+304.023+10.0755+199.165Z" opacity="1" fill="#ffffff" stroke-width="12"/>
<path fill-opacity="0" d="M3.75653+197.875C3.75653+90.2473+91.1199+2.99747+198.888+2.99747C306.656+2.99747+394.02+90.2473+394.02+197.875C394.02+305.503+306.656+392.753+198.888+392.753C91.1199+392.753+3.75653+305.503+3.75653+197.875Z" opacity="1" stroke-width="4" fill="#855f6a" stroke-linecap="butt" stroke-opacity="3.5822e-16" stroke-linejoin="round" stroke="#000000"/>
<text stroke-linejoin="round" opacity="1" font-size="36" stroke="#ffffff" font-family="'Georgia-Bold'" stroke-opacity="0" stroke-linecap="butt" vectornator:shadowRadius="2.64317" transform="matrix(0.521773 -1.03219 1.03219 0.521773 -116.518 303.72)" vectornator:shadowAngle="0.79834" vectornator:shadowColor="#000000" stroke-width="5" vectornator:shadowOffset="2.20264" vectornator:shadowOpacity="1" fill="#ff0058">
<textPath startOffset="0pt" xlink:href="#TextPath" method="align">
<![CDATA[TOKYO INSTITUTE OF TECHNOLOGY ]]></textPath>
</text>
<path stroke-width="12" stroke-linejoin="round" stroke="#2704a0" d="M64.1443+200.933C64.1443+126.803+124.239+66.7083+198.369+66.7083C272.499+66.7083+332.594+126.803+332.594+200.933C332.594+275.063+272.499+335.158+198.369+335.158C124.239+335.158+64.1443+275.063+64.1443+200.933Z" fill="#ffffff" stroke-linecap="butt" opacity="1"/>
<path d="M68.9259+198.27C68.9259+127.605+126.211+70.3203+196.876+70.3203C267.54+70.3203+324.825+127.605+324.825+198.27C324.825+268.935+267.54+326.22+196.876+326.22C126.211+326.22+68.9259+268.935+68.9259+198.27Z" stroke-opacity="0" fill-opacity="0" stroke-width="4.77" stroke-linejoin="round" stroke="#000000" fill="#ffffff" opacity="1" stroke-linecap="butt"/>
<g opacity="1">
<path d="M149.55+353.659C149.55+354.245+149.384+354.671+149.052+354.938C148.72+355.205+148.3+355.339+147.792+355.339C147.467+355.339+146.793+355.195+145.771+354.909C144.748+354.622+143.664+354.408+142.519+354.264C143.274+355.254+144.107+356.185+145.019+357.057C145.93+357.93+146.386+358.672+146.386+359.284C146.386+359.714+146.197+360.088+145.819+360.407C145.442+360.726+145.045+360.885+144.628+360.885C144.342+360.885+144.075+360.804+143.827+360.641C143.58+360.479+143.365+360.247+143.183+359.948C143.026+359.662+142.815+359.01+142.548+357.995C142.281+356.979+141.926+355.938+141.483+354.87C141.054+355.885+140.696+356.93+140.409+358.005C140.123+359.079+139.914+359.727+139.784+359.948C139.576+360.274+139.364+360.511+139.149+360.661C138.935+360.811+138.664+360.885+138.339+360.885C137.909+360.885+137.509+360.733+137.138+360.427C136.767+360.121+136.581+359.74+136.581+359.284C136.581+358.672+137.037+357.93+137.948+357.057C138.86+356.185+139.693+355.254+140.448+354.264C139.355+354.395+138.28+354.606+137.226+354.899C136.171+355.192+135.487+355.339+135.175+355.339C134.667+355.339+134.247+355.205+133.915+354.938C133.583+354.671+133.417+354.245+133.417+353.659C133.417+353.125+133.583+352.712+133.915+352.419C134.247+352.126+134.667+351.979+135.175+351.979C135.579+351.979+136.226+352.113+137.118+352.38C138.01+352.647+139.12+352.858+140.448+353.014C139.589+351.921+138.73+350.96+137.87+350.134C137.011+349.307+136.581+348.594+136.581+347.995C136.581+347.565+136.77+347.191+137.148+346.872C137.525+346.553+137.922+346.393+138.339+346.393C138.638+346.393+138.909+346.471+139.149+346.628C139.39+346.784+139.602+347.012+139.784+347.311C139.941+347.598+140.155+348.255+140.429+349.284C140.702+350.313+141.054+351.354+141.483+352.409C141.913+351.341+142.268+350.293+142.548+349.264C142.828+348.236+143.039+347.585+143.183+347.311C143.339+347.038+143.544+346.816+143.798+346.647C144.052+346.478+144.329+346.393+144.628+346.393C145.058+346.393+145.458+346.546+145.829+346.852C146.2+347.158+146.386+347.539+146.386+347.995C146.386+348.594+145.979+349.294+145.165+350.094C144.351+350.895+143.476+351.869+142.538+353.014C143.84+352.845+144.957+352.63+145.888+352.37C146.819+352.109+147.454+351.979+147.792+351.979C148.3+351.979+148.72+352.126+149.052+352.419C149.384+352.712+149.55+353.125+149.55+353.659Z" fill="#2704a0" opacity="1"/>
<path d="M180.99+348.62C180.47+348.685+180.027+348.75+179.662+348.815C179.298+348.88+178.888+348.971+178.432+349.089C177.898+349.232+177.556+349.486+177.406+349.85C177.257+350.215+177.182+350.632+177.182+351.1L177.182+366.374C177.182+367.78+176.899+369.069+176.332+370.241C175.766+371.413+174.988+372.396+173.998+373.19C172.996+373.971+171.876+374.561+170.639+374.958C169.402+375.355+168.08+375.553+166.674+375.553C164.239+375.553+162.276+374.968+160.785+373.796C159.294+372.624+158.549+371.016+158.549+368.971C158.549+367.76+158.891+366.758+159.574+365.964C160.258+365.169+161.199+364.772+162.397+364.772C163.529+364.772+164.431+365.104+165.102+365.768C165.772+366.432+166.108+367.253+166.108+368.229C166.108+369.063+165.818+369.834+165.238+370.544C164.659+371.253+163.998+371.908+163.256+372.507L163.256+372.76C163.373+373.021+163.627+373.242+164.018+373.425C164.408+373.607+164.806+373.698+165.209+373.698C166.772+373.698+167.999+373.138+168.891+372.018C169.783+370.899+170.229+369.206+170.229+366.94L170.229+351.296C170.229+350.827+170.157+350.436+170.014+350.124C169.871+349.811+169.526+349.538+168.979+349.303C168.588+349.134+168.116+348.991+167.563+348.874C167.009+348.757+166.55+348.672+166.186+348.62L166.186+347.096L180.99+347.096L180.99+348.62Z" opacity="1" fill="#2704a0"/>
<path fill="#2704a0" d="M207.922+365.925L207.375+374.811L181.847+374.811L181.847+373.288C182.303+373.249+182.837+373.187+183.449+373.102C184.061+373.018+184.465+372.936+184.66+372.858C185.129+372.676+185.454+372.422+185.636+372.096C185.819+371.771+185.91+371.354+185.91+370.846L185.91+351.296C185.91+350.827+185.838+350.44+185.695+350.134C185.552+349.828+185.207+349.551+184.66+349.303C184.256+349.121+183.771+348.975+183.205+348.864C182.638+348.753+182.186+348.672+181.847+348.62L181.847+347.096L197.062+347.096L197.062+348.62C196.646+348.659+196.154+348.714+195.588+348.786C195.021+348.858+194.53+348.958+194.113+349.089C193.605+349.258+193.267+349.522+193.097+349.88C192.928+350.238+192.844+350.645+192.844+351.1L192.844+369.323C192.844+370.182+192.902+370.859+193.019+371.354C193.136+371.849+193.364+372.214+193.703+372.448C194.041+372.695+194.513+372.855+195.119+372.927C195.724+372.998+196.561+373.034+197.629+373.034C198.67+373.034+199.683+372.972+200.666+372.848C201.649+372.725+202.355+372.455+202.785+372.038C203.449+371.374+204.129+370.44+204.826+369.235C205.523+368.031+206.079+366.927+206.496+365.925L207.922+365.925Z" opacity="1"/>
<path d="M222.275+375.553C220.243+375.553+218.342+375.225+216.572+374.567C214.801+373.91+213.258+372.956+211.943+371.706C210.654+370.482+209.638+368.968+208.896+367.165C208.154+365.361+207.783+363.379+207.783+361.218C207.783+359.069+208.157+357.08+208.906+355.251C209.654+353.421+210.706+351.836+212.06+350.495C213.388+349.18+214.983+348.161+216.845+347.438C218.707+346.716+220.699+346.354+222.822+346.354C224.358+346.354+225.758+346.54+227.021+346.911C228.284+347.282+229.352+347.702+230.224+348.171L231.435+347.096L233.134+347.096L233.31+357.214L231.591+357.214C230.615+354.128+229.443+351.862+228.075+350.417C226.708+348.971+225.042+348.249+223.075+348.249C220.628+348.249+218.766+349.326+217.49+351.481C216.214+353.636+215.575+356.66+215.575+360.553C215.575+362.754+215.794+364.632+216.23+366.188C216.666+367.744+217.236+368.997+217.939+369.948C218.694+370.938+219.586+371.663+220.615+372.126C221.643+372.588+222.783+372.819+224.033+372.819C225.855+372.819+227.48+372.324+228.906+371.335C230.331+370.345+231.63+368.848+232.802+366.843L234.482+367.858C233.922+369.004+233.284+370.029+232.568+370.934C231.852+371.839+231.025+372.617+230.087+373.268C229.059+373.984+227.923+374.544+226.679+374.948C225.436+375.352+223.967+375.553+222.275+375.553Z" fill="#2704a0" opacity="1"/>
<path fill="#2704a0" opacity="1" d="M259.829+353.659C259.829+354.245+259.663+354.671+259.33+354.938C258.998+355.205+258.579+355.339+258.071+355.339C257.745+355.339+257.071+355.195+256.049+354.909C255.027+354.622+253.943+354.408+252.797+354.264C253.552+355.254+254.386+356.185+255.297+357.057C256.209+357.93+256.664+358.672+256.664+359.284C256.664+359.714+256.476+360.088+256.098+360.407C255.72+360.726+255.323+360.885+254.907+360.885C254.62+360.885+254.353+360.804+254.106+360.641C253.858+360.479+253.644+360.247+253.461+359.948C253.305+359.662+253.094+359.01+252.827+357.995C252.56+356.979+252.205+355.938+251.762+354.87C251.332+355.885+250.974+356.93+250.688+358.005C250.401+359.079+250.193+359.727+250.063+359.948C249.855+360.274+249.643+360.511+249.428+360.661C249.213+360.811+248.943+360.885+248.618+360.885C248.188+360.885+247.788+360.733+247.416+360.427C247.045+360.121+246.86+359.74+246.86+359.284C246.86+358.672+247.316+357.93+248.227+357.057C249.138+356.185+249.972+355.254+250.727+354.264C249.633+354.395+248.559+354.606+247.504+354.899C246.45+355.192+245.766+355.339+245.454+355.339C244.946+355.339+244.526+355.205+244.194+354.938C243.862+354.671+243.696+354.245+243.696+353.659C243.696+353.125+243.862+352.712+244.194+352.419C244.526+352.126+244.946+351.979+245.454+351.979C245.857+351.979+246.505+352.113+247.397+352.38C248.289+352.647+249.399+352.858+250.727+353.014C249.868+351.921+249.008+350.96+248.149+350.134C247.289+349.307+246.86+348.594+246.86+347.995C246.86+347.565+247.049+347.191+247.426+346.872C247.804+346.553+248.201+346.393+248.618+346.393C248.917+346.393+249.187+346.471+249.428+346.628C249.669+346.784+249.881+347.012+250.063+347.311C250.219+347.598+250.434+348.255+250.707+349.284C250.981+350.313+251.332+351.354+251.762+352.409C252.192+351.341+252.547+350.293+252.827+349.264C253.107+348.236+253.318+347.585+253.461+347.311C253.618+347.038+253.823+346.816+254.077+346.647C254.33+346.478+254.607+346.393+254.907+346.393C255.336+346.393+255.737+346.546+256.108+346.852C256.479+347.158+256.664+347.539+256.664+347.995C256.664+348.594+256.258+349.294+255.444+350.094C254.63+350.895+253.754+351.869+252.817+353.014C254.119+352.845+255.235+352.63+256.166+352.37C257.097+352.109+257.732+351.979+258.071+351.979C258.579+351.979+258.998+352.126+259.33+352.419C259.663+352.712+259.829+353.125+259.829+353.659Z"/>
</g>
</g>
<g id="moji " vectornator:layerName="moji ">
<g opacity="0">
<path vectornator:shadowRadius="0" stroke="#580133" d="M137.278+264.712L151.01+298.639L171.495+290.348L174.505+297.784L145.376+309.574L128.635+268.21L137.278+264.712Z" vectornator:shadowOpacity="1" fill="#1d0080" vectornator:shadowColor="#000000" stroke-linecap="butt" vectornator:shadowOffset="0" stroke-width="0.5" stroke-linejoin="miter" vectornator:shadowAngle="0.567459" opacity="1"/>
<path vectornator:shadowRadius="0" vectornator:shadowOffset="0" vectornator:shadowColor="#000000" fill="#1d0080" stroke="#580133" stroke-width="0.5" stroke-linecap="butt" opacity="1" stroke-linejoin="miter" vectornator:shadowAngle="0.567459" d="M209.07+275.14L212.08+282.576L180.735+295.263L163.993+253.899L194.328+241.621L197.292+248.946L175.404+257.805L178.959+266.588L199.052+258.456L201.959+265.64L181.867+273.772L186.171+284.408L209.07+275.14Z" vectornator:shadowOpacity="1"/>
<path fill="#1d0080" stroke-width="0.5" vectornator:shadowOpacity="1" stroke-linejoin="miter" vectornator:shadowOffset="0" stroke="#580133" vectornator:shadowRadius="0" d="M223.681+229.741L255.071+265.176L245.698+268.969L239.591+261.545L224.353+267.713L224.932+277.374L215.896+281.031L213.915+233.694L223.681+229.741ZM222.542+241.208L223.797+259.642L234.293+255.394L222.542+241.208Z" vectornator:shadowAngle="0.567459" stroke-linecap="butt" opacity="1" vectornator:shadowColor="#000000"/>
<path vectornator:shadowRadius="0" vectornator:shadowOpacity="1" vectornator:shadowAngle="0.567459" fill="#1d0080" stroke="#580133" vectornator:shadowColor="#000000" stroke-linecap="butt" stroke-linejoin="miter" d="M271.866+241.069L263.082+244.624L269.102+259.497L260.515+262.972L243.773+221.609L261.789+214.317C265.942+212.636+269.685+212.362+273.018+213.495C276.351+214.628+278.922+217.431+280.731+221.902C282.708+226.785+282.87+230.736+281.218+233.756C279.567+236.776+276.449+239.213+271.866+241.069ZM272.195+225.422C271.324+223.271+270.138+221.966+268.635+221.507C267.132+221.049+265.361+221.232+263.322+222.057L255.268+225.317L260.197+237.496L268.251+234.236C270.29+233.411+271.675+232.273+272.406+230.824C273.136+229.374+273.066+227.574+272.195+225.422Z" opacity="1" vectornator:shadowOffset="0" stroke-width="0.5"/>
</g>
<g opacity="1">
<path fill="#2704a0" stroke-width="1" stroke="#ffffff" d="M51.7515+167.901C44.3479+162.939+41.9433+149.768+39.036+143.226C36.3119+137.097+33.7936+123.869+30.6048+122.439C27.9088+121.231+18.7806+127.661+8.5537+130.306C3.16175+131.701+2.32507+125.472+3.62658+123.613C7.64021+117.879+17.2259+116.031+21.3014+114.735C25.3769+113.438+35.7242+113.191+37.5823+118.66C37.9103+119.625+42.1116+123.824+47.7331+135.067C53.3546+146.31+55.3627+156.069+56.4168+156.339C58.4212+156.853+75.3266+146.223+80.4055+141.556C84.5098+137.785+89.7983+133.367+90.7005+128.104C93.1713+113.691+104.969+101.047+111.807+93.4724C118.645+85.8979+127.377+83.373+131.585+87.5811C135.793+91.7892+135.373+98.1539+134.11+103.151C132.848+108.148+130.533+114.25+128.219+120.194C125.904+126.138+114.753+139.814+106.126+145.021C97.4998+150.229+59.1551+172.863+51.7515+167.901Z" stroke-linejoin="miter" opacity="1" stroke-linecap="butt"/>
<path opacity="1" fill="#2704a0" stroke-width="1" stroke="#ffffff" d="M123.345+82.536C105.513+80.9548+90.5176+58.3062+95.054+43.666C100.056+27.5227+114.146+17.3871+129.969+17.6947C155.989+18.2006+162.352+37.8691+161.446+44.5755C160.309+52.9882+164.841+53.1048+160.873+60.4735C153.813+73.586+141.405+84.1376+123.345+82.536Z" stroke-linejoin="miter" stroke-linecap="butt"/>
<path stroke-linejoin="miter" opacity="1" fill="#2704a0" stroke="#ffffff" stroke-width="1" stroke-linecap="butt" d="M74.9734+104.528C76.7457+106.303+78.4957+104.749+80.4885+108.651C82.4812+112.553+78.9541+111.577+77.4945+113.329C76.0163+115.103+76.9132+125.118+70.6077+125.589C64.3022+126.061+57.5823+123.493+56.9043+117.911C56.2262+112.33+65.4102+106.407+67.263+104.901C69.1159+103.395+68.3814+91.9733+68.802+89.2425C69.2227+86.5117+69.7268+75.3469+73.4934+73.0864C77.26+70.8259+84.8373+74.4963+87.792+76.3286C90.7467+78.1608+101.73+79.5056+106.621+81.8175C111.512+84.1294+116.374+88.127+114.366+90.252C112.359+92.3769+108.574+96.679+107.39+98.109C106.207+99.539+95.1114+94.0361+91.2058+91.0552C87.3002+88.0742+82.2057+83.5681+79.7726+83.8268C77.3395+84.0855+78.2946+87.2858+77.0321+92.5755C75.7695+97.8652+73.2012+102.753+74.9734+104.528Z"/>
<path opacity="1" stroke-linejoin="miter" stroke-width="1" d="M121.571+98.9817C121.492+93.4001+126.362+92.0795+129.021+91.8419C130.693+91.6925+137.299+92.488+141.892+95.0334C146.128+97.3813+148.827+101.666+150.412+101.666C153.713+101.666+158.324+95.9376+159.149+92.1422C159.542+90.3341+156.308+88.8535+155.99+86.5443C155.592+83.6633+158.206+82.8656+158.206+82.8656C158.206+82.8656+156.544+78.9163+157.778+76.8087C158.97+74.7721+163.596+70.3068+169.054+72.2525C174.513+74.1983+174.951+80.3499+173.378+86.0102C171.667+92.17+165.6+91.2767+164.338+93.5573C163.075+95.8379+159.056+107.255+152.663+109.504C146.269+111.753+144.528+108.152+137.579+105.979C130.63+103.806+121.649+104.563+121.571+98.9817Z" stroke-linecap="butt" stroke="#ffffff" fill="#2704a0"/>
<path stroke-width="1" stroke-linejoin="miter" stroke="#ffffff" fill="#2704a0" d="M126.911+123.893C128.257+121.487+138.836+118.802+146.541+115.805C153.426+113.128+173.907+102.664+180.959+105.724C186.981+108.337+196.335+113.039+204.587+118.497C209.85+121.682+219.267+109.911+221.76+113.373C225.231+118.195+220.375+123.206+212.342+128.192C206.749+131.664+205.712+128.659+201.817+125.699C198.491+123.171+178.597+116.425+177.321+117.574C169.471+124.639+157.994+128.59+148.913+131.569C141.912+133.865+112.804+140.234+115.323+137.695C120.566+132.41+124.261+128.629+126.911+123.893Z" stroke-linecap="butt" opacity="1"/>
<g opacity="1">
<path stroke-linejoin="miter" vectornator:shadowOffset="3.51938" vectornator:shadowAngle="0.567459" stroke-width="0.5" d="M84.6697+188.102C85.1924+190.065+85.8924+192.442+86.7695+195.233C87.6466+198.023+88.3219+200.1+88.7954+201.462C86.6661+202.246+84.0229+203.248+80.8658+204.467C77.7088+205.687+75.1458+206.695+73.177+207.492C71.0413+208.356+68.3017+209.504+64.9583+210.935C61.615+212.366+59.1158+213.435+57.4608+214.144C57.3606+214.185+57.2182+214.097+57.0335+213.88C56.8488+213.664+56.7091+213.439+56.6146+213.205C56.5471+213.038+56.501+212.804+56.4764+212.504C56.4517+212.203+56.4827+212.016+56.5693+211.942C58.4103+210.925+59.5178+209.991+59.8921+209.14C60.2663+208.29+60.1765+207.181+59.6228+205.812L50.7288+183.838C50.175+182.47+49.4679+181.61+48.6074+181.26C47.747+180.909+46.3017+181.008+44.2717+181.558C44.1581+181.565+44.0055+181.452+43.814+181.219C43.6226+180.986+43.4931+180.786+43.4255+180.619C43.331+180.385+43.2748+180.126+43.2569+179.842C43.239+179.558+43.2801+179.396+43.3803+179.356C44.982+178.707+46.6424+178.084+48.3614+177.485C50.0803+176.886+51.6906+176.283+53.1923+175.675C54.7273+175.054+56.3122+174.364+57.947+173.605C59.5817+172.847+61.2167+172.136+62.8518+171.475C62.9519+171.434+63.0977+171.53+63.2892+171.764C63.4807+171.997+63.6169+172.213+63.698+172.414C63.7655+172.581+63.815+172.823+63.8463+173.14C63.8777+173.458+63.8434+173.636+63.7432+173.677C61.8888+174.661+60.7729+175.598+60.3955+176.488C60.0181+177.379+60.0995+178.492+60.6397+179.827L69.8376+202.552C70.3239+203.753+70.97+204.414+71.7761+204.534C72.5821+204.655+73.3188+204.58+73.9862+204.31L76.8394+203.155C79.1753+202.209+80.8069+200.267+81.7342+197.329C82.6614+194.39+82.8215+191.452+82.2146+188.513C82.1876+188.446+82.2257+188.372+82.329+188.292C82.4323+188.211+82.6007+188.123+82.8343+188.029C83.2014+187.88+83.5871+187.802+83.9915+187.793C84.3959+187.785+84.622+187.888+84.6697+188.102Z" vectornator:shadowRadius="0.775194" opacity="1" fill="#ff0058" stroke-linecap="butt" vectornator:shadowOpacity="1" stroke="#580133" stroke-opacity="0" vectornator:shadowColor="#000000"/>
<path stroke-linejoin="miter" stroke-opacity="0" vectornator:shadowOffset="3.51938" vectornator:shadowOpacity="1" opacity="1" vectornator:shadowRadius="0.775194" stroke="#580133" vectornator:shadowColor="#000000" stroke-linecap="butt" vectornator:shadowAngle="0.567459" fill="#ff0058" stroke-width="0.5" d="M121.997+174.392C122.519+176.355+123.094+178.423+123.722+180.597C124.349+182.77+124.97+184.761+125.586+186.571C123.457+187.355+120.797+188.363+117.607+189.596C114.416+190.83+111.853+191.838+109.918+192.621C107.982+193.404+105.243+194.552+101.699+196.064C98.1554+197.576+95.506+198.707+93.7509+199.456C93.6508+199.496+93.505+199.4+93.3135+199.167C93.1221+198.934+92.9858+198.717+92.9048+198.517C92.8372+198.35+92.7912+198.116+92.7665+197.815C92.7419+197.515+92.7729+197.327+92.8595+197.253C94.7338+196.223+95.8581+195.282+96.2323+194.432C96.6065+193.581+96.5168+192.472+95.963+191.104L87.069+169.129C86.5152+167.761+85.8081+166.902+84.9476+166.551C84.0872+166.2+82.6253+166.306+80.5619+166.87C80.4482+166.877+80.2957+166.764+80.1042+166.531C79.9127+166.297+79.7832+166.097+79.7157+165.931C79.6347+165.73+79.5818+165.48+79.5572+165.179C79.5326+164.878+79.5703+164.708+79.6704+164.667C81.4526+163.985+84.009+163.008+87.3396+161.738C90.6703+160.468+93.4035+159.4+95.5392+158.536C97.3412+157.806+99.8839+156.748+103.167+155.361C106.451+153.974+109.097+152.835+111.105+151.944C111.592+153.339+112.333+155.098+113.328+157.22C114.323+159.341+115.204+161.256+115.974+162.965C116.028+163.098+115.96+163.291+115.77+163.542C115.581+163.794+115.269+164.007+114.835+164.183C114.602+164.277+114.388+164.325+114.194+164.326C114+164.327+113.89+164.294+113.863+164.227C112.745+162.233+111.062+160.593+108.814+159.309C106.566+158.024+104.09+157.929+101.387+159.023L98.384+160.239C97.7166+160.509+97.1334+160.939+96.6344+161.53C96.1354+162.12+96.1493+163.066+96.6761+164.367L100.87+174.729L102.572+174.04C104.24+173.365+105.381+172.32+105.993+170.907C106.606+169.494+106.665+167.936+106.17+166.234C106.129+166.134+106.234+165.984+106.484+165.786C106.734+165.588+106.942+165.455+107.109+165.388C107.343+165.293+107.601+165.237+107.885+165.219C108.169+165.201+108.332+165.242+108.372+165.342C108.872+166.577+109.296+167.745+109.645+168.847C109.994+169.948+110.398+171.066+110.857+172.201C111.33+173.369+111.814+174.445+112.309+175.429C112.805+176.413+113.295+177.506+113.782+178.707C113.822+178.807+113.734+178.95+113.518+179.134C113.301+179.319+113.076+179.459+112.842+179.553C112.676+179.621+112.442+179.667+112.141+179.691C111.84+179.716+111.653+179.685+111.579+179.598C110.677+177.944+109.574+176.827+108.271+176.248C106.969+175.668+105.4+175.75+103.564+176.493L101.863+177.181L106.178+187.843C106.664+189.045+107.302+189.709+108.091+189.836C108.881+189.963+109.609+189.892+110.276+189.621L112.879+188.568C115.415+187.541+117.296+185.712+118.522+183.08C119.748+180.448+120.071+177.695+119.492+174.823C119.465+174.756+119.519+174.676+119.656+174.582C119.793+174.488+119.961+174.4+120.161+174.319C120.528+174.17+120.914+174.092+121.319+174.084C121.723+174.075+121.949+174.178+121.997+174.392Z"/>
<path stroke-width="0.5" stroke-linecap="butt" vectornator:shadowColor="#000000" stroke-linejoin="miter" stroke-opacity="0" vectornator:shadowOpacity="1" fill="#ff0058" stroke="#580133" vectornator:shadowAngle="0.567459" d="M168.639+167.864C168.72+168.064+168.772+168.314+168.797+168.615C168.822+168.916+168.784+169.086+168.684+169.127C167.082+169.775+165.447+170.389+163.778+170.967C162.109+171.545+160.59+172.112+159.222+172.665C157.687+173.287+156.061+173.994+154.342+174.786C152.624+175.579+150.948+176.306+149.312+176.968C149.212+177.008+149.07+176.92+148.885+176.704C148.7+176.487+148.561+176.262+148.466+176.028C148.399+175.862+148.336+175.634+148.278+175.347C148.22+175.06+148.234+174.879+148.321+174.806C149.882+174.057+150.857+173.42+151.246+172.893C151.635+172.367+151.694+171.77+151.424+171.103C151.316+170.836+151.123+170.526+150.844+170.173C150.565+169.819+150.291+169.503+150.023+169.223L147.253+166.266L136.742+170.521L136.715+173.91C136.704+174.459+136.725+174.965+136.777+175.429C136.829+175.894+136.915+176.276+137.037+176.576C137.321+177.277+137.739+177.759+138.291+178.02C138.844+178.282+140.001+178.095+141.764+177.46C141.864+177.419+141.988+177.534+142.136+177.804C142.284+178.074+142.392+178.293+142.46+178.46C142.554+178.693+142.61+178.952+142.628+179.236C142.646+179.52+142.605+179.682+142.505+179.723C141.07+180.304+139.935+180.714+139.101+180.955C138.266+181.196+137.181+181.586+135.846+182.127C134.745+182.572+133.794+183.006+132.994+183.427C132.193+183.848+131.226+184.288+130.091+184.747C129.991+184.788+129.85+184.68+129.669+184.423C129.487+184.166+129.363+183.955+129.295+183.788C129.228+183.621+129.215+183.374+129.257+183.046C129.299+182.718+129.363+182.517+129.45+182.444C130.831+181.729+131.773+180.843+132.277+179.785C132.781+178.726+133.099+177.161+133.23+175.088L134.319+142.082C134.312+141.969+134.458+141.803+134.758+141.584C135.058+141.366+135.358+141.196+135.659+141.074C135.959+140.953+136.293+140.866+136.66+140.814C137.028+140.763+137.248+140.78+137.322+140.867L159.76+164.35C161.036+165.776+162.243+166.695+163.381+167.108C164.519+167.521+165.956+167.474+167.692+166.965C167.792+166.925+167.958+167.023+168.19+167.259C168.422+167.495+168.571+167.697+168.639+167.864ZM145.33+164.249L136.668+154.938L136.72+167.733L145.33+164.249Z" opacity="1" vectornator:shadowRadius="0.775194" vectornator:shadowOffset="3.51938"/>
<path opacity="1" vectornator:shadowOffset="3.51938" stroke-width="0.5" d="M195.49+130.431C196.8+133.668+196.494+136.773+194.571+139.746C192.647+142.718+189.367+145.143+184.728+147.021C184.061+147.291+183.438+147.504+182.861+147.66C182.283+147.816+181.683+147.942+181.062+148.038L184.061+155.447C184.601+156.781+185.316+157.638+186.207+158.015C187.098+158.392+188.551+158.29+190.568+157.706C190.668+157.666+190.817+157.771+191.015+158.02C191.213+158.27+191.346+158.479+191.414+158.646C191.495+158.846+191.548+159.096+191.572+159.397C191.597+159.698+191.559+159.868+191.459+159.909C189.824+160.571+188.155+161.198+186.453+161.789C184.751+162.381+183.132+162.988+181.597+163.609C180.062+164.231+178.485+164.917+176.867+165.669C175.249+166.421+173.623+167.128+171.988+167.79C171.887+167.83+171.745+167.742+171.56+167.526C171.376+167.309+171.236+167.084+171.141+166.851C171.074+166.684+171.028+166.45+171.003+166.149C170.979+165.849+171.01+165.661+171.096+165.587C172.937+164.57+174.045+163.637+174.419+162.786C174.793+161.936+174.703+160.826+174.15+159.458L164.931+136.683C164.486+135.582+163.84+134.921+162.993+134.7C162.146+134.48+160.748+134.648+158.798+135.204C158.685+135.211+158.532+135.098+158.341+134.865C158.149+134.632+158.02+134.432+157.952+134.265C157.858+134.031+157.802+133.772+157.784+133.488C157.766+133.204+157.807+133.042+157.907+133.001C159.542+132.34+161.269+131.689+163.088+131.05C164.907+130.411+166.584+129.78+168.12+129.159C169.655+128.538+170.972+127.956+172.073+127.413C173.174+126.871+174.542+126.268+176.177+125.607C181.45+123.473+185.646+122.901+188.765+123.891C191.884+124.881+194.126+127.061+195.49+130.431ZM184.895+133.904C183.72+131.001+182.456+129.172+181.102+128.419C179.749+127.666+178.238+127.627+176.569+128.302C175.501+128.735+174.835+129.296+174.571+129.985C174.306+130.675+174.397+131.57+174.842+132.671L179.502+144.184C179.813+144.952+180.354+145.306+181.126+145.246C181.898+145.186+182.417+145.102+182.684+144.993C184.653+144.197+185.807+142.875+186.148+141.028C186.488+139.182+186.07+136.807+184.895+133.904Z" stroke-linejoin="miter" stroke="#580133" vectornator:shadowRadius="0.775194" stroke-opacity="0" vectornator:shadowAngle="0.567459" fill="#ff0058" vectornator:shadowColor="#000000" stroke-linecap="butt" vectornator:shadowOpacity="1"/>
</g>
</g>
</g>
</svg>
