<?xml version="1.0" encoding="UTF-8" standalone="no"?>
<!DOCTYPE svg PUBLIC "-//W3C//DTD SVG 1.1//EN" "http://www.w3.org/Graphics/SVG/1.1/DTD/svg11.dtd">
<!-- Created with Vectornator (http://vectornator.io/) -->
<svg height="100%" stroke-miterlimit="10" style="fill-rule:nonzero;clip-rule:evenodd;stroke-linecap:round;stroke-linejoin:round;" version="1.1" viewBox="0 0 399.784 399.577" width="100%" xml:space="preserve" xmlns="http://www.w3.org/2000/svg" xmlns:xlink="http://www.w3.org/1999/xlink">
<defs>
<filter color-interpolation-filters="sRGB" filterUnits="userSpaceOnUse" height="343.998" id="Filter" width="361.856" x="18.172" y="20.6637">
<feDropShadow dx="1.53722" dy="1.57753" flood-color="#000000" flood-opacity="1" in="SourceGraphic" result="Shadow" stdDeviation="1.32159"/>
</filter>
<filter color-interpolation-filters="sRGB" filterUnits="userSpaceOnUse" height="101.428" id="Filter_2" width="164.185" x="128.309" y="208.471">
<feDropShadow dx="0" dy="0" flood-color="#000000" flood-opacity="1" in="SourceGraphic" result="Shadow" stdDeviation="0"/>
</filter>
<filter color-interpolation-filters="sRGB" filterUnits="userSpaceOnUse" height="101.428" id="Filter_3" width="164.185" x="121.104" y="204.501">
<feDropShadow dx="0" dy="0" flood-color="#000000" flood-opacity="1" in="SourceGraphic" result="Shadow" stdDeviation="0"/>
</filter>
</defs>
<g id="レイヤー-1">
<path d="M10.0755 199.165C10.0755 94.3076 95.0823 9.30373 199.944 9.30373C304.805 9.30373 389.812 94.3076 389.812 199.165C389.812 304.023 304.805 389.026 199.944 389.026C95.0823 389.026 10.0755 304.023 10.0755 199.165Z" fill="#d6dcf4" fill-rule="nonzero" opacity="1" stroke="#2704a0" stroke-linecap="butt" stroke-linejoin="round" stroke-width="12"/>
<path d="M3.75653 197.875C3.75653 90.2473 91.1199 2.99747 198.888 2.99747C306.656 2.99747 394.02 90.2473 394.02 197.875C394.02 305.503 306.656 392.753 198.888 392.753C91.1199 392.753 3.75653 305.503 3.75653 197.875Z" fill="#855f6a" fill-opacity="0" fill-rule="nonzero" opacity="1" stroke="#000000" stroke-linecap="butt" stroke-linejoin="round" stroke-opacity="3.5822e-16" stroke-width="4"/>
<g fill="#f54984" filter="url(#Filter)" stroke="#ffffff" stroke-linecap="butt" stroke-linejoin="round" stroke-opacity="0" stroke-width="5">
<path d="M95.2235 335.376L96.5476 336.211C96.2449 337.478 96.1102 338.956 96.1434 340.643C96.1766 342.331 96.4967 343.43 97.1038 343.941C97.4417 344.219 97.8692 344.544 98.3863 344.919C98.9034 345.293 99.3568 345.603 99.7466 345.849L100.555 346.359L112.627 327.22C112.887 326.808 113.042 326.397 113.092 325.987C113.142 325.578 113.007 325.144 112.687 324.686C112.489 324.417 112.146 324.052 111.658 323.593C111.171 323.133 110.747 322.757 110.386 322.466L111.232 321.124L124.834 329.704L123.988 331.045C123.633 330.87 123.136 330.624 122.494 330.307C121.852 329.991 121.394 329.81 121.118 329.764C120.555 329.665 120.102 329.724 119.758 329.939C119.413 330.155 119.107 330.475 118.84 330.899L106.659 350.209L107.467 350.719C107.857 350.965 108.332 351.24 108.893 351.546C109.453 351.851 109.931 352.097 110.327 352.282C111.05 352.61 112.18 352.426 113.717 351.729C115.254 351.032 116.53 350.274 117.543 349.455L118.867 350.29L114.463 357.271L90.8198 342.357L95.2235 335.376Z"/>
<path d="M68.5964 317.65C68.4746 315.726 68.7532 313.811 69.4322 311.905C70.1112 309.999 71.269 308.198 72.9055 306.5C74.3634 304.987 76.0044 303.792 77.8287 302.915C79.6529 302.038 81.5182 301.567 83.4245 301.503C85.4173 301.447 87.367 301.788 89.2737 302.524C91.1804 303.261 93.0706 304.532 94.9443 306.338C96.457 307.795 97.6468 309.422 98.5139 311.218C99.3809 313.014 99.8706 314.879 99.983 316.813C100.104 318.718 99.8231 320.621 99.1393 322.522C98.4554 324.423 97.3281 326.188 95.7574 327.818C94.1208 329.516 92.3468 330.776 90.4352 331.597C88.5237 332.418 86.5855 332.833 84.6206 332.84C82.6843 332.837 80.7741 332.432 78.89 331.623C77.0059 330.814 75.2832 329.657 73.7217 328.152C72.1701 326.657 70.9581 325 70.0858 323.18C69.2135 321.36 68.7171 319.517 68.5964 317.65ZM86.6784 306.418C85.3833 306.883 84.0974 307.582 82.8205 308.517C81.5437 309.451 80.2234 310.625 78.8596 312.04C77.7027 313.241 76.6618 314.492 75.7369 315.793C74.8119 317.095 74.1264 318.387 73.6804 319.67C73.2441 320.963 73.1137 322.211 73.2893 323.416C73.4649 324.62 74.0699 325.721 75.1044 326.718C76.8707 328.42 79.0191 328.877 81.5495 328.087C84.0799 327.298 86.817 325.376 89.761 322.321C91.0119 321.023 92.0923 319.702 93.0021 318.358C93.9119 317.013 94.5659 315.705 94.9642 314.432C95.3621 313.14 95.4572 311.928 95.2494 310.796C95.0416 309.664 94.4449 308.623 93.4593 307.673C92.4931 306.742 91.4285 306.187 90.2653 306.007C89.1022 305.827 87.9065 305.964 86.6784 306.418Z"/>
<path d="M63.3778 266.408L69.6601 275.951C68.399 278.842 67.407 281.353 66.6841 283.484C65.9612 285.615 65.0714 288.319 64.0148 291.594L64.5961 292.477L72.1698 287.492C72.5773 287.223 72.8742 286.922 73.0603 286.589C73.2465 286.255 73.2904 285.805 73.1922 285.236C73.1487 284.973 73.0399 284.61 72.8659 284.149C72.6919 283.687 72.4971 283.244 72.2816 282.818L73.6061 281.946L82.0347 294.75L80.7102 295.622C80.4863 295.331 80.1673 294.92 79.7532 294.39C79.339 293.859 79.0121 293.51 78.7725 293.344C78.3457 293.04 77.9386 292.903 77.5513 292.93C77.1639 292.958 76.7551 293.114 76.3249 293.397L59.2417 304.643C58.8455 304.903 58.5562 305.191 58.3739 305.506C58.1917 305.821 58.142 306.275 58.225 306.87C58.2975 307.325 58.4468 307.835 58.6728 308.4C58.8988 308.965 59.0955 309.412 59.2627 309.74L57.9382 310.612L49.2301 297.384L50.5547 296.512C50.8196 296.84 51.1454 297.23 51.5318 297.682C51.9182 298.133 52.2836 298.497 52.6278 298.774C53.0656 299.118 53.4915 299.26 53.9053 299.198C54.3192 299.137 54.7186 298.979 55.1035 298.726L63.2206 293.383L62.7511 292.669C61.366 292.315 59.7199 291.922 57.8128 291.49C55.9057 291.058 54.3774 290.758 53.2281 290.59C51.6244 290.347 50.3884 290.207 49.5203 290.17C48.6521 290.133 48.0029 290.257 47.5727 290.54C47.3803 290.666 47.3672 290.967 47.5336 291.442C47.7 291.916 48.0363 292.587 48.5425 293.455L47.218 294.327L40.3208 283.849L41.6454 282.977C42.6159 284.156 43.5457 285.069 44.4347 285.717C45.3237 286.365 46.4269 286.864 47.7444 287.214C49.6286 287.71 51.2287 288.088 52.5448 288.35C53.8608 288.611 55.5477 288.949 57.6053 289.363C58.2144 287.405 58.9754 285.029 59.8882 282.238C60.801 279.446 61.6695 276.692 62.4935 273.975C62.7043 273.285 62.858 272.551 62.9546 271.773C63.0513 270.996 63.0323 270.221 62.8977 269.45C62.8359 269.085 62.7197 268.699 62.5492 268.292C62.3786 267.885 62.2133 267.548 62.0532 267.28L63.3778 266.408Z"/>
<path d="M27.7769 248.787C28.0059 249.222 28.2515 249.606 28.5138 249.94C28.776 250.273 29.075 250.571 29.4107 250.832C29.9266 251.256 30.5042 251.586 31.1433 251.822C31.7824 252.059 32.4715 252.265 33.2104 252.441C34.731 252.79 36.3718 253.139 38.1328 253.488C39.8938 253.837 41.8276 254.209 43.9344 254.604C45.2793 254.876 46.2697 254.979 46.9056 254.911C47.5416 254.843 48.5659 254.531 49.9787 253.976L53.7819 252.481C54.236 252.303 54.5999 252.061 54.8736 251.757C55.1472 251.453 55.2971 251.019 55.3231 250.455C55.3271 250.206 55.2653 249.706 55.1377 248.956C55.01 248.205 54.8944 247.66 54.7907 247.323L56.2666 246.742L62.1492 261.709L60.6734 262.289C60.5093 261.946 60.2593 261.458 59.9233 260.826C59.5874 260.193 59.3168 259.764 59.1118 259.539C58.7265 259.152 58.3333 258.938 57.9321 258.9C57.5309 258.861 57.0906 258.935 56.6113 259.124L51.8809 260.983C51.4647 261.147 51.1013 261.297 50.7909 261.433C50.4805 261.57 50.233 261.718 50.0483 261.878C49.8433 262.061 49.5969 262.332 49.3091 262.693C49.0213 263.054 48.6478 263.521 48.1888 264.094C46.8677 265.735 45.6224 267.309 44.4531 268.818C43.2837 270.326 42.1917 271.753 41.1768 273.098C40.6516 273.8 40.2632 274.451 40.0117 275.052C39.7602 275.654 39.5912 276.233 39.5048 276.792C39.4495 277.207 39.4668 277.677 39.5567 278.202C39.6467 278.727 39.7559 279.19 39.8844 279.591L38.4085 280.171L32.3622 264.788L33.8381 264.208C34.4313 265.606 34.9033 266.52 35.2544 266.95C35.6054 267.38 35.9197 267.541 36.1972 267.432C36.336 267.377 36.5775 267.176 36.9219 266.83C37.2663 266.483 37.7819 265.906 38.4689 265.097C39.1202 264.346 40.0025 263.274 41.1158 261.883C42.2291 260.492 43.5226 258.836 44.9965 256.917C40.2576 256.013 36.9584 255.409 35.099 255.106C33.2396 254.803 32.1396 254.718 31.799 254.852C31.3701 255.021 31.145 255.411 31.1237 256.024C31.1024 256.637 31.2908 257.542 31.6888 258.74L30.213 259.32L26.3011 249.368L27.7769 248.787Z"/>
<path d="M23.8358 217.739C24.884 216.12 26.2483 214.748 27.9286 213.621C29.6089 212.495 31.612 211.737 33.9379 211.347C36.0099 211 38.0398 211.018 40.0276 211.399C42.0155 211.781 43.7942 212.514 45.3637 213.598C46.9979 214.739 48.3615 216.174 49.4547 217.901C50.5479 219.628 51.3094 221.775 51.7392 224.341C52.0862 226.413 52.0733 228.429 51.7005 230.388C51.3277 232.347 50.6106 234.136 49.549 235.757C48.5119 237.36 47.1527 238.721 45.4712 239.841C43.7898 240.961 41.8329 241.708 39.6006 242.082C37.2746 242.471 35.0993 242.427 33.0746 241.948C31.0499 241.47 29.2461 240.648 27.6632 239.484C26.1092 238.329 24.8163 236.866 23.7843 235.094C22.7524 233.322 22.0573 231.367 21.6991 229.228C21.3432 227.103 21.3566 225.049 21.7394 223.068C22.1222 221.087 22.821 219.311 23.8358 217.739ZM45.0508 219.484C43.7336 219.086 42.284 218.882 40.702 218.872C39.12 218.862 37.3598 219.02 35.4215 219.344C33.7773 219.619 32.1962 220.005 30.678 220.499C29.1599 220.994 27.8396 221.624 26.7172 222.389C25.597 223.168 24.7488 224.093 24.1726 225.165C23.5963 226.237 23.4268 227.482 23.6641 228.899C24.0693 231.319 25.5234 232.965 28.0264 233.837C30.5293 234.71 33.8728 234.796 38.0568 234.095C39.8347 233.797 41.4894 233.379 43.0208 232.841C44.5523 232.303 45.857 231.641 46.9348 230.856C48.0237 230.055 48.8218 229.138 49.329 228.105C49.8363 227.072 49.9768 225.88 49.7507 224.53C49.5291 223.207 49.0046 222.126 48.1773 221.289C47.35 220.452 46.3078 219.85 45.0508 219.484Z"/>
<path d="M49.8962 180.893L48.708 196.849L47.1266 196.731C47.1267 196.364 47.1262 195.824 47.125 195.11C47.1237 194.396 47.0791 193.9 46.9911 193.622C46.8256 193.107 46.5841 192.746 46.2665 192.539C45.949 192.331 45.5334 192.209 45.0198 192.17L24.6238 190.652C24.1643 190.617 23.7523 190.675 23.3878 190.825C23.0233 190.974 22.7137 191.298 22.4592 191.795C22.2999 192.11 22.1256 192.579 21.9364 193.204C21.7472 193.828 21.6084 194.369 21.5202 194.824L19.9388 194.706L21.1269 178.75L22.7083 178.868C22.7187 179.277 22.7384 179.788 22.7674 180.402C22.7965 181.015 22.863 181.537 22.9669 181.966C23.1034 182.506 23.3509 182.878 23.7095 183.081C24.0682 183.285 24.484 183.404 24.9571 183.439L45.3327 184.956C45.8193 184.993 46.2417 184.932 46.6 184.776C46.9582 184.619 47.2646 184.292 47.5191 183.794C47.6619 183.519 47.8151 183.058 47.9788 182.412C48.1425 181.765 48.2545 181.219 48.3148 180.775L49.8962 180.893Z"/>
<path d="M31.3449 139.915C31.29 140.293 31.2275 140.837 31.1574 141.546C31.0873 142.256 31.185 142.939 31.4506 143.594C31.6805 144.171 32.1993 144.672 33.007 145.096C33.8147 145.52 35.0523 145.945 36.7196 146.373L56.6882 151.495L55.7891 155L29.7207 166.868L42.8362 170.232C44.4642 170.649 45.7293 170.859 46.6317 170.859C47.534 170.86 48.2444 170.668 48.7629 170.283C49.1427 170.002 49.5435 169.504 49.9653 168.786C50.3872 168.069 50.6964 167.491 50.8931 167.051L52.4291 167.445L49.3479 179.458L47.8119 179.064C47.9038 178.542 47.9593 177.93 47.9784 177.228C47.9975 176.527 47.9067 175.912 47.7061 175.385C47.4567 174.775 46.9724 174.277 46.2532 173.889C45.534 173.502 44.2685 173.076 42.4568 172.611L29.2231 169.217C28.5667 169.048 27.9203 168.991 27.2839 169.045C26.6475 169.098 26.0636 169.288 25.5324 169.613C24.9681 169.958 24.4814 170.397 24.0722 170.928C23.663 171.46 23.2885 172.088 22.9488 172.813L21.3733 172.409L24.0707 161.893L46.8956 151.46L36.3205 148.747C34.64 148.316 33.3609 148.107 32.4831 148.12C31.6053 148.133 30.9072 148.331 30.3888 148.716C29.9891 149.019 29.5851 149.517 29.1765 150.21C28.7679 150.903 28.4653 151.469 28.2687 151.908L26.7326 151.514L29.8088 139.521L31.3449 139.915Z"/>
<path d="M64.3686 135.805C63.6021 137.392 62.6918 138.777 61.6379 139.961C60.584 141.145 59.5586 142.084 58.5617 142.776L59.2328 144.658L58.481 146.214L48.9753 141.915L49.7359 140.341C50.7978 140.417 51.9557 140.42 53.2095 140.348C54.4634 140.277 55.6548 140.069 56.7837 139.727C57.9611 139.378 59.0286 138.866 59.9864 138.192C60.9441 137.519 61.7208 136.565 62.3164 135.333C63.1183 133.673 63.3273 132.205 62.9432 130.928C62.5592 129.651 61.7509 128.715 60.5183 128.119C59.5054 127.63 58.4729 127.594 57.4208 128.011C56.3686 128.429 55.212 129.303 53.951 130.636C53.1262 131.502 52.3655 132.297 51.6691 133.022C50.9727 133.747 50.2953 134.417 49.6368 135.032C48.098 136.441 46.4768 137.257 44.7734 137.48C43.07 137.703 41.419 137.428 39.8203 136.656C38.8074 136.166 37.9403 135.476 37.219 134.586C36.4977 133.696 35.9683 132.649 35.6307 131.448C35.3243 130.306 35.2551 129.001 35.4231 127.531C35.5912 126.062 36.0319 124.589 36.7454 123.113C37.4413 121.673 38.2912 120.42 39.2951 119.355C40.2991 118.289 41.1764 117.494 41.9271 116.968L41.3683 115.321L42.1378 113.729L51.0684 117.863L50.3077 119.437C49.1789 119.344 47.9978 119.303 46.7644 119.317C45.531 119.331 44.4521 119.453 43.5278 119.684C42.531 119.94 41.6334 120.356 40.835 120.934C40.0366 121.512 39.3838 122.325 38.8767 123.375C38.2399 124.693 38.0917 125.95 38.4322 127.145C38.7727 128.341 39.4921 129.204 40.5904 129.735C41.6278 130.236 42.6513 130.283 43.6612 129.875C44.671 129.467 45.7976 128.616 47.041 127.32C47.7824 126.564 48.5327 125.79 49.2919 124.998C50.051 124.206 50.7478 123.511 51.3823 122.914C52.9207 121.475 54.5136 120.585 56.1608 120.245C57.8081 119.904 59.5226 120.164 61.3043 121.025C62.4271 121.568 63.3864 122.355 64.1824 123.387C64.9783 124.419 65.5089 125.548 65.774 126.775C66.0711 128.123 66.1175 129.538 65.9133 131.02C65.7091 132.501 65.1942 134.097 64.3686 135.805Z"/>
<path d="M68.9334 89.1462L68.0128 90.4124C66.7682 90.027 65.3028 89.7953 63.6168 89.7173C61.9307 89.6393 60.8127 89.8864 60.2627 90.4584C59.9638 90.7774 59.6106 91.1825 59.2031 91.6738C58.7957 92.1651 58.4564 92.5972 58.1854 92.9699L57.6235 93.7427L75.9255 107.049C76.3201 107.336 76.72 107.518 77.1251 107.594C77.5302 107.671 77.9718 107.565 78.4501 107.276C78.7321 107.095 79.1184 106.777 79.6091 106.321C80.0998 105.865 80.5026 105.467 80.8174 105.126L82.1 106.058L72.6434 119.066L71.3608 118.133C71.559 117.791 71.8372 117.311 72.1954 116.691C72.5535 116.072 72.7645 115.626 72.8282 115.354C72.9636 114.799 72.9352 114.343 72.7428 113.985C72.5504 113.627 72.2514 113.301 71.8458 113.006L53.3794 99.5803L52.8175 100.353C52.5465 100.726 52.2402 101.182 51.8985 101.721C51.5568 102.26 51.2803 102.721 51.0691 103.104C50.6946 103.803 50.8043 104.943 51.3985 106.523C51.9926 108.103 52.665 109.425 53.4155 110.49L52.4949 111.756L45.8187 106.903L62.2572 84.2924L68.9334 89.1462Z"/>
<path d="M97.5027 89.8222L86.2425 101.189L85.1159 100.073C85.3542 99.7941 85.7045 99.3827 86.1667 98.8391C86.629 98.2954 86.917 97.8891 87.0307 97.6202C87.2392 97.1209 87.2899 96.6894 87.1827 96.3257C87.0756 95.962 86.8391 95.5989 86.4732 95.2364L71.9431 80.8428C71.6157 80.5185 71.2648 80.2949 70.8905 80.1721C70.5161 80.0493 70.0707 80.0945 69.5541 80.3078C69.2289 80.4435 68.7916 80.6875 68.2422 81.04C67.6928 81.3924 67.2367 81.7132 66.8738 82.0024L65.7472 80.8864L77.0075 69.5194L78.1341 70.6354C77.8768 70.9529 77.56 71.3545 77.1838 71.8403C76.8075 72.3261 76.5196 72.7659 76.3202 73.1598C76.0734 73.6593 76.0204 74.1028 76.1612 74.4903C76.302 74.8778 76.5409 75.2384 76.8779 75.5723L91.3936 89.9516C91.7402 90.295 92.1007 90.5233 92.475 90.6366C92.8493 90.7498 93.2947 90.6998 93.8113 90.4865C94.0982 90.3702 94.5139 90.119 95.0584 89.7331C95.6029 89.3472 96.0421 89.0049 96.3761 88.7062L97.5027 89.8222Z"/>
<path d="M108.123 55.7451L106.864 56.6743C105.793 55.9311 104.466 55.2679 102.882 54.6846C101.299 54.1013 100.158 53.9993 99.4612 54.3787C99.0799 54.5925 98.6209 54.8721 98.0842 55.2175C97.5474 55.5629 97.0935 55.8724 96.7227 56.1459L95.9537 56.7131L109.385 74.9233C109.675 75.316 110.001 75.61 110.364 75.8053C110.727 76.0007 111.18 76.0328 111.724 75.9016C112.047 75.8147 112.511 75.628 113.117 75.3414C113.722 75.0549 114.226 74.7966 114.629 74.5667L115.571 75.8429L102.629 85.3886L101.688 84.1124C101.98 83.8464 102.39 83.4722 102.919 82.9898C103.447 82.5074 103.783 82.1462 103.925 81.9061C104.222 81.4178 104.333 80.9741 104.257 80.575C104.182 80.1759 103.995 79.7746 103.698 79.371L90.1454 60.9972L89.3764 61.5644C89.0056 61.838 88.5759 62.1802 88.0874 62.591C87.5989 63.0019 87.1962 63.3578 86.8793 63.6589C86.311 64.2128 86.0717 65.3325 86.1612 67.0179C86.2507 68.7034 86.4925 70.1672 86.8865 71.4092L85.6267 72.3384L80.7271 65.6957L103.224 49.1024L108.123 55.7451Z"/>
<path d="M139.634 33.1807C139.294 33.3816 138.818 33.7008 138.206 34.1382C137.594 34.5757 137.133 35.0591 136.825 35.5886C136.498 36.1114 136.423 36.8169 136.599 37.7052C136.776 38.5935 137.232 39.8384 137.966 41.4398L142.444 51.1958C143.761 54.066 143.848 56.8223 142.704 59.4647C141.561 62.1072 139.388 64.1633 136.185 65.6332C132.453 67.3461 129.177 67.828 126.357 67.0789C123.538 66.3297 121.436 64.4462 120.051 61.4282L113.894 48.0136C113.696 47.5824 113.444 47.251 113.136 47.0194C112.828 46.7878 112.384 46.6562 111.803 46.6246C111.409 46.6115 110.956 46.663 110.442 46.7793C109.929 46.8956 109.516 47.0031 109.203 47.1018L108.559 45.6975L122.306 39.3884L122.951 40.7927C122.568 40.9982 122.189 41.2282 121.813 41.4825C121.438 41.7368 121.072 42.0278 120.715 42.3555C120.315 42.7182 120.114 43.1087 120.112 43.5271C120.11 43.9455 120.208 44.3703 120.406 44.8014L126.478 58.0313C127.67 60.6304 129.111 62.2584 130.799 62.9152C132.488 63.572 134.422 63.4001 136.602 62.3994C138.746 61.4158 140.128 59.9912 140.748 58.1258C141.368 56.2604 141.096 54.0589 139.931 51.5213L135.852 42.6337C135.129 41.0569 134.48 39.9269 133.905 39.2436C133.331 38.5603 132.742 38.148 132.141 38.0066C131.696 37.8826 131.026 37.8921 130.129 38.035C129.233 38.1779 128.613 38.2982 128.271 38.3959L127.609 36.9547L138.973 31.7395L139.634 33.1807Z"/>
<path d="M172.855 32.1905L171.33 32.5438C170.642 31.4371 169.687 30.3019 168.464 29.1382C167.242 27.9745 166.235 27.4286 165.445 27.5003C165.01 27.5454 164.478 27.62 163.848 27.7242C163.219 27.8283 162.679 27.9324 162.23 28.0364L161.299 28.252L166.406 50.296C166.516 50.7714 166.699 51.1707 166.955 51.4941C167.211 51.8174 167.614 52.0266 168.165 52.1216C168.496 52.1701 168.996 52.1829 169.666 52.16C170.335 52.1371 170.9 52.1 171.361 52.0488L171.719 53.5937L156.053 57.223L155.695 55.6781C156.069 55.5498 156.594 55.369 157.27 55.1358C157.947 54.9026 158.398 54.7041 158.624 54.5404C159.09 54.2098 159.368 53.8464 159.457 53.4501C159.546 53.0539 159.534 52.6115 159.421 52.1229L154.268 29.8809L153.337 30.0965C152.888 30.2005 152.358 30.3442 151.747 30.5276C151.135 30.7109 150.625 30.878 150.214 31.0287C149.473 31.3117 148.809 32.2446 148.223 33.8273C147.636 35.4101 147.278 36.8496 147.147 38.146L145.622 38.4993L143.759 30.4581L170.992 24.1493L172.855 32.1905Z"/>
<path d="M202.878 29.7443L201.334 29.8036C200.899 28.7217 200.179 27.6371 199.174 26.55C198.169 25.4628 197.189 24.8358 196.233 24.6691C195.823 24.5899 195.256 24.5541 194.53 24.5616C193.805 24.5691 193.205 24.582 192.731 24.6002L188.546 24.761L188.974 35.8938L191.94 35.7799C192.685 35.7513 193.359 35.6372 193.961 35.4377C194.564 35.2383 195.106 34.8783 195.588 34.358C195.888 34.0345 196.182 33.4739 196.47 32.6761C196.758 31.8784 196.938 31.1865 197.01 30.6004L198.554 30.5411L199.016 42.5679L197.472 42.6272C197.369 42.0615 197.135 41.355 196.77 40.5077C196.406 39.6604 196.068 39.08 195.758 38.7664C195.292 38.296 194.751 37.9811 194.134 37.8217C193.518 37.6623 192.81 37.5979 192.011 37.6286L189.045 37.7425L189.364 46.0516C189.397 46.9183 189.488 47.6032 189.636 48.1062C189.785 48.6091 190.04 48.9892 190.402 49.2466C190.751 49.4909 191.221 49.6424 191.814 49.701C192.406 49.7596 193.21 49.7694 194.226 49.7304C194.7 49.7122 195.268 49.6836 195.931 49.6445C196.594 49.6055 197.175 49.5425 197.674 49.4555C198.24 49.3659 198.768 49.2439 199.257 49.0895C199.746 48.9351 200.107 48.7245 200.341 48.4578C200.966 47.7692 201.658 46.7287 202.419 45.3364C203.179 43.944 203.675 42.9043 203.906 42.2172L205.389 42.1603L205.186 51.1608L178.146 52.1996L178.085 50.615C178.463 50.5734 178.976 50.4994 179.623 50.3932C180.27 50.2869 180.727 50.1744 180.993 50.0557C181.5 49.8192 181.834 49.5317 181.998 49.1931C182.161 48.8545 182.233 48.4279 182.213 47.9132L181.432 27.5775C181.413 27.0899 181.323 26.6899 181.162 26.3773C181.001 26.0648 180.631 25.7907 180.052 25.5553C179.694 25.4063 179.193 25.2763 178.552 25.1653C177.91 25.0543 177.426 24.9848 177.099 24.9566L177.038 23.372L202.595 22.3901L202.878 29.7443Z"/>
<path d="M249.705 33.6432C250.773 35.2482 251.491 37.0455 251.857 39.0351C252.223 41.0247 252.123 43.1641 251.556 45.4533C251.051 47.4926 250.229 49.3485 249.089 51.021C247.948 52.6935 246.569 54.0346 244.951 55.0442C243.254 56.0901 241.396 56.7716 239.376 57.0885C237.357 57.4054 235.084 57.2511 232.558 56.6258C230.519 56.1209 228.675 55.3082 227.025 54.1878C225.376 53.0673 224.018 51.698 222.953 50.0798C221.894 48.4912 221.185 46.7029 220.825 44.715C220.466 42.727 220.558 40.6345 221.102 38.4374C221.668 36.1481 222.574 34.1696 223.817 32.5018C225.061 30.8339 226.532 29.505 228.229 28.5149C229.906 27.5479 231.763 26.943 233.799 26.7C235.835 26.457 237.905 26.5961 240.01 27.1172C242.102 27.6351 243.981 28.4633 245.647 29.6018C247.313 30.7403 248.666 32.0875 249.705 33.6432ZM239.674 52.4183C240.562 51.3676 241.325 50.1183 241.963 48.6705C242.601 47.2226 243.156 45.5449 243.628 43.6372C244.029 42.019 244.304 40.415 244.453 38.8253C244.602 37.2355 244.548 35.7737 244.292 34.4396C244.023 33.1023 243.511 31.9562 242.756 31.0014C242.001 30.0465 240.926 29.3965 239.532 29.0512C237.15 28.4617 235.062 29.142 233.267 31.0921C231.471 33.0423 230.064 36.0763 229.044 40.1943C228.611 41.9441 228.337 43.6286 228.223 45.2479C228.108 46.8671 228.197 48.3272 228.489 49.6283C228.791 50.9458 229.316 52.0425 230.062 52.9185C230.809 53.7945 231.846 54.397 233.175 54.726C234.478 55.0484 235.677 54.9964 236.774 54.5698C237.871 54.1432 238.838 53.4261 239.674 52.4183Z"/>
<path d="M281.92 52.4621L280.506 51.792C280.632 50.6071 280.516 49.2288 280.158 47.6571C279.8 46.0854 279.243 45.053 278.487 44.5598C278.143 44.3368 277.673 44.0619 277.078 43.7351C276.483 43.4083 275.928 43.123 275.414 42.8794L271.353 40.9563L266.506 51.1906L269.097 52.4176C269.832 52.7657 270.508 52.9846 271.125 53.0745C271.742 53.1644 272.361 53.0936 272.98 52.8621C273.432 52.7009 273.971 52.3302 274.598 51.7499C275.225 51.1697 275.691 50.6368 275.996 50.1513L277.393 50.8127L272.198 61.782L270.801 61.1206C271.013 60.5462 271.141 59.7856 271.185 58.8389C271.228 57.8922 271.194 57.2351 271.083 56.8677C270.914 56.3075 270.598 55.8019 270.137 55.351C269.676 54.9001 269.059 54.4919 268.288 54.1264L265.697 52.8994L261.607 61.5352C261.398 61.9762 261.302 62.392 261.32 62.7827C261.337 63.1734 261.532 63.5769 261.905 63.9934C262.122 64.2312 262.445 64.5078 262.873 64.823C263.301 65.1382 263.736 65.4305 264.179 65.7L263.5 67.1332L249.444 60.4763L250.122 59.0431C250.495 59.1746 250.991 59.3459 251.611 59.557C252.231 59.7681 252.681 59.8797 252.96 59.892C253.482 59.9293 253.901 59.8355 254.218 59.6105C254.534 59.3854 254.806 59.0341 255.032 58.5563L263.742 40.1639C263.94 39.7475 264.036 39.3468 264.031 38.9619C264.025 38.577 263.833 38.1673 263.454 37.7329C263.181 37.4234 262.791 37.0741 262.286 36.6847C261.78 36.2954 261.389 36.0127 261.113 35.8367L261.792 34.4035L285.218 45.4983L281.92 52.4621Z"/>
<path d="M316.444 79.2238L315.242 78.2214C315.709 77.005 316.037 75.5582 316.226 73.881C316.416 72.2038 316.243 71.0719 315.709 70.4853C315.41 70.1659 315.029 69.7867 314.566 69.3476C314.103 68.9084 313.694 68.5414 313.34 68.2463L312.606 67.6345L298.118 85.0154C297.805 85.3902 297.597 85.7772 297.494 86.1763C297.391 86.5754 297.468 87.0232 297.724 87.5195C297.886 87.8128 298.178 88.2194 298.6 88.7392C299.023 89.259 299.393 89.6872 299.713 90.0239L298.697 91.242L286.345 80.9451L287.36 79.7271C287.688 79.9475 288.149 80.2569 288.744 80.6552C289.338 81.0536 289.769 81.2936 290.036 81.3752C290.581 81.5471 291.038 81.5489 291.408 81.3806C291.777 81.2123 292.123 80.9356 292.444 80.5504L307.062 63.0132L306.329 62.4014C305.975 62.1064 305.54 61.7705 305.025 61.3938C304.509 61.0172 304.068 60.7108 303.7 60.4748C303.026 60.0547 301.882 60.0888 300.266 60.5771C298.651 61.0653 297.287 61.6487 296.174 62.327L294.972 61.3247L300.257 54.9844L321.729 72.8836L316.444 79.2238Z"/>
<path d="M336.501 101.728L335.523 100.531C336.125 99.5324 336.557 98.3044 336.819 96.8475C337.081 95.3905 336.991 94.2304 336.548 93.367C336.364 92.9921 336.051 92.5175 335.608 91.9431C335.165 91.3687 334.793 90.8978 334.493 90.5304L331.843 87.2872L323.216 94.3361L325.094 96.6347C325.565 97.212 326.062 97.681 326.585 98.0419C327.107 98.4027 327.721 98.6187 328.427 98.6897C328.865 98.7339 329.49 98.6306 330.3 98.3799C331.11 98.1292 331.771 97.8562 332.282 97.5609L333.26 98.7575L323.94 106.372L322.962 105.176C323.351 104.753 323.774 104.14 324.231 103.339C324.687 102.537 324.947 101.918 325.01 101.481C325.105 100.826 325.03 100.204 324.786 99.6162C324.542 99.0281 324.167 98.4245 323.661 97.8052L321.783 95.5066L315.344 100.768C314.672 101.316 314.18 101.801 313.868 102.223C313.556 102.644 313.406 103.077 313.419 103.521C313.434 103.947 313.597 104.413 313.907 104.921C314.217 105.429 314.693 106.077 315.337 106.864C315.637 107.231 316.002 107.668 316.433 108.174C316.864 108.679 317.264 109.105 317.633 109.451C318.046 109.848 318.461 110.196 318.879 110.493C319.297 110.791 319.683 110.952 320.037 110.978C320.963 111.062 322.211 110.988 323.78 110.756C325.349 110.524 326.478 110.293 327.166 110.064L328.105 111.213L320.798 116.473L303.678 95.5182L304.906 94.5149C305.167 94.7916 305.535 95.1561 306.009 95.6085C306.484 96.0609 306.849 96.3577 307.105 96.499C307.598 96.7607 308.03 96.8546 308.398 96.781C308.767 96.7074 309.151 96.5076 309.549 96.1817L325.309 83.306C325.687 82.9972 325.952 82.6844 326.104 82.3674C326.257 82.0505 326.252 81.5901 326.092 80.9863C325.995 80.6105 325.797 80.1331 325.499 79.554C325.201 78.975 324.965 78.5466 324.79 78.269L326.019 77.2657L342.2 97.0716L336.501 101.728Z"/>
<path d="M328.292 131.734C327.294 129.869 326.663 127.963 326.397 126.015C326.131 124.067 326.249 122.182 326.75 120.362C327.241 118.577 328.131 116.902 329.422 115.335C330.713 113.769 332.35 112.455 334.334 111.393C336.306 110.338 338.315 109.705 340.362 109.494C342.409 109.283 344.38 109.47 346.276 110.054C348.135 110.628 349.853 111.591 351.431 112.945C353.008 114.3 354.318 115.951 355.36 117.899C356.115 119.309 356.632 120.685 356.911 122.026C357.191 123.368 357.33 124.554 357.328 125.585L358.908 126.169L359.743 127.728L350.543 132.857L349.699 131.28C352.052 128.868 353.556 126.68 354.211 124.716C354.867 122.751 354.712 120.867 353.746 119.062C352.544 116.815 350.641 115.635 348.037 115.522C345.432 115.409 342.343 116.308 338.77 118.22C336.75 119.3 335.133 120.423 333.919 121.587C332.705 122.752 331.835 123.89 331.308 125.002C330.77 126.181 330.542 127.356 330.623 128.527C330.704 129.698 331.051 130.857 331.665 132.005C332.56 133.678 333.811 134.926 335.42 135.748C337.028 136.571 339.04 137.028 341.456 137.119L341.349 139.159C340.022 139.208 338.768 139.126 337.585 138.913C336.403 138.7 335.283 138.323 334.225 137.782C333.063 137.19 331.991 136.422 331.01 135.479C330.029 134.536 329.123 133.287 328.292 131.734Z"/>
<path d="M345.092 177.216L340.906 162.195L342.434 161.769C342.551 162.088 342.723 162.554 342.95 163.166C343.177 163.778 343.375 164.187 343.545 164.393C343.876 164.821 344.226 165.083 344.597 165.176C344.968 165.27 345.401 165.247 345.897 165.109L355.474 162.44L352.167 150.572L342.805 153.181C342.362 153.305 341.99 153.511 341.69 153.798C341.39 154.086 341.206 154.485 341.138 154.997C341.102 155.274 341.11 155.729 341.159 156.362C341.209 156.996 341.274 157.505 341.353 157.891L339.826 158.317L335.64 143.296L337.167 142.87C337.271 143.193 337.447 143.661 337.696 144.274C337.944 144.887 338.16 145.323 338.345 145.581C338.646 146.004 338.994 146.259 339.391 146.345C339.788 146.431 340.222 146.409 340.692 146.278L360.354 140.798C360.811 140.671 361.174 140.482 361.441 140.232C361.709 139.981 361.89 139.568 361.983 138.994C362.047 138.568 362.062 138.029 362.028 137.377C361.994 136.725 361.952 136.259 361.902 135.977L363.43 135.551L367.616 150.572L366.088 150.998C365.949 150.601 365.749 150.136 365.488 149.604C365.227 149.071 365.009 148.668 364.834 148.393C364.523 147.931 364.158 147.67 363.741 147.611C363.323 147.551 362.905 147.58 362.488 147.696L354.184 150.01L357.491 161.878L365.599 159.619C366.056 159.491 366.418 159.299 366.684 159.042C366.95 158.785 367.129 158.369 367.222 157.795C367.284 157.411 367.305 156.917 367.284 156.311C367.262 155.704 367.224 155.226 367.169 154.876L368.696 154.45L372.882 169.471L371.355 169.897C371.212 169.486 371.026 169.032 370.795 168.533C370.565 168.035 370.326 167.595 370.079 167.213C369.771 166.764 369.411 166.506 368.998 166.438C368.585 166.37 368.163 166.396 367.732 166.517L348.05 172.002C347.58 172.133 347.206 172.328 346.927 172.589C346.648 172.85 346.466 173.259 346.382 173.817C346.339 174.167 346.348 174.653 346.409 175.276C346.47 175.9 346.541 176.404 346.62 176.79L345.092 177.216Z"/>
<path d="M373.602 210.832C373.548 210.454 373.453 209.915 373.319 209.215C373.185 208.515 372.898 207.888 372.457 207.334C372.073 206.846 371.434 206.514 370.539 206.336C369.644 206.158 368.337 206.101 366.616 206.164L346.015 206.916L345.883 203.299L367.515 184.526L353.984 185.02C352.304 185.081 351.032 185.239 350.167 185.495C349.301 185.75 348.674 186.136 348.286 186.652C348.002 187.028 347.759 187.62 347.558 188.428C347.357 189.235 347.224 189.878 347.16 190.355L345.575 190.413L345.123 178.019L346.708 177.961C346.768 178.488 346.888 179.091 347.069 179.769C347.249 180.447 347.511 181.011 347.853 181.46C348.265 181.973 348.87 182.314 349.67 182.482C350.47 182.649 351.804 182.699 353.673 182.63L367.326 182.132C368.003 182.107 368.639 181.979 369.234 181.747C369.83 181.515 370.336 181.168 370.753 180.705C371.196 180.214 371.538 179.656 371.78 179.03C372.022 178.404 372.203 177.695 372.323 176.904L373.948 176.845L374.344 187.694L355.416 204.172L366.326 203.774C368.059 203.711 369.345 203.548 370.183 203.287C371.022 203.026 371.635 202.638 372.023 202.122C372.32 201.717 372.566 201.125 372.761 200.345C372.957 199.565 373.086 198.936 373.15 198.459L374.735 198.401L375.187 210.774L373.602 210.832Z"/>
<path d="M366.349 243.379C364.804 244.534 363.048 245.347 361.081 245.821C359.115 246.294 356.973 246.31 354.656 245.868C352.593 245.474 350.695 244.754 348.963 243.706C347.231 242.658 345.817 241.354 344.722 239.792C343.585 238.154 342.804 236.336 342.378 234.337C341.952 232.338 341.983 230.06 342.471 227.504C342.864 225.44 343.576 223.554 344.605 221.847C345.635 220.139 346.929 218.709 348.487 217.558C350.016 216.414 351.763 215.609 353.728 215.142C355.694 214.676 357.788 214.654 360.012 215.078C362.328 215.52 364.353 216.317 366.086 217.468C367.819 218.62 369.225 220.016 370.306 221.657C371.362 223.28 372.067 225.101 372.42 227.121C372.773 229.141 372.746 231.216 372.34 233.346C371.936 235.463 371.211 237.384 370.164 239.109C369.118 240.834 367.846 242.258 366.349 243.379ZM347.058 234.381C348.155 235.211 349.444 235.905 350.924 236.463C352.404 237.022 354.11 237.485 356.04 237.853C357.678 238.166 359.294 238.353 360.89 238.416C362.485 238.479 363.942 238.346 365.26 238.018C366.581 237.677 367.698 237.103 368.61 236.298C369.523 235.492 370.114 234.384 370.383 232.973C370.842 230.563 370.05 228.514 368.005 226.827C365.961 225.14 362.855 223.899 358.688 223.105C356.917 222.767 355.22 222.585 353.597 222.558C351.974 222.531 350.521 222.699 349.238 223.061C347.938 223.434 346.872 224.017 346.037 224.81C345.203 225.603 344.658 226.672 344.401 228.017C344.15 229.335 344.267 230.53 344.752 231.602C345.238 232.674 346.006 233.601 347.058 234.381Z"/>
<path d="M337.767 273.198L329.432 269.144L339.566 244.581L341.032 245.185C340.889 245.639 340.736 246.178 340.575 246.8C340.413 247.423 340.331 247.843 340.329 248.062C340.318 248.586 340.433 249 340.674 249.304C340.915 249.609 341.28 249.862 341.768 250.064L360.581 257.825C361.032 258.011 361.433 258.096 361.785 258.079C362.136 258.063 362.539 257.841 362.994 257.413C363.33 257.097 363.664 256.688 363.995 256.187C364.326 255.686 364.584 255.283 364.769 254.978L366.235 255.583L360.195 270.223L358.729 269.618C358.857 269.202 358.999 268.707 359.154 268.133C359.31 267.56 359.408 267.047 359.449 266.594C359.487 266.038 359.368 265.608 359.091 265.303C358.813 264.998 358.455 264.755 358.017 264.574L340.482 257.34C339.655 256.999 338.98 256.787 338.458 256.703C337.935 256.619 337.494 256.694 337.134 256.927C336.761 257.154 336.42 257.545 336.111 258.099C335.802 258.653 335.435 259.444 335.012 260.472C334.598 261.474 334.256 262.473 333.984 263.468C333.713 264.463 333.693 265.25 333.923 265.829C334.299 266.731 334.927 267.757 335.81 268.905C336.692 270.054 337.533 271.027 338.333 271.826L337.767 273.198Z"/>
<path d="M335.528 306.519C333.654 306.973 331.72 307.03 329.725 306.692C327.731 306.353 325.756 305.525 323.8 304.208C322.057 303.034 320.596 301.625 319.416 299.98C318.236 298.336 317.449 296.58 317.056 294.714C316.655 292.761 316.653 290.782 317.048 288.776C317.442 286.771 318.367 284.689 319.821 282.53C320.994 280.788 322.39 279.334 324.008 278.169C325.627 277.004 327.378 276.198 329.264 275.753C331.119 275.303 333.042 275.25 335.033 275.594C337.024 275.938 338.958 276.742 340.835 278.007C342.791 279.324 344.339 280.853 345.479 282.593C346.619 284.334 347.363 286.171 347.711 288.105C348.044 290.012 347.976 291.964 347.506 293.96C347.036 295.955 346.195 297.852 344.983 299.651C343.78 301.438 342.357 302.919 340.716 304.094C339.076 305.268 337.346 306.077 335.528 306.519ZM321.332 290.657C322.015 291.852 322.926 292.998 324.068 294.093C325.209 295.189 326.595 296.285 328.225 297.383C329.607 298.315 331.02 299.123 332.462 299.808C333.904 300.494 335.296 300.945 336.637 301.162C337.985 301.368 339.237 301.28 340.393 300.898C341.549 300.516 342.528 299.73 343.331 298.538C344.701 296.503 344.779 294.308 343.563 291.953C342.346 289.598 339.979 287.235 336.461 284.865C334.965 283.858 333.477 283.023 331.995 282.36C330.514 281.697 329.112 281.28 327.789 281.108C326.448 280.94 325.238 281.056 324.159 281.457C323.08 281.858 322.158 282.626 321.393 283.762C320.644 284.874 320.281 286.019 320.306 287.196C320.33 288.373 320.672 289.527 321.332 290.657Z"/>
<path d="M295.32 327.872C295.597 327.554 295.835 327.263 296.034 327C296.233 326.737 296.454 326.379 296.697 325.926C296.98 325.416 297.046 324.953 296.894 324.536C296.743 324.12 296.514 323.749 296.206 323.424L293.902 320.986C293.436 320.494 293.056 320.102 292.763 319.811C292.469 319.52 292.102 319.162 291.664 318.738C292.09 317.216 293.019 315.283 294.451 312.941C295.882 310.599 297.406 308.664 299.021 307.137C300.538 305.703 302.18 304.589 303.947 303.794C305.714 303 307.538 302.591 309.417 302.567C311.288 302.533 313.154 302.923 315.015 303.738C316.876 304.552 318.635 305.836 320.293 307.589C321.839 309.223 322.997 310.991 323.769 312.892C324.54 314.793 324.888 316.73 324.814 318.703C324.75 320.647 324.252 322.572 323.322 324.478C322.391 326.384 321.049 328.166 319.296 329.823C318.105 330.95 316.864 331.848 315.575 332.516C314.286 333.185 313.153 333.664 312.177 333.953L312.029 335.631L310.744 336.846L303.376 329.32L304.676 328.091C307.594 329.678 310.101 330.534 312.197 330.66C314.293 330.786 316.139 330.094 317.735 328.586C319.626 326.798 320.303 324.59 319.768 321.963C319.233 319.335 317.592 316.568 314.845 313.663C311.93 310.581 309.144 308.645 306.486 307.856C303.829 307.068 301.574 307.549 299.723 309.299C298.856 310.119 298.209 310.978 297.781 311.877C297.353 312.775 297.115 313.574 297.067 314.273L301.089 318.527C301.425 318.882 301.77 319.119 302.127 319.239C302.483 319.36 302.937 319.327 303.488 319.141C303.914 318.999 304.391 318.763 304.918 318.433C305.445 318.103 305.874 317.817 306.207 317.578L307.297 318.73L296.409 329.024L295.32 327.872Z"/>
<path d="M275.124 358.428C275.512 358.127 275.847 357.818 276.13 357.502C276.413 357.185 276.654 356.839 276.853 356.463C277.18 355.881 277.405 355.255 277.526 354.584C277.648 353.914 277.731 353.2 277.775 352.441C277.854 350.883 277.912 349.207 277.95 347.412C277.987 345.617 278.017 343.648 278.039 341.504C278.073 340.133 278.001 339.14 277.824 338.525C277.646 337.911 277.161 336.956 276.368 335.662L274.234 332.177C273.979 331.761 273.678 331.444 273.331 331.228C272.984 331.011 272.531 330.939 271.971 331.012C271.725 331.051 271.244 331.199 270.526 331.456C269.809 331.712 269.293 331.921 268.979 332.081L268.151 330.729L281.865 322.331L282.693 323.683C282.383 323.904 281.946 324.236 281.382 324.677C280.818 325.118 280.443 325.459 280.256 325.7C279.942 326.147 279.801 326.571 279.832 326.973C279.864 327.375 280.014 327.795 280.283 328.234L282.937 332.569C283.171 332.95 283.382 333.282 283.57 333.564C283.759 333.846 283.948 334.064 284.138 334.218C284.353 334.388 284.663 334.583 285.069 334.804C285.474 335.024 285.999 335.311 286.644 335.663C288.489 336.678 290.256 337.63 291.945 338.519C293.634 339.408 295.229 340.235 296.731 341C297.513 341.396 298.222 341.665 298.858 341.808C299.494 341.951 300.094 342.016 300.659 342.004C301.077 341.986 301.537 341.887 302.039 341.707C302.54 341.527 302.977 341.339 303.35 341.143L304.178 342.495L290.082 351.127L289.254 349.775C290.527 348.947 291.345 348.323 291.708 347.903C292.07 347.482 292.173 347.145 292.017 346.89C291.94 346.763 291.7 346.56 291.299 346.282C290.898 346.003 290.239 345.596 289.323 345.06C288.47 344.549 287.261 343.867 285.697 343.013C284.133 342.159 282.278 341.173 280.132 340.056C280.066 344.88 280.046 348.234 280.071 350.118C280.097 352.001 280.205 353.099 280.396 353.411C280.636 353.804 281.06 353.958 281.667 353.872C282.274 353.787 283.133 353.444 284.244 352.843L285.072 354.195L275.952 359.78L275.124 358.428Z"/>
</g>
<path d="M64.1443 200.933C64.1443 126.803 124.239 66.7083 198.369 66.7083C272.499 66.7083 332.594 126.803 332.594 200.933C332.594 275.063 272.499 335.158 198.369 335.158C124.239 335.158 64.1443 275.063 64.1443 200.933Z" fill="#ffffff" fill-rule="nonzero" opacity="1" stroke="#2704a0" stroke-linecap="butt" stroke-linejoin="round" stroke-width="12"/>
<path d="M68.9259 198.27C68.9259 127.605 126.211 70.3203 196.876 70.3203C267.54 70.3203 324.825 127.605 324.825 198.27C324.825 268.935 267.54 326.22 196.876 326.22C126.211 326.22 68.9259 268.935 68.9259 198.27Z" fill="#ffffff" fill-opacity="0" fill-rule="nonzero" opacity="1" stroke="#000000" stroke-linecap="butt" stroke-linejoin="round" stroke-opacity="0" stroke-width="4.77"/>
<g fill="#2704a0" opacity="1" stroke="none">
<path d="M149.55 353.159C149.55 353.745 149.384 354.171 149.052 354.438C148.72 354.705 148.3 354.839 147.792 354.839C147.467 354.839 146.793 354.695 145.771 354.409C144.748 354.122 143.664 353.908 142.519 353.764C143.274 354.754 144.107 355.685 145.019 356.557C145.93 357.43 146.386 358.172 146.386 358.784C146.386 359.214 146.197 359.588 145.819 359.907C145.442 360.226 145.045 360.385 144.628 360.385C144.342 360.385 144.075 360.304 143.827 360.141C143.58 359.979 143.365 359.747 143.183 359.448C143.026 359.162 142.815 358.51 142.548 357.495C142.281 356.479 141.926 355.438 141.483 354.37C141.054 355.385 140.696 356.43 140.409 357.505C140.123 358.579 139.914 359.227 139.784 359.448C139.576 359.774 139.364 360.011 139.149 360.161C138.935 360.311 138.664 360.385 138.339 360.385C137.909 360.385 137.509 360.233 137.138 359.927C136.767 359.621 136.581 359.24 136.581 358.784C136.581 358.172 137.037 357.43 137.948 356.557C138.86 355.685 139.693 354.754 140.448 353.764C139.355 353.895 138.28 354.106 137.226 354.399C136.171 354.692 135.487 354.839 135.175 354.839C134.667 354.839 134.247 354.705 133.915 354.438C133.583 354.171 133.417 353.745 133.417 353.159C133.417 352.625 133.583 352.212 133.915 351.919C134.247 351.626 134.667 351.479 135.175 351.479C135.579 351.479 136.226 351.613 137.118 351.88C138.01 352.147 139.12 352.358 140.448 352.514C139.589 351.421 138.73 350.46 137.87 349.634C137.011 348.807 136.581 348.094 136.581 347.495C136.581 347.065 136.77 346.691 137.148 346.372C137.525 346.053 137.922 345.893 138.339 345.893C138.638 345.893 138.909 345.971 139.149 346.128C139.39 346.284 139.602 346.512 139.784 346.811C139.941 347.098 140.155 347.755 140.429 348.784C140.702 349.813 141.054 350.854 141.483 351.909C141.913 350.841 142.268 349.793 142.548 348.764C142.828 347.736 143.039 347.085 143.183 346.811C143.339 346.538 143.544 346.316 143.798 346.147C144.052 345.978 144.329 345.893 144.628 345.893C145.058 345.893 145.458 346.046 145.829 346.352C146.2 346.658 146.386 347.039 146.386 347.495C146.386 348.094 145.979 348.794 145.165 349.594C144.351 350.395 143.476 351.369 142.538 352.514C143.84 352.345 144.957 352.13 145.888 351.87C146.819 351.609 147.454 351.479 147.792 351.479C148.3 351.479 148.72 351.626 149.052 351.919C149.384 352.212 149.55 352.625 149.55 353.159Z"/>
<path d="M180.99 348.12C180.47 348.185 180.027 348.25 179.662 348.315C179.298 348.38 178.888 348.471 178.432 348.589C177.898 348.732 177.556 348.986 177.406 349.35C177.257 349.715 177.182 350.132 177.182 350.6L177.182 365.874C177.182 367.28 176.899 368.569 176.332 369.741C175.766 370.913 174.988 371.896 173.998 372.69C172.996 373.471 171.876 374.061 170.639 374.458C169.402 374.855 168.08 375.053 166.674 375.053C164.239 375.053 162.276 374.468 160.785 373.296C159.294 372.124 158.549 370.516 158.549 368.471C158.549 367.26 158.891 366.258 159.574 365.464C160.258 364.669 161.199 364.272 162.397 364.272C163.529 364.272 164.431 364.604 165.102 365.268C165.772 365.932 166.108 366.753 166.108 367.729C166.108 368.563 165.818 369.334 165.238 370.044C164.659 370.753 163.998 371.408 163.256 372.007L163.256 372.26C163.373 372.521 163.627 372.742 164.018 372.925C164.408 373.107 164.806 373.198 165.209 373.198C166.772 373.198 167.999 372.638 168.891 371.518C169.783 370.399 170.229 368.706 170.229 366.44L170.229 350.796C170.229 350.327 170.157 349.936 170.014 349.624C169.871 349.311 169.526 349.038 168.979 348.803C168.588 348.634 168.116 348.491 167.563 348.374C167.009 348.257 166.55 348.172 166.186 348.12L166.186 346.596L180.99 346.596L180.99 348.12Z"/>
<path d="M207.922 365.425L207.375 374.311L181.847 374.311L181.847 372.788C182.303 372.749 182.837 372.687 183.449 372.602C184.061 372.518 184.465 372.436 184.66 372.358C185.129 372.176 185.454 371.922 185.636 371.596C185.819 371.271 185.91 370.854 185.91 370.346L185.91 350.796C185.91 350.327 185.838 349.94 185.695 349.634C185.552 349.328 185.207 349.051 184.66 348.803C184.256 348.621 183.771 348.475 183.205 348.364C182.638 348.253 182.186 348.172 181.847 348.12L181.847 346.596L197.062 346.596L197.062 348.12C196.646 348.159 196.154 348.214 195.588 348.286C195.021 348.358 194.53 348.458 194.113 348.589C193.605 348.758 193.267 349.022 193.097 349.38C192.928 349.738 192.844 350.145 192.844 350.6L192.844 368.823C192.844 369.682 192.902 370.359 193.019 370.854C193.136 371.349 193.364 371.714 193.703 371.948C194.041 372.195 194.513 372.355 195.119 372.427C195.724 372.498 196.561 372.534 197.629 372.534C198.67 372.534 199.683 372.472 200.666 372.348C201.649 372.225 202.355 371.955 202.785 371.538C203.449 370.874 204.129 369.94 204.826 368.735C205.523 367.531 206.079 366.427 206.496 365.425L207.922 365.425Z"/>
<path d="M222.275 375.053C220.243 375.053 218.342 374.725 216.572 374.067C214.801 373.41 213.258 372.456 211.943 371.206C210.654 369.982 209.638 368.468 208.896 366.665C208.154 364.861 207.783 362.879 207.783 360.718C207.783 358.569 208.157 356.58 208.906 354.751C209.654 352.921 210.706 351.336 212.06 349.995C213.388 348.68 214.983 347.661 216.845 346.938C218.707 346.216 220.699 345.854 222.822 345.854C224.358 345.854 225.758 346.04 227.021 346.411C228.284 346.782 229.352 347.202 230.224 347.671L231.435 346.596L233.134 346.596L233.31 356.714L231.591 356.714C230.615 353.628 229.443 351.362 228.075 349.917C226.708 348.471 225.042 347.749 223.075 347.749C220.628 347.749 218.766 348.826 217.49 350.981C216.214 353.136 215.575 356.16 215.575 360.053C215.575 362.254 215.794 364.132 216.23 365.688C216.666 367.244 217.236 368.497 217.939 369.448C218.694 370.438 219.586 371.163 220.615 371.626C221.643 372.088 222.783 372.319 224.033 372.319C225.855 372.319 227.48 371.824 228.906 370.835C230.331 369.845 231.63 368.348 232.802 366.343L234.482 367.358C233.922 368.504 233.284 369.529 232.568 370.434C231.852 371.339 231.025 372.117 230.087 372.768C229.059 373.484 227.923 374.044 226.679 374.448C225.436 374.852 223.967 375.053 222.275 375.053Z"/>
<path d="M259.829 353.159C259.829 353.745 259.663 354.171 259.33 354.438C258.998 354.705 258.579 354.839 258.071 354.839C257.745 354.839 257.071 354.695 256.049 354.409C255.027 354.122 253.943 353.908 252.797 353.764C253.552 354.754 254.386 355.685 255.297 356.557C256.209 357.43 256.664 358.172 256.664 358.784C256.664 359.214 256.476 359.588 256.098 359.907C255.72 360.226 255.323 360.385 254.907 360.385C254.62 360.385 254.353 360.304 254.106 360.141C253.858 359.979 253.644 359.747 253.461 359.448C253.305 359.162 253.094 358.51 252.827 357.495C252.56 356.479 252.205 355.438 251.762 354.37C251.332 355.385 250.974 356.43 250.688 357.505C250.401 358.579 250.193 359.227 250.063 359.448C249.855 359.774 249.643 360.011 249.428 360.161C249.213 360.311 248.943 360.385 248.618 360.385C248.188 360.385 247.788 360.233 247.416 359.927C247.045 359.621 246.86 359.24 246.86 358.784C246.86 358.172 247.316 357.43 248.227 356.557C249.138 355.685 249.972 354.754 250.727 353.764C249.633 353.895 248.559 354.106 247.504 354.399C246.45 354.692 245.766 354.839 245.454 354.839C244.946 354.839 244.526 354.705 244.194 354.438C243.862 354.171 243.696 353.745 243.696 353.159C243.696 352.625 243.862 352.212 244.194 351.919C244.526 351.626 244.946 351.479 245.454 351.479C245.857 351.479 246.505 351.613 247.397 351.88C248.289 352.147 249.399 352.358 250.727 352.514C249.868 351.421 249.008 350.46 248.149 349.634C247.289 348.807 246.86 348.094 246.86 347.495C246.86 347.065 247.049 346.691 247.426 346.372C247.804 346.053 248.201 345.893 248.618 345.893C248.917 345.893 249.187 345.971 249.428 346.128C249.669 346.284 249.881 346.512 250.063 346.811C250.219 347.098 250.434 347.755 250.707 348.784C250.981 349.813 251.332 350.854 251.762 351.909C252.192 350.841 252.547 349.793 252.827 348.764C253.107 347.736 253.318 347.085 253.461 346.811C253.618 346.538 253.823 346.316 254.077 346.147C254.33 345.978 254.607 345.893 254.907 345.893C255.336 345.893 255.737 346.046 256.108 346.352C256.479 346.658 256.664 347.039 256.664 347.495C256.664 348.094 256.258 348.794 255.444 349.594C254.63 350.395 253.754 351.369 252.817 352.514C254.119 352.345 255.235 352.13 256.166 351.87C257.097 351.609 257.732 351.479 258.071 351.479C258.579 351.479 258.998 351.626 259.33 351.919C259.663 352.212 259.829 352.625 259.829 353.159Z"/>
</g>
</g>
<g id="レイヤー-2">
<path d="M131.632 247.363C124.228 242.401 121.824 229.23 118.916 222.688C116.192 216.559 113.674 203.331 110.485 201.901C107.789 200.693 98.6609 207.123 88.434 209.768C83.042 211.163 82.2054 204.934 83.5069 203.075C87.5205 197.341 97.1062 195.493 101.182 194.197C105.257 192.9 115.605 192.653 117.463 198.122C117.791 199.087 121.992 203.286 127.613 214.529C133.235 225.772 135.243 235.531 136.297 235.801C138.301 236.315 155.207 225.686 160.286 221.018C164.39 217.247 169.679 212.829 170.581 207.566C173.052 193.153 184.849 180.509 191.688 172.934C198.526 165.36 207.257 162.835 211.466 167.043C215.674 171.251 215.253 177.616 213.99 182.613C212.728 187.61 210.413 193.712 208.099 199.656C205.785 205.6 194.633 219.276 186.007 224.483C177.38 229.691 139.035 252.325 131.632 247.363Z" fill="#d6dcf4" fill-rule="nonzero" opacity="1" stroke="#000000" stroke-linecap="butt" stroke-linejoin="miter" stroke-width="3"/>
<path d="M203.226 160.634C185.393 159.053 170.398 136.405 174.934 121.764C179.936 105.621 194.026 95.4855 209.849 95.7931C235.869 96.299 242.233 115.968 241.326 122.674C240.19 131.087 244.722 131.203 240.754 138.572C233.693 151.684 221.286 162.236 203.226 160.634Z" fill="#d6dcf4" fill-rule="nonzero" opacity="1" stroke="#000000" stroke-linecap="butt" stroke-linejoin="miter" stroke-width="3"/>
<path d="M148.284 185.331C150.057 187.106 153.383 183.819 155.376 187.721C157.369 191.624 153.842 190.648 152.382 192.399C150.904 194.173 151.801 204.189 145.495 204.66C139.19 205.131 132.47 202.563 131.792 196.982C131.114 191.4 140.298 185.477 142.15 183.971C144.003 182.466 143.269 171.044 143.689 168.313C144.11 165.582 144.614 154.417 148.381 152.157C152.147 149.896 159.725 153.567 162.679 155.399C165.634 157.231 176.618 158.576 181.508 160.888C186.399 163.2 191.261 167.198 189.254 169.322C187.246 171.447 183.461 175.75 182.278 177.18C181.094 178.609 169.999 173.107 166.093 170.126C162.188 167.145 154.894 160.674 152.461 160.933C150.028 161.191 153.182 166.356 151.919 171.646C150.657 176.936 146.512 183.556 148.284 185.331Z" fill="#d6dcf4" fill-rule="nonzero" opacity="1" stroke="#000000" stroke-linecap="butt" stroke-linejoin="miter" stroke-width="3"/>
<path d="M201.451 178.444C201.372 172.862 206.242 171.542 208.901 171.304C210.574 171.155 217.179 171.95 221.772 174.495C226.008 176.843 229.819 183.947 231.403 183.947C234.705 183.947 238.204 175.4 239.029 171.604C239.422 169.796 236.189 168.316 235.87 166.006C235.473 163.125 238.086 162.328 238.086 162.328C238.086 162.328 236.424 158.378 237.658 156.271C238.85 154.234 243.477 149.769 248.935 151.715C254.393 153.66 254.831 159.812 253.259 165.472C251.547 171.632 245.481 170.739 244.218 173.019C242.955 175.3 238.936 186.717 232.543 188.966C226.15 191.215 224.408 187.614 217.459 185.441C210.51 183.268 201.53 184.025 201.451 178.444Z" fill="#d6dcf4" fill-rule="nonzero" opacity="1" stroke="#000000" stroke-linecap="butt" stroke-linejoin="miter" stroke-width="3"/>
<path d="M211.859 203.914C213.204 201.508 223.784 198.823 231.488 195.826C238.374 193.149 258.855 182.685 265.907 185.745C271.928 188.358 281.283 193.06 289.535 198.518C294.797 201.704 304.215 189.932 306.708 193.394C310.179 198.216 305.323 203.227 297.29 208.213C291.696 211.685 290.66 208.68 286.765 205.72C283.438 203.192 263.545 196.446 262.269 197.595C254.419 204.66 242.942 208.611 233.861 211.59C226.86 213.886 197.752 220.255 200.271 217.716C205.514 212.431 209.209 208.651 211.859 203.914Z" fill="#d6dcf4" fill-rule="nonzero" opacity="1" stroke="#000000" stroke-linecap="butt" stroke-linejoin="miter" stroke-width="3"/>
</g>
<g id="moji-">
<g fill="#000000" filter="url(#Filter_2)" stroke="#580133" stroke-linecap="butt" stroke-linejoin="miter" stroke-width="0.5">
<path d="M137.278 264.712L151.01 298.639L171.495 290.348L174.505 297.784L145.376 309.574L128.635 268.21L137.278 264.712Z"/>
<path d="M209.07 275.14L212.08 282.576L180.735 295.263L163.993 253.899L194.328 241.621L197.292 248.946L175.404 257.805L178.959 266.588L199.052 258.456L201.959 265.64L181.867 273.772L186.171 284.408L209.07 275.14Z"/>
<path d="M223.681 229.741L255.071 265.176L245.698 268.969L239.591 261.545L224.353 267.713L224.932 277.374L215.896 281.031L213.915 233.694L223.681 229.741ZM222.542 241.208L223.797 259.642L234.293 255.394L222.542 241.208Z"/>
<path d="M271.866 241.069L263.082 244.624L269.102 259.497L260.515 262.972L243.773 221.609L261.789 214.317C265.942 212.636 269.685 212.362 273.018 213.495C276.351 214.628 278.922 217.431 280.731 221.902C282.708 226.785 282.87 230.736 281.218 233.756C279.567 236.776 276.449 239.213 271.866 241.069ZM272.195 225.422C271.324 223.271 270.138 221.966 268.635 221.507C267.132 221.049 265.361 221.232 263.322 222.057L255.268 225.317L260.197 237.496L268.251 234.236C270.29 233.411 271.675 232.273 272.406 230.824C273.136 229.374 273.066 227.574 272.195 225.422Z"/>
</g>
<g fill="#fa74a2" filter="url(#Filter_3)" stroke="#580133" stroke-linecap="butt" stroke-linejoin="miter" stroke-width="0.5">
<path d="M130.073 260.742L143.805 294.669L164.29 286.378L167.3 293.814L138.172 305.604L121.43 264.24L130.073 260.742Z"/>
<path d="M201.865 271.17L204.875 278.606L173.53 291.293L156.788 249.929L187.123 237.651L190.088 244.976L168.199 253.835L171.754 262.618L191.847 254.486L194.754 261.67L174.662 269.802L178.967 280.438L201.865 271.17Z"/>
<path d="M216.476 225.771L247.866 261.206L238.493 264.999L232.386 257.575L217.148 263.743L217.727 273.404L208.691 277.061L206.71 229.724L216.476 225.771ZM215.337 237.238L216.593 255.672L227.088 251.424L215.337 237.238Z"/>
<path d="M264.661 237.099L255.877 240.654L261.897 255.527L253.31 259.002L236.568 217.639L254.584 210.347C258.737 208.666 262.48 208.392 265.813 209.525C269.146 210.658 271.717 213.461 273.527 217.932C275.503 222.815 275.665 226.766 274.014 229.786C272.362 232.806 269.244 235.243 264.661 237.099ZM264.99 221.452C264.12 219.301 262.933 217.996 261.43 217.537C259.927 217.079 258.156 217.262 256.117 218.087L248.063 221.347L252.992 233.526L261.046 230.266C263.085 229.441 264.47 228.303 265.201 226.854C265.931 225.404 265.861 223.604 264.99 221.452Z"/>
</g>
</g>
</svg>
