<?xml version="1.0" encoding="UTF-8" standalone="no"?>
<!DOCTYPE svg PUBLIC "-//W3C//DTD SVG 1.1//EN" "http://www.w3.org/Graphics/SVG/1.1/DTD/svg11.dtd">
<!-- Created with Vectornator (http://vectornator.io/) -->
<svg height="100%" stroke-miterlimit="10" style="fill-rule:nonzero;clip-rule:evenodd;stroke-linecap:round;stroke-linejoin:round;" version="1.1" viewBox="0 0 113.4 147.42" width="100%" xml:space="preserve" xmlns="http://www.w3.org/2000/svg" xmlns:xlink="http://www.w3.org/1999/xlink">
<defs>
<filter color-interpolation-filters="sRGB" filterUnits="userSpaceOnUse" height="58.2496" id="Filter" width="46.041" x="36.0442" y="87.3757">
<feDropShadow dx="0.487132" dy="-0.112704" flood-color="#b0951f" flood-opacity="1" in="SourceGraphic" result="Shadow" stdDeviation="0"/>
</filter>
<filter color-interpolation-filters="sRGB" filterUnits="userSpaceOnUse" height="21.2359" id="Filter_2" width="29.7428" x="38.6556" y="119.477">
<feDropShadow dx="0.775181" dy="0.00444277" flood-color="#b0951f" flood-opacity="1" in="SourceGraphic" result="Shadow" stdDeviation="0"/>
</filter>
<filter color-interpolation-filters="sRGB" filterUnits="userSpaceOnUse" height="21.8008" id="Filter_3" width="29.6833" x="43.2159" y="105.718">
<feDropShadow dx="0.775181" dy="0.00444277" flood-color="#b0951f" flood-opacity="1" in="SourceGraphic" result="Shadow" stdDeviation="0"/>
</filter>
<filter color-interpolation-filters="sRGB" filterUnits="userSpaceOnUse" height="23.3321" id="Filter_4" width="31.8441" x="47.2861" y="92.1799">
<feDropShadow dx="0.775181" dy="0.00444277" flood-color="#b0951f" flood-opacity="1" in="SourceGraphic" result="Shadow" stdDeviation="0"/>
</filter>
<filter color-interpolation-filters="sRGB" filterUnits="userSpaceOnUse" height="61.7419" id="Filter_5" width="41.4938" x="5.50255" y="86.8931">
<feDropShadow dx="0.671475" dy="-2.05591" flood-color="#717171" flood-opacity="0" in="SourceGraphic" result="Shadow" stdDeviation="3.26163"/>
</filter>
<filter color-interpolation-filters="sRGB" filterUnits="userSpaceOnUse" height="34.6903" id="Filter_6" width="39.5736" x="7.27361" y="114.461">
<feDropShadow dx="0.671475" dy="-2.05591" flood-color="#717171" flood-opacity="0" in="SourceGraphic" result="Shadow" stdDeviation="3.26163"/>
</filter>
<filter color-interpolation-filters="sRGB" filterUnits="userSpaceOnUse" height="61.4312" id="Filter_7" width="42.0282" x="76.1862" y="90.3078">
<feDropShadow dx="0.671475" dy="-2.05591" flood-color="#717171" flood-opacity="0" in="SourceGraphic" result="Shadow" stdDeviation="3.26163"/>
</filter>
<filter color-interpolation-filters="sRGB" filterUnits="userSpaceOnUse" height="34.6072" id="Filter_8" width="39.6475" x="76.3134" y="117.955">
<feDropShadow dx="0.671475" dy="-2.05591" flood-color="#717171" flood-opacity="0.0108696" in="SourceGraphic" result="Shadow" stdDeviation="3.26163"/>
</filter>
<filter color-interpolation-filters="sRGB" filterUnits="userSpaceOnUse" height="63.358" id="Filter_9" width="36.0792" x="70.8344" y="63.262">
<feDropShadow dx="0.970917" dy="1.93261" flood-color="#747473" flood-opacity="0" in="SourceGraphic" result="Shadow" stdDeviation="3.26163"/>
</filter>
</defs>
<clipPath id="ArtboardFrame">
<rect height="147.42" width="113.4" x="0" y="0"/>
</clipPath>
<g clip-path="url(#ArtboardFrame)" id="headarmfront">
<g opacity="1">
<path d="M6.12878 15.3664C5.11601 19.7558 4.57422 22.698 5.23712 33.9448C5.63444 40.6857 5.39997 48.6655 6.92662 55.0316C8.11404 59.9831 11.9537 68.4237 16.6408 76.7834C21.3278 85.1431 25.9043 88.1538 25.7857 89.2996C25.6302 90.8012 25.4527 91.0754 25.0428 92.1555C23.4362 96.3892 17.7009 99.6076 15.4888 105.007C12.5428 112.199 13.2671 121.786 13.3243 128.507C13.4555 143.94 27.1263 141.951 28.8385 141.96C31.8576 141.976 94.0318 145.573 98.1912 144.527C103.21 143.263 106.736 133.217 107.421 126.648C107.809 122.93 107.899 114.292 104.611 105.544C103.549 102.719 99.7783 99.1847 98.9709 96.3906C97.6808 91.9258 98.7311 87.6891 97.6718 84.7187C95.9901 80.0033 91.339 69.2332 81.1525 63.7516C77.1028 61.5724 71.39 71.5962 63.5819 71.5141C58.6881 71.4626 52.9276 61.2499 46.373 60.7983C42.6526 60.5419 37.0316 65.7515 37.0316 65.7515C37.0316 65.7515 29.8412 59.5611 26.4502 49.7053C26.0019 48.4023 24.0802 40.5205 23.9078 33.3413C23.7958 28.6814 26.2611 26.0715 26.559 22.2795C26.8897 18.0695 25.2778 13.8586 25.2778 13.8586C25.2778 13.8586 22.4319 6.1018 15.5767 6.2904C8.72155 6.479 7.05791 11.3395 6.12878 15.3664Z" fill="#ffffff" fill-opacity="0.985266" fill-rule="nonzero" opacity="1" stroke="#000000" stroke-linecap="butt" stroke-linejoin="round" stroke-width="0.3"/>
<path d="M34.963 68.7938C34.963 68.7938 37.7734 63.0619 38.1694 63.0151C40.0707 62.7899 52.683 69.4533 54.7017 70.2119C60.8037 72.5052 64.3409 71.8656 70.713 70.7498C71.7561 70.5671 83.5496 62.616 83.5496 62.616C83.5496 62.616 89.7932 70.9721 89.4548 71.2425C87.7195 72.6287 73.143 85.5125 62.359 85.1881C49.1014 84.7892 34.963 68.7938 34.963 68.7938Z" fill="#f783a5" fill-rule="nonzero" opacity="1" stroke="#f783a5" stroke-linecap="butt" stroke-linejoin="round" stroke-width="0.3"/>
<g opacity="1">
<path d="M12.13 16.6919C11.3685 17.7824 8.19806 12.3725 12.9421 13.2504C17.3154 14.0597 10.6233 18.3434 11.1965 16.4073" fill="#f783a5" fill-rule="nonzero" opacity="1" stroke="#fed0ef" stroke-linecap="butt" stroke-linejoin="round" stroke-width="0.3"/>
<path d="M17.1162 17.1216C17.2531 17.2115 17.2445 17.217 16.9914 17.1798C14.907 16.8734 15.8766 13.3753 17.821 13.7351C19.655 14.0745 19.4295 17.3718 17.4579 17.169C17.3483 17.1577 16.9523 17.0139 17.1162 17.1216Z" fill="#f783a5" fill-rule="nonzero" opacity="1" stroke="#fed0ef" stroke-linecap="butt" stroke-linejoin="round" stroke-width="0.3"/>
<path d="M22.01 19.009C22.8242 19.5091 20.4202 17.4982 20.5372 16.5499C20.6674 15.4936 22.7745 15.1332 23.5532 15.4737C25.6309 16.3822 23.8527 18.8844 22.2458 18.9671C22.101 18.9746 21.8612 18.9176 22.01 19.009Z" fill="#f783a5" fill-rule="nonzero" opacity="0.992248" stroke="#fed0ef" stroke-linecap="butt" stroke-linejoin="round" stroke-width="0.3"/>
<path d="M16.8597 23.4374C15.4455 23.0187 9.4599 22.1592 10.9287 19.4639C12.2135 17.1062 20.1124 18.7955 21.0263 21.1297C21.6808 22.8011 19.1646 23.3224 17.988 23.3991C17.5059 23.4306 16.0918 23.1954 16.5675 23.1109" fill="#f783a5" fill-rule="nonzero" opacity="1" stroke="#fed0ef" stroke-linecap="butt" stroke-linejoin="round" stroke-width="0.3"/>
</g>
<g opacity="1">
<path d="M69.2146 89.6389L69.2146 89.6389C79.4009 93.2744 84.7113 104.479 81.0758 114.665L74.7496 132.391C71.114 142.577 59.9092 147.887 49.723 144.252L49.723 144.252C39.5367 140.616 34.2262 129.412 37.8618 119.225L44.188 101.5C47.8235 91.3138 59.0283 86.0033 69.2146 89.6389Z" fill="#e3cb67" fill-rule="nonzero" opacity="1" stroke="#000000" stroke-linecap="butt" stroke-linejoin="round" stroke-opacity="0" stroke-width="0.3"/>
<path d="M68.3572 89.3766C78.7813 93.3788 83.1703 105.157 79.5434 115.117L73.2323 132.448C69.6054 142.408 58.786 147.367 49.0664 143.525L49.0664 143.525C39.3469 139.683 34.4078 128.494 38.0347 118.534L44.3458 101.203C47.9727 91.2438 59.1305 85.8342 68.3572 89.3766Z" fill="#eed983" fill-opacity="0" fill-rule="nonzero" filter="url(#Filter)" stroke="#fae9a4" stroke-linecap="butt" stroke-linejoin="round" stroke-width="1.6"/>
<path d="M57.6516 121.935C59.1536 122.835 59.7098 124.63 59.4179 125.303C59.9658 125.509 62.677 126.829 65.0362 128.243C67.3954 129.657 67.5404 130.783 67.6107 131.231C67.6694 131.253 67.5157 133.177 67.3131 133.644C66.9769 134.418 64.183 134.046 63.0803 133.631C62.2762 133.328 64.2978 135.666 64.4722 136.778C64.5309 136.8 64.9688 138.452 64.7273 139.008C64.285 140.027 59.6599 141.446 58.3884 140.256C57.0788 139.03 56.1268 137.655 55.0522 136.388C53.7562 134.861 53.4977 133.911 52.2048 132.387C51.6696 132.334 49.8556 132.701 49.3942 132.862C48.2395 133.266 44.2663 134.479 41.1511 132.487C39.9793 131.737 38.0725 128.65 38.8276 126.753C39.2265 125.751 39.8383 126.987 40.613 126.944C42.1898 126.857 43.8481 127.925 44.3366 126.8C42.3131 125.822 38.8836 123.259 40.7613 121.218C41.3328 120.596 42.0415 121.72 43.2817 121.983C45.3309 122.419 48.1884 122.417 49.5385 122.392C49.7891 122.387 49.5713 119.799 50.6656 119.521C52.107 119.156 57.9888 121.158 57.6516 121.935Z" fill="#f5eabc" fill-rule="nonzero" filter="url(#Filter_2)" stroke="none"/>
<path d="M69.6284 112.77C69.7129 112.803 71.4449 114.541 71.4321 114.572C73.2442 115.279 71.1637 119.201 69.021 118.416C67.2275 117.76 62.8984 115.443 62.7714 115.771C62.282 117.037 61.7201 117.729 61.2506 119.002C61.2399 119.031 62.4786 119.26 62.5208 119.291C63.3257 119.892 65.0493 120.313 65.4216 120.675C65.794 121.036 66.9288 121.329 67.4088 121.868C67.8887 122.407 69.6522 123.408 69.7305 123.904C69.7869 123.926 68.4925 126.34 68.3081 126.779C67.7375 128.14 65.3596 127.383 63.4394 126.356C62.7097 125.966 61.8577 125.474 61.4002 125.241C60.4092 124.736 59.0681 124.324 57.9675 123.894C54.0626 122.371 49.2972 121.836 45.6992 119.434C42.9429 117.594 41.8856 112.733 45.6746 112.632C46.2877 112.616 47.6856 112.678 49.5248 113.188C51.3639 113.699 52.9281 114.258 53.5154 114.459C53.9858 113.337 53.7022 114.522 54.1988 113.65C54.3263 113.426 50.6317 111.726 49.9969 111.478C49.1884 111.163 45.8229 106.888 46.6101 105.86C47.1148 105.201 48.122 107.061 48.4848 106.946C49.0688 106.762 51.5221 106.672 52.3456 106.803C56.9805 107.54 61.4111 108.599 66.0753 110.47C66.5171 110.647 69.7665 112.441 69.6284 112.77Z" fill="#f5eabc" fill-rule="nonzero" filter="url(#Filter_3)" stroke="none"/>
<path d="M67.489 94.6803C67.476 94.7117 68.1465 95.2975 68.1336 95.3289C68.958 95.6555 68.4572 96.3456 69.5439 96.8033C71.677 97.7017 71.7327 97.0556 73.895 98.0435C74.2418 98.2019 76.1432 98.9218 76.7882 99.5054C77.4332 100.089 77.9006 101.284 77.916 101.523C77.9775 101.547 78.4566 103.481 78.3355 103.774C78.1026 104.338 78.6564 105.035 77.4621 104.493C76.579 104.092 76.4517 104.476 76.7695 105.06C77.0873 105.644 76.9576 109.984 75.0408 110.139C73.9628 110.226 74.1764 110.37 73.0187 109.934C73.6259 110.304 74.0744 111.132 74.3619 111.651C74.6065 112.053 74.6597 113.512 74.543 113.885C74.3492 114.504 72.2956 115.116 72.134 115.508C66.5181 114.321 66.8562 112.358 65.525 109.801C65.2479 109.268 65.6777 108.679 65.2135 108.656C64.7494 108.632 64.8636 110.15 63.959 110.453C61.89 111.148 54.8414 108.073 54.1253 107.478C54.047 107.413 53.3675 107.629 52.6608 107.479C51.954 107.329 51.3036 106.712 50.839 106.832C50.3744 106.952 46.824 103.994 47.3365 102.754C47.5784 102.168 50.614 102.335 50.6286 101.531C50.6443 100.666 49.4031 99.6601 49.6864 98.7874C50.0521 97.6608 50.4845 97.4899 50.755 96.3369C50.8277 96.027 50.3746 95.3186 51.0522 94.9285C51.5097 94.6651 51.9687 94.2969 52.5842 94.5408C53.4009 94.8644 51.7346 92.8081 52.6466 92.2309C53.0286 91.9891 54.4797 92.6791 54.9991 92.8018C56.975 93.2686 58.2615 93.4113 60.2133 93.7573C60.8665 93.873 61.0114 92.9365 61.5535 92.8329C62.7831 92.598 64.6202 93.4931 65.8938 94.0178C66.1434 94.1206 67.2485 94.5553 67.489 94.6803Z" fill="#f5eabc" fill-rule="nonzero" filter="url(#Filter_4)" stroke="none"/>
<path d="M56.505 122.984C57.8777 123.858 57.3703 125.005 57.1116 125.645C57.6111 125.847 64.397 128.591 64.1445 129.215C64.3479 129.297 64.36 129.364 64.5371 129.477C64.5251 129.507 64.5251 129.507 64.5131 129.536C65.0934 129.906 65.6681 130.707 65.7362 131.135C65.7898 131.157 65.7898 131.157 65.8433 131.179C65.6842 131.572 66.0012 132.175 65.8216 132.619C65.5238 133.355 64.188 132.923 63.1825 132.517C62.4493 132.22 61.6678 131.422 61.0536 131C60.0587 130.316 59.0631 129.924 57.8581 129.5C57.4064 129.341 56.6118 129.06 56.2088 129.109C56.5288 129.504 57.326 130.292 57.8908 130.652C57.8788 130.681 57.8788 130.681 57.8668 130.711C57.9472 130.743 57.9472 130.743 58.0275 130.776C58.0155 130.805 58.0155 130.805 58.0035 130.835C58.2309 130.927 58.1422 130.948 58.3425 131.076C58.3305 131.105 58.3305 131.105 58.3185 131.135C59.7138 132.023 62.7989 135.989 62.968 137.052C63.0215 137.074 63.0215 137.074 63.0751 137.096C62.878 137.583 63.0939 138.282 62.8799 138.811C62.488 139.779 59.2755 139.271 58.1094 138.122C56.9083 136.939 56.7536 135.737 55.7655 134.518C54.5739 133.047 53.5104 131.556 52.3216 130.088C51.835 130.033 50.766 130.932 50.3883 131.169C48.4599 132.379 44.2615 133.678 40.7377 130.679C39.7459 129.835 39.8039 128.949 39.1061 128.087C39.6828 127.939 40.7263 128.233 41.4294 128.2C42.8606 128.131 46.2381 127.561 46.671 126.491C44.8239 125.538 40.7089 124.588 41.4618 122.728C41.5623 122.479 43.2191 123.066 43.57 123.063C45.6178 123.045 48.094 123.983 50.0618 123.965C50.2894 123.963 51.5354 122.959 51.5426 122.77C51.5611 122.279 50.2756 121.395 51.2669 121.141C52.5724 120.806 56.8039 122.246 56.505 122.984Z" fill="#030303" fill-rule="nonzero" opacity="1" stroke="none"/>
<path d="M68.1385 113.721C68.2171 113.753 68.2171 113.753 68.2958 113.784C68.2841 113.813 68.2841 113.813 68.2723 113.842C69.9587 114.525 69.8901 117.792 67.8964 117.034C66.2275 116.4 61.4845 112.959 60.2756 113.545C60.4289 113.734 61.0639 114.675 61.2 114.73C61.2139 115.079 61.3718 115.487 61.2555 115.799C60.8071 117.003 60.2932 118.18 59.8635 119.39C59.8536 119.418 59.9056 119.461 59.9449 119.491C60.6954 120.067 63.24 120.637 64.5365 121.416C64.804 121.577 66.0535 122.343 65.9861 122.51C66.0647 122.541 66.0647 122.541 66.1434 122.573C66.1317 122.602 66.1317 122.602 66.1199 122.631C66.1986 122.663 66.1986 122.663 66.2772 122.695C66.2655 122.724 66.2655 122.724 66.2538 122.753C66.3324 122.785 66.3324 122.785 66.4111 122.817C66.3993 122.846 66.3993 122.846 66.3876 122.875C67.0125 123.272 67.6962 124.11 67.7714 124.583C67.8239 124.604 67.8239 124.604 67.8763 124.625C67.7288 124.99 67.7565 125.374 67.5874 125.792C66.8653 127.577 62.6651 124.496 61.118 123.681C60.1952 123.195 59.3573 122.833 58.333 122.419C54.699 120.949 50.7998 120.86 47.4465 118.554C44.8777 116.788 43.7586 114.375 47.277 114.298C47.8462 114.285 49.4533 114.48 50.1218 114.645C50.3908 114.711 49.6593 115.926 49.6593 115.926C49.6593 115.926 47.0055 115.264 47.0128 115.957C47.0202 116.65 49.5634 117.063 49.9094 117.17C50.1923 117.258 53.3047 117.89 53.3897 117.494C53.4619 117.157 52.2737 116.777 51.9024 116.615C51.5312 116.453 49.6155 115.896 49.6155 115.896C49.6155 115.896 49.9772 114.594 50.2449 114.683C50.8461 114.882 53.3996 115.721 53.946 115.915C54.3774 114.849 54.481 114.442 54.9379 113.615C55.0553 113.402 55.8016 112.709 55.093 112.326C54.4409 111.975 53.2072 111.597 52.6164 111.358C51.6642 110.973 47.5401 108.538 49.1427 108.027C49.6842 107.855 51.736 108.346 52.5015 108.475C56.8096 109.199 60.8162 109.932 65.1571 111.738C65.5682 111.909 68.2652 113.408 68.1385 113.721Z" fill="#010101" fill-rule="nonzero" opacity="1" stroke="none"/>
<path d="M66.2511 96.0862C66.2391 96.116 66.2391 96.116 66.227 96.1458C67.0011 96.4591 67.0353 97.0026 68.0558 97.4412C70.0589 98.3023 72.2208 98.7936 74.2517 99.7399C74.5774 99.8917 76.2385 100.811 76.1503 101.029C76.2369 101.064 76.2369 101.064 76.3236 101.099C76.3115 101.129 76.3115 101.129 76.2994 101.159C76.6285 101.363 76.9578 101.759 76.9729 101.986C77.0306 102.01 77.0306 102.01 77.0884 102.033C76.9838 102.292 77.1184 102.624 77.0057 102.902C76.4724 104.22 71.4744 101.125 70.0657 100.615C69.4255 100.383 66.5926 99.2297 66.3944 99.7196C66.4522 99.743 66.4522 99.743 66.5099 99.7664C66.4979 99.7962 66.4979 99.7962 66.4858 99.826C67.0386 100.05 67.5835 100.178 68.1395 100.391C68.6669 100.593 70.9338 101.531 71.4011 101.714C71.4879 101.748 72.6485 103.368 71.4839 103.234C71.3407 103.217 70.4183 103.652 70.3335 103.173C70.2556 102.734 68.0726 102.074 66.8986 101.718C65.3283 101.241 64.9633 101.768 65.5078 102C66.1498 102.273 66.7081 102.377 67.2255 102.717C67.6953 103.026 66.9743 103.664 66.8876 103.775C66.8657 103.803 66.574 104.23 66.574 104.23C66.574 104.23 66.1169 104.028 65.6296 103.901C65.1424 103.774 65.1698 103.759 64.6249 103.721C64.3054 103.699 64.5272 104.039 64.493 104.069C64.462 104.096 63.9453 104.398 64.7357 104.683C65.1724 104.841 65.8276 105.116 66.492 105.327C67.1565 105.538 67.8084 105.808 68.3964 105.839C68.5989 105.85 68.9991 105.837 69.0982 105.745C69.1461 105.701 69.3476 105.352 69.1627 105.117C68.9661 104.867 68.7551 104.891 68.6107 104.862C67.8038 104.705 66.1417 104.168 66.1957 103.96C66.2597 103.713 66.2977 102.649 66.6108 102.534C66.8335 102.453 67.5856 102.894 67.8321 103.032C68.7235 103.531 69.8626 104.136 69.9749 103.887C70.1354 103.532 71.113 101.58 71.2285 101.638C71.5115 101.778 71.796 101.928 72.0894 102.093C72.3975 102.267 73.665 103.017 73.5957 103.189C73.772 103.26 73.8899 103.292 73.8483 103.395C73.935 103.43 73.935 103.43 74.0216 103.465C74.0095 103.495 74.0095 103.495 73.9975 103.525C74.4907 103.831 75.0158 104.467 75.0365 104.778C75.0943 104.802 75.0943 104.802 75.152 104.825C74.7527 105.812 75.3106 109.146 73.3295 109.329C72.3199 109.423 71.5395 108.869 70.5127 108.815C71.0833 109.168 72.2605 110.709 72.3381 111.115C72.3958 111.139 72.3958 111.139 72.4536 111.162C72.4355 111.207 72.4355 111.207 72.4174 111.251C72.4752 111.275 72.4752 111.275 72.5329 111.298C72.5148 111.343 72.5148 111.343 72.4967 111.388C72.5545 111.411 72.5545 111.411 72.6123 111.434C72.5754 111.525 72.5263 111.573 72.7252 111.654C72.5939 111.978 73.1527 112.504 73.0443 112.859C72.8643 113.448 71.9825 113.489 71.8321 113.861C66.5617 112.715 67.4583 111.105 66.2025 108.667C65.9411 108.16 65.4608 106.666 64.541 106.294C63.3013 105.793 63.3935 109.609 62.546 109.895C60.6074 110.551 55.1068 106.862 54.4334 106.292C54.3598 106.23 54.8163 105.543 55.3753 105.304C55.4486 105.272 57.2476 106.356 57.3879 106.193C57.7777 105.741 58.1131 104.665 58.1963 104.255C58.2112 104.182 58.0279 104.141 58.0258 104.139L58.1178 104.064C58.1178 104.064 57.6175 103.846 57.4102 103.844C56.9682 103.838 56.3725 103.88 56.0262 104.033C55.6531 104.198 55.352 104.469 55.21 104.607C54.9553 104.855 55.932 105.604 55.8724 105.631C55.3545 105.863 54.4599 106.316 54.4123 106.274C54.3039 106.177 54.2228 106.095 54.1074 105.995C53.9887 105.999 53.8505 106.013 53.7001 106.03C53.5787 106.044 53.4493 106.06 53.3157 106.074C52.884 106.118 52.4081 106.143 52.0149 106.016C49.9521 105.354 48.1406 104.293 48.6177 103.114C48.8429 102.558 52.1878 103.002 52.1992 102.238C52.2115 101.414 50.9995 100.398 51.2628 99.5677C51.6026 98.4965 52.4194 97.5193 52.6697 96.4227C52.737 96.1279 51.4706 95.6957 52.1049 95.3264C52.5333 95.077 53.4963 95.5422 54.0742 95.776C54.8411 96.0863 54.9517 96.8566 55.4719 97.14C55.6285 97.2252 55.8857 97.318 56.2025 97.41C56.2684 97.4292 59.1407 97.9928 59.4767 98.3916C59.8317 98.813 57.6351 99.0688 57.0713 99.0093C55.453 98.8386 55.5073 99.5931 55.6931 99.6331L57.1602 99.952L58.6224 100.347L57.5347 101.507C57.5347 101.507 56.386 100.961 55.6621 100.674C54.9996 100.411 55.1597 101.403 55.7019 101.729C56.149 101.998 57.0459 102.309 57.7103 102.483C58.2355 102.62 58.817 102.722 58.817 102.722C58.817 102.722 59.0774 102.334 58.8722 102.15C58.729 102.021 57.3796 101.409 57.3796 101.409L57.7332 100.175L59.5487 100.471C59.5487 100.471 60.0291 100.047 59.0149 99.6363C57.9743 99.2153 55.5291 98.7478 55.3118 98.4662C54.9487 97.9955 57.8456 97.7841 57.8915 97.7923C59.0528 97.9989 60.1973 98.0983 60.3425 97.8957C58.6562 97.2134 56.976 96.7766 55.2322 96.071C54.3766 95.7248 52.0099 93.7846 53.2456 93.6704C53.6677 93.6314 54.5299 93.9913 55.0174 94.1096C56.8719 94.5595 58.8747 95.0005 60.7063 95.3353C61.3193 95.4474 60.7792 94.6608 61.2874 94.5637C62.4399 94.3437 64.4102 95.1834 65.6062 95.6864C65.8406 95.7849 66.0253 95.9665 66.2511 96.0862Z" fill="#040404" fill-rule="nonzero" opacity="1" stroke="none"/>
</g>
<g opacity="1">
<path d="M59.5068 77.6648L59.5068 77.6648C62.8293 75.8162 67.0213 77.0111 68.8699 80.3336L68.8699 80.3336C70.7185 83.6562 69.5236 87.8482 66.2011 89.6967L66.2011 89.6967C62.8786 91.5453 58.6866 90.3504 56.838 87.0279L56.838 87.0279C54.9894 83.7054 56.1843 79.5134 59.5068 77.6648Z" fill="#ffff6d" fill-rule="nonzero" opacity="1" stroke="#000000" stroke-linecap="butt" stroke-linejoin="round" stroke-width="0.5"/>
<path d="M62.3618 80.5042C65.5865 79.8095 70.9375 80.6915 70.5338 82.1585C70.13 83.6254 67.9272 79.9088 62.4397 81.5528C56.9522 83.1968 55.923 87.1158 55.3277 85.8798C54.7325 84.6437 59.1371 81.1989 62.3618 80.5042Z" fill="#ffff6d" fill-rule="nonzero" opacity="1" stroke="#000000" stroke-linecap="butt" stroke-linejoin="round" stroke-width="0.5"/>
<path d="M60.5501 84.3048C61.5928 83.8811 61.7006 84.1451 62.5885 85.7409L63.6019 86.8583C63.9586 87.4995 67.3677 86.7635 68.7708 86.8396C69.5276 86.8807 68.1557 88.0199 68.1557 88.0199L64.052 88.287C64.052 88.287 62.4775 88.168 61.5896 86.5721C61.5896 86.5721 59.7044 86.2537 59.7011 85.4679C59.6979 84.6822 59.5073 84.7286 60.5501 84.3048Z" fill="#000000" fill-rule="nonzero" opacity="1" stroke="#000000" stroke-linecap="butt" stroke-linejoin="round" stroke-width="0.5"/>
</g>
<path d="M13.6059 112.571C12.9633 121.275 12.8384 130.005 14.1343 133.94C15.0656 136.768 15.9192 139.773 19.8641 140.761C26.5798 142.442 33.342 142.387 33.342 142.387C33.342 142.387 36.6304 141.721 37.8356 136.746C38.7438 132.997 35.9934 132.442 36.4452 124.153C36.897 115.863 37.2004 108.99 36.4363 106.773C34.603 101.453 34.7661 101.204 30.8967 98.8269C26.1493 95.9108 21.2478 97.601 19.2741 99.4495C17.3004 101.298 14.2486 103.868 13.6059 112.571Z" fill="#ffffff" fill-opacity="0.985266" fill-rule="nonzero" filter="url(#Filter_5)" stroke="#000000" stroke-linecap="butt" stroke-linejoin="round" stroke-width="0.3"/>
<path d="M29.4935 133.838C31.406 135.247 32.9231 139.948 31.4787 141.562C30.5976 142.548 26.6142 142.348 23.2943 141.725C21.1716 141.327 20.6805 141.171 19.9346 140.622C18.0222 139.213 20.139 136.27 21.5834 134.655C23.0278 133.04 27.5811 132.43 29.4935 133.838Z" fill="#f783a5" fill-rule="nonzero" opacity="1" stroke="#000000" stroke-linecap="butt" stroke-linejoin="round" stroke-width="0.3"/>
<path d="M15.973 137.986C18.21 140.79 20.137 142.135 21.1168 141.639C22.2173 141.082 23.2435 135.172 23.6336 135.184C24.0236 135.197 21.9135 140.33 22.7271 142.112C23.1375 143.011 25.9311 143.156 26.4764 142.486C27.9101 140.726 28.4873 135.668 29.1578 135.698C29.8282 135.729 27.3313 142.334 28.2704 142.66C29.4328 143.063 34.7299 142.502 34.7299 142.502C34.7299 142.502 39.2687 138.567 37.4355 133.248C35.6023 127.928 33.9946 126.083 28.4756 125.32C22.9566 124.558 19.1885 124.503 17.2148 126.352C15.2412 128.2 13.8427 135.316 15.973 137.986Z" fill="#ffffff" fill-opacity="0.985266" fill-rule="nonzero" filter="url(#Filter_6)" stroke="#000000" stroke-linecap="butt" stroke-linejoin="round" stroke-width="0.3"/>
<path d="M109.126 116.455C109.421 125.177 109.197 133.906 107.745 137.786C106.701 140.574 105.728 143.542 101.747 144.372C94.9696 145.784 88.215 145.458 88.215 145.458C88.215 145.458 84.9558 144.661 83.9503 139.643C83.1926 135.86 85.9629 135.416 85.8425 127.115C85.7221 118.814 85.6935 111.934 86.5456 109.749C88.5898 104.507 88.4368 104.251 92.398 102.031C97.2581 99.3069 102.088 101.192 103.987 103.117C105.885 105.043 108.832 107.733 109.126 116.455Z" fill="#ffffff" fill-opacity="0.985266" fill-rule="nonzero" filter="url(#Filter_7)" stroke="#000000" stroke-linecap="butt" stroke-linejoin="round" stroke-width="0.3"/>
<path d="M92.4018 137.071C90.4347 138.401 88.731 143.038 90.1098 144.709C90.9508 145.729 94.939 145.689 98.2812 145.199C100.418 144.885 100.915 144.749 101.682 144.23C103.649 142.899 101.652 139.874 100.273 138.203C98.8943 136.531 94.369 135.74 92.4018 137.071Z" fill="#f783a5" fill-rule="nonzero" opacity="1" stroke="#000000" stroke-linecap="butt" stroke-linejoin="round" stroke-width="0.3"/>
<path d="M105.746 141.755C103.399 144.467 101.42 145.734 100.46 145.199C99.383 144.599 98.5936 138.653 98.2034 138.649C97.8131 138.646 99.7165 143.86 98.8324 145.608C98.3865 146.49 95.5893 146.523 95.0712 145.832C93.7089 144.016 93.3341 138.939 92.663 138.942C91.9919 138.946 94.223 145.646 93.2716 145.934C92.0941 146.291 86.8236 145.518 86.8236 145.518C86.8236 145.518 82.4456 141.405 84.4898 136.163C86.534 130.921 88.2141 129.142 93.7591 128.6C99.3042 128.058 103.071 128.154 104.97 130.08C106.868 132.006 107.981 139.172 105.746 141.755Z" fill="#ffffff" fill-opacity="0.985266" fill-rule="nonzero" filter="url(#Filter_8)" stroke="#000000" stroke-linecap="butt" stroke-linejoin="round" stroke-width="0.3"/>
<path d="M30.1845 60.1436C33.2348 64.305 38.3608 66.1741 44.7407 70.4009C53.9193 76.4819 56.3065 75.816 64.0973 76.5467C72.128 77.3 79.5406 70.8421 79.5406 70.8421C79.5406 70.8421 93.3587 65.6287 97.0582 58.5037C100.527 51.8223 100.753 41.64 98.6033 32.3489C99.3989 26.4362 100.876 17.38 101.068 14.9514C101.369 11.1441 101.733 7.08822 98.926 3.47503C95.5334-0.891443 78.5556 14.1629 78.5556 14.1629C78.5556 14.1629 69.9255 11.6488 64.3836 11.3389C58.8417 11.0291 49.9045 14.9402 49.9045 14.9402C49.9045 14.9402 35.0593 3.89301 31.5053 3.73732C27.9513 3.58163 26.6626 10.6996 26.724 14.1437C26.8091 18.9197 28.7409 29.9193 27.2679 33.5492C23.9399 41.7505 24.273 52.0788 30.1845 60.1436Z" fill="#ffffff" fill-opacity="0.985266" fill-rule="nonzero" opacity="1" stroke="#000000" stroke-linecap="butt" stroke-linejoin="round" stroke-width="0.3"/>
<path d="M31.7929 8.68839C28.7709 10.5739 32.0699 26.2027 32.2497 26.1591C32.7558 26.0365 35.7805 24.7637 39.4069 23.1964C43.4042 21.4688 44.409 18.8756 44.3374 18.6171C43.323 14.9522 34.8148 6.8029 31.7929 8.68839Z" fill="#ffcff6" fill-rule="nonzero" opacity="1" stroke="#ffcff6" stroke-linecap="butt" stroke-linejoin="round" stroke-width="0.3"/>
<path d="M83.257 16.3299C83.199 16.2259 94.2305 6.69663 96.8169 7.72916C100.662 9.26403 95.2887 23.4752 95.2887 23.4752C95.2887 23.4752 91.1049 24.1071 88.291 22.7213C85.8134 21.5011 83.2913 16.3915 83.257 16.3299Z" fill="#ffcff6" fill-rule="nonzero" opacity="1" stroke="#ffcff6" stroke-linecap="butt" stroke-linejoin="round" stroke-width="0.3"/>
<path d="M68.4031 58.4605C68.4031 58.4605 65.8725 62.9301 63.1653 62.816C60.4582 62.7019 57.9096 58.2332 57.9096 58.2332" fill="#ffdbe5" fill-rule="nonzero" opacity="1" stroke="#000000" stroke-linecap="butt" stroke-linejoin="round" stroke-opacity="0" stroke-width="1"/>
<path d="M70.5628 62.8819C70.5628 62.8819 67.1527 66.2658 65.1612 64.7751C63.1697 63.2845 63.001 63.3412 63.001 63.3412C63.001 63.3412 63.1155 63.2937 61.0379 64.6277C58.9604 65.9616 55.7536 62.6658 55.7536 62.6658" fill="#f783a5" fill-opacity="0" fill-rule="nonzero" opacity="1" stroke="#fcc29c" stroke-linecap="butt" stroke-linejoin="round" stroke-width="0.5"/>
<g opacity="1">
<path d="M38.2919 51.2286C38.2919 51.2286 39.7772 50.6201 43.8753 51.34C47.9734 52.06 50.7492 54.4437 50.7492 54.4437" fill="#fcfcfd" fill-rule="nonzero" opacity="1" stroke="#000000" stroke-linecap="butt" stroke-linejoin="round" stroke-width="0.5"/>
<path d="M29.7249 59.1291C29.7249 59.1291 36.2288 56.9479 41.1336 56.4594C46.0385 55.9709 49.3443 57.1752 49.3443 57.1752" fill="#fcfcfd" fill-rule="nonzero" opacity="1" stroke="#000000" stroke-linecap="butt" stroke-linejoin="round" stroke-width="0.5"/>
<path d="M32.5887 75.5364C32.5887 75.5364 35.3687 70.0384 39.6453 66.4329C43.9219 62.8274 49.1582 60.3449 49.1582 60.3449" fill="#fcfcfd" fill-opacity="0" fill-rule="nonzero" opacity="1" stroke="#000000" stroke-linecap="butt" stroke-linejoin="round" stroke-width="0.5"/>
</g>
<g opacity="1">
<path d="M87.5507 52.4942C87.5507 52.4942 85.9956 51.8222 81.6058 52.3754C77.2159 52.9287 74.1641 55.2062 74.1641 55.2062" fill="#fcfcfd" fill-rule="nonzero" opacity="1" stroke="#000000" stroke-linecap="butt" stroke-linejoin="round" stroke-width="0.5"/>
<path d="M96.3389 60.7762C96.3389 60.7762 89.5093 58.3187 84.3111 57.626C79.1129 56.9332 75.5459 58.0052 75.5459 58.0052" fill="#fcfcfd" fill-rule="nonzero" opacity="1" stroke="#000000" stroke-linecap="butt" stroke-linejoin="round" stroke-width="0.5"/>
<path d="M92.6137 77.1228C92.6137 77.1228 89.8833 71.4907 85.4823 67.6959C81.0813 63.9012 75.6129 61.1937 75.6129 61.1937" fill="#fcfcfd" fill-opacity="0" fill-rule="nonzero" opacity="1" stroke="#000000" stroke-linecap="butt" stroke-linejoin="round" stroke-width="0.5"/>
</g>
<g opacity="1">
<path d="M42.0758 45.8716C42.0758 45.8716 43.5259 47.48 45.0717 48.936C46.7794 50.5444 49.3377 50.6345 51.5034 49.4442C53.6691 48.2539 53.6661 46.2251 53.6956 44.7514C53.7252 43.2778 52.182 41.6797 50.8992 41.1022C49.5854 40.5109 45.8167 40.1848 44.4351 40.9069C42.0602 42.1482 41.9376 45.1158 42.0192 45.8874" fill="#cabcb2" fill-rule="nonzero" opacity="1" stroke="#000000" stroke-linecap="butt" stroke-linejoin="round" stroke-opacity="0" stroke-width="0.5"/>
<path d="M44.44 45.8547C44.4898 43.3868 46.5318 41.4266 49.001 41.4764C51.4702 41.5263 53.4315 43.5673 53.3817 46.0351C53.3319 48.503 51.2898 50.4632 48.8206 50.4134C46.3514 50.3636 44.3902 48.3226 44.44 45.8547Z" fill="#000000" fill-rule="nonzero" opacity="1" stroke="#000000" stroke-linecap="butt" stroke-linejoin="round" stroke-opacity="0" stroke-width="0.5"/>
<path d="M48.6756 44.474C48.6913 43.6954 49.4304 43.3936 50.2094 43.4093C50.9883 43.425 51.5121 43.7523 51.4964 44.5308C51.4806 45.3094 51.0525 45.6546 50.2735 45.6389C49.4946 45.6232 48.6598 45.2526 48.6756 44.474Z" fill="#ffffff" fill-rule="nonzero" opacity="0.653101" stroke="#000000" stroke-linecap="butt" stroke-linejoin="round" stroke-opacity="0" stroke-width="0.5"/>
</g>
<g opacity="1">
<path d="M75.8065 32.6505C75.8065 32.6505 75.4472 32.8949 75.0081 33.8684C74.5689 34.8419 74.7077 35.7379 74.7077 35.7379" fill="#fcfcfd" fill-rule="nonzero" opacity="1" stroke="#b2aaaf" stroke-linecap="butt" stroke-linejoin="round" stroke-width="0.5"/>
<path d="M78.8887 31.7886C78.8887 31.7886 77.4269 32.919 76.5907 33.9158C75.7544 34.9125 75.5436 35.7757 75.5436 35.7757" fill="#fcfcfd" fill-rule="nonzero" opacity="1" stroke="#b2aaaf" stroke-linecap="butt" stroke-linejoin="round" stroke-width="0.5"/>
<path d="M82.2413 34.4529C82.2413 34.4529 80.566 34.3665 79.1052 34.839C77.6444 35.3114 76.3004 36.1309 76.3004 36.1309" fill="#fcfcfd" fill-opacity="0" fill-rule="nonzero" opacity="1" stroke="#b2aaaf" stroke-linecap="butt" stroke-linejoin="round" stroke-width="0.5"/>
</g>
<g opacity="1">
<path d="M51.7553 31.3003C51.7553 31.3003 52.1044 31.5589 52.5041 32.5493C52.9039 33.5397 52.7292 34.4294 52.7292 34.4294" fill="#fcfcfd" fill-rule="nonzero" opacity="1" stroke="#b2aaaf" stroke-linecap="butt" stroke-linejoin="round" stroke-width="0.5"/>
<path d="M48.7101 30.3154C48.7101 30.3154 50.1253 31.5036 50.9209 32.5331C51.7165 33.5627 51.8925 34.4335 51.8925 34.4335" fill="#fcfcfd" fill-rule="nonzero" opacity="1" stroke="#b2aaaf" stroke-linecap="butt" stroke-linejoin="round" stroke-width="0.5"/>
<path d="M45.2533 32.8429C45.2533 32.8429 46.9307 32.8239 48.3714 33.3546C49.812 33.8854 51.122 34.7581 51.122 34.7581" fill="#fcfcfd" fill-opacity="0" fill-rule="nonzero" opacity="1" stroke="#b2aaaf" stroke-linecap="butt" stroke-linejoin="round" stroke-width="0.5"/>
</g>
<g opacity="1">
<path d="M84.4797 46.5879C84.4797 46.5879 82.9662 48.1368 81.3632 49.5296C79.5923 51.0682 77.0325 51.0554 74.9163 49.7792C72.8001 48.5029 72.8845 46.4758 72.9142 45.0022C72.9438 43.5285 74.55 41.9936 75.8549 41.4682C77.1913 40.93 80.9701 40.7555 82.3216 41.5325C84.6448 42.8682 84.6481 45.8383 84.5356 46.606" fill="#cabcb2" fill-rule="nonzero" opacity="1" stroke="#000000" stroke-linecap="butt" stroke-linejoin="round" stroke-opacity="0" stroke-width="0.5"/>
<path d="M82.1181 46.4761C82.1674 44.0082 80.2057 41.9676 77.7365 41.9183C75.2673 41.8689 73.2257 43.8296 73.1764 46.2975C73.1271 48.7654 75.0888 50.806 77.558 50.8553C80.0272 50.9046 82.0688 48.944 82.1181 46.4761Z" fill="#000000" fill-rule="nonzero" opacity="1" stroke="#000000" stroke-linecap="butt" stroke-linejoin="round" stroke-opacity="0" stroke-width="0.5"/>
<path d="M77.9413 44.9265C77.9569 44.1479 77.2305 43.8167 76.4516 43.8011C75.6726 43.7855 75.1361 44.0915 75.1206 44.8701C75.105 45.6486 75.519 46.0107 76.2979 46.0263C77.0768 46.0419 77.9258 45.7051 77.9413 44.9265Z" fill="#ffffff" fill-rule="nonzero" opacity="0.653101" stroke="#000000" stroke-linecap="butt" stroke-linejoin="round" stroke-opacity="0" stroke-width="0.5"/>
</g>
<path d="M97.0125 90.6074C98.6786 78.7463 97.1885 73.6327 90.499 70.2016C85.2557 67.5123 79.3424 75.0439 79.284 78.7128C79.2257 82.3817 81.524 90.2964 81.524 90.2964L83.1247 100.878C83.1247 100.878 78.7458 106.969 78.3457 109.024C77.6105 112.801 79.1399 117.334 83.1465 116.208C88.8443 114.608 96.4348 94.7197 97.0125 90.6074Z" fill="#ffffff" fill-opacity="0.985266" fill-rule="nonzero" filter="url(#Filter_9)" stroke="#000000" stroke-linecap="butt" stroke-linejoin="round" stroke-width="0.3"/>
</g>
</g>
</svg>
