<?xml version="1.0" encoding="utf-8"?>
<svg viewBox="198.425 0 425.197 595.296" xmlns="http://www.w3.org/2000/svg" xmlns:xlink="http://www.w3.org/1999/xlink">
  <g id="am1">
    <path id="am2" style="fill:#c6e4f4;fill-opacity:1;fill-rule:nonzero;opacity:1;stroke:#c6e4f4;stroke-linecap:butt;stroke-linejoin:round;stroke-miterlimit:10;stroke-opacity:1;stroke-width:0;" d="M250.984,529.888 C250.984,529.888,212.588,580.79,212.588,580.79 C212.588,580.79,614.036,581.052,614.036,581.052 C614.036,581.052,584.373,529.947,584.373,529.947 C584.373,529.947,250.984,529.888,250.984,529.888 z"/>
  </g>
  <g id="am3">
    <g id="am4">
      <path id="am5" style="fill:#3408df;fill-opacity:1;fill-rule:nonzero;opacity:1;stroke:#3a5beb;stroke-linecap:butt;stroke-linejoin:round;stroke-miterlimit:10;stroke-opacity:1;stroke-width:0;" d="M393.103,466.045 C392.618,464.113,392.402,462.123,392.463,460.131 C392.463,460.131,394.107,431.442,394.107,431.442 C394.293,428.205,393.891,424.962,392.92,421.869 C389.335,410.44,380.385,381.004,379.697,369.804 C378.835,355.771,379.919,346.499,379.919,346.499 C379.919,346.499,388.626,296.824,400.207,299.141 C426.658,304.431,420.045,337.495,419.1,353.365 C418.065,370.759,416.455,371.125,416.455,371.125 C416.455,371.125,415.051,423.874,415.051,423.874 C415.051,423.874,415.383,450.374,417.731,463.824 C420.08,477.274,416.558,479.306,418.082,493.706 C419.607,508.105,416.741,533.443,416.741,533.443 C416.741,533.443,409.127,535.066,409.127,535.066 C409.127,535.066,393.103,466.045,393.103,466.045 z"/>
      <path id="am6" style="fill:#3408df;fill-opacity:1;fill-rule:nonzero;opacity:1;stroke:#3a5beb;stroke-linecap:butt;stroke-linejoin:round;stroke-miterlimit:10;stroke-opacity:1;stroke-width:0;" d="M443.842,465.777 C443.842,465.777,441.4,429.599,441.4,429.599 C441.4,429.599,455.615,379.334,456.477,365.301 C457.339,351.268,455.887,334.267,455.887,334.267 C455.887,334.267,449.902,301.389,438.271,303.44 C412.298,308.021,419.361,324.032,418.155,340.895 C417.054,356.314,419.619,367.457,419.825,369.181 C419.846,369.349,419.857,369.518,419.858,369.687 C419.858,369.687,420.315,424.938,420.315,424.938 C420.315,424.938,422.441,449.441,420.093,462.891 C417.744,476.341,423.392,481.785,421.868,496.184 C420.866,505.649,420.989,533.023,420.989,533.023 C420.989,533.023,424.001,531.568,427.514,531.31 C427.514,531.31,432.456,531.573,432.456,531.573 C432.456,531.573,443.842,465.777,443.842,465.777 z"/>
      <path id="am7" style="fill:#f6e9e2;fill-opacity:1;fill-rule:nonzero;opacity:1;stroke:#3a5beb;stroke-linecap:butt;stroke-linejoin:round;stroke-miterlimit:10;stroke-opacity:1;stroke-width:1;" d="M379.946,197.509 C379.946,197.509,378.386,176.567,378.454,169.872 C378.691,146.675,378.394,136.117,378.892,128.536 C379.734,115.711,379.889,75.5934,381.472,70.0963 C383.379,63.4722,385.325,51.2434,386.213,45.2903 C386.318,44.5871,387.323,44.5526,387.475,45.2471 C388.499,49.9227,389.424,55.1103,389.412,58.4721 C389.41,59.0956,389.396,67.5831,389.572,68.1453 C389.572,68.1452,389.741,72.6684,389.741,72.6684 C389.689,72.7952,390.985,67.5088,392.404,67.8494 C393.461,68.103,393.419,73.683,392.785,76.8534 C392.278,79.3842,388.86,82.8579,388.839,82.9484 C388.534,84.2505,388.096,84.3546,388.43,86.6321 C389.981,97.2105,392.684,149.225,392.684,149.225 C392.684,149.225,393.025,201.574,393.025,201.574 C393.025,201.574,382.724,218.957,382.724,218.957 C382.724,218.957,379.946,197.509,379.946,197.509 z"/>
      <path id="am8" style="fill:#f6e9e2;fill-opacity:1;fill-rule:nonzero;opacity:1;stroke:#3a5beb;stroke-linecap:butt;stroke-linejoin:round;stroke-miterlimit:10;stroke-opacity:1;stroke-width:1;" d="M460.199,191.487 C460.199,191.487,460.301,172.567,460.233,165.872 C459.996,142.675,460.293,132.117,459.795,124.536 C458.953,111.711,458.798,71.5934,457.215,66.0963 C455.308,59.4722,453.362,47.2434,452.474,41.2903 C452.369,40.5871,451.364,40.5526,451.212,41.2471 C450.188,45.9227,449.263,51.1103,449.275,54.4721 C449.277,55.0956,449.291,63.5831,449.115,64.1453 C449.115,64.1452,448.946,68.6684,448.946,68.6684 C448.998,68.7952,447.702,63.5088,446.283,63.8494 C445.226,64.103,445.268,69.683,445.903,72.8534 C446.409,75.3842,449.827,78.8579,449.848,78.9484 C450.153,80.2505,450.591,80.3546,450.257,82.6321 C448.706,93.2105,446.003,145.225,446.003,145.225 C446.003,145.225,443.459,200.071,443.459,200.071 C443.459,200.071,459.341,211.446,459.341,211.446 C459.341,211.446,460.199,191.487,460.199,191.487 z"/>
      <path id="am9" style="fill:#00b3ff;fill-opacity:1;fill-rule:nonzero;opacity:1;stroke:#3a5beb;stroke-linecap:butt;stroke-linejoin:round;stroke-miterlimit:10;stroke-opacity:1;stroke-width:1;" d="M422.845,337.535 C436.29,337.115,451.386,329.872,451.866,325.077 C452.175,321.983,453.033,304.46,451.674,297.696 C450.048,289.601,446.616,283.584,448.036,265.146 C448.28,261.986,450.433,253.714,450.606,250.882 C450.911,245.863,452.877,238.843,453.214,234.825 C453.559,230.721,423.387,230.493,419.18,230.481 C418.846,230.48,418.513,230.519,418.188,230.595 C414.797,231.381,395.5,236.262,393.477,245.878 C392.828,248.967,395.111,268.32,394.838,275.474 C394.394,287.127,388.68,299.994,388.68,299.994 C388.68,299.994,383.589,322.019,385.808,322.779 C393.952,325.568,411.195,337.9,422.845,337.535 z"/>
      <path id="am10" style="fill:#f6e9e2;fill-opacity:1;fill-rule:nonzero;opacity:1;stroke:#3a5beb;stroke-linecap:butt;stroke-linejoin:round;stroke-miterlimit:10;stroke-opacity:1;stroke-width:1;" d="M420.994,533.511 C420.994,533.511,419.279,551.704,419.47,560.82 C419.579,566.004,437.813,561.643,440.45,560.234 C449.097,555.612,435.591,554.932,435.293,543.005 C435.218,540.027,432.246,531.988,432.246,531.988 C432.246,531.988,429.985,530.85,426.92,531.441 C423.857,532.033,420.994,533.511,420.994,533.511 z"/>
      <path id="am11" style="fill:#f6e9e2;fill-opacity:1;fill-rule:nonzero;opacity:1;stroke:#3a5beb;stroke-linecap:butt;stroke-linejoin:round;stroke-miterlimit:10;stroke-opacity:1;stroke-width:1;" d="M408.922,535.035 C408.922,535.035,403.212,544.78,399.897,551.678 C399.072,553.395,391.545,555.081,395.795,560.82 C398.566,564.561,409.679,569.491,412.438,565.742 C412.438,565.742,416.306,559.179,416.306,559.179 C416.306,559.179,416.657,533.16,416.657,533.16 C416.657,533.16,408.922,535.035,408.922,535.035 z"/>
      <g id="am12">
        <path id="am13" style="fill:#f6e9e2;fill-opacity:1;fill-rule:nonzero;opacity:1;stroke:#3a5beb;stroke-linecap:butt;stroke-linejoin:round;stroke-miterlimit:10;stroke-opacity:1;stroke-width:1;" d="M390.383,217.905 C392.813,207.618,407.184,211.818,411.482,206.24 C414.453,202.383,413.182,199.756,413.182,199.756 C413.182,199.756,427.343,199.895,427.343,199.895 C427.343,199.895,426.423,201.678,429.444,206.086 C431.068,208.456,440.125,209.207,443.926,210.453 C445.364,210.924,443.359,240.019,443.359,240.019 C443.359,240.019,418.305,245.309,403.1,239.938 C392.161,236.074,389.366,222.21,390.383,217.905 z"/>
        <path id="am14" style="fill:#00b3ff;fill-opacity:1;fill-rule:nonzero;opacity:1;stroke:#3a5beb;stroke-linecap:butt;stroke-linejoin:round;stroke-miterlimit:10;stroke-opacity:1;stroke-width:1;" d="M393.847,250.606 C393.847,250.606,391.062,241.494,391.062,241.494 C391.062,241.494,381.651,216.305,381.651,216.305 C381.651,216.305,392.681,199.091,392.681,199.091 C392.681,199.091,393.182,198.367,397.288,202.747 C401.705,207.458,403.256,209.91,403.256,209.91 C403.256,209.91,412.504,218.477,421.48,218.791 C430.456,219.105,437.765,208.342,437.765,208.342 C437.765,208.342,443.245,199.428,443.245,199.428 C443.245,199.428,459.341,210.373,459.341,210.373 C459.341,210.373,455.559,228.537,454.303,232.323 C452.636,237.352,451.268,242.573,451.268,242.573"/>
        <path id="am15" style="fill:#3156f4;fill-opacity:1;fill-rule:nonzero;opacity:1;stroke:#3a5beb;stroke-linecap:butt;stroke-linejoin:round;stroke-miterlimit:10;stroke-opacity:1;stroke-width:1;" d="M427.992,201.435 C427.992,201.435,427.839,210.221,435.607,209.764 C442.041,209.385,428.32,218.893,425.272,224.975 C422.223,231.057,423.649,233.007,423.649,233.007 C423.649,233.007,427.986,233.28,434.097,229.158 C440.307,224.97,442.796,221.639,439.982,208.452 C438.988,203.791,427.992,201.435,427.992,201.435 z"/>
        <path id="am16" style="fill:#fbebdf;fill-opacity:1;fill-rule:nonzero;opacity:1;stroke:#3a5beb;stroke-linecap:butt;stroke-linejoin:round;stroke-miterlimit:10;stroke-opacity:1;stroke-width:0.2;" d="M404.254,152.65 C404.254,152.65,397.8,156.853,396.248,160.997 C393.987,167.034,393.319,180.215,395.906,186.108 C398.823,192.75,409.504,200.651,417.265,202.159 C419.24,202.543,422.56,202.548,423.942,202.037 C434.45,198.15,444.734,193.658,444.896,178.376 C445.118,157.479,437.027,152.855,437.027,152.855 C437.027,152.855,404.254,152.65,404.254,152.65 z"/>
        <path id="am17" style="fill:#3156f4;fill-opacity:1;fill-rule:nonzero;opacity:1;stroke:#3a5beb;stroke-linecap:butt;stroke-linejoin:round;stroke-miterlimit:10;stroke-opacity:1;stroke-width:1;" d="M419.285,133.975 C399.142,134.062,392.732,156.159,392.732,156.159 C392.732,156.159,390.549,180.034,394.011,187.547 C396.629,193.227,412.635,204.253,412.635,204.253 C412.286,203.605,413.219,203.203,413.249,202.798 C413.249,202.798,413.124,201.369,413.124,201.369 C413.144,201.101,411.697,200.469,411.446,200.374 C408.922,199.413,400.496,193.773,397.947,185.677 C395.664,178.424,396.865,171.804,396.865,171.804 C396.865,171.804,402.201,158.329,402.201,158.329 C402.367,157.649,408.427,174.339,408.427,174.339 C408.444,174.659,414.106,174.271,414.106,174.271 C414.468,174.276,413.032,160.134,413.217,160.86 C413.217,160.86,421,175.041,421.29,175.023 C421.29,175.023,427.996,174.818,427.996,174.818 C428.342,174.798,427.243,161.75,427.243,161.75 C427.166,161.03,433.162,173.669,433.469,173.587 C433.469,173.587,442.843,171.055,442.843,171.055 C442.843,171.055,443.837,175.017,443.837,175.017 C444.061,175.659,443.351,181.735,442.843,183.918 C441.475,189.802,432.46,199.233,427.027,201.406 C427.027,201.406,428.581,205.716,429.239,205.557 C429.239,205.557,437.019,196.623,437.019,196.623 C437.122,196.493,442.999,190.366,443.875,187.602 C446.665,178.795,446.498,165.705,446.665,157.431 C446.839,148.799,436.24,133.901,419.285,133.975 z"/>
        <path id="am18" style="fill:#3408df;fill-opacity:1;fill-rule:nonzero;opacity:1;stroke:#3408df;stroke-linecap:butt;stroke-linejoin:round;stroke-miterlimit:10;stroke-opacity:1;stroke-width:1;" d="M427.923,180.565 C427.923,180.565,429.119,180.777,431.239,181.038 C433.017,181.257,434.579,180.915,434.579,180.915 C434.579,180.915,434.475,181.685,431.676,181.685 C428.458,181.685,427.923,180.565,427.923,180.565 z"/>
        <path id="am19" style="fill:#3408df;fill-opacity:1;fill-rule:nonzero;opacity:1;stroke:#3408df;stroke-linecap:butt;stroke-linejoin:round;stroke-miterlimit:10;stroke-opacity:1;stroke-width:1;" d="M412.245,180.565 C412.245,180.565,411.048,180.777,408.928,181.038 C407.15,181.257,405.588,180.915,405.588,180.915 C405.588,180.915,405.692,181.685,408.491,181.685 C411.709,181.685,412.245,180.565,412.245,180.565 z"/>
        <path id="am20" style="fill:#f2beef;fill-opacity:1;fill-rule:nonzero;opacity:1;stroke:#f2beef;stroke-linecap:butt;stroke-linejoin:round;stroke-miterlimit:10;stroke-opacity:1;stroke-width:0.5;" d="M416.115,194.485 C416.357,194.259,418.354,194.958,420.455,194.997 C422.849,195.042,424.574,194.376,424.792,194.587 C425.199,194.982,422.821,196.537,420.451,196.493 C418.081,196.447,415.599,194.97,416.115,194.485 z"/>
      </g>
    </g>
  </g>
  <g id="am21">
    <g id="am23">
      <path style="fill:#a9a9a9;fill-opacity:1;fill-rule:nonzero;opacity:1;stroke:none;" d="M492.609,228.558 C492.609,228.558,490.995,50.5515,490.995,50.5515"/>
      <path style="fill:#000000;fill-opacity:1;fill-rule:nonzero;opacity:1;stroke:none;" d="M494.109,228.544 C494.096,227.2,494.096,227.2,494.042,221.153 C493.969,213.091,493.969,213.091,493.865,201.669 C493.621,174.795,493.621,174.795,493.329,142.545 C493.037,110.295,493.037,110.295,492.793,83.4207 C492.69,71.999,492.69,71.999,492.617,63.9366 C492.562,57.8898,492.562,57.8898,492.55,56.5461 C492.542,55.7177,491.865,55.0522,491.036,55.0597 C490.208,55.0672,489.542,55.7449,489.55,56.5733 C489.562,57.917,489.562,57.917,489.617,63.9638 C489.69,72.0262,489.69,72.0262,489.793,83.4479 C490.037,110.323,490.037,110.323,490.329,142.572 C490.622,174.822,490.622,174.822,490.865,201.696 C490.969,213.118,490.969,213.118,491.042,221.181 C491.097,227.227,491.097,227.227,491.109,228.571 C491.116,229.4,491.794,230.065,492.622,230.057 C493.451,230.05,494.116,229.372,494.109,228.544 z M490.995,50.5599 C490.995,50.5599,483.613,63.6177,483.613,63.6177 C483.613,63.6177,486.225,65.0941,486.225,65.0941 C486.225,65.0941,491.05,56.5597,491.05,56.5597 C491.05,56.5597,496.028,65.0053,496.028,65.0053 C496.028,65.0053,498.613,63.4818,498.613,63.4818 C498.613,63.4818,490.995,50.5599,490.995,50.5599 z"/>
    </g>
  </g>
</svg>
