<?xml version="1.0" encoding="utf-8"?>
<svg viewBox="127.559 90.7087 566.929 481.89" xmlns="http://www.w3.org/2000/svg" xmlns:xlink="http://www.w3.org/1999/xlink">
  <g id="am1">
    <path id="am2" style="fill:#c6e4f4;fill-opacity:1;fill-rule:nonzero;opacity:1;stroke:#c6e4f4;stroke-linecap:butt;stroke-linejoin:round;stroke-miterlimit:10;stroke-opacity:1;stroke-width:0;" d="M181.095,491.272 C181.095,491.272,139.084,548.328,139.084,548.328 C139.084,548.328,681.201,546.151,681.201,546.151 C681.201,546.151,657.796,490.633,657.796,490.633 C657.796,490.633,181.095,491.272,181.095,491.272 z"/>
  </g>
  <g id="am3">
    <path id="am4" style="fill:#3408df;fill-opacity:1;fill-rule:nonzero;opacity:1;stroke:#3a5beb;stroke-linecap:butt;stroke-linejoin:round;stroke-miterlimit:10;stroke-opacity:1;stroke-width:0;" d="M306.354,467.593 C313.786,460.804,341.191,432.756,341.191,432.756 C341.191,432.756,388.718,398.817,396.859,391.095 C407.06,381.419,429.813,356.23,429.813,356.23 C429.813,356.23,431.76,333.998,422.858,326.236 C388.352,296.15,381.454,333.399,374.786,347.884 C367.5,363.713,361.882,367.801,361.882,367.801 C361.882,367.801,313.896,415.876,313.896,415.876 C313.896,415.876,288.198,449.482,277.263,458.974 C266.327,468.465,250.972,486.317,250.972,486.317 C250.972,486.317,258.33,499.01,258.33,499.01 C258.33,499.01,294.268,478.634,306.354,467.593 z"/>
    <path id="am5" style="fill:#3408df;fill-opacity:1;fill-rule:nonzero;opacity:1;stroke:#3a5beb;stroke-linecap:butt;stroke-linejoin:round;stroke-miterlimit:10;stroke-opacity:1;stroke-width:0;" d="M549.121,439.5 C549.121,439.5,492.723,388.538,492.723,388.538 C492.723,388.538,460.107,334.858,460.107,334.858 C460.107,334.858,452.054,315.854,452.054,315.854 C452.054,315.854,425.9,316.342,420.175,326.672 C407.389,349.739,408.296,346.682,422.956,364.653 C432.878,376.815,443.454,381.456,451.715,392.618 C455.814,398.158,469.049,408.875,474.81,412.657 C474.81,412.657,522.96,450.372,522.96,450.372 C522.96,450.372,545.684,469.344,555.916,479.59 C562.64,486.325,577.738,501.673,577.738,501.673 C577.738,501.673,591.781,499.483,591.781,499.483 C591.781,499.483,549.121,439.5,549.121,439.5 z"/>
    <path id="am6" style="fill:#f6e9e2;fill-opacity:1;fill-rule:nonzero;opacity:1;stroke:#3a5beb;stroke-linecap:butt;stroke-linejoin:round;stroke-miterlimit:10;stroke-opacity:1;stroke-width:1;" d="M503.992,210.937 C527.189,211.174,537.747,210.877,545.328,211.374 C558.153,212.217,598.271,212.372,603.768,213.954 C610.392,215.862,622.62,217.807,628.574,218.696 C629.277,218.801,629.311,219.806,628.617,219.958 C623.941,220.982,618.754,221.907,615.392,221.895 C614.768,221.893,606.281,221.879,605.719,222.054 C605.719,222.054,601.195,222.223,601.195,222.223 C601.069,222.172,606.355,223.468,606.015,224.887 C605.761,225.943,600.181,225.901,597.011,225.267 C594.48,224.761,591.006,221.343,590.916,221.322 C589.613,221.017,589.509,220.579,587.232,220.913 C576.654,222.463,524.639,225.167,524.639,225.167 C524.639,225.167,458.389,225.814,458.389,225.814 C458.389,225.814,455.826,210.04,455.826,210.04 C455.826,210.04,497.297,210.869,503.992,210.937 z"/>
    <path id="am7" style="fill:#f6e9e2;fill-opacity:1;fill-rule:nonzero;opacity:1;stroke:#3a5beb;stroke-linecap:butt;stroke-linejoin:round;stroke-miterlimit:10;stroke-opacity:1;stroke-width:1;" d="M366.974,209.353 C366.974,209.353,348.054,209.251,341.359,209.319 C318.162,209.556,307.604,209.259,300.023,209.757 C287.198,210.599,247.081,210.754,241.583,212.336 C234.959,214.244,222.731,216.189,216.778,217.078 C216.074,217.183,216.04,218.188,216.734,218.34 C221.41,219.364,226.598,220.289,229.959,220.277 C230.583,220.275,239.07,220.261,239.632,220.436 C239.632,220.436,244.156,220.606,244.156,220.606 C244.282,220.554,238.996,221.85,239.337,223.269 C239.59,224.326,245.17,224.283,248.341,223.649 C250.871,223.143,254.345,219.725,254.436,219.704 C255.738,219.399,255.842,218.961,258.119,219.295 C268.698,220.845,320.712,223.549,320.712,223.549 C320.712,223.549,384.845,228.771,384.845,228.771 C384.845,228.771,386.933,210.211,386.933,210.211 C386.933,210.211,366.974,209.353,366.974,209.353 z"/>
    <path id="am8" style="fill:#00b3ff;fill-opacity:1;fill-rule:nonzero;opacity:1;stroke:#3a5beb;stroke-linecap:butt;stroke-linejoin:round;stroke-miterlimit:10;stroke-opacity:1;stroke-width:1;" d="M424.524,329.807 C437.968,329.387,457.231,328.946,457.711,324.151 C458.02,321.056,453.033,304.46,451.674,297.696 C450.048,289.601,446.616,283.584,448.036,265.146 C448.28,261.986,450.433,253.714,450.606,250.882 C450.911,245.863,452.877,238.843,453.214,234.825 C453.559,230.721,423.387,230.493,419.18,230.481 C418.846,230.48,418.513,230.519,418.188,230.595 C414.797,231.381,395.5,236.262,393.477,245.878 C392.828,248.967,395.111,268.32,394.838,275.474 C394.394,287.127,388.68,299.994,388.68,299.994 C388.68,299.994,383.67,324.831,385.888,325.591 C394.032,328.38,412.874,330.172,424.524,329.807 z"/>
    <path id="am9" style="fill:#f6e9e2;fill-opacity:1;fill-rule:nonzero;opacity:1;stroke:#3a5beb;stroke-linecap:butt;stroke-linejoin:round;stroke-miterlimit:10;stroke-opacity:1;stroke-width:1;" d="M577.351,501.416 C577.351,501.416,573.229,517.52,571.683,528.986 C570.99,534.125,588.242,531.04,590.879,529.63 C599.526,525.008,594.913,521.459,594.615,509.532 C594.541,506.554,591.034,499.279,591.034,499.279 C591.034,499.279,588.773,498.141,585.709,498.732 C582.645,499.323,577.351,501.416,577.351,501.416 z"/>
    <path id="am10" style="fill:#f6e9e2;fill-opacity:1;fill-rule:nonzero;opacity:1;stroke:#3a5beb;stroke-linecap:butt;stroke-linejoin:round;stroke-miterlimit:10;stroke-opacity:1;stroke-width:1;" d="M251.638,485.879 C251.638,485.879,231.302,498.785,231.302,498.785 C228.259,500.408,216.869,503.948,213.524,504.789 C205.178,506.888,189.083,511.579,192.258,515.866 C194.32,518.649,228.572,517.892,245.983,517.321 C250.828,517.163,257.008,512.215,255.162,507.732 C255.162,507.732,255.162,504.478,255.162,504.478 C255.162,504.478,258.869,495.521,258.869,495.521 C258.869,495.521,251.638,485.879,251.638,485.879 z"/>
    <path id="am11" style="fill:#f6e9e2;fill-opacity:1;fill-rule:nonzero;opacity:1;stroke:#3a5beb;stroke-linecap:butt;stroke-linejoin:round;stroke-miterlimit:10;stroke-opacity:1;stroke-width:0.5;" d="M390.383,217.905 C392.813,207.618,407.184,211.818,411.482,206.24 C414.453,202.383,413.182,199.756,413.182,199.756 C413.182,199.756,427.343,199.895,427.343,199.895 C427.343,199.895,426.423,201.678,429.444,206.086 C431.068,208.456,440.125,209.207,443.926,210.453 C445.364,210.924,443.359,240.019,443.359,240.019 C443.359,240.019,418.305,245.309,403.1,239.938 C392.161,236.074,389.366,222.21,390.383,217.905 z"/>
    <path id="am12" style="fill:#00b3ff;fill-opacity:1;fill-rule:nonzero;opacity:1;stroke:#3a5beb;stroke-linecap:round;stroke-linejoin:round;stroke-miterlimit:10;stroke-opacity:1;stroke-width:1;" d="M393.501,250.882 C393.501,250.882,391.062,241.494,391.062,241.494 C391.062,241.494,379.718,228.377,379.718,228.377 C379.718,228.377,379.916,209.449,379.916,209.449 C379.916,209.449,386.817,208.266,392.535,208.266 C398.993,208.266,403.256,209.91,403.256,209.91 C403.256,209.91,412.504,218.477,421.48,218.791 C430.456,219.105,435.55,210.746,435.55,210.746 C435.55,210.746,436.777,209.333,436.777,209.333 C441.479,207.052,454.442,207.065,458.784,209.449 C458.784,209.449,460.558,227.391,460.558,227.391 C460.558,227.391,453.026,236.071,452.332,240.583 C451.23,247.744,450.789,250.828,450.789,250.828"/>
    <path id="am13" style="fill:#3156f4;fill-opacity:1;fill-rule:nonzero;opacity:1;stroke:#3a5beb;stroke-linecap:butt;stroke-linejoin:round;stroke-miterlimit:10;stroke-opacity:1;stroke-width:1;" d="M426.647,201.412 C426.647,201.412,428.47,205.161,431.797,211.887 C434.459,217.27,429.637,218.075,426.589,224.157 C423.54,230.239,427.341,236.657,427.341,236.657 C427.341,236.657,428.644,234.02,432.781,227.918 C437.31,221.239,439.704,222.933,436.89,209.746 C435.896,205.085,426.647,201.412,426.647,201.412 z"/>
    <path id="am14" style="fill:#fbebdf;fill-opacity:1;fill-rule:nonzero;opacity:1;stroke:#3a5beb;stroke-linecap:butt;stroke-linejoin:round;stroke-miterlimit:10;stroke-opacity:1;stroke-width:0.2;" d="M404.254,152.65 C404.254,152.65,397.8,156.853,396.248,160.997 C393.987,167.034,393.319,180.215,395.906,186.108 C398.823,192.75,409.504,200.651,417.265,202.159 C419.24,202.543,422.56,202.548,423.942,202.037 C434.45,198.15,444.734,193.658,444.896,178.376 C445.118,157.479,437.027,152.855,437.027,152.855 C437.027,152.855,404.254,152.65,404.254,152.65 z"/>
    <path id="am15" style="fill:#3156f4;fill-opacity:1;fill-rule:nonzero;opacity:1;stroke:#3a5beb;stroke-linecap:butt;stroke-linejoin:round;stroke-miterlimit:10;stroke-opacity:1;stroke-width:1;" d="M419.285,133.975 C399.142,134.062,392.096,149.626,390.123,156.705 C388.934,160.97,385.751,171.411,394.011,187.547 C396.861,193.114,413.124,201.369,413.124,201.369 C413.144,201.101,411.697,200.469,411.446,200.374 C408.922,199.413,400.496,193.773,397.947,185.677 C395.664,178.424,396.865,171.804,396.865,171.804 C396.865,171.804,402.201,158.329,402.201,158.329 C402.367,157.649,408.427,174.339,408.427,174.339 C408.444,174.659,414.106,174.271,414.106,174.271 C414.468,174.276,413.032,160.134,413.217,160.86 C413.217,160.86,421,175.041,421.29,175.023 C421.29,175.023,427.996,174.818,427.996,174.818 C428.342,174.798,427.243,161.75,427.243,161.75 C427.166,161.03,433.162,173.669,433.469,173.587 C433.469,173.587,442.843,171.055,442.843,171.055 C442.843,171.055,443.837,175.017,443.837,175.017 C444.061,175.659,443.351,181.735,442.843,183.918 C441.475,189.802,432.369,198.558,426.893,201.195 C426.439,201.414,434.46,197.647,436.697,195.991 C438.92,194.346,442.5,190.154,443.875,187.602 C451.652,173.156,450.573,164.697,449.265,156.907 C447.595,146.964,436.24,133.901,419.285,133.975 z"/>
    <path id="am16" style="fill:#3408df;fill-opacity:1;fill-rule:nonzero;opacity:1;stroke:#3408df;stroke-linecap:butt;stroke-linejoin:round;stroke-miterlimit:10;stroke-opacity:1;stroke-width:1;" d="M427.923,180.565 C427.923,180.565,429.119,180.777,431.239,181.038 C433.017,181.257,434.579,180.915,434.579,180.915 C434.579,180.915,434.475,181.685,431.676,181.685 C428.458,181.685,427.923,180.565,427.923,180.565 z"/>
    <path id="am17" style="fill:#3408df;fill-opacity:1;fill-rule:nonzero;opacity:1;stroke:#3408df;stroke-linecap:butt;stroke-linejoin:round;stroke-miterlimit:10;stroke-opacity:1;stroke-width:1;" d="M412.245,180.565 C412.245,180.565,411.048,180.777,408.928,181.038 C407.15,181.257,405.588,180.915,405.588,180.915 C405.588,180.915,405.692,181.685,408.491,181.685 C411.709,181.685,412.245,180.565,412.245,180.565 z"/>
    <path id="am18" style="fill:#f2beef;fill-opacity:1;fill-rule:nonzero;opacity:1;stroke:#f2beef;stroke-linecap:butt;stroke-linejoin:round;stroke-miterlimit:10;stroke-opacity:1;stroke-width:0.5;" d="M416.115,194.485 C416.357,194.259,418.354,194.958,420.455,194.997 C422.849,195.042,424.574,194.376,424.792,194.587 C425.199,194.982,422.821,196.537,420.451,196.493 C418.081,196.447,415.599,194.97,416.115,194.485 z"/>
  </g>
  <g id="am19">
    <g id="am21">
      <path style="fill:#a9a9a9;fill-opacity:1;fill-rule:nonzero;opacity:1;stroke:none;" d="M478.723,190.182 C478.723,190.182,628.404,191.271,628.404,191.271"/>
      <path style="fill:#000000;fill-opacity:1;fill-rule:nonzero;opacity:1;stroke:none;" d="M478.713,191.682 C479.835,191.691,479.835,191.691,484.887,191.727 C491.622,191.776,491.622,191.776,501.163,191.846 C523.614,192.009,523.614,192.009,550.555,192.205 C577.496,192.401,577.496,192.401,599.947,192.564 C609.489,192.633,609.489,192.633,616.224,192.682 C621.276,192.719,621.276,192.719,622.398,192.727 C623.226,192.733,623.903,192.067,623.909,191.238 C623.915,190.41,623.248,189.733,622.42,189.727 C621.297,189.719,621.297,189.719,616.246,189.683 C609.511,189.634,609.511,189.634,599.969,189.564 C577.518,189.401,577.518,189.401,550.577,189.205 C523.636,189.009,523.636,189.009,501.185,188.846 C491.644,188.776,491.644,188.776,484.908,188.727 C479.857,188.691,479.857,188.691,478.734,188.682 C477.906,188.676,477.229,189.343,477.223,190.171 C477.217,191,477.884,191.676,478.713,191.682 z M628.409,191.271 C628.409,191.271,612.886,182.158,612.886,182.158 C612.886,182.158,611.367,184.745,611.367,184.745 C611.367,184.745,622.409,191.227,622.409,191.227 C622.409,191.227,611.274,197.548,611.274,197.548 C611.274,197.548,612.755,200.157,612.755,200.157 C612.755,200.157,628.409,191.271,628.409,191.271 z"/>
    </g>
    <g id="am23">
      <path style="fill:#aaaaaa;fill-opacity:1;fill-rule:nonzero;opacity:1;stroke:none;" d="M356.723,190.182 C356.723,190.182,207.043,189.094,207.043,189.094"/>
      <path style="fill:#000000;fill-opacity:1;fill-rule:nonzero;opacity:1;stroke:none;" d="M356.734,188.682 C355.612,188.674,355.612,188.674,350.56,188.638 C343.825,188.589,343.825,188.589,334.283,188.519 C311.833,188.356,311.833,188.356,284.892,188.16 C257.951,187.964,257.951,187.964,235.5,187.801 C225.958,187.731,225.958,187.731,219.223,187.682 C214.171,187.646,214.171,187.646,213.049,187.637 C212.22,187.631,211.544,188.298,211.538,189.127 C211.532,189.955,212.199,190.631,213.027,190.637 C214.15,190.646,214.15,190.646,219.201,190.682 C225.936,190.731,225.936,190.731,235.478,190.801 C257.929,190.964,257.929,190.964,284.87,191.16 C311.811,191.356,311.811,191.356,334.262,191.519 C343.803,191.588,343.803,191.588,350.539,191.637 C355.59,191.674,355.59,191.674,356.713,191.682 C357.541,191.688,358.217,191.022,358.223,190.193 C358.229,189.365,357.563,188.688,356.734,188.682 z M207.038,189.094 C207.038,189.094,222.561,198.207,222.561,198.207 C222.561,198.207,224.079,195.62,224.079,195.62 C224.079,195.62,213.038,189.137,213.038,189.137 C213.038,189.137,224.173,182.816,224.173,182.816 C224.173,182.816,222.692,180.207,222.692,180.207 C222.692,180.207,207.038,189.094,207.038,189.094 z"/>
    </g>
  </g>
</svg>
