<?xml version="1.0" encoding="utf-8"?>
<svg viewBox="0 102.047 419.528 170.079" xmlns="http://www.w3.org/2000/svg" xmlns:xlink="http://www.w3.org/1999/xlink">
  <g id="am1">
    <path id="am2" style="fill:#c6e4f4;fill-opacity:1;fill-rule:nonzero;opacity:1;stroke:#c6e4f4;stroke-linecap:butt;stroke-linejoin:round;stroke-miterlimit:10;stroke-opacity:1;stroke-width:0;" d="M49.1093,172.313 C49.1093,172.313,15.223,207.56,15.223,207.56 C15.223,207.56,403.071,206.913,403.071,206.913 C403.071,206.913,375.629,173.108,375.629,173.108 C375.629,173.108,49.1093,172.313,49.1093,172.313 z"/>
  </g>
  <g id="am3">
    <g id="am4">
      <path id="am5" style="fill:#3408df;fill-opacity:1;fill-rule:nonzero;opacity:1;stroke:#3a5beb;stroke-linecap:butt;stroke-linejoin:round;stroke-miterlimit:10;stroke-opacity:1;stroke-width:1;" d="M254.464,192.605 C253.176,192.494,222.21,191.023,212.667,190.216 C210.673,190.048,203.165,189.877,201.173,190.067 C201.173,190.067,143.871,193.152,143.871,193.152 C143.871,193.152,111.699,194.09,111.699,194.09 C110.998,194.147,89.2103,196.54,88.5078,196.503 C88.5078,196.503,68.4,195.967,68.4,195.967 C68.4,195.967,68.0499,193.31,68.3366,190.61 C68.3366,190.61,69.0703,180.953,69.0703,180.953 C69.2918,178.867,82.4118,179.121,84.4863,178.809 C84.4863,178.809,112.771,175.859,112.771,175.859 C112.899,175.84,133.554,173.723,133.683,173.715 C133.683,173.715,163.845,167.28,163.845,167.28 C163.845,167.28,189.858,168.653,206.171,168.202 C222.485,167.75,254.773,165.92,270.982,170.362 C284.511,174.07,333.585,180.618,349.445,182.682 C352.124,183.031,354.362,182.455,353.787,185.094 C353.787,185.094,351.396,197.045,351.396,197.045 C350.901,199.315,322.731,197.98,320.418,197.771 C299.408,195.87,268.637,193.818,254.464,192.605 z"/>
      <path id="am6" style="fill:#f6e9e2;fill-opacity:1;fill-rule:nonzero;opacity:1;stroke:#3a5beb;stroke-linecap:butt;stroke-linejoin:round;stroke-miterlimit:10;stroke-opacity:1;stroke-width:1;" d="M179.019,133.629 C163.292,145.861,164.811,153.895,164.985,154.613 C165.005,154.696,165.01,154.783,165.018,154.868 C165.018,154.868,169.204,198.382,169.204,198.382 C169.307,199.502,173.323,212.254,174.6,215.151 C176.22,218.826,179.571,220.66,173.031,225.158 C172.98,225.193,172.927,225.225,172.873,225.255 C172.873,225.255,163.412,230.422,163.412,230.422 C162.237,231.131,161.596,232.234,162.936,231.94 C165.396,231.4,173.951,227.348,173.22,228.036 C172.156,229.035,166.937,232.894,165.31,234.232 C164.941,234.535,166.458,235.29,166.909,235.135 C171.356,233.614,177.507,228.961,176.306,229.826 C174.973,230.787,169.878,234.916,171.172,236.301 C172.025,237.214,179.384,229.503,180.253,230.401 C181.364,231.55,179.612,232.999,178.966,236.289 C178.762,237.329,180.096,237.937,180.747,237.1 C183.535,233.513,186.966,228.915,188.337,229.136 C188.339,229.137,190.251,229.136,190.253,229.136 C191.513,229.339,190.62,230.381,192.475,231.627 C194.162,232.76,196.264,232.67,195.955,231.067 C195.909,230.829,195.815,230.602,195.679,230.401 C195.679,230.401,187.787,218.831,187.787,218.831 C187.451,218.25,180.434,193.044,180.306,192.046 C180.306,192.046,178.968,169.546,178.968,169.546 C178.936,169.297,178.955,169.044,179.026,168.802 C179.026,168.802,190.924,153.799,190.924,153.799 C191.439,152.041,221.187,155.255,221.569,157.177 C221.569,157.177,232.481,175.873,232.481,175.873 C232.499,175.966,232.511,176.061,232.514,176.156 C232.514,176.156,235.444,194.821,235.444,194.821 C235.456,195.137,230.212,210.213,230.118,210.515 C228.624,215.295,221.948,217.736,220.91,219.329 C217.738,224.198,208.526,228.92,210.576,231.135 C211.966,232.637,214.952,230.257,216.92,228.626 C218.181,227.582,220.411,227.88,220.535,229.512 C220.631,230.773,219.99,234.51,220.023,236.229 C220.054,237.87,221.895,238.359,222.453,236.815 C223.568,233.736,225.164,230.824,225.925,230.121 C226.873,229.244,227.398,229.995,227.839,231.209 C227.839,231.209,230.274,235.709,230.274,235.709 C230.786,237.119,232.643,238.599,233.446,237.332 C234.705,235.343,232.561,230.136,232.044,230.028 C231.652,229.947,236.752,233.92,238.929,235.607 C239.449,236.01,240.593,236.34,240.964,235.797 C240.964,235.797,241.2,235.272,241.2,235.272 C241.647,234.826,241.041,234.119,240.561,233.708 C239.244,232.581,236.986,230.519,237.342,229.918 C237.874,229.022,241.048,230.68,244.769,232.595 C246.6,233.538,248.45,231.56,246.554,230.758 C241.83,228.76,236,226.129,234.626,224.643 C234.059,224.029,234.53,222.312,234.995,221.618 C234.995,221.618,242.321,208.696,242.321,208.696 C242.413,208.559,247.509,198.32,247.509,198.32 C247.509,198.32,248.966,163.979,248.966,163.979 C248.966,163.979,248.258,145.953,243.166,137.873 C236.454,127.223,212.175,129.097,210.107,127.859 C209.83,127.693,185.584,128.523,179.019,133.629 z"/>
      <path id="am7" style="fill:#00b3ff;fill-opacity:1;fill-rule:nonzero;opacity:1;stroke:#3a5beb;stroke-linecap:butt;stroke-linejoin:round;stroke-miterlimit:10;stroke-opacity:1;stroke-width:1;" d="M223.017,127.135 C223.017,127.135,232.626,128.713,232.626,128.713 C232.626,128.713,243.085,131.955,243.07,137.614 C243.046,146.107,231.544,148.464,232.522,151.723 C233.499,154.981,232.787,163.85,232.787,163.85 C232.787,163.85,231.371,172.85,231.371,172.85 C231.371,172.85,209.232,177.53,208.093,177.421 C196.529,176.321,180.918,170.586,180.918,170.586 C180.918,170.586,178.554,167.546,180.076,164.186 C181.438,161.18,184.441,151.938,184.441,151.938 C184.441,151.938,173.728,144.096,173.948,137.281 C174.056,133.942,184.275,129.62,184.275,129.62 C184.275,129.62,194.033,127.562,194.033,127.562 C194.033,127.562,223.017,127.135,223.017,127.135 z"/>
      <path id="am8" style="fill:#f6e9e2;fill-opacity:1;fill-rule:nonzero;opacity:1;stroke:#3a5beb;stroke-linecap:butt;stroke-linejoin:round;stroke-miterlimit:10;stroke-opacity:1;stroke-width:1;" d="M351.928,197.27 C351.928,197.27,355.203,183.505,355.203,183.505 C355.203,183.505,366.046,184.169,369.302,182.904 C371.664,181.986,372.809,180.46,374.429,177.844 C379.276,170.021,379.085,170.874,380.728,168.938 C382.396,166.973,378.256,161.654,378.523,159.316 C378.813,156.784,383.784,163.388,383.784,163.388 C383.784,163.388,388.95,168.584,388.716,171.552 C388.481,174.52,384.294,175.653,384.294,179.035 C384.293,182.416,383.188,187.964,383.188,187.964 C383.188,187.964,383.401,196.669,383.401,196.669 C383.029,199.415,379.192,200.277,379.192,200.277 C379.192,200.277,367.765,198.54,367.765,198.54 C367.765,198.54,351.928,197.27,351.928,197.27 z"/>
      <path id="am9" style="fill:#f6e9e2;fill-opacity:1;fill-rule:nonzero;opacity:1;stroke:#3a5beb;stroke-linecap:butt;stroke-linejoin:round;stroke-miterlimit:10;stroke-opacity:1;stroke-width:1;" d="M68.1818,195.265 C68.1818,195.265,69.5707,180.556,69.5707,180.556 C69.5707,180.556,51.1364,182.134,51.1364,182.134 C51.1364,182.134,49.2016,178.665,46.9775,176.54 C41.6667,171.465,37.53,167.216,37.53,167.216 C37.53,167.216,38.5473,158.512,36.3911,157.51 C34.4547,156.61,33.2012,164.004,33.2012,164.004 C33.2012,164.004,30.1039,167.443,30.3383,170.411 C30.5726,173.38,37.1331,180.076,37.1339,183.458 C37.1347,186.838,34.4599,190.539,34.5645,194.814 C34.6571,198.601,41.6536,197.814,41.6536,197.814 C41.6536,197.814,68.1818,195.265,68.1818,195.265 z"/>
      <path id="am10" style="fill:#2846c7;fill-opacity:1;fill-rule:nonzero;opacity:1;stroke:#2d47b9;stroke-linecap:butt;stroke-linejoin:round;stroke-miterlimit:10;stroke-opacity:1;stroke-width:1;" d="M230.758,152.303 C230.969,148.737,227.038,148.449,226.94,152.02 C226.719,160.112,225.931,168.359,223.841,172.222 C222.539,174.628,218.1,180.86,216.881,184.245 C215.725,187.454,216.482,192.09,218.103,194.979 C219.415,197.317,227.005,202.572,227.005,202.572 C227.005,202.572,223.626,190.251,224.299,185.903 C225.467,178.363,231.778,166.9,231.543,155.881 C231.543,155.881,230.758,152.303,230.758,152.303 z"/>
      <path id="am11" style="fill:#f6e9e2;fill-opacity:1;fill-rule:nonzero;opacity:1;stroke:#3a5beb;stroke-linecap:butt;stroke-linejoin:round;stroke-miterlimit:10;stroke-opacity:1;stroke-width:0.5;" d="M211.313,173.707 C211.313,173.707,220.203,171.449,224.436,166.016 C224.436,166.016,220.314,154.425,220.314,154.425 C220.314,154.425,200.447,155.01,200.447,155.01 C196.084,154.287,193.066,163.545,196.143,166.722 C200.518,171.237,207.009,173.777,207.009,173.777 C207.009,173.777,209.071,177.319,209.071,177.319 C209.071,177.319,211.313,173.707,211.313,173.707 z"/>
      <path id="am12" style="fill:#3156f4;fill-opacity:1;fill-rule:nonzero;opacity:1;stroke:#3a5beb;stroke-linecap:butt;stroke-linejoin:round;stroke-miterlimit:10;stroke-opacity:1;stroke-width:1;" d="M213.367,122.367 C212.838,122.104,214.697,117.046,210.124,116.547 C207.452,116.255,208.627,120.787,206.548,121.952 C198.393,126.518,188.251,132.836,186.701,139.2 C185.106,145.747,186.24,152.153,187.405,156.25 C188.307,159.423,194.904,168.724,197.353,170.904 C198.192,171.651,200.033,159.526,200.033,159.526 C200.033,159.526,203.713,172.75,205.514,173.227 C206.445,173.474,213.913,174.001,213.913,174.001 C213.913,174.001,207.332,164.125,208.492,164.113 C209.555,164.102,215.74,173.747,216.474,173.525 C218.831,172.812,223.978,166.818,225.588,164.947 C227.841,162.33,230.047,155.69,230.83,152.318 C232.069,146.99,232.908,139.696,230.015,134.133 C228.41,131.047,218.039,124.692,213.367,122.367 z"/>
    </g>
  </g>
  <g id="am13">
    <g id="am15">
      <path style="fill:#c6e4f4;fill-opacity:0;fill-rule:nonzero;opacity:1;stroke:none;" d="M85.2753,214.763 C85.2753,214.763,86.8342,216.061,86.8342,216.061 C154.815,272.673,253.568,272.523,321.376,215.704 C321.376,215.704,322.015,215.169,322.015,215.169"/>
      <path style="fill:#000000;fill-opacity:1;fill-rule:nonzero;opacity:1;stroke:none;" d="M87.7296,218.094 C155.178,273.053,251.958,273.202,319.561,218.494 C319.561,218.494,318.303,216.939,318.303,216.939 C251.435,271.052,155.707,270.905,88.993,216.544 C88.993,216.544,87.7296,218.094,87.7296,218.094 z M85.2808,214.767 C85.2808,214.767,89.4568,226.017,89.4568,226.017 C89.4568,226.017,91.3318,225.321,91.3318,225.321 C91.3318,225.321,88.3613,217.319,88.3613,217.319 C88.3613,217.319,96.7768,218.748,96.7768,218.748 C96.7768,218.748,97.1115,216.776,97.1115,216.776 C97.1115,216.776,85.2808,214.767,85.2808,214.767 z M322.016,215.168 C322.016,215.168,310.183,217.164,310.183,217.164 C310.183,217.164,310.515,219.136,310.515,219.136 C310.515,219.136,318.932,217.716,318.932,217.716 C318.932,217.716,315.953,225.715,315.953,225.715 C315.953,225.715,317.827,226.414,317.827,226.414 C317.827,226.414,322.016,215.168,322.016,215.168 z"/>
    </g>
  </g>
</svg>
