<?xml version="1.0" encoding="utf-8"?>
<svg viewBox="14.1732 42.5197 226.772 215.433" xmlns="http://www.w3.org/2000/svg" xmlns:xlink="http://www.w3.org/1999/xlink">
  <g id="am1">
    <path id="am2" style="fill:#c6e4f4;fill-opacity:1;fill-rule:nonzero;opacity:1;stroke:#c6e4f4;stroke-linecap:butt;stroke-linejoin:round;stroke-miterlimit:10;stroke-opacity:1;stroke-width:0;" d="M77.1105,213.037 C77.1105,213.037,48.2869,238.402,48.2869,238.402 C48.2869,238.402,227.282,238.114,227.282,238.114 C227.282,238.114,202.493,211.308,202.493,211.308 C202.493,211.308,77.1105,213.037,77.1105,213.037 z"/>
  </g>
  <g id="am3">
    <path id="am4" style="fill:#f6e9e2;fill-opacity:1;fill-rule:nonzero;opacity:1;stroke:#3a5beb;stroke-linecap:butt;stroke-linejoin:round;stroke-miterlimit:10;stroke-opacity:1;stroke-width:0.5;" d="M81.1933,131.106 C81.1933,131.106,94.7058,151.24,94.7058,151.24 C94.7058,151.24,107.049,169.063,110.905,178.71 C115.661,190.61,124.873,199.226,124.873,199.226 C124.873,199.226,120.5,211.995,119.853,209.92 C117.582,202.633,101.749,183.032,101.749,183.032 C101.749,183.032,93.3539,165.081,80.1263,152.998 C68.7488,142.604,68.501,140.812,67.5712,128.646 C66.8728,119.508,81.1933,131.106,81.1933,131.106 z"/>
    <path id="am5" style="fill:#3408df;fill-opacity:1;fill-rule:nonzero;opacity:1;stroke:#3a5beb;stroke-linecap:butt;stroke-linejoin:round;stroke-miterlimit:10;stroke-opacity:1;stroke-width:1;" d="M159.82,79.0809 C156.089,61.7972,130.723,67.2683,116.16,67.4291 C93.1219,67.6835,75.3057,89.8951,75.3057,89.8951 C75.3057,89.8951,79.424,102.962,89.3119,106.64 C95.979,109.119,109.734,106.45,110.411,105.981 C116.249,101.939,118.711,102.473,118.711,102.473 C118.711,102.473,101.653,135.072,102.969,147.84 C104.285,160.608,112.477,171.392,112.998,180.557 C113.845,195.457,117.356,212.553,117.356,212.553 C117.356,212.553,131.393,208.628,131.393,208.628 C131.393,208.628,130.852,195.305,132.581,174.351 C133.706,160.712,124.86,154.15,125.294,148.925 C126.769,131.164,166.184,108.567,159.82,79.0809 z"/>
    <path id="am6" style="fill:#00b3ff;fill-opacity:1;fill-rule:nonzero;opacity:1;stroke:#3a5beb;stroke-linecap:butt;stroke-linejoin:round;stroke-miterlimit:10;stroke-opacity:1;stroke-width:1;" d="M70.412,95.4386 C75.2623,90.3991,84.0927,77.3651,92.2261,72.7994 C101.033,67.8556,123.843,66.2419,123.843,66.2419 C123.843,66.2419,119.204,101.9,119.204,101.9 C119.204,101.9,109.931,102.074,106.211,115.562 C103.079,126.914,83.1248,135.437,83.1248,135.437 C83.1248,135.437,63.5115,140.551,58.6294,134.042 C53.9784,127.841,53.1238,132.676,54.9086,121.174 C56.6934,109.673,62.2624,103.906,70.412,95.4386 z"/>
    <path id="am7" style="fill:#f9e5d8;fill-opacity:1;fill-rule:nonzero;opacity:1;stroke:#3a5beb;stroke-linecap:butt;stroke-linejoin:round;stroke-miterlimit:10;stroke-opacity:1;stroke-width:0.5;" d="M131.284,208.642 C131.284,208.642,117.571,211.962,117.571,211.962 C117.571,211.962,119.841,214.65,111.655,217.726 C107.496,219.289,104.985,219.534,101.532,221.285 C95.1343,224.531,92.8906,222.388,91.9655,225.234 C90.7601,228.943,95.8742,227.91,95.8742,227.91 C95.8742,227.91,102.429,227.856,106.074,226.983 C109.718,226.11,111.698,225.884,115.902,225.221 C120.107,224.558,128.136,227.826,132.231,225.385 C136.327,222.943,133.332,218.84,133.332,218.84 C133.332,218.84,131.284,208.642,131.284,208.642 z"/>
    <path id="am8" style="fill:#203bd6;fill-opacity:1;fill-rule:nonzero;opacity:1;stroke:#213bd6;stroke-linecap:butt;stroke-linejoin:round;stroke-miterlimit:10;stroke-opacity:1;stroke-width:0.940585;" d="M47.6556,167.763 C47.6962,167.831,51.2025,171.046,51.2681,171.09 C52.3091,171.798,64.007,179.361,61.2501,183.829 C53.8873,195.762,54.3102,210.828,54.3102,210.828 C54.3102,210.828,48.5544,200.177,48.7013,196.283 C48.8915,191.244,54.3726,187.942,52.599,181.548 C51.0618,176.006,41.6156,163.045,39.1947,157.116 C38.9409,156.494,42.3685,157.87,42.7122,158.447 C42.7122,158.447,47.6556,167.763,47.6556,167.763 z"/>
    <path id="am9" style="fill:#fbebdf;fill-opacity:1;fill-rule:nonzero;opacity:1;stroke:#3a5beb;stroke-linecap:butt;stroke-linejoin:round;stroke-miterlimit:10;stroke-opacity:1;stroke-width:0.4;" d="M62.7854,171.179 C62.7854,171.179,63.2462,168.691,66.2659,166.6 C66.608,166.363,67.535,162.02,68.3277,161.565 C70.941,160.065,72.4231,159.422,72.4231,159.422 C72.4231,159.422,71.7491,157.933,71.7491,157.933 C75.7428,151.645,75.8344,149.943,71.1553,145.194 C66.4163,140.385,80.2555,139.536,70.905,140.733 C60.8845,142.016,42.2577,151.828,42.2577,151.828 C42.2577,151.828,62.7854,171.179,62.7854,171.179 z"/>
    <path id="am10" style="fill:#3156f4;fill-opacity:1;fill-rule:nonzero;opacity:1;stroke:#3a5beb;stroke-linecap:butt;stroke-linejoin:round;stroke-miterlimit:10;stroke-opacity:1;stroke-width:0.940585;" d="M38.5783,141.542 C38.5783,141.542,28.487,153.985,35.2194,162.471 C38.5598,166.682,49.6258,173.674,57.4105,173.738 C63.2342,173.786,66.3524,176.702,66.3524,176.702 C66.3524,176.702,65.8454,167.576,65.8454,167.576 C65.8454,167.576,57.0538,166.202,57.0538,166.202 C57.0538,166.202,63.1038,162.006,63.1038,162.006 C63.1038,162.006,60.3672,157.652,60.3672,157.652 C60.3672,157.652,54.2552,162.201,54.2552,162.201 C54.2552,162.201,58.0233,152.818,58.0233,152.818 C58.0233,152.818,53.8788,152.466,53.8788,152.466 C53.8788,152.466,50.5527,148.997,54.7606,147.351 C58.9688,145.705,63.4024,143.647,63.4024,143.647 C63.4024,143.647,62.2653,136.441,60.6688,135.27 C49.0034,126.72,38.5783,141.542,38.5783,141.542 z"/>
    <path id="am11" style="fill:#3408df;fill-opacity:1;fill-rule:nonzero;opacity:1;stroke:#3408df;stroke-linecap:butt;stroke-linejoin:round;stroke-miterlimit:10;stroke-opacity:1;stroke-width:0.940585;" d="M60.5034,159.508 C60.5034,159.508,61.2689,159.243,62.8028,159.446 C63.5644,159.547,65.4787,161.278,65.4787,161.278 C65.4787,161.278,65.5143,160.731,65.5143,160.731 C65.5143,160.731,64.6071,159.243,63.3545,158.937 C62.1018,158.631,60.5034,159.508,60.5034,159.508 z"/>
    <path id="am12" style="fill:#df0893;fill-opacity:1;fill-rule:nonzero;opacity:1;stroke:#f2beef;stroke-linecap:butt;stroke-linejoin:round;stroke-miterlimit:10;stroke-opacity:1;stroke-width:0.940585;" d="M75.1185,144.291 C75.2594,144.466,74.3752,144.644,73.9995,145.176 C73.5717,145.782,73.8182,146.566,73.6152,146.519 C73.2339,146.43,72.387,145.033,72.8117,144.433 C73.2364,143.833,74.8173,143.914,75.1185,144.291 z"/>
    <path id="am13" style="fill:#f6e9e2;fill-opacity:1;fill-rule:nonzero;opacity:1;stroke:#3a5beb;stroke-linecap:butt;stroke-linejoin:round;stroke-miterlimit:10;stroke-opacity:1;stroke-width:0.5;" d="M112.667,216.057 C112.973,216.916,114.443,220.128,116.199,221.744 C116.469,221.992,120.193,224.278,121.22,225.275 C122.461,226.479,121.108,228.857,119.552,228.104 C119.238,227.952,116.169,226.127,115.832,225.869 C114.825,225.097,112.693,222.284,112.128,223.42"/>
    <path id="am14" style="fill:#f6e9e2;fill-opacity:1;fill-rule:nonzero;opacity:1;stroke:#3a5beb;stroke-linecap:butt;stroke-linejoin:round;stroke-miterlimit:10;stroke-opacity:1;stroke-width:0.5;" d="M77.4587,118.817 C77.4587,118.817,86.5218,148.46,86.5218,148.46 C86.5218,148.46,99.6426,174.557,102.193,183.58 C104.8,192.801,109.662,206.969,111.538,212.231 C111.844,213.09,114.281,217.398,115.103,219.339 C115.383,219.998,115.612,224.544,115.048,225.679 C114.46,226.862,110.393,227.424,110.031,228.763 C109.751,229.8,110.175,232.19,109.264,233.555 C108.859,234.163,108.21,236.263,106.532,235.496 C105.62,235.08,106.808,233.161,107.035,232.645 C107.316,232.008,107.131,231.758,107.203,230.632 C107.203,230.632,107.136,229.457,106.748,229.625 C105.142,230.32,103.905,230.753,102.027,231.734 C99.7422,232.929,99.7529,232.78,98.84,233.1 C98.4424,233.24,95.9419,234.194,95.3653,234.274 C94.8933,234.34,93.2686,234.548,92.7533,234.37 C92.2116,234.183,92.259,233.214,92.8012,233.028 C94.0892,232.588,97.5897,231.434,98.9218,230.767 C99.791,230.332,101.342,229.635,102.914,228.787 C103.655,228.387,104.345,227.75,104.345,227.75 C104.345,227.75,99.2675,229.881,99.2675,229.881 C98.918,230.041,94.2485,231.502,93.6879,231.614 C93.4107,231.67,90.9304,232.63,90.6206,232.501 C90.2505,232.347,89.2787,231.71,90.6446,230.943 C92.3321,229.996,97.8049,228.193,99.4137,227.505 C101.858,226.459,108.552,223.29,107.48,219.265 C105.707,212.609,82.9343,175.083,82.9343,175.083 C82.9343,175.083,76.0648,169.846,67.8584,157.138 C60.3141,145.455,55.4322,136.054,55.7452,125.048 C55.9805,116.78,77.4587,118.817,77.4587,118.817 z"/>
    <path id="am15" style="fill:#00b3ff;fill-opacity:1;fill-rule:nonzero;opacity:1;stroke:#3a5beb;stroke-linecap:butt;stroke-linejoin:round;stroke-miterlimit:10;stroke-opacity:1;stroke-width:0.5;" d="M64.2416,105.077 C76.4363,103.929,79.825,122.729,79.825,122.729 C79.825,122.729,63.8642,150.75,63.8642,150.75 C63.8642,150.75,60.042,144.101,55.3676,136.022 C50.7046,127.964,58.1519,105.65,64.2416,105.077 z"/>
  </g>
  <g id="am16">
    <g id="am18">
      <path style="fill:#3408df;fill-opacity:1;fill-rule:nonzero;opacity:1;stroke:none;" d="M133.894,149.944 C133.894,149.944,152.392,149.492,152.392,149.492"/>
      <path style="fill:#000000;fill-opacity:1;fill-rule:nonzero;opacity:1;stroke:none;" d="M137.947,150.345 C138.399,150.334,138.399,150.334,140.206,150.29 C142.465,150.235,142.465,150.235,145.176,150.169 C147.886,150.102,147.886,150.102,150.145,150.047 C151.952,150.003,151.952,150.003,152.404,149.992 C152.404,149.992,152.38,148.992,152.38,148.992 C151.928,149.003,151.928,149.003,150.121,149.048 C147.862,149.103,147.862,149.103,145.151,149.169 C142.441,149.235,142.441,149.235,140.182,149.29 C138.375,149.334,138.375,149.334,137.923,149.346 C137.923,149.346,137.947,150.345,137.947,150.345 z M139.87,146.297 C139.87,146.297,133.895,149.944,133.895,149.944 C133.895,149.944,140.041,153.295,140.041,153.295 C140.041,153.295,137.935,149.845,137.935,149.845 C137.935,149.845,139.87,146.297,139.87,146.297 z"/>
    </g>
    <g id="am20">
      <path style="fill:#3408df;fill-opacity:0;fill-rule:nonzero;opacity:1;stroke:none;" d="M164.988,156.39 C164.988,156.39,162.936,163.936,153.954,173.652 C146.221,182.016,138.068,183.227,138.068,183.227"/>
      <path style="fill:#000000;fill-opacity:1;fill-rule:nonzero;opacity:1;stroke:none;" d="M163.454,158.985 C161.514,163.296,158.328,168.184,153.586,173.312 C153.217,173.712,152.843,174.099,152.463,174.475 C149.283,177.623,145.88,179.848,142.479,181.307 C141.292,181.816,140.191,182.194,139.206,182.459 C138.863,182.551,138.559,182.622,138.299,182.676 C138.146,182.707,138.043,182.725,137.995,182.732 C137.995,182.732,138.142,183.721,138.142,183.721 C138.208,183.711,138.329,183.69,138.5,183.655 C138.779,183.598,139.102,183.522,139.465,183.424 C140.496,183.147,141.641,182.755,142.874,182.226 C146.385,180.719,149.894,178.426,153.167,175.186 C153.557,174.799,153.941,174.401,154.321,173.991 C159.137,168.782,162.383,163.803,164.366,159.395 C164.366,159.395,163.454,158.985,163.454,158.985 z M164.628,157.324 C164.628,157.324,160.74,160.467,160.74,160.467 C160.74,160.467,161.368,161.245,161.368,161.245 C161.368,161.245,163.91,159.19,163.91,159.19 C163.91,159.19,164.418,162.418,164.418,162.418 C164.418,162.418,165.406,162.263,165.406,162.263 C165.406,162.263,164.628,157.324,164.628,157.324 C164.628,157.324,166.961,158.222,166.961,158.222 C166.961,158.222,167.321,157.289,167.321,157.289 C167.321,157.289,162.654,155.492,162.654,155.492 C162.654,155.492,162.295,156.426,162.295,156.426 C162.295,156.426,164.628,157.324,164.628,157.324 z"/>
    </g>
    <g id="am22">
      <path style="fill:#3408df;fill-opacity:0;fill-rule:nonzero;opacity:1;stroke:none;" d="M168.587,145.144 C168.587,145.144,172.935,137.496,172.485,123.101 C172.113,111.173,164.688,102.257,164.688,102.257"/>
      <path style="fill:#000000;fill-opacity:1;fill-rule:nonzero;opacity:1;stroke:none;" d="M170.254,142.566 C172.111,137.516,173.232,131.001,172.985,123.085 C172.823,117.903,171.366,112.909,169.041,108.272 C168.176,106.548,167.249,104.994,166.321,103.635 C165.996,103.158,165.693,102.739,165.421,102.382 C165.257,102.165,165.138,102.016,165.072,101.937 C165.072,101.937,164.304,102.577,164.304,102.577 C164.36,102.645,164.47,102.783,164.626,102.987 C164.887,103.332,165.18,103.736,165.495,104.199 C166.399,105.522,167.303,107.038,168.147,108.72 C170.412,113.236,171.829,118.093,171.986,123.116 C172.229,130.9,171.129,137.288,169.315,142.221 C169.315,142.221,170.254,142.566,170.254,142.566 z M168.986,144.227 C168.986,144.227,173.007,141.255,173.007,141.255 C173.007,141.255,172.413,140.451,172.413,140.451 C172.413,140.451,169.785,142.393,169.785,142.393 C169.785,142.393,169.417,139.146,169.417,139.146 C169.417,139.146,168.423,139.259,168.423,139.259 C168.423,139.259,168.986,144.227,168.986,144.227 C168.986,144.227,166.694,143.228,166.694,143.228 C166.694,143.228,166.295,144.145,166.295,144.145 C166.295,144.145,170.879,146.142,170.879,146.142 C170.879,146.142,171.278,145.225,171.278,145.225 C171.278,145.225,168.986,144.227,168.986,144.227 z"/>
    </g>
  </g>
</svg>
