<?xml version="1.0" encoding="UTF-8" standalone="no"?>
<!DOCTYPE svg PUBLIC "-//W3C//DTD SVG 1.1//EN" "http://www.w3.org/Graphics/SVG/1.1/DTD/svg11.dtd">
<!-- Created with Vectornator (http://vectornator.io/) -->
<svg height="100%" stroke-miterlimit="10" style="fill-rule:nonzero;clip-rule:evenodd;stroke-linecap:round;stroke-linejoin:round;" version="1.1" viewBox="0 0 400 400" width="100%" xml:space="preserve" xmlns="http://www.w3.org/2000/svg" xmlns:xlink="http://www.w3.org/1999/xlink">
<defs>
<filter color-interpolation-filters="sRGB" filterUnits="userSpaceOnUse" height="53.8724" id="Filter" width="144.494" x="130.661" y="276.751">
<feComponentTransfer in="SourceGraphic" result="Alpha">
<feFuncA slope="0.978383" type="linear"/>
</feComponentTransfer>
<feDropShadow dx="1.39579" dy="1.4324" flood-color="#000000" flood-opacity="1" in="Alpha" result="Shadow" stdDeviation="0"/>
</filter>
<filter color-interpolation-filters="sRGB" filterUnits="userSpaceOnUse" height="55.6744" id="Filter_2" width="214.733" x="93.4371" y="230.784">
<feComponentTransfer in="SourceGraphic" result="Alpha">
<feFuncA slope="0.978383" type="linear"/>
</feComponentTransfer>
<feDropShadow dx="1.39579" dy="1.4324" flood-color="#000000" flood-opacity="1" in="Alpha" result="Shadow" stdDeviation="0"/>
</filter>
<linearGradient gradientTransform="matrix(56.9947 0 0 56.9947 152.128 199.103)" gradientUnits="userSpaceOnUse" id="LinearGradient" x1="0" x2="1" y1="0" y2="0">
<stop offset="0" stop-color="#0e4d3b"/>
<stop offset="1" stop-color="#b9fbe8"/>
</linearGradient>
<filter color-interpolation-filters="sRGB" filterUnits="userSpaceOnUse" height="34.4999" id="Filter_3" width="61.7913" x="151.613" y="183.273">
<feDropShadow dx="0.697896" dy="0.716199" flood-color="#000b05" flood-opacity="1" in="SourceGraphic" result="Shadow" stdDeviation="0"/>
</filter>
<linearGradient gradientTransform="matrix(41.4844 1.44594e-14 -1.47869e-14 41.4844 123.723 182.83)" gradientUnits="userSpaceOnUse" id="LinearGradient_2" x1="0" x2="1" y1="0" y2="0">
<stop offset="0" stop-color="#0e4d3b"/>
<stop offset="1" stop-color="#b9fbe8"/>
</linearGradient>
<filter color-interpolation-filters="sRGB" filterUnits="userSpaceOnUse" height="63.8867" id="Filter_4" width="43.5557" x="123.208" y="152.307">
<feDropShadow dx="0.697896" dy="0.716199" flood-color="#000b05" flood-opacity="1" in="SourceGraphic" result="Shadow" stdDeviation="0"/>
</filter>
<filter color-interpolation-filters="sRGB" filterUnits="userSpaceOnUse" height="40.4733" id="Filter_5" width="25.6316" x="131.316" y="94.8095">
<feComponentTransfer in="SourceGraphic" result="Alpha">
<feFuncA slope="0.978383" type="linear"/>
</feComponentTransfer>
<feDropShadow dx="1.35251" dy="1.38798" flood-color="#000000" flood-opacity="0.00217391" in="Alpha" result="Shadow" stdDeviation="1.16279"/>
</filter>
<filter color-interpolation-filters="sRGB" filterUnits="userSpaceOnUse" height="37.6666" id="Filter_6" width="28.5421" x="146.244" y="97.4352">
<feComponentTransfer in="SourceGraphic" result="Alpha">
<feFuncA slope="0.978383" type="linear"/>
</feComponentTransfer>
<feDropShadow dx="1.35251" dy="1.38798" flood-color="#05e05f" flood-opacity="0.00217391" in="Alpha" result="Shadow" stdDeviation="1.16279"/>
</filter>
<filter color-interpolation-filters="sRGB" filterUnits="userSpaceOnUse" height="25.6775" id="Filter_7" width="40.5393" x="146.74" y="116.312">
<feComponentTransfer in="SourceGraphic" result="Alpha">
<feFuncA slope="0.978383" type="linear"/>
</feComponentTransfer>
<feDropShadow dx="1.35251" dy="1.38798" flood-color="#000000" flood-opacity="0.00217391" in="Alpha" result="Shadow" stdDeviation="1.16279"/>
</filter>
<filter color-interpolation-filters="sRGB" filterUnits="userSpaceOnUse" height="28.7941" id="Filter_8" width="37.5427" x="146.911" y="130.957">
<feComponentTransfer in="SourceGraphic" result="Alpha">
<feFuncA slope="0.978383" type="linear"/>
</feComponentTransfer>
<feDropShadow dx="1.35251" dy="1.38798" flood-color="#05e05f" flood-opacity="0.00217391" in="Alpha" result="Shadow" stdDeviation="1.16279"/>
</filter>
<filter color-interpolation-filters="sRGB" filterUnits="userSpaceOnUse" height="40.4733" id="Filter_9" width="25.6316" x="140.73" y="131.401">
<feComponentTransfer in="SourceGraphic" result="Alpha">
<feFuncA slope="0.978383" type="linear"/>
</feComponentTransfer>
<feDropShadow dx="1.35251" dy="1.38798" flood-color="#000000" flood-opacity="0.00217391" in="Alpha" result="Shadow" stdDeviation="1.16279"/>
</filter>
<filter color-interpolation-filters="sRGB" filterUnits="userSpaceOnUse" height="37.6666" id="Filter_10" width="28.5421" x="122.892" y="131.582">
<feComponentTransfer in="SourceGraphic" result="Alpha">
<feFuncA slope="0.978383" type="linear"/>
</feComponentTransfer>
<feDropShadow dx="1.35251" dy="1.38798" flood-color="#05e05f" flood-opacity="0.00217391" in="Alpha" result="Shadow" stdDeviation="1.16279"/>
</filter>
<filter color-interpolation-filters="sRGB" filterUnits="userSpaceOnUse" height="25.6775" id="Filter_11" width="40.5393" x="110.399" y="124.695">
<feComponentTransfer in="SourceGraphic" result="Alpha">
<feFuncA slope="0.978383" type="linear"/>
</feComponentTransfer>
<feDropShadow dx="1.35251" dy="1.38798" flood-color="#000000" flood-opacity="0.00217391" in="Alpha" result="Shadow" stdDeviation="1.16279"/>
</filter>
<filter color-interpolation-filters="sRGB" filterUnits="userSpaceOnUse" height="28.7941" id="Filter_12" width="37.5427" x="113.224" y="106.933">
<feComponentTransfer in="SourceGraphic" result="Alpha">
<feFuncA slope="0.978383" type="linear"/>
</feComponentTransfer>
<feDropShadow dx="1.35251" dy="1.38798" flood-color="#05e05f" flood-opacity="0.00217391" in="Alpha" result="Shadow" stdDeviation="1.16279"/>
</filter>
<filter color-interpolation-filters="sRGB" filterUnits="userSpaceOnUse" height="66.4172" id="Filter_13" width="40.1517" x="218.119" y="97.7378">
<feComponentTransfer in="SourceGraphic" result="Alpha">
<feFuncA slope="0.978383" type="linear"/>
</feComponentTransfer>
<feDropShadow dx="1.35251" dy="1.38798" flood-color="#000000" flood-opacity="0.00217391" in="Alpha" result="Shadow" stdDeviation="1.16279"/>
</filter>
<filter color-interpolation-filters="sRGB" filterUnits="userSpaceOnUse" height="60.9255" id="Filter_14" width="45.8734" x="243.684" y="102.938">
<feComponentTransfer in="SourceGraphic" result="Alpha">
<feFuncA slope="0.978383" type="linear"/>
</feComponentTransfer>
<feDropShadow dx="1.35251" dy="1.38798" flood-color="#05e05f" flood-opacity="0.00217391" in="Alpha" result="Shadow" stdDeviation="1.16279"/>
</filter>
<filter color-interpolation-filters="sRGB" filterUnits="userSpaceOnUse" height="40.2302" id="Filter_15" width="66.5259" x="244.503" y="136.742">
<feComponentTransfer in="SourceGraphic" result="Alpha">
<feFuncA slope="0.978383" type="linear"/>
</feComponentTransfer>
<feDropShadow dx="1.35251" dy="1.38798" flood-color="#000000" flood-opacity="0.00217391" in="Alpha" result="Shadow" stdDeviation="1.16279"/>
</filter>
<filter color-interpolation-filters="sRGB" filterUnits="userSpaceOnUse" height="46.3134" id="Filter_16" width="60.7044" x="244.777" y="161.806">
<feComponentTransfer in="SourceGraphic" result="Alpha">
<feFuncA slope="0.978383" type="linear"/>
</feComponentTransfer>
<feDropShadow dx="1.35251" dy="1.38798" flood-color="#05e05f" flood-opacity="0.00217391" in="Alpha" result="Shadow" stdDeviation="1.16279"/>
</filter>
<filter color-interpolation-filters="sRGB" filterUnits="userSpaceOnUse" height="66.4172" id="Filter_17" width="40.1517" x="232.916" y="162.546">
<feComponentTransfer in="SourceGraphic" result="Alpha">
<feFuncA slope="0.978383" type="linear"/>
</feComponentTransfer>
<feDropShadow dx="1.35251" dy="1.38798" flood-color="#000000" flood-opacity="0.00217391" in="Alpha" result="Shadow" stdDeviation="1.16279"/>
</filter>
<filter color-interpolation-filters="sRGB" filterUnits="userSpaceOnUse" height="60.9255" id="Filter_18" width="45.8734" x="201.63" y="162.837">
<feComponentTransfer in="SourceGraphic" result="Alpha">
<feFuncA slope="0.978383" type="linear"/>
</feComponentTransfer>
<feDropShadow dx="1.35251" dy="1.38798" flood-color="#05e05f" flood-opacity="0.00217391" in="Alpha" result="Shadow" stdDeviation="1.16279"/>
</filter>
<filter color-interpolation-filters="sRGB" filterUnits="userSpaceOnUse" height="40.2302" id="Filter_19" width="66.5259" x="180.158" y="149.729">
<feComponentTransfer in="SourceGraphic" result="Alpha">
<feFuncA slope="0.978383" type="linear"/>
</feComponentTransfer>
<feDropShadow dx="1.35251" dy="1.38798" flood-color="#000000" flood-opacity="0.00217391" in="Alpha" result="Shadow" stdDeviation="1.16279"/>
</filter>
<filter color-interpolation-filters="sRGB" filterUnits="userSpaceOnUse" height="46.3134" id="Filter_20" width="60.7044" x="185.705" y="118.581">
<feComponentTransfer in="SourceGraphic" result="Alpha">
<feFuncA slope="0.978383" type="linear"/>
</feComponentTransfer>
<feDropShadow dx="1.35251" dy="1.38798" flood-color="#05e05f" flood-opacity="0.00217391" in="Alpha" result="Shadow" stdDeviation="1.16279"/>
</filter>
</defs>
<g id="レイヤー-1">
<path d="M4.43697 199.876C4.43697 92.2476 91.8004 4.99785 199.569 4.99785C307.337 4.99785 394.7 92.2476 394.7 199.876C394.7 307.504 307.337 394.754 199.569 394.754C91.8004 394.754 4.43697 307.504 4.43697 199.876Z" fill="#ffffff" fill-rule="nonzero" opacity="1" stroke="#226c56" stroke-linecap="butt" stroke-linejoin="round" stroke-width="5"/>
<path d="M9.75594 200.165C9.75594 95.3079 94.7628 10.3041 199.624 10.3041C304.485 10.3041 389.492 95.3079 389.492 200.165C389.492 305.023 304.485 390.027 199.624 390.027C94.7628 390.027 9.75594 305.023 9.75594 200.165Z" fill="#016b4c" fill-rule="nonzero" opacity="1" stroke="#018760" stroke-linecap="butt" stroke-linejoin="round" stroke-opacity="0" stroke-width="8"/>
<g fill="#ffffff" opacity="1" stroke="#ffffff" stroke-linecap="butt" stroke-linejoin="round" stroke-opacity="0" stroke-width="1">
<path d="M98.904 337.376L100.228 338.211C99.9253 339.479 99.7906 340.956 99.8238 342.644C99.8571 344.331 100.177 345.431 100.784 345.942C101.122 346.219 101.55 346.545 102.067 346.919C102.584 347.293 103.037 347.603 103.427 347.849L104.235 348.359L116.307 329.221C116.568 328.808 116.723 328.397 116.773 327.988C116.822 327.578 116.687 327.145 116.368 326.687C116.169 326.417 115.826 326.053 115.339 325.593C114.851 325.133 114.427 324.758 114.067 324.466L114.913 323.125L128.514 331.704L127.668 333.046C127.314 332.87 126.816 332.624 126.174 332.308C125.533 331.991 125.074 331.81 124.799 331.764C124.236 331.666 123.782 331.724 123.438 331.94C123.094 332.155 122.788 332.475 122.52 332.899L110.339 352.209L111.148 352.719C111.537 352.965 112.013 353.241 112.573 353.546C113.134 353.852 113.612 354.097 114.007 354.283C114.73 354.61 115.86 354.426 117.397 353.729C118.935 353.032 120.21 352.274 121.223 351.455L122.547 352.29L118.144 359.272L94.5002 344.358L98.904 337.376Z"/>
<path d="M72.2768 319.651C72.155 317.726 72.4337 315.811 73.1126 313.905C73.7916 312 74.9494 310.198 76.586 308.5C78.0438 306.987 79.6849 305.792 81.5091 304.915C83.3333 304.038 85.1986 303.568 87.105 303.504C89.0977 303.448 91.0474 303.788 92.9542 304.524C94.8609 305.261 96.7511 306.532 98.6248 308.338C100.137 309.796 101.327 311.423 102.194 313.218C103.061 315.014 103.551 316.879 103.663 318.813C103.785 320.718 103.504 322.621 102.82 324.522C102.136 326.423 101.009 328.189 99.4378 329.818C97.8013 331.516 96.0272 332.776 94.1157 333.597C92.2041 334.419 90.2659 334.833 88.301 334.841C86.3647 334.838 84.4545 334.432 82.5705 333.623C80.6864 332.815 78.9636 331.658 77.4022 330.153C75.8505 328.657 74.6385 327 73.7663 325.18C72.894 323.361 72.3975 321.518 72.2768 319.651ZM90.3588 308.419C89.0637 308.883 87.7778 309.583 86.501 310.517C85.2242 311.451 83.9039 312.626 82.5401 314.041C81.3832 315.241 80.3423 316.492 79.4173 317.794C78.4923 319.095 77.8068 320.387 77.3608 321.67C76.9245 322.963 76.7942 324.211 76.9698 325.416C77.1453 326.621 77.7504 327.721 78.7848 328.718C80.5512 330.421 82.6995 330.877 85.2299 330.088C87.7603 329.298 90.4975 327.376 93.4414 324.322C94.6923 323.024 95.7727 321.702 96.6825 320.358C97.5923 319.014 98.2463 317.705 98.6446 316.433C99.0426 315.141 99.1377 313.929 98.9299 312.797C98.7221 311.665 98.1254 310.624 97.1397 309.674C96.1736 308.743 95.1089 308.187 93.9458 308.007C92.7826 307.827 91.5869 307.965 90.3588 308.419Z"/>
<path d="M67.0582 268.408L73.3406 277.952C72.0794 280.843 71.0874 283.354 70.3645 285.485C69.6416 287.616 68.7519 290.319 67.6952 293.594L68.2765 294.478L75.8502 289.492C76.2578 289.224 76.5546 288.923 76.7408 288.589C76.9269 288.256 76.9709 287.805 76.8727 287.237C76.8291 286.973 76.7203 286.611 76.5463 286.149C76.3723 285.688 76.1776 285.244 75.962 284.818L77.2866 283.946L85.7152 296.75L84.3906 297.622C84.1668 297.331 83.8478 296.921 83.4336 296.39C83.0194 295.859 82.6925 295.511 82.4529 295.344C82.0261 295.041 81.6191 294.903 81.2317 294.931C80.8444 294.959 80.4356 295.114 80.0054 295.397L62.9221 306.643C62.5259 306.904 62.2366 307.192 62.0544 307.506C61.8721 307.821 61.8225 308.275 61.9055 308.87C61.978 309.325 62.1273 309.835 62.3533 310.401C62.5793 310.966 62.7759 311.412 62.9432 311.74L61.6186 312.612L52.9106 299.384L54.2351 298.512C54.5001 298.841 54.8258 299.231 55.2122 299.682C55.5987 300.134 55.964 300.497 56.3083 300.774C56.7461 301.119 57.1719 301.26 57.5858 301.199C57.9996 301.137 58.399 300.98 58.7839 300.726L66.901 295.383L66.4315 294.67C65.0465 294.316 63.4004 293.923 61.4932 293.491C59.5861 293.059 58.0579 292.758 56.9085 292.59C55.3048 292.348 54.0688 292.208 53.2007 292.171C52.3325 292.134 51.6834 292.257 51.2532 292.54C51.0607 292.667 51.0477 292.967 51.2141 293.442C51.3805 293.917 51.7168 294.588 52.223 295.455L50.8984 296.327L44.0013 285.85L45.3258 284.978C46.2963 286.156 47.2261 287.07 48.1151 287.718C49.0041 288.366 50.1074 288.864 51.4248 289.214C53.309 289.71 54.9091 290.089 56.2252 290.35C57.5413 290.612 59.2281 290.949 61.2857 291.364C61.8948 289.405 62.6558 287.03 63.5686 284.238C64.4815 281.447 65.3499 278.693 66.1739 275.976C66.3847 275.285 66.5384 274.551 66.6351 273.774C66.7317 272.996 66.7127 272.222 66.5781 271.45C66.5163 271.085 66.4002 270.699 66.2296 270.292C66.0591 269.885 65.8938 269.548 65.7337 269.28L67.0582 268.408Z"/>
<path d="M31.4574 250.788C31.6863 251.222 31.9319 251.606 32.1942 251.94C32.4565 252.274 32.7555 252.571 33.0912 252.833C33.6071 253.256 34.1846 253.586 34.8237 253.823C35.4629 254.059 36.1519 254.265 36.8908 254.441C38.4114 254.79 40.0522 255.139 41.8132 255.488C43.5742 255.837 45.5081 256.209 47.6149 256.604C48.9598 256.877 49.9502 256.979 50.5861 256.911C51.222 256.843 52.2464 256.532 53.6592 255.976L57.4624 254.481C57.9165 254.303 58.2803 254.062 58.554 253.758C58.8276 253.453 58.9775 253.019 59.0035 252.456C59.0075 252.207 58.9457 251.707 58.8181 250.956C58.6905 250.205 58.5748 249.661 58.4711 249.323L59.947 248.743L65.8297 263.71L64.3538 264.29C64.1898 263.946 63.9398 263.458 63.6038 262.826C63.2678 262.194 62.9973 261.765 62.7923 261.539C62.407 261.152 62.0137 260.939 61.6125 260.9C61.2113 260.861 60.771 260.936 60.2917 261.124L55.5614 262.983C55.1451 263.147 54.7818 263.297 54.4714 263.434C54.161 263.57 53.9134 263.719 53.7287 263.879C53.5238 264.061 53.2774 264.333 52.9895 264.693C52.7017 265.054 52.3283 265.521 51.8693 266.095C50.5481 267.735 49.3029 269.31 48.1335 270.818C46.9642 272.326 45.8721 273.753 44.8573 275.098C44.332 275.8 43.9437 276.451 43.6922 277.053C43.4406 277.654 43.2717 278.234 43.1852 278.792C43.1299 279.207 43.1472 279.677 43.2372 280.202C43.3272 280.728 43.4364 281.191 43.5648 281.592L42.089 282.172L36.0427 266.789L37.5186 266.209C38.1117 267.607 38.5838 268.521 38.9348 268.951C39.2859 269.381 39.6001 269.541 39.8777 269.432C40.0164 269.377 40.258 269.177 40.6024 268.83C40.9467 268.484 41.4624 267.906 42.1493 267.097C42.8007 266.346 43.683 265.275 44.7963 263.883C45.9095 262.492 47.2031 260.837 48.6769 258.918C43.938 258.013 40.6389 257.41 38.7794 257.106C36.92 256.803 35.82 256.719 35.4794 256.852C35.0506 257.021 34.8255 257.412 34.8042 258.024C34.7829 258.637 34.9712 259.543 35.3693 260.74L33.8934 261.321L29.9815 251.368L31.4574 250.788Z"/>
<path d="M27.5163 219.739C28.5645 218.121 29.9287 216.748 31.609 215.622C33.2893 214.495 35.2924 213.737 37.6184 213.348C39.6903 213.001 41.7202 213.018 43.7081 213.4C45.6959 213.781 47.4746 214.514 49.0441 215.598C50.6783 216.74 52.042 218.174 53.1352 219.901C54.2283 221.628 54.9898 223.775 55.4197 226.342C55.7667 228.414 55.7538 230.429 55.381 232.388C55.0082 234.347 54.291 236.137 53.2294 237.757C52.1923 239.36 50.8331 240.722 49.1517 241.842C47.4703 242.961 45.5134 243.708 43.281 244.082C40.9551 244.472 38.7798 244.427 36.7551 243.949C34.7304 243.47 32.9265 242.649 31.3436 241.485C29.7896 240.329 28.4967 238.866 27.4648 237.094C26.4328 235.323 25.7378 233.367 25.3796 231.228C25.0236 229.103 25.037 227.05 25.4198 225.069C25.8026 223.087 26.5015 221.311 27.5163 219.739ZM48.7312 221.484C47.4141 221.086 45.9645 220.882 44.3824 220.872C42.8004 220.863 41.0402 221.02 39.102 221.345C37.4578 221.62 35.8766 222.005 34.3585 222.5C32.8403 222.994 31.5201 223.624 30.3977 224.39C29.2775 225.168 28.4293 226.093 27.853 227.166C27.2767 228.238 27.1073 229.482 27.3446 230.899C27.7498 233.319 29.2039 234.965 31.7068 235.838C34.2098 236.71 37.5533 236.796 41.7373 236.095C43.5151 235.798 45.1698 235.38 46.7013 234.841C48.2327 234.303 49.5374 233.642 50.6152 232.856C51.7042 232.056 52.5023 231.139 53.0095 230.105C53.5167 229.072 53.6573 227.881 53.4311 226.531C53.2095 225.207 52.685 224.127 51.8577 223.29C51.0304 222.453 49.9882 221.851 48.7312 221.484Z"/>
<path d="M53.5766 182.893L52.3884 198.849L50.807 198.731C50.8072 198.364 50.8066 197.824 50.8054 197.11C50.8042 196.397 50.7596 195.901 50.6716 195.622C50.5061 195.107 50.2645 194.746 49.947 194.539C49.6294 194.332 49.2138 194.209 48.7002 194.171L28.3043 192.652C27.8447 192.618 27.4327 192.675 27.0682 192.825C26.7037 192.975 26.3942 193.298 26.1397 193.796C25.9804 194.11 25.8061 194.579 25.6169 195.204C25.4276 195.829 25.2889 196.369 25.2006 196.824L23.6192 196.707L24.8074 180.751L26.3888 180.869C26.3991 181.277 26.4188 181.788 26.4479 182.402C26.4769 183.016 26.5434 183.537 26.6474 183.966C26.7838 184.506 27.0314 184.878 27.39 185.082C27.7486 185.285 28.1644 185.404 28.6375 185.44L49.0132 186.957C49.4997 186.993 49.9222 186.933 50.2804 186.776C50.6387 186.619 50.945 186.292 51.1996 185.795C51.3423 185.52 51.4956 185.059 51.6593 184.412C51.823 183.765 51.935 183.219 51.9952 182.775L53.5766 182.893Z"/>
<path d="M35.0253 141.916C34.9704 142.293 34.9079 142.837 34.8378 143.547C34.7677 144.256 34.8655 144.939 35.131 145.595C35.3609 146.172 35.8797 146.672 36.6874 147.096C37.4952 147.52 38.7327 147.946 40.4 148.374L60.3687 153.495L59.4696 157.001L33.4012 168.868L46.5167 172.232C48.1446 172.65 49.4098 172.859 50.3121 172.859C51.2145 172.86 51.9249 172.668 52.4433 172.283C52.8231 172.003 53.2239 171.504 53.6458 170.787C54.0676 170.069 54.3769 169.491 54.5735 169.052L56.1096 169.446L53.0283 181.458L51.4923 181.064C51.5842 180.542 51.6397 179.93 51.6588 179.229C51.6779 178.527 51.5871 177.912 51.3866 177.385C51.1372 176.776 50.6529 176.277 49.9337 175.89C49.2145 175.502 47.949 175.076 46.1372 174.612L32.9036 171.217C32.2472 171.049 31.6007 170.991 30.9643 171.045C30.3279 171.099 29.7441 171.288 29.2128 171.614C28.6486 171.959 28.1619 172.397 27.7526 172.929C27.3434 173.461 26.9689 174.089 26.6292 174.813L25.0538 174.409L27.7511 163.893L50.576 153.46L40.0009 150.748C38.3205 150.317 37.0413 150.108 36.1636 150.12C35.2858 150.133 34.5877 150.332 34.0692 150.717C33.6696 151.02 33.2655 151.518 32.8569 152.211C32.4484 152.903 32.1458 153.469 31.9491 153.909L30.4131 153.515L33.4892 141.522L35.0253 141.916Z"/>
<path d="M68.0491 137.806C67.2825 139.392 66.3723 140.777 65.3184 141.962C64.2645 143.146 63.2391 144.084 62.2422 144.777L62.9132 146.659L62.1614 148.215L52.6557 143.915L53.4164 142.341C54.4783 142.417 55.6361 142.42 56.89 142.348C58.1438 142.277 59.3352 142.07 60.4642 141.727C61.6415 141.378 62.7091 140.866 63.6668 140.193C64.6246 139.519 65.4012 138.566 65.9968 137.333C66.7988 135.674 67.0077 134.205 66.6237 132.928C66.2397 131.651 65.4314 130.715 64.1988 130.12C63.1859 129.63 62.1534 129.594 61.1012 130.012C60.049 130.429 58.8925 131.304 57.6314 132.636C56.8066 133.502 56.046 134.298 55.3496 135.022C54.6532 135.747 53.9757 136.417 53.3173 137.032C51.7784 138.441 50.1573 139.257 48.4539 139.48C46.7505 139.703 45.0994 139.429 43.5007 138.656C42.4878 138.167 41.6207 137.477 40.8994 136.586C40.1781 135.696 39.6487 134.65 39.3112 133.448C39.0047 132.307 38.9356 131.001 39.1036 129.532C39.2716 128.063 39.7124 126.59 40.4259 125.113C41.1217 123.673 41.9716 122.42 42.9756 121.355C43.9796 120.29 44.8569 119.494 45.6075 118.969L45.0487 117.321L45.8182 115.729L54.7489 119.863L53.9882 121.438C52.8594 121.344 51.6783 121.304 50.4449 121.317C49.2115 121.331 48.1326 121.453 47.2082 121.684C46.2115 121.94 45.3139 122.357 44.5155 122.934C43.7171 123.512 43.0643 124.326 42.5572 125.375C41.9203 126.693 41.7721 127.95 42.1126 129.146C42.4531 130.341 43.1726 131.204 44.2709 131.735C45.3082 132.236 46.3318 132.283 47.3416 131.875C48.3515 131.468 49.4781 130.616 50.7214 129.32C51.4629 128.564 52.2132 127.79 52.9723 126.998C53.7314 126.206 54.4282 125.511 55.0627 124.915C56.6012 123.476 58.194 122.586 59.8413 122.245C61.4885 121.905 63.203 122.165 64.9848 123.026C66.1075 123.568 67.0669 124.355 67.8628 125.387C68.6588 126.419 69.1893 127.548 69.4545 128.775C69.7516 130.123 69.798 131.538 69.5937 133.02C69.3895 134.502 68.8746 136.097 68.0491 137.806Z"/>
<path d="M72.6138 91.1466L71.6933 92.4128C70.4486 92.0273 68.9833 91.7956 67.2972 91.7177C65.6111 91.6397 64.4931 91.8867 63.9432 92.4588C63.6443 92.7777 63.2911 93.1829 62.8836 93.6742C62.4761 94.1655 62.1369 94.5975 61.8659 94.9703L61.304 95.7431L79.6059 109.049C80.0006 109.336 80.4004 109.518 80.8055 109.595C81.2106 109.671 81.6523 109.565 82.1305 109.276C82.4125 109.096 82.7988 108.778 83.2895 108.322C83.7802 107.866 84.183 107.467 84.4978 107.126L85.7805 108.059L76.3239 121.066L75.0412 120.133C75.2395 119.792 75.5177 119.311 75.8758 118.692C76.234 118.072 76.4449 117.627 76.5086 117.354C76.6441 116.799 76.6156 116.343 76.4232 115.985C76.2308 115.628 75.9318 115.301 75.5262 115.006L57.0599 101.581L56.498 102.354C56.227 102.726 55.9206 103.182 55.5789 103.721C55.2372 104.26 54.9608 104.721 54.7496 105.104C54.375 105.804 54.4848 106.943 55.0789 108.523C55.6731 110.103 56.3454 111.426 57.0959 112.491L56.1754 113.757L49.4992 108.903L65.9377 86.2928L72.6138 91.1466Z"/>
<path d="M101.183 91.8226L89.9229 103.19L88.7963 102.074C89.0346 101.794 89.3849 101.383 89.8472 100.839C90.3094 100.296 90.5974 99.8895 90.7111 99.6206C90.9196 99.1212 90.9703 98.6897 90.8632 98.326C90.756 97.9624 90.5195 97.5993 90.1536 97.2368L75.6235 82.8432C75.2961 82.5189 74.9453 82.2953 74.5709 82.1725C74.1966 82.0496 73.7511 82.0949 73.2346 82.3082C72.9094 82.4439 72.4721 82.6879 71.9226 83.0403C71.3732 83.3927 70.9171 83.7136 70.5543 84.0028L69.4277 82.8868L80.6879 71.5198L81.8145 72.6358C81.5572 72.9533 81.2405 73.3549 80.8642 73.8407C80.4879 74.3264 80.2001 74.7663 80.0007 75.1601C79.7539 75.6597 79.7008 76.1032 79.8416 76.4907C79.9824 76.8782 80.2213 77.2388 80.5584 77.5727L95.074 91.952C95.4207 92.2954 95.7811 92.5237 96.1554 92.637C96.5297 92.7502 96.9752 92.7002 97.4917 92.4869C97.7787 92.3705 98.1944 92.1194 98.7388 91.7335C99.2833 91.3475 99.7226 91.0052 100.057 90.7065L101.183 91.8226Z"/>
<path d="M111.804 57.7454L110.544 58.6747C109.474 57.9315 108.147 57.2682 106.563 56.685C104.979 56.1017 103.839 55.9997 103.142 56.3791C102.76 56.5929 102.301 56.8725 101.765 57.2179C101.228 57.5633 100.774 57.8728 100.403 58.1463L99.6341 58.7135L113.066 76.9237C113.355 77.3163 113.682 77.6104 114.045 77.8057C114.408 78.0011 114.861 78.0332 115.404 77.902C115.727 77.8151 116.192 77.6284 116.797 77.3418C117.403 77.0552 117.907 76.797 118.31 76.5671L119.251 77.8433L106.309 87.389L105.368 86.1128C105.66 85.8467 106.071 85.4725 106.599 84.9902C107.127 84.5078 107.463 84.1466 107.606 83.9064C107.903 83.4182 108.013 82.9745 107.938 82.5754C107.862 82.1763 107.676 81.7749 107.378 81.3714L93.8259 62.9976L93.0569 63.5648C92.686 63.8383 92.2563 64.1805 91.7678 64.5914C91.2793 65.0022 90.8766 65.3582 90.5598 65.6593C89.9915 66.2132 89.7521 67.3328 89.8417 69.0183C89.9312 70.7038 90.173 72.1675 90.5669 73.4095L89.3071 74.3388L84.4076 67.6961L106.904 51.1027L111.804 57.7454Z"/>
<path d="M143.315 35.1811C142.974 35.382 142.498 35.7011 141.886 36.1386C141.274 36.576 140.814 37.0595 140.505 37.5889C140.178 38.1117 140.103 38.8173 140.28 39.7056C140.456 40.5939 140.912 41.8388 141.647 43.4401L146.124 53.1962C147.442 56.0664 147.528 58.8227 146.385 61.4651C145.241 64.1075 143.068 66.1637 139.866 67.6335C136.133 69.3465 132.857 69.8284 130.038 69.0793C127.218 68.3301 125.116 66.4465 123.731 63.4286L117.575 50.0139C117.377 49.5828 117.124 49.2514 116.816 49.0198C116.509 48.7881 116.064 48.6565 115.483 48.625C115.09 48.6119 114.636 48.6634 114.123 48.7797C113.609 48.896 113.196 49.0035 112.884 49.1022L112.239 47.6979L125.987 41.3888L126.631 42.7931C126.248 42.9986 125.869 43.2286 125.494 43.4829C125.118 43.7372 124.752 44.0282 124.395 44.3559C123.995 44.7185 123.794 45.1091 123.792 45.5275C123.79 45.9459 123.889 46.3707 124.086 46.8018L130.158 60.0316C131.351 62.6308 132.791 64.2588 134.48 64.9156C136.168 65.5724 138.102 65.4004 140.283 64.3998C142.426 63.4161 143.808 61.9916 144.428 60.1262C145.049 58.2607 144.776 56.0592 143.612 53.5217L139.533 44.634C138.809 43.0573 138.16 41.9273 137.586 41.244C137.011 40.5607 136.423 40.1484 135.821 40.007C135.376 39.883 134.706 39.8924 133.81 40.0353C132.913 40.1782 132.294 40.2986 131.951 40.3963L131.29 38.955L142.653 33.7398L143.315 35.1811Z"/>
<path d="M176.535 34.1909L175.01 34.5442C174.323 33.4375 173.367 32.3023 172.145 31.1386C170.922 29.9749 169.916 29.4289 169.126 29.5007C168.691 29.5458 168.158 29.6204 167.529 29.7245C166.899 29.8287 166.36 29.9328 165.911 30.0368L164.98 30.2524L170.086 52.2964C170.197 52.7718 170.38 53.1711 170.635 53.4944C170.891 53.8178 171.294 54.027 171.845 54.122C172.176 54.1705 172.677 54.1833 173.346 54.1604C174.015 54.1374 174.581 54.1004 175.042 54.0492L175.4 55.5941L159.733 59.2233L159.375 57.6785C159.749 57.5502 160.274 57.3694 160.951 57.1362C161.627 56.903 162.078 56.7045 162.305 56.5408C162.771 56.2102 163.048 55.8468 163.137 55.4505C163.226 55.0542 163.214 54.6118 163.101 54.1233L157.949 31.8812L157.018 32.0969C156.569 32.2009 156.039 32.3446 155.427 32.5279C154.816 32.7113 154.305 32.8783 153.895 33.029C153.153 33.3121 152.49 34.245 151.903 35.8277C151.317 37.4105 150.958 38.85 150.827 40.1464L149.302 40.4997L147.439 32.4585L174.672 26.1497L176.535 34.1909Z"/>
<path d="M206.558 31.7447L205.014 31.804C204.579 30.7221 203.859 29.6375 202.855 28.5503C201.85 27.4632 200.869 26.8362 199.914 26.6695C199.504 26.5903 198.936 26.5544 198.211 26.562C197.485 26.5695 196.886 26.5824 196.412 26.6006L192.227 26.7614L192.654 37.8942L195.62 37.7803C196.365 37.7516 197.039 37.6376 197.642 37.4381C198.244 37.2386 198.787 36.8787 199.269 36.3583C199.568 36.0349 199.862 35.4742 200.15 34.6765C200.438 33.8787 200.618 33.1868 200.691 32.6008L202.235 32.5415L202.697 44.5682L201.153 44.6276C201.05 44.0619 200.816 43.3554 200.451 42.5081C200.086 41.6608 199.748 41.0804 199.438 40.7668C198.972 40.2964 198.431 39.9815 197.815 39.822C197.198 39.6626 196.49 39.5983 195.691 39.629L192.725 39.7429L193.045 48.0519C193.078 48.9187 193.169 49.6036 193.317 50.1065C193.465 50.6095 193.72 50.9896 194.083 51.247C194.431 51.4913 194.902 51.6428 195.494 51.7014C196.086 51.76 196.89 51.7698 197.906 51.7308C198.38 51.7126 198.949 51.6839 199.612 51.6449C200.275 51.6059 200.856 51.5429 201.354 51.4559C201.92 51.3663 202.448 51.2443 202.937 51.0899C203.426 50.9355 203.788 50.7249 204.022 50.4582C204.646 49.7696 205.339 48.7291 206.099 47.3368C206.86 45.9444 207.355 44.9047 207.587 44.2176L209.07 44.1606L208.866 53.1611L181.826 54.2L181.765 52.6154C182.144 52.5737 182.656 52.4998 183.303 52.3936C183.95 52.2873 184.407 52.1748 184.674 52.0561C185.18 51.8196 185.515 51.5321 185.678 51.1935C185.841 50.8549 185.913 50.4283 185.893 49.9136L185.112 29.5779C185.093 29.0903 185.003 28.6902 184.842 28.3777C184.681 28.0651 184.311 27.7911 183.732 27.5556C183.374 27.4066 182.874 27.2767 182.232 27.1657C181.59 27.0547 181.106 26.9851 180.78 26.957L180.719 25.3724L206.276 24.3905L206.558 31.7447Z"/>
<path d="M253.385 35.6436C254.454 37.2486 255.171 39.0459 255.537 41.0355C255.903 43.0251 255.803 45.1645 255.236 47.4537C254.732 49.493 253.909 51.3489 252.769 53.0214C251.629 54.6939 250.25 56.035 248.631 57.0446C246.934 58.0905 245.076 58.7719 243.057 59.0888C241.037 59.4057 238.765 59.2515 236.239 58.6261C234.199 58.1213 232.355 57.3086 230.706 56.1882C229.056 55.0677 227.699 53.6984 226.633 52.0802C225.574 50.4916 224.865 48.7033 224.506 46.7154C224.146 44.7274 224.238 42.6349 224.782 40.4377C225.349 38.1485 226.254 36.17 227.498 34.5022C228.742 32.8343 230.212 31.5054 231.909 30.5153C233.587 29.5483 235.444 28.9433 237.479 28.7003C239.515 28.4574 241.586 28.5964 243.691 29.1176C245.783 29.6355 247.662 30.4637 249.328 31.6022C250.993 32.7407 252.346 34.0878 253.385 35.6436ZM243.354 54.4186C244.243 53.368 245.006 52.1187 245.643 50.6709C246.281 49.223 246.836 47.5453 247.308 45.6376C247.709 44.0193 247.984 42.4154 248.133 40.8256C248.282 39.2359 248.229 37.774 247.973 36.44C247.703 35.1027 247.191 33.9566 246.436 33.0018C245.681 32.0469 244.607 31.3968 243.212 31.0516C240.831 30.462 238.742 31.1423 236.947 33.0925C235.152 35.0427 233.744 38.0767 232.725 42.1947C232.292 43.9445 232.018 45.629 231.903 47.2482C231.788 48.8675 231.877 50.3276 232.17 51.6287C232.472 52.9462 232.996 54.0429 233.743 54.9189C234.489 55.7949 235.527 56.3974 236.856 56.7263C238.158 57.0488 239.358 56.9968 240.455 56.5702C241.552 56.1436 242.518 55.4264 243.354 54.4186Z"/>
<path d="M285.601 54.4624L284.186 53.7924C284.312 52.6075 284.197 51.2292 283.839 49.6575C283.481 48.0858 282.924 47.0533 282.167 46.5602C281.823 46.3372 281.353 46.0623 280.758 45.7355C280.163 45.4087 279.609 45.1234 279.094 44.8798L275.033 42.9567L270.187 53.191L272.777 54.418C273.512 54.766 274.188 54.985 274.806 55.0749C275.423 55.1648 276.041 55.094 276.661 54.8625C277.112 54.7013 277.651 54.3306 278.279 53.7503C278.906 53.17 279.372 52.6372 279.677 52.1517L281.073 52.8131L275.878 63.7824L274.482 63.121C274.694 62.5466 274.822 61.786 274.865 60.8393C274.909 59.8926 274.875 59.2355 274.764 58.868C274.594 58.3078 274.279 57.8023 273.818 57.3513C273.356 56.9004 272.74 56.4922 271.968 56.1268L269.377 54.8998L265.287 63.5356C265.079 63.9766 264.983 64.3924 265 64.7831C265.018 65.1738 265.213 65.5773 265.585 65.9937C265.803 66.2316 266.125 66.5082 266.553 66.8234C266.982 67.1386 267.417 67.4309 267.859 67.7004L267.18 69.1335L253.124 62.4767L253.803 61.0435C254.176 61.175 254.672 61.3463 255.292 61.5574C255.912 61.7684 256.361 61.8801 256.64 61.8923C257.162 61.9297 257.582 61.8358 257.898 61.6108C258.215 61.3858 258.486 61.0344 258.712 60.5567L267.423 42.1643C267.62 41.7478 267.716 41.3471 267.711 40.9623C267.706 40.5774 267.514 40.1677 267.135 39.7332C266.861 39.4238 266.472 39.0744 265.966 38.6851C265.461 38.2957 265.07 38.0131 264.793 37.8371L265.472 36.4039L288.899 47.4987L285.601 54.4624Z"/>
<path d="M320.125 81.2242L318.922 80.2218C319.389 79.0054 319.717 77.5586 319.907 75.8814C320.096 74.2042 319.924 73.0723 319.389 72.4856C319.091 72.1663 318.71 71.7871 318.247 71.3479C317.783 70.9088 317.375 70.5417 317.021 70.2467L316.287 69.6348L301.798 87.0158C301.486 87.3906 301.278 87.7776 301.175 88.1767C301.071 88.5758 301.148 89.0235 301.405 89.5199C301.566 89.8132 301.858 90.2197 302.281 90.7395C302.703 91.2593 303.074 91.6876 303.393 92.0243L302.378 93.2424L290.025 82.9455L291.041 81.7274C291.369 81.9479 291.83 82.2573 292.424 82.6556C293.018 83.054 293.449 83.294 293.716 83.3756C294.261 83.5474 294.718 83.5492 295.088 83.381C295.458 83.2127 295.803 82.936 296.124 82.5508L310.743 65.0136L310.009 64.4018C309.655 64.1067 309.22 63.7709 308.705 63.3942C308.19 63.0176 307.748 62.7112 307.38 62.4751C306.707 62.0551 305.562 62.0892 303.947 62.5775C302.331 63.0657 300.967 63.649 299.855 64.3274L298.652 63.325L303.937 56.9848L325.41 74.8839L320.125 81.2242Z"/>
<path d="M340.181 103.728L339.204 102.532C339.805 101.533 340.237 100.305 340.499 98.8479C340.762 97.3909 340.671 96.2307 340.229 95.3674C340.045 94.9925 339.731 94.5178 339.288 93.9434C338.845 93.369 338.474 92.8982 338.174 92.5308L335.524 89.2876L326.896 96.3364L328.774 98.6351C329.246 99.2123 329.743 99.6814 330.265 100.042C330.787 100.403 331.401 100.619 332.107 100.69C332.546 100.734 333.17 100.631 333.98 100.38C334.791 100.13 335.452 99.8566 335.963 99.5613L336.94 100.758L327.62 108.373L326.642 107.176C327.032 106.753 327.455 106.141 327.911 105.339C328.368 104.537 328.627 103.918 328.691 103.481C328.785 102.826 328.711 102.205 328.467 101.617C328.222 101.029 327.847 100.425 327.341 99.8056L325.463 97.507L319.024 102.768C318.352 103.317 317.861 103.802 317.548 104.223C317.236 104.644 317.087 105.077 317.1 105.522C317.115 105.947 317.277 106.414 317.587 106.922C317.897 107.43 318.374 108.077 319.017 108.864C319.317 109.232 319.683 109.668 320.113 110.174C320.544 110.68 320.944 111.105 321.314 111.451C321.727 111.849 322.142 112.196 322.56 112.494C322.978 112.791 323.364 112.953 323.717 112.979C324.643 113.062 325.891 112.988 327.46 112.756C329.03 112.524 330.158 112.293 330.846 112.064L331.785 113.213L324.479 118.474L307.358 97.5185L308.586 96.5152C308.847 96.792 309.215 97.1565 309.69 97.6089C310.164 98.0612 310.529 98.3581 310.785 98.4994C311.279 98.761 311.71 98.855 312.079 98.7814C312.447 98.7077 312.831 98.508 313.23 98.1821L328.99 85.3063C329.367 84.9976 329.632 84.6848 329.785 84.3678C329.937 84.0508 329.933 83.5905 329.772 82.9867C329.675 82.6109 329.478 82.1335 329.18 81.5544C328.881 80.9753 328.645 80.547 328.471 80.2694L329.699 79.2661L345.881 99.0719L340.181 103.728Z"/>
<path d="M331.972 133.734C330.975 131.87 330.343 129.964 330.077 128.015C329.811 126.067 329.929 124.183 330.431 122.362C330.921 120.578 331.812 118.902 333.102 117.336C334.393 115.769 336.031 114.455 338.014 113.394C339.986 112.339 341.996 111.706 344.042 111.495C346.089 111.284 348.06 111.47 349.956 112.055C351.815 112.628 353.534 113.592 355.111 114.946C356.689 116.3 357.999 117.951 359.041 119.899C359.795 121.309 360.312 122.685 360.592 124.027C360.871 125.368 361.01 126.554 361.008 127.585L362.589 128.169L363.423 129.729L354.224 134.858L353.38 133.28C355.733 130.868 357.237 128.68 357.892 126.716C358.547 124.751 358.392 122.867 357.427 121.062C356.225 118.816 354.321 117.636 351.717 117.522C349.113 117.409 346.024 118.309 342.45 120.22C340.431 121.301 338.814 122.423 337.6 123.588C336.386 124.752 335.515 125.89 334.988 127.002C334.451 128.181 334.222 129.356 334.303 130.527C334.384 131.698 334.731 132.858 335.345 134.005C336.24 135.678 337.492 136.926 339.1 137.749C340.709 138.572 342.721 139.028 345.136 139.119L345.029 141.16C343.702 141.208 342.448 141.126 341.266 140.913C340.084 140.7 338.964 140.324 337.906 139.783C336.743 139.19 335.672 138.422 334.691 137.479C333.709 136.536 332.803 135.288 331.972 133.734Z"/>
<path d="M348.773 179.216L344.587 164.195L346.114 163.769C346.231 164.088 346.403 164.554 346.63 165.166C346.857 165.778 347.056 166.187 347.226 166.393C347.556 166.822 347.907 167.083 348.277 167.177C348.648 167.27 349.082 167.248 349.578 167.11L359.155 164.441L355.847 152.573L346.486 155.182C346.042 155.305 345.67 155.511 345.37 155.798C345.071 156.086 344.887 156.486 344.818 156.997C344.783 157.274 344.79 157.73 344.84 158.363C344.89 158.996 344.954 159.506 345.034 159.892L343.506 160.317L339.32 145.296L340.848 144.871C340.952 145.193 341.128 145.661 341.376 146.275C341.624 146.888 341.841 147.323 342.025 147.582C342.326 148.004 342.675 148.259 343.072 148.345C343.469 148.432 343.902 148.409 344.372 148.278L364.035 142.799C364.492 142.671 364.854 142.482 365.122 142.232C365.39 141.981 365.57 141.569 365.663 140.994C365.728 140.568 365.743 140.029 365.709 139.377C365.675 138.726 365.633 138.259 365.582 137.978L367.11 137.552L371.296 152.573L369.769 152.999C369.63 152.601 369.43 152.136 369.169 151.604C368.908 151.072 368.69 150.668 368.515 150.393C368.203 149.931 367.839 149.671 367.421 149.611C367.003 149.552 366.586 149.58 366.168 149.697L357.864 152.011L361.172 163.879L369.28 161.619C369.736 161.492 370.098 161.3 370.364 161.042C370.63 160.785 370.81 160.37 370.903 159.795C370.965 159.412 370.985 158.917 370.964 158.311C370.943 157.705 370.905 157.227 370.849 156.876L372.377 156.451L376.563 171.472L375.035 171.897C374.893 171.487 374.706 171.032 374.476 170.534C374.245 170.035 374.007 169.595 373.76 169.214C373.452 168.765 373.091 168.506 372.678 168.439C372.266 168.371 371.844 168.397 371.413 168.517L351.731 174.002C351.261 174.133 350.886 174.329 350.607 174.589C350.328 174.85 350.147 175.259 350.063 175.817C350.02 176.167 350.029 176.654 350.09 177.277C350.151 177.9 350.221 178.405 350.3 178.79L348.773 179.216Z"/>
<path d="M377.282 212.833C377.228 212.455 377.134 211.916 377 211.215C376.866 210.515 376.578 209.888 376.138 209.334C375.754 208.847 375.114 208.514 374.219 208.336C373.324 208.159 372.017 208.101 370.297 208.164L349.695 208.916L349.563 205.3L371.196 186.526L357.664 187.02C355.985 187.081 354.712 187.24 353.847 187.495C352.981 187.75 352.355 188.136 351.967 188.652C351.682 189.029 351.439 189.621 351.238 190.428C351.037 191.236 350.905 191.878 350.841 192.355L349.256 192.413L348.803 180.02L350.388 179.962C350.448 180.489 350.568 181.091 350.749 181.769C350.93 182.448 351.191 183.011 351.533 183.46C351.945 183.974 352.551 184.315 353.35 184.482C354.15 184.649 355.484 184.699 357.353 184.631L371.006 184.132C371.684 184.108 372.32 183.979 372.915 183.747C373.51 183.516 374.016 183.168 374.433 182.705C374.876 182.215 375.219 181.656 375.46 181.03C375.702 180.404 375.883 179.696 376.003 178.905L377.629 178.845L378.025 189.695L359.096 206.173L370.006 205.774C371.74 205.711 373.026 205.549 373.864 205.288C374.702 205.026 375.315 204.638 375.703 204.122C376 203.718 376.247 203.126 376.442 202.345C376.637 201.565 376.767 200.937 376.831 200.46L378.416 200.402L378.867 212.775L377.282 212.833Z"/>
<path d="M370.029 245.38C368.484 246.534 366.729 247.348 364.762 247.821C362.795 248.295 360.653 248.31 358.337 247.868C356.273 247.475 354.375 246.754 352.644 245.706C350.912 244.658 349.498 243.354 348.402 241.793C347.266 240.155 346.485 238.336 346.059 236.337C345.633 234.338 345.664 232.06 346.151 229.504C346.545 227.44 347.256 225.555 348.286 223.847C349.315 222.139 350.609 220.71 352.167 219.558C353.696 218.415 355.443 217.61 357.409 217.143C359.374 216.676 361.469 216.655 363.692 217.079C366.009 217.521 368.033 218.317 369.766 219.469C371.499 220.62 372.906 222.017 373.986 223.658C375.043 225.28 375.747 227.102 376.1 229.121C376.453 231.141 376.427 233.216 376.02 235.346C375.617 237.463 374.891 239.384 373.845 241.109C372.798 242.834 371.526 244.258 370.029 245.38ZM350.738 236.381C351.835 237.211 353.124 237.906 354.604 238.464C356.085 239.022 357.79 239.485 359.721 239.854C361.358 240.166 362.975 240.354 364.57 240.416C366.166 240.479 367.622 240.347 368.941 240.019C370.261 239.677 371.378 239.104 372.291 238.298C373.203 237.493 373.794 236.384 374.063 234.973C374.523 232.563 373.73 230.515 371.686 228.828C369.641 227.141 366.535 225.9 362.368 225.105C360.598 224.767 358.901 224.585 357.278 224.558C355.655 224.532 354.201 224.699 352.918 225.062C351.619 225.435 350.552 226.018 349.718 226.811C348.884 227.604 348.338 228.672 348.082 230.017C347.83 231.335 347.947 232.53 348.433 233.603C348.918 234.675 349.687 235.601 350.738 236.381Z"/>
<path d="M341.447 275.199L333.113 271.145L343.246 246.581L344.712 247.186C344.569 247.64 344.417 248.178 344.255 248.801C344.094 249.423 344.012 249.844 344.009 250.063C343.999 250.586 344.114 251 344.355 251.305C344.595 251.609 344.96 251.862 345.449 252.064L364.262 259.825C364.713 260.011 365.114 260.096 365.465 260.08C365.816 260.063 366.22 259.841 366.675 259.413C367.01 259.097 367.344 258.689 367.675 258.187C368.007 257.686 368.265 257.283 368.449 256.978L369.915 257.583L363.875 272.223L362.409 271.619C362.537 271.202 362.679 270.707 362.835 270.134C362.991 269.56 363.089 269.047 363.129 268.595C363.168 268.039 363.048 267.608 362.771 267.303C362.494 266.998 362.136 266.755 361.697 266.574L344.162 259.341C343.335 259 342.661 258.787 342.138 258.703C341.615 258.62 341.174 258.694 340.814 258.927C340.442 259.155 340.101 259.545 339.792 260.1C339.482 260.654 339.116 261.445 338.692 262.472C338.278 263.474 337.936 264.473 337.665 265.468C337.394 266.463 337.373 267.25 337.604 267.829C337.979 268.732 338.608 269.757 339.49 270.906C340.373 272.054 341.214 273.028 342.013 273.827L341.447 275.199Z"/>
<path d="M339.209 308.519C337.335 308.973 335.4 309.03 333.406 308.692C331.411 308.354 329.436 307.526 327.48 306.208C325.738 305.034 324.276 303.625 323.096 301.981C321.916 300.336 321.13 298.581 320.736 296.714C320.336 294.761 320.333 292.782 320.728 290.777C321.123 288.771 322.047 286.689 323.501 284.531C324.675 282.788 326.071 281.335 327.689 280.169C329.307 279.004 331.059 278.199 332.944 277.753C334.8 277.303 336.723 277.25 338.713 277.594C340.704 277.938 342.638 278.743 344.515 280.007C346.471 281.325 348.019 282.854 349.16 284.594C350.3 286.334 351.044 288.171 351.392 290.105C351.725 292.013 351.656 293.964 351.186 295.96C350.716 297.956 349.875 299.853 348.664 301.651C347.46 303.439 346.038 304.92 344.397 306.094C342.756 307.269 341.027 308.077 339.209 308.519ZM325.013 292.658C325.695 293.853 326.607 294.998 327.748 296.093C328.89 297.189 330.275 298.286 331.905 299.384C333.288 300.315 334.7 301.123 336.142 301.809C337.585 302.494 338.976 302.945 340.317 303.162C341.666 303.368 342.918 303.28 344.074 302.898C345.23 302.517 346.209 301.73 347.011 300.538C348.382 298.504 348.459 296.309 347.243 293.953C346.027 291.598 343.659 289.236 340.141 286.866C338.646 285.859 337.157 285.023 335.676 284.36C334.194 283.697 332.792 283.28 331.47 283.108C330.128 282.94 328.918 283.057 327.839 283.458C326.761 283.858 325.839 284.627 325.074 285.762C324.324 286.875 323.962 288.02 323.986 289.196C324.011 290.373 324.353 291.527 325.013 292.658Z"/>
<path d="M299 329.872C299.277 329.554 299.516 329.263 299.715 329C299.914 328.738 300.135 328.379 300.378 327.926C300.66 327.416 300.726 326.953 300.575 326.537C300.423 326.12 300.194 325.749 299.887 325.424L297.582 322.987C297.117 322.494 296.737 322.103 296.443 321.812C296.149 321.521 295.783 321.163 295.344 320.738C295.77 319.216 296.699 317.284 298.131 314.941C299.563 312.599 301.086 310.664 302.702 309.137C304.218 307.703 305.86 306.589 307.627 305.795C309.394 305.001 311.218 304.591 313.098 304.567C314.968 304.533 316.834 304.924 318.695 305.738C320.557 306.552 322.316 307.836 323.973 309.589C325.519 311.224 326.678 312.992 327.449 314.892C328.22 316.793 328.569 318.73 328.494 320.703C328.43 322.647 327.933 324.573 327.002 326.478C326.072 328.384 324.73 330.166 322.977 331.824C321.785 332.95 320.545 333.848 319.256 334.516C317.967 335.185 316.834 335.664 315.857 335.953L315.71 337.631L314.424 338.847L307.056 331.32L308.356 330.091C311.274 331.678 313.782 332.534 315.878 332.66C317.974 332.786 319.82 332.095 321.415 330.586C323.306 328.798 323.984 326.591 323.449 323.963C322.913 321.335 321.272 318.569 318.525 315.664C315.611 312.581 312.825 310.645 310.167 309.857C307.509 309.068 305.255 309.549 303.403 311.3C302.537 312.119 301.889 312.978 301.461 313.877C301.034 314.776 300.795 315.575 300.747 316.273L304.77 320.528C305.105 320.882 305.451 321.119 305.807 321.24C306.163 321.36 306.617 321.327 307.169 321.141C307.595 321 308.071 320.764 308.598 320.433C309.125 320.103 309.555 319.818 309.887 319.578L310.977 320.73L300.09 331.024L299 329.872Z"/>
<path d="M278.804 360.428C279.192 360.127 279.528 359.818 279.811 359.502C280.094 359.186 280.335 358.839 280.533 358.463C280.861 357.882 281.085 357.255 281.207 356.585C281.329 355.914 281.412 355.2 281.456 354.442C281.535 352.884 281.593 351.207 281.63 349.412C281.667 347.617 281.697 345.648 281.719 343.505C281.753 342.133 281.682 341.14 281.504 340.526C281.327 339.911 280.841 338.957 280.049 337.662L277.915 334.177C277.66 333.761 277.359 333.445 277.012 333.228C276.664 333.012 276.211 332.94 275.652 333.012C275.406 333.052 274.924 333.2 274.207 333.456C273.49 333.712 272.974 333.921 272.659 334.082L271.831 332.73L285.545 324.331L286.373 325.684C286.064 325.905 285.627 326.236 285.063 326.677C284.498 327.118 284.123 327.459 283.937 327.7C283.622 328.147 283.481 328.571 283.513 328.973C283.544 329.375 283.694 329.795 283.963 330.235L286.618 334.569C286.851 334.951 287.062 335.282 287.251 335.564C287.439 335.846 287.628 336.064 287.818 336.218C288.033 336.388 288.344 336.583 288.749 336.804C289.154 337.025 289.679 337.311 290.324 337.663C292.17 338.679 293.937 339.631 295.626 340.52C297.314 341.409 298.909 342.236 300.411 343.001C301.193 343.396 301.902 343.665 302.538 343.808C303.174 343.951 303.774 344.016 304.339 344.004C304.757 343.987 305.217 343.888 305.719 343.708C306.221 343.528 306.658 343.339 307.03 343.143L307.858 344.495L293.763 353.127L292.935 351.775C294.208 350.948 295.026 350.324 295.388 349.903C295.75 349.483 295.854 349.145 295.698 348.891C295.62 348.764 295.381 348.561 294.979 348.282C294.578 348.003 293.92 347.596 293.003 347.06C292.15 346.55 290.942 345.867 289.378 345.013C287.814 344.159 285.959 343.174 283.812 342.056C283.747 346.88 283.727 350.234 283.752 352.118C283.777 354.002 283.885 355.1 284.076 355.412C284.317 355.805 284.741 355.958 285.348 355.873C285.955 355.787 286.814 355.444 287.924 354.843L288.752 356.196L279.632 361.78L278.804 360.428Z"/>
</g>
<path d="M66.8247 200.933C66.8247 126.803 126.919 66.7087 201.049 66.7087C275.18 66.7087 335.274 126.803 335.274 200.933C335.274 275.064 275.18 335.158 201.049 335.158C126.919 335.158 66.8247 275.064 66.8247 200.933Z" fill="#ffffff" fill-rule="nonzero" opacity="1" stroke="#034f38" stroke-linecap="butt" stroke-linejoin="round" stroke-opacity="0" stroke-width="2.56555"/>
<path d="M72.9088 200.573C72.9088 129.908 130.194 72.6231 200.858 72.6231C271.523 72.6231 328.808 129.908 328.808 200.573C328.808 271.237 271.523 328.522 200.858 328.522C130.194 328.522 72.9088 271.237 72.9088 200.573Z" fill="#ffffff" fill-opacity="0" fill-rule="nonzero" opacity="1" stroke="#236d57" stroke-linecap="butt" stroke-linejoin="round" stroke-width="5"/>
</g>
<g id="レイヤー-2">
<g fill="#016b4c" filter="url(#Filter)" stroke="none">
<path d="M149.567 292.848C151.652 294.085 153.613 295.56 155.45 297.273C157.288 298.987 158.206 301.151 158.206 303.766C158.206 307.511 156.855 310.453 154.152 312.59C151.449 314.728 148.048 315.797 143.949 315.797C141.441 315.797 139.294 315.452 137.51 314.763C135.726 314.074 133.685 313.518 131.388 313.094C131.353 311.822 131.335 310.126 131.335 308.006C131.335 305.886 131.282 304.013 131.176 302.388C131.176 302.282 131.327 302.185 131.627 302.096C131.927 302.008 132.183 301.964 132.395 301.964C132.643 301.964 132.881 301.999 133.111 302.07C133.341 302.141 133.473 302.247 133.508 302.388C134.18 305.533 135.584 308.13 137.722 310.179C139.86 312.228 141.935 313.253 143.949 313.253C145.999 313.253 147.474 312.802 148.375 311.901C149.276 311 149.726 309.773 149.726 308.218C149.726 306.31 148.808 304.702 146.97 303.395C145.133 302.088 143.154 300.816 141.034 299.579C138.879 298.342 136.883 296.876 135.045 295.18C133.208 293.484 132.289 291.399 132.289 288.926C132.289 285.64 133.535 282.875 136.026 280.631C138.517 278.388 141.935 277.266 146.281 277.266C148.225 277.266 149.903 277.504 151.316 277.981C152.73 278.458 154.249 278.856 155.874 279.174C155.91 280.446 155.972 282.036 156.06 283.944C156.148 285.852 156.263 287.424 156.404 288.661C156.404 288.767 156.254 288.864 155.954 288.952C155.654 289.041 155.415 289.085 155.238 289.085C154.991 289.085 154.744 289.05 154.496 288.979C154.249 288.908 154.09 288.802 154.019 288.661C153.348 285.905 152.359 283.741 151.051 282.168C149.744 280.596 148.136 279.81 146.228 279.81C144.568 279.81 143.26 280.252 142.306 281.135C141.352 282.018 140.875 283.131 140.875 284.474C140.875 286.241 141.768 287.751 143.552 289.005C145.336 290.26 147.341 291.541 149.567 292.848Z"/>
<path d="M192.027 302.388C192.027 306.027 190.835 309.163 188.45 311.795C186.065 314.428 182.788 315.744 178.618 315.744C177.523 315.744 176.578 315.638 175.783 315.426C174.988 315.214 174.272 314.931 173.636 314.578L173.636 321.892C173.636 323.588 173.919 324.719 174.484 325.284C175.05 325.849 176.11 326.203 177.664 326.344C177.77 326.344 177.868 326.494 177.956 326.794C178.044 327.095 178.088 327.333 178.088 327.51C178.088 327.722 178.044 327.969 177.956 328.252C177.868 328.535 177.77 328.676 177.664 328.676C176.534 328.676 175.138 328.632 173.477 328.543C171.817 328.455 170.368 328.411 169.131 328.411C167.895 328.411 166.508 328.455 164.971 328.543C163.434 328.632 162.135 328.676 161.075 328.676C160.969 328.676 160.872 328.543 160.784 328.278C160.696 328.013 160.651 327.757 160.651 327.51C160.651 327.333 160.696 327.104 160.784 326.821C160.872 326.538 160.969 326.379 161.075 326.344C162.63 326.167 163.611 325.823 164.017 325.31C164.423 324.798 164.626 323.659 164.626 321.892L164.626 299.897C164.626 298.519 164.459 297.6 164.123 297.141C163.787 296.682 162.983 296.381 161.711 296.24C161.605 296.205 161.508 296.054 161.42 295.789C161.332 295.524 161.287 295.304 161.287 295.127C161.287 294.95 161.332 294.729 161.42 294.464C161.508 294.199 161.605 294.067 161.711 294.067C162.913 293.749 164.565 293.192 166.667 292.397C168.769 291.602 170.315 290.958 171.304 290.463C171.41 290.392 171.587 290.304 171.834 290.198C172.082 290.092 172.294 290.039 172.47 290.039C172.894 290.039 173.204 290.118 173.398 290.277C173.592 290.436 173.672 290.587 173.636 290.728L173.424 294.862C174.025 293.731 174.97 292.715 176.26 291.814C177.55 290.913 179.237 290.463 181.321 290.463C184.643 290.463 187.257 291.611 189.165 293.908C191.073 296.205 192.027 299.031 192.027 302.388ZM181.745 310.232C182.028 309.384 182.214 308.342 182.302 307.105C182.39 305.868 182.434 304.437 182.434 302.812C182.434 299.95 182.028 297.883 181.215 296.611C180.403 295.339 179.343 294.703 178.035 294.703C176.94 294.703 176.119 294.915 175.571 295.339C175.023 295.763 174.378 296.646 173.636 297.989L173.636 309.225C173.636 310.462 173.954 311.442 174.59 312.166C175.226 312.891 176.216 313.253 177.558 313.253C178.724 313.253 179.643 312.988 180.314 312.458C180.986 311.928 181.463 311.186 181.745 310.232Z"/>
<path d="M221.714 312.405C221.679 312.511 221.661 312.599 221.661 312.67C221.661 312.741 221.608 312.811 221.502 312.882C220.831 313.659 219.789 314.295 218.375 314.79C216.962 315.285 215.513 315.532 214.029 315.532C212.581 315.532 211.406 315.205 210.505 314.551C209.604 313.898 209.012 313.023 208.729 311.928C207.917 313.165 206.883 314.074 205.629 314.657C204.375 315.24 202.829 315.532 200.991 315.532C198.977 315.532 197.273 315.073 195.877 314.154C194.481 313.235 193.783 311.84 193.783 309.967C193.783 307.882 194.932 306.186 197.228 304.879C199.525 303.572 203.376 302.317 208.782 301.116L208.941 295.922C208.941 294.827 208.782 294.102 208.464 293.749C208.146 293.396 207.616 293.219 206.874 293.219C206.132 293.219 205.452 293.36 204.834 293.643C204.216 293.926 203.871 294.509 203.8 295.392C203.624 297.583 203.164 299.102 202.422 299.95C201.68 300.798 200.585 301.222 199.136 301.222C197.829 301.222 196.831 300.842 196.142 300.082C195.453 299.323 195.108 298.413 195.108 297.353C195.108 295.586 196.548 293.961 199.428 292.477C202.308 290.993 205.532 290.251 209.1 290.251C212.351 290.251 214.568 291.064 215.752 292.689C216.936 294.314 217.474 296.523 217.368 299.314L217.103 308.536C217.033 309.773 217.209 310.576 217.633 310.947C218.057 311.318 218.464 311.504 218.852 311.504C219.17 311.504 219.471 311.451 219.753 311.345C220.036 311.239 220.283 311.098 220.495 310.921C220.637 310.815 220.875 310.947 221.211 311.318C221.547 311.689 221.714 312.052 221.714 312.405ZM208.676 303.077C206.592 303.572 205.09 304.243 204.171 305.091C203.253 305.939 202.793 307.158 202.793 308.748C202.793 309.631 203.032 310.338 203.509 310.868C203.986 311.398 204.648 311.663 205.496 311.663C206.203 311.663 206.848 311.442 207.431 311C208.014 310.559 208.376 309.72 208.517 308.483L208.676 303.077Z"/>
<path d="M246.419 296.77C246.419 297.724 246.119 298.598 245.518 299.393C244.918 300.188 244.034 300.586 242.868 300.586C241.526 300.586 240.581 300.197 240.033 299.42C239.485 298.643 239.07 297.759 238.787 296.77C238.54 295.887 238.222 295.03 237.833 294.199C237.445 293.369 236.756 292.954 235.766 292.954C234.388 292.954 233.302 293.599 232.507 294.888C231.712 296.178 231.314 298.749 231.314 302.6C231.314 305.285 231.703 307.458 232.48 309.119C233.258 310.78 234.901 311.61 237.409 311.61C238.787 311.61 240.165 311.336 241.543 310.788C242.921 310.241 243.964 309.614 244.67 308.907C244.706 308.836 244.821 308.863 245.015 308.986C245.209 309.11 245.359 309.243 245.465 309.384C245.642 309.561 245.792 309.746 245.916 309.94C246.04 310.135 246.101 310.303 246.101 310.444C246.101 310.515 246.093 310.585 246.075 310.656C246.057 310.727 246.031 310.797 245.995 310.868C245.041 312.211 243.61 313.359 241.702 314.313C239.794 315.267 237.639 315.744 235.236 315.744C231.668 315.744 228.523 314.596 225.802 312.299C223.082 310.002 221.721 306.911 221.721 303.024C221.721 299.137 223.073 296.072 225.776 293.828C228.479 291.585 231.809 290.463 235.766 290.463C238.381 290.463 240.81 291.072 243.054 292.291C245.298 293.51 246.419 295.003 246.419 296.77Z"/>
<path d="M273.244 300.745C273.244 300.992 273.156 301.187 272.979 301.328C272.803 301.469 272.555 301.54 272.237 301.54L257.609 301.54C257.574 301.787 257.556 302.114 257.556 302.52C257.556 302.927 257.556 303.307 257.556 303.66C257.556 306.628 258.042 308.695 259.014 309.861C259.986 311.027 261.39 311.61 263.227 311.61C264.499 311.61 265.93 311.292 267.52 310.656C269.11 310.02 270.259 309.225 270.965 308.271C271.001 308.2 271.107 308.227 271.283 308.35C271.46 308.474 271.619 308.589 271.76 308.695C271.937 308.872 272.087 309.057 272.211 309.251C272.335 309.446 272.396 309.631 272.396 309.808C272.396 309.879 272.388 309.949 272.37 310.02C272.352 310.091 272.308 310.161 272.237 310.232C271.354 311.504 270.047 312.741 268.315 313.942C266.584 315.143 264.27 315.744 261.372 315.744C257.592 315.744 254.412 314.525 251.832 312.087C249.253 309.649 247.963 306.769 247.963 303.448C247.963 299.703 249.191 296.602 251.647 294.146C254.103 291.691 257.344 290.463 261.372 290.463C265.047 290.463 267.944 291.452 270.064 293.431C272.184 295.41 273.244 297.848 273.244 300.745ZM264.446 296.77C264.446 295.71 264.208 294.809 263.731 294.067C263.254 293.325 262.538 292.954 261.584 292.954C260.418 292.954 259.553 293.519 258.987 294.65C258.422 295.781 258.051 297.265 257.874 299.102L262.22 298.996C262.998 298.961 263.563 298.81 263.916 298.545C264.27 298.28 264.446 297.689 264.446 296.77Z"/>
</g>
<g fill="#016b4c" filter="url(#Filter_2)" stroke="none">
<path d="M138.79 234.32C138.79 234.497 138.746 234.735 138.658 235.036C138.569 235.336 138.472 235.486 138.366 235.486C136.387 235.698 135.001 236.131 134.206 236.785C133.411 237.438 132.995 238.49 132.96 239.938L132.377 270.201C132.377 270.307 132.262 270.422 132.033 270.546C131.803 270.669 131.423 270.731 130.893 270.731C130.504 270.731 130.169 270.705 129.886 270.652C129.603 270.599 129.391 270.484 129.25 270.307L103.492 244.284L103.174 263.205C103.103 264.583 103.474 265.617 104.287 266.306C105.1 266.995 106.531 267.445 108.58 267.657C108.686 267.657 108.783 267.79 108.872 268.055C108.96 268.32 109.004 268.576 109.004 268.823C109.004 269.035 108.96 269.283 108.872 269.565C108.783 269.848 108.686 269.989 108.58 269.989C107.237 269.989 106.001 269.945 104.87 269.857C103.739 269.768 102.556 269.724 101.319 269.724C100.047 269.724 98.8723 269.768 97.7946 269.857C96.717 269.945 95.5775 269.989 94.3761 269.989C94.2701 269.989 94.173 269.848 94.0846 269.565C93.9963 269.283 93.9521 269.035 93.9521 268.823C93.9521 268.576 94.0051 268.329 94.1111 268.081C94.2171 267.834 94.3231 267.693 94.4291 267.657C96.4431 267.445 97.8388 267.004 98.6161 266.332C99.3935 265.661 99.7821 264.619 99.7821 263.205L100.63 241.634C100.665 239.726 100.277 238.286 99.4641 237.315C98.6515 236.343 97.1145 235.734 94.8531 235.486C94.7471 235.451 94.6588 235.292 94.5881 235.009C94.5175 234.727 94.4821 234.497 94.4821 234.32C94.4821 234.073 94.5263 233.817 94.6146 233.552C94.703 233.287 94.8001 233.154 94.9061 233.154C95.7541 233.154 96.7611 233.198 97.9271 233.287C99.0931 233.375 100.047 233.419 100.789 233.419C101.743 233.419 102.644 233.375 103.492 233.287C104.34 233.198 105.435 233.154 106.778 233.154L129.78 257.11L129.78 239.938C129.78 238.49 129.356 237.447 128.508 236.811C127.66 236.175 126.211 235.734 124.162 235.486C124.056 235.451 123.959 235.31 123.871 235.062C123.782 234.815 123.738 234.568 123.738 234.32C123.738 234.108 123.782 233.861 123.871 233.578C123.959 233.296 124.056 233.154 124.162 233.154C125.54 233.154 126.715 233.207 127.687 233.313C128.658 233.419 129.762 233.472 130.999 233.472C132.271 233.472 133.525 233.419 134.762 233.313C135.999 233.207 137.2 233.154 138.366 233.154C138.472 233.154 138.569 233.287 138.658 233.552C138.746 233.817 138.79 234.073 138.79 234.32Z"/>
<path d="M150.086 236.652C150.086 237.995 149.609 239.143 148.655 240.097C147.701 241.051 146.57 241.528 145.263 241.528C143.956 241.528 142.825 241.051 141.871 240.097C140.917 239.143 140.44 237.995 140.44 236.652C140.44 235.345 140.917 234.214 141.871 233.26C142.825 232.306 143.956 231.829 145.263 231.829C146.57 231.829 147.701 232.306 148.655 233.26C149.609 234.214 150.086 235.345 150.086 236.652ZM154.061 268.823C154.061 269.035 154.017 269.283 153.929 269.565C153.84 269.848 153.743 269.989 153.637 269.989C152.542 269.989 151.173 269.945 149.53 269.857C147.887 269.768 146.447 269.724 145.21 269.724C144.009 269.724 142.684 269.768 141.235 269.857C139.786 269.945 138.532 269.989 137.472 269.989C137.366 269.989 137.269 269.848 137.181 269.565C137.092 269.283 137.048 269.035 137.048 268.823C137.048 268.647 137.092 268.417 137.181 268.134C137.269 267.852 137.366 267.693 137.472 267.657C138.779 267.516 139.707 267.163 140.255 266.597C140.802 266.032 141.076 264.901 141.076 263.205L141.076 255.255C141.076 253.842 140.802 252.923 140.255 252.499C139.707 252.075 138.779 251.793 137.472 251.651C137.366 251.616 137.269 251.466 137.181 251.201C137.092 250.936 137.048 250.715 137.048 250.538C137.048 250.362 137.092 250.132 137.181 249.849C137.269 249.567 137.366 249.425 137.472 249.425C139.168 249.072 141.076 248.498 143.196 247.703C145.316 246.908 146.959 246.228 148.125 245.662C148.231 245.592 148.408 245.503 148.655 245.397C148.902 245.291 149.114 245.238 149.291 245.238C149.715 245.238 150.024 245.309 150.219 245.45C150.413 245.592 150.492 245.751 150.457 245.927C150.386 247.164 150.298 248.666 150.192 250.432C150.086 252.199 150.033 253.683 150.033 254.884L150.033 263.205C150.033 264.866 150.316 265.997 150.881 266.597C151.446 267.198 152.365 267.551 153.637 267.657C153.743 267.657 153.84 267.807 153.929 268.108C154.017 268.408 154.061 268.647 154.061 268.823Z"/>
<path d="M186.769 268.823C186.769 269.035 186.725 269.283 186.637 269.565C186.548 269.848 186.451 269.989 186.345 269.989C185.25 269.989 183.987 269.945 182.556 269.857C181.125 269.768 179.791 269.724 178.554 269.724C177.353 269.724 176.169 269.768 175.003 269.857C173.837 269.945 172.724 269.989 171.664 269.989C171.558 269.989 171.461 269.848 171.373 269.565C171.284 269.283 171.24 269.035 171.24 268.823C171.24 268.647 171.284 268.417 171.373 268.134C171.461 267.852 171.558 267.693 171.664 267.657C172.371 267.551 172.901 267.207 173.254 266.624C173.607 266.041 173.784 264.901 173.784 263.205L173.784 254.831C173.784 253.065 173.572 251.801 173.148 251.042C172.724 250.282 171.911 249.902 170.71 249.902C169.685 249.902 168.855 250.247 168.219 250.936C167.583 251.625 166.947 252.729 166.311 254.248L166.311 263.205C166.311 264.76 166.479 265.873 166.815 266.544C167.15 267.216 167.671 267.587 168.378 267.657C168.484 267.657 168.581 267.807 168.67 268.108C168.758 268.408 168.802 268.647 168.802 268.823C168.802 269.071 168.758 269.327 168.67 269.592C168.581 269.857 168.484 269.989 168.378 269.989C167.283 269.989 166.17 269.945 165.039 269.857C163.908 269.768 162.725 269.724 161.488 269.724C160.251 269.724 158.918 269.768 157.487 269.857C156.056 269.945 154.81 269.989 153.75 269.989C153.644 269.989 153.547 269.857 153.459 269.592C153.37 269.327 153.326 269.071 153.326 268.823C153.326 268.647 153.37 268.417 153.459 268.134C153.547 267.852 153.644 267.693 153.75 267.657C155.305 267.481 156.285 267.136 156.692 266.624C157.098 266.111 157.301 264.972 157.301 263.205L157.301 241.316C157.301 239.938 157.036 239.028 156.506 238.587C155.976 238.145 155.057 237.854 153.75 237.712C153.644 237.677 153.547 237.527 153.459 237.262C153.37 236.997 153.326 236.776 153.326 236.599C153.326 236.423 153.37 236.193 153.459 235.91C153.547 235.628 153.644 235.486 153.75 235.486C155.411 235.133 157.328 234.55 159.501 233.737C161.674 232.925 163.29 232.253 164.35 231.723C164.456 231.653 164.633 231.564 164.88 231.458C165.127 231.352 165.339 231.299 165.516 231.299C165.975 231.299 166.293 231.37 166.47 231.511C166.647 231.653 166.735 231.812 166.735 231.988C166.629 233.331 166.532 234.886 166.444 236.652C166.355 238.419 166.311 239.85 166.311 240.945L166.311 250.379C167.088 248.719 168.237 247.491 169.756 246.696C171.275 245.901 172.795 245.503 174.314 245.503C176.964 245.503 179.031 246.325 180.515 247.968C181.999 249.611 182.741 251.475 182.741 253.559L182.741 263.205C182.741 264.901 182.953 266.032 183.377 266.597C183.801 267.163 184.79 267.516 186.345 267.657C186.451 267.657 186.548 267.807 186.637 268.108C186.725 268.408 186.769 268.647 186.769 268.823Z"/>
<path d="M214.707 258.329C214.707 261.686 213.515 264.61 211.13 267.101C208.745 269.592 205.255 270.837 200.662 270.837C196.104 270.837 192.615 269.601 190.195 267.127C187.774 264.654 186.564 261.721 186.564 258.329C186.564 254.973 187.765 251.996 190.168 249.399C192.571 246.802 196.069 245.503 200.662 245.503C205.149 245.503 208.612 246.784 211.05 249.346C213.488 251.907 214.707 254.902 214.707 258.329ZM205.061 258.276C205.061 254.884 204.778 252.331 204.213 250.618C203.648 248.904 202.464 248.047 200.662 248.047C198.86 248.047 197.668 248.922 197.085 250.671C196.502 252.42 196.21 254.955 196.21 258.276C196.21 261.704 196.502 264.23 197.085 265.855C197.668 267.481 198.86 268.293 200.662 268.293C202.429 268.293 203.604 267.472 204.187 265.829C204.77 264.186 205.061 261.668 205.061 258.276Z"/>
<path d="M249.482 268.876C249.482 269.088 249.438 269.336 249.35 269.618C249.261 269.901 249.164 270.042 249.058 270.042C247.963 270.042 246.7 269.989 245.269 269.883C243.838 269.777 242.504 269.724 241.267 269.724C240.066 269.724 238.882 269.777 237.716 269.883C236.55 269.989 235.437 270.042 234.377 270.042C234.271 270.042 234.174 269.901 234.086 269.618C233.997 269.336 233.953 269.088 233.953 268.876C233.953 268.664 233.997 268.426 234.086 268.161C234.174 267.896 234.271 267.746 234.377 267.71C235.084 267.604 235.614 267.26 235.967 266.677C236.32 266.094 236.497 264.954 236.497 263.258L236.497 254.831C236.497 253.065 236.294 251.81 235.888 251.068C235.481 250.326 234.66 249.955 233.423 249.955C232.398 249.955 231.568 250.3 230.932 250.989C230.296 251.678 229.66 252.782 229.024 254.301L229.024 263.258C229.024 264.813 229.192 265.926 229.528 266.597C229.863 267.269 230.384 267.64 231.091 267.71C231.197 267.71 231.294 267.843 231.383 268.108C231.471 268.373 231.515 268.629 231.515 268.876C231.515 269.124 231.471 269.38 231.383 269.645C231.294 269.91 231.197 270.042 231.091 270.042C229.996 270.042 228.883 269.989 227.752 269.883C226.621 269.777 225.438 269.724 224.201 269.724C222.964 269.724 221.631 269.777 220.2 269.883C218.769 269.989 217.523 270.042 216.463 270.042C216.357 270.042 216.26 269.91 216.172 269.645C216.083 269.38 216.039 269.124 216.039 268.876C216.039 268.629 216.083 268.382 216.172 268.134C216.26 267.887 216.357 267.746 216.463 267.71C218.018 267.498 218.998 267.136 219.405 266.624C219.811 266.111 220.014 264.99 220.014 263.258L220.014 254.937C220.014 253.453 219.855 252.508 219.537 252.102C219.219 251.695 218.406 251.422 217.099 251.28C216.993 251.28 216.896 251.139 216.808 250.856C216.719 250.574 216.675 250.344 216.675 250.167C216.675 249.991 216.719 249.77 216.808 249.505C216.896 249.24 216.993 249.107 217.099 249.107C218.3 248.789 219.952 248.233 222.055 247.438C224.157 246.643 225.703 245.998 226.692 245.503C226.798 245.433 226.975 245.344 227.222 245.238C227.469 245.132 227.681 245.079 227.858 245.079C228.282 245.079 228.591 245.159 228.786 245.318C228.98 245.477 229.059 245.627 229.024 245.768L228.812 250.856C229.519 249.125 230.641 247.8 232.178 246.881C233.715 245.963 235.331 245.503 237.027 245.503C239.677 245.503 241.744 246.334 243.228 247.994C244.712 249.655 245.454 251.51 245.454 253.559L245.454 263.258C245.454 264.954 245.666 266.076 246.09 266.624C246.514 267.171 247.503 267.534 249.058 267.71C249.164 267.71 249.261 267.86 249.35 268.161C249.438 268.461 249.482 268.7 249.482 268.876Z"/>
<path d="M277.42 249.849C277.42 250.238 277.358 250.644 277.235 251.068C277.111 251.492 276.943 251.704 276.731 251.704L272.809 251.598C272.95 251.952 273.065 252.278 273.154 252.579C273.242 252.879 273.286 253.312 273.286 253.877C273.286 256.527 272.279 258.674 270.265 260.317C268.251 261.96 265.336 262.781 261.52 262.781C261.273 262.781 261.061 262.781 260.884 262.781C260.707 262.781 260.548 262.781 260.407 262.781C260.372 262.781 260.345 262.781 260.328 262.781C260.31 262.781 260.301 262.781 260.301 262.781C260.301 262.781 260.292 262.781 260.275 262.781C260.257 262.781 260.23 262.781 260.195 262.781C259.17 262.852 258.331 263.126 257.678 263.603C257.024 264.08 256.697 264.513 256.697 264.901C256.697 265.396 256.856 265.758 257.174 265.988C257.492 266.217 258.305 266.332 259.612 266.332L267.403 266.438C270.265 266.438 272.367 267.048 273.71 268.267C275.053 269.486 275.724 270.996 275.724 272.798C275.724 276.367 273.993 279.211 270.53 281.331C267.067 283.451 263.163 284.511 258.817 284.511C255.637 284.511 253.084 283.831 251.159 282.471C249.233 281.11 248.27 279.529 248.27 277.727C248.27 276.243 248.703 275.104 249.569 274.309C250.434 273.514 251.874 272.904 253.888 272.48C252.369 271.88 251.238 270.926 250.496 269.618C249.754 268.311 249.383 267.269 249.383 266.491C249.383 265.643 250.054 264.733 251.397 263.762C252.74 262.79 254.241 262.163 255.902 261.88C254.029 261.032 252.625 260.069 251.689 258.992C250.752 257.914 250.284 256.474 250.284 254.672C250.284 252.27 251.265 250.141 253.226 248.286C255.187 246.431 258.04 245.503 261.785 245.503C263.375 245.503 264.939 245.698 266.476 246.086C268.013 246.475 269.311 247.164 270.371 248.153L276.731 247.994C276.943 247.959 277.111 248.171 277.235 248.63C277.358 249.09 277.42 249.496 277.42 249.849ZM264.7 253.824C264.7 251.916 264.532 250.476 264.197 249.505C263.861 248.533 263.057 248.047 261.785 248.047C260.478 248.047 259.665 248.727 259.347 250.088C259.029 251.448 258.87 252.976 258.87 254.672C258.87 256.58 259.038 257.985 259.374 258.886C259.709 259.787 260.513 260.237 261.785 260.237C263.022 260.237 263.817 259.645 264.17 258.462C264.523 257.278 264.7 255.732 264.7 253.824ZM270.689 275.872C270.689 275.236 270.433 274.786 269.921 274.521C269.408 274.256 268.428 274.106 266.979 274.07L260.566 273.964C260.001 273.964 259.303 273.92 258.473 273.832C257.642 273.743 257.033 273.629 256.644 273.487C255.973 273.629 255.443 273.902 255.054 274.309C254.665 274.715 254.471 275.395 254.471 276.349C254.471 277.692 255.072 278.752 256.273 279.529C257.474 280.307 259.17 280.695 261.361 280.695C264.329 280.695 266.626 280.254 268.251 279.37C269.876 278.487 270.689 277.321 270.689 275.872Z"/>
<path d="M306.259 258.329C306.259 261.686 305.067 264.61 302.682 267.101C300.297 269.592 296.807 270.837 292.214 270.837C287.656 270.837 284.167 269.601 281.747 267.127C279.326 264.654 278.116 261.721 278.116 258.329C278.116 254.973 279.317 251.996 281.72 249.399C284.123 246.802 287.621 245.503 292.214 245.503C296.701 245.503 300.164 246.784 302.602 249.346C305.04 251.907 306.259 254.902 306.259 258.329ZM296.613 258.276C296.613 254.884 296.33 252.331 295.765 250.618C295.2 248.904 294.016 248.047 292.214 248.047C290.412 248.047 289.22 248.922 288.637 250.671C288.054 252.42 287.762 254.955 287.762 258.276C287.762 261.704 288.054 264.23 288.637 265.855C289.22 267.481 290.412 268.293 292.214 268.293C293.981 268.293 295.156 267.472 295.739 265.829C296.322 264.186 296.613 261.668 296.613 258.276Z"/>
</g>
<g fill="#ffffff" opacity="1" stroke="#000000" stroke-linecap="butt" stroke-linejoin="round" stroke-opacity="0.00434783" stroke-width="1">
<path d="M150.013 352.576C150.013 353.162 149.847 353.588 149.515 353.855C149.183 354.122 148.763 354.256 148.255 354.256C147.929 354.256 147.256 354.112 146.233 353.826C145.211 353.54 144.127 353.325 142.981 353.181C143.737 354.171 144.57 355.102 145.481 355.974C146.393 356.847 146.849 357.589 146.849 358.201C146.849 358.631 146.66 359.005 146.282 359.324C145.905 359.643 145.507 359.803 145.091 359.803C144.804 359.803 144.537 359.721 144.29 359.558C144.043 359.396 143.828 359.165 143.646 358.865C143.489 358.579 143.278 357.928 143.011 356.912C142.744 355.896 142.389 354.855 141.946 353.787C141.517 354.803 141.159 355.847 140.872 356.922C140.586 357.996 140.377 358.644 140.247 358.865C140.039 359.191 139.827 359.428 139.612 359.578C139.397 359.728 139.127 359.803 138.802 359.803C138.372 359.803 137.972 359.65 137.601 359.344C137.229 359.038 137.044 358.657 137.044 358.201C137.044 357.589 137.5 356.847 138.411 355.974C139.323 355.102 140.156 354.171 140.911 353.181C139.817 353.312 138.743 353.523 137.688 353.816C136.634 354.109 135.95 354.256 135.638 354.256C135.13 354.256 134.71 354.122 134.378 353.855C134.046 353.588 133.88 353.162 133.88 352.576C133.88 352.042 134.046 351.629 134.378 351.336C134.71 351.043 135.13 350.896 135.638 350.896C136.041 350.896 136.689 351.03 137.581 351.297C138.473 351.564 139.583 351.775 140.911 351.931C140.052 350.838 139.192 349.877 138.333 349.051C137.474 348.224 137.044 347.511 137.044 346.912C137.044 346.482 137.233 346.108 137.61 345.789C137.988 345.47 138.385 345.31 138.802 345.31C139.101 345.31 139.371 345.388 139.612 345.545C139.853 345.701 140.065 345.929 140.247 346.228C140.403 346.515 140.618 347.172 140.892 348.201C141.165 349.23 141.517 350.271 141.946 351.326C142.376 350.258 142.731 349.21 143.011 348.181C143.291 347.153 143.502 346.502 143.646 346.228C143.802 345.955 144.007 345.734 144.261 345.564C144.515 345.395 144.791 345.31 145.091 345.31C145.521 345.31 145.921 345.463 146.292 345.769C146.663 346.075 146.849 346.456 146.849 346.912C146.849 347.511 146.442 348.211 145.628 349.012C144.814 349.812 143.938 350.786 143.001 351.931C144.303 351.762 145.42 351.547 146.351 351.287C147.282 351.026 147.916 350.896 148.255 350.896C148.763 350.896 149.183 351.043 149.515 351.336C149.847 351.629 150.013 352.042 150.013 352.576Z"/>
<path d="M184.505 347.537C183.984 347.602 183.541 347.667 183.177 347.732C182.812 347.797 182.402 347.888 181.946 348.006C181.412 348.149 181.071 348.403 180.921 348.767C180.771 349.132 180.696 349.549 180.696 350.017L180.696 365.291C180.696 366.697 180.413 367.986 179.847 369.158C179.28 370.33 178.502 371.313 177.513 372.107C176.51 372.888 175.39 373.478 174.153 373.875C172.916 374.272 171.595 374.471 170.188 374.471C167.754 374.471 165.791 373.885 164.3 372.713C162.809 371.541 162.063 369.933 162.063 367.888C162.063 366.678 162.405 365.675 163.089 364.881C163.772 364.086 164.713 363.689 165.911 363.689C167.044 363.689 167.946 364.021 168.616 364.685C169.287 365.349 169.622 366.17 169.622 367.146C169.622 367.98 169.332 368.751 168.753 369.461C168.174 370.17 167.513 370.825 166.771 371.424L166.771 371.678C166.888 371.938 167.142 372.159 167.532 372.342C167.923 372.524 168.32 372.615 168.724 372.615C170.286 372.615 171.513 372.055 172.405 370.935C173.297 369.816 173.743 368.123 173.743 365.857L173.743 350.213C173.743 349.744 173.672 349.353 173.528 349.041C173.385 348.728 173.04 348.455 172.493 348.221C172.103 348.051 171.631 347.908 171.077 347.791C170.524 347.674 170.065 347.589 169.7 347.537L169.7 346.013L184.505 346.013L184.505 347.537Z"/>
<path d="M212.962 364.842L212.415 373.728L186.888 373.728L186.888 372.205C187.343 372.166 187.877 372.104 188.489 372.019C189.101 371.935 189.505 371.853 189.7 371.775C190.169 371.593 190.494 371.339 190.677 371.013C190.859 370.688 190.95 370.271 190.95 369.763L190.95 350.213C190.95 349.744 190.879 349.357 190.735 349.051C190.592 348.745 190.247 348.468 189.7 348.221C189.297 348.038 188.812 347.892 188.245 347.781C187.679 347.67 187.226 347.589 186.888 347.537L186.888 346.013L202.103 346.013L202.103 347.537C201.686 347.576 201.194 347.631 200.628 347.703C200.062 347.775 199.57 347.875 199.153 348.006C198.646 348.175 198.307 348.439 198.138 348.797C197.968 349.155 197.884 349.562 197.884 350.017L197.884 368.24C197.884 369.099 197.942 369.776 198.06 370.271C198.177 370.766 198.405 371.131 198.743 371.365C199.082 371.612 199.554 371.772 200.159 371.844C200.765 371.915 201.601 371.951 202.669 371.951C203.711 371.951 204.723 371.889 205.706 371.765C206.689 371.642 207.396 371.372 207.825 370.955C208.489 370.291 209.17 369.357 209.866 368.152C210.563 366.948 211.119 365.844 211.536 364.842L212.962 364.842Z"/>
<path d="M228.841 374.471C226.81 374.471 224.909 374.142 223.138 373.484C221.367 372.827 219.824 371.873 218.509 370.623C217.22 369.399 216.204 367.885 215.462 366.082C214.72 364.278 214.349 362.296 214.349 360.135C214.349 357.986 214.723 355.997 215.472 354.168C216.22 352.338 217.272 350.753 218.626 349.412C219.954 348.097 221.549 347.078 223.411 346.355C225.273 345.633 227.265 345.271 229.388 345.271C230.924 345.271 232.324 345.457 233.587 345.828C234.85 346.199 235.918 346.619 236.79 347.088L238.001 346.013L239.7 346.013L239.876 356.131L238.157 356.131C237.181 353.045 236.009 350.779 234.642 349.334C233.274 347.888 231.608 347.166 229.642 347.166C227.194 347.166 225.332 348.243 224.056 350.398C222.78 352.553 222.142 355.577 222.142 359.471C222.142 361.671 222.36 363.549 222.796 365.105C223.232 366.661 223.802 367.915 224.505 368.865C225.26 369.855 226.152 370.581 227.181 371.043C228.209 371.505 229.349 371.736 230.599 371.736C232.422 371.736 234.046 371.241 235.472 370.252C236.897 369.262 238.196 367.765 239.368 365.76L241.048 366.775C240.488 367.921 239.85 368.946 239.134 369.851C238.418 370.756 237.591 371.534 236.653 372.185C235.625 372.901 234.489 373.461 233.245 373.865C232.002 374.269 230.534 374.471 228.841 374.471Z"/>
<path d="M269.446 352.576C269.446 353.162 269.28 353.588 268.948 353.855C268.616 354.122 268.196 354.256 267.688 354.256C267.363 354.256 266.689 354.112 265.667 353.826C264.645 353.54 263.561 353.325 262.415 353.181C263.17 354.171 264.004 355.102 264.915 355.974C265.826 356.847 266.282 357.589 266.282 358.201C266.282 358.631 266.093 359.005 265.716 359.324C265.338 359.643 264.941 359.803 264.524 359.803C264.238 359.803 263.971 359.721 263.724 359.558C263.476 359.396 263.261 359.165 263.079 358.865C262.923 358.579 262.711 357.928 262.444 356.912C262.177 355.896 261.823 354.855 261.38 353.787C260.95 354.803 260.592 355.847 260.306 356.922C260.019 357.996 259.811 358.644 259.681 358.865C259.472 359.191 259.261 359.428 259.046 359.578C258.831 359.728 258.561 359.803 258.235 359.803C257.806 359.803 257.405 359.65 257.034 359.344C256.663 359.038 256.478 358.657 256.478 358.201C256.478 357.589 256.933 356.847 257.845 355.974C258.756 355.102 259.59 354.171 260.345 353.181C259.251 353.312 258.177 353.523 257.122 353.816C256.067 354.109 255.384 354.256 255.071 354.256C254.563 354.256 254.144 354.122 253.812 353.855C253.479 353.588 253.313 353.162 253.313 352.576C253.313 352.042 253.479 351.629 253.812 351.336C254.144 351.043 254.563 350.896 255.071 350.896C255.475 350.896 256.123 351.03 257.015 351.297C257.907 351.564 259.017 351.775 260.345 351.931C259.485 350.838 258.626 349.877 257.767 349.051C256.907 348.224 256.478 347.511 256.478 346.912C256.478 346.482 256.666 346.108 257.044 345.789C257.422 345.47 257.819 345.31 258.235 345.31C258.535 345.31 258.805 345.388 259.046 345.545C259.287 345.701 259.498 345.929 259.681 346.228C259.837 346.515 260.052 347.172 260.325 348.201C260.599 349.23 260.95 350.271 261.38 351.326C261.81 350.258 262.164 349.21 262.444 348.181C262.724 347.153 262.936 346.502 263.079 346.228C263.235 345.955 263.44 345.734 263.694 345.564C263.948 345.395 264.225 345.31 264.524 345.31C264.954 345.31 265.354 345.463 265.726 345.769C266.097 346.075 266.282 346.456 266.282 346.912C266.282 347.511 265.875 348.211 265.062 349.012C264.248 349.812 263.372 350.786 262.435 351.931C263.737 351.762 264.853 351.547 265.784 351.287C266.715 351.026 267.35 350.896 267.688 350.896C268.196 350.896 268.616 351.043 268.948 351.336C269.28 351.629 269.446 352.042 269.446 352.576Z"/>
</g>
</g>
<g id="レイヤー-3">
<path d="M208.665 185.116C205.537 187.984 198.289 188.759 189.381 186.939C180.472 185.119 171.567 184.642 166.167 188.537C160.767 192.432 157.458 194.068 155.683 210.427C155.347 213.525 154.381 212.89 153.15 213.43C152.081 214.044 151.787 214.304 152.571 216.542C159.165 214.993 156.741 216.096 163.935 212.597C165.335 212.778 165.222 212.792 167.083 212.742C166.293 208.984 161.587 199.543 166.332 194.312C171.077 189.081 178.35 188.269 189.845 190.28C201.339 192.292 206.479 190.391 210.215 187.441C213.951 184.492 211.793 182.248 208.665 185.116Z" fill="url(#LinearGradient)" fill-rule="nonzero" filter="url(#Filter_3)" stroke="#000000" stroke-linecap="round" stroke-linejoin="round" stroke-opacity="2.20353e-15" stroke-width="1.03"/>
<path d="M162.825 163.042C160.23 170.919 145.025 177.3 139.322 186.483C133.619 195.666 130.866 208.006 129.868 210.139C129.351 211.245 127.611 211.736 125.732 211.444C124.616 211.27 123.902 212.024 123.723 214.301C130.855 215.094 133.032 215.391 138.5 213.944C138.721 212.076 139.527 211.622 136.714 210.953C134.527 211.176 137.002 195.376 142.029 186.966C147.055 178.557 162.714 172.467 164.648 163.574C166.581 154.681 165.057 153.787 163.378 153.031C162.386 152.585 162.567 152.943 162.287 153.269C160.812 154.99 165.421 155.164 162.825 163.042Z" fill="url(#LinearGradient_2)" fill-rule="nonzero" filter="url(#Filter_4)" stroke="#000000" stroke-linecap="round" stroke-linejoin="round" stroke-opacity="2.20353e-15" stroke-width="1.03"/>
<g opacity="1">
<g opacity="1">
<g opacity="1">
<path d="M152.174 100.485C152.174 100.485 139.992 92.5976 134.748 100.039C129.503 107.48 140.624 122.016 147.412 130.473C150.15 113.071 152.174 100.485 152.174 100.485Z" fill="#1f6a54" fill-rule="nonzero" filter="url(#Filter_5)" stroke="#000000" stroke-linecap="round" stroke-linejoin="round" stroke-opacity="2.20353e-15" stroke-width="1.03"/>
<path d="M152.964 100.286C152.964 100.286 166.976 96.5085 169.689 105.198C172.403 113.888 157.365 124.32 148.314 130.292C151.036 112.887 152.964 100.286 152.964 100.286Z" fill="#2ba07d" fill-rule="nonzero" filter="url(#Filter_6)" stroke="#000000" stroke-linecap="round" stroke-linejoin="round" stroke-opacity="2.20353e-15" stroke-width="1.03"/>
</g>
<g opacity="1">
<path d="M178.743 137.179C178.743 137.179 186.764 125.086 179.381 119.76C171.998 114.433 157.341 125.393 148.809 132.087C166.18 135.018 178.743 137.179 178.743 137.179Z" fill="#1f6a54" fill-rule="nonzero" filter="url(#Filter_7)" stroke="#000000" stroke-linecap="round" stroke-linejoin="round" stroke-opacity="2.20353e-15" stroke-width="1.03"/>
<path d="M178.933 137.972C178.933 137.972 182.556 152.024 173.837 154.642C165.118 157.26 154.852 142.108 148.98 132.991C166.354 135.905 178.933 137.972 178.933 137.972Z" fill="#2ba07d" fill-rule="nonzero" filter="url(#Filter_8)" stroke="#000000" stroke-linecap="round" stroke-linejoin="round" stroke-opacity="2.20353e-15" stroke-width="1.03"/>
</g>
</g>
<g opacity="1">
<g opacity="1">
<path d="M142.799 163.423C142.799 163.423 154.981 171.31 160.225 163.869C165.469 156.428 154.349 141.892 147.561 133.435C144.823 150.837 142.799 163.423 142.799 163.423Z" fill="#1f6a54" fill-rule="nonzero" filter="url(#Filter_9)" stroke="#000000" stroke-linecap="round" stroke-linejoin="round" stroke-opacity="2.20353e-15" stroke-width="1.03"/>
<path d="M142.009 163.621C142.009 163.621 127.997 167.399 125.284 158.71C122.57 150.02 137.608 139.588 146.659 133.616C143.937 151.021 142.009 163.621 142.009 163.621Z" fill="#2ba07d" fill-rule="nonzero" filter="url(#Filter_10)" stroke="#000000" stroke-linecap="round" stroke-linejoin="round" stroke-opacity="2.20353e-15" stroke-width="1.03"/>
</g>
<g opacity="1">
<path d="M116.23 126.729C116.23 126.729 108.209 138.822 115.592 144.148C122.975 149.474 137.632 138.515 146.164 131.821C128.793 128.89 116.23 126.729 116.23 126.729Z" fill="#1f6a54" fill-rule="nonzero" filter="url(#Filter_11)" stroke="#000000" stroke-linecap="round" stroke-linejoin="round" stroke-opacity="2.20353e-15" stroke-width="1.03"/>
<path d="M116.04 125.936C116.04 125.936 112.417 111.884 121.136 109.266C129.855 106.648 140.121 121.8 145.993 130.917C128.619 128.003 116.04 125.936 116.04 125.936Z" fill="#2ba07d" fill-rule="nonzero" filter="url(#Filter_12)" stroke="#000000" stroke-linecap="round" stroke-linejoin="round" stroke-opacity="2.20353e-15" stroke-width="1.03"/>
</g>
</g>
</g>
<g opacity="1">
<g opacity="1">
<g opacity="1">
<path d="M253.497 106.543C253.497 106.543 232.234 92.2372 222.742 105.213C213.25 118.189 232.433 144.201 244.155 159.345C249.532 128.704 253.497 106.543 253.497 106.543Z" fill="#1f6a54" fill-rule="nonzero" filter="url(#Filter_13)" stroke="#000000" stroke-linecap="round" stroke-linejoin="round" stroke-opacity="2.20353e-15" stroke-width="1.03"/>
<path d="M254.899 106.217C254.899 106.217 279.756 99.9827 284.277 115.411C288.798 130.839 261.921 148.79 245.753 159.053C251.101 128.407 254.899 106.217 254.899 106.217Z" fill="#2ba07d" fill-rule="nonzero" filter="url(#Filter_14)" stroke="#000000" stroke-linecap="round" stroke-linejoin="round" stroke-opacity="2.20353e-15" stroke-width="1.03"/>
</g>
<g opacity="1">
<path d="M299.268 172.162C299.268 172.162 313.807 151.058 300.937 141.424C288.066 131.789 261.845 150.685 246.572 162.239C277.153 167.954 299.268 172.162 299.268 172.162Z" fill="#1f6a54" fill-rule="nonzero" filter="url(#Filter_15)" stroke="#000000" stroke-linecap="round" stroke-linejoin="round" stroke-opacity="2.20353e-15" stroke-width="1.03"/>
<path d="M299.578 173.568C299.578 173.568 305.539 198.492 290.062 202.843C274.585 207.194 256.931 180.12 246.846 163.84C277.432 169.526 299.578 173.568 299.578 173.568Z" fill="#2ba07d" fill-rule="nonzero" filter="url(#Filter_16)" stroke="#000000" stroke-linecap="round" stroke-linejoin="round" stroke-opacity="2.20353e-15" stroke-width="1.03"/>
</g>
</g>
<g opacity="1">
<g opacity="1">
<path d="M234.985 217.381C234.985 217.381 256.248 231.688 265.74 218.712C275.232 205.736 256.048 179.724 244.327 164.58C238.949 195.221 234.985 217.381 234.985 217.381Z" fill="#1f6a54" fill-rule="nonzero" filter="url(#Filter_17)" stroke="#000000" stroke-linecap="round" stroke-linejoin="round" stroke-opacity="2.20353e-15" stroke-width="1.03"/>
<path d="M233.583 217.707C233.583 217.707 208.725 223.942 204.204 208.514C199.683 193.086 226.561 175.135 242.728 164.871C237.38 195.518 233.583 217.707 233.583 217.707Z" fill="#2ba07d" fill-rule="nonzero" filter="url(#Filter_18)" stroke="#000000" stroke-linecap="round" stroke-linejoin="round" stroke-opacity="2.20353e-15" stroke-width="1.03"/>
</g>
<g opacity="1">
<path d="M189.214 151.763C189.214 151.763 174.674 172.867 187.545 182.501C200.415 192.135 226.637 173.24 241.909 161.686C211.329 155.971 189.214 151.763 189.214 151.763Z" fill="#1f6a54" fill-rule="nonzero" filter="url(#Filter_19)" stroke="#000000" stroke-linecap="round" stroke-linejoin="round" stroke-opacity="2.20353e-15" stroke-width="1.03"/>
<path d="M188.903 150.357C188.903 150.357 182.943 125.432 198.42 121.082C213.897 116.731 231.551 143.804 241.635 160.084C211.049 154.399 188.903 150.357 188.903 150.357Z" fill="#2ba07d" fill-rule="nonzero" filter="url(#Filter_20)" stroke="#000000" stroke-linecap="round" stroke-linejoin="round" stroke-opacity="2.20353e-15" stroke-width="1.03"/>
</g>
</g>
</g>
</g>
</svg>
