<?xml version="1.0" encoding="UTF-8" standalone="no"?>
<!DOCTYPE svg PUBLIC "-//W3C//DTD SVG 1.1//EN" "http://www.w3.org/Graphics/SVG/1.1/DTD/svg11.dtd">
<!-- Created with Vectornator (http://vectornator.io/) -->
<svg height="100%" stroke-miterlimit="10" style="fill-rule:nonzero;clip-rule:evenodd;stroke-linecap:round;stroke-linejoin:round;" version="1.1" viewBox="0 0 85.05 198.45" width="100%" xml:space="preserve" xmlns="http://www.w3.org/2000/svg" xmlns:vectornator="http://vectornator.io" xmlns:xlink="http://www.w3.org/1999/xlink">
<defs/>
<g id="レイヤー-1" vectornator:layerName="レイヤー 1">
<g opacity="1" vectornator:layerName="グループ 12">
<path d="M15.4848 14.2553L15.9786 183.956C15.9786 183.956 32.1077 180.525 47.1711 180.778C62.2344 181.032 76.2319 184.97 76.2319 184.97C76.2319 184.97 74.2408 138.744 74.5289 95.9204C74.817 53.0969 77.3843 13.6761 77.3843 13.6761L15.4848 14.2553Z" fill="#ebef7f" fill-rule="nonzero" opacity="1" stroke="#8b8b8b" stroke-linecap="butt" stroke-linejoin="round" stroke-width="1" vectornator:layerName="曲線 6"/>
<path d="M16.3029 47.0629L47.5046 35.8107L75.06 46.0124L76.4012 14.2007L15.9048 14.8734L16.3029 47.0629Z" fill="#ffd57f" fill-rule="nonzero" opacity="1" stroke="#000000" stroke-linecap="butt" stroke-linejoin="round" stroke-opacity="0.0157658" stroke-width="0.3" vectornator:layerName="曲線 7"/>
<path d="M16.0426 50.7805L47.8825 38.8004L74.9518 49.1048L74.8198 52.8417L47.6905 41.7866L16.2829 53.7726L16.0426 50.7805Z" fill="#ffd57f" fill-rule="nonzero" opacity="1" stroke="#000000" stroke-linecap="butt" stroke-linejoin="round" stroke-opacity="0.0157658" stroke-width="0.3" vectornator:layerName="曲線 8"/>
</g>
<g opacity="1" vectornator:layerName="グループ 13">
<path d="M4.37887 9.02014L81.5445 8.71698C81.5445 8.71698 82.9169 9.29419 82.9516 10.3774C82.9864 11.4605 81.4928 11.8572 81.4928 11.8572L4.29057 11.7025C4.29057 11.7025 2.48787 11.9022 2.45049 10.5016C2.41311 9.10095 4.37887 9.02014 4.37887 9.02014Z" fill="#ffffff" fill-rule="nonzero" opacity="1" stroke="#000000" stroke-linecap="butt" stroke-linejoin="round" stroke-width="0.5" vectornator:layerName="曲線 2"/>
<path d="M11.9042 9.67741L11.474 193.335C11.474 193.335 11.4872 196.362 9.83881 196.444C8.19045 196.527 7.89504 193.33 7.89504 193.33L7.82223 9.46753C7.82223 9.46753 7.51833 5.18254 9.64979 5.09368C11.7812 5.00482 11.9042 9.67741 11.9042 9.67741Z" fill="#ffffff" fill-rule="nonzero" opacity="1" stroke="#000000" stroke-linecap="butt" stroke-linejoin="round" stroke-width="0.5" vectornator:layerName="曲線 4"/>
<path d="M6.62426 13.6761C6.62426 13.6761 5.27825 3.52505 9.85574 3.7619C14.4332 3.99876 13.1556 13.6761 13.1556 13.6761L6.62426 13.6761Z" fill="#ffffff" fill-rule="nonzero" opacity="1" stroke="#000000" stroke-linecap="butt" stroke-linejoin="round" stroke-width="0.5" vectornator:layerName="曲線 5"/>
<path d="M7.19791 21.0047L19.4412 21.0047L19.4412 23.6039L7.19791 23.6039L7.19791 21.0047Z" fill="#ffffff" fill-rule="nonzero" opacity="1" stroke="#000000" stroke-linecap="butt" stroke-linejoin="round" stroke-width="0.3" vectornator:layerName="長方形 1"/>
<path d="M7.19791 49.1207L19.4412 49.1207L19.4412 51.7199L7.19791 51.7199L7.19791 49.1207Z" fill="#ffffff" fill-rule="nonzero" opacity="1" stroke="#000000" stroke-linecap="butt" stroke-linejoin="round" stroke-width="0.3" vectornator:layerName="長方形 2"/>
<path d="M7.19791 80.9901L19.4412 80.9901L19.4412 83.5893L7.19791 83.5893L7.19791 80.9901Z" fill="#ffffff" fill-rule="nonzero" opacity="1" stroke="#000000" stroke-linecap="butt" stroke-linejoin="round" stroke-width="0.3" vectornator:layerName="長方形 6"/>
<path d="M7.19791 110.024L19.4412 110.024L19.4412 112.624L7.19791 112.624L7.19791 110.024Z" fill="#ffffff" fill-rule="nonzero" opacity="1" stroke="#000000" stroke-linecap="butt" stroke-linejoin="round" stroke-width="0.3" vectornator:layerName="長方形 7"/>
<path d="M7.19791 141.894L19.4412 141.894L19.4412 144.493L7.19791 144.493L7.19791 141.894Z" fill="#ffffff" fill-rule="nonzero" opacity="1" stroke="#000000" stroke-linecap="butt" stroke-linejoin="round" stroke-width="0.3" vectornator:layerName="長方形 8"/>
<path d="M7.19791 176.666L19.4412 176.666L19.4412 179.266L7.19791 179.266L7.19791 176.666Z" fill="#ffffff" fill-rule="nonzero" opacity="1" stroke="#000000" stroke-linecap="butt" stroke-linejoin="round" stroke-width="0.3" vectornator:layerName="長方形 9"/>
<path d="M47.5253 8.09417L47.5253 18.1013L45.1261 18.1013L45.1261 8.09417L47.5253 8.09417Z" fill="#ffffff" fill-rule="nonzero" opacity="1" stroke="#000000" stroke-linecap="butt" stroke-linejoin="round" stroke-width="0.3" vectornator:layerName="長方形 5"/>
<path d="M75.5744 8.09417L75.5744 18.1013L73.1753 18.1013L73.1753 8.09417L75.5744 8.09417Z" fill="#ffffff" fill-rule="nonzero" opacity="1" stroke="#000000" stroke-linecap="butt" stroke-linejoin="round" stroke-width="0.3" vectornator:layerName="長方形 10"/>
<path d="M19.3464 8.09417L19.3464 18.1013L16.9473 18.1013L16.9473 8.09417L19.3464 8.09417Z" fill="#ffffff" fill-rule="nonzero" opacity="1" stroke="#000000" stroke-linecap="butt" stroke-linejoin="round" stroke-width="0.3" vectornator:layerName="長方形 11"/>
</g>
</g>
</svg>
