<?xml version="1.0" encoding="UTF-8" standalone="no"?>
<!DOCTYPE svg PUBLIC "-//W3C//DTD SVG 1.1//EN" "http://www.w3.org/Graphics/SVG/1.1/DTD/svg11.dtd">
<!-- Created with Vectornator (http://vectornator.io/) -->
<svg height="100%" stroke-miterlimit="10" style="fill-rule:nonzero;clip-rule:evenodd;stroke-linecap:round;stroke-linejoin:round;" version="1.1" viewBox="0 0 56.7 85.05" width="100%" xml:space="preserve" xmlns="http://www.w3.org/2000/svg" xmlns:xlink="http://www.w3.org/1999/xlink">
<defs/>
<g id="髪"/>
<g id="襟元"/>
<g id="衣"/>
<g id="顔"/>
<g id="手"/>
<g id="目">
<g opacity="1">
<path d="M29.3707 2.86906C29.71 3.32005 31.085 21.3219 28.1514 21.1563C25.0173 20.9793 25.8952 3.43587 26.2062 3.06543C27.332 1.72428 28.2438 1.37109 29.3707 2.86906Z" fill="#4753d3" fill-rule="nonzero" opacity="1" stroke="#060606" stroke-linecap="butt" stroke-linejoin="miter" stroke-opacity="0" stroke-width="0.1"/>
<path d="M27.3224 17.519C34.5486 17.2563 40.092 15.31 40.0766 16.3313C40.0513 18.0048 34.7009 18.5519 27.3224 18.7015C19.3647 18.8629 14.3892 18.0733 14.3028 16.827C14.2145 15.5547 19.1849 17.8149 27.3224 17.519Z" fill="#fbfa8e" fill-opacity="0" fill-rule="nonzero" opacity="1" stroke="#a2a094" stroke-linecap="butt" stroke-linejoin="miter" stroke-width="1"/>
<path d="M27.7017 20.5623C18.3795 20.6452 13.9901 21.6867 14.3436 37.9937C14.4156 41.3122 27.5019 27.225 27.5019 27.225C27.5019 27.225 42.095 41.3164 42.1349 37.1011C42.3135 18.2363 35.8037 20.4903 27.7017 20.5623Z" fill="#000000" fill-rule="nonzero" opacity="1" stroke="#060606" stroke-linecap="butt" stroke-linejoin="miter" stroke-opacity="0" stroke-width="0.1"/>
<path d="M20.9241 51.6371L21.8957 50.5768L28.0388 51.5694L34.0229 50.7088L35.4717 52.3278L27.5849 56.5292L20.9241 51.6371Z" fill="#ffffff" fill-rule="nonzero" opacity="1" stroke="#060606" stroke-linecap="butt" stroke-linejoin="miter" stroke-opacity="0" stroke-width="0.1"/>
<path d="M24.0712 51.2182C24.0712 51.2182 26.7062 51.7704 28.1933 51.7468C29.6805 51.7231 31.9789 51.4136 31.9789 51.4136L31.8758 47.002L24.1567 46.9548L24.0712 51.2182Z" fill="#f6ece8" fill-rule="nonzero" opacity="1" stroke="#060606" stroke-linecap="butt" stroke-linejoin="miter" stroke-opacity="0" stroke-width="0.1"/>
<path d="M6.99199 81.9367C9.38596 84.4194 27.5219 73.8168 29.8408 73.8627C32.1596 73.9087 48.9855 82.82 50.187 81.5944C51.3885 80.3689 56.101 75.2812 54.4163 71.646C52.7317 68.0107 30.3645 62.4917 29.7521 62.8682C29.1397 63.2448 1.78649 71.368 2.07568 73.997C2.36488 76.6261 4.59803 79.4541 6.99199 81.9367Z" fill="#ffffff" fill-rule="nonzero" opacity="1" stroke="#060606" stroke-linecap="butt" stroke-linejoin="miter" stroke-opacity="0" stroke-width="0.1"/>
<path d="M21.1608 51.548C21.1608 51.548 25.158 53.6797 28.5795 53.7708C32.0011 53.8619 33.9887 52.1283 34.847 51.9123C35.2938 51.7998 43.7882 49.2066 43.829 50.8973C43.9735 56.8953 42.5636 58.4336 44.9686 60.3946C49.8305 64.359 53.7074 68.5392 53.7074 68.5392C53.7074 68.5392 56.6684 73.2126 54.0754 75.5064C51.4824 77.8002 50.2754 79.1833 44.491 77.463C38.7066 75.7426 28.2526 66.4911 28.2526 66.4911L17.7196 75.2686C17.7196 75.2686 10.7802 79.7553 7.0403 78.6333C3.30037 77.5113 0.942749 75.248 2.13953 70.6604C3.33631 66.0727 9.2508 63.3569 12.1766 60.8699C15.1025 58.383 14.5614 57.907 13.6942 52.7039C13.2303 49.9202 21.1608 51.548 21.1608 51.548Z" fill="#3448d8" fill-rule="nonzero" opacity="1" stroke="#060606" stroke-linecap="butt" stroke-linejoin="miter" stroke-opacity="0" stroke-width="0.1"/>
<path d="M7.41314 82.7479C7.41314 82.7479 16.9068 84.4549 27.0059 84.3282C37.105 84.2015 43.5524 84.4563 49.014 82.5183C51.2583 81.722 52.0886 78.442 50.5673 78.8223C48.0994 79.4393 43.2588 77.9037 40.086 76.0605C34.4539 72.7887 29.6934 67.7356 28.3079 67.5898C26.9324 67.445 20.0895 75.5791 15.9536 77.2C11.8377 78.8131 10.5847 79.8095 6.52698 79.2032C3.88649 78.8086 7.41314 82.7479 7.41314 82.7479Z" fill="#669ae7" fill-rule="nonzero" opacity="1" stroke="#060606" stroke-linecap="butt" stroke-linejoin="miter" stroke-opacity="0" stroke-width="0.1"/>
<path d="M34.8351 51.4461C34.8351 51.4461 32.0614 52.6806 31.4646 52.9947C30.2333 53.6427 28.0466 53.5273 25.7621 52.9764C23.4776 52.4256 21.5535 50.9359 21.5535 50.9359L21.7722 49.5149C21.7722 49.5149 26.418 51.0088 28.2945 50.9541C30.3888 50.8931 34.3068 49.2598 34.3068 49.2598L34.8351 51.4461Z" fill="#3448d8" fill-rule="nonzero" opacity="1" stroke="#060606" stroke-linecap="butt" stroke-linejoin="miter" stroke-opacity="0" stroke-width="0.1"/>
<path d="M4.16907 75.7669C4.42162 76.295 6.1665 77.2822 8.48535 77.3281C10.8042 77.374 14.568 75.3815 15.9011 74.5501C17.2342 73.7187 27.6508 65.4499 27.6824 65.1378C27.714 64.8258 27.6359 64.6988 27.3206 64.7255C27.0052 64.7521 23.4683 68.1097 22.8559 68.4862C22.2436 68.8627 15.7404 74.5731 11.5389 76.1572C7.33741 77.7414 5.20222 74.8026 4.67417 75.0093C4.14611 75.2159 3.91652 75.2389 4.16907 75.7669Z" fill="#ffffff" fill-rule="nonzero" opacity="1" stroke="#060606" stroke-linecap="butt" stroke-linejoin="miter" stroke-opacity="0" stroke-width="0.1"/>
<path d="M52.575 76.0331C52.3224 76.5611 50.5776 77.5483 48.2587 77.5943C45.9399 77.6402 42.1761 75.6476 40.843 74.8162C39.5099 73.9848 29.0932 65.716 29.0616 65.404C29.03 65.0919 29.1081 64.965 29.4235 64.9916C29.7388 65.0183 33.2757 68.3758 33.8881 68.7523C34.5005 69.1289 41.0037 74.8392 45.2052 76.4234C49.4067 78.0075 51.5418 75.0688 52.0699 75.2754C52.598 75.482 52.8275 75.505 52.575 76.0331Z" fill="#ffffff" fill-rule="nonzero" opacity="1" stroke="#060606" stroke-linecap="butt" stroke-linejoin="miter" stroke-opacity="0" stroke-width="0.1"/>
<path d="M34.0489 25.3959C35.5171 25.4995 42.1629 31.2688 42.1003 38.0892C42.0425 44.3929 32.6396 50.0451 28.4557 50.0814C23.2593 50.1265 14.3517 45.4825 14.5232 38.7334C14.711 31.3498 19.8962 25.4931 22.1898 25.3015C26.3923 24.9504 30.7307 25.162 34.0489 25.3959Z" fill="#edddd7" fill-rule="nonzero" opacity="1" stroke="#060606" stroke-linecap="butt" stroke-linejoin="miter" stroke-opacity="0" stroke-width="0.1"/>
<path d="M27.9265 14.2762C22.535 14.2762 23.2618 19.8156 23.2618 19.8156L21.0275 19.9896L20.1348 25.9168L27.7377 27.4925L35.3669 25.7337L35.1934 19.5094L32.4455 19.4755C32.4455 19.4755 33.318 14.2762 27.9265 14.2762Z" fill="#0d1574" fill-rule="nonzero" opacity="1" stroke="#060606" stroke-linecap="butt" stroke-linejoin="miter" stroke-opacity="0" stroke-width="0.1"/>
<path d="M24.0452 57.9817C26.1274 60.6197 26.8243 65.2205 26.8243 65.2205L24.8766 66.2755C24.8766 66.2755 22.6034 63.0365 21.0082 60.1347C19.4129 57.233 16.0106 56.4907 18.4955 54.6684C20.9805 52.8461 21.963 55.3437 24.0452 57.9817Z" fill="#e9d70a" fill-rule="nonzero" opacity="1" stroke="#893d05" stroke-linecap="butt" stroke-linejoin="miter" stroke-opacity="0" stroke-width="0.388389"/>
<path d="M22.3627 67.5698C22.3627 67.5698 23.0942 68.0697 24.216 68.0087C25.3377 67.9478 25.9473 68.2404 26.8496 67.3259C27.7519 66.4115 28.0445 65.5092 27.825 64.3509C27.6056 63.1926 27.2154 62.7659 25.9717 62.6927C24.7281 62.6195 23.7526 62.839 22.8504 64.0583C21.9481 65.2776 22.3627 67.5698 22.3627 67.5698Z" fill="#edddd7" fill-rule="nonzero" opacity="1" stroke="#893d05" stroke-linecap="butt" stroke-linejoin="miter" stroke-opacity="0" stroke-width="0.388389"/>
<path d="M34.4301 67.8707C34.4301 67.8707 33.6986 68.3706 32.5768 68.3096C31.4551 68.2487 30.8455 68.5413 29.9432 67.6268C29.0409 66.7124 28.7483 65.8101 28.9678 64.6518C29.1872 63.4935 29.5774 63.0667 30.8211 62.9936C32.0647 62.9204 33.0401 63.1399 33.9424 64.3592C34.8447 65.5784 34.4301 67.8707 34.4301 67.8707Z" fill="#edddd7" fill-rule="nonzero" opacity="1" stroke="#893d05" stroke-linecap="butt" stroke-linejoin="miter" stroke-opacity="0" stroke-width="0.388389"/>
<path d="M23.8102 37.1138C23.125 37.7852 22.4694 37.6536 22.2776 37.1466C22.0857 36.6396 22.7109 35.9765 23.4287 35.8996C24.1465 35.8227 24.4954 36.4423 23.8102 37.1138Z" fill="#060505" fill-rule="nonzero" opacity="1" stroke="#060606" stroke-linecap="butt" stroke-linejoin="miter" stroke-opacity="0" stroke-width="0.1"/>
<path d="M31.8772 36.8599C32.5624 37.5314 33.218 37.3998 33.4098 36.8928C33.6017 36.3857 32.9765 35.7226 32.2587 35.6457C31.541 35.5688 31.192 36.1885 31.8772 36.8599Z" fill="#060505" fill-rule="nonzero" opacity="1" stroke="#060606" stroke-linecap="butt" stroke-linejoin="miter" stroke-opacity="0" stroke-width="0.1"/>
<path d="M28.5255 44.5884C30.4173 44.5351 30.8141 43.0929 31.2086 43.4025C31.603 43.7122 30.4771 46.2288 28.5674 46.2753C26.6577 46.3219 25.4794 44.1666 25.9262 43.7269C26.3731 43.2871 26.6336 44.6417 28.5255 44.5884Z" fill="#060505" fill-rule="nonzero" opacity="1" stroke="#060606" stroke-linecap="butt" stroke-linejoin="miter" stroke-opacity="0" stroke-width="0.1"/>
</g>
</g>
</svg>
