<?xml version="1.0" encoding="UTF-8" standalone="no"?>
<!DOCTYPE svg PUBLIC "-//W3C//DTD SVG 1.1//EN" "http://www.w3.org/Graphics/SVG/1.1/DTD/svg11.dtd">
<!-- Created with Vectornator (http://vectornator.io/) -->
<svg height="100%" stroke-miterlimit="10" style="fill-rule:nonzero;clip-rule:evenodd;stroke-linecap:round;stroke-linejoin:round;" version="1.1" viewBox="0 0 400 400" width="100%" xml:space="preserve" xmlns="http://www.w3.org/2000/svg" xmlns:xlink="http://www.w3.org/1999/xlink">
<defs/>
<g id="レイヤー-1">
<path d="M316.528 51.9925C316.528 51.9925 257.018 38.1342 194.476 68.4698C159.924 85.229 112.424 125.385 93.4282 164.896C52.5756 249.865 111.971 367.317 127.463 374.753C137.065 379.362 227.597 289.398 227.597 289.398L268.583 248.413L316.528 51.9925Z" fill="#ff9cea" fill-rule="nonzero" opacity="1" stroke="#fcb2ec" stroke-linecap="round" stroke-linejoin="round" stroke-width="1"/>
<path d="M279.75 182.886L272.751 237.081C272.751 237.081 287.192 224.971 292.433 229.202C297.675 233.433 298.436 248.17 298.436 248.17L294.449 253.164C294.449 253.164 278.65 276.392 267.911 274.326C257.172 272.261 261.977 257.755 261.977 257.755L226.355 290.276C226.355 290.276 193.699 255.051 211.556 219.682C229.414 184.314 279.75 182.886 279.75 182.886Z" fill="#cfc294" fill-rule="nonzero" opacity="1" stroke="#cfc294" stroke-linecap="round" stroke-linejoin="round" stroke-width="1"/>
<path d="M263.839 235.842C264.727 219.844 265.371 203.498 270.076 188.89C268.305 220.778 268.328 244.529 241.264 263.254C243.455 255.204 253.745 254.168 257.38 247.568C243.844 254.587 227.372 258.351 214.925 266.963C215.663 263.162 218.448 263.96 220.367 260.476C219.111 260.211 219.111 260.211 217.856 259.946C226.041 260.441 243.364 255.219 250.04 249.018C252.125 250.267 255.343 247.523 257.784 246.835C253.908 245.688 254.152 247.159 250.549 246.398C248.497 250.122 228.045 252.037 225.42 247.908C236.13 244.89 247.703 248.397 257.993 243.061C256.444 237.081 232.645 232.253 226.364 230.927C226.767 230.194 226.767 230.194 227.171 229.461C227.873 229.882 227.873 229.882 228.576 230.303C216.81 222.192 221.904 224.066 214.525 221.881C214.929 221.148 214.929 221.148 215.333 220.415C225.296 226.387 237.257 236.129 249.264 236.854C243.057 227.091 230.074 221.288 221.073 215.083C234.967 220.866 243.277 230.341 256.095 238.025C254.518 235.544 253.178 232.377 250.684 230.882C255.14 232.201 256.416 235.793 258.905 239.709C256.387 224.692 246.762 215.737 243.213 202.033C252.848 204.068 256.957 231.174 261.521 238.352C260.674 225.077 258.6 212.633 254.574 200.069C255.329 199.547 255.329 199.547 256.083 199.024C263.073 206.046 261.238 225.802 263.839 235.842Z" fill="#9d8c45" fill-rule="nonzero" opacity="1" stroke="#9d8c45" stroke-linecap="round" stroke-linejoin="round" stroke-width="1"/>
<path d="M94.326 162.736C90.036 170.202 83.9319 190.618 83.9319 190.618L209.867 224.506L214.931 216.521C214.931 216.521 122.153 176.348 94.326 162.736Z" fill="#fcb2ec" fill-rule="nonzero" opacity="1" stroke="#fcb2ec" stroke-linecap="round" stroke-linejoin="round" stroke-width="1"/>
<path d="M280.96 189.428C280.647 194.835 280.742 203.19 278.437 207.201C279.675 208.392 279.675 208.392 280.912 209.584C278.279 214.166 271.313 230.506 275.683 235.412C276.513 233.967 276.513 233.967 277.343 232.522C278.066 232.937 278.066 232.937 278.788 233.352C280.864 229.74 280.864 229.74 282.94 226.127C283.663 226.542 283.663 226.542 284.385 226.957C284.8 226.235 284.8 226.235 285.216 225.512C285.938 225.927 285.938 225.927 286.661 226.342C287.076 225.62 287.076 225.62 287.491 224.897C288.214 225.313 288.214 225.313 288.936 225.728C289.351 225.005 289.351 225.005 289.766 224.283C290.489 224.698 290.489 224.698 291.211 225.113C289.106 228.777 291.737 227.544 289.335 231.724C283.871 228.584 275.135 238.459 270.086 241.807C269.571 241.031 269.571 241.031 269.056 240.255C279.011 228.879 275.27 203.689 280.96 189.428Z" fill="#dad5b3" fill-rule="nonzero" opacity="1" stroke="#dad5b3" stroke-linecap="round" stroke-linejoin="round" stroke-width="1"/>
<path d="M209.679 259.959C210.563 257.584 210.563 257.584 211.447 255.209C210.517 255.155 210.517 255.155 209.587 255.101C212.712 249.662 254.318 243.32 259.016 246.019C250.815 248.235 239.198 257.332 230.465 255.564C228.589 258.83 213.362 260.173 209.679 259.959Z" fill="#b3a260" fill-rule="nonzero" opacity="1" stroke="#b3a260" stroke-linecap="round" stroke-linejoin="round" stroke-width="1"/>
<path d="M262.86 237.656C256.719 225.301 244.297 201.858 247.06 188.211C247.782 188.626 247.782 188.626 248.505 189.041C248.92 188.319 248.92 188.319 249.335 187.596C259.424 193.393 263.534 226.029 262.86 237.656Z" fill="#b5a463" fill-rule="nonzero" opacity="1" stroke="#b5a463" stroke-linecap="round" stroke-linejoin="round" stroke-width="1"/>
<path d="M283.645 185.003C274.058 201.689 277.021 222.039 270.388 239.857C268.405 238.717 269.406 238.719 267.39 240.056C264.434 229.117 269.5 192.895 274.759 183.741C278.406 185.837 279.339 182.528 283.645 185.003Z" fill="#bfaf73" fill-rule="nonzero" opacity="1" stroke="#bfaf73" stroke-linecap="round" stroke-linejoin="round" stroke-width="1"/>
<path d="M270.014 185.061C267.142 184.48 265.799 225.598 265.244 235.181C263.026 230.02 256.11 203.674 261.295 200.235C259.721 197.861 260.303 195.367 258.729 192.993C261.198 191.356 260.546 189.665 259.052 187.413C263.308 183.623 264.907 182.127 270.014 185.061Z" fill="#bcac6c" fill-rule="nonzero" opacity="1" stroke="#bcac6c" stroke-linecap="round" stroke-linejoin="round" stroke-width="1"/>
<path d="M216.673 274.55C214.102 273.073 212.469 269.797 212.661 266.478C227.677 262.421 244.218 254.407 258.186 247.464C255.499 252.14 236.322 266.618 232.924 264.666C231.787 266.646 231.247 267.546 229.096 266.31C227.784 267.479 226.472 268.647 225.16 269.815C222.325 268.187 218.176 271.934 216.673 274.55Z" fill="#c0af70" fill-rule="nonzero" opacity="1" stroke="#c0af70" stroke-linecap="round" stroke-linejoin="round" stroke-width="1"/>
<path d="M267.379 249.863C261.576 253.713 256.138 258.815 250.912 263.468C250.19 263.053 250.19 263.053 249.467 262.638C246.313 268.128 228.641 284.77 222.13 283.452C222.847 271.077 238.402 271.274 241.827 259.209C241.926 260.708 241.926 260.708 242.026 262.207C248.837 257.69 257.671 251.451 263.874 245.927C265.537 248.435 264.457 247.049 267.379 249.863Z" fill="#b9a96c" fill-rule="nonzero" opacity="1" stroke="#b9a96c" stroke-linecap="round" stroke-linejoin="round" stroke-width="1"/>
<path d="M219.735 247.476C215.976 245.317 213.084 246.344 208.988 246.107C209.249 241.615 208.727 241.752 212.418 238.466C223.431 244.794 246.753 241.576 259.232 242.299C249.319 247.226 231.758 248.297 220.565 246.031C220.15 246.754 220.15 246.754 219.735 247.476Z" fill="#c7b574" fill-rule="nonzero" opacity="1" stroke="#c7b574" stroke-linecap="round" stroke-linejoin="round" stroke-width="1"/>
<path d="M239.571 207.935C236.924 207.782 236.699 206.295 234.928 204.307C236.153 202.174 234.695 201.895 234.836 199.449C235.559 199.864 235.559 199.864 236.282 200.279C238.3 196.767 235.235 198.756 238.573 192.946C247.831 198.265 257.598 229.474 260.17 238.993C254.486 230.424 240.228 217.803 239.571 207.935Z" fill="#b8a968" fill-rule="nonzero" opacity="1" stroke="#b8a968" stroke-linecap="round" stroke-linejoin="round" stroke-width="1"/>
<path d="M236.082 197.281C235.206 196.297 235.206 196.297 234.329 195.313C231.729 197.629 229.475 200.115 227.18 202.738C226.457 202.323 226.457 202.323 225.735 201.908C222.236 207.996 216.568 215.194 213.08 220.586C209.043 214.499 222.121 203.096 226.365 197.465C227.088 197.88 227.088 197.88 227.811 198.295C230.406 193.778 237.227 192.027 241.064 188.61C242.884 189.656 250.847 186.146 252.856 184.814C252.956 186.313 252.956 186.313 253.056 187.812C252.333 187.397 252.333 187.397 251.611 186.981C251.196 187.704 251.196 187.704 250.78 188.427C250.058 188.011 250.058 188.011 249.335 187.596C248.92 188.319 248.92 188.319 248.505 189.041C244.456 186.715 238.252 194.634 236.082 197.281Z" fill="#b4ae9b" fill-rule="nonzero" opacity="1" stroke="#b4ae9b" stroke-linecap="round" stroke-linejoin="round" stroke-width="1"/>
<path d="M295.192 246.622C295.052 249.037 294.545 248.173 296.529 249.312C288.532 261.414 292.252 257.25 286.78 262.933C287.049 258.3 287.427 261.382 279.663 256.921C280.456 259.859 283.561 262.603 285.535 265.101C284.551 265.977 284.551 265.977 283.567 266.853C281.706 263.11 279.343 258.66 275.942 256.706C276.507 261.316 277.696 265.402 282.014 267.883C281.599 268.606 281.599 268.606 281.184 269.328C275.474 267.708 278.04 262.716 273.144 259.903C272.92 263.759 274.581 267.317 274.357 271.173C273.635 270.757 273.635 270.757 272.912 270.342C270.107 275.225 270.285 272.677 266.916 270.741C266.501 271.464 266.501 271.464 266.086 272.187C268.722 259.165 268.958 249.235 277.743 238.518C278.465 238.933 278.465 238.933 279.188 239.348C280.96 236.263 285.292 233.592 287.89 230.893C288.613 231.308 288.613 231.308 289.335 231.724C289.75 231.001 289.75 231.001 290.166 230.279C291.611 231.109 291.611 231.109 293.056 231.939C288.132 235.205 278.127 238.423 282.585 245.145C279.893 244.989 281.034 244.498 279.479 247.205C283.853 249.718 290.57 248.919 295.192 246.622Z" fill="#9e904a" fill-rule="nonzero" opacity="1" stroke="#9e904a" stroke-linecap="round" stroke-linejoin="round" stroke-width="1"/>
<path d="M262.473 270.111C260.615 267.309 263.11 259.126 263.335 255.229C251.67 262.965 242.468 273.988 230.817 281.716C235.45 273.651 243.097 269.253 249.467 262.638C250.19 263.053 250.19 263.053 250.912 263.468C253.821 258.406 263.288 250.358 268.932 248.833C268.802 251.083 263.888 267.649 262.473 270.111Z" fill="#ac9e64" fill-rule="nonzero" opacity="1" stroke="#ac9e64" stroke-linecap="round" stroke-linejoin="round" stroke-width="1"/>
<path d="M236.282 200.279C235.559 199.864 235.559 199.864 234.836 199.449C234.693 201.929 234.385 200.791 235.759 202.862C233.743 204.199 234.744 204.201 232.761 203.061C231.101 208.908 252.668 230.379 257.28 237.333C247.728 233.777 236.655 214.859 229.116 214.423C229.17 213.492 229.17 213.492 229.224 212.562C226.515 212.405 225.304 210.001 223.136 208.103C228.763 210.856 228.763 210.856 234.389 213.608C220.42 197.92 236.615 199.698 236.282 200.279Z" fill="#c3b276" fill-rule="nonzero" opacity="1" stroke="#c3b276" stroke-linecap="round" stroke-linejoin="round" stroke-width="1"/>
<path d="M213.97 237.436C217.162 238.083 215.676 237.909 218.413 238.067C215.506 234.802 211.26 236.722 209.328 233.808C219.245 234.382 236.609 244.781 246.01 238.546C248.272 241.086 256.635 243.473 258.617 240.023C258.355 241.315 258.355 241.315 258.094 242.606C249.304 242.097 218.958 243.038 213.97 237.436Z" fill="#9f8e46" fill-rule="nonzero" opacity="1" stroke="#9f8e46" stroke-linecap="round" stroke-linejoin="round" stroke-width="1"/>
<path d="M258.202 240.746C254.469 240.529 251.946 240.996 248.593 239.069C248.178 239.792 248.178 239.792 247.763 240.514C246.886 239.53 246.886 239.53 246.01 238.546C237.476 244.206 218.991 233.621 209.743 233.085C211.972 230.041 211.972 230.041 214.202 226.997C228.583 231.829 243.373 236.537 258.202 240.746Z" fill="#c8b774" fill-rule="nonzero" opacity="1" stroke="#c8b774" stroke-linecap="round" stroke-linejoin="round" stroke-width="1"/>
<path d="M219.32 248.199C213.961 247.114 210.064 245.908 207.22 250.858C205.624 237.843 208.135 226.248 215.986 215.528C216.709 215.943 216.709 215.943 217.431 216.359C215.876 219.065 215.725 217.832 217.216 220.079C214.715 219.934 213.023 222.358 211.727 224.614C212.603 225.598 212.603 225.598 213.479 226.582C207.841 236.395 209.637 235.483 218.829 237.345C211.876 236.942 209.335 240.133 208.988 246.107C212.745 246.325 215.974 246.276 219.32 248.199Z" fill="#aba377" fill-rule="nonzero" opacity="1" stroke="#aba377" stroke-linecap="round" stroke-linejoin="round" stroke-width="1"/>
<path d="M227.148 216.175C224.05 214.876 224.05 214.876 220.952 213.576C230.836 220.107 240.511 226.421 249.639 233.903C225.984 221.542 237.014 227.992 216.401 214.806C217.439 212.999 217.439 212.999 218.477 211.193C222.442 213.471 221.758 212.112 227.148 216.175Z" fill="#a89a55" fill-rule="nonzero" opacity="1" stroke="#a89a55" stroke-linecap="round" stroke-linejoin="round" stroke-width="1"/>
<path d="M250.669 235.456C242.533 234.985 213.498 223.204 217.431 216.359C216.709 215.943 216.709 215.943 215.986 215.528C228.359 221.837 238.52 228.476 250.669 235.456Z" fill="#d2c185" fill-rule="nonzero" opacity="1" stroke="#d2c185" stroke-linecap="round" stroke-linejoin="round" stroke-width="1"/>
<path d="M245.535 220.973C241.559 214.979 232.129 210.975 231.623 203.369C235.053 205.34 248.572 215.688 245.535 220.973Z" fill="#9c8d44" fill-rule="nonzero" opacity="1" stroke="#9c8d44" stroke-linecap="round" stroke-linejoin="round" stroke-width="1"/>
<path d="M296.96 241.871C296.237 241.456 296.237 241.456 295.515 241.041C294.531 241.917 294.531 241.917 293.547 242.793C290.891 241.267 282.136 244.593 279.172 246.067C284.408 247.553 288.112 245.243 294.054 246.929C295.507 244.4 295.507 244.4 296.96 241.871Z" fill="#ab9b5f" fill-rule="nonzero" opacity="1" stroke="#ab9b5f" stroke-linecap="round" stroke-linejoin="round" stroke-width="1"/>
<path d="M219.735 247.476C221.471 245.766 226.547 245.413 226.761 248.63C227.056 253.067 203.452 252.486 211.356 250.351C214.433 249.519 217.296 249.878 219.735 247.476Z" fill="#a7975d" fill-rule="nonzero" opacity="1" stroke="#a7975d" stroke-linecap="round" stroke-linejoin="round" stroke-width="1"/>
<path d="M269.547 251.109C266.456 256.488 266.901 265.284 264.641 271.356C263.457 268.974 263.945 247.89 269.547 251.109Z" fill="#cbba76" fill-rule="nonzero" opacity="1" stroke="#cbba76" stroke-linecap="round" stroke-linejoin="round" stroke-width="1"/>
<path d="M256.162 185.752C258.145 186.892 257.052 186.55 259.467 186.69C260.187 189.353 261.303 191.286 258.729 192.993C260.494 197.484 260.696 197.693 260.465 201.68C256.141 199.195 252.54 189.513 256.162 185.752Z" fill="#b9ab78" fill-rule="nonzero" opacity="1" stroke="#b9ab78" stroke-linecap="round" stroke-linejoin="round" stroke-width="1"/>
<path d="M222.721 208.826C221.998 208.411 221.998 208.411 221.276 207.995C223.759 210.784 226.734 212.971 229.423 215.56C229.008 216.283 229.008 216.283 228.593 217.005C226.739 215.94 221.246 211.353 218.477 211.193C220.054 208.449 223.153 200.424 227.18 202.738C226.557 203.822 226.557 203.822 225.934 204.906C225.212 204.49 225.212 204.49 224.489 204.075C224.317 207.045 224.691 205.397 222.721 208.826Z" fill="#bdb48c" fill-rule="nonzero" opacity="1" stroke="#bdb48c" stroke-linecap="round" stroke-linejoin="round" stroke-width="1"/>
<path d="M244.984 191.824C246.905 194.72 250.847 205.037 249.288 207.752C248.272 203.993 242.925 195.407 244.984 191.824Z" fill="#b7a66a" fill-rule="nonzero" opacity="1" stroke="#b7a66a" stroke-linecap="round" stroke-linejoin="round" stroke-width="1"/>
<path d="M283 244.422C282.485 243.646 282.485 243.646 281.97 242.869C284.295 242.241 294.149 240.073 294.9 238.766C296.345 239.596 296.345 239.596 297.79 240.426C297.375 241.149 297.375 241.149 296.96 241.871C296.237 241.456 296.237 241.456 295.515 241.041C294.531 241.917 294.531 241.917 293.547 242.793C291.389 241.554 285.738 243.682 283 244.422Z" fill="#cfc294" fill-rule="nonzero" opacity="1" stroke="#cfc294" stroke-linecap="round" stroke-linejoin="round" stroke-width="1"/>
<path d="M225.883 270.231C227.284 267.792 226.328 269.186 229.096 266.31C229.819 266.726 229.819 266.726 230.541 267.141C231.679 265.161 232.219 264.26 234.37 265.496C235.56 263.424 237.558 263.363 239.443 261.684C240.166 262.099 240.166 262.099 240.888 262.514C239.185 265.478 230.987 272.202 227.743 270.338C228.158 269.616 228.158 269.616 228.573 268.893C227.228 269.562 227.228 269.562 225.883 270.231Z" fill="#96863b" fill-rule="nonzero" opacity="1" stroke="#96863b" stroke-linecap="round" stroke-linejoin="round" stroke-width="1"/>
<path d="M246.198 203.093C244.285 200.21 242.14 194.995 239.295 193.361C241.257 191.614 243.343 190.677 245.507 189.241C244.643 193.51 247.961 200.024 246.198 203.093Z" fill="#bbaf87" fill-rule="nonzero" opacity="1" stroke="#bbaf87" stroke-linecap="round" stroke-linejoin="round" stroke-width="1"/>
<path d="M255.746 186.474C252.089 192.839 259.406 195.16 256.437 200.327C252.518 198.075 255.598 191.195 250.78 188.427C251.196 187.704 251.196 187.704 251.611 186.981C253.924 188.311 252.558 188.059 255.746 186.474Z" fill="#ddd6a8" fill-rule="nonzero" opacity="1" stroke="#ddd6a8" stroke-linecap="round" stroke-linejoin="round" stroke-width="1"/>
<path d="M281.555 243.592C283.108 240.889 288.985 235.367 292.01 237.105C292.425 236.382 292.425 236.382 292.84 235.66C294.984 236.891 294.203 237.905 294.07 240.211C290.388 238.095 284.711 241.499 281.555 243.592Z" fill="#aca268" fill-rule="nonzero" opacity="1" stroke="#aca268" stroke-linecap="round" stroke-linejoin="round" stroke-width="1"/>
<path d="M280.525 242.039C283.369 240.625 289.553 235.693 292.01 237.105C293.255 234.937 293.255 234.937 294.501 232.77C290.584 230.519 282.393 238.787 280.525 242.039Z" fill="#c2b680" fill-rule="nonzero" opacity="1" stroke="#c2b680" stroke-linecap="round" stroke-linejoin="round" stroke-width="1"/>
<path d="M292.377 256.538C295.463 261.191 288.301 266.978 285.519 271.819C284.796 271.404 284.796 271.404 284.074 270.989C283.659 271.712 283.659 271.712 283.244 272.434C282.006 271.242 282.006 271.242 280.769 270.051C284.45 265.167 288.624 261.34 292.377 256.538Z" fill="#f1eedc" fill-rule="nonzero" opacity="1" stroke="#f1eedc" stroke-linecap="round" stroke-linejoin="round" stroke-width="1"/>
<path d="M267.291 199.836C266.179 195.717 263.184 187.355 267.431 184.538C267.218 188.219 268.396 192.067 268.645 195.808C269.06 195.085 269.06 195.085 269.475 194.363C269.287 197.609 269.677 195.684 267.291 199.836Z" fill="#b3a877" fill-rule="nonzero" opacity="1" stroke="#b3a877" stroke-linecap="round" stroke-linejoin="round" stroke-width="1"/>
<path d="M271.858 191.888C272.12 190.596 272.12 190.596 272.381 189.305C269.016 192.8 270.363 190.694 268.645 195.808C266.852 189.172 266.869 187.453 271.259 182.894C273.144 183.976 274.992 183.918 277.148 184.355C276.732 185.077 276.732 185.077 276.317 185.8C275.233 185.177 275.233 185.177 274.15 184.554C272.493 187.437 274.004 188.153 271.858 191.888Z" fill="#bbb38e" fill-rule="nonzero" opacity="1" stroke="#bbb38e" stroke-linecap="round" stroke-linejoin="round" stroke-width="1"/>
<path d="M212.557 223.169C213.433 224.153 213.433 224.153 214.31 225.137C214.725 224.415 214.725 224.415 215.14 223.692C220.088 226.535 223.652 228.209 228.976 229.72C224.996 227.089 217.679 218.609 212.557 223.169Z" fill="#bfb683" fill-rule="nonzero" opacity="1" stroke="#bfb683" stroke-linecap="round" stroke-linejoin="round" stroke-width="1"/>
<path d="M272.146 244.913C268.714 239.74 277.184 234.753 281.679 235.013C280.433 237.181 280.433 237.181 279.188 239.348C278.465 238.933 278.465 238.933 277.743 238.518C274.633 243.931 276.64 241.932 272.146 244.913Z" fill="#c5b378" fill-rule="nonzero" opacity="1" stroke="#c5b378" stroke-linecap="round" stroke-linejoin="round" stroke-width="1"/>
<path d="M294.054 246.929C290.309 249.413 284.423 249.084 280.617 246.897C285.909 247.204 288.021 245.217 294.054 246.929Z" fill="#c9b873" fill-rule="nonzero" opacity="1" stroke="#c9b873" stroke-linecap="round" stroke-linejoin="round" stroke-width="1"/>
<path d="M211.727 224.614C213.018 224.876 213.018 224.876 214.31 225.137C214.725 224.415 214.725 224.415 215.14 223.692C219.335 226.102 222.676 228.608 227.531 228.89C227.116 229.612 227.116 229.612 226.701 230.335C221.966 227.614 215.359 228.693 211.727 224.614Z" fill="#a39a6e" fill-rule="nonzero" opacity="1" stroke="#a39a6e" stroke-linecap="round" stroke-linejoin="round" stroke-width="1"/>
<path d="M275.942 256.706C276.507 261.316 277.696 265.402 282.014 267.883C284.006 264.417 278.588 258.226 275.942 256.706Z" fill="#baaa65" fill-rule="nonzero" opacity="1" stroke="#baaa65" stroke-linecap="round" stroke-linejoin="round" stroke-width="1"/>
<path d="M253.575 230.398C249.899 228.286 245.471 223.944 246.365 219.528C248.366 223.554 252.322 225.761 253.575 230.398Z" fill="#a99758" fill-rule="nonzero" opacity="1" stroke="#a99758" stroke-linecap="round" stroke-linejoin="round" stroke-width="1"/>
<path d="M273.144 259.903C272.893 264.232 272.682 268.288 276.633 270.558C277.571 265.925 277.285 262.282 273.144 259.903Z" fill="#bcaa65" fill-rule="nonzero" opacity="1" stroke="#bcaa65" stroke-linecap="round" stroke-linejoin="round" stroke-width="1"/>
<path d="M221.583 209.133C224.254 210.127 226.74 212.418 229.224 212.562C229.051 215.538 231.738 215.929 234.174 217.329C233.551 218.412 233.551 218.412 232.928 219.496C229.033 216.303 224.93 212.892 221.583 209.133Z" fill="#9c8d51" fill-rule="nonzero" opacity="1" stroke="#9c8d51" stroke-linecap="round" stroke-linejoin="round" stroke-width="1"/>
<path d="M245.855 260.562C246.577 260.977 246.577 260.977 247.3 261.392C248.671 259.006 250.016 258.267 252.066 256.442C252.789 256.857 252.789 256.857 253.511 257.273C251.489 260.792 247.636 262.792 244.809 265.728C243.011 263.017 243.469 264.713 245.855 260.562Z" fill="#d2bf86" fill-rule="nonzero" opacity="1" stroke="#d2bf86" stroke-linecap="round" stroke-linejoin="round" stroke-width="1"/>
<path d="M239.827 274.398C237.751 278.011 237.751 278.011 235.675 281.624C235.729 280.694 235.729 280.694 235.783 279.763C233.346 283.169 233.346 283.169 230.909 286.574C227.922 282.071 235.598 275.541 239.827 274.398Z" fill="#eeebda" fill-rule="nonzero" opacity="1" stroke="#eeebda" stroke-linecap="round" stroke-linejoin="round" stroke-width="1"/>
<path d="M225.883 270.231C223.872 273.731 222.012 276.159 218.01 277.241C217.342 275.895 217.342 275.895 216.673 274.55C220.358 273.554 222.7 272.341 225.883 270.231Z" fill="#e3dbae" fill-rule="nonzero" opacity="1" stroke="#e3dbae" stroke-linecap="round" stroke-linejoin="round" stroke-width="1"/>
<path d="M280.018 237.903C281.988 234.475 282.293 235.939 280.649 233.46C283.167 231.217 284.821 229.969 288.305 230.171C285.898 234.36 283.805 234.91 280.018 237.903Z" fill="#ccbb7b" fill-rule="nonzero" opacity="1" stroke="#ccbb7b" stroke-linecap="round" stroke-linejoin="round" stroke-width="1"/>
<path d="M212.569 261.62C212.461 263.48 212.461 263.48 212.354 265.34C215.75 263.653 218.614 262.809 220.533 259.468C218.192 260.632 215.134 261.768 212.569 261.62Z" fill="#e1d7a7" fill-rule="nonzero" opacity="1" stroke="#e1d7a7" stroke-linecap="round" stroke-linejoin="round" stroke-width="1"/>
<path d="M208.665 251.688C207.021 249.209 207.326 250.674 209.296 247.245C211.717 248.636 214.102 248.388 216.737 247.676C214.564 251.458 211.708 249.67 208.665 251.688Z" fill="#ebe8c3" fill-rule="nonzero" opacity="1" stroke="#ebe8c3" stroke-linecap="round" stroke-linejoin="round" stroke-width="1"/>
<path d="M270.453 261.241C272.331 265.018 272.359 267.96 270.222 271.68C268.942 269.105 267.39 263.272 270.453 261.241Z" fill="#b9ab65" fill-rule="nonzero" opacity="1" stroke="#b9ab65" stroke-linecap="round" stroke-linejoin="round" stroke-width="1"/>
<path d="M225.16 269.815C222.647 272.053 219.407 274.335 215.951 274.135C217.384 271.64 221.364 271.078 223.715 268.985C224.437 269.4 224.437 269.4 225.16 269.815Z" fill="#887d41" fill-rule="nonzero" opacity="1" stroke="#887d41" stroke-linecap="round" stroke-linejoin="round" stroke-width="1"/>
<path d="M234.805 212.886C229.539 210.341 229.539 210.341 224.274 207.796C225.495 205.669 225.249 206.887 224.489 204.075C228.266 206.245 231.665 209.862 234.805 212.886Z" fill="#cbb985" fill-rule="nonzero" opacity="1" stroke="#cbb985" stroke-linecap="round" stroke-linejoin="round" stroke-width="1"/>
<path d="M275.683 235.412C272.77 233.739 275.318 228.819 275.499 225.696C277.9 227.075 276.715 233.615 275.683 235.412Z" fill="#fffcf5" fill-rule="nonzero" opacity="1" stroke="#fffcf5" stroke-linecap="round" stroke-linejoin="round" stroke-width="1"/>
<path d="M271.639 240.778C265.977 250.632 260.201 245.234 268.333 239.839C268.848 240.616 268.848 240.616 269.363 241.392C270.501 241.085 270.501 241.085 271.639 240.778Z" fill="#464232" fill-rule="nonzero" opacity="1" stroke="#464232" stroke-linecap="round" stroke-linejoin="round" stroke-width="1"/>
<path d="M279.663 256.921C280.509 260.054 283.443 262.184 285.95 264.378C288.722 259.554 285.081 260.034 279.663 256.921Z" fill="#b4a45f" fill-rule="nonzero" opacity="1" stroke="#b4a45f" stroke-linecap="round" stroke-linejoin="round" stroke-width="1"/>
<path d="M262.988 183.908C260.703 185.423 261.899 184.525 259.467 186.69C257.341 185.468 258.558 185.715 255.746 186.474C255.8 185.544 255.8 185.544 255.854 184.614C258.065 184.017 261.219 182.891 262.988 183.908Z" fill="#ada599" fill-rule="nonzero" opacity="1" stroke="#ada599" stroke-linecap="round" stroke-linejoin="round" stroke-width="1"/>
<path d="M209.679 259.959C208.749 259.905 208.749 259.905 207.819 259.851C207.995 256.815 208.089 258.591 207.004 254.578C207.781 254.063 207.781 254.063 208.557 253.548C209.931 255.619 208.967 255.065 211.447 255.209C210.563 257.584 210.563 257.584 209.679 259.959Z" fill="#bab28b" fill-rule="nonzero" opacity="1" stroke="#bab28b" stroke-linecap="round" stroke-linejoin="round" stroke-width="1"/>
<path d="M352.599 301.857C352.599 301.677 352.745 301.53 352.925 301.53C353.105 301.53 353.251 301.677 353.251 301.857C353.251 302.037 353.105 302.183 352.925 302.183C352.745 302.183 352.599 302.037 352.599 301.857Z" fill="#fffff2" fill-rule="nonzero" opacity="1" stroke="#fffff2" stroke-linecap="round" stroke-linejoin="round" stroke-width="1"/>
<path d="M80.4672 207.942L78.8174 237.639L206.182 241.376L207.516 232.036C206.511 228.316 80.4672 207.942 80.4672 207.942Z" fill="#fcb2ec" fill-rule="nonzero" opacity="1" stroke="#fcb2ec" stroke-linecap="round" stroke-linejoin="round" stroke-width="1"/>
<path d="M80.3057 257.166L84.0864 278.739L208.406 258.723C208.406 258.723 205.26 252.583 207.738 250.939C206.733 247.22 80.3057 257.166 80.3057 257.166Z" fill="#fcb2ec" fill-rule="nonzero" opacity="1" stroke="#fcb2ec" stroke-linecap="round" stroke-linejoin="round" stroke-width="1"/>
<path d="M87.8199 297.57L97.6119 324.322L214.775 272.781L211.271 264.218L87.8199 297.57Z" fill="#fcb2ec" fill-rule="nonzero" opacity="1" stroke="#fcb2ec" stroke-linecap="round" stroke-linejoin="round" stroke-width="1"/>
<path d="M106.412 344.185C106.412 344.185 110.176 356.295 116.386 365.353C121.471 372.769 129.272 377.393 128.942 377.912C128.581 378.481 227.561 293.161 227.561 293.161L219.803 284.597L106.412 344.185Z" fill="#fcb2ec" fill-rule="nonzero" opacity="1" stroke="#fcb2ec" stroke-linecap="round" stroke-linejoin="round" stroke-width="1"/>
<path d="M127.698 118.3C121.24 123.996 108.637 140.79 108.637 140.79C108.637 140.79 219.061 211.854 218.403 210.158C217.746 208.462 223.306 203.791 223.306 203.791C223.306 203.791 149.689 140.119 127.698 118.3Z" fill="#fcb2ec" fill-rule="nonzero" opacity="1" stroke="#fcb2ec" stroke-linecap="round" stroke-linejoin="round" stroke-width="1"/>
<path d="M169.406 84.2127C161.67 87.9945 145.177 101.488 145.177 101.488L230.091 197.647L236.676 192.214C236.676 192.214 184.832 111.077 169.406 84.2127Z" fill="#fcb2ec" fill-rule="nonzero" opacity="1" stroke="#fcb2ec" stroke-linecap="round" stroke-linejoin="round" stroke-width="1"/>
<path d="M221.119 58.8659C212.628 60.2969 192.984 68.5549 192.984 68.5549L246.829 187.335L256.213 186.172C256.213 186.172 228.288 89.0035 221.119 58.8659Z" fill="#fcb2ec" fill-rule="nonzero" opacity="1" stroke="#fcb2ec" stroke-linecap="round" stroke-linejoin="round" stroke-width="1"/>
<path d="M274.538 49.4898C265.98 48.543 249.516 51.3006 249.516 51.3006L262.483 183.28L271.827 184.728C271.827 184.728 273.188 80.4389 274.538 49.4898Z" fill="#fcb2ec" fill-rule="nonzero" opacity="1" stroke="#fcb2ec" stroke-linecap="round" stroke-linejoin="round" stroke-width="1"/>
<path d="M323.595 54.4284C315.569 51.3075 295.367 48.8 295.367 48.8L277.337 185.959L283.099 187.77C283.099 187.77 314.313 83.9836 323.595 54.4284Z" fill="#fcb2ec" fill-rule="nonzero" opacity="1" stroke="#fcb2ec" stroke-linecap="round" stroke-linejoin="round" stroke-width="1"/>
</g>
<g id="レイヤー-2">
<g opacity="1">
<path d="M185.263 173.728C185.101 159.543 189.059 161.755 194.612 151.519C177.278 136.418 180.84 152.664 178.102 150.089C175.364 147.514 183.557 144.228 184.952 141.658C181.849 141.389 176.817 141.286 175.48 137.634C176.175 136.975 178.453 133.754 178.453 133.754C180.173 138.45 188.465 140.955 188.465 140.955C188.465 140.955 194.803 149.389 199.821 151.251C208.696 154.545 236.591 143.239 236.591 143.239L242.036 154.831L253.98 149.562C253.98 149.562 249.176 137.981 239.275 134.527C234.424 132.835 222.963 126.641 222.963 126.641L244.61 133.891L221.902 113.107L224.698 114.543C227.702 116.546 237.852 126.422 237.852 126.422L249.762 134.797C249.762 134.797 250.134 133.059 249.122 128.355C247.505 120.843 235.146 99.0168 235.146 99.0168C235.146 99.0168 239.108 104.661 240.101 104.387C240.151 103.672 239.002 81.8952 239.052 81.1802C239.697 81.2361 241.491 103.069 241.491 103.069C241.491 103.069 251.062 120.442 251.528 128.524C252.28 141.546 270.913 146.302 270.913 146.302L274.882 181.002C274.882 181.002 273.372 182.273 271.369 180.827L265.924 148.157L253.98 142.888L258.722 156.061L247.305 160.979L231.241 181.475L224.994 192.592L220.322 200.444L213.548 199.953L219.829 198.937L225.392 188.128L229.917 177.665L199.185 182.921L200.933 181.604L233.43 174.328L242.212 162.208L233.43 151.494L210.632 154.346L197.055 153.72L190.572 159.925C190.572 159.925 187.349 170.784 185.263 173.728Z" fill="#695e63" fill-rule="nonzero" opacity="1" stroke="#440d27" stroke-linecap="round" stroke-linejoin="round" stroke-opacity="0" stroke-width="1"/>
<path d="M217.9 194.046C217.9 191.421 219.894 189.293 222.354 189.293C224.814 189.293 226.808 191.421 226.808 194.046C226.808 196.671 224.814 198.799 222.354 198.799C219.894 198.799 217.9 196.671 217.9 194.046Z" fill="#ff0077" fill-rule="nonzero" opacity="1" stroke="#ff1984" stroke-linecap="round" stroke-linejoin="round" stroke-opacity="0" stroke-width="1"/>
<path d="M205.511 181.287C205.511 178.662 207.505 176.534 209.965 176.534C212.425 176.534 214.419 178.662 214.419 181.287C214.419 183.912 212.425 186.039 209.965 186.039C207.505 186.039 205.511 183.912 205.511 181.287Z" fill="#ff0077" fill-rule="nonzero" opacity="1" stroke="#ff1984" stroke-linecap="round" stroke-linejoin="round" stroke-opacity="0" stroke-width="1"/>
<path d="M225.112 174.63C225.112 172.005 227.106 169.877 229.566 169.877C232.026 169.877 234.02 172.005 234.02 174.63C234.02 177.255 232.026 179.382 229.566 179.382C227.106 179.382 225.112 177.255 225.112 174.63Z" fill="#ff0077" fill-rule="nonzero" opacity="1" stroke="#ff1984" stroke-linecap="round" stroke-linejoin="round" stroke-opacity="0" stroke-width="1"/>
<path d="M234.173 125.257C234.173 122.633 236.167 120.505 238.627 120.505C241.087 120.505 243.081 122.633 243.081 125.257C243.081 127.882 241.087 130.01 238.627 130.01C236.167 130.01 234.173 127.882 234.173 125.257Z" fill="#ff0077" fill-rule="nonzero" opacity="1" stroke="#ff1984" stroke-linecap="round" stroke-linejoin="round" stroke-opacity="0" stroke-width="1"/>
<path d="M172.186 148.075C172.186 145.675 174.132 143.729 176.532 143.729C178.932 143.729 180.877 145.675 180.877 148.075C180.877 150.475 178.932 152.42 176.532 152.42C174.132 152.42 172.186 150.475 172.186 148.075Z" fill="#ff0077" fill-rule="nonzero" opacity="1" stroke="#ff1984" stroke-linecap="round" stroke-linejoin="round" stroke-opacity="0" stroke-width="1"/>
<path d="M176.109 175.739C176.109 173.115 178.104 170.987 180.563 170.987C183.023 170.987 185.017 173.115 185.017 175.739C185.017 178.364 183.023 180.492 180.563 180.492C178.104 180.492 176.109 178.364 176.109 175.739Z" fill="#ff0077" fill-rule="nonzero" opacity="1" stroke="#ff1984" stroke-linecap="round" stroke-linejoin="round" stroke-opacity="0" stroke-width="1"/>
<path d="M182.212 172.035C182.212 170.333 183.609 168.953 185.332 168.953C187.056 168.953 188.453 170.333 188.453 172.035C188.453 173.737 187.056 175.117 185.332 175.117C183.609 175.117 182.212 173.737 182.212 172.035Z" fill="#ff0077" fill-rule="nonzero" opacity="1" stroke="#ff1984" stroke-linecap="round" stroke-linejoin="round" stroke-opacity="0" stroke-width="1"/>
<path d="M233.248 147.441C233.248 145.739 234.646 144.359 236.369 144.359C238.092 144.359 239.489 145.739 239.489 147.441C239.489 149.143 238.092 150.523 236.369 150.523C234.646 150.523 233.248 149.143 233.248 147.441Z" fill="#ff0077" fill-rule="nonzero" opacity="1" stroke="#ff1984" stroke-linecap="round" stroke-linejoin="round" stroke-opacity="0" stroke-width="1"/>
<path d="M224.188 187.198C224.188 185.496 225.585 184.116 227.308 184.116C229.031 184.116 230.429 185.496 230.429 187.198C230.429 188.9 229.031 190.28 227.308 190.28C225.585 190.28 224.188 188.9 224.188 187.198Z" fill="#ff0077" fill-rule="nonzero" opacity="1" stroke="#ff1984" stroke-linecap="round" stroke-linejoin="round" stroke-opacity="0" stroke-width="1"/>
<path d="M217.161 176.658C217.161 174.956 218.558 173.576 220.281 173.576C222.005 173.576 223.402 174.956 223.402 176.658C223.402 178.36 222.005 179.74 220.281 179.74C218.558 179.74 217.161 178.36 217.161 176.658Z" fill="#ff0077" fill-rule="nonzero" opacity="1" stroke="#ff1984" stroke-linecap="round" stroke-linejoin="round" stroke-opacity="0" stroke-width="1"/>
<path d="M234.543 113.417C234.543 111.714 235.94 110.335 237.663 110.335C239.387 110.335 240.784 111.714 240.784 113.417C240.784 115.119 239.387 116.499 237.663 116.499C235.94 116.499 234.543 115.119 234.543 113.417Z" fill="#ff0077" fill-rule="nonzero" opacity="1" stroke="#ff1984" stroke-linecap="round" stroke-linejoin="round" stroke-opacity="0" stroke-width="1"/>
<path d="M205.881 150.955C205.881 149.252 207.278 147.872 209.001 147.872C210.725 147.872 212.122 149.252 212.122 150.955C212.122 152.657 210.725 154.037 209.001 154.037C207.278 154.037 205.881 152.657 205.881 150.955Z" fill="#ff0077" fill-rule="nonzero" opacity="1" stroke="#ff1984" stroke-linecap="round" stroke-linejoin="round" stroke-opacity="0" stroke-width="1"/>
<path d="M242.124 109.942C242.124 107.708 243.979 105.897 246.267 105.897C248.555 105.897 250.41 107.708 250.41 109.942C250.41 112.176 248.555 113.987 246.267 113.987C243.979 113.987 242.124 112.176 242.124 109.942Z" fill="#ff0077" fill-rule="nonzero" opacity="1" stroke="#ff1984" stroke-linecap="round" stroke-linejoin="round" stroke-opacity="0" stroke-width="1"/>
<path d="M248.411 148.22C248.411 145.985 250.266 144.174 252.554 144.174C254.842 144.174 256.697 145.985 256.697 148.22C256.697 150.454 254.842 152.265 252.554 152.265C250.266 152.265 248.411 150.454 248.411 148.22Z" fill="#ff0077" fill-rule="nonzero" opacity="1" stroke="#ff1984" stroke-linecap="round" stroke-linejoin="round" stroke-opacity="0" stroke-width="1"/>
<path d="M245.638 133.426C245.638 131.192 247.493 129.381 249.781 129.381C252.069 129.381 253.924 131.192 253.924 133.426C253.924 135.66 252.069 137.472 249.781 137.472C247.493 137.472 245.638 135.66 245.638 133.426Z" fill="#ff0077" fill-rule="nonzero" opacity="1" stroke="#ff1984" stroke-linecap="round" stroke-linejoin="round" stroke-opacity="0" stroke-width="1"/>
<path d="M225.112 146.555C225.112 144.321 226.967 142.51 229.255 142.51C231.543 142.51 233.398 144.321 233.398 146.555C233.398 148.79 231.543 150.601 229.255 150.601C226.967 150.601 225.112 148.79 225.112 146.555Z" fill="#ff0077" fill-rule="nonzero" opacity="1" stroke="#ff1984" stroke-linecap="round" stroke-linejoin="round" stroke-opacity="0" stroke-width="1"/>
<path d="M220.304 147.405C220.304 145.723 221.527 144.359 223.034 144.359C224.542 144.359 225.765 145.723 225.765 147.405C225.765 149.088 224.542 150.452 223.034 150.452C221.527 150.452 220.304 149.088 220.304 147.405Z" fill="#ff0077" fill-rule="nonzero" opacity="1" stroke="#ff1984" stroke-linecap="round" stroke-linejoin="round" stroke-opacity="0" stroke-width="1"/>
<path d="M237.686 94.3346C237.686 92.6521 238.909 91.2882 240.416 91.2882C241.924 91.2882 243.147 92.6521 243.147 94.3346C243.147 96.0171 241.924 97.3811 240.416 97.3811C238.909 97.3811 237.686 96.0171 237.686 94.3346Z" fill="#ff0077" fill-rule="nonzero" opacity="1" stroke="#ff1984" stroke-linecap="round" stroke-linejoin="round" stroke-opacity="0" stroke-width="1"/>
<path d="M235.837 90.0816C235.837 88.3991 237.06 87.0351 238.567 87.0351C240.075 87.0351 241.297 88.3991 241.297 90.0816C241.297 91.7641 240.075 93.128 238.567 93.128C237.06 93.128 235.837 91.7641 235.837 90.0816Z" fill="#ff0077" fill-rule="nonzero" opacity="1" stroke="#ff1984" stroke-linecap="round" stroke-linejoin="round" stroke-opacity="0" stroke-width="1"/>
<path d="M235.098 84.719C235.098 83.0365 236.32 81.6726 237.828 81.6726C239.335 81.6726 240.558 83.0365 240.558 84.719C240.558 86.4015 239.335 87.7654 237.828 87.7654C236.32 87.7654 235.098 86.4015 235.098 84.719Z" fill="#ff0077" fill-rule="nonzero" opacity="1" stroke="#ff1984" stroke-linecap="round" stroke-linejoin="round" stroke-opacity="0" stroke-width="1"/>
<path d="M235.098 106.539C235.098 104.857 236.32 103.493 237.828 103.493C239.335 103.493 240.558 104.857 240.558 106.539C240.558 108.222 239.335 109.585 237.828 109.585C236.32 109.585 235.098 108.222 235.098 106.539Z" fill="#ff0077" fill-rule="nonzero" opacity="1" stroke="#ff1984" stroke-linecap="round" stroke-linejoin="round" stroke-opacity="0" stroke-width="1"/>
<path d="M230.844 102.656C230.844 100.973 232.067 99.6094 233.575 99.6094C235.082 99.6094 236.305 100.973 236.305 102.656C236.305 104.338 235.082 105.702 233.575 105.702C232.067 105.702 230.844 104.338 230.844 102.656Z" fill="#ff0077" fill-rule="nonzero" opacity="1" stroke="#ff1984" stroke-linecap="round" stroke-linejoin="round" stroke-opacity="0" stroke-width="1"/>
<path d="M222.338 117.819C222.338 116.136 223.561 114.772 225.068 114.772C226.576 114.772 227.799 116.136 227.799 117.819C227.799 119.501 226.576 120.865 225.068 120.865C223.561 120.865 222.338 119.501 222.338 117.819Z" fill="#ff0077" fill-rule="nonzero" opacity="1" stroke="#ff1984" stroke-linecap="round" stroke-linejoin="round" stroke-opacity="0" stroke-width="1"/>
<path d="M218.27 114.49C218.27 112.808 219.493 111.444 221 111.444C222.508 111.444 223.73 112.808 223.73 114.49C223.73 116.173 222.508 117.537 221 117.537C219.493 117.537 218.27 116.173 218.27 114.49Z" fill="#ff0077" fill-rule="nonzero" opacity="1" stroke="#ff1984" stroke-linecap="round" stroke-linejoin="round" stroke-opacity="0" stroke-width="1"/>
<path d="M188.684 143.522C188.684 141.84 189.906 140.476 191.414 140.476C192.922 140.476 194.144 141.84 194.144 143.522C194.144 145.205 192.922 146.569 191.414 146.569C189.906 146.569 188.684 145.205 188.684 143.522Z" fill="#ff0077" fill-rule="nonzero" opacity="1" stroke="#ff1984" stroke-linecap="round" stroke-linejoin="round" stroke-opacity="0" stroke-width="1"/>
<path d="M185.54 159.055C185.54 157.373 186.762 156.009 188.27 156.009C189.778 156.009 191 157.373 191 159.055C191 160.738 189.778 162.102 188.27 162.102C186.762 162.102 185.54 160.738 185.54 159.055Z" fill="#ff0077" fill-rule="nonzero" opacity="1" stroke="#ff1984" stroke-linecap="round" stroke-linejoin="round" stroke-opacity="0" stroke-width="1"/>
<path d="M183.321 163.678C183.321 161.995 184.543 160.632 186.051 160.632C187.559 160.632 188.781 161.995 188.781 163.678C188.781 165.36 187.559 166.724 186.051 166.724C184.543 166.724 183.321 165.36 183.321 163.678Z" fill="#ff0077" fill-rule="nonzero" opacity="1" stroke="#ff1984" stroke-linecap="round" stroke-linejoin="round" stroke-opacity="0" stroke-width="1"/>
<path d="M177.959 135.386C177.959 133.703 179.181 132.339 180.689 132.339C182.197 132.339 183.419 133.703 183.419 135.386C183.419 137.068 182.197 138.432 180.689 138.432C179.181 138.432 177.959 137.068 177.959 135.386Z" fill="#ff0077" fill-rule="nonzero" opacity="1" stroke="#ff1984" stroke-linecap="round" stroke-linejoin="round" stroke-opacity="0" stroke-width="1"/>
<path d="M173.521 134.276C173.521 132.594 174.743 131.23 176.251 131.23C177.759 131.23 178.981 132.594 178.981 134.276C178.981 135.959 177.759 137.323 176.251 137.323C174.743 137.323 173.521 135.959 173.521 134.276Z" fill="#ff0077" fill-rule="nonzero" opacity="1" stroke="#ff1984" stroke-linecap="round" stroke-linejoin="round" stroke-opacity="0" stroke-width="1"/>
<path d="M172.226 139.639C172.226 137.956 173.449 136.593 174.956 136.593C176.464 136.593 177.686 137.956 177.686 139.639C177.686 141.321 176.464 142.685 174.956 142.685C173.449 142.685 172.226 141.321 172.226 139.639Z" fill="#ff0077" fill-rule="nonzero" opacity="1" stroke="#ff1984" stroke-linecap="round" stroke-linejoin="round" stroke-opacity="0" stroke-width="1"/>
</g>
</g>
</svg>
