<?xml version="1.0" encoding="UTF-8" standalone="no"?>
<!DOCTYPE svg PUBLIC "-//W3C//DTD SVG 1.1//EN" "http://www.w3.org/Graphics/SVG/1.1/DTD/svg11.dtd">
<!-- Created with Vectornator (http://vectornator.io/) -->
<svg height="100%" stroke-miterlimit="10" style="fill-rule:nonzero;clip-rule:evenodd;stroke-linecap:round;stroke-linejoin:round;" version="1.1" viewBox="0 0 56.7 85.05" width="100%" xml:space="preserve" xmlns="http://www.w3.org/2000/svg" xmlns:xlink="http://www.w3.org/1999/xlink">
<defs/>
<g id="髪"/>
<g id="襟元"/>
<g id="衣"/>
<g id="顔"/>
<g id="手"/>
<g id="目">
<g opacity="1">
<path d="M46.2652 35.2028C45.7898 24.5544 42.4619 16.088 28.197 16.7423C13.9322 17.3967 11.3227 25.6747 10.8974 36.4388C10.4721 47.2029 29.6366 59.5369 29.6366 59.5369C29.6366 59.5369 46.7406 45.8512 46.2652 35.2028Z" fill="#000000" fill-rule="nonzero" opacity="1" stroke="#060606" stroke-linecap="butt" stroke-linejoin="miter" stroke-opacity="0" stroke-width="0.1"/>
<path d="M22.1926 50.2662L25.116 48.5745L28.3659 49.5836L31.7493 48.2926L34.1682 49.7469L28.4763 55.3401L22.1926 50.2662Z" fill="#ffffff" fill-rule="nonzero" opacity="1" stroke="#060606" stroke-linecap="butt" stroke-linejoin="miter" stroke-opacity="0" stroke-width="0.1"/>
<path d="M25.4495 48.933L28.694 50.4201L31.1815 48.7979L31.9115 45.3911L24.7466 45.402L25.4495 48.933Z" fill="#f6ece8" fill-rule="nonzero" opacity="1" stroke="#060606" stroke-linecap="butt" stroke-linejoin="miter" stroke-opacity="0" stroke-width="0.1"/>
<path d="M9.37093 79.4299C11.453 82.1723 27.7216 70.0595 29.7383 70.1102C31.755 70.1609 47.717 83.7702 50.0055 79.6679C52.294 75.5656 53.2319 74.6665 51.7667 70.6509C50.3016 66.6353 30.7053 59.5629 30.1727 59.9788C29.6401 60.3947 7.13667 65.1868 6.36554 70.1818C5.59442 75.1768 7.28889 76.6876 9.37093 79.4299Z" fill="#ffffff" fill-rule="nonzero" opacity="1" stroke="#060606" stroke-linecap="butt" stroke-linejoin="miter" stroke-opacity="0" stroke-width="0.1"/>
<path d="M22.6386 49.9647L28.6471 54.0189L33.9264 49.5563C33.9264 49.5563 38.829 51.5026 40.4095 53.0563C41.99 54.61 44.8177 58.6252 45.8012 59.8546C47.9892 62.5896 49.7083 62.824 51.4274 65.1682C54.6105 69.5089 51.9834 74.0484 51.1892 75.4409C50.395 76.8334 48.661 77.6348 42.8766 75.9144C37.0922 74.1941 29.7542 65.0319 29.7542 65.0319L18.3426 74.5182C18.3426 74.5182 14.7024 77.5351 10.9625 76.4131C7.22255 75.2911 5.33688 74.2447 5.68604 69.5164C5.99586 65.3209 7.08487 63.3863 11.0757 59.6012C14.1786 56.6582 14.6962 54.2527 16.7121 52.5247C18.949 50.6074 22.6386 49.9647 22.6386 49.9647Z" fill="#bf3232" fill-rule="nonzero" opacity="1" stroke="#060606" stroke-linecap="butt" stroke-linejoin="miter" stroke-opacity="0" stroke-width="0.1"/>
<path d="M9.53737 81.7301C9.53737 81.7301 18.261 83.3771 28.3601 83.2504C38.4593 83.1237 42.7178 84.0873 48.1794 82.1493C50.4236 81.353 51.4306 76.707 48.25 77.5552C45.2203 78.3631 42.1341 76.4397 38.2842 74.0919C33.4664 71.1537 30.288 66.9434 29.0841 66.8167C27.7086 66.6719 22.2058 73.8845 18.0699 75.5054C13.954 77.1185 13.6171 77.9085 9.0936 77.1311C6.46237 76.6788 9.53737 81.7301 9.53737 81.7301Z" fill="#da767a" fill-rule="nonzero" opacity="1" stroke="#060606" stroke-linecap="butt" stroke-linejoin="miter" stroke-opacity="0" stroke-width="0.1"/>
<path d="M23.4622 48.3923L28.7664 50.9343L27.0177 52.2452L23.1783 49.7307L23.4622 48.3923Z" fill="#bf3232" fill-rule="nonzero" opacity="1" stroke="#060606" stroke-linecap="butt" stroke-linejoin="miter" stroke-opacity="0" stroke-width="0.1"/>
<path d="M33.3445 49.5008L28.7061 53.5265L27.261 52.6237L32.9862 47.9503L33.3445 49.5008Z" fill="#bf3232" fill-rule="nonzero" opacity="1" stroke="#060606" stroke-linecap="butt" stroke-linejoin="miter" stroke-opacity="0" stroke-width="0.1"/>
<path d="M8.22085 74.3193C8.44093 74.8159 9.96149 75.7442 11.9822 75.7873C14.003 75.8305 17.2829 73.9569 18.4446 73.1752C19.6063 72.3934 28.6838 64.6183 28.7114 64.3249C28.7389 64.0315 28.6709 63.9121 28.3961 63.9372C28.1213 63.9623 25.039 67.1193 24.5054 67.4733C23.9717 67.8274 18.3046 73.1968 14.6432 74.6863C10.9819 76.1759 9.12118 73.4126 8.66101 73.6069C8.20084 73.8012 8.00077 73.8228 8.22085 74.3193Z" fill="#ffffff" fill-rule="nonzero" opacity="1" stroke="#060606" stroke-linecap="butt" stroke-linejoin="miter" stroke-opacity="0" stroke-width="0.1"/>
<path d="M50.5013 74.279C50.2856 74.7707 48.7956 75.69 46.8154 75.7328C44.8353 75.7755 41.6212 73.9201 40.4828 73.146C39.3444 72.3718 30.4492 64.6722 30.4222 64.3817C30.3952 64.0911 30.4619 63.9729 30.7312 63.9977C31.0005 64.0225 34.0208 67.1489 34.5438 67.4995C35.0667 67.8501 40.6201 73.1673 44.2079 74.6425C47.7957 76.1176 49.619 73.3811 50.07 73.5735C50.5209 73.7659 50.717 73.7873 50.5013 74.279Z" fill="#ffffff" fill-rule="nonzero" opacity="1" stroke="#060606" stroke-linecap="butt" stroke-linejoin="miter" stroke-opacity="0" stroke-width="0.1"/>
<path d="M41.8531 37.5396C41.6526 44.8848 33.3966 48.2431 28.7205 48.5896C24.0444 48.9361 14.8318 44.7635 14.8652 37.401C14.8986 30.0384 19.8007 21.0513 28.9616 23.2234C38.2789 20.0859 42.0535 30.1943 41.8531 37.5396Z" fill="#edddd7" fill-rule="nonzero" opacity="1" stroke="#060606" stroke-linecap="butt" stroke-linejoin="miter" stroke-opacity="0" stroke-width="0.1"/>
<path d="M27.8309 10.818C27.8188 8.88886 26.6548 7.49003 29.2321 6.16386C31.7593 7.51505 30.0843 9.17377 29.8326 10.9931C29.5587 12.974 29.4743 14.3797 30.2124 14.68C30.9506 14.9802 31.5234 14.025 32.2401 12.903C32.7458 12.1114 33.245 10.1656 35.5663 10.1906C36.1284 11.8855 34.7091 12.6669 33.8313 13.5834C32.9031 14.5526 29.7446 16.7679 29.8101 17.8156C29.8627 18.6554 40.0875 17.3226 40.1917 17.8089C40.3453 18.5255 35.1142 17.802 33.1114 18.5637C31.6626 19.1147 30.0641 18.482 28.9512 18.4194C26.239 18.2668 24.964 19.066 24.0056 17.9478C23.7678 17.6703 17.7535 17.7047 17.7187 17.5657C17.5451 16.871 25.1436 18.0932 27.3293 17.9573C28.7036 17.8718 25.3556 15.1014 24.6159 13.6781C23.6697 11.8575 21.9734 12.0803 22.8203 9.88169C25.3129 9.83436 24.8964 11.064 25.9282 12.6281C27.0713 14.3609 27.0027 15.0207 27.5594 14.7079C28.1161 14.3951 27.8441 12.9294 27.8309 10.818Z" fill="#dee15c" fill-rule="nonzero" opacity="1" stroke="#000000" stroke-linecap="butt" stroke-linejoin="miter" stroke-opacity="0.986957" stroke-width="0.2"/>
<path d="M30.3061 17.7817C32.4049 17.5692 34.9118 16.7739 34.6943 17.5349C34.492 18.2432 33.4213 19.0573 32.5643 20.0134C31.879 20.7781 30.3762 19.5369 28.9777 19.5086C27.5734 19.4803 26.0473 20.7819 25.2317 20.04C24.6087 19.4732 22.8383 18.1348 22.8938 17.3301C22.9444 16.5962 25.5642 18.0185 26.9586 17.7817C25.9756 17.1441 25.3102 13.5814 28.6855 13.6372C31.9001 13.6904 31.661 16.1877 30.3061 17.7817Z" fill="#e9d70a" fill-rule="nonzero" opacity="1" stroke="#000000" stroke-linecap="butt" stroke-linejoin="miter" stroke-opacity="0.986957" stroke-width="0.2"/>
<path d="M28.8029 54.9286C36.3352 54.7213 43.2071 60.4654 42.5891 60.6642C34.6422 63.221 29.7358 67.8855 29.7358 67.8855L28.4228 67.7473C28.4228 67.7473 24.5875 63.4975 16.0878 60.5951C14.9359 60.2018 21.231 55.137 28.8029 54.9286Z" fill="#e9d70a" fill-rule="nonzero" opacity="1" stroke="#893d05" stroke-linecap="butt" stroke-linejoin="miter" stroke-opacity="0" stroke-width="0.388389"/>
<path d="M23.2476 66.9343C23.2476 66.9343 23.9792 67.4342 25.1009 67.3732C26.2226 67.3122 26.8323 67.6049 27.7345 66.6904C28.6368 65.776 28.9294 64.8737 28.71 63.7154C28.4905 62.5571 28.1003 62.1303 26.8567 62.0572C25.613 61.984 24.6376 62.2035 23.7353 63.4228C22.8331 64.642 23.2476 66.9343 23.2476 66.9343Z" fill="#edddd7" fill-rule="nonzero" opacity="1" stroke="#893d05" stroke-linecap="butt" stroke-linejoin="miter" stroke-opacity="0" stroke-width="0.388389"/>
<path d="M35.2354 66.88C35.2354 66.88 34.5038 67.3799 33.3821 67.3189C32.2604 67.258 31.6507 67.5506 30.7485 66.6361C29.8462 65.7217 29.5536 64.8194 29.773 63.6611C29.9925 62.5028 30.3827 62.076 31.6263 62.0029C32.87 61.9297 33.8454 62.1492 34.7477 63.3685C35.65 64.5877 35.2354 66.88 35.2354 66.88Z" fill="#edddd7" fill-rule="nonzero" opacity="1" stroke="#893d05" stroke-linecap="butt" stroke-linejoin="miter" stroke-opacity="0" stroke-width="0.388389"/>
<path d="M23.9473 34.7714C23.4443 35.2836 20.9201 35.5579 20.5817 35.1372C20.2433 34.7165 21.7524 33.1801 22.5938 33.0886C23.4352 32.9972 24.4503 34.2593 23.9473 34.7714Z" fill="#000000" fill-rule="nonzero" opacity="1" stroke="#060606" stroke-linecap="butt" stroke-linejoin="miter" stroke-opacity="0" stroke-width="0.1"/>
<path d="M34.666 35.9055C34.1813 36.2622 31.7394 35.4665 31.4102 34.8446C31.0809 34.2227 32.5351 33.1526 33.349 33.4179C34.163 33.6831 35.1507 35.5488 34.666 35.9055Z" fill="#000000" fill-rule="nonzero" opacity="1" stroke="#060606" stroke-linecap="butt" stroke-linejoin="miter" stroke-opacity="0" stroke-width="0.1"/>
<path d="M27.9306 40.3936C29.4248 40.3033 30.448 39.4149 30.448 39.4149C30.448 39.4149 29.7658 41.5767 27.8561 41.6233C25.9464 41.6698 25.5177 39.437 25.5177 39.437C25.5177 39.437 26.4364 40.4839 27.9306 40.3936Z" fill="#e50000" fill-rule="nonzero" opacity="1" stroke="#060606" stroke-linecap="butt" stroke-linejoin="miter" stroke-opacity="0" stroke-width="0.1"/>
</g>
</g>
</svg>
