<?xml version="1.0" encoding="utf-8"?>
<svg viewBox="0 0 56.6929 56.6929" xmlns="http://www.w3.org/2000/svg" xmlns:xlink="http://www.w3.org/1999/xlink">
  <g id="am1">
    <g id="am2">
      <path id="am3" style="fill:#000000;fill-opacity:0;fill-rule:nonzero;opacity:1;stroke:#000000;stroke-linecap:round;stroke-linejoin:round;stroke-miterlimit:10;stroke-opacity:1;stroke-width:0.8;" d="M17.5087,21.4921 C17.5087,21.4921,14.622,22.1999,16.2665,25.3053 C17.4805,27.5978,19.059,27.2229,19.059,27.2229 C19.059,27.2229,17.5087,21.4921,17.5087,21.4921 z"/>
      <path id="am4" style="fill:#000000;fill-opacity:0;fill-rule:nonzero;opacity:1;stroke:#000000;stroke-linecap:round;stroke-linejoin:round;stroke-miterlimit:10;stroke-opacity:1;stroke-width:0.8;" d="M39.2906,21.4297 C39.2906,21.4297,42.1458,22.2555,40.3751,25.2908 C39.0679,27.5314,37.5061,27.0919,37.5061,27.0919 C37.5061,27.0919,39.2906,21.4297,39.2906,21.4297 z"/>
      <path id="am5" style="fill:#9e9e9e;fill-opacity:1;fill-rule:nonzero;opacity:1;stroke:#000000;stroke-linecap:round;stroke-linejoin:round;stroke-miterlimit:10;stroke-opacity:1;stroke-width:0.8;" d="M8.64227,54.9842 C8.64227,54.9842,7.36614,51.6421,8.72961,46.8699 C11.8608,35.911,42.2923,34.9216,47.6409,45.8736 C49.8434,50.3835,48.3437,55.334,48.3437,55.334"/>
      <path id="am6" style="fill:#ffffff;fill-opacity:1;fill-rule:nonzero;opacity:1;stroke:#000000;stroke-linecap:round;stroke-linejoin:round;stroke-miterlimit:10;stroke-opacity:1;stroke-width:0.8;" d="M24.6228,32.5216 C24.6228,32.5216,22.7476,38.2237,22.7476,38.2237 C22.7476,38.2237,25.6709,41.4948,28.8707,41.4766 C32.2177,41.4576,34.2284,38.3385,34.2284,38.3385 C34.2284,38.3385,32.6211,32.5598,32.6211,32.5598 C32.6211,32.5598,29.7814,33.5173,28.5646,33.4783 C27.3496,33.4394,24.6228,32.5216,24.6228,32.5216 z"/>
      <path id="am7" style="fill:#ffffff;fill-opacity:1;fill-rule:nonzero;opacity:1;stroke:#000000;stroke-linecap:round;stroke-linejoin:round;stroke-miterlimit:10;stroke-opacity:1;stroke-width:0.8;" d="M39.4959,18.8562 C39.4959,18.8562,39.1883,35.4658,28.4825,35.5514 C18.0757,35.6347,16.6826,19.4749,16.6826,19.4749 C16.6826,19.4749,31.1189,9.04895,31.1189,9.04895 C31.1189,9.04895,39.4959,18.8562,39.4959,18.8562 z"/>
      <path id="am8" style="fill:#000000;fill-opacity:1;fill-rule:nonzero;opacity:1;stroke:#000000;stroke-linecap:round;stroke-linejoin:round;stroke-miterlimit:10;stroke-opacity:1;stroke-width:0;" d="M16.761,21.3244 C16.761,21.3244,22.9417,20.175,24.7664,19.1956 C26.4787,18.2765,30.4942,13.9529,30.4942,13.9529 C30.4942,13.9529,27.3585,19.4768,27.3585,19.4768 C27.3585,19.4768,30.9067,18.5702,31.9732,17.8988 C32.5833,17.5147,34.241,15.7776,34.241,15.7776 C34.241,15.7776,35.2373,18.7843,35.8301,19.6454 C36.5214,20.6495,39.3823,22.9863,39.3823,22.9863 C39.3823,22.9863,41.3216,20.4101,41.7538,19.3185 C42.8382,16.5792,41.7847,10.5835,39.534,8.53654 C38.6825,7.76209,36.5229,5.67474,36.5229,5.67474 C36.5229,5.67474,33.7608,2.62059,28.964,2.70504 C23.8105,2.79577,20.382,5.70351,18.2301,7.74216 C16.8593,9.04089,15.5302,12.77,15.1119,14.6082 C14.8325,15.836,15.0308,18.4404,15.4717,19.6154 C15.6598,20.1164,16.761,21.3244,16.761,21.3244 z"/>
    </g>
  </g>
</svg>
