<?xml version="1.0" encoding="utf-8"?>
<svg viewBox="0 0 170.079 113.386" xmlns="http://www.w3.org/2000/svg" xmlns:xlink="http://www.w3.org/1999/xlink">
  <g id="am1">
    <g id="am2">
      <path id="am3" style="fill:#ffffff;fill-opacity:1;fill-rule:nonzero;opacity:1;stroke:#000000;stroke-linecap:round;stroke-linejoin:round;stroke-miterlimit:10;stroke-opacity:1;stroke-width:0.5;" d="M147.053,60.2296 C147.053,60.2296,155.426,69.0137,155.426,69.0137 C155.426,69.0137,145.947,64.8522,145.947,64.8522"/>
      <path id="am4" style="fill:#ffffff;fill-opacity:1;fill-rule:nonzero;opacity:1;stroke:#000000;stroke-linecap:round;stroke-linejoin:round;stroke-miterlimit:10;stroke-opacity:1;stroke-width:0.5;" d="M107.649,60.8482 C107.649,65.2664,111.23,68.8482,115.649,68.8482 C115.649,68.8482,139.334,68.8482,139.334,68.8482 C143.752,68.8482,147.334,65.2664,147.334,60.8482 C147.334,60.8482,147.334,51.797,147.334,51.797 C147.334,47.3787,143.752,43.797,139.334,43.797 C139.334,43.797,115.649,43.797,115.649,43.797 C111.23,43.797,107.649,47.3787,107.649,51.797 C107.649,51.797,107.649,60.8482,107.649,60.8482 z"/>
    </g>
    <g id="am5">
      <path id="am6" style="fill:#ffffff;fill-opacity:1;fill-rule:nonzero;opacity:1;stroke:#000000;stroke-linecap:round;stroke-linejoin:round;stroke-miterlimit:10;stroke-opacity:1;stroke-width:0.5;" d="M21.6665,94.8482 C21.6665,99.2664,25.2482,102.848,29.6665,102.848 C29.6665,102.848,140.334,102.848,140.334,102.848 C144.752,102.848,148.334,99.2664,148.334,94.8482 C148.334,94.8482,148.334,85.797,148.334,85.797 C148.334,81.3787,144.752,77.797,140.334,77.797 C140.334,77.797,29.6665,77.797,29.6665,77.797 C25.2482,77.797,21.6665,81.3787,21.6665,85.797 C21.6665,85.797,21.6665,94.8482,21.6665,94.8482 z"/>
      <path id="am7" style="fill:#ffffff;fill-opacity:1;fill-rule:nonzero;opacity:1;stroke:#000000;stroke-linecap:round;stroke-linejoin:round;stroke-miterlimit:10;stroke-opacity:1;stroke-width:0.5;" d="M148.053,92.2296 C148.053,92.2296,156.426,101.014,156.426,101.014 C156.426,101.014,146.947,96.8522,146.947,96.8522"/>
    </g>
    <g id="am8">
      <path id="am9" style="fill:#ffffff;fill-opacity:1;fill-rule:nonzero;opacity:1;stroke:#000000;stroke-linecap:round;stroke-linejoin:round;stroke-miterlimit:10;stroke-opacity:1;stroke-width:0.5;" d="M147.426,26.8482 C147.426,31.2664,143.844,34.8482,139.426,34.8482 C139.426,34.8482,28.7588,34.8482,28.7588,34.8482 C24.3405,34.8482,20.7588,31.2664,20.7588,26.8482 C20.7588,26.8482,20.7588,17.797,20.7588,17.797 C20.7588,13.3787,24.3405,9.79698,28.7588,9.79698 C28.7588,9.79698,139.426,9.79698,139.426,9.79698 C143.844,9.79698,147.426,13.3787,147.426,17.797 C147.426,17.797,147.426,26.8482,147.426,26.8482 z"/>
      <path id="am10" style="fill:#ffffff;fill-opacity:1;fill-rule:nonzero;opacity:1;stroke:#000000;stroke-linecap:round;stroke-linejoin:round;stroke-miterlimit:10;stroke-opacity:1;stroke-width:0.5;" d="M21.0392,25.2296 C21.0392,25.2296,12.6665,34.0137,12.6665,34.0137 C12.6665,34.0137,22.146,29.8522,22.146,29.8522"/>
    </g>
    <g id="am11">
      <path id="am12" style="fill:#ffffff;fill-opacity:1;fill-rule:nonzero;opacity:1;stroke:#000000;stroke-linecap:round;stroke-linejoin:round;stroke-miterlimit:10;stroke-opacity:1;stroke-width:0.5;" d="M61.4439,60.8482 C61.4439,65.2664,57.8621,68.8482,53.4439,68.8482 C53.4439,68.8482,29.7588,68.8482,29.7588,68.8482 C25.3405,68.8482,21.7588,65.2664,21.7588,60.8482 C21.7588,60.8482,21.7588,51.797,21.7588,51.797 C21.7588,47.3787,25.3405,43.797,29.7588,43.797 C29.7588,43.797,53.4439,43.797,53.4439,43.797 C57.8621,43.797,61.4439,47.3787,61.4439,51.797 C61.4439,51.797,61.4439,60.8482,61.4439,60.8482 z"/>
      <path id="am13" style="fill:#ffffff;fill-opacity:1;fill-rule:nonzero;opacity:1;stroke:#000000;stroke-linecap:round;stroke-linejoin:round;stroke-miterlimit:10;stroke-opacity:1;stroke-width:0.5;" d="M22.0533,58.7509 C22.0533,58.7509,12.2824,65.9477,12.2824,65.9477 C12.2824,65.9477,22.3405,63.4954,22.3405,63.4954"/>
    </g>
  </g>
</svg>
