<?xml version="1.0" encoding="utf-8"?>
<svg viewBox="0 0 56.6929 56.6929" xmlns="http://www.w3.org/2000/svg" xmlns:xlink="http://www.w3.org/1999/xlink">
  <g id="am1">
    <g id="am2">
      <path id="am3" style="fill:#ffffff;fill-opacity:1;fill-rule:nonzero;opacity:1;stroke:#000000;stroke-linecap:round;stroke-linejoin:round;stroke-miterlimit:10;stroke-opacity:1;stroke-width:0.5;" d="M24.3002,34.1569 C24.3002,34.1569,24.119,36.8549,23.9099,37.537 C23.7202,38.1559,20.8523,40.1099,20.8523,40.1099 C20.8523,40.1099,19.8338,41.5791,19.8338,41.5791 C19.8338,41.5791,27.7483,46.1987,27.7483,46.1987 C27.7483,46.1987,36.6818,41.8169,36.6818,41.8169 C36.6818,41.8169,35.357,39.643,35.357,39.643 C35.357,39.643,32.3577,37.8525,32.1981,37.1633 C32.063,36.5802,31.8425,33.6451,31.8425,33.6451 C31.8425,33.6451,27.8035,33.4765,27.8035,33.4765 C27.8035,33.4765,24.3002,34.1569,24.3002,34.1569 z"/>
      <path id="am4" style="fill:#000000;fill-opacity:1;fill-rule:nonzero;opacity:1;stroke:#000000;stroke-linecap:round;stroke-linejoin:round;stroke-miterlimit:10;stroke-opacity:1;stroke-width:0.5;" d="M36.7041,27.3171 C36.7041,27.3171,39.0439,27.541,39.6959,28.2477 C40.8239,29.4707,40.7338,32.8636,41.2311,34.4749 C41.5546,35.5229,43.9984,38.3091,43.9984,38.3091 C43.9984,38.3091,40.8677,38.3407,39.8954,38.0052 C38.6271,37.5675,36.7051,36.1115,36.129,34.8959 C35.6354,33.8544,34.5243,31.474,34.8264,30.3523 C35.0423,29.5507,36.7041,27.3171,36.7041,27.3171 z"/>
      <path id="am5" style="fill:#ffffff;fill-opacity:1;fill-rule:nonzero;opacity:1;stroke:#000000;stroke-linecap:round;stroke-linejoin:round;stroke-miterlimit:10;stroke-opacity:1;stroke-width:0.5;" d="M16.2606,19.7487 C16.2606,19.7487,19.963,35.2052,27.8021,35.4491 C37.9832,35.7658,39.2147,14.8806,39.2147,14.8806 C39.2147,14.8806,27.8021,9.98033,27.8021,9.98033 C27.8021,9.98033,16.2606,19.7487,16.2606,19.7487 z"/>
      <path id="am6" style="fill:#000000;fill-opacity:0;fill-rule:nonzero;opacity:1;stroke:#000000;stroke-linecap:round;stroke-linejoin:round;stroke-miterlimit:10;stroke-opacity:1;stroke-width:0.5;" d="M16.373,21.3317 C16.373,21.3317,13.603,22.3442,15.494,25.7302 C16.8424,28.1446,18.872,27.5333,18.872,27.5333 C18.872,27.5333,16.373,21.3317,16.373,21.3317 z"/>
      <path id="am7" style="fill:#000000;fill-opacity:0;fill-rule:nonzero;opacity:1;stroke:#000000;stroke-linecap:round;stroke-linejoin:round;stroke-miterlimit:10;stroke-opacity:1;stroke-width:0.5;" d="M38.5048,20.9645 C38.5048,20.9645,41.3618,21.6963,39.8172,25.2537 C38.7159,27.7903,36.6354,27.3841,36.6354,27.3841 C36.6354,27.3841,38.5048,20.9645,38.5048,20.9645 z"/>
      <path id="am8" style="fill:#000000;fill-opacity:1;fill-rule:nonzero;opacity:1;stroke:#000000;stroke-linecap:round;stroke-linejoin:round;stroke-miterlimit:10;stroke-opacity:1;stroke-width:0.5;" d="M33.639,13.6122 C31.7684,14.6514,29.0292,18.5242,27.1891,19.541 C24.8444,20.8369,16.7113,21.7874,16.7113,21.7874 C16.7113,21.7874,14.9991,19.3773,14.7501,18.4458 C14.0457,15.8108,15.7396,10.1751,17.1362,7.84516 C18.5704,5.45233,23.6236,2.24358,26.3286,1.62561 C28.6748,1.08961,33.5878,2.69043,35.6384,3.93349 C37.3732,4.98515,39.7075,8.53715,40.528,10.3877 C41.2983,12.1253,42.3871,16.0084,41.9361,17.859 C41.6302,19.1143,39.8743,21.6026,39.8743,21.6026 C39.8743,21.6026,38.533,21.888,38.533,21.888 C38.533,21.888,35.7332,19.1544,35.1299,18.0155 C34.6259,17.0641,34.3958,15.1797,34.4473,13.7739 C34.4572,13.5037,33.9979,13.4128,33.639,13.6122 z"/>
      <path id="am9" style="fill:#00abab;fill-opacity:1;fill-rule:nonzero;opacity:1;stroke:#000000;stroke-linecap:round;stroke-linejoin:round;stroke-miterlimit:10;stroke-opacity:1;stroke-width:0.5;" d="M6.89212,54.9624 C6.89212,54.9624,9.69467,46.6283,12.0892,44.1947 C13.9938,42.2589,21.5322,37.9446,21.5322,37.9446 C21.5322,37.9446,25.4401,44.0883,27.7143,44.1947 C30.0713,44.3049,34.6777,38.1824,34.6777,38.1824 C34.6777,38.1824,42.1232,42.1118,43.849,43.9229 C46.1466,46.3341,49.8273,55.2002,49.8273,55.2002"/>
    </g>
  </g>
</svg>
