<?xml version="1.0" encoding="utf-8"?>
<svg x="0pt" y="0pt" width="283.465pt" height="170.079pt" viewBox="0 0 283.465 170.079" xmlns="http://www.w3.org/2000/svg" xmlns:xlink="http://www.w3.org/1999/xlink">
  <!--Generated by AMDN-->
  <g id="Layer_2">
    <path id="Path" style="fill:#000000;fill-opacity:1;fill-rule:nonzero;opacity:1;stroke:none;" d="M203.187,51.9268 C203.187,51.9268,186.537,33.9273,179.596,29.7291 C171.029,24.5473,144.849,14.2287,141.703,16.5967 C139.07,18.5786,144.883,29.0104,147.856,30.9963 C152.421,34.0465,168.054,40.6537,168.66,40.9584 C168.66,40.9584,195.693,54.7315,195.693,54.7315 C195.693,54.7315,194.523,56.2091,194.523,56.2091 C194.523,56.2091,163.951,41.6951,163.951,41.6951 C161.958,40.8452,141.275,35.9482,133.52,35.5227 C128.193,35.2304,113.285,35.4489,107.743,36.4579 C107.743,36.4579,108.937,36.4579,108.937,36.4579 C107.457,36.7273,105.672,38.5623,106.925,39.3882 C106.925,39.3882,113.087,45.7476,113.087,45.7476 C114.247,46.8144,122.093,52.3716,123.524,53.0423 C129.194,55.7005,146.232,62.2386,147.415,62.3944 C147.415,62.3944,186.085,66.4626,186.085,66.4626 C186.085,66.4626,176.297,70.5222,173.256,71.123 C161.182,73.5091,133.476,68.9159,121.575,69.8761 C114.732,70.4282,101.675,75.3996,96.8569,78.7746 C92.2373,82.0108,86.6871,87.6569,84.3313,91.6051 C82.2133,95.1548,80.3449,101.734,75.9054,104.909 C73.3288,106.752,69.9223,107.508,67.6561,107.286 C66.295,107.153,62.1889,105.459,60.6759,106.377 C57.2211,108.475,55.7451,113.686,54.4713,114.908 C51.6857,117.578,48.9358,121.004,47.0681,123.018 C43.8026,126.539,33.2136,133.128,33.1078,137.91 C33.0493,140.552,36.8721,143.594,39.5239,144.203 C44.2852,145.297,55.5914,144.481,59.8298,141.476 C63.6313,138.782,71.4634,127.912,71.4634,127.912 C71.4634,127.912,80.1512,129.365,83.07,129.25 C89.0841,129.011,105.034,126.26,110.644,124.081 C115.988,122.005,126.841,113.704,126.841,113.704 C126.841,113.704,129.882,114.065,129.882,114.065 C129.882,114.065,122.394,122.751,119.105,124.606 C114.212,127.366,105.978,129.624,101.506,131.044 C92.9548,133.759,87.1673,131.173,82.6521,132.666 C71.6864,136.291,69.4677,141.334,65.434,146.306 C62.3297,150.133,62.8965,155.427,67.7426,154.414 C71.8464,153.557,78.0132,151.616,81.594,149.645 C85.1818,147.67,88.5539,142.437,91.6941,140.869 C95.3214,139.057,103.964,139.038,107.95,137.912 C111.551,136.895,118.465,133.65,121.344,131.268 C122.987,129.91,125.503,126.429,127.573,125.512 C132.562,123.302,143.797,124.967,149.236,124.606 C155.989,124.159,179.337,115.063,179.337,115.063 C179.337,115.063,163.896,114.834,163.896,114.834 C163.896,114.834,164.769,113.791,164.769,113.791 C164.769,113.791,192.206,112.149,200.231,114.314 C207.111,116.17,223.624,124.09,230.378,123.416 C233.398,123.115,236.619,122.134,236.953,119.849 C237.632,115.193,221.447,108.654,221.447,108.654 C221.447,108.654,195.493,99.0893,193.05,99.0893 C190.607,99.0893,195.791,96.7538,197.361,96.4636 C199.268,96.111,205.092,95.2481,207.028,95.376 C211.707,95.6852,220.852,95.8182,220.852,95.8182 C220.852,95.8182,231.405,92.8703,231.405,92.8703 C231.405,92.8703,244.479,87.9849,246.269,84.9109 C249.574,79.233,237.71,66.2845,233.381,63.44 C229.004,60.5634,214.384,54.5513,214.384,54.5513 C214.384,54.5513,203.187,51.9268,203.187,51.9268 z"/>
  </g>
  <g id="Layer_3">
    <path id="Path-1" style="fill:#ffffff;fill-opacity:1;fill-rule:nonzero;opacity:1;stroke:none;" d="M223.656,68.4322 C221.622,68.6399,217.214,71.321,217.214,71.321 C217.214,71.321,220.23,73.5601,221.681,73.7605 C223.195,73.9695,225.878,73.551,226.775,72.3085 C227.255,71.6428,227.664,69.7458,227.197,69.0611 C226.634,68.2347,224.668,68.3288,223.656,68.4322 z"/>
    <path id="Path-2" style="fill:#000000;fill-opacity:1;fill-rule:nonzero;opacity:0.9;stroke:none;" d="M95.7961,73.6583 C95.7961,73.6583,95.3302,67.1237,88.3544,64.2828 C84.1512,62.571,75.6278,62.8333,70.5371,67.8429 C67.7744,70.5615,65.0444,77.6847,68.0397,83.6913 C71.5353,90.701,78.6231,92.6681,78.6231,92.6681 C78.6231,92.6681,82.8165,84.4173,85.7452,81.5791 C87.9992,79.3947,95.7961,73.6583,95.7961,73.6583 z"/>
    <path id="Path-3" style="fill:#000000;fill-opacity:1;fill-rule:nonzero;opacity:1;stroke:none;" d="M182.268,114.907 C182.268,114.907,171.624,119.363,171.624,119.363 C171.624,119.363,188.619,121.093,193.937,124.915 C198.091,127.9,209.357,142.724,212.387,138.05 C217.354,130.388,207.71,121.597,202.689,118.503 C200.868,117.382,194.883,114.985,194.883,114.985 C194.883,114.985,182.268,114.907,182.268,114.907 z"/>
  </g>
</svg>
