<?xml version="1.0" encoding="UTF-8" standalone="no"?>
<!DOCTYPE svg PUBLIC "-//W3C//DTD SVG 1.1//EN" "http://www.w3.org/Graphics/SVG/1.1/DTD/svg11.dtd">
<!-- Created with Vectornator (http://vectornator.io/) -->
<svg height="100%" stroke-miterlimit="10" style="fill-rule:nonzero;clip-rule:evenodd;stroke-linecap:round;stroke-linejoin:round;" version="1.1" viewBox="0 0 419.58 283.5" width="100%" xml:space="preserve" xmlns="http://www.w3.org/2000/svg" xmlns:vectornator="http://vectornator.io" xmlns:xlink="http://www.w3.org/1999/xlink">
<defs/>
<g id="base" vectornator:layerName="base" visibility="hidden">
<g opacity="1" vectornator:layerName="(curve)">
<path d="M94.2963 174.183C96.2194 177.183 97.2075 178.599 99.4218 180.362C101.202 182.05 104.008 183.886 105.628 184.94" fill="none" opacity="1" stroke="#000000" stroke-linecap="butt" stroke-linejoin="miter" stroke-width="0.211667"/>
<path d="M222.903 174.613C221.386 176.93 219.508 178.759 216.254 181.578C213.978 183.069 211.695 183.856 211.695 183.856" fill="none" opacity="1" stroke="#000000" stroke-linecap="butt" stroke-linejoin="miter" stroke-width="0.211667"/>
<path d="M158.359 62.6259C158.359 62.6259 138.82 56.7414 130.696 59.6363C122.571 62.5311 124.302 73.2227 124.302 73.2227C124.302 73.2227 123.697 74.5255 122.824 76.4254C121.952 78.3254 119.994 80.3591 120.815 80.9828C122.641 82.3686 123.26 82.8325 123.26 82.8325C123.26 82.8325 121.508 88.9704 124.167 91.4022C126.826 93.8341 134.06 93.657 133.742 93.7052C120.882 95.6501 79.5784 123.471 85.4645 156.695C86.5726 162.949 88.7494 168.028 91.518 172.15C102.452 188.43 122.613 189.799 122.613 189.799C122.613 189.799 155.074 159.019 158.056 149.985C157.659 138.529 158.359 62.6259 158.359 62.6259Z" fill="#ffffff" fill-rule="nonzero" opacity="1" stroke="#000000" stroke-linecap="butt" stroke-linejoin="miter" stroke-width="0.211667" vectornator:layerName="body"/>
<path d="M158.007 62.2508C158.007 62.2508 177.546 56.3663 185.67 59.2611C193.795 62.156 192.064 72.8475 192.064 72.8475C192.064 72.8475 192.669 74.1504 193.542 76.0503C194.414 77.9503 196.372 79.984 195.551 80.6076C193.725 81.9935 193.106 82.4573 193.106 82.4573C193.106 82.4573 194.858 88.5953 192.199 91.0271C189.54 93.4589 182.306 93.2819 182.624 93.33C195.484 95.275 236.788 123.095 230.902 156.32C229.793 162.574 227.617 167.653 224.848 171.775C213.914 188.055 193.753 189.424 193.753 189.424C193.753 189.424 161.292 158.644 158.31 149.61C158.707 138.154 158.007 62.2508 158.007 62.2508Z" fill="#ffffff" fill-rule="nonzero" opacity="1" stroke="#000000" stroke-linecap="butt" stroke-linejoin="miter" stroke-width="0.211667" vectornator:layerName="body"/>
<path d="M153.933 209.146C151.055 199.648 144.124 196.012 144.124 196.012C144.124 196.012 150.772 192.692 154.2 185.213C157.629 177.734 158.1 166.746 158.1 166.746L158.678 145.779C158.678 145.779 122.453 171.263 111 179.088C99.5468 186.914 101.028 191.022 100.79 195.896C100.706 201.341 113.663 212.519 113.663 212.519C113.663 212.519 100.354 212.506 96.1031 221.272C95.5568 222.399 94.567 225.266 94.567 225.266L158.04 233.936C158.04 233.936 156.883 218.877 153.933 209.146Z" fill="#ffffff" fill-rule="nonzero" opacity="1" stroke="#000000" stroke-linecap="butt" stroke-linejoin="miter" stroke-width="0.211667"/>
<path d="M162.469 207.295C164.595 200.426 172.119 195.296 172.119 195.296C172.119 195.296 165.363 191.38 161.903 184.033C158.443 176.685 158.278 165.906 158.278 165.906L158.468 146.136C158.468 146.136 194.692 171.619 206.146 179.445C217.599 187.27 216.118 191.378 216.355 196.252C216.439 201.697 203.483 212.875 203.483 212.875C203.483 212.875 219.261 211.435 221.35 224.838C220.77 224.92 157.977 233.92 157.977 233.92C157.977 233.92 159.428 217.118 162.469 207.295Z" fill="#ffffff" fill-rule="nonzero" opacity="1" stroke="#000000" stroke-linecap="butt" stroke-linejoin="miter" stroke-width="0.211667"/>
<path d="M138.401 131.577C138.401 131.577 133.475 138.323 120.799 142.178C108.124 146.032 103.06 147.086 87.6986 146.996C72.3375 146.906 66.8775 146.523 59.3548 141.818C51.8321 137.113 52.6666 126.982 57.6078 128.175C62.549 129.367 66.2123 133.031 68.3421 131.156C70.4719 129.282 65.0996 126.593 67.6606 125.193C70.2215 123.793 76.862 128.057 81.312 127.942C89.5262 127.729 98.7934 124.729 103.442 121.87C110.608 117.463 111.535 111.562 123.663 102.687C135.791 93.8126 148.518 97.3295 151.91 100.157" fill="#ffffff" fill-rule="nonzero" opacity="1" stroke="#000000" stroke-linecap="butt" stroke-linejoin="miter" stroke-width="0.211667"/>
<path d="M193.831 129.076C193.831 129.076 201.581 122.412 206.178 119.746C209.528 117.814 214.538 113.747 225.022 112.056C235.506 110.365 244.248 109.303 258.052 108.562C271.856 107.82 280.923 96.248 276.991 91.2013C273.058 86.1546 269.262 97.1318 264.761 95.1566C260.932 93.4763 277.176 85.9306 263.736 87.8107C253.628 89.8499 253.964 90.7958 246.712 91.9779C239.46 93.1599 232.432 93.7463 222.789 93.1307C213.145 92.5152 180.624 87.2831 170.796 100.255" fill="#ffffff" fill-rule="nonzero" opacity="1" stroke="#000000" stroke-linecap="butt" stroke-linejoin="miter" stroke-width="0.211667"/>
<path d="M141.996 76.678C140.602 78.2102 140.016 79.401 138.769 81.3405L137.301 81.5429L137.293 79.8181C137.449 76.9479 137.422 73.6762 135.598 71.4496C135.598 71.4496 136.691 68.9206 138.114 67.3294C139.537 65.7383 141.29 65.085 141.29 65.085C140.258 64.6408 139.676 63.9523 138.992 63.1577C132.206 65.1084 129.844 63.9863 125.725 63.519C126.79 61.7055 129.872 58.5888 132.558 57.6337C136.949 56.0722 141.036 55.6784 141.036 55.6784C141.036 55.6784 141.846 51.2862 142.063 51.286C147.999 51.2797 154.288 54.9325 157.841 58.0382C162.637 55.4128 165.122 52.3992 174.719 51.3529C175.055 52.6087 175.39 53.8608 175.836 55.087C179.016 55.6805 181.368 56.4065 184.177 57.4962C187.516 59.1373 189.816 60.9638 190.876 63.8804C186.806 64.0926 183.484 63.9165 178.003 63.0372C177.787 63.7653 176.915 64.6689 175.902 65.2657C178.368 67.0504 179.926 69.4561 181.396 71.8951C180.653 73.6255 179.855 74.9222 179.653 76.3228C179.421 77.6361 179.806 79.3789 179.888 81.6504L178.379 81.5514L175.311 77.4921C173.335 72.2629 167.285 74.6463 167.823 79.6001L168.152 82.491C167.316 83.3431 166.692 83.8386 165.525 84.4786C164.265 84.9545 162.991 85.466 161.666 85.8939C160.454 86.2789 159.226 86.6116 157.874 86.692C155.209 86.1281 154.424 85.6134 151.782 84.3732C150.692 83.717 150.293 83.488 149 82.3668C149 82.3668 149.079 81.2859 148.994 79.6997C149.887 75.4271 144.443 73.1669 141.996 76.678Z" fill="#000000" fill-rule="nonzero" opacity="1" stroke="#000000" stroke-linecap="butt" stroke-linejoin="miter" stroke-width="0.211667"/>
<path d="M85.6914 159.194L157.831 143.32L230.761 159.432L225.529 175.842L157.875 159.556L103.896 171.876L90.2243 174.996" fill="#000000" fill-rule="nonzero" opacity="1" stroke="#000000" stroke-linecap="butt" stroke-linejoin="miter" stroke-width="0.211667"/>
<path d="M131.041 165.25L104.624 184.267C103.373 183.421 98.31 180.168 96.1394 178.24C93.9688 176.311 91.7977 173.677 91.8269 171.017" fill="#000000" fill-rule="nonzero" opacity="1" stroke="#000000" stroke-linecap="butt" stroke-linejoin="miter" stroke-width="0.211667"/>
<path d="M180.933 162.446L211.695 183.856C211.695 183.856 216.356 181.718 218.367 179.637C221.237 176.687 226.208 170.866 226.12 170.994" fill="#000000" fill-rule="nonzero" opacity="1" stroke="#000000" stroke-linecap="butt" stroke-linejoin="miter" stroke-width="0.211667"/>
</g>
</g>
<g id="A" vectornator:layerName="A">
<g opacity="1" vectornator:layerName="グループ 1">
<path d="M46.1737 205.333C46.1737 205.333 46.1859 222.153 37.8405 223.422C29.4951 224.691 26.1526 207.489 26.1526 207.489" fill="#ffffff" fill-rule="nonzero" opacity="1" stroke="#000000" stroke-linecap="butt" stroke-linejoin="miter" stroke-width="0.211667" vectornator:layerName="曲線 4"/>
<path d="M88.7351 72.5724C88.7351 72.5724 99.3664 59.6717 93.4843 53.6172C87.6022 47.5628 75.4418 59.5706 75.4418 59.5706" fill="#ffffff" fill-rule="nonzero" opacity="1" stroke="#000000" stroke-linecap="butt" stroke-linejoin="miter" stroke-width="0.211667" vectornator:layerName="曲線 5"/>
<path d="M48.4306 160.037L58.0328 191.138C56.8328 192.054 52.1351 195.816 49.6154 197.259C47.0957 198.701 43.9065 199.919 41.3947 199.044" fill="#fddf19" fill-rule="nonzero" opacity="1" stroke="#000000" stroke-linecap="butt" stroke-linejoin="miter" stroke-width="0.211667" vectornator:layerName="曲線 3"/>
<path d="M61.6785 111.855L91.7779 89.523C91.7779 89.523 91.2376 84.4241 89.9065 81.8539C88.0251 78.1935 84.0923 71.6263 84.1856 71.7504" fill="#fddf19" fill-rule="nonzero" opacity="1" stroke="#000000" stroke-linecap="butt" stroke-linejoin="miter" stroke-width="0.211667" vectornator:layerName="曲線 2"/>
<path d="M25.886 207.655L34.1464 127.94L75.3734 59.2229L89.303 72.5686L52.1697 133.123L46.0565 187.878L46.2681 205.288" fill="#fddf19" fill-rule="nonzero" opacity="1" stroke="#000000" stroke-linecap="butt" stroke-linejoin="miter" stroke-width="0.211667" vectornator:layerName="曲線 1"/>
</g>
<g opacity="1" vectornator:layerName="グループ 1">
<path d="M81.8927 200.12C81.8927 200.12 80.0763 216.841 71.6424 217.195C63.2086 217.55 61.756 200.086 61.756 200.086" fill="#ffffff" fill-rule="nonzero" opacity="1" stroke="#000000" stroke-linecap="butt" stroke-linejoin="miter" stroke-width="0.211667" vectornator:layerName="曲線 4"/>
<path d="M138.634 72.7724C138.634 72.7724 150.605 61.1038 145.416 54.4458C140.227 47.7878 126.833 58.4025 126.833 58.4025" fill="#ffffff" fill-rule="nonzero" opacity="1" stroke="#000000" stroke-linecap="butt" stroke-linejoin="miter" stroke-width="0.211667" vectornator:layerName="曲線 5"/>
<path d="M89.0605 155.337L95.2247 187.298C93.9322 188.078 88.8534 191.307 86.1918 192.467C83.5302 193.627 80.2275 194.491 77.8258 193.348" fill="#428300" fill-rule="nonzero" opacity="1" stroke="#000000" stroke-linecap="butt" stroke-linejoin="miter" stroke-width="0.211667" vectornator:layerName="曲線 3"/>
<path d="M107.468 108.881L139.817 89.9533C139.817 89.9533 139.834 84.8258 138.79 82.1262C137.318 78.283 134.122 71.3272 134.201 71.4607" fill="#428300" fill-rule="nonzero" opacity="1" stroke="#000000" stroke-linecap="butt" stroke-linejoin="miter" stroke-width="0.211667" vectornator:layerName="曲線 2"/>
<path d="M61.4729 200.222L78.3503 121.877L126.803 58.0494L139.199 72.8303L95.7032 128.989L83.6738 182.755L81.9915 200.084" fill="#428300" fill-rule="nonzero" opacity="1" stroke="#000000" stroke-linecap="butt" stroke-linejoin="miter" stroke-width="0.211667" vectornator:layerName="曲線 1"/>
</g>
<path d="M156.582 167.047C158.506 170.047 159.494 171.463 161.708 173.227C163.488 174.915 166.294 176.75 167.914 177.804" fill="none" opacity="1" stroke="#000000" stroke-linecap="butt" stroke-linejoin="miter" stroke-width="0.211667"/>
<path d="M285.19 167.477C283.673 169.794 281.794 171.624 278.54 174.442C276.265 175.933 273.981 176.72 273.981 176.72" fill="none" opacity="1" stroke="#000000" stroke-linecap="butt" stroke-linejoin="miter" stroke-width="0.211667"/>
<path d="M220.763 59.535C220.763 59.535 204.162 54.8244 195.537 54.7526C186.63 54.6783 188.337 68.9297 188.337 68.9297C188.337 68.9297 185.446 71.8309 184.403 73.6801C183.36 75.5293 187.075 76.6491 187.075 76.6491C187.075 76.6491 186.972 76.8383 186.333 81.7707C185.813 85.7789 184.923 90.3066 193.712 90.2015C199.382 90.1336 194.933 94.3177 193.527 94.3844C180.536 95.0003 141.771 118.277 147.657 151.501C148.765 157.755 154.533 163.257 158.168 166.64C173.665 181.061 187.656 180.2 187.656 180.2C187.656 180.2 218.055 149.892 221.036 140.857C220.64 129.401 220.763 59.535 220.763 59.535Z" fill="#fbdac0" fill-rule="nonzero" opacity="1" stroke="#000000" stroke-linecap="butt" stroke-linejoin="miter" stroke-width="0.211667" vectornator:layerName="body"/>
<path d="M221.13 59.535C221.13 59.535 237.731 54.8244 246.356 54.7526C255.263 54.6783 253.556 68.9297 253.556 68.9297C253.556 68.9297 256.447 71.8309 257.49 73.6801C258.533 75.5293 254.818 76.6491 254.818 76.6491C254.818 76.6491 254.921 76.8383 255.56 81.7707C256.08 85.7789 256.971 90.3066 248.181 90.2015C242.512 90.1336 246.96 94.3177 248.366 94.3844C261.357 95.0003 300.122 118.277 294.236 151.501C293.128 157.755 287.361 163.257 283.725 166.64C268.228 181.061 254.237 180.2 254.237 180.2C254.237 180.2 223.838 149.892 220.857 140.857C221.253 129.401 221.13 59.535 221.13 59.535Z" fill="#fbdac0" fill-rule="nonzero" opacity="1" stroke="#000000" stroke-linecap="butt" stroke-linejoin="miter" stroke-width="0.211667" vectornator:layerName="body"/>
<path d="M221.296 138.915C221.296 138.915 257.872 159.711 269.325 167.536C280.778 175.362 277.83 178.876 277.83 184.546C277.83 193.051 260.82 201.556 260.82 201.556C260.82 201.556 266.49 201.556 272.16 207.226C273.046 208.112 274.995 212.896 274.995 212.896L221.13 227.071L221.296 138.915Z" fill="#fbdac0" fill-rule="nonzero" opacity="1" stroke="#000000" stroke-linecap="butt" stroke-linejoin="miter" stroke-width="0.211667"/>
<path d="M220.964 138.644C220.964 138.644 184.388 159.44 172.935 167.265C161.482 175.09 164.43 178.605 164.43 184.275C164.43 192.78 181.44 201.285 181.44 201.285C181.44 201.285 175.77 201.285 170.1 206.955C169.214 207.841 167.265 212.625 167.265 212.625L221.13 226.8L220.964 138.644Z" fill="#fbdac0" fill-rule="nonzero" opacity="1" stroke="#000000" stroke-linecap="butt" stroke-linejoin="miter" stroke-width="0.211667"/>
<path d="M201.687 125.442C201.687 125.442 196.761 132.187 184.086 136.042C171.41 139.896 166.346 140.95 150.985 140.86C135.624 140.77 130.164 140.388 122.641 135.682C115.118 130.977 115.953 120.846 120.894 122.039C125.835 123.232 129.498 126.895 131.628 125.021C133.758 123.146 128.849 118.635 131.41 117.235C133.971 115.835 140.148 121.921 144.598 121.806C152.812 121.594 162.08 118.593 166.728 115.735C173.894 111.328 173.147 109.1 185.275 100.225C197.403 91.3503 207.399 94.5623 210.79 97.39" fill="#fbdac0" fill-rule="nonzero" opacity="1" stroke="#000000" stroke-linecap="butt" stroke-linejoin="miter" stroke-width="0.211667"/>
<path d="M255.117 128.94C255.117 128.94 262.867 122.276 267.464 119.61C270.814 117.678 275.824 113.612 286.308 111.921C296.792 110.23 305.535 109.167 319.338 108.426C333.142 107.685 342.21 96.1123 338.277 91.0656C334.344 86.0189 330.548 96.996 326.047 95.0209C322.218 93.3406 338.462 85.7948 325.022 87.675C314.914 89.7142 315.251 90.6601 307.998 91.8421C300.746 93.0242 293.718 93.6106 284.075 92.995C274.431 92.3795 241.91 87.1474 232.082 100.119" fill="#fbdac0" fill-rule="nonzero" opacity="1" stroke="#000000" stroke-linecap="butt" stroke-linejoin="miter" stroke-width="0.211667"/>
<path d="M147.978 152.059L220.117 136.184L294.84 153.09L287.815 168.706L220.161 152.42L166.182 164.74L152.511 167.86" fill="#000000" fill-rule="nonzero" opacity="1" stroke="#000000" stroke-linecap="butt" stroke-linejoin="miter" stroke-width="0.211667"/>
<path d="M193.328 158.114L166.91 177.131C165.659 176.286 160.596 173.032 158.426 171.104C156.255 169.176 154.084 166.541 154.113 163.881" fill="#000000" fill-rule="nonzero" opacity="1" stroke="#000000" stroke-linecap="butt" stroke-linejoin="miter" stroke-width="0.211667"/>
<path d="M243.219 155.311L273.981 176.72C273.981 176.72 278.642 174.582 280.654 172.501C283.523 169.551 288.494 163.73 288.406 163.858" fill="#000000" fill-rule="nonzero" opacity="1" stroke="#000000" stroke-linecap="butt" stroke-linejoin="miter" stroke-width="0.211667"/>
<path d="M221.13 226.8C221.13 226.8 218.962 204.953 215.46 198.45C212.52 192.991 206.955 189.945 206.955 189.945C206.955 189.945 215.46 181.44 218.295 175.77C221.13 170.1 221.13 158.76 221.13 158.76L221.13 226.8Z" fill="#cccccc" fill-rule="nonzero" opacity="1" stroke="#000000" stroke-linecap="butt" stroke-linejoin="miter" stroke-width="0.211667"/>
<path d="M221.13 226.8C221.13 226.8 218.962 204.953 215.46 198.45C212.52 192.991 206.955 189.945 206.955 189.945C206.955 189.945 215.46 181.44 218.295 175.77C221.13 170.1 221.13 158.76 221.13 158.76C221.13 158.76 220.33 167.86 223.86 175.647C227.391 183.434 235.253 189.909 235.253 189.909C235.253 189.909 230.578 191.46 226.697 198.355C222.817 205.25 221.13 226.8 221.13 226.8Z" fill="#ffffff" fill-rule="nonzero" opacity="1" stroke="#000000" stroke-linecap="butt" stroke-linejoin="miter" stroke-width="0.211667" vectornator:layerName="曲線 1"/>
<path d="M238.782 76.8126C240.175 78.3448 240.761 79.5356 242.008 81.4751L243.477 81.6775L243.485 79.9527C243.328 77.0825 243.355 73.8108 245.179 71.5842C245.179 71.5842 244.086 69.0552 242.663 67.464C241.24 65.8729 239.487 65.2196 239.487 65.2196C240.519 64.7754 241.738 62.3017 242.422 61.5071C251.552 60.7648 251.329 57.0536 251.329 57.0536C251.329 57.0536 250.898 55.5591 248.212 54.6041C243.821 53.0426 240.047 53.3423 240.047 53.3423L238.414 48.2207C238.414 48.2207 231.538 48.8573 227.206 51.7835C222.874 54.7097 221.087 59.9255 221.087 59.9255L221.087 88.2755C221.087 88.2755 226.354 85.748 228.995 84.5078C230.085 83.8516 230.484 83.6226 231.777 82.5014C231.777 82.5014 231.698 81.4205 231.783 79.8343C230.89 75.5617 236.335 73.3015 238.782 76.8126Z" fill="#000000" fill-rule="nonzero" opacity="1" stroke="#000000" stroke-linecap="butt" stroke-linejoin="miter" stroke-width="0.211667"/>
<path d="M203.307 76.8126C201.913 78.3448 201.327 79.5356 200.08 81.4751L198.612 81.6775L198.604 79.9527C198.761 77.0825 198.733 73.8108 196.909 71.5842C196.909 71.5842 198.002 69.0552 199.425 67.464C200.848 65.8729 202.601 65.2196 202.601 65.2196C201.569 64.7754 200.35 62.3017 199.666 61.5071C190.536 60.7648 190.759 57.0536 190.759 57.0536C190.759 57.0536 191.191 55.5591 193.876 54.6041C198.268 53.0426 202.041 53.3423 202.041 53.3423L203.674 48.2207C203.674 48.2207 210.55 48.8573 214.882 51.7835C219.214 54.7097 221.002 59.9255 221.002 59.9255L221.002 88.2755C221.002 88.2755 215.735 85.748 213.093 84.5078C212.003 83.8516 211.604 83.6226 210.311 82.5014C210.311 82.5014 210.39 81.4205 210.305 79.8343C211.198 75.5617 205.754 73.3015 203.307 76.8126Z" fill="#000000" fill-rule="nonzero" opacity="1" stroke="#000000" stroke-linecap="butt" stroke-linejoin="miter" stroke-width="0.211667"/>
<path d="M341.747 140.603C341.747 140.603 305.251 161.539 293.827 169.408C282.404 177.277 285.366 180.781 285.388 186.451C285.42 194.956 302.463 203.396 302.463 203.396C302.463 203.396 296.793 203.417 291.144 209.109C290.262 209.998 288.331 214.79 288.331 214.79L342.25 228.758C342.25 228.758 341.042 218.232 338.771 207.021C336.501 195.809 327.81 192.038 327.81 192.038C327.81 192.038 335.654 184.766 339.298 177.286C342.941 169.806 342.383 162.119 342.383 162.119L341.747 140.603Z" fill="#dddddd" fill-rule="nonzero" opacity="1" stroke="#000000" stroke-linecap="butt" stroke-linejoin="miter" stroke-width="0.211667" vectornator:layerName="曲線 2"/>
<path d="M105.147 135.725C105.147 135.725 137.462 162.67 147.348 172.4C157.235 182.13 153.711 185.067 152.706 190.648C151.2 199.018 132.953 204.376 132.953 204.376C132.953 204.376 138.533 205.38 143.109 211.965C143.824 212.993 144.895 218.047 144.895 218.047L89.3714 222.459C89.3714 222.459 92.3856 212.301 96.5651 201.653C100.745 191.005 109.958 188.797 109.958 188.797C109.958 188.797 103.493 180.275 101.201 172.277C98.9093 164.279 100.791 156.805 100.791 156.805L105.147 135.725Z" fill="#dddddd" fill-rule="nonzero" opacity="1" stroke="#000000" stroke-linecap="butt" stroke-linejoin="miter" stroke-width="0.211667" vectornator:layerName="曲線 3"/>
</g>
<g id="B" vectornator:layerName="B" visibility="hidden">
<g opacity="1" vectornator:layerName="グループ 1">
<path d="M83.436 200.786C83.436 200.786 83.1912 217.604 74.8275 218.745C66.4637 219.887 63.3843 202.635 63.3843 202.635" fill="#ffffff" fill-rule="nonzero" opacity="1" stroke="#000000" stroke-linecap="butt" stroke-linejoin="miter" stroke-width="0.211667" vectornator:layerName="曲線 4"/>
<path d="M128.02 68.6903C128.02 68.6903 138.847 55.9534 133.058 49.8099C127.269 43.6663 114.927 55.487 114.927 55.487" fill="#ffffff" fill-rule="nonzero" opacity="1" stroke="#000000" stroke-linecap="butt" stroke-linejoin="miter" stroke-width="0.211667" vectornator:layerName="曲線 5"/>
<path d="M86.3843 155.529L95.5105 186.773C94.2966 187.671 89.5419 191.361 87.0005 192.765C84.4591 194.169 81.2517 195.338 78.7536 194.424" fill="#d10000" fill-rule="nonzero" opacity="1" stroke="#000000" stroke-linecap="butt" stroke-linejoin="miter" stroke-width="0.211667" vectornator:layerName="曲線 3"/>
<path d="M100.366 107.555L130.803 85.6854C130.803 85.6854 130.341 80.5788 129.049 77.9886C127.224 74.2999 123.392 67.6735 123.483 67.799" fill="#d10000" fill-rule="nonzero" opacity="1" stroke="#000000" stroke-linecap="butt" stroke-linejoin="miter" stroke-width="0.211667" vectornator:layerName="曲線 2"/>
<path d="M63.1152 202.798L72.592 123.217L114.864 55.1383L128.588 68.6952L90.534 128.675L83.5853 183.33L83.5311 200.742" fill="#d10000" fill-rule="nonzero" opacity="1" stroke="#000000" stroke-linecap="butt" stroke-linejoin="miter" stroke-width="0.211667" vectornator:layerName="曲線 1"/>
</g>
<g opacity="1" vectornator:layerName="グループ 1">
<path d="M49.7524 201.255C49.7524 201.255 50.2517 218.067 41.9466 219.577C33.6415 221.087 29.8021 203.989 29.8021 203.989" fill="#ffffff" fill-rule="nonzero" opacity="1" stroke="#000000" stroke-linecap="butt" stroke-linejoin="miter" stroke-width="0.211667" vectornator:layerName="曲線 4"/>
<path d="M88.4502 67.3165C88.4502 67.3165 98.7034 54.1132 92.6484 48.2317C86.5934 42.3501 74.786 54.7052 74.786 54.7052" fill="#ffffff" fill-rule="nonzero" opacity="1" stroke="#000000" stroke-linecap="butt" stroke-linejoin="miter" stroke-width="0.211667" vectornator:layerName="曲線 5"/>
<path d="M50.6962 155.912L61.1953 186.722C60.0224 187.672 55.4355 191.569 52.9587 193.084C50.4819 194.599 47.3293 195.908 44.7932 195.106" fill="#680082" fill-rule="nonzero" opacity="1" stroke="#000000" stroke-linecap="butt" stroke-linejoin="miter" stroke-width="0.211667" vectornator:layerName="曲線 3"/>
<path d="M62.5429 107.366L91.9828 84.1718C91.9828 84.1718 91.2951 79.0907 89.8901 76.5601C87.9034 72.9558 83.782 66.5053 83.8788 66.6266" fill="#680082" fill-rule="nonzero" opacity="1" stroke="#000000" stroke-linecap="butt" stroke-linejoin="miter" stroke-width="0.211667" vectornator:layerName="曲線 2"/>
<path d="M29.5405 204.163L35.4883 124.242L74.7075 54.3596L89.0178 67.2962L53.6541 128.9L49.1296 183.81L49.8454 201.206" fill="#680082" fill-rule="nonzero" opacity="1" stroke="#000000" stroke-linecap="butt" stroke-linejoin="miter" stroke-width="0.211667" vectornator:layerName="曲線 1"/>
</g>
<path d="M156.582 167.047C158.506 170.047 159.494 171.463 161.708 173.227C163.488 174.915 166.294 176.75 167.914 177.804" fill="none" opacity="1" stroke="#000000" stroke-linecap="butt" stroke-linejoin="miter" stroke-width="0.211667"/>
<path d="M285.19 167.477C283.673 169.794 281.794 171.624 278.54 174.442C276.265 175.933 273.981 176.72 273.981 176.72" fill="none" opacity="1" stroke="#000000" stroke-linecap="butt" stroke-linejoin="miter" stroke-width="0.211667"/>
<path d="M221.13 59.535C221.13 59.535 238.056 52.7967 246.457 54.7526C255.439 56.8439 255.166 64.5048 255.894 67.0775C256.622 69.6503 258.939 71.0987 260.615 72.5127C262.291 73.9267 257.642 75.6072 257.642 75.6072C257.642 75.6072 258.331 78.1234 259.233 81.6849C260.224 85.6031 257.36 88.1006 248.181 90.2015C242.654 91.4665 246.96 94.3177 248.366 94.3844C261.357 95.0003 300.122 118.277 294.236 151.501C293.128 157.755 287.361 163.257 283.725 166.64C268.228 181.061 254.237 180.2 254.237 180.2C254.237 180.2 223.838 149.892 220.857 140.857C221.253 129.401 221.13 59.535 221.13 59.535Z" fill="#fbdac0" fill-rule="nonzero" opacity="1" stroke="#000000" stroke-linecap="butt" stroke-linejoin="miter" stroke-width="0.211667" vectornator:layerName="body"/>
<path d="M221.09 60.3862C221.09 60.3862 204.164 53.6479 195.763 55.6037C186.781 57.6951 187.055 65.3559 186.326 67.9287C185.598 70.5015 183.281 71.9499 181.605 73.3639C179.929 74.7779 184.578 76.4584 184.578 76.4584C184.578 76.4584 183.889 78.9746 182.987 82.5361C181.996 86.4543 184.86 88.9518 194.039 91.0527C199.566 92.3177 195.26 95.1689 193.854 95.2355C180.863 95.8515 142.098 119.128 147.984 152.352C149.092 158.607 154.86 164.108 158.495 167.491C173.992 181.912 187.983 181.051 187.983 181.051C187.983 181.051 218.382 150.743 221.363 141.708C220.967 130.252 221.09 60.3862 221.09 60.3862Z" fill="#fbdac0" fill-rule="nonzero" opacity="1" stroke="#000000" stroke-linecap="butt" stroke-linejoin="miter" stroke-width="0.211667" vectornator:layerName="body 1"/>
<path d="M221.296 138.589C221.296 138.589 257.872 159.385 269.325 167.21C280.778 175.036 277.83 178.55 277.83 184.22C277.83 192.725 260.82 201.23 260.82 201.23C260.82 201.23 266.49 201.23 272.16 206.9C273.046 207.786 274.995 212.57 274.995 212.57L221.13 226.745L221.296 138.589Z" fill="#fbdac0" fill-rule="nonzero" opacity="1" stroke="#000000" stroke-linecap="butt" stroke-linejoin="miter" stroke-width="0.211667"/>
<path d="M221.045 138.59C221.045 138.59 184.469 159.385 173.016 167.211C161.563 175.036 164.511 178.551 164.511 184.221C164.511 192.726 181.521 201.231 181.521 201.231C181.521 201.231 175.851 201.231 170.181 206.901C169.295 207.786 167.346 212.571 167.346 212.571L221.211 226.746L221.045 138.59Z" fill="#fbdac0" fill-rule="nonzero" opacity="1" stroke="#000000" stroke-linecap="butt" stroke-linejoin="miter" stroke-width="0.211667"/>
<path d="M201.687 125.442C201.687 125.442 196.761 132.187 184.086 136.042C171.41 139.896 166.346 140.95 150.985 140.86C135.624 140.77 130.164 140.388 122.641 135.682C115.118 130.977 115.953 120.846 120.894 122.039C125.835 123.232 129.498 126.895 131.628 125.021C133.758 123.146 128.849 118.635 131.41 117.235C133.971 115.835 140.148 121.921 144.598 121.806C152.812 121.594 162.08 118.593 166.728 115.735C173.894 111.328 173.147 109.1 185.275 100.225C197.403 91.3503 207.399 94.5623 210.79 97.39" fill="#fbdac0" fill-rule="nonzero" opacity="1" stroke="#000000" stroke-linecap="butt" stroke-linejoin="miter" stroke-width="0.211667"/>
<path d="M255.117 128.94C255.117 128.94 262.867 122.276 267.464 119.61C270.814 117.678 275.824 113.612 286.308 111.921C296.792 110.23 305.535 109.167 319.338 108.426C333.142 107.685 342.21 96.1123 338.277 91.0656C334.344 86.0189 330.548 96.996 326.047 95.0209C322.218 93.3406 338.462 85.7948 325.022 87.675C314.914 89.7142 315.251 90.6601 307.998 91.8421C300.746 93.0242 293.718 93.6106 284.075 92.995C274.431 92.3795 241.91 87.1474 232.082 100.119" fill="#fbdac0" fill-rule="nonzero" opacity="1" stroke="#000000" stroke-linecap="butt" stroke-linejoin="miter" stroke-width="0.211667"/>
<path d="M193.328 158.114L164.4 175.359C163.149 174.514 160.596 173.032 158.426 171.104C156.255 169.176 154.084 166.541 154.113 163.881" fill="#000000" fill-rule="nonzero" opacity="1" stroke="#000000" stroke-linecap="butt" stroke-linejoin="miter" stroke-width="0.211667"/>
<path d="M243.219 155.311L277.377 174.948C277.377 174.948 278.642 174.582 280.654 172.501C283.523 169.551 288.494 163.73 288.406 163.858" fill="#000000" fill-rule="nonzero" opacity="1" stroke="#000000" stroke-linecap="butt" stroke-linejoin="miter" stroke-width="0.211667"/>
<path d="M147.334 152.426L221.496 135.909L296.219 152.814L287.68 168.598L221.54 152.145L167.562 164.464L153.89 167.585" fill="#000000" fill-rule="nonzero" opacity="1" stroke="#000000" stroke-linecap="butt" stroke-linejoin="miter" stroke-width="0.211667"/>
<path d="M221.153 225.66C221.153 225.66 218.962 204.953 215.46 198.45C212.52 192.991 206.955 189.945 206.955 189.945C206.955 189.945 215.46 181.44 218.295 175.77C221.13 170.1 221.13 158.76 221.13 158.76C221.13 158.76 221.021 170.354 223.865 175.925C226.71 181.497 235.32 189.898 235.32 189.898C235.32 189.898 229.118 193.33 226.46 198.991C223.802 204.652 221.153 225.66 221.153 225.66Z" fill="#ffffff" fill-rule="nonzero" opacity="1" stroke="#000000" stroke-linecap="butt" stroke-linejoin="miter" stroke-width="0.211667" vectornator:layerName="曲線 4"/>
<path d="M238.919 76.8126C240.313 78.3448 240.899 79.5356 242.145 81.4751L243.614 81.6775L243.622 79.9527C243.465 77.0825 243.492 73.8108 245.317 71.5842C245.317 71.5842 244.224 69.0552 242.801 67.464C241.378 65.8729 239.624 65.2196 239.624 65.2196C240.656 64.7754 241.652 62.3855 242.336 61.5909C251.732 61.7068 254.238 59.1249 254.238 59.1249C254.238 59.1249 253.307 56.5571 248.556 54.3978C244.313 52.4696 240.151 53.3423 240.151 53.3423L240.049 48.1874C240.049 48.1874 234.33 48.8818 227.848 51.3689C226.448 51.9062 226.525 55.3925 225.601 56.2991C222.685 59.1591 221.024 59.2934 221.024 59.2934L221.224 88.2755C221.224 88.2755 226.491 85.748 229.133 84.5078C230.222 83.8516 230.621 83.6226 231.915 82.5014C231.915 82.5014 231.836 81.4205 231.92 79.8343C231.028 75.5617 236.472 73.3015 238.919 76.8126Z" fill="#000000" fill-rule="nonzero" opacity="1" stroke="#000000" stroke-linecap="butt" stroke-linejoin="miter" stroke-width="0.211667"/>
<path d="M203.164 76.8126C201.771 78.3448 201.185 79.5356 199.938 81.4751L198.469 81.6775L198.462 79.9527C198.618 77.0825 198.591 73.8108 196.767 71.5842C196.767 71.5842 197.86 69.0552 199.283 67.464C200.706 65.8729 202.459 65.2196 202.459 65.2196C201.427 64.7754 200.431 62.3855 199.747 61.5909C190.351 61.7068 188.395 59.1936 188.395 59.1936C188.395 59.1936 188.983 56.7634 193.734 54.6041C197.977 52.6759 201.932 53.3423 201.932 53.3423L202.035 48.1874C202.035 48.1874 207.753 48.8818 214.235 51.3689C215.636 51.9062 215.559 55.3925 216.483 56.2991C219.399 59.1591 221.059 59.2934 221.059 59.2934L220.86 88.2755C220.86 88.2755 215.592 85.748 212.951 84.5078C211.861 83.8516 211.462 83.6226 210.169 82.5014C210.169 82.5014 210.248 81.4205 210.163 79.8343C211.056 75.5617 205.612 73.3015 203.164 76.8126Z" fill="#000000" fill-rule="nonzero" opacity="1" stroke="#000000" stroke-linecap="butt" stroke-linejoin="miter" stroke-width="0.211667" vectornator:layerName="曲線 1"/>
<path d="M342.178 139.384C342.178 139.384 306.397 161.521 295.242 169.765C284.086 178.009 287.163 181.412 287.373 187.078C287.688 195.578 305.001 203.447 305.001 203.447C305.001 203.447 299.335 203.657 293.879 209.533C293.027 210.451 291.256 215.304 291.256 215.304L345.609 227.474C345.609 227.474 344.052 216.993 341.411 205.864C338.769 194.734 329.958 191.254 329.958 191.254C329.958 191.254 337.556 183.724 340.949 176.128C344.342 168.531 343.529 160.867 343.529 160.867L342.178 139.384Z" fill="#dddddd" fill-rule="nonzero" opacity="1" stroke="#000000" stroke-linecap="butt" stroke-linejoin="miter" stroke-width="0.211667" vectornator:layerName="曲線 2"/>
<path d="M103.406 133.886C103.406 133.886 136.784 159.501 147.056 168.823C157.328 178.145 153.926 181.222 153.149 186.838C151.982 195.263 133.967 201.355 133.967 201.355C133.967 201.355 139.583 202.133 144.422 208.527C145.178 209.525 146.453 214.532 146.453 214.532L91.1529 221.187C91.1529 221.187 93.7536 210.915 97.4987 200.107C101.244 189.298 110.36 186.72 110.36 186.72C110.36 186.72 103.555 178.466 100.942 170.567C98.3284 162.669 99.906 155.125 99.906 155.125L103.406 133.886Z" fill="#dddddd" fill-rule="nonzero" opacity="1" stroke="#000000" stroke-linecap="butt" stroke-linejoin="miter" stroke-width="0.211667" vectornator:layerName="曲線 3"/>
</g>
</svg>
