<?xml version="1.0" encoding="utf-8"?>
<svg x="0pt" y="0pt" width="419pt" height="283pt" viewBox="0 0 419 283" xmlns="http://www.w3.org/2000/svg" xmlns:xlink="http://www.w3.org/1999/xlink">
  <g id="Layer 1">
    <g id="B">
      <g id="Group">
        <path id="Path 974" style="fill:#ffffff;fill-opacity:1;fill-rule:nonzero;opacity:1;stroke:#000000;stroke-linecap:butt;stroke-linejoin:miter;stroke-miterlimit:10;stroke-opacity:1;stroke-width:0.211294;" d="M83.3689,200.432 C83.3689,200.432,83.1245,217.22,74.7755,218.359 C66.4265,219.499,63.3525,202.278,63.3525,202.278"/>
        <path id="Path 975" style="fill:#ffffff;fill-opacity:1;fill-rule:nonzero;opacity:1;stroke:#000000;stroke-linecap:butt;stroke-linejoin:miter;stroke-miterlimit:10;stroke-opacity:1;stroke-width:0.211294;" d="M127.874,68.5692 C127.874,68.5692,138.682,55.8547,132.903,49.722 C127.125,43.5893,114.804,55.3891,114.804,55.3891"/>
        <path id="Path 976" style="fill:#d10000;fill-opacity:1;fill-rule:nonzero;opacity:1;stroke:#000000;stroke-linecap:butt;stroke-linejoin:miter;stroke-miterlimit:10;stroke-opacity:1;stroke-width:0.211294;" d="M86.312,155.255 C86.312,155.255,95.4221,186.444,95.4221,186.444 C94.2103,187.34,89.464,191.024,86.9271,192.425 C84.3901,193.827,81.1884,194.993,78.6947,194.081"/>
        <path id="Path 977" style="fill:#d10000;fill-opacity:1;fill-rule:nonzero;opacity:1;stroke:#000000;stroke-linecap:butt;stroke-linejoin:miter;stroke-miterlimit:10;stroke-opacity:1;stroke-width:0.211294;" d="M100.269,107.365 C100.269,107.365,130.652,85.5343,130.652,85.5343 C130.652,85.5343,130.191,80.4367,128.901,77.8511 C127.08,74.1689,123.254,67.5541,123.345,67.6794"/>
        <path id="Path 978" style="fill:#d10000;fill-opacity:1;fill-rule:nonzero;opacity:1;stroke:#000000;stroke-linecap:butt;stroke-linejoin:miter;stroke-miterlimit:10;stroke-opacity:1;stroke-width:0.211294;" d="M63.0839,202.44 C63.0839,202.44,72.544,123,72.544,123 C72.544,123,114.741,55.0411,114.741,55.0411 C114.741,55.0411,128.441,68.574,128.441,68.574 C128.441,68.574,90.4543,128.448,90.4543,128.448 C90.4543,128.448,83.5179,183.007,83.5179,183.007 C83.5179,183.007,83.4638,200.388,83.4638,200.388"/>
      </g>
      <g id="Group">
        <path id="Path 979" style="fill:#ffffff;fill-opacity:1;fill-rule:nonzero;opacity:1;stroke:#000000;stroke-linecap:butt;stroke-linejoin:miter;stroke-miterlimit:10;stroke-opacity:1;stroke-width:0.211294;" d="M49.7447,200.9 C49.7447,200.9,50.2431,217.682,41.9526,219.19 C33.6622,220.697,29.8295,203.629,29.8295,203.629"/>
        <path id="Path 980" style="fill:#ffffff;fill-opacity:1;fill-rule:nonzero;opacity:1;stroke:#000000;stroke-linecap:butt;stroke-linejoin:miter;stroke-miterlimit:10;stroke-opacity:1;stroke-width:0.211294;" d="M88.3742,67.1978 C88.3742,67.1978,98.6093,54.0178,92.565,48.1466 C86.5207,42.2754,74.7341,54.6087,74.7341,54.6087"/>
        <path id="Path 981" style="fill:#670082;fill-opacity:1;fill-rule:nonzero;opacity:1;stroke:#000000;stroke-linecap:butt;stroke-linejoin:miter;stroke-miterlimit:10;stroke-opacity:1;stroke-width:0.211294;" d="M50.6868,155.637 C50.6868,155.637,61.1674,186.393,61.1674,186.393 C59.9965,187.341,55.4177,191.231,52.9453,192.743 C50.4729,194.256,47.3258,195.562,44.7942,194.762"/>
        <path id="Path 982" style="fill:#670082;fill-opacity:1;fill-rule:nonzero;opacity:1;stroke:#000000;stroke-linecap:butt;stroke-linejoin:miter;stroke-miterlimit:10;stroke-opacity:1;stroke-width:0.211294;" d="M62.5126,107.177 C62.5126,107.177,91.9006,84.0233,91.9006,84.0233 C91.9006,84.0233,91.2141,78.9512,89.8116,76.4251 C87.8284,72.8271,83.7142,66.388,83.8109,66.5091"/>
        <path id="Path 983" style="fill:#670082;fill-opacity:1;fill-rule:nonzero;opacity:1;stroke:#000000;stroke-linecap:butt;stroke-linejoin:miter;stroke-miterlimit:10;stroke-opacity:1;stroke-width:0.211294;" d="M29.5684,203.803 C29.5684,203.803,35.5057,124.023,35.5057,124.023 C35.5057,124.023,74.6557,54.2637,74.6557,54.2637 C74.6557,54.2637,88.9408,67.1775,88.9408,67.1775 C88.9408,67.1775,53.6395,128.673,53.6395,128.673 C53.6395,128.673,49.123,183.486,49.123,183.486 C49.123,183.486,49.8375,200.851,49.8375,200.851"/>
      </g>
      <path id="Path 984" style="fill:none;opacity:1;stroke:#000000;stroke-linecap:butt;stroke-linejoin:miter;stroke-miterlimit:10;stroke-opacity:1;stroke-width:0.211294;" d="M156.386,166.752 C158.306,169.747,159.293,171.161,161.503,172.921 C163.28,174.607,166.081,176.438,167.698,177.49"/>
      <path id="Path 985" style="fill:none;opacity:1;stroke:#000000;stroke-linecap:butt;stroke-linejoin:miter;stroke-miterlimit:10;stroke-opacity:1;stroke-width:0.211294;" d="M284.767,167.182 C283.253,169.495,281.377,171.321,278.129,174.134 C275.858,175.623,273.578,176.408,273.578,176.408"/>
      <path id="Path 986" style="fill:#fbdabf;fill-opacity:1;fill-rule:nonzero;opacity:1;stroke:#000000;stroke-linecap:butt;stroke-linejoin:miter;stroke-miterlimit:10;stroke-opacity:1;stroke-width:0.211294;" d="M220.82,59.43 C220.82,59.43,237.716,52.7036,246.102,54.656 C255.068,56.7436,254.796,64.391,255.523,66.9592 C256.249,69.5275,258.562,70.9733,260.235,72.3848 C261.908,73.7963,257.268,75.4739,257.268,75.4739 C257.268,75.4739,257.955,77.9856,258.856,81.5408 C259.845,85.4521,256.986,87.9452,247.823,90.0424 C242.306,91.3052,246.604,94.1514,248.008,94.2179 C260.976,94.8327,299.673,118.068,293.797,151.234 C292.691,157.477,286.934,162.969,283.305,166.346 C267.835,180.742,253.869,179.882,253.869,179.882 C253.869,179.882,223.523,149.628,220.547,140.609 C220.943,129.173,220.82,59.43,220.82,59.43 z"/>
      <path id="Path 987" style="fill:#fbdabf;fill-opacity:1;fill-rule:nonzero;opacity:1;stroke:#000000;stroke-linecap:butt;stroke-linejoin:miter;stroke-miterlimit:10;stroke-opacity:1;stroke-width:0.211294;" d="M220.78,60.2797 C220.78,60.2797,203.884,53.5533,195.498,55.5056 C186.532,57.5933,186.805,65.2406,186.077,67.8089 C185.351,70.3772,183.038,71.823,181.365,73.2345 C179.692,74.646,184.332,76.3235,184.332,76.3235 C184.332,76.3235,183.645,78.8353,182.744,82.3905 C181.755,86.3018,184.614,88.7949,193.777,90.8921 C199.294,92.1549,194.996,95.0011,193.592,95.0675 C180.624,95.6824,141.927,118.918,147.803,152.083 C148.909,158.327,154.667,163.819,158.295,167.196 C173.765,181.591,187.731,180.732,187.731,180.732 C187.731,180.732,218.077,150.477,221.053,141.458 C220.657,130.022,220.78,60.2797,220.78,60.2797 z"/>
      <path id="Path 988" style="fill:#fbdabf;fill-opacity:1;fill-rule:nonzero;opacity:1;stroke:#000000;stroke-linecap:butt;stroke-linejoin:miter;stroke-miterlimit:10;stroke-opacity:1;stroke-width:0.211294;" d="M220.986,138.345 C220.986,138.345,257.497,159.104,268.93,166.915 C280.363,174.727,277.42,178.235,277.42,183.895 C277.42,192.385,260.44,200.875,260.44,200.875 C260.44,200.875,266.1,200.875,271.76,206.535 C272.644,207.42,274.59,212.195,274.59,212.195 C274.59,212.195,220.82,226.345,220.82,226.345 C220.82,226.345,220.986,138.345,220.986,138.345 z"/>
      <path id="Path 989" style="fill:#fbdabf;fill-opacity:1;fill-rule:nonzero;opacity:1;stroke:#000000;stroke-linecap:butt;stroke-linejoin:miter;stroke-miterlimit:10;stroke-opacity:1;stroke-width:0.211294;" d="M220.735,138.346 C220.735,138.346,184.224,159.104,172.791,166.916 C161.358,174.727,164.301,178.236,164.301,183.896 C164.301,192.386,181.281,200.876,181.281,200.876 C181.281,200.876,175.621,200.876,169.961,206.536 C169.076,207.42,167.131,212.196,167.131,212.196 C167.131,212.196,220.901,226.346,220.901,226.346 C220.901,226.346,220.735,138.346,220.735,138.346 z"/>
      <path id="Path 990" style="fill:#fbdabf;fill-opacity:1;fill-rule:nonzero;opacity:1;stroke:#000000;stroke-linecap:butt;stroke-linejoin:miter;stroke-miterlimit:10;stroke-opacity:1;stroke-width:0.211294;" d="M201.411,125.221 C201.411,125.221,196.494,131.954,183.841,135.802 C171.188,139.649,166.133,140.701,150.799,140.612 C135.465,140.522,130.014,140.14,122.505,135.443 C114.995,130.746,115.828,120.633,120.761,121.824 C125.693,123.015,129.35,126.671,131.476,124.801 C133.602,122.929,128.702,118.426,131.258,117.028 C133.815,115.631,139.981,121.706,144.423,121.591 C152.622,121.38,161.874,118.384,166.514,115.531 C173.667,111.132,172.922,108.908,185.028,100.048 C197.135,91.1892,207.113,94.3955,210.498,97.2182"/>
      <path id="Path 991" style="fill:#fbdabf;fill-opacity:1;fill-rule:nonzero;opacity:1;stroke:#000000;stroke-linecap:butt;stroke-linejoin:miter;stroke-miterlimit:10;stroke-opacity:1;stroke-width:0.211294;" d="M254.747,128.713 C254.747,128.713,262.483,122.06,267.072,119.399 C270.416,117.47,275.418,113.412,285.883,111.724 C296.349,110.036,305.076,108.974,318.855,108.235 C332.634,107.495,341.686,95.9428,337.76,90.905 C333.834,85.8672,330.045,96.8249,325.552,94.8533 C321.73,93.176,337.945,85.6435,324.529,87.5204 C314.439,89.556,314.775,90.5002,307.535,91.6801 C300.296,92.8601,293.28,93.4455,283.654,92.831 C274.027,92.2166,241.563,86.9937,231.753,99.9424"/>
      <path id="Path 992" style="fill:#000000;fill-opacity:1;fill-rule:nonzero;opacity:1;stroke:#000000;stroke-linecap:butt;stroke-linejoin:miter;stroke-miterlimit:10;stroke-opacity:1;stroke-width:0.211294;" d="M193.067,157.835 C193.067,157.835,164.19,175.05,164.19,175.05 C162.941,174.206,160.393,172.727,158.227,170.802 C156.059,168.878,153.892,166.247,153.921,163.592"/>
      <path id="Path 993" style="fill:#000000;fill-opacity:1;fill-rule:nonzero;opacity:1;stroke:#000000;stroke-linecap:butt;stroke-linejoin:miter;stroke-miterlimit:10;stroke-opacity:1;stroke-width:0.211294;" d="M242.87,155.037 C242.87,155.037,276.968,174.639,276.968,174.639 C276.968,174.639,278.231,174.274,280.239,172.197 C283.103,169.252,288.065,163.441,287.977,163.569"/>
      <path id="Path 994" style="fill:#000000;fill-opacity:1;fill-rule:nonzero;opacity:1;stroke:#000000;stroke-linecap:butt;stroke-linejoin:miter;stroke-miterlimit:10;stroke-opacity:1;stroke-width:0.211294;" d="M147.154,152.157 C147.154,152.157,221.185,135.669,221.185,135.669 C221.185,135.669,295.777,152.544,295.777,152.544 C295.777,152.544,287.253,168.301,287.253,168.301 C287.253,168.301,221.229,151.877,221.229,151.877 C221.229,151.877,167.346,164.174,167.346,164.174 C167.346,164.174,153.699,167.289,153.699,167.289"/>
      <path id="Path 995" style="fill:#ffffff;fill-opacity:1;fill-rule:nonzero;opacity:1;stroke:#000000;stroke-linecap:butt;stroke-linejoin:miter;stroke-miterlimit:10;stroke-opacity:1;stroke-width:0.211294;" d="M220.843,225.262 C220.843,225.262,218.656,204.592,215.16,198.1 C212.225,192.651,206.67,189.61,206.67,189.61 C206.67,189.61,215.16,181.12,217.99,175.46 C220.82,169.8,220.82,158.48,220.82,158.48 C220.82,158.48,220.711,170.054,223.55,175.615 C226.39,181.177,234.985,189.563,234.985,189.563 C234.985,189.563,228.794,192.989,226.141,198.64 C223.487,204.291,220.843,225.262,220.843,225.262 z"/>
      <path id="Path 996" style="fill:#000000;fill-opacity:1;fill-rule:nonzero;opacity:1;stroke:#000000;stroke-linecap:butt;stroke-linejoin:miter;stroke-miterlimit:10;stroke-opacity:1;stroke-width:0.211294;" d="M238.578,76.6771 C239.969,78.2066,240.554,79.3953,241.798,81.3314 C241.798,81.3314,243.264,81.5334,243.264,81.5334 C243.264,81.5334,243.272,79.8117,243.272,79.8117 C243.116,76.9465,243.143,73.6806,244.964,71.4579 C244.964,71.4579,243.873,68.9334,242.453,67.345 C241.032,65.7567,239.281,65.1046,239.281,65.1046 C240.312,64.6612,241.306,62.2755,241.989,61.4823 C251.368,61.598,253.87,59.0206,253.87,59.0206 C253.87,59.0206,252.94,56.4574,248.198,54.3019 C243.962,52.3771,239.807,53.2482,239.807,53.2482 C239.807,53.2482,239.706,48.1024,239.706,48.1024 C239.706,48.1024,233.997,48.7956,227.526,51.2783 C226.129,51.8147,226.205,55.2948,225.283,56.1998 C222.372,59.0548,220.714,59.1888,220.714,59.1888 C220.714,59.1888,220.914,88.1198,220.914,88.1198 C220.914,88.1198,226.172,85.5968,228.809,84.3588 C229.896,83.7037,230.294,83.4751,231.586,82.3559 C231.586,82.3559,231.507,81.2769,231.591,79.6935 C230.701,75.4284,236.135,73.1722,238.578,76.6771 z"/>
      <path id="Path 997" style="fill:#000000;fill-opacity:1;fill-rule:nonzero;opacity:1;stroke:#000000;stroke-linecap:butt;stroke-linejoin:miter;stroke-miterlimit:10;stroke-opacity:1;stroke-width:0.211294;" d="M202.886,76.6771 C201.495,78.2066,200.91,79.3953,199.665,81.3314 C199.665,81.3314,198.199,81.5334,198.199,81.5334 C198.199,81.5334,198.192,79.8117,198.192,79.8117 C198.348,76.9465,198.321,73.6806,196.5,71.4579 C196.5,71.4579,197.591,68.9334,199.012,67.345 C200.432,65.7567,202.182,65.1046,202.182,65.1046 C201.152,64.6612,200.158,62.2755,199.475,61.4823 C190.095,61.598,188.143,59.0892,188.143,59.0892 C188.143,59.0892,188.73,56.6633,193.472,54.5078 C197.708,52.583,201.656,53.2482,201.656,53.2482 C201.656,53.2482,201.759,48.1024,201.759,48.1024 C201.759,48.1024,207.467,48.7956,213.937,51.2783 C215.336,51.8147,215.259,55.2948,216.181,56.1998 C219.092,59.0548,220.749,59.1888,220.749,59.1888 C220.749,59.1888,220.55,88.1198,220.55,88.1198 C220.55,88.1198,215.292,85.5968,212.655,84.3588 C211.567,83.7037,211.169,83.4751,209.878,82.3559 C209.878,82.3559,209.957,81.2769,209.872,79.6935 C210.764,75.4284,205.329,73.1722,202.886,76.6771 z"/>
      <path id="Path 998" style="fill:#dddddd;fill-opacity:1;fill-rule:nonzero;opacity:1;stroke:#000000;stroke-linecap:butt;stroke-linejoin:miter;stroke-miterlimit:10;stroke-opacity:1;stroke-width:0.211294;" d="M341.655,139.138 C341.655,139.138,305.937,161.236,294.801,169.466 C283.665,177.695,286.737,181.092,286.946,186.748 C287.261,195.233,304.543,203.088,304.543,203.088 C304.543,203.088,298.887,203.298,293.441,209.163 C292.59,210.08,290.822,214.924,290.822,214.924 C290.822,214.924,345.079,227.073,345.079,227.073 C345.079,227.073,343.525,216.61,340.889,205.501 C338.252,194.391,329.456,190.917,329.456,190.917 C329.456,190.917,337.041,183.4,340.428,175.817 C343.815,168.234,343.003,160.583,343.003,160.583 C343.003,160.583,341.655,139.138,341.655,139.138 z"/>
      <path id="Path 999" style="fill:#dddddd;fill-opacity:1;fill-rule:nonzero;opacity:1;stroke:#000000;stroke-linecap:butt;stroke-linejoin:miter;stroke-miterlimit:10;stroke-opacity:1;stroke-width:0.211294;" d="M103.304,133.65 C103.304,133.65,136.623,159.22,146.877,168.525 C157.131,177.831,153.735,180.902,152.959,186.508 C151.794,194.919,133.811,201,133.811,201 C133.811,201,139.417,201.777,144.247,208.159 C145.002,209.155,146.275,214.154,146.275,214.154 C146.275,214.154,91.0721,220.797,91.0721,220.797 C91.0721,220.797,93.6683,210.543,97.4067,199.754 C101.145,188.964,110.245,186.391,110.245,186.391 C110.245,186.391,103.452,178.151,100.844,170.266 C98.235,162.382,99.8098,154.851,99.8098,154.851 C99.8098,154.851,103.304,133.65,103.304,133.65 z"/>
    </g>
  </g>
</svg>
