<?xml version="1.0" encoding="UTF-8" standalone="no"?>
<!DOCTYPE svg PUBLIC "-//W3C//DTD SVG 1.1//EN" "http://www.w3.org/Graphics/SVG/1.1/DTD/svg11.dtd">
<!-- Created with Vectornator (http://vectornator.io/) -->
<svg height="100%" stroke-miterlimit="10" style="fill-rule:nonzero;clip-rule:evenodd;stroke-linecap:round;stroke-linejoin:round;" version="1.1" viewBox="0 0 70.875 70.875" width="100%" xml:space="preserve" xmlns="http://www.w3.org/2000/svg" xmlns:xlink="http://www.w3.org/1999/xlink">
<defs>
<filter color-interpolation-filters="sRGB" filterUnits="userSpaceOnUse" height="21.2173" id="Filter" width="50.1187" x="14.9048" y="13.0727">
<feComponentTransfer in="SourceGraphic" result="Alpha">
<feFuncA slope="0.998894" type="linear"/>
</feComponentTransfer>
<feDropShadow dx="0.106741" dy="0.280368" flood-color="#ffffff" flood-opacity="1" in="Alpha" result="Shadow" stdDeviation="0"/>
</filter>
</defs>
<g id="レイヤー-1-copy" opacity="0.922885" visibility="hidden">
<path d="M35.5627 1.23315L35.5627 1.23315C54.441 1.23315 69.745 16.5371 69.745 35.4155L69.745 35.4155C69.745 54.2939 54.441 69.5978 35.5627 69.5978L35.5627 69.5978C16.6843 69.5978 1.38032 54.2939 1.38032 35.4155L1.38032 35.4155C1.38032 16.5371 16.6843 1.23315 35.5627 1.23315Z" fill="#fffbde" fill-rule="nonzero" opacity="1" stroke="#1201a9" stroke-linecap="butt" stroke-linejoin="round" stroke-width="1.5"/>
<path d="M36.412 12.2869L36.412 12.2869C49.0398 12.2869 59.2767 22.5238 59.2767 35.1516L59.2767 35.1516C59.2767 47.7795 49.0398 58.0164 36.412 58.0164L36.412 58.0164C23.7841 58.0164 13.5472 47.7795 13.5472 35.1516L13.5472 35.1516C13.5472 22.5238 23.7841 12.2869 36.412 12.2869Z" fill="#9fc6fd" fill-rule="nonzero" opacity="1" stroke="#0608a0" stroke-linecap="butt" stroke-linejoin="round" stroke-width="1.38554"/>
</g>
<g id="レイヤー-2" visibility="hidden">
<path d="M12.7162 32.5249C12.7162 20.4102 25.1324 10.5892 40.4485 10.5892C55.7646 10.5892 68.1808 20.4102 68.1808 32.5249C68.1808 44.6397 55.7646 54.4606 40.4485 54.4606C25.1324 54.4606 12.7162 44.6397 12.7162 32.5249Z" fill="#c4c4dc" fill-rule="nonzero" opacity="1" stroke="#20018c" stroke-linecap="round" stroke-linejoin="round" stroke-width="1.4"/>
</g>
<g id="レイヤー-1-コピー">
<g opacity="1">
<path d="M17.5714 36.9499C17.5201 37.0467 17.696 37.2852 18.0673 37.6269C19.7856 39.2078 25.6903 42.9977 32.6488 45.188C41.1111 47.8515 44.2978 46.6502 44.5414 45.9438C44.7851 45.2373 39.3543 40.545 35.2273 39.1756C31.1003 37.8062 17.8601 36.4048 17.5714 36.9499Z" fill="#aaaac7" fill-rule="nonzero" opacity="1" stroke="none"/>
<path d="M20.3224 37.0825C19.4809 36.4845 18.2835 36.7394 16.9541 37.0483C18.2575 38.1167 19.2669 39.0442 20.9273 39.7216C21.1023 38.4628 21.1639 37.6806 20.3224 37.0825Z" fill="#aaaac7" fill-rule="nonzero" opacity="1" stroke="none"/>
<path d="M26.7258 35.8317C26.7258 35.8317 18.7076 29.7383 22.8866 25.4864C23.836 24.5204 30.62 23.9166 56.915 19.5683C42.1457 29.4776 37.3865 27.6066 37.4986 29.2129C37.7715 33.1214 26.7258 35.8317 26.7258 35.8317Z" fill="#aaaac7" fill-rule="nonzero" opacity="1" stroke="none"/>
<path d="M53.7708 46.4633C53.1224 47.3488 61.5082 52.8687 61.5082 52.8687C61.5082 52.8687 58.502 53.1042 51.2042 50.8751C46.4691 49.4287 37.9751 43.764 36.1841 42.4295C34.5018 41.176 54.4192 45.5778 53.7708 46.4633Z" fill="#aaaac7" fill-rule="nonzero" opacity="1" stroke="none"/>
<path d="M19.0758 36.0102C19.2667 35.5652 14.9956 34.5546 17.753 34.025C19.0793 32.7055 19.7191 32.5441 21.3002 32.3156C23.0711 32.0257 26.2284 33.1956 26.2284 33.1956C26.2284 33.1956 21.9504 25.6271 27.361 23.1391C28.5903 22.5738 34.9828 25.7745 61.1052 31.0676C43.7916 37.121 37.8835 33.3615 37.8835 33.3615C37.8835 33.3615 39.7892 34.9624 41.8124 36.5239C43.8356 38.0853 69.3074 48.0751 67.2842 47.919C65.261 47.7628 63.4332 48.1148 59.2312 47.5733C55.0291 47.0319 49.54 47.2484 43.6489 45.1625C41.6712 44.4624 38.6257 40.7791 33.1343 39.4074C27.6428 38.0358 27.0735 39.1192 20.1365 37.3347C15.9604 36.7108 18.2377 37.44 16.4298 36.9118C14.6219 36.3837 18.8849 36.4551 19.0758 36.0102Z" fill="#aaaac7" fill-rule="nonzero" opacity="1" stroke="none"/>
<path d="M12.4509 35.2709C12.5626 35.0106 13.6808 34.7364 14.9019 34.5507C15.7681 34.419 15.9163 34.4558 17.0605 34.2361C17.7084 33.9593 21.1993 35.6789 20.0703 37.4834C15.8942 36.8595 18.1716 37.5887 16.3637 37.0606C14.5558 36.5324 12.26 35.7158 12.4509 35.2709Z" fill="#aaaac7" fill-rule="nonzero" opacity="1" stroke="none"/>
</g>
</g>
<g id="レイヤー-1">
<g opacity="0">
<path d="M36.3537 44.9525C36.3537 44.9525 38.8332 48.3152 39.524 48.0471C40.1035 47.4167 40.6407 47.4683 40.7107 47.6702C40.7484 47.779 40.3856 47.8358 40.2433 48.2425C40.0483 49.7781 41.2416 52.3497 40.9366 52.5325C40.6317 52.7153 40.3126 50.2149 39.71 50.4506C39.1074 50.6863 39.7423 52.9555 39.3602 53.0247C38.9781 53.0939 39.4633 50.7195 38.8109 50.6217C38.1585 50.5239 37.7101 52.7316 37.3278 52.5549C37.1404 52.4682 37.5788 51.1399 37.9486 50.3406C38.6877 49.4398 38.9769 48.7436 38.9082 48.3955C38.672 48.1095 35.5503 45.4768 35.5503 45.4768L36.3537 44.9525Z" fill="#c3c3cc" fill-rule="nonzero" opacity="1" stroke="none"/>
<path d="M37.9263 44.4232C37.9263 44.4232 41.7121 47.658 42.4589 47.1531C42.9815 46.2562 43.6287 46.167 43.7629 46.3832C43.8352 46.4997 43.4217 46.6669 43.3576 47.181C43.5201 49.0274 45.5858 51.6967 45.2727 51.9948C44.9596 52.293 43.9437 49.4636 43.2929 49.9062C42.642 50.3489 43.9714 52.8206 43.5382 53.0076C43.1049 53.1947 43.0704 50.2887 42.2755 50.356C41.4806 50.4233 41.5159 53.1245 41.0195 53.0245C40.7762 52.9755 40.9539 51.3034 41.1861 50.2678C41.828 49.011 41.9912 48.118 41.8212 47.7309C41.4693 47.4629 37.1122 45.2585 37.1122 45.2585L37.9263 44.4232Z" fill="#c3c3cc" fill-rule="nonzero" opacity="1" stroke="none"/>
<path d="M17.5283 37.0554C17.4795 37.1477 17.6469 37.3747 18.0005 37.7C19.6368 39.2054 25.2595 42.8142 31.8856 44.8997C39.9438 47.4359 42.9783 46.292 43.2103 45.6193C43.4423 44.9466 38.2709 40.4786 34.341 39.1747C30.4111 37.8708 17.8032 36.5364 17.5283 37.0554Z" fill="#c3c3cc" fill-rule="nonzero" opacity="1" stroke="none"/>
<path d="M20.1479 37.1818C19.3466 36.6123 18.2064 36.855 16.9405 37.1491C18.1816 38.1665 19.1429 39.0496 20.7239 39.6946C20.8906 38.496 20.9493 37.7512 20.1479 37.1818Z" fill="#c3c3cc" fill-rule="nonzero" opacity="1" stroke="none"/>
<path d="M12.8129 35.3151C12.9947 34.8914 15.173 34.7746 17.7987 34.2704C19.0617 33.014 19.671 32.8603 21.1766 32.6428C22.8629 32.3667 27.0777 33.7535 27.0777 33.7535C27.0777 33.7535 24.9861 25.1864 29.7735 22.143C34.5928 19.0794 51.9851 20.4659 59.1208 26.355C46.4467 30.893 34.3846 33.3476 38.963 36.8394C40.1139 37.7172 41.3443 38.9317 42.481 39.6012C44.7752 40.9526 59.4626 52.1647 58.9961 53.291C58.5296 54.4172 50.8763 47.6852 50.2589 48.5284C49.6415 49.3715 55.8763 57.7624 54.9781 58.3417C54.0799 58.9211 46.2997 48.2332 42.7138 45.5614C41.1119 44.3679 37.6747 40.7015 32.4455 39.3955C27.2163 38.0894 26.6742 39.121 20.0684 37.4218C16.0918 36.8277 18.2603 37.5221 16.5388 37.0192C14.8172 36.5163 12.6311 35.7387 12.8129 35.3151Z" fill="#c3c3cc" fill-rule="nonzero" opacity="1" stroke="none"/>
<path d="M18.9671 33.5139C18.3501 33.9417 18.3013 34.0449 17.8467 34.4581C17.5955 34.5436 17.4984 34.5167 17.0418 34.6115C18.3988 34.9374 18.7267 35.1597 18.7267 35.1597C18.7267 35.1597 18.6371 34.3016 18.9671 33.5139Z" fill="#c3c3cc" fill-rule="nonzero" opacity="1" stroke="none"/>
<path d="M20.0711 36.7017C20.1143 36.5167 18.2862 36.0397 16.4696 35.7487C14.653 35.4578 12.8701 35.347 12.8046 35.5379C12.7392 35.7288 14.2323 35.6342 16.0489 35.9251C17.8655 36.2161 20.028 36.8866 20.0711 36.7017Z" fill="#c3c3cc" fill-rule="nonzero" opacity="1" stroke="none"/>
<path d="M21.5019 34.778L21.5019 34.778C21.6438 35.1226 21.4802 35.5174 21.1367 35.6597L21.1367 35.6597C20.7931 35.802 20.3996 35.638 20.2578 35.2933L20.2578 35.2933C20.1159 34.9486 20.2795 34.5538 20.623 34.4115L20.623 34.4115C20.9666 34.2692 21.3601 34.4333 21.5019 34.778Z" fill="#c3c3cc" fill-rule="nonzero" opacity="1" stroke="none"/>
<path d="M21.0954 34.8288L21.0954 34.8288C21.1918 35.0631 21.0806 35.3315 20.8471 35.4283L20.8471 35.4283C20.6135 35.5251 20.3459 35.4135 20.2495 35.1792L20.2495 35.1792C20.153 34.9448 20.2642 34.6764 20.4978 34.5796L20.4978 34.5796C20.7314 34.4829 20.9989 34.5944 21.0954 34.8288Z" fill="#c3c3cc" fill-rule="nonzero" opacity="1" stroke="none"/>
</g>
<path d="M15.7438 33.3483C15.9158 32.9488 17.9766 32.8387 20.4607 32.3632C21.6555 31.1785 22.2319 31.0335 23.6562 30.8284C25.2516 30.568 29.239 31.8758 29.239 31.8758C29.239 31.8758 24.4263 24.1979 29.3005 21.9639C30.408 21.4563 36.3142 23.1174 59.8469 27.8701C44.2507 31.4692 40.8381 28.3776 40.4209 29.762C39.4058 33.1304 42.7358 36.7588 43.8111 37.3902C45.9816 38.6645 59.8765 49.2375 59.4352 50.2995C58.9939 51.3615 51.7535 45.0132 51.1694 45.8084C50.5853 46.6035 56.4837 54.516 55.6339 55.0623C54.7842 55.6087 47.4238 45.53 44.0314 43.0106C42.5159 41.885 39.2642 38.4277 34.3171 37.1961C29.37 35.9646 28.8572 36.9373 22.6079 35.335C18.8458 34.7748 20.8973 35.4295 19.2687 34.9553C17.64 34.4811 15.5719 33.7479 15.7438 33.3483Z" fill="#000000" fill-rule="nonzero" opacity="0" stroke="none"/>
<g opacity="1">
<path d="M26.7905 35.8312C26.7905 35.8312 19.5672 30.3598 23.3319 26.542C24.1873 25.6746 30.2987 25.1325 53.9869 21.2281C40.6818 30.1258 36.3943 28.4458 36.4954 29.8881C36.7412 33.3976 26.7905 35.8312 26.7905 35.8312Z" fill="#606062" fill-rule="nonzero" opacity="1" stroke="none"/>
<path d="M51.3848 45.1538C50.8007 45.949 60.3309 52.58 60.3309 52.58C59.8346 52.8992 57.9023 52.32 51.3975 50.0068C47.0458 48.4592 38.1626 43.9008 36.7517 42.853C35.2362 41.7274 51.9689 44.3587 51.3848 45.1538Z" fill="#616163" fill-rule="nonzero" opacity="1" stroke="none"/>
<path d="M37.6897 44.8722C37.6897 44.8722 41.0894 46.8719 41.5919 46.3834C41.8636 45.6218 42.3504 45.4676 42.4858 45.6168C42.5588 45.6973 42.264 45.8809 42.2901 46.2865C42.6873 47.6913 44.5714 49.659 44.3735 49.9305C44.1755 50.2021 42.1511 48.3258 42.1511 48.3258C42.1511 48.3258 44.2917 49.9975 43.9846 50.1991C43.6775 50.4006 41.9215 48.8816 41.9215 48.8816C41.9215 48.8816 44.0139 50.5113 43.6158 50.4995C43.4207 50.4937 42.1241 50.258 41.6462 49.3727C41.1682 48.4874 41.3727 47.1903 41.1844 46.9137C40.8732 46.7531 37.1838 45.3627 37.1838 45.3627L37.6897 44.8722Z" fill="#594c2e" fill-rule="nonzero" opacity="1" stroke="none"/>
<path d="M18.5437 36.8352C18.4975 36.9222 18.6559 37.1363 18.9904 37.4431C20.5384 38.8625 25.8577 42.2656 32.1263 44.2322C39.7497 46.6239 42.6205 45.5452 42.84 44.9109C43.0595 44.2765 38.1671 40.0632 34.4492 38.8337C30.7314 37.6041 18.8037 36.3458 18.5437 36.8352Z" fill="#ffffff" fill-rule="nonzero" opacity="1" stroke="none"/>
<path d="M39.8253 44.9552C40.8601 44.9503 42.8855 46.1541 43.3043 45.5923C43.4522 44.7972 43.7206 45.0435 43.878 45.1695C43.9628 45.2373 43.7258 45.5779 43.8158 45.9743C44.055 46.4899 44.4782 46.9086 45.0892 47.2609C45.5977 47.5541 46.9368 48.057 46.8874 48.1541C46.8438 48.2396 46.6471 48.4526 46.2585 48.3954C45.9765 48.3538 45.2793 47.9409 45.2376 47.9242C45.0571 47.8516 44.6662 47.7179 44.5217 47.5957C44.1228 47.2582 43.8779 46.8263 43.8779 46.8263C43.8779 46.8263 44.2083 47.4517 44.8659 47.9529C45.0815 48.1173 45.3482 48.2538 45.6042 48.3678C46.1286 48.6014 46.6077 48.7405 46.5084 48.8312C46.2975 49.0236 45.7015 48.8143 45.0306 48.4999C44.8381 48.4096 43.9183 47.7534 43.8874 47.7816C43.7488 47.9079 46.3489 49.285 45.9539 49.3363C45.8211 49.3536 45.6114 49.4056 45.0112 49.1411C44.7368 49.0201 43.8561 48.4168 43.6641 48.1662C43.0522 47.3677 43.2155 46.4238 42.9858 46.1804C42.6532 46.071 40.1085 45.9777 39.1651 45.612C38.2217 45.2463 38.7905 44.9602 39.8253 44.9552Z" fill="#896b2a" fill-rule="nonzero" opacity="1" stroke="none"/>
<path d="M21.022 36.9543C20.2639 36.4173 19.1851 36.6462 17.9876 36.9235C19.1618 37.8829 20.0711 38.7157 21.5668 39.3239C21.7245 38.1937 21.7801 37.4913 21.022 36.9543Z" fill="#fe0000" fill-rule="nonzero" opacity="1" stroke="none"/>
<path d="M19.8291 35.7727C19.9967 35.3803 16.2455 34.489 18.6673 34.0219C19.8321 32.8583 20.394 32.716 21.7827 32.5145C23.338 32.2588 27.2253 33.5432 27.2253 33.5432C27.2253 33.5432 22.5334 26.0022 27.2853 23.808C28.365 23.3095 36.7904 25.9522 58.6415 31.0639C43.3377 36.9855 36.2259 32.2886 36.2259 32.2886C36.2259 32.2886 37.342 34.7958 45.7655 39.043C54.1891 43.2902 68.4273 47.9787 66.6504 47.841C64.8734 47.7033 58.2518 47.6538 55.2199 47.1105C52.1879 46.5672 44.7179 46.3187 41.4106 43.8442C39.9331 42.7387 36.999 39.9784 32.176 38.7687C27.3531 37.5591 26.8531 38.5145 20.7606 36.9407C17.0929 36.3905 19.093 37.0336 17.5052 36.5678C15.9174 36.1021 19.6614 36.1651 19.8291 35.7727Z" fill="#000000" fill-rule="nonzero" opacity="1" stroke="none"/>
<path d="M13.9308 35.3276C14.0315 35.0939 15.0387 34.8477 16.1388 34.6809C16.9191 34.5626 17.0526 34.5958 18.0834 34.3984C18.6671 34.1499 21.8119 35.694 20.7949 37.3142C17.0328 36.754 19.0843 37.4088 17.4557 36.9346C15.827 36.4604 13.7588 35.7271 13.9308 35.3276Z" fill="#737385" fill-rule="nonzero" opacity="1" stroke="none"/>
<path d="M19.1319 34.0822L18.1293 34.397L19.7124 34.9543C19.7124 34.9543 20.1812 34.7467 20.018 34.2921C19.8548 33.8374 19.1319 34.0822 19.1319 34.0822Z" fill="#800000" fill-rule="nonzero" opacity="1" stroke="none"/>
<path d="M20.9493 36.5016C20.9901 36.3272 19.2607 35.8773 17.5421 35.603C15.8235 35.3286 14.1369 35.2242 14.0749 35.4042C14.0129 35.5842 15.4255 35.495 17.1441 35.7693C18.8627 36.0437 20.9085 36.676 20.9493 36.5016Z" fill="#ffffff" fill-opacity="0.710938" fill-rule="nonzero" opacity="1" stroke="none"/>
<path d="M22.3029 34.6875L22.3029 34.6875C22.4371 35.0126 22.2824 35.3848 21.9574 35.519L21.9574 35.519C21.6323 35.6532 21.2601 35.4985 21.1259 35.1735L21.1259 35.1735C20.9917 34.8485 21.1464 34.4762 21.4714 34.342L21.4714 34.342C21.7964 34.2078 22.1687 34.3625 22.3029 34.6875Z" fill="#ffffff" fill-rule="nonzero" opacity="1" stroke="none"/>
<path d="M21.9183 34.7355L21.9183 34.7355C22.0095 34.9565 21.9044 35.2096 21.6834 35.3008L21.6834 35.3008C21.4624 35.3921 21.2093 35.2869 21.118 35.0659L21.118 35.0659C21.0268 34.8449 21.132 34.5918 21.353 34.5005L21.353 34.5005C21.5739 34.4093 21.8271 34.5145 21.9183 34.7355Z" fill="#000000" fill-rule="nonzero" opacity="1" stroke="none"/>
</g>
<path d="M41.8776 47.517L35.8998 36.3029" fill="#000000" fill-rule="nonzero" opacity="0" stroke="#ffffff" stroke-dasharray="1.0,3.0,4.0,3.0" stroke-linecap="round" stroke-linejoin="round" stroke-opacity="0.986979" stroke-width="0.553029"/>
</g>
<g id="moji">
<g fill="#20018c" filter="url(#Filter)" stroke="#fefefe" stroke-linecap="butt" stroke-linejoin="round" stroke-width="0.1">
<path d="M19.9305 28.7572C19.9618 28.7702 19.9918 28.771 20.0203 28.7595C20.0489 28.7479 20.0853 28.7019 20.1296 28.6214L20.2103 28.6551L19.635 30.0245L19.5544 29.9908C19.5808 29.9029 19.5881 29.8448 19.5763 29.8164C19.5645 29.7881 19.543 29.7674 19.5116 29.7543L18.2682 29.2362L17.5421 30.9645L18.7856 31.4827C18.8169 31.4957 18.8469 31.4965 18.8754 31.485C18.904 31.4734 18.9404 31.4274 18.9847 31.3469L19.0654 31.3806L18.4901 32.75L18.4095 32.7163C18.4359 32.6284 18.4432 32.5703 18.4314 32.5419C18.4196 32.5136 18.3981 32.4929 18.3667 32.4798L15.2346 31.1746C15.2033 31.1616 15.1733 31.1608 15.1448 31.1724C15.1162 31.1839 15.0798 31.2299 15.0355 31.3104L14.9548 31.2768L15.5301 29.9074L15.6107 29.941C15.5843 30.0289 15.577 30.087 15.5888 30.1154C15.6006 30.1437 15.6221 30.1644 15.6535 30.1775L16.7222 30.6228L17.4482 28.8945L16.3795 28.4491C16.3482 28.4361 16.3182 28.4353 16.2897 28.4469C16.2611 28.4584 16.2247 28.5044 16.1804 28.5849L16.0997 28.5513L16.6749 27.1819L16.7556 27.2155C16.7292 27.3034 16.7219 27.3615 16.7337 27.3899C16.7455 27.4182 16.767 27.4389 16.7984 27.452L19.9305 28.7572Z"/>
<path d="M18.2958 25.9513C18.2637 26.0161 18.2437 26.0698 18.2357 26.1124C18.2278 26.155 18.247 26.1896 18.2932 26.2162L20.6908 27.5944C20.7371 27.621 20.7768 27.6203 20.81 27.5922C20.8431 27.5641 20.88 27.5201 20.9205 27.4602L20.9962 27.5037L20.2778 28.7383L20.2021 28.6948C20.2342 28.63 20.2542 28.5763 20.2621 28.5337C20.2701 28.4911 20.2509 28.4565 20.2046 28.4299L17.8071 27.0517C17.7608 27.0251 17.7211 27.0258 17.6879 27.0539C17.6547 27.082 17.6179 27.126 17.5774 27.1859L17.5017 27.1424L18.2201 25.9078L18.2958 25.9513Z"/>
<path d="M18.9209 25.1758C18.8782 25.1439 18.8393 25.1389 18.8044 25.1609C18.7695 25.1828 18.7341 25.2134 18.6982 25.2527L18.6283 25.2004L19.4447 24.1251L19.5145 24.1774C19.4864 24.2225 19.4672 24.2638 19.4571 24.3012C19.4469 24.3387 19.4631 24.3734 19.5059 24.4053L21.2995 25.7468L22.4957 24.1712C22.5131 24.1482 22.5219 24.1187 22.5218 24.0826C22.5218 24.0466 22.4908 24.0053 22.4287 23.9589L22.481 23.8899L23.3487 24.5388L23.2964 24.6078C23.2342 24.5614 23.1886 24.5453 23.1595 24.5596C23.1304 24.5739 23.1071 24.5925 23.0897 24.6155L21.1907 27.1168L21.1208 27.0646C21.1489 27.0195 21.1688 26.9773 21.1804 26.9379C21.1921 26.8985 21.1765 26.8628 21.1338 26.8309L18.9209 25.1758Z"/>
<path d="M22.6717 21.5546C22.5747 21.6483 22.4972 21.7517 22.4394 21.8647C22.3816 21.9778 22.3461 22.0929 22.3329 22.21C22.3197 22.3271 22.3322 22.4412 22.3705 22.5523C22.4088 22.6634 22.4755 22.7673 22.5706 22.864C22.6657 22.9606 22.7688 23.0293 22.8798 23.0701C22.9909 23.1109 23.1057 23.1263 23.2242 23.1162C23.3427 23.106 23.4597 23.0738 23.5752 23.0194C23.6907 22.9651 23.797 22.891 23.8941 22.7973C23.9946 22.7002 24.0729 22.596 24.1289 22.4846C24.185 22.3732 24.2196 22.259 24.2329 22.1419C24.2461 22.0247 24.2335 21.9106 24.1952 21.7995C24.1569 21.6884 24.0902 21.5845 23.9952 21.4879C23.9001 21.3912 23.797 21.3225 23.6859 21.2817C23.5748 21.2409 23.46 21.2256 23.3416 21.2357C23.2231 21.2458 23.1069 21.2772 22.9932 21.3299C22.8794 21.3826 22.7722 21.4575 22.6717 21.5546ZM22.1318 21.0057C22.2947 20.8483 22.4806 20.7126 22.6894 20.5984C22.8981 20.4842 23.1159 20.4102 23.3428 20.3762C23.5696 20.3422 23.7976 20.3593 24.0268 20.4274C24.256 20.4955 24.4707 20.6313 24.6711 20.835C24.8748 21.0421 25.0072 21.2592 25.0683 21.4863C25.1294 21.7134 25.1391 21.9379 25.0974 22.16C25.0556 22.3822 24.9728 22.5934 24.8489 22.7939C24.725 22.9944 24.5816 23.1733 24.4187 23.3306C24.2558 23.488 24.0716 23.6255 23.8662 23.7431C23.6608 23.8607 23.4456 23.9373 23.2205 23.973C22.9953 24.0087 22.769 23.9934 22.5415 23.9271C22.314 23.8607 22.0984 23.724 21.8947 23.5168C21.6944 23.3132 21.5628 23.0969 21.5 22.8682C21.4372 22.6394 21.4258 22.413 21.4659 22.1892C21.5059 21.9654 21.5862 21.7515 21.7067 21.5476C21.8272 21.3437 21.9689 21.163 22.1318 21.0057Z"/>
<path d="M24.1104 19.5689C24.0791 19.5259 24.0435 19.5097 24.0035 19.5204C23.9635 19.531 23.9146 19.554 23.8567 19.5892L23.8055 19.5188L26.3715 17.6934C26.3951 17.6767 26.413 17.652 26.4252 17.6196C26.4374 17.5872 26.4237 17.5436 26.3839 17.4888L26.4547 17.4385L27.043 18.2482L26.9722 18.2985C26.9296 18.2398 26.8901 18.2101 26.8537 18.2093C26.8173 18.2085 26.7873 18.2164 26.7637 18.2332L25.1651 19.3704L25.5616 19.9161L26.6411 19.1482C26.6647 19.1314 26.6826 19.1068 26.6948 19.0743C26.7071 19.0419 26.6933 18.9983 26.6535 18.9436L26.7243 18.8932L27.2956 19.6794L27.2248 19.7298C27.1821 19.6711 27.1426 19.6414 27.1062 19.6405C27.0699 19.6397 27.0399 19.6477 27.0163 19.6645L25.9368 20.4324L26.5209 21.2362C26.5521 21.2793 26.5878 21.2955 26.6277 21.2848C26.6677 21.2742 26.7127 21.254 26.7628 21.2244L26.8139 21.2948L25.6932 22.092L25.642 22.0216C25.6863 21.9842 25.72 21.9484 25.7429 21.9142C25.7659 21.8801 25.7617 21.8416 25.7304 21.7985L24.1104 19.5689Z"/>
<path d="M27.1985 17.4421C27.1746 17.3947 27.141 17.3736 27.0976 17.3788C27.0542 17.384 27.0054 17.3972 26.9511 17.4185L26.912 17.3409L28.0832 16.765L28.1223 16.8425C28.1028 16.8575 28.0833 16.8779 28.0638 16.9036C28.0443 16.9293 28.0465 16.9659 28.0704 17.0133L28.8629 18.5843C28.9455 18.748 29.0644 18.8362 29.2195 18.8486C29.3747 18.8611 29.5499 18.8193 29.7451 18.7233C29.9403 18.6273 30.0796 18.5144 30.163 18.3846C30.2464 18.2548 30.2468 18.1081 30.1642 17.9443L29.3718 16.3733C29.3478 16.3259 29.3196 16.3021 29.2871 16.302C29.2545 16.3019 29.2263 16.305 29.2024 16.3113L29.1633 16.2338L30.3345 15.6578L30.3737 15.7354C30.3238 15.7653 30.2837 15.7958 30.2533 15.8268C30.223 15.8579 30.2197 15.8971 30.2437 15.9445L30.9611 17.3668C31.0481 17.5392 31.1041 17.7147 31.1292 17.8933C31.1543 18.0719 31.1372 18.2471 31.0776 18.4189C31.0181 18.5907 30.9065 18.7559 30.7429 18.9144C30.5792 19.0729 30.3542 19.2225 30.0679 19.3633C29.7816 19.5041 29.5251 19.5913 29.2984 19.6248C29.0717 19.6583 28.8709 19.6467 28.6962 19.5901C28.5215 19.5335 28.3695 19.4415 28.2402 19.3141C28.111 19.1867 28.0029 19.0368 27.916 18.8644L27.1985 17.4421Z"/>
<path d="M32.7093 17.9827C32.7243 18.0335 32.7525 18.0605 32.7939 18.0637C32.8352 18.0669 32.8845 18.0628 32.9418 18.0514L32.9664 18.1346L31.8702 18.4488L31.8456 18.3657C31.8814 18.3504 31.9148 18.3308 31.9456 18.3069C31.9764 18.2831 31.9842 18.2457 31.9692 18.1949L31.1885 15.5614C31.1734 15.5106 31.1464 15.4833 31.1073 15.4794C31.0683 15.4756 31.0295 15.4767 30.9909 15.4827L30.9663 15.3996L32.4814 14.9652L32.506 15.0484C32.4702 15.0637 32.4401 15.0773 32.4159 15.0892C32.3917 15.1012 32.383 15.1187 32.3898 15.1418C32.3953 15.1603 32.4419 15.2196 32.5297 15.3198C32.6175 15.4199 32.7168 15.5293 32.8277 15.6479C32.9386 15.7665 33.0425 15.8783 33.1393 15.9834C33.2361 16.0885 33.297 16.1575 33.3219 16.1905C33.3449 16.0636 33.3729 15.924 33.406 15.7716C33.4391 15.6192 33.4697 15.4751 33.4976 15.3393C33.5255 15.2035 33.5474 15.0857 33.5633 14.9859C33.5791 14.8861 33.5836 14.8246 33.5768 14.8015C33.5699 14.7784 33.553 14.7683 33.5261 14.771C33.4991 14.7737 33.4663 14.7781 33.4277 14.7841L33.403 14.701L34.9251 14.2646L34.9498 14.3478C34.9186 14.3617 34.8887 14.3803 34.8603 14.4035C34.8318 14.4267 34.8251 14.4637 34.8402 14.5145L35.6208 17.148C35.6359 17.1988 35.6618 17.2265 35.6985 17.231C35.7352 17.2355 35.7705 17.2354 35.8045 17.2307L35.8291 17.3139L34.6631 17.6482L34.6384 17.565C34.6883 17.5457 34.7286 17.5241 34.7594 17.5003C34.7902 17.4764 34.798 17.439 34.783 17.3882L34.1995 15.42L34.1856 15.424L33.7389 17.7251L32.1398 16.0105L32.1258 16.0145L32.7093 17.9827Z"/>
<path d="M36.779 14.1173C36.708 14.1334 36.6533 14.1518 36.6149 14.1724C36.5766 14.1931 36.5617 14.2296 36.5704 14.2818L37.0182 16.9889C37.0269 17.0412 37.0527 17.0712 37.0958 17.079C37.1388 17.0869 37.1967 17.0875 37.2693 17.0809L37.2834 17.1664L35.8614 17.3907L35.8472 17.3052C35.9183 17.2891 35.9729 17.2707 36.0113 17.2501C36.0496 17.2294 36.0645 17.1929 36.0558 17.1407L35.608 14.4336C35.5993 14.3813 35.5735 14.3513 35.5304 14.3435C35.4874 14.3356 35.4296 14.335 35.3569 14.3416L35.3428 14.2561L36.7649 14.0318L36.779 14.1173Z"/>
<path d="M44.3568 13.4702L44.3501 13.5564C44.3114 13.5533 44.2777 13.5638 44.2491 13.588C44.2204 13.6122 44.1927 13.6401 44.1659 13.6717L42.6214 15.507L42.5126 16.9089C42.51 16.9425 42.5187 16.9709 42.5388 16.9942C42.5589 17.0176 42.6146 17.0378 42.7057 17.0548L42.699 17.1411L41.2042 17.0198L41.2109 16.9335C41.3035 16.9314 41.3616 16.9204 41.385 16.9006C41.4085 16.8808 41.4215 16.8541 41.4241 16.8206L41.5223 15.5553L40.2891 13.4729C40.2203 13.3564 40.1748 13.2839 40.1527 13.2556C40.1305 13.2273 40.1025 13.2118 40.0686 13.209L40.0753 13.1227L41.6718 13.2523L41.6651 13.3386C41.6216 13.335 41.5801 13.3365 41.5406 13.3429C41.5012 13.3494 41.48 13.3718 41.477 13.4101C41.4755 13.4293 41.5025 13.4893 41.558 13.5903C41.6134 13.6913 41.6786 13.8075 41.7536 13.939C41.8286 14.0705 41.907 14.2046 41.9889 14.3415C42.0708 14.4784 42.1372 14.5947 42.1882 14.6905C42.2046 14.6677 42.2395 14.6259 42.2929 14.5651C42.3463 14.5044 42.4066 14.4333 42.4737 14.3519C42.5409 14.2706 42.6133 14.1848 42.6909 14.0946C42.7684 14.0045 42.8382 13.9209 42.9002 13.8439C42.9621 13.767 43.0148 13.7001 43.0581 13.6433C43.1015 13.5865 43.1235 13.5534 43.1243 13.5438C43.1273 13.5054 43.111 13.48 43.0754 13.4675C43.0399 13.4549 43.0052 13.4473 42.9713 13.4446L42.978 13.3583L44.3568 13.4702Z"/>
<path d="M46.6068 17.8514C46.6209 17.855 46.6403 17.8575 46.665 17.8589C46.6898 17.8603 46.7063 17.8447 46.7146 17.8121C46.7194 17.7934 46.7186 17.7622 46.7123 17.7184C46.706 17.6747 46.6982 17.6268 46.689 17.5748C46.6797 17.5228 46.6693 17.4705 46.6577 17.418C46.6461 17.3654 46.6375 17.321 46.6317 17.2848L44.995 16.8653C44.9772 16.8955 44.9518 16.9311 44.9187 16.9723C44.8856 17.0134 44.8513 17.0542 44.8159 17.0948C44.7805 17.1353 44.7483 17.1729 44.7193 17.2077C44.6904 17.2424 44.6735 17.2691 44.6687 17.2877C44.6604 17.3203 44.6674 17.342 44.6897 17.3526C44.712 17.3633 44.7302 17.3705 44.7443 17.3741L44.7229 17.4579L43.6646 17.1867L43.6861 17.1029C43.7143 17.1101 43.744 17.1115 43.7752 17.1071C43.8064 17.1027 43.8297 17.0901 43.8451 17.0692C44.0697 16.7795 44.2957 16.4939 44.5232 16.2123C44.7507 15.9308 44.9552 15.6756 45.1366 15.4468C45.3181 15.2179 45.4682 15.0282 45.587 14.8775C45.7057 14.7269 45.7681 14.6399 45.7741 14.6167C45.7848 14.5748 45.7602 14.5436 45.7003 14.5233L45.7217 14.4395L47.1962 14.8174L47.1747 14.9012C47.1124 14.8902 47.0758 14.9056 47.0651 14.9475C47.0615 14.9615 47.0704 15.0295 47.0918 15.1516C47.1131 15.2736 47.1426 15.4275 47.1802 15.6133C47.2178 15.799 47.2592 16.0044 47.3043 16.2293C47.3495 16.4542 47.3946 16.6791 47.4397 16.904C47.4849 17.1289 47.5268 17.3418 47.5655 17.5427C47.6043 17.7436 47.634 17.9112 47.6547 18.0455C47.6582 18.0712 47.6725 18.0935 47.6977 18.1124C47.723 18.1313 47.7497 18.1443 47.7779 18.1515L47.7564 18.2353L46.5853 17.9352L46.6068 17.8514ZM46.2411 15.3466L45.3496 16.4204L46.5207 16.7205L46.2411 15.3466Z"/>
<path d="M48.6427 18.4107C48.6205 18.4587 48.6241 18.4973 48.6533 18.5266C48.6826 18.5558 48.7227 18.5847 48.7737 18.6133L48.7374 18.6919L47.6979 18.2166L47.7341 18.138C47.7715 18.1498 47.8097 18.1567 47.8489 18.1587C47.888 18.1608 47.9187 18.1378 47.9408 18.0898L49.089 15.6017C49.1112 15.5537 49.1087 15.5156 49.0816 15.4874C49.0546 15.4591 49.0244 15.4348 48.9911 15.4142L49.0274 15.3357L50.4642 15.9926L50.4279 16.0712C50.3906 16.0594 50.3588 16.0501 50.3325 16.0434C50.3062 16.0367 50.288 16.0442 50.2779 16.066C50.2699 16.0835 50.2661 16.1584 50.2665 16.2907C50.2669 16.4231 50.27 16.5698 50.2757 16.7311C50.2815 16.8923 50.2864 17.0438 50.2904 17.1858C50.2944 17.3277 50.295 17.4191 50.2921 17.4601C50.3934 17.3795 50.507 17.2927 50.6328 17.1996C50.7587 17.1065 50.8771 17.0179 50.988 16.9338C51.099 16.8498 51.1935 16.7753 51.2715 16.7106C51.3495 16.6458 51.3935 16.6025 51.4036 16.5807C51.4136 16.5588 51.4075 16.5402 51.3853 16.5247C51.363 16.5093 51.3352 16.4913 51.3019 16.4708L51.3382 16.3922L52.7816 17.0522L52.7454 17.1307C52.7125 17.121 52.6775 17.1156 52.6406 17.1145C52.6037 17.1135 52.5741 17.137 52.552 17.185L51.4038 19.6731C51.3816 19.7211 51.383 19.7587 51.4078 19.7859C51.4327 19.8131 51.4596 19.836 51.4884 19.8545L51.4522 19.9331L50.3464 19.4275L50.3827 19.3489C50.4332 19.3668 50.4781 19.3767 50.5173 19.3787C50.5564 19.3808 50.5871 19.3578 50.6092 19.3098L51.4673 17.4503L51.4541 17.4442L49.5943 18.8854L49.514 16.5572L49.5008 16.5512L48.6427 18.4107Z"/>
<path d="M53.826 21.4758C53.838 21.4841 53.8554 21.4931 53.8781 21.5029C53.9008 21.5128 53.9218 21.5039 53.9411 21.4763C53.9521 21.4605 53.9624 21.431 53.9719 21.3879C53.9813 21.3447 53.9909 21.2973 54.0005 21.2454C54.0101 21.1936 54.0187 21.1411 54.0263 21.0879C54.034 21.0347 54.0414 20.9902 54.0488 20.9543L52.6595 19.9963C52.6322 20.0184 52.5958 20.043 52.5502 20.07C52.5047 20.097 52.4582 20.1234 52.4106 20.1491C52.3631 20.1747 52.3196 20.1988 52.2802 20.2213C52.2408 20.2438 52.2156 20.2629 52.2045 20.2787C52.1852 20.3063 52.1842 20.329 52.2014 20.3467C52.2186 20.3644 52.2332 20.3774 52.2451 20.3856L52.1955 20.4566L51.2973 19.8372L51.3469 19.7662C51.3709 19.7827 51.3983 19.7943 51.4291 19.801C51.46 19.8076 51.4863 19.8039 51.508 19.7897C51.8209 19.5962 52.1336 19.4071 52.4463 19.2224C52.7589 19.0376 53.0407 18.8696 53.2916 18.7182C53.5424 18.5668 53.7501 18.4412 53.9147 18.3413C54.0792 18.2414 54.1684 18.1816 54.1822 18.1619C54.207 18.1264 54.1948 18.0888 54.1457 18.0491L54.1953 17.9781L55.4469 18.8412L55.3972 18.9121C55.3426 18.8803 55.3028 18.8821 55.278 18.9176C55.2697 18.9294 55.2542 18.9961 55.2313 19.1177C55.2084 19.2393 55.1819 19.3934 55.1519 19.5802C55.1218 19.767 55.0884 19.9734 55.0517 20.1994C55.0149 20.4254 54.9782 20.6513 54.9415 20.8773C54.9047 21.1033 54.8692 21.317 54.8349 21.5183C54.8005 21.7197 54.7695 21.8868 54.7417 22.0196C54.7359 22.0448 54.7415 22.0706 54.7586 22.097C54.7756 22.1234 54.7961 22.1448 54.8201 22.1613L54.7704 22.2323L53.7764 21.5468L53.826 21.4758ZM54.3639 19.0062L53.149 19.7026L54.143 20.3881L54.3639 19.0062Z"/>
<path d="M55.5403 22.7027C55.5026 22.7399 55.4923 22.7773 55.5094 22.8147C55.5266 22.8522 55.554 22.8932 55.5918 22.9376L55.53 22.9985L54.7221 22.1936L54.7839 22.1327C54.8147 22.1567 54.8482 22.1764 54.8842 22.1919C54.9202 22.2074 54.9571 22.1965 54.9949 22.1593L56.9507 20.2309C56.9885 20.1937 56.9996 20.1572 56.9842 20.1214C56.9687 20.0856 56.949 20.0523 56.925 20.0216L56.9868 19.9607L58.1034 21.0732L58.0417 21.1341C58.0108 21.1101 57.9842 21.0904 57.9619 21.075C57.9396 21.0596 57.9199 21.0604 57.9027 21.0773C57.889 21.0908 57.859 21.1595 57.8126 21.2834C57.7663 21.4073 57.7174 21.5456 57.6659 21.6984C57.6144 21.8511 57.5655 21.9945 57.5192 22.1286C57.4729 22.2627 57.4411 22.3484 57.424 22.3857C57.5475 22.3455 57.6847 22.3037 57.8357 22.2603C57.9867 22.2168 58.1291 22.1751 58.2629 22.1349C58.3967 22.0948 58.5116 22.058 58.6077 22.0244C58.7038 21.9909 58.7604 21.9657 58.7775 21.9488C58.7947 21.9319 58.7955 21.9123 58.7801 21.8901C58.7647 21.868 58.7449 21.8415 58.7209 21.8108L58.7827 21.7499L59.9045 22.8675L59.8427 22.9284C59.8153 22.9078 59.7844 22.8907 59.7501 22.8769C59.7158 22.8631 59.6798 22.8748 59.642 22.9121L57.6862 24.8405C57.6484 24.8777 57.6364 24.9133 57.6502 24.9474C57.6639 24.9815 57.681 25.0121 57.7016 25.0395L57.6398 25.1004L56.7805 24.2442L56.8422 24.1833C56.8834 24.2175 56.922 24.2424 56.958 24.2579C56.9941 24.2733 57.0309 24.2625 57.0687 24.2253L58.5304 22.784L58.5201 22.7738L56.2659 23.4765L57.0124 21.2717L57.0021 21.2615L55.5403 22.7027Z"/>
<path d="M60.6395 25.1155C60.5609 25.0052 60.4698 24.9126 60.366 24.8376C60.2622 24.7626 60.153 24.7091 60.0383 24.6771C59.9237 24.6451 59.8081 24.6387 59.6915 24.6581C59.5749 24.6775 59.4612 24.7258 59.3504 24.8031C59.2395 24.8804 59.1553 24.9701 59.0976 25.0722C59.04 25.1743 59.0071 25.2841 58.999 25.4017C58.991 25.5193 59.0052 25.6391 59.0416 25.761C59.0781 25.8829 59.1356 25.999 59.2141 26.1092C59.2955 26.2234 59.3873 26.317 59.4897 26.39C59.5921 26.4631 59.7006 26.5156 59.8153 26.5476C59.9299 26.5796 60.0455 26.586 60.1621 26.5666C60.2786 26.5472 60.3923 26.4989 60.5032 26.4216C60.6141 26.3443 60.6983 26.2546 60.756 26.1525C60.8136 26.0504 60.8465 25.9406 60.8546 25.823C60.8626 25.7054 60.8491 25.5866 60.8141 25.4667C60.779 25.3467 60.7208 25.2297 60.6395 25.1155ZM61.269 24.6766C61.4008 24.8616 61.5076 25.0657 61.5894 25.2886C61.6711 25.5115 61.7116 25.7367 61.7107 25.9643C61.7098 26.1918 61.6579 26.4121 61.5549 26.6253C61.452 26.8385 61.2838 27.0266 61.0502 27.1894C60.8126 27.3551 60.576 27.4493 60.3405 27.4721C60.1049 27.4949 59.8796 27.4678 59.6647 27.3907C59.4499 27.3136 59.252 27.1981 59.0713 27.0442C58.8906 26.8903 58.7343 26.7208 58.6024 26.5357C58.4706 26.3506 58.3618 26.148 58.2761 25.9278C58.1904 25.7077 58.147 25.4845 58.1459 25.2584C58.1448 25.0322 58.1947 24.8133 58.2957 24.6014C58.3966 24.3896 58.5659 24.2009 58.8034 24.0353C59.037 23.8724 59.2726 23.7789 59.5102 23.7547C59.7477 23.7305 59.9749 23.7562 60.1918 23.8319C60.4087 23.9076 60.6095 24.021 60.7942 24.1722C60.9789 24.3234 61.1371 24.4915 61.269 24.6766Z"/>
<path d="M63.8934 29.3101C63.9065 29.3359 63.9283 29.3574 63.9587 29.3747C63.9892 29.3919 64.0347 29.3855 64.0954 29.3554L64.1347 29.4329L63.1863 29.9031L63.1469 29.8256C63.2076 29.7956 63.24 29.7633 63.2442 29.7289C63.2484 29.6945 63.2439 29.6644 63.2308 29.6386L62.7614 28.7156L60.7606 29.7076C60.713 29.7312 60.6909 29.7624 60.6943 29.8011C60.6977 29.8398 60.706 29.8774 60.7192 29.914L60.6412 29.9527L60.0505 28.7908L60.1284 28.7522C60.1503 28.7845 60.1759 28.8135 60.2053 28.8394C60.2347 28.8652 60.2732 28.8663 60.3208 28.8427L62.3217 27.8507L61.8523 26.9277C61.8392 26.9019 61.8174 26.8803 61.787 26.8631C61.7565 26.8459 61.711 26.8523 61.6503 26.8824L61.6109 26.8049L62.5594 26.3347L62.5988 26.4121C62.5381 26.4422 62.5057 26.4744 62.5015 26.5088C62.4973 26.5432 62.5018 26.5734 62.5149 26.5992L63.8934 29.3101Z"/>
<path d="M64.0097 31.7783C63.968 31.6499 63.909 31.5346 63.8326 31.4323C63.7562 31.33 63.668 31.2466 63.5682 31.1819C63.4684 31.1173 63.3598 31.0769 63.2426 31.0606C63.1254 31.0444 63.0021 31.0566 62.8728 31.0972C62.7435 31.1378 62.6358 31.1982 62.5498 31.2782C62.4638 31.3583 62.3991 31.4531 62.3558 31.5627C62.3124 31.6723 62.2897 31.7906 62.2876 31.9176C62.2855 32.0445 62.3053 32.1722 62.3469 32.3006C62.39 32.4335 62.4494 32.55 62.5251 32.65C62.6008 32.75 62.6886 32.8323 62.7884 32.897C62.8882 32.9616 62.9968 33.002 63.114 33.0182C63.2312 33.0345 63.3545 33.0223 63.4838 32.9817C63.6131 32.941 63.7208 32.8807 63.8068 32.8006C63.8928 32.7206 63.9575 32.6258 64.0008 32.5162C64.0442 32.4066 64.0673 32.2894 64.0701 32.1648C64.0729 32.0401 64.0528 31.9113 64.0097 31.7783ZM64.7441 31.5477C64.8139 31.7632 64.8541 31.9892 64.8647 32.2259C64.8753 32.4625 64.8457 32.689 64.7759 32.9055C64.7061 33.1219 64.5898 33.3163 64.4269 33.4887C64.2639 33.6611 64.0462 33.7901 63.7737 33.8757C63.4966 33.9628 63.242 33.9821 63.0101 33.9337C62.7781 33.8853 62.5711 33.7924 62.3892 33.6551C62.2072 33.5177 62.0533 33.3489 61.9272 33.1485C61.8012 32.9481 61.7032 32.7402 61.6333 32.5247C61.5635 32.3092 61.5209 32.0838 61.5057 31.8487C61.4905 31.6135 61.5167 31.388 61.5841 31.1723C61.6516 30.9566 61.7657 30.7629 61.9263 30.5913C62.0869 30.4196 62.3058 30.2902 62.5829 30.2032C62.8554 30.1176 63.1088 30.0986 63.3431 30.1463C63.5774 30.1939 63.7866 30.2861 63.9709 30.4227C64.1551 30.5593 64.3126 30.7271 64.4432 30.926C64.5739 31.125 64.6742 31.3322 64.7441 31.5477Z"/>
</g>
<g fill="#23048c" opacity="1" stroke="#fefefe" stroke-linecap="butt" stroke-linejoin="round" stroke-width="0.0987693">
<path d="M44.6062 37.7169L44.6062 34.9197L45.2462 34.9197L45.2462 37.1322L45.9929 37.1322L45.9929 37.7169L44.6062 37.7169Z"/>
<path d="M46.2615 37.7169L46.2615 35.6506L46.8858 35.6506L46.8858 37.7169L46.2615 37.7169ZM46.9134 35.0896C46.9134 35.1897 46.8818 35.2746 46.8186 35.3444C46.7554 35.4142 46.6737 35.4491 46.5736 35.4491C46.4736 35.4491 46.3919 35.4142 46.3287 35.3444C46.2655 35.2746 46.2339 35.1897 46.2339 35.0896C46.2339 35.0396 46.2424 34.9928 46.2596 34.9494C46.2767 34.9059 46.2997 34.8677 46.3287 34.8348C46.3577 34.8019 46.3932 34.7755 46.4354 34.7558C46.4775 34.736 46.5236 34.7261 46.5736 34.7261C46.6237 34.7261 46.6698 34.736 46.7119 34.7558C46.7541 34.7755 46.7896 34.8019 46.8186 34.8348C46.8476 34.8677 46.8706 34.9059 46.8877 34.9494C46.9049 34.9928 46.9134 35.0396 46.9134 35.0896Z"/>
<path d="M47.9683 35.6506L47.9683 35.943L47.9762 35.943C48.0104 35.8429 48.071 35.7566 48.1579 35.6842C48.2448 35.6118 48.3528 35.5756 48.4819 35.5756C48.6004 35.5756 48.6952 35.5999 48.7663 35.6486C48.8374 35.6974 48.8927 35.7626 48.9323 35.8442C48.9718 35.9259 48.9981 36.0194 49.0113 36.1247C49.0244 36.2301 49.031 36.3394 49.031 36.4526L49.031 37.7169L48.4108 37.7169L48.4108 36.4487C48.4108 36.3618 48.3982 36.2854 48.3732 36.2195C48.3482 36.1537 48.2988 36.1208 48.2251 36.1208C48.1487 36.1208 48.0894 36.1557 48.0473 36.2255C48.0051 36.2953 47.9841 36.3868 47.9841 36.5L47.9841 37.7169L47.3638 37.7169L47.3638 35.6506L47.9683 35.6506Z"/>
<path d="M51.0894 35.6506L51.0894 37.5707C51.0894 37.9236 51.0156 38.1943 50.8681 38.3826C50.7206 38.5709 50.4862 38.6651 50.1649 38.6651C50.02 38.6651 49.8791 38.6394 49.7422 38.588C49.6052 38.5367 49.4919 38.4728 49.4024 38.3964L49.6908 37.9381C49.7514 37.9908 49.8179 38.0343 49.8903 38.0685C49.9628 38.1027 50.0411 38.1199 50.1254 38.1199C50.2544 38.1199 50.3473 38.0751 50.4039 37.9855C50.4605 37.896 50.4889 37.784 50.4889 37.6497L50.4889 37.4798L50.481 37.4798C50.452 37.5483 50.3993 37.6095 50.3229 37.6635C50.2465 37.7175 50.1583 37.7445 50.0582 37.7445C49.945 37.7445 49.8455 37.7175 49.7599 37.6635C49.6743 37.6095 49.6026 37.5345 49.5446 37.4383C49.4867 37.3422 49.4432 37.229 49.4143 37.0986C49.3853 36.9682 49.3708 36.8279 49.3708 36.6778C49.3708 36.5198 49.3859 36.3743 49.4162 36.2413C49.4465 36.1083 49.4913 35.9937 49.5506 35.8975C49.6098 35.8014 49.6816 35.7257 49.7659 35.6704C49.8502 35.6151 49.9476 35.5874 50.0582 35.5874C50.1768 35.5874 50.2696 35.6164 50.3368 35.6743C50.4039 35.7323 50.4533 35.806 50.4849 35.8956L50.4968 35.8956L50.4968 35.6506L51.0894 35.6506ZM50.5086 36.6818C50.5086 36.6028 50.5033 36.5297 50.4928 36.4625C50.4823 36.3953 50.4658 36.3361 50.4434 36.2847C50.421 36.2334 50.3934 36.1932 50.3605 36.1642C50.3275 36.1352 50.2887 36.1208 50.2439 36.1208C50.1965 36.1208 50.1563 36.1352 50.1234 36.1642C50.0905 36.1932 50.0635 36.2334 50.0424 36.2847C50.0214 36.3361 50.0056 36.3953 49.995 36.4625C49.9845 36.5297 49.9792 36.6028 49.9792 36.6818C49.9792 36.7582 49.9845 36.8306 49.995 36.8991C50.0056 36.9675 50.0214 37.0275 50.0424 37.0788C50.0635 37.1302 50.0905 37.1704 50.1234 37.1993C50.1563 37.2283 50.1965 37.2428 50.2439 37.2428C50.2887 37.2428 50.3275 37.2283 50.3605 37.1993C50.3934 37.1704 50.421 37.1302 50.4434 37.0788C50.4658 37.0275 50.4823 36.9675 50.4928 36.8991C50.5033 36.8306 50.5086 36.7582 50.5086 36.6818Z"/>
<path d="M52.6183 37.7169L52.6183 37.4245L52.6104 37.4245C52.5762 37.5246 52.5156 37.6109 52.4287 37.6833C52.3418 37.7557 52.2338 37.7919 52.1047 37.7919C51.9862 37.7919 51.8914 37.7676 51.8203 37.7188C51.7492 37.6701 51.6938 37.6049 51.6543 37.5233C51.6148 37.4416 51.5885 37.3481 51.5753 37.2428C51.5622 37.1374 51.5556 37.0281 51.5556 36.9149L51.5556 35.6506L52.1758 35.6506L52.1758 36.9149C52.1758 36.9596 52.1785 37.0018 52.1837 37.0413C52.189 37.0808 52.1982 37.115 52.2114 37.144C52.2246 37.173 52.2437 37.1967 52.2687 37.2151C52.2937 37.2336 52.3247 37.2428 52.3615 37.2428C52.4379 37.2428 52.4972 37.2079 52.5393 37.1381C52.5815 37.0683 52.6025 36.9768 52.6025 36.8635L52.6025 35.6506L53.2228 35.6506L53.2228 37.7169L52.6183 37.7169Z"/>
<path d="M53.7008 37.7169L53.7008 35.6506L54.3251 35.6506L54.3251 37.7169L53.7008 37.7169ZM54.3527 35.0896C54.3527 35.1897 54.3211 35.2746 54.2579 35.3444C54.1947 35.4142 54.113 35.4491 54.013 35.4491C53.9129 35.4491 53.8312 35.4142 53.768 35.3444C53.7048 35.2746 53.6732 35.1897 53.6732 35.0896C53.6732 35.0396 53.6817 34.9928 53.6989 34.9494C53.716 34.9059 53.739 34.8677 53.768 34.8348C53.797 34.8019 53.8325 34.7755 53.8747 34.7558C53.9168 34.736 53.9629 34.7261 54.013 34.7261C54.063 34.7261 54.1091 34.736 54.1512 34.7558C54.1934 34.7755 54.2289 34.8019 54.2579 34.8348C54.2869 34.8677 54.3099 34.9059 54.327 34.9494C54.3442 34.9928 54.3527 35.0396 54.3527 35.0896Z"/>
<path d="M55.771 36.2314C55.7236 36.184 55.6723 36.1458 55.617 36.1168C55.5617 36.0878 55.5011 36.0734 55.4352 36.0734C55.3852 36.0734 55.3424 36.0892 55.3068 36.1208C55.2713 36.1524 55.2535 36.1958 55.2535 36.2511C55.2535 36.3038 55.2726 36.3427 55.3108 36.3677C55.349 36.3927 55.4207 36.421 55.5261 36.4526C55.5867 36.4711 55.6473 36.4961 55.7078 36.5277C55.7684 36.5593 55.8224 36.6001 55.8698 36.6502C55.9172 36.7002 55.9561 36.7601 55.9864 36.8299C56.0167 36.8997 56.0318 36.982 56.0318 37.0768C56.0318 37.2033 56.0094 37.3113 55.9646 37.4008C55.9199 37.4904 55.8632 37.5628 55.7947 37.6181C55.7263 37.6734 55.6492 37.7142 55.5636 37.7406C55.478 37.7669 55.3957 37.7801 55.3167 37.7801C55.1797 37.7801 55.0474 37.7551 54.9197 37.705C54.7919 37.655 54.6819 37.5852 54.5898 37.4956L54.8979 37.1006C54.9532 37.1585 55.0132 37.2059 55.0777 37.2428C55.1422 37.2797 55.2127 37.2981 55.289 37.2981C55.347 37.2981 55.3924 37.281 55.4254 37.2467C55.4583 37.2125 55.4747 37.1677 55.4747 37.1124C55.4747 37.0466 55.4484 36.9985 55.3957 36.9682C55.343 36.9379 55.264 36.9056 55.1587 36.8714C55.1034 36.853 55.0481 36.8299 54.9927 36.8023C54.9374 36.7746 54.888 36.7371 54.8446 36.6897C54.8011 36.6423 54.7656 36.585 54.7379 36.5178C54.7103 36.4507 54.6964 36.3683 54.6964 36.2709C54.6964 36.155 54.7175 36.0543 54.7596 35.9687C54.8018 35.8831 54.8564 35.8119 54.9236 35.7553C54.9908 35.6987 55.0658 35.6565 55.1488 35.6289C55.2318 35.6012 55.3154 35.5874 55.3997 35.5874C55.5261 35.5874 55.6473 35.6098 55.7631 35.6546C55.879 35.6993 55.9818 35.7612 56.0713 35.8403L55.771 36.2314Z"/>
<path d="M57.3435 37.7011C57.3092 37.7195 57.2605 37.7353 57.1973 37.7485C57.1341 37.7616 57.0708 37.7682 57.0076 37.7682C56.7996 37.7682 56.6481 37.7123 56.5533 37.6003C56.4585 37.4884 56.4111 37.3205 56.4111 37.0966L56.4111 36.1326L56.1622 36.1326L56.1622 35.6506L56.4071 35.6506L56.4071 35.1528L57.0076 35.1528L57.0076 35.6506L57.3632 35.6506L57.3632 36.1326L57.0076 36.1326L57.0076 36.9544C57.0076 37.0545 57.0234 37.1276 57.055 37.1736C57.0867 37.2197 57.1367 37.2428 57.2052 37.2428C57.2605 37.2428 57.3066 37.2336 57.3435 37.2151L57.3435 37.7011Z"/>
<path d="M57.6161 37.7169L57.6161 35.6506L58.2403 35.6506L58.2403 37.7169L57.6161 37.7169ZM58.2679 35.0896C58.2679 35.1897 58.2363 35.2746 58.1731 35.3444C58.1099 35.4142 58.0283 35.4491 57.9282 35.4491C57.8281 35.4491 57.7464 35.4142 57.6832 35.3444C57.62 35.2746 57.5884 35.1897 57.5884 35.0896C57.5884 35.0396 57.597 34.9928 57.6141 34.9494C57.6312 34.9059 57.6542 34.8677 57.6832 34.8348C57.7122 34.8019 57.7477 34.7755 57.7899 34.7558C57.832 34.736 57.8781 34.7261 57.9282 34.7261C57.9782 34.7261 58.0243 34.736 58.0664 34.7558C58.1086 34.7755 58.1441 34.8019 58.1731 34.8348C58.2021 34.8677 58.2251 34.9059 58.2423 34.9494C58.2594 34.9928 58.2679 35.0396 58.2679 35.0896Z"/>
<path d="M59.9154 37.5588C59.8601 37.6273 59.789 37.6813 59.7021 37.7208C59.6151 37.7603 59.5151 37.7801 59.4018 37.7801C59.2701 37.7801 59.1542 37.7531 59.0541 37.6991C58.954 37.6451 58.8698 37.5694 58.8013 37.4719C58.7328 37.3745 58.6808 37.2586 58.6452 37.1243C58.6097 36.9899 58.5919 36.8424 58.5919 36.6818C58.5919 36.5211 58.6103 36.3743 58.6472 36.2413C58.6841 36.1083 58.7368 35.993 58.8052 35.8956C58.8737 35.7981 58.9587 35.7224 59.0601 35.6684C59.1615 35.6144 59.278 35.5874 59.4097 35.5874C59.5256 35.5874 59.6257 35.6085 59.71 35.6506C59.7942 35.6928 59.8601 35.7402 59.9075 35.7928L59.6586 36.2748C59.6349 36.238 59.6059 36.209 59.5717 36.1879C59.5374 36.1669 59.4993 36.1563 59.4571 36.1563C59.3807 36.1563 59.3169 36.2024 59.2655 36.2946C59.2141 36.3868 59.1885 36.5158 59.1885 36.6818C59.1885 36.8477 59.2135 36.9761 59.2635 37.067C59.3136 37.1578 59.3821 37.2033 59.469 37.2033C59.5137 37.2033 59.5526 37.1921 59.5855 37.1697C59.6184 37.1473 59.6454 37.1177 59.6665 37.0808L59.9154 37.5588Z"/>
<path d="M61.1125 36.2314C61.0651 36.184 61.0137 36.1458 60.9584 36.1168C60.9031 36.0878 60.8425 36.0734 60.7767 36.0734C60.7266 36.0734 60.6838 36.0892 60.6483 36.1208C60.6127 36.1524 60.5949 36.1958 60.5949 36.2511C60.5949 36.3038 60.614 36.3427 60.6522 36.3677C60.6904 36.3927 60.7622 36.421 60.8675 36.4526C60.9281 36.4711 60.9887 36.4961 61.0493 36.5277C61.1099 36.5593 61.1638 36.6001 61.2113 36.6502C61.2587 36.7002 61.2975 36.7601 61.3278 36.8299C61.3581 36.8997 61.3732 36.982 61.3732 37.0768C61.3732 37.2033 61.3509 37.3113 61.3061 37.4008C61.2613 37.4904 61.2047 37.5628 61.1362 37.6181C61.0677 37.6734 60.9907 37.7142 60.9051 37.7406C60.8195 37.7669 60.7372 37.7801 60.6581 37.7801C60.5212 37.7801 60.3888 37.7551 60.2611 37.705C60.1334 37.655 60.0234 37.5852 59.9312 37.4956L60.2394 37.1006C60.2947 37.1585 60.3546 37.2059 60.4191 37.2428C60.4837 37.2797 60.5541 37.2981 60.6305 37.2981C60.6884 37.2981 60.7339 37.281 60.7668 37.2467C60.7997 37.2125 60.8162 37.1677 60.8162 37.1124C60.8162 37.0466 60.7898 36.9985 60.7372 36.9682C60.6845 36.9379 60.6055 36.9056 60.5001 36.8714C60.4448 36.853 60.3895 36.8299 60.3342 36.8023C60.2789 36.7746 60.2295 36.7371 60.186 36.6897C60.1426 36.6423 60.107 36.585 60.0794 36.5178C60.0517 36.4507 60.0379 36.3683 60.0379 36.2709C60.0379 36.155 60.0589 36.0543 60.1011 35.9687C60.1432 35.8831 60.1979 35.8119 60.265 35.7553C60.3322 35.6987 60.4073 35.6565 60.4902 35.6289C60.5732 35.6012 60.6568 35.5874 60.7411 35.5874C60.8675 35.5874 60.9887 35.6098 61.1046 35.6546C61.2205 35.6993 61.3232 35.7612 61.4127 35.8403L61.1125 36.2314Z"/>
</g>
<path d="M18.976 56.5529L19.7668 58.1552L21.535 58.4121L20.2555 59.6593L20.5576 61.4204L18.976 60.5889L17.3945 61.4204L17.6966 59.6593L16.4171 58.4121L18.1853 58.1552L18.976 56.5529Z" fill="#1201a8" fill-rule="nonzero" opacity="0" stroke="#ffffff" stroke-linecap="butt" stroke-linejoin="round" stroke-width="0.2"/>
<path d="M52.2987 56.6901L53.0895 58.2924L54.8577 58.5493L53.5782 59.7965L53.8803 61.5576L52.2987 60.7262L50.7172 61.5576L51.0192 59.7965L49.7397 58.5493L51.508 58.2924L52.2987 56.6901Z" fill="#1201a8" fill-rule="nonzero" opacity="0" stroke="#ffffff" stroke-linecap="butt" stroke-linejoin="round" stroke-width="0.2"/>
</g>
</svg>
