<?xml version="1.0" encoding="UTF-8" standalone="no"?>
<!DOCTYPE svg PUBLIC "-//W3C//DTD SVG 1.1//EN" "http://www.w3.org/Graphics/SVG/1.1/DTD/svg11.dtd">
<!-- Created with Vectornator (http://vectornator.io/) -->
<svg height="100%" stroke-miterlimit="10" style="fill-rule:nonzero;clip-rule:evenodd;stroke-linecap:round;stroke-linejoin:round;" version="1.1" viewBox="0 0 70.875 70.875" width="100%" xml:space="preserve" xmlns="http://www.w3.org/2000/svg" xmlns:xlink="http://www.w3.org/1999/xlink">
<defs>
<filter color-interpolation-filters="sRGB" filterUnits="userSpaceOnUse" height="21.2173" id="Filter" width="50.1187" x="11.4812" y="13.1468">
<feComponentTransfer in="SourceGraphic" result="Alpha">
<feFuncA slope="0" type="linear"/>
</feComponentTransfer>
<feDropShadow dx="0.106741" dy="0.280368" flood-color="#ffffff" flood-opacity="1" in="Alpha" result="Shadow" stdDeviation="0"/>
</filter>
</defs>
<g id="レイヤー-1-copy" opacity="0.922885" visibility="hidden">
<path d="M35.5627 1.23315L35.5627 1.23315C54.441 1.23315 69.745 16.5371 69.745 35.4155L69.745 35.4155C69.745 54.2939 54.441 69.5978 35.5627 69.5978L35.5627 69.5978C16.6843 69.5978 1.38032 54.2939 1.38032 35.4155L1.38032 35.4155C1.38032 16.5371 16.6843 1.23315 35.5627 1.23315Z" fill="#fffbde" fill-rule="nonzero" opacity="1" stroke="#1201a9" stroke-linecap="butt" stroke-linejoin="round" stroke-width="1.5"/>
<path d="M36.412 12.2869L36.412 12.2869C49.0398 12.2869 59.2767 22.5238 59.2767 35.1516L59.2767 35.1516C59.2767 47.7795 49.0398 58.0164 36.412 58.0164L36.412 58.0164C23.7841 58.0164 13.5472 47.7795 13.5472 35.1516L13.5472 35.1516C13.5472 22.5238 23.7841 12.2869 36.412 12.2869Z" fill="#9fc6fd" fill-rule="nonzero" opacity="1" stroke="#0608a0" stroke-linecap="butt" stroke-linejoin="round" stroke-width="1.38554"/>
</g>
<g id="レイヤー-2" visibility="hidden">
<path d="M12.7162 32.5249C12.7162 20.4102 25.1324 10.5892 40.4485 10.5892C55.7646 10.5892 68.1808 20.4102 68.1808 32.5249C68.1808 44.6397 55.7646 54.4606 40.4485 54.4606C25.1324 54.4606 12.7162 44.6397 12.7162 32.5249Z" fill="#c4c4dc" fill-rule="nonzero" opacity="1" stroke="#20018c" stroke-linecap="round" stroke-linejoin="round" stroke-width="1.4"/>
</g>
<g id="レイヤー-1-コピー" visibility="hidden"/>
<g id="レイヤー-1" visibility="hidden">
<g opacity="0">
<path d="M36.3537 44.9525C36.3537 44.9525 38.8332 48.3152 39.524 48.0471C40.1035 47.4167 40.6407 47.4683 40.7107 47.6702C40.7484 47.779 40.3856 47.8358 40.2433 48.2425C40.0483 49.7781 41.2416 52.3497 40.9366 52.5325C40.6317 52.7153 40.3126 50.2149 39.71 50.4506C39.1074 50.6863 39.7423 52.9555 39.3602 53.0247C38.9781 53.0939 39.4633 50.7195 38.8109 50.6217C38.1585 50.5239 37.7101 52.7316 37.3278 52.5549C37.1404 52.4682 37.5788 51.1399 37.9486 50.3406C38.6877 49.4398 38.9769 48.7436 38.9082 48.3955C38.672 48.1095 35.5503 45.4768 35.5503 45.4768L36.3537 44.9525Z" fill="#c3c3cc" fill-rule="nonzero" opacity="1" stroke="none"/>
<path d="M37.9263 44.4232C37.9263 44.4232 41.7121 47.658 42.4589 47.1531C42.9815 46.2562 43.6287 46.167 43.7629 46.3832C43.8352 46.4997 43.4217 46.6669 43.3576 47.181C43.5201 49.0274 45.5858 51.6967 45.2727 51.9948C44.9596 52.293 43.9437 49.4636 43.2929 49.9062C42.642 50.3489 43.9714 52.8206 43.5382 53.0076C43.1049 53.1947 43.0704 50.2887 42.2755 50.356C41.4806 50.4233 41.5159 53.1245 41.0195 53.0245C40.7762 52.9755 40.9539 51.3034 41.1861 50.2678C41.828 49.011 41.9912 48.118 41.8212 47.7309C41.4693 47.4629 37.1122 45.2585 37.1122 45.2585L37.9263 44.4232Z" fill="#c3c3cc" fill-rule="nonzero" opacity="1" stroke="none"/>
<path d="M17.5283 37.0554C17.4795 37.1477 17.6469 37.3747 18.0005 37.7C19.6368 39.2054 25.2595 42.8142 31.8856 44.8997C39.9438 47.4359 42.9783 46.292 43.2103 45.6193C43.4423 44.9466 38.2709 40.4786 34.341 39.1747C30.4111 37.8708 17.8032 36.5364 17.5283 37.0554Z" fill="#c3c3cc" fill-rule="nonzero" opacity="1" stroke="none"/>
<path d="M20.1479 37.1818C19.3466 36.6123 18.2064 36.855 16.9405 37.1491C18.1816 38.1665 19.1429 39.0496 20.7239 39.6946C20.8906 38.496 20.9493 37.7512 20.1479 37.1818Z" fill="#c3c3cc" fill-rule="nonzero" opacity="1" stroke="none"/>
<path d="M12.8129 35.3151C12.9947 34.8914 15.173 34.7746 17.7987 34.2704C19.0617 33.014 19.671 32.8603 21.1766 32.6428C22.8629 32.3667 27.0777 33.7535 27.0777 33.7535C27.0777 33.7535 24.9861 25.1864 29.7735 22.143C34.5928 19.0794 51.9851 20.4659 59.1208 26.355C46.4467 30.893 34.3846 33.3476 38.963 36.8394C40.1139 37.7172 41.3443 38.9317 42.481 39.6012C44.7752 40.9526 59.4626 52.1647 58.9961 53.291C58.5296 54.4172 50.8763 47.6852 50.2589 48.5284C49.6415 49.3715 55.8763 57.7624 54.9781 58.3417C54.0799 58.9211 46.2997 48.2332 42.7138 45.5614C41.1119 44.3679 37.6747 40.7015 32.4455 39.3955C27.2163 38.0894 26.6742 39.121 20.0684 37.4218C16.0918 36.8277 18.2603 37.5221 16.5388 37.0192C14.8172 36.5163 12.6311 35.7387 12.8129 35.3151Z" fill="#c3c3cc" fill-rule="nonzero" opacity="1" stroke="none"/>
<path d="M18.9671 33.5139C18.3501 33.9417 18.3013 34.0449 17.8467 34.4581C17.5955 34.5436 17.4984 34.5167 17.0418 34.6115C18.3988 34.9374 18.7267 35.1597 18.7267 35.1597C18.7267 35.1597 18.6371 34.3016 18.9671 33.5139Z" fill="#c3c3cc" fill-rule="nonzero" opacity="1" stroke="none"/>
<path d="M20.0711 36.7017C20.1143 36.5167 18.2862 36.0397 16.4696 35.7487C14.653 35.4578 12.8701 35.347 12.8046 35.5379C12.7392 35.7288 14.2323 35.6342 16.0489 35.9251C17.8655 36.2161 20.028 36.8866 20.0711 36.7017Z" fill="#c3c3cc" fill-rule="nonzero" opacity="1" stroke="none"/>
<path d="M21.5019 34.778L21.5019 34.778C21.6438 35.1226 21.4802 35.5174 21.1367 35.6597L21.1367 35.6597C20.7931 35.802 20.3996 35.638 20.2578 35.2933L20.2578 35.2933C20.1159 34.9486 20.2795 34.5538 20.623 34.4115L20.623 34.4115C20.9666 34.2692 21.3601 34.4333 21.5019 34.778Z" fill="#c3c3cc" fill-rule="nonzero" opacity="1" stroke="none"/>
<path d="M21.0954 34.8288L21.0954 34.8288C21.1918 35.0631 21.0806 35.3315 20.8471 35.4283L20.8471 35.4283C20.6135 35.5251 20.3459 35.4135 20.2495 35.1792L20.2495 35.1792C20.153 34.9448 20.2642 34.6764 20.4978 34.5796L20.4978 34.5796C20.7314 34.4829 20.9989 34.5944 21.0954 34.8288Z" fill="#c3c3cc" fill-rule="nonzero" opacity="1" stroke="none"/>
</g>
<path d="M15.7438 33.3483C15.9158 32.9488 17.9766 32.8387 20.4607 32.3632C21.6555 31.1785 22.2319 31.0335 23.6562 30.8284C25.2516 30.568 29.239 31.8758 29.239 31.8758C29.239 31.8758 24.4263 24.1979 29.3005 21.9639C30.408 21.4563 36.3142 23.1174 59.8469 27.8701C44.2507 31.4692 40.8381 28.3776 40.4209 29.762C39.4058 33.1304 42.7358 36.7588 43.8111 37.3902C45.9816 38.6645 59.8765 49.2375 59.4352 50.2995C58.9939 51.3615 51.7535 45.0132 51.1694 45.8084C50.5853 46.6035 56.4837 54.516 55.6339 55.0623C54.7842 55.6087 47.4238 45.53 44.0314 43.0106C42.5159 41.885 39.2642 38.4277 34.3171 37.1961C29.37 35.9646 28.8572 36.9373 22.6079 35.335C18.8458 34.7748 20.8973 35.4295 19.2687 34.9553C17.64 34.4811 15.5719 33.7479 15.7438 33.3483Z" fill="#000000" fill-rule="nonzero" opacity="0" stroke="none"/>
<path d="M41.8776 47.517L35.8998 36.3029" fill="#000000" fill-rule="nonzero" opacity="0" stroke="#ffffff" stroke-dasharray="1.0,3.0,4.0,3.0" stroke-linecap="round" stroke-linejoin="round" stroke-opacity="0.986979" stroke-width="0.553029"/>
</g>
<clipPath id="ArtboardFrame">
<rect height="70.875" width="70.875" x="0" y="0"/>
</clipPath>
<g clip-path="url(#ArtboardFrame)" id="moji">
<path d="M28.5193 50.0299C28.5193 50.0299 32.1008 53.0803 32.8073 52.6041C33.3017 51.7585 33.914 51.6743 34.0409 51.8782C34.1093 51.988 33.7181 52.1457 33.6575 52.6305C33.8113 54.3716 35.7655 56.8888 35.4693 57.1699C35.1731 57.451 34.212 54.783 33.5963 55.2004C32.9805 55.6178 34.2382 57.9486 33.8283 58.125C33.4185 58.3014 33.3858 55.561 32.6338 55.6245C31.8818 55.688 31.9152 58.2352 31.4456 58.1409C31.2154 58.0947 31.3835 56.5179 31.6031 55.5413C32.2104 54.3561 32.3649 53.5141 32.204 53.149C31.8711 52.8963 27.7491 50.8176 27.7491 50.8176L28.5193 50.0299Z" fill="#836e42" fill-rule="nonzero" opacity="0" stroke="none"/>
<g opacity="1">
<path d="M9.65312 35.4547C9.84404 35.0097 12.3509 34.4554 15.1083 33.9258C16.4346 32.6064 19.0515 32.4728 20.0092 32.4869C19.3473 31.9518 17.8323 28.9178 18.7054 27.6222C19.5786 26.3266 20.3333 26.2906 21.2959 25.9464C21.4086 24.524 21.9568 22.8672 25.814 22.253C28.2747 21.8611 29.7731 22.9182 31.8882 24.0716C36.1975 23.453 49.1371 21.6976 52.1906 21.1003C49.7278 22.799 43.6056 26.6238 40.3012 27.8376C46.0898 30.3065 53.7794 31.6763 56.6087 32.7146C47.9585 34.4559 42.6497 34.6074 36.614 34.645C40.8219 35.8191 41.147 37.1553 47.9851 36.9172C54.8232 36.679 59.9933 35.1435 62.1433 33.9372C60.5094 37.6223 53.5463 40.119 51.8414 41.1109C53.7003 41.2183 55.3161 41.8993 61.0858 41.2905C59.8372 42.9992 50.9365 44.5548 46.0652 44.3C47.793 46.8119 46.9417 46.8953 41.7051 47.4707C40.3161 46.4646 40.6012 46.1476 37.8793 45.5249C34.7176 44.8015 31.1265 45.0616 29.413 44.5989C26.2243 43.738 22.3342 42.2349 18.4331 40.0234C14.532 37.8118 14.6788 37.5101 12.8709 36.982C11.063 36.4538 9.46221 35.8996 9.65312 35.4547Z" fill="#aaaac7" fill-rule="nonzero" opacity="1" stroke="none"/>
<path d="M36.8552 43.317C36.8552 43.317 40.4515 45.21 40.9617 44.8255C42.059 45.2606 43.4794 44.129 43.9038 44.4937C44.1689 44.7216 42.354 45.1651 41.7868 45.5947C41.2196 46.0243 44.4797 44.6779 44.1866 45.1311C43.8936 45.5843 41.9578 46.2228 42.1517 46.3794C42.3456 46.536 44.8011 45.158 44.7268 45.6154C44.6899 45.8422 42.7553 47.0736 42.1169 46.951C41.2858 46.7913 40.8035 45.6561 40.6241 45.374C40.348 45.2386 36.1475 44.0652 36.1572 44.068C36.1572 44.068 36.1515 44.0664 36.1492 44.0657C36.1429 44.0639 36.7486 43.3957 36.7486 43.3957C36.7945 43.3455 36.8422 43.3102 36.8552 43.317Z" fill="#594c2e" fill-rule="nonzero" opacity="1" stroke="none"/>
<path d="M39.605 42.8164C39.605 42.8164 42.3836 44.9348 42.9916 44.7945C43.886 45.3448 45.5985 44.9131 45.8802 45.2585C46.0561 45.4742 44.196 45.3493 43.5195 45.5066C42.8429 45.6639 46.364 45.5174 45.9388 45.7547C45.5136 45.9921 43.4755 45.9705 43.6074 46.1216C43.7394 46.2726 46.5107 45.9166 46.2907 46.2079C46.1816 46.3523 43.9505 46.7312 43.3875 46.4992C42.6543 46.1971 42.5702 45.3182 42.4931 45.0858C42.2764 44.9299 38.6913 43.156 38.6996 43.1601C38.6996 43.1601 38.6947 43.1577 38.6928 43.1567C38.6874 43.154 39.4785 42.8446 39.4785 42.8446C39.5382 42.8214 39.5949 42.8088 39.605 42.8164Z" fill="#96793b" fill-rule="nonzero" opacity="1" stroke="none"/>
<path d="M48.8847 40.7083C50.605 42.2169 52.5067 41.8329 59.4978 41.9787C52.7714 44.0031 41.2759 44.4921 37.8835 42.1738C36.368 41.1382 47.5847 39.5682 48.8847 40.7083Z" fill="#979798" fill-rule="nonzero" opacity="1" stroke="none"/>
<path d="M15.1201 36.9092C15.0739 36.9962 15.2323 37.2103 15.5668 37.5171C17.1148 38.9366 22.7974 41.7874 29.066 43.754C36.6894 46.1456 45.4681 41.7044 45.6876 41.0701C45.9071 40.4357 34.7435 40.1373 31.0257 38.9077C27.3078 37.6781 15.3801 36.4198 15.1201 36.9092Z" fill="#ffffff" fill-rule="nonzero" opacity="1" stroke="none"/>
<path d="M17.5984 37.0284C16.8403 36.4914 15.7616 36.7203 14.564 36.9976C15.7382 37.957 16.6475 38.7898 18.1433 39.398C18.301 38.2677 18.3565 37.5654 17.5984 37.0284Z" fill="#fe0000" fill-rule="nonzero" opacity="1" stroke="none"/>
<path d="M23.069 36.382C23.069 36.382 16.8534 29.1842 19.6104 27.0928C22.3673 25.0014 26.5771 25.6833 50.2653 21.7789C36.9602 30.6766 32.6728 28.9966 32.7738 30.4389C33.0196 33.9484 23.069 36.382 23.069 36.382Z" fill="#929292" fill-rule="nonzero" opacity="1" stroke="none"/>
<path d="M16.4754 36.0655C16.6473 35.666 12.7996 34.7585 15.2837 34.283C16.4785 33.0982 17.0549 32.9533 18.4792 32.7481C20.0746 32.4878 24.062 33.7956 24.062 33.7956C24.062 33.7956 18.3847 24.6745 24.2249 22.8867C30.0651 21.0989 29.9004 26.4397 54.7712 32.7151C38.4368 34.8838 33.7764 34.2839 33.7764 34.2839C33.7764 34.2839 34.9242 34.2804 40.467 36.4065C45.301 38.2607 53.7204 37.5719 59.1265 35.718C59.9192 35.4462 60.6337 35.1703 61.2453 34.901C60.8899 35.2057 60.2824 35.6711 59.5134 36.2136C57.5422 37.6041 54.5097 39.5013 51.9392 40.497C49.8169 41.3192 45.8006 42.0786 43.7478 42.1653C38.2388 42.3981 33.4664 41.6967 28.5193 40.4651C23.5723 39.2335 23.6802 38.8571 17.4309 37.2547C13.6688 36.6945 15.7203 37.3493 14.0917 36.8751C12.463 36.4009 16.3034 36.465 16.4754 36.0655Z" fill="#000000" fill-rule="nonzero" opacity="1" stroke="none"/>
<path d="M10.5073 35.4016C10.6079 35.1679 11.6152 34.9217 12.7152 34.755C13.4955 34.6367 13.629 34.6698 14.6599 34.4725C15.2435 34.224 18.3883 35.768 17.3713 37.3883C13.6092 36.8281 15.6608 37.4828 14.0321 37.0086C12.4034 36.5344 10.3353 35.8012 10.5073 35.4016Z" fill="#737385" fill-rule="nonzero" opacity="1" stroke="none"/>
<path d="M15.7084 34.1563L14.7057 34.471L16.2888 35.0283C16.2888 35.0283 16.7576 34.8208 16.5944 34.3661C16.4312 33.9114 15.7084 34.1563 15.7084 34.1563Z" fill="#800000" fill-rule="nonzero" opacity="1" stroke="none"/>
<path d="M17.5257 36.5757C17.5665 36.4013 15.8371 35.9514 14.1185 35.677C12.3999 35.4027 10.7133 35.2983 10.6513 35.4783C10.5894 35.6583 12.0019 35.569 13.7205 35.8434C15.4391 36.1177 17.4849 36.7501 17.5257 36.5757Z" fill="#ffffff" fill-opacity="0.710938" fill-rule="nonzero" opacity="1" stroke="none"/>
<path d="M18.8793 34.7616L18.8793 34.7616C19.0135 35.0866 18.8588 35.4589 18.5338 35.5931L18.5338 35.5931C18.2088 35.7273 17.8365 35.5726 17.7023 35.2476L17.7023 35.2476C17.5681 34.9225 17.7228 34.5503 18.0478 34.4161L18.0478 34.4161C18.3729 34.2819 18.7451 34.4366 18.8793 34.7616Z" fill="#ffffff" fill-rule="nonzero" opacity="1" stroke="none"/>
<path d="M18.4947 34.8095L18.4947 34.8095C18.586 35.0305 18.4808 35.2836 18.2598 35.3749L18.2598 35.3749C18.0388 35.4661 17.7857 35.3609 17.6944 35.1399L17.6944 35.1399C17.6032 34.919 17.7084 34.6658 17.9294 34.5746L17.9294 34.5746C18.1504 34.4834 18.4035 34.5885 18.4947 34.8095Z" fill="#000000" fill-rule="nonzero" opacity="1" stroke="none"/>
</g>
<g fill="#20018c" filter="url(#Filter)" stroke="#fefefe" stroke-linecap="butt" stroke-linejoin="round" stroke-width="0.1">
<path d="M16.5069 28.8312C16.5382 28.8443 16.5682 28.8451 16.5967 28.8335C16.6253 28.822 16.6617 28.776 16.706 28.6955L16.7867 28.7291L16.2115 30.0985L16.1308 30.0649C16.1572 29.977 16.1645 29.9188 16.1527 29.8905C16.141 29.8621 16.1194 29.8414 16.088 29.8284L14.8446 29.3102L14.1186 31.0386L15.362 31.5567C15.3933 31.5698 15.4233 31.5706 15.4518 31.559C15.4804 31.5475 15.5168 31.5015 15.5611 31.421L15.6418 31.4546L15.0666 32.824L14.9859 32.7904C15.0123 32.7025 15.0196 32.6443 15.0078 32.616C14.9961 32.5876 14.9745 32.5669 14.9431 32.5539L11.8111 31.2487C11.7797 31.2356 11.7497 31.2349 11.7212 31.2464C11.6927 31.258 11.6562 31.304 11.6119 31.3844L11.5312 31.3508L12.1065 29.9814L12.1871 30.015C12.1607 30.103 12.1534 30.1611 12.1652 30.1895C12.177 30.2178 12.1986 30.2385 12.2299 30.2516L13.2986 30.6969L14.0246 28.9685L12.956 28.5232C12.9246 28.5101 12.8946 28.5094 12.8661 28.5209C12.8376 28.5325 12.8011 28.5785 12.7568 28.6589L12.6761 28.6253L13.2514 27.2559L13.332 27.2895C13.3056 27.3775 13.2983 27.4356 13.3101 27.464C13.3219 27.4923 13.3434 27.513 13.3748 27.5261L16.5069 28.8312Z"/>
<path d="M14.8722 26.0254C14.8401 26.0902 14.8201 26.1439 14.8122 26.1864C14.8042 26.229 14.8234 26.2636 14.8697 26.2902L17.2672 27.6685C17.3135 27.6951 17.3532 27.6943 17.3864 27.6662C17.4196 27.6382 17.4564 27.5942 17.4969 27.5342L17.5726 27.5777L16.8542 28.8123L16.7785 28.7688C16.8106 28.704 16.8306 28.6504 16.8385 28.6078C16.8465 28.5652 16.8273 28.5306 16.7811 28.504L14.3835 27.1257C14.3372 27.0992 14.2975 27.0999 14.2643 27.128C14.2311 27.1561 14.1943 27.2001 14.1538 27.26L14.0781 27.2165L14.7965 25.9819L14.8722 26.0254Z"/>
<path d="M15.4973 25.2499C15.4546 25.218 15.4158 25.213 15.3808 25.2349C15.3459 25.2569 15.3105 25.2875 15.2746 25.3268L15.2047 25.2745L16.0211 24.1992L16.091 24.2515C16.0628 24.2965 16.0437 24.3378 16.0335 24.3753C16.0233 24.4127 16.0396 24.4474 16.0823 24.4794L17.8759 25.8209L19.0721 24.2453C19.0895 24.2223 19.0983 24.1928 19.0983 24.1567C19.0983 24.1206 19.0672 24.0794 19.0051 24.0329L19.0575 23.9639L19.9252 24.6129L19.8728 24.6819C19.8107 24.6354 19.7651 24.6193 19.7359 24.6336C19.7068 24.6479 19.6835 24.6666 19.6661 24.6896L17.7671 27.1909L17.6972 27.1386C17.7253 27.0935 17.7452 27.0513 17.7568 27.0119C17.7685 26.9726 17.7529 26.9369 17.7102 26.905L15.4973 25.2499Z"/>
<path d="M19.2481 21.6286C19.1511 21.7224 19.0737 21.8258 19.0159 21.9388C18.9581 22.0519 18.9226 22.1669 18.9093 22.2841C18.8961 22.4012 18.9086 22.5153 18.947 22.6264C18.9853 22.7375 19.0519 22.8414 19.147 22.938C19.2421 23.0347 19.3452 23.1034 19.4563 23.1442C19.5674 23.185 19.6822 23.2003 19.8006 23.1902C19.9191 23.1801 20.0361 23.1479 20.1516 23.0935C20.2671 23.0392 20.3734 22.9651 20.4705 22.8713C20.571 22.7743 20.6493 22.67 20.7053 22.5587C20.7614 22.4473 20.796 22.333 20.8093 22.2159C20.8225 22.0988 20.81 21.9847 20.7717 21.8736C20.7334 21.7625 20.6667 21.6586 20.5716 21.5619C20.4765 21.4653 20.3734 21.3966 20.2623 21.3558C20.1512 21.315 20.0365 21.2996 19.918 21.3098C19.7995 21.3199 19.6834 21.3513 19.5696 21.4039C19.4558 21.4566 19.3486 21.5315 19.2481 21.6286ZM18.7082 21.0797C18.8712 20.9224 19.057 20.7866 19.2658 20.6725C19.4746 20.5583 19.6924 20.4842 19.9192 20.4503C20.146 20.4163 20.374 20.4334 20.6032 20.5014C20.8324 20.5695 21.0471 20.7054 21.2475 20.9091C21.4512 21.1162 21.5836 21.3333 21.6447 21.5603C21.7059 21.7874 21.7155 22.012 21.6738 22.2341C21.632 22.4562 21.5492 22.6675 21.4253 22.868C21.3014 23.0684 21.158 23.2473 20.9951 23.4047C20.8322 23.562 20.648 23.6995 20.4426 23.8171C20.2373 23.9348 20.022 24.0114 19.7969 24.0471C19.5718 24.0828 19.3454 24.0675 19.118 24.0011C18.8905 23.9348 18.6749 23.798 18.4711 23.5909C18.2708 23.3872 18.1392 23.171 18.0764 22.9422C18.0136 22.7134 18.0022 22.4871 18.0423 22.2633C18.0824 22.0394 18.1626 21.8256 18.2831 21.6217C18.4036 21.4177 18.5453 21.2371 18.7082 21.0797Z"/>
<path d="M20.6868 19.643C20.6555 19.6 20.6199 19.5838 20.5799 19.5944C20.5399 19.6051 20.491 19.628 20.4331 19.6633L20.3819 19.5929L22.9479 17.7675C22.9715 17.7507 22.9894 17.7261 23.0016 17.6937C23.0139 17.6612 23.0001 17.6176 22.9603 17.5629L23.0311 17.5125L23.6194 18.3222L23.5486 18.3726C23.506 18.3139 23.4665 18.2842 23.4301 18.2833C23.3937 18.2825 23.3637 18.2905 23.3401 18.3073L21.7416 19.4445L22.138 19.9901L23.2175 19.2222C23.2411 19.2054 23.259 19.1808 23.2713 19.1484C23.2835 19.116 23.2697 19.0724 23.2299 19.0176L23.3007 18.9673L23.872 19.7535L23.8012 19.8038C23.7586 19.7452 23.7191 19.7154 23.6827 19.7146C23.6463 19.7138 23.6163 19.7218 23.5927 19.7386L22.5132 20.5065L23.0973 21.3103C23.1286 21.3533 23.1642 21.3695 23.2042 21.3589C23.2442 21.3482 23.2892 21.3281 23.3392 21.2984L23.3904 21.3688L22.2696 22.1661L22.2184 22.0957C22.2628 22.0582 22.2964 22.0224 22.3193 21.9883C22.3423 21.9542 22.3381 21.9156 22.3068 21.8726L20.6868 19.643Z"/>
<path d="M23.7749 17.5161C23.751 17.4687 23.7174 17.4476 23.674 17.4528C23.6306 17.458 23.5818 17.4713 23.5276 17.4926L23.4884 17.415L24.6596 16.839L24.6988 16.9166C24.6792 16.9316 24.6597 16.9519 24.6402 16.9777C24.6207 17.0034 24.6229 17.04 24.6468 17.0874L25.4393 18.6583C25.5219 18.8221 25.6408 18.9102 25.7959 18.9227C25.9511 18.9351 26.1263 18.8933 26.3215 18.7973C26.5167 18.7013 26.656 18.5885 26.7394 18.4587C26.8228 18.3289 26.8232 18.1821 26.7406 18.0183L25.9482 16.4474C25.9243 16.4 25.896 16.3762 25.8635 16.3761C25.8309 16.3759 25.8027 16.3791 25.7789 16.3854L25.7397 16.3078L26.9109 15.7318L26.9501 15.8094C26.9002 15.8393 26.8601 15.8698 26.8297 15.9009C26.7994 15.9319 26.7962 15.9712 26.8201 16.0186L27.5375 17.4409C27.6245 17.6133 27.6805 17.7888 27.7056 17.9674C27.7308 18.146 27.7136 18.3212 27.6541 18.493C27.5946 18.6648 27.483 18.8299 27.3193 18.9884C27.1556 19.1469 26.9306 19.2966 26.6443 19.4374C26.358 19.5782 26.1015 19.6653 25.8748 19.6988C25.6481 19.7323 25.4473 19.7208 25.2726 19.6642C25.0979 19.6075 24.9459 19.5155 24.8167 19.3881C24.6874 19.2607 24.5793 19.1108 24.4924 18.9384L23.7749 17.5161Z"/>
<path d="M29.2857 18.0568C29.3008 18.1076 29.329 18.1346 29.3703 18.1378C29.4117 18.141 29.4609 18.1369 29.5182 18.1255L29.5428 18.2086L28.4466 18.5229L28.422 18.4397C28.4578 18.4244 28.4912 18.4049 28.522 18.381C28.5528 18.3571 28.5606 18.3198 28.5456 18.269L27.7649 15.6355C27.7498 15.5847 27.7228 15.5573 27.6838 15.5535C27.6447 15.5496 27.6059 15.5507 27.5673 15.5568L27.5427 15.4736L29.0578 15.0393L29.0825 15.1224C29.0466 15.1377 29.0165 15.1513 28.9923 15.1633C28.9681 15.1753 28.9594 15.1928 28.9662 15.2159C28.9717 15.2344 29.0183 15.2937 29.1061 15.3938C29.1939 15.494 29.2932 15.6034 29.4041 15.722C29.515 15.8406 29.6189 15.9524 29.7157 16.0575C29.8125 16.1626 29.8734 16.2316 29.8983 16.2645C29.9213 16.1376 29.9493 15.998 29.9825 15.8457C30.0156 15.6933 30.0461 15.5492 30.074 15.4134C30.1019 15.2775 30.1238 15.1597 30.1397 15.0599C30.1555 14.9602 30.1601 14.8987 30.1532 14.8756C30.1464 14.8525 30.1294 14.8423 30.1025 14.845C30.0755 14.8478 30.0427 14.8521 30.0041 14.8582L29.9795 14.775L31.5016 14.3387L31.5262 14.4218C31.495 14.4358 31.4652 14.4544 31.4367 14.4776C31.4082 14.5008 31.4015 14.5378 31.4166 14.5886L32.1973 17.2221C32.2123 17.2729 32.2382 17.3006 32.2749 17.3051C32.3116 17.3096 32.3469 17.3095 32.3809 17.3048L32.4055 17.3879L31.2395 17.7222L31.2148 17.6391C31.2647 17.6198 31.305 17.5982 31.3358 17.5743C31.3666 17.5504 31.3745 17.5131 31.3594 17.4623L30.7759 15.4941L30.762 15.4981L30.3154 17.7992L28.7162 16.0846L28.7022 16.0886L29.2857 18.0568Z"/>
<path d="M33.3554 14.1914C33.2844 14.2075 33.2297 14.2258 33.1914 14.2465C33.153 14.2672 33.1382 14.3036 33.1468 14.3559L33.5947 17.063C33.6033 17.1152 33.6291 17.1453 33.6722 17.1531C33.7153 17.1609 33.7731 17.1615 33.8457 17.155L33.8598 17.2405L32.4378 17.4647L32.4236 17.3792C32.4947 17.3632 32.5494 17.3448 32.5877 17.3241C32.626 17.3034 32.6409 17.267 32.6323 17.2148L32.1844 14.5076C32.1758 14.4554 32.1499 14.4253 32.1069 14.4175C32.0638 14.4097 32.006 14.4091 31.9334 14.4156L31.9192 14.3302L33.3413 14.1059L33.3554 14.1914Z"/>
<path d="M40.9332 13.5442L40.9265 13.6305C40.8878 13.6274 40.8542 13.6379 40.8255 13.6621C40.7969 13.6863 40.7691 13.7142 40.7423 13.7458L39.1978 15.581L39.089 16.983C39.0864 17.0165 39.0952 17.045 39.1153 17.0683C39.1354 17.0916 39.191 17.1118 39.2822 17.1289L39.2755 17.2151L37.7806 17.0938L37.7873 17.0076C37.8799 17.0054 37.938 16.9945 37.9614 16.9747C37.9849 16.9549 37.9979 16.9282 38.0005 16.8946L38.0987 15.6293L36.8656 13.5469C36.7967 13.4304 36.7512 13.358 36.7291 13.3297C36.7069 13.3014 36.6789 13.2858 36.6451 13.2831L36.6518 13.1968L38.2482 13.3263L38.2415 13.4126C38.198 13.4091 38.1565 13.4105 38.1171 13.417C38.0776 13.4234 38.0564 13.4458 38.0534 13.4842C38.0519 13.5033 38.0789 13.5634 38.1344 13.6644C38.1898 13.7653 38.2551 13.8816 38.33 14.013C38.405 14.1445 38.4835 14.2787 38.5653 14.4156C38.6472 14.5524 38.7136 14.6688 38.7646 14.7645C38.781 14.7418 38.8159 14.7 38.8693 14.6392C38.9227 14.5784 38.983 14.5073 39.0501 14.426C39.1173 14.3446 39.1897 14.2588 39.2673 14.1687C39.3449 14.0785 39.4146 13.9949 39.4766 13.918C39.5386 13.841 39.5912 13.7741 39.6346 13.7174C39.6779 13.6606 39.7 13.6274 39.7007 13.6178C39.7037 13.5795 39.6874 13.5541 39.6519 13.5415C39.6163 13.529 39.5816 13.5214 39.5478 13.5186L39.5545 13.4323L40.9332 13.5442Z"/>
<path d="M43.1832 17.9255C43.1973 17.9291 43.2168 17.9316 43.2415 17.933C43.2662 17.9343 43.2827 17.9187 43.2911 17.8861C43.2958 17.8675 43.295 17.8363 43.2887 17.7925C43.2824 17.7487 43.2746 17.7008 43.2654 17.6489C43.2561 17.5969 43.2457 17.5446 43.2341 17.492C43.2226 17.4394 43.2139 17.395 43.2081 17.3588L41.5714 16.9394C41.5536 16.9696 41.5282 17.0052 41.4951 17.0463C41.462 17.0875 41.4278 17.1283 41.3923 17.1688C41.3569 17.2094 41.3247 17.247 41.2957 17.2817C41.2668 17.3165 41.2499 17.3432 41.2452 17.3618C41.2368 17.3944 41.2438 17.416 41.2661 17.4267C41.2884 17.4374 41.3067 17.4445 41.3208 17.4482L41.2993 17.532L40.2411 17.2608L40.2625 17.177C40.2908 17.1842 40.3205 17.1856 40.3517 17.1812C40.3829 17.1768 40.4062 17.1641 40.4215 17.1433C40.6461 16.8536 40.8722 16.5679 41.0997 16.2864C41.3272 16.0049 41.5316 15.7497 41.7131 15.5208C41.8945 15.292 42.0446 15.1022 42.1634 14.9516C42.2822 14.8009 42.3445 14.714 42.3505 14.6907C42.3612 14.6488 42.3366 14.6177 42.2767 14.5974L42.2981 14.5136L43.7726 14.8915L43.7511 14.9753C43.6888 14.9642 43.6523 14.9797 43.6415 15.0216C43.638 15.0355 43.6468 15.1036 43.6682 15.2256C43.6896 15.3477 43.719 15.5016 43.7566 15.6874C43.7943 15.8731 43.8356 16.0784 43.8808 16.3033C43.9259 16.5282 43.971 16.7531 44.0161 16.978C44.0613 17.2029 44.1032 17.4158 44.1419 17.6168C44.1807 17.8177 44.2104 17.9853 44.2311 18.1196C44.2346 18.1453 44.2489 18.1676 44.2742 18.1864C44.2994 18.2053 44.3261 18.2184 44.3543 18.2256L44.3329 18.3094L43.1618 18.0093L43.1832 17.9255ZM42.8176 15.4206L41.926 16.4944L43.0971 16.7946L42.8176 15.4206Z"/>
<path d="M45.2191 18.4847C45.1969 18.5327 45.2005 18.5714 45.2298 18.6006C45.259 18.6299 45.2992 18.6588 45.3501 18.6873L45.3139 18.7659L44.2743 18.2906L44.3106 18.2121C44.3479 18.2238 44.3861 18.2308 44.4253 18.2328C44.4644 18.2348 44.4951 18.2118 44.5172 18.1638L45.6654 15.6758C45.6876 15.6278 45.6851 15.5897 45.6581 15.5614C45.631 15.5332 45.6008 15.5088 45.5675 15.4883L45.6038 15.4097L47.0406 16.0667L47.0043 16.1452C46.967 16.1335 46.9352 16.1242 46.9089 16.1175C46.8826 16.1107 46.8644 16.1183 46.8544 16.1401C46.8463 16.1576 46.8425 16.2325 46.8429 16.3648C46.8433 16.4971 46.8464 16.6439 46.8522 16.8051C46.858 16.9663 46.8628 17.1179 46.8668 17.2598C46.8709 17.4017 46.8714 17.4932 46.8685 17.5341C46.9699 17.4536 47.0834 17.3668 47.2093 17.2737C47.3351 17.1805 47.4535 17.0919 47.5644 17.0079C47.6754 16.9238 47.7699 16.8494 47.8479 16.7846C47.9259 16.7199 47.9699 16.6766 47.98 16.6547C47.9901 16.6329 47.984 16.6143 47.9617 16.5988C47.9394 16.5833 47.9117 16.5653 47.8784 16.5448L47.9146 16.4663L49.3581 17.1262L49.3218 17.2048C49.2889 17.195 49.254 17.1896 49.217 17.1886C49.1801 17.1876 49.1505 17.2111 49.1284 17.2591L47.9802 19.7471C47.958 19.7951 47.9594 19.8328 47.9842 19.86C48.0091 19.8872 48.036 19.9101 48.0649 19.9285L48.0286 20.0071L46.9228 19.5016L46.9591 19.423C47.0097 19.4408 47.0545 19.4508 47.0937 19.4528C47.1328 19.4548 47.1635 19.4319 47.1856 19.3838L48.0437 17.5244L48.0305 17.5183L46.1707 18.9595L46.0905 16.6313L46.0772 16.6252L45.2191 18.4847Z"/>
<path d="M50.4025 21.5499C50.4144 21.5581 50.4318 21.5672 50.4545 21.577C50.4772 21.5868 50.4982 21.5779 50.5175 21.5503C50.5286 21.5346 50.5388 21.5051 50.5483 21.462C50.5578 21.4188 50.5673 21.3713 50.5769 21.3195C50.5865 21.2677 50.5951 21.2152 50.6028 21.162C50.6104 21.1088 50.6179 21.0643 50.6252 21.0284L49.2359 20.0704C49.2086 20.0924 49.1722 20.117 49.1267 20.1441C49.0811 20.1711 49.0346 20.1975 48.987 20.2231C48.9395 20.2488 48.896 20.2729 48.8566 20.2954C48.8172 20.3179 48.792 20.337 48.781 20.3528C48.7616 20.3804 48.7606 20.403 48.7778 20.4207C48.795 20.4385 48.8096 20.4514 48.8216 20.4597L48.7719 20.5307L47.8737 19.9112L47.9233 19.8403C47.9473 19.8568 47.9747 19.8684 48.0055 19.875C48.0364 19.8817 48.0627 19.8779 48.0845 19.8637C48.3973 19.6703 48.71 19.4812 49.0227 19.2965C49.3354 19.1117 49.6171 18.9436 49.868 18.7922C50.1189 18.6409 50.3266 18.5152 50.4911 18.4154C50.6556 18.3155 50.7448 18.2557 50.7586 18.236C50.7834 18.2005 50.7712 18.1629 50.7221 18.1231L50.7717 18.0522L52.0233 18.9152L51.9736 18.9862C51.919 18.9544 51.8793 18.9562 51.8544 18.9917C51.8462 19.0035 51.8306 19.0702 51.8077 19.1918C51.7848 19.3133 51.7583 19.4675 51.7283 19.6543C51.6983 19.8411 51.6649 20.0474 51.6281 20.2734C51.5914 20.4994 51.5546 20.7254 51.5179 20.9514C51.4811 21.1774 51.4456 21.391 51.4113 21.5924C51.377 21.7938 51.3459 21.9608 51.3181 22.0936C51.3123 22.1189 51.3179 22.1447 51.335 22.171C51.352 22.1974 51.3726 22.2189 51.3965 22.2354L51.3469 22.3064L50.3528 21.6209L50.4025 21.5499ZM50.9403 19.0802L49.7254 19.7767L50.7194 20.4621L50.9403 19.0802Z"/>
<path d="M52.1168 22.7767C52.079 22.814 52.0687 22.8513 52.0859 22.8888C52.103 22.9263 52.1305 22.9672 52.1682 23.0116L52.1064 23.0725L51.2985 22.2677L51.3603 22.2068C51.3912 22.2307 51.4246 22.2504 51.4606 22.2659C51.4967 22.2814 51.5335 22.2705 51.5713 22.2333L53.5271 20.3049C53.5649 20.2677 53.576 20.2312 53.5606 20.1954C53.5452 20.1597 53.5254 20.1264 53.5014 20.0957L53.5632 20.0348L54.6798 21.1472L54.6181 21.2081C54.5872 21.1842 54.5606 21.1645 54.5383 21.1491C54.516 21.1337 54.4963 21.1344 54.4791 21.1513C54.4654 21.1649 54.4354 21.2336 54.3891 21.3575C54.3427 21.4813 54.2938 21.6197 54.2423 21.7724C54.1909 21.9252 54.142 22.0686 54.0956 22.2027C54.0493 22.3368 54.0175 22.4225 54.0004 22.4598C54.1239 22.4196 54.2611 22.3778 54.4121 22.3343C54.5631 22.2909 54.7055 22.2491 54.8393 22.209C54.9731 22.1689 55.088 22.132 55.1841 22.0985C55.2802 22.065 55.3368 22.0398 55.3539 22.0228C55.3711 22.0059 55.372 21.9864 55.3565 21.9642C55.3411 21.942 55.3214 21.9156 55.2973 21.8848L55.3591 21.824L56.4809 22.9415L56.4192 23.0024C56.3917 22.9819 56.3608 22.9647 56.3265 22.951C56.2922 22.9372 56.2562 22.9489 56.2184 22.9861L54.2626 24.9145C54.2249 24.9517 54.2129 24.9874 54.2266 25.0214C54.2403 25.0555 54.2574 25.0862 54.278 25.1135L54.2163 25.1744L53.3569 24.3183L53.4187 24.2574C53.4598 24.2916 53.4984 24.3164 53.5344 24.3319C53.5705 24.3474 53.6074 24.3365 53.6451 24.2993L55.1068 22.8581L55.0965 22.8479L52.8423 23.5506L53.5888 21.3458L53.5785 21.3355L52.1168 22.7767Z"/>
<path d="M57.2159 25.1895C57.1373 25.0793 57.0462 24.9867 56.9424 24.9117C56.8386 24.8367 56.7294 24.7832 56.6147 24.7512C56.5001 24.7191 56.3845 24.7128 56.2679 24.7322C56.1514 24.7516 56.0377 24.7999 55.9268 24.8772C55.8159 24.9545 55.7317 25.0442 55.674 25.1462C55.6164 25.2483 55.5835 25.3582 55.5755 25.4758C55.5674 25.5934 55.5816 25.7131 55.618 25.835C55.6545 25.9569 55.712 26.073 55.7906 26.1833C55.8719 26.2975 55.9638 26.3911 56.0661 26.4641C56.1685 26.5371 56.277 26.5896 56.3917 26.6217C56.5063 26.6537 56.622 26.66 56.7385 26.6406C56.8551 26.6213 56.9688 26.5729 57.0796 26.4956C57.1905 26.4183 57.2747 26.3287 57.3324 26.2266C57.39 26.1245 57.4229 26.0147 57.431 25.8971C57.439 25.7795 57.4256 25.6607 57.3905 25.5407C57.3554 25.4208 57.2972 25.3037 57.2159 25.1895ZM57.8454 24.7506C57.9772 24.9357 58.084 25.1397 58.1658 25.3626C58.2475 25.5856 58.288 25.8108 58.2871 26.0383C58.2862 26.2658 58.2343 26.4862 58.1314 26.6994C58.0284 26.9126 57.8602 27.1006 57.6266 27.2635C57.389 27.4291 57.1525 27.5234 56.9169 27.5462C56.6813 27.569 56.4561 27.5418 56.2412 27.4648C56.0263 27.3877 55.8285 27.2722 55.6477 27.1183C55.467 26.9643 55.3107 26.7948 55.1789 26.6098C55.047 26.4247 54.9382 26.2221 54.8525 26.0019C54.7668 25.7817 54.7234 25.5586 54.7223 25.3324C54.7212 25.1063 54.7711 24.8873 54.8721 24.6755C54.973 24.4637 55.1423 24.2749 55.3798 24.1093C55.6134 23.9464 55.849 23.8529 56.0866 23.8287C56.3241 23.8045 56.5514 23.8303 56.7682 23.906C56.9851 23.9817 57.1859 24.0951 57.3706 24.2463C57.5553 24.3974 57.7136 24.5656 57.8454 24.7506Z"/>
<path d="M60.4698 29.3841C60.4829 29.41 60.5047 29.4315 60.5352 29.4487C60.5656 29.4659 60.6112 29.4595 60.6718 29.4295L60.7112 29.5069L59.7627 29.9771L59.7233 29.8997C59.784 29.8696 59.8164 29.8374 59.8206 29.803C59.8248 29.7686 59.8203 29.7385 59.8072 29.7127L59.3379 28.7897L57.337 29.7816C57.2894 29.8053 57.2673 29.8364 57.2707 29.8751C57.2741 29.9139 57.2824 29.9515 57.2956 29.9881L57.2176 30.0267L56.6269 28.8649L56.7048 28.8263C56.7267 28.8585 56.7523 28.8876 56.7817 28.9134C56.8111 28.9392 56.8496 28.9404 56.8973 28.9167L58.8981 27.9247L58.4287 27.0017C58.4156 26.9759 58.3938 26.9544 58.3634 26.9372C58.3329 26.9199 58.2874 26.9264 58.2268 26.9564L58.1874 26.879L59.1358 26.4087L59.1752 26.4862C59.1146 26.5163 59.0821 26.5485 59.078 26.5829C59.0738 26.6173 59.0782 26.6474 59.0914 26.6732L60.4698 29.3841Z"/>
<path d="M60.5861 31.8524C60.5445 31.724 60.4854 31.6087 60.409 31.5064C60.3326 31.4041 60.2445 31.3206 60.1446 31.256C60.0448 31.1914 59.9363 31.1509 59.819 31.1347C59.7018 31.1185 59.5785 31.1307 59.4492 31.1713C59.3199 31.2119 59.2122 31.2722 59.1262 31.3523C59.0402 31.4324 58.9755 31.5272 58.9322 31.6368C58.8889 31.7464 58.8661 31.8647 58.864 31.9916C58.862 32.1186 58.8817 32.2462 58.9233 32.3746C58.9665 32.5076 59.0259 32.6241 59.1015 32.7241C59.1772 32.8241 59.265 32.9064 59.3648 32.971C59.4647 33.0356 59.5732 33.0761 59.6904 33.0923C59.8076 33.1085 59.9309 33.0963 60.0602 33.0557C60.1896 33.0151 60.2972 32.9548 60.3832 32.8747C60.4692 32.7946 60.5339 32.6998 60.5772 32.5902C60.6206 32.4806 60.6437 32.3635 60.6465 32.2388C60.6493 32.1142 60.6292 31.9853 60.5861 31.8524ZM61.3205 31.6217C61.3903 31.8372 61.4306 32.0633 61.4411 32.2999C61.4517 32.5366 61.4221 32.7631 61.3523 32.9795C61.2826 33.1959 61.1662 33.3904 61.0033 33.5628C60.8404 33.7352 60.6226 33.8642 60.3501 33.9498C60.073 34.0368 59.8185 34.0561 59.5865 34.0078C59.3545 33.9594 59.1476 33.8665 58.9656 33.7292C58.7837 33.5918 58.6297 33.4229 58.5036 33.2226C58.3776 33.0222 58.2796 32.8142 58.2098 32.5987C58.1399 32.3833 58.0973 32.1579 58.0822 31.9227C58.067 31.6875 58.0931 31.4621 58.1606 31.2464C58.228 31.0307 58.3421 30.837 58.5027 30.6653C58.6633 30.4936 58.8822 30.3643 59.1593 30.2772C59.4318 30.1916 59.6852 30.1727 59.9195 30.2203C60.1538 30.268 60.363 30.3601 60.5473 30.4968C60.7316 30.6334 60.889 30.8012 61.0197 31.0001C61.1503 31.199 61.2506 31.4062 61.3205 31.6217Z"/>
</g>
<g fill="#23048c" opacity="0" stroke="#fefefe" stroke-linecap="butt" stroke-linejoin="round" stroke-width="0.0987693">
<path d="M38.9966 35.8261L38.9966 33.029L39.6366 33.029L39.6366 35.2414L40.3833 35.2414L40.3833 35.8261L38.9966 35.8261Z"/>
<path d="M40.6519 35.8261L40.6519 33.7599L41.2761 33.7599L41.2761 35.8261L40.6519 35.8261ZM41.3038 33.1988C41.3038 33.2989 41.2722 33.3839 41.209 33.4537C41.1458 33.5235 41.0641 33.5584 40.964 33.5584C40.864 33.5584 40.7823 33.5235 40.7191 33.4537C40.6559 33.3839 40.6243 33.2989 40.6243 33.1988C40.6243 33.1488 40.6328 33.102 40.65 33.0586C40.6671 33.0151 40.6901 32.9769 40.7191 32.944C40.7481 32.9111 40.7836 32.8848 40.8258 32.865C40.8679 32.8452 40.914 32.8354 40.964 32.8354C41.0141 32.8354 41.0602 32.8452 41.1023 32.865C41.1445 32.8848 41.18 32.9111 41.209 32.944C41.238 32.9769 41.261 33.0151 41.2781 33.0586C41.2952 33.102 41.3038 33.1488 41.3038 33.1988Z"/>
<path d="M42.3587 33.7599L42.3587 34.0522L42.3666 34.0522C42.4008 33.9521 42.4614 33.8659 42.5483 33.7934C42.6352 33.721 42.7432 33.6848 42.8723 33.6848C42.9908 33.6848 43.0856 33.7092 43.1567 33.7579C43.2278 33.8066 43.2831 33.8718 43.3227 33.9534C43.3622 34.0351 43.3885 34.1286 43.4017 34.2339C43.4148 34.3393 43.4214 34.4486 43.4214 34.5619L43.4214 35.8261L42.8011 35.8261L42.8011 34.5579C42.8011 34.471 42.7886 34.3946 42.7636 34.3288C42.7386 34.2629 42.6892 34.23 42.6155 34.23C42.5391 34.23 42.4798 34.2649 42.4377 34.3347C42.3955 34.4045 42.3745 34.496 42.3745 34.6093L42.3745 35.8261L41.7542 35.8261L41.7542 33.7599L42.3587 33.7599Z"/>
<path d="M45.4798 33.7599L45.4798 35.6799C45.4798 36.0329 45.406 36.3035 45.2585 36.4918C45.111 36.6801 44.8766 36.7743 44.5553 36.7743C44.4104 36.7743 44.2695 36.7486 44.1326 36.6973C43.9956 36.6459 43.8823 36.582 43.7928 36.5056L44.0812 36.0474C44.1418 36.1 44.2083 36.1435 44.2807 36.1777C44.3531 36.212 44.4315 36.2291 44.5158 36.2291C44.6448 36.2291 44.7377 36.1843 44.7943 36.0948C44.8509 36.0052 44.8793 35.8933 44.8793 35.7589L44.8793 35.5891L44.8714 35.5891C44.8424 35.6575 44.7897 35.7188 44.7133 35.7728C44.6369 35.8268 44.5487 35.8538 44.4486 35.8538C44.3354 35.8538 44.2359 35.8268 44.1503 35.7728C44.0647 35.7188 43.993 35.6437 43.935 35.5476C43.8771 35.4514 43.8336 35.3382 43.8046 35.2078C43.7757 35.0774 43.7612 34.9372 43.7612 34.7871C43.7612 34.629 43.7763 34.4835 43.8066 34.3505C43.8369 34.2175 43.8817 34.1029 43.9409 34.0068C44.0002 33.9106 44.072 33.8349 44.1563 33.7796C44.2405 33.7243 44.338 33.6966 44.4486 33.6966C44.5671 33.6966 44.66 33.7256 44.7271 33.7836C44.7943 33.8415 44.8437 33.9153 44.8753 34.0048L44.8872 34.0048L44.8872 33.7599L45.4798 33.7599ZM44.899 34.791C44.899 34.712 44.8937 34.6389 44.8832 34.5717C44.8727 34.5046 44.8562 34.4453 44.8338 34.394C44.8114 34.3426 44.7838 34.3024 44.7509 34.2735C44.7179 34.2445 44.6791 34.23 44.6343 34.23C44.5869 34.23 44.5467 34.2445 44.5138 34.2735C44.4809 34.3024 44.4539 34.3426 44.4328 34.394C44.4117 34.4453 44.3959 34.5046 44.3854 34.5717C44.3749 34.6389 44.3696 34.712 44.3696 34.791C44.3696 34.8674 44.3749 34.9398 44.3854 35.0083C44.3959 35.0768 44.4117 35.1367 44.4328 35.1881C44.4539 35.2394 44.4809 35.2796 44.5138 35.3086C44.5467 35.3375 44.5869 35.352 44.6343 35.352C44.6791 35.352 44.7179 35.3375 44.7509 35.3086C44.7838 35.2796 44.8114 35.2394 44.8338 35.1881C44.8562 35.1367 44.8727 35.0768 44.8832 35.0083C44.8937 34.9398 44.899 34.8674 44.899 34.791Z"/>
<path d="M47.0087 35.8261L47.0087 35.5338L47.0008 35.5338C46.9666 35.6338 46.906 35.7201 46.8191 35.7925C46.7322 35.865 46.6242 35.9012 46.4951 35.9012C46.3766 35.9012 46.2818 35.8768 46.2107 35.8281C46.1396 35.7794 46.0842 35.7142 46.0447 35.6325C46.0052 35.5509 45.9789 35.4574 45.9657 35.352C45.9525 35.2467 45.946 35.1374 45.946 35.0241L45.946 33.7599L46.5662 33.7599L46.5662 35.0241C46.5662 35.0689 46.5689 35.111 46.5741 35.1505C46.5794 35.19 46.5886 35.2243 46.6018 35.2532C46.615 35.2822 46.6341 35.3059 46.6591 35.3244C46.6841 35.3428 46.715 35.352 46.7519 35.352C46.8283 35.352 46.8876 35.3171 46.9297 35.2473C46.9718 35.1775 46.9929 35.086 46.9929 34.9727L46.9929 33.7599L47.6132 33.7599L47.6132 35.8261L47.0087 35.8261Z"/>
<path d="M48.0912 35.8261L48.0912 33.7599L48.7155 33.7599L48.7155 35.8261L48.0912 35.8261ZM48.7431 33.1988C48.7431 33.2989 48.7115 33.3839 48.6483 33.4537C48.5851 33.5235 48.5034 33.5584 48.4033 33.5584C48.3033 33.5584 48.2216 33.5235 48.1584 33.4537C48.0952 33.3839 48.0636 33.2989 48.0636 33.1988C48.0636 33.1488 48.0721 33.102 48.0893 33.0586C48.1064 33.0151 48.1294 32.9769 48.1584 32.944C48.1874 32.9111 48.2229 32.8848 48.2651 32.865C48.3072 32.8452 48.3533 32.8354 48.4033 32.8354C48.4534 32.8354 48.4995 32.8452 48.5416 32.865C48.5838 32.8848 48.6193 32.9111 48.6483 32.944C48.6773 32.9769 48.7003 33.0151 48.7174 33.0586C48.7345 33.102 48.7431 33.1488 48.7431 33.1988Z"/>
<path d="M50.1614 34.3406C50.114 34.2932 50.0627 34.255 50.0074 34.226C49.952 34.1971 49.8915 34.1826 49.8256 34.1826C49.7756 34.1826 49.7328 34.1984 49.6972 34.23C49.6617 34.2616 49.6439 34.3051 49.6439 34.3604C49.6439 34.413 49.663 34.4519 49.7012 34.4769C49.7394 34.5019 49.8111 34.5303 49.9165 34.5619C49.9771 34.5803 50.0376 34.6053 50.0982 34.6369C50.1588 34.6685 50.2128 34.7094 50.2602 34.7594C50.3076 34.8094 50.3465 34.8694 50.3768 34.9392C50.407 35.009 50.4222 35.0913 50.4222 35.1861C50.4222 35.3125 50.3998 35.4205 50.355 35.51C50.3102 35.5996 50.2536 35.672 50.1851 35.7273C50.1167 35.7826 50.0396 35.8235 49.954 35.8498C49.8684 35.8762 49.7861 35.8893 49.7071 35.8893C49.5701 35.8893 49.4378 35.8643 49.31 35.8143C49.1823 35.7642 49.0723 35.6944 48.9802 35.6049L49.2883 35.2098C49.3436 35.2677 49.4035 35.3151 49.4681 35.352C49.5326 35.3889 49.6031 35.4073 49.6794 35.4073C49.7374 35.4073 49.7828 35.3902 49.8157 35.356C49.8487 35.3217 49.8651 35.277 49.8651 35.2216C49.8651 35.1558 49.8388 35.1077 49.7861 35.0774C49.7334 35.0471 49.6544 35.0149 49.5491 34.9806C49.4938 34.9622 49.4384 34.9392 49.3831 34.9115C49.3278 34.8838 49.2784 34.8463 49.235 34.7989C49.1915 34.7515 49.156 34.6942 49.1283 34.627C49.1007 34.5599 49.0868 34.4776 49.0868 34.3801C49.0868 34.2642 49.1079 34.1635 49.15 34.0779C49.1922 33.9923 49.2468 33.9212 49.314 33.8645C49.3812 33.8079 49.4562 33.7658 49.5392 33.7381C49.6222 33.7105 49.7058 33.6966 49.7901 33.6966C49.9165 33.6966 50.0376 33.719 50.1535 33.7638C50.2694 33.8086 50.3721 33.8705 50.4617 33.9495L50.1614 34.3406Z"/>
<path d="M51.7338 35.8103C51.6996 35.8287 51.6509 35.8445 51.5877 35.8577C51.5245 35.8709 51.4612 35.8775 51.398 35.8775C51.19 35.8775 51.0385 35.8215 50.9437 35.7096C50.8489 35.5976 50.8015 35.4297 50.8015 35.2058L50.8015 34.2418L50.5526 34.2418L50.5526 33.7599L50.7975 33.7599L50.7975 33.2621L51.398 33.2621L51.398 33.7599L51.7536 33.7599L51.7536 34.2418L51.398 34.2418L51.398 35.0636C51.398 35.1637 51.4138 35.2368 51.4454 35.2829C51.477 35.329 51.5271 35.352 51.5956 35.352C51.6509 35.352 51.697 35.3428 51.7338 35.3244L51.7338 35.8103Z"/>
<path d="M52.0064 35.8261L52.0064 33.7599L52.6307 33.7599L52.6307 35.8261L52.0064 35.8261ZM52.6583 33.1988C52.6583 33.2989 52.6267 33.3839 52.5635 33.4537C52.5003 33.5235 52.4186 33.5584 52.3186 33.5584C52.2185 33.5584 52.1368 33.5235 52.0736 33.4537C52.0104 33.3839 51.9788 33.2989 51.9788 33.1988C51.9788 33.1488 51.9874 33.102 52.0045 33.0586C52.0216 33.0151 52.0446 32.9769 52.0736 32.944C52.1026 32.9111 52.1381 32.8848 52.1803 32.865C52.2224 32.8452 52.2685 32.8354 52.3186 32.8354C52.3686 32.8354 52.4147 32.8452 52.4568 32.865C52.499 32.8848 52.5345 32.9111 52.5635 32.944C52.5925 32.9769 52.6155 33.0151 52.6326 33.0586C52.6498 33.102 52.6583 33.1488 52.6583 33.1988Z"/>
<path d="M54.3058 35.6681C54.2505 35.7366 54.1794 35.7906 54.0925 35.8301C54.0055 35.8696 53.9055 35.8893 53.7922 35.8893C53.6605 35.8893 53.5446 35.8623 53.4445 35.8083C53.3444 35.7543 53.2602 35.6786 53.1917 35.5812C53.1232 35.4837 53.0712 35.3678 53.0356 35.2335C53.0001 35.0992 52.9823 34.9517 52.9823 34.791C52.9823 34.6303 53.0007 34.4835 53.0376 34.3505C53.0745 34.2175 53.1272 34.1023 53.1956 34.0048C53.2641 33.9073 53.3491 33.8316 53.4505 33.7776C53.5519 33.7236 53.6684 33.6966 53.8001 33.6966C53.916 33.6966 54.0161 33.7177 54.1004 33.7599C54.1846 33.802 54.2505 33.8494 54.2979 33.9021L54.049 34.3841C54.0253 34.3472 53.9963 34.3182 53.9621 34.2972C53.9278 34.2761 53.8896 34.2656 53.8475 34.2656C53.7711 34.2656 53.7073 34.3116 53.6559 34.4038C53.6045 34.496 53.5789 34.6251 53.5789 34.791C53.5789 34.9569 53.6039 35.0853 53.6539 35.1762C53.704 35.2671 53.7724 35.3125 53.8594 35.3125C53.9041 35.3125 53.943 35.3013 53.9759 35.2789C54.0088 35.2565 54.0358 35.2269 54.0569 35.19L54.3058 35.6681Z"/>
<path d="M46.9416 39.7374C46.8941 39.69 46.8428 39.6518 46.7875 39.6228C46.7322 39.5938 46.6716 39.5793 46.6057 39.5793C46.5557 39.5793 46.5129 39.5951 46.4773 39.6268C46.4418 39.6584 46.424 39.7018 46.424 39.7571C46.424 39.8098 46.4431 39.8487 46.4813 39.8737C46.5195 39.8987 46.5913 39.927 46.6966 39.9586C46.7572 39.9771 46.8178 40.0021 46.8783 40.0337C46.9389 40.0653 46.9929 40.1061 47.0403 40.1562C47.0877 40.2062 47.1266 40.2661 47.1569 40.3359C47.1872 40.4057 47.2023 40.488 47.2023 40.5828C47.2023 40.7093 47.1799 40.8173 47.1351 40.9068C47.0904 40.9964 47.0337 41.0688 46.9653 41.1241C46.8968 41.1794 46.8197 41.2202 46.7341 41.2466C46.6485 41.2729 46.5662 41.2861 46.4872 41.2861C46.3503 41.2861 46.2179 41.2611 46.0902 41.211C45.9624 41.161 45.8525 41.0912 45.7603 41.0016L46.0684 40.6065C46.1237 40.6645 46.1837 40.7119 46.2482 40.7488C46.3127 40.7856 46.3832 40.8041 46.4596 40.8041C46.5175 40.8041 46.5629 40.787 46.5959 40.7527C46.6288 40.7185 46.6452 40.6737 46.6452 40.6184C46.6452 40.5525 46.6189 40.5045 46.5662 40.4742C46.5136 40.4439 46.4345 40.4116 46.3292 40.3774C46.2739 40.359 46.2186 40.3359 46.1633 40.3083C46.1079 40.2806 46.0586 40.2431 46.0151 40.1957C45.9716 40.1483 45.9361 40.091 45.9084 40.0238C45.8808 39.9566 45.8669 39.8743 45.8669 39.7769C45.8669 39.661 45.888 39.5602 45.9302 39.4746C45.9723 39.389 46.027 39.3179 46.0941 39.2613C46.1613 39.2047 46.2363 39.1625 46.3193 39.1349C46.4023 39.1072 46.4859 39.0934 46.5702 39.0934C46.6966 39.0934 46.8178 39.1158 46.9337 39.1606C47.0495 39.2053 47.1523 39.2672 47.2418 39.3462L46.9416 39.7374Z"/>
</g>
<path d="M18.976 56.5529L19.7668 58.1552L21.535 58.4121L20.2555 59.6593L20.5576 61.4204L18.976 60.5889L17.3945 61.4204L17.6966 59.6593L16.4171 58.4121L18.1853 58.1552L18.976 56.5529Z" fill="#1201a8" fill-rule="nonzero" opacity="0" stroke="#ffffff" stroke-linecap="butt" stroke-linejoin="round" stroke-width="0.2"/>
<path d="M52.2987 56.6901L53.0895 58.2924L54.8577 58.5493L53.5782 59.7965L53.8803 61.5576L52.2987 60.7262L50.7172 61.5576L51.0192 59.7965L49.7397 58.5493L51.508 58.2924L52.2987 56.6901Z" fill="#1201a8" fill-rule="nonzero" opacity="0" stroke="#ffffff" stroke-linecap="butt" stroke-linejoin="round" stroke-width="0.2"/>
<path d="M216.262 160.541C216.262 160.541 233.271 160.609 242.561 160.824C250.014 160.886 249.455 161.88 249.393 168.836C249.455 172.935 249.506 226.534 249.353 236.563C249.318 238.839 246.468 244.331 239.96 244.423C208.947 244.863 131.677 245.124 114.768 245.519C107.276 245.694 105.864 245.537 105.393 235.023C104.691 219.347 104.403 191.042 104.301 173.052C104.268 167.369 103.89 167.665 103.887 164.764C103.887 164.532 108.206 161.991 108.206 161.991L163.651 159.924L173.988 140.021L208.702 140.176L216.262 160.541Z" fill="#554339" fill-rule="nonzero" opacity="0" stroke="#32251e" stroke-linecap="butt" stroke-linejoin="round" stroke-width="2"/>
</g>
</svg>
