<?xml version="1.0" encoding="UTF-8" standalone="no"?>
<!DOCTYPE svg PUBLIC "-//W3C//DTD SVG 1.1//EN" "http://www.w3.org/Graphics/SVG/1.1/DTD/svg11.dtd">
<!-- Created with Vectornator (http://vectornator.io/) -->
<svg height="100%" stroke-miterlimit="10" style="fill-rule:nonzero;clip-rule:evenodd;stroke-linecap:round;stroke-linejoin:round;" version="1.1" viewBox="0 0 135.784 116.045" width="100%" xml:space="preserve" xmlns="http://www.w3.org/2000/svg" xmlns:xlink="http://www.w3.org/1999/xlink">
<defs>
<radialGradient cx="0" cy="0" gradientTransform="matrix(-65.8657 -0.133144 -0.133144 65.8657 71.8275 56.4625)" gradientUnits="userSpaceOnUse" id="RadialGradient" r="1">
<stop offset="0.707983" stop-color="#d38218"/>
<stop offset="1" stop-color="#ffffff"/>
</radialGradient>
<radialGradient cx="0" cy="0" gradientTransform="matrix(11.769 -32.3886 33.0794 11.2747 45.4873 71.9438)" gradientUnits="userSpaceOnUse" id="RadialGradient_2" r="1">
<stop offset="0" stop-color="#ffffff"/>
<stop offset="1" stop-color="#f7b55e"/>
</radialGradient>
<linearGradient gradientTransform="matrix(-6.27342 24.1144 -24.1144 -6.27342 61.0193 84.8465)" gradientUnits="userSpaceOnUse" id="LinearGradient" x1="0" x2="1" y1="0" y2="0">
<stop offset="0.521008" stop-color="#f2a847"/>
<stop offset="0.926471" stop-color="#ffffff"/>
</linearGradient>
<linearGradient gradientTransform="matrix(13.0999 -24.8546 24.8546 13.0999 69.5977 75.3077)" gradientUnits="userSpaceOnUse" id="LinearGradient_2" x1="0" x2="1" y1="0" y2="0">
<stop offset="0.516807" stop-color="#d38218"/>
<stop offset="0.926471" stop-color="#ffffff"/>
</linearGradient>
</defs>
<g id="mark">
<g opacity="1">
<path d="M75.9382 65.6232C76.0314 66.438 82.8057 73.2399 85.9725 73.9136C88.6963 74.4931 93.7263 69.8255 97.2538 70.3824C99.2106 70.6914 102.285 73.6838 104.41 73.7484C106.967 73.8261 108.156 75.4697 110.804 75.8274C116.067 76.5386 117.599 77.9528 121.771 80.2195C124.025 81.4438 128.456 87.292 129.936 88.5353C131.615 89.9459 128.62 90.9718 124.98 93.4484C122.346 95.2404 120.387 96.8124 117.266 97.5186C115.041 98.022 111.738 97.7735 109.392 98.2675C103.753 99.4545 105.067 96.2411 101.123 95.0267C97.5956 93.9405 92.1878 94.4855 90.9563 93.6247C89.2946 92.4632 88.2948 88.6463 86.9065 86.9807C85.5181 85.3151 84.4465 81.5504 81.7019 81.2312C77.0102 80.6854 72.3161 83.0932 70.2798 80.5823C69.6309 79.7822 61.6864 82.0074 61.3084 82.1884C60.9898 82.3409 56.3978 105.985 51.1959 104.057C46.5504 102.335 43.3134 110.72 37.9251 109.527C32.6568 108.361 28.0924 108.507 28.7592 105.502C29.5955 101.732 45.5923 99.9207 46.1165 98.5074C48.7092 91.5167 38.5799 59.5864 34.7821 54.6542C31.6743 50.6183 16.3595 47.3352 11.9988 47.7099C8.4245 48.017 5.87065 46.4871 5.76557 43.4534C5.66049 40.4196 10.8721 42.7495 10.0948 41.3971C8.7338 39.0291 7.21283 37.6942 7.82262 36.0372C8.95545 32.9592 13.183 35.4736 13.2548 34.0289C13.33 32.5145 12.1645 28.2812 16.86 28.9611C19.8846 29.3991 17.6621 39.1775 27.0239 42.9542C31.0736 44.5879 42.2091 34.927 50.2192 38.6563C63.1167 44.661 75.8351 64.7215 75.9382 65.6232Z" fill="url(#RadialGradient)" fill-rule="nonzero" opacity="1" stroke="#000000" stroke-linecap="butt" stroke-linejoin="round" stroke-width="1"/>
<g opacity="1">
<path d="M34.0668 22.4313C32.9527 25.265 32.0128 29.2862 31.0111 32.3223C29.8385 35.8765 28.9302 34.6609 27.3534 37.5342C21.6999 47.8358 20.3674 59.4501 21.2484 67.3312C22.0549 74.545 24.7473 80.928 32.5853 85.4799C34.5027 86.5934 35.0743 89.1415 36.8658 91.0541C37.6276 91.8674 41.1813 92.1475 42.161 92.8355C44.849 94.7233 59.6992 94.2127 62.656 92.5678C63.3913 92.1587 81.8043 87.3411 82.3634 86.9815C87.113 83.926 90.1206 76.3121 89.7887 74.1115C89.1282 69.7308 91.3926 65.6509 88.9067 63.1581C88.3794 62.6293 87.1398 60.8308 86.6755 59.4786C86.1344 57.903 83.2524 49.8085 83.5446 49.3926C85.121 47.1478 84.8112 45.2185 82.7653 39.0865C82.2587 37.5683 79.937 31.4342 79.4983 30.0422C78.4223 26.6284 78.4047 23.8878 78.0097 21.724C77.6833 19.9362 76.2979 14.2095 76.4296 12.348C76.5618 10.4794 77.2501 8.44327 76.6782 7.38359C75.8683 5.88301 72.1299 6.0417 70.2231 7.28829C67.9044 8.80406 67.6461 11.1155 66.9125 11.6668C65.899 12.4284 63.0602 10.37 60.0499 10.3564C57.3305 10.3442 54.0259 11.2372 52.1522 11.7683C49.9964 12.3794 49.1069 11.1536 47.8122 9.17672C46.6607 7.41837 46.72 5.90457 45.9513 5.21877C45.1361 4.49132 42.9438 3.90007 40.5565 5.34679C38.7532 6.43964 37.7809 8.17746 37.6475 9.52692C37.5332 10.6834 37.2545 10.7399 37.6681 12.666C38.0817 14.5921 39.1589 16.3484 38.8068 16.5897C37.9523 17.1753 34.777 20.6248 34.0668 22.4313Z" fill="#f7b55e" fill-rule="nonzero" opacity="1" stroke="#000000" stroke-linecap="butt" stroke-linejoin="round" stroke-width="1"/>
<path d="M54.8586 51.5404C45.8331 52.048 45.2175 48.6634 41.3375 46.9215C36.1703 44.6017 29.4274 46.539 25.8483 51.3087C21.6322 56.9273 21.0482 65.9822 21.5388 69.4301C21.9178 72.0932 24.0803 78.918 29.4407 83.0177C32.3214 85.2208 33.4323 84.3293 36.6959 90.5121C37.546 92.1228 39.1765 91.368 42.4298 92.968C45.6831 94.568 52.057 93.7863 52.6419 93.7659C63.0969 93.4027 68.0492 77.3663 68.9956 67.389C69.4634 62.4572 70.5341 50.1751 66.8627 47.8362C63.045 45.4041 62.5575 51.1074 54.8586 51.5404Z" fill="url(#RadialGradient_2)" fill-rule="nonzero" opacity="1" stroke="#000000" stroke-linecap="butt" stroke-linejoin="round" stroke-opacity="0" stroke-width="1"/>
<path d="M68.6216 81.6453C62.1634 82.456 59.7676 84.7128 56.2378 88.146C53.9584 90.363 55.3958 95.7244 51.9782 96.8382C44.3578 99.3216 36.0563 97.1173 35.1725 98.6015C33.0802 102.115 36.9915 104.345 44.4334 103.979C45.9859 103.902 52.4295 104.376 55.7034 107.87C59.1809 111.581 68.031 108.78 67.7795 107.637C67.528 106.494 71.4056 99.4729 72.96 98.2569C78.4994 93.9235 83.7444 87.8516 83.4226 84.7781C83.1008 81.7046 74.8362 80.8652 68.6216 81.6453Z" fill="url(#LinearGradient)" fill-rule="nonzero" opacity="1" stroke="#000000" stroke-linecap="butt" stroke-linejoin="round" stroke-width="1"/>
<path d="M61.198 64.6343C61.198 64.6343 62.6965 62.5359 64.7841 61.9369C68.825 60.7772 75.264 59.0017 75.4958 59.667C75.7715 60.4581 69.4246 62.1601 65.6262 64.6548C63.1115 66.3063 62.9524 70.0574 63.359 69.9428C64.4442 69.6369 64.7922 66.0578 66.6865 64.7162C71.6616 61.1927 79.0387 57.222 80.6662 56.614C84.4493 55.2006 84.3869 49.3475 86.6437 50.158C88.3892 50.7849 72.0114 59.9813 64.6187 62.4752C62.4533 63.2057 61.0447 65.3191 61.198 64.6343Z" fill="#010101" fill-rule="nonzero" opacity="1" stroke="#000000" stroke-linecap="round" stroke-linejoin="round" stroke-width="3.54766"/>
<path d="M81.5824 70.5954C82.2734 67.4561 77.3371 66.4171 78.569 63.9286C79.8008 61.4402 83.2109 57.4287 83.7021 55.5688C83.9393 54.6705 83.8088 51.7995 81.7369 50.9684C79.5188 50.0787 75.3092 51.2674 74.2981 51.5471C73.4514 51.7814 74.1135 53.5709 72.7959 54.1115C71.0702 54.8194 70.9475 53.8548 69.4973 54.4303C66.9397 55.4453 67.4691 57.3219 67.3618 59.7476C67.2546 62.1733 72.845 65.4797 72.2008 67.2923C71.5567 69.105 70.1514 72.8232 72.111 73.6245C74.0706 74.4259 80.8913 73.7347 81.5824 70.5954Z" fill="url(#LinearGradient_2)" fill-rule="nonzero" opacity="1" stroke="#000000" stroke-linecap="butt" stroke-linejoin="round" stroke-width="1"/>
<g opacity="1">
<path d="M44.9301 35.9156C47.0305 32.8005 47.0583 31.5975 52.361 30.5635C55.1001 30.0294 57.9894 32.8023 60.5249 33.9132C62.1414 34.6215 64.2743 36.2069 66.9158 35.9632C69.8012 35.697 74.2143 34.7981 72.6593 30.1656C67.6281 15.1778 41.2462 18.142 34.4649 27.552C32.4909 30.2912 33.3042 33.8525 35.6433 36.5984C38.5089 39.9622 42.4268 39.6282 44.9301 35.9156Z" fill="#100f18" fill-rule="nonzero" opacity="0.506787" stroke="#000000" stroke-linecap="butt" stroke-linejoin="round" stroke-width="0.3"/>
<path d="M60.7504 26.193C59.2345 26.4248 59.4983 28.7968 60.9959 28.6962C61.5552 28.6586 61.8643 28.2069 61.9368 27.6963C62.0439 26.9415 61.634 26.0579 60.7504 26.193Z" fill="#ffffff" fill-rule="nonzero" opacity="1" stroke="#000000" stroke-linecap="butt" stroke-linejoin="round" stroke-width="0.3"/>
<path d="M41.966 28.7671C40.4104 29.0044 40.6702 31.3623 42.2065 31.2555C42.7802 31.2156 43.0993 30.7649 43.176 30.2568C43.2893 29.5056 42.8728 28.6288 41.966 28.7671Z" fill="#ffffff" fill-rule="nonzero" opacity="1" stroke="#000000" stroke-linecap="butt" stroke-linejoin="round" stroke-width="0.3"/>
<path d="M41.9853 29.1129C41.004 29.2644 41.207 31.0263 42.1781 30.9717C42.5408 30.9513 42.7355 30.6206 42.7758 30.243C42.8353 29.6849 42.5573 29.0245 41.9853 29.1129Z" fill="#100f18" fill-rule="nonzero" opacity="1" stroke="#000000" stroke-linecap="butt" stroke-linejoin="round" stroke-width="0.3"/>
<path d="M60.7307 26.5184C59.7494 26.67 59.9523 28.4318 60.9235 28.3772C61.2862 28.3568 61.4809 28.0261 61.5212 27.6486C61.5807 27.0905 61.3027 26.4301 60.7307 26.5184Z" fill="#0d0d12" fill-rule="nonzero" opacity="1" stroke="#000000" stroke-linecap="butt" stroke-linejoin="round" stroke-width="0.3"/>
<path d="M25.6474 47.8846C24.9534 47.1349 30.5004 45.8594 33.2334 44.3252C35.9664 42.7911 45.1155 37.9358 45.4712 39.0598C45.8269 40.1839 39.0972 42.6123 34.7683 44.5637C30.4394 46.5151 26.3414 48.6342 25.6474 47.8846Z" fill="#5f5f5f" fill-rule="nonzero" opacity="1" stroke="#010101" stroke-linecap="butt" stroke-linejoin="round" stroke-width="0.3"/>
<path d="M30.49 52.1122C30.0703 50.9972 31.98 51.117 34.5761 49.1814C35.0443 48.8322 46.9186 39.8175 47.2176 40.7912C47.5825 41.9793 41.2821 44.7094 39.1735 46.6346C38.3952 47.3453 30.9097 53.2272 30.49 52.1122Z" fill="#5f5f5f" fill-rule="nonzero" opacity="1" stroke="#000000" stroke-linecap="butt" stroke-linejoin="round" stroke-width="0.3"/>
<path d="M78.2737 45.8913C78.3657 44.7035 76.5653 45.3513 73.5324 44.2165C70.4994 43.0818 59.0712 38.4428 59.0523 39.6855C59.0333 40.9282 65.8451 41.7926 68.407 43.0532C69.3527 43.5186 78.1817 47.0791 78.2737 45.8913Z" fill="#5f5f5f" fill-rule="nonzero" opacity="1" stroke="#000000" stroke-linecap="butt" stroke-linejoin="round" stroke-width="0.3"/>
<path d="M81.7977 40.146C82.2551 39.2325 76.5724 39.5549 73.52 38.8439C70.4676 38.1329 60.3273 36.0222 60.2992 37.2009C60.2712 38.3796 67.4111 38.8345 72.1125 39.501C76.8139 40.1675 81.3403 41.0595 81.7977 40.146Z" fill="#5f5f5f" fill-rule="nonzero" opacity="0.995159" stroke="#000000" stroke-linecap="butt" stroke-linejoin="round" stroke-width="0.3"/>
<path d="M45.0647 38.78C44.1305 36.8071 42.2225 39.5266 43.1729 40.2836C44.1232 41.0405 41.0982 41.5228 42.795 43.2419C44.8151 45.2884 45.3899 42.6601 46.1092 43.5691C48.5882 46.7018 47.9383 45.1968 51.2919 47.842C52.3878 48.7065 53.3191 48.8264 54.3115 47.6302C57.6587 43.5959 64.83 39.1903 63.9447 38.272C62.7632 37.0463 54.6289 43.7365 53.8457 44.3562C50.4976 47.0056 45.0647 38.78 45.0647 38.78Z" fill="#0d0c13" fill-rule="nonzero" opacity="1" stroke="#000000" stroke-linecap="butt" stroke-linejoin="round" stroke-width="0.3"/>
<path d="M43.81 69.557C44.0013 70.3283 39.8989 73.4242 40.8672 74.5314C41.8355 75.6385 44.3629 71.1806 45.2167 71.1352C46.0705 71.0898 49.6345 75.9992 50.578 75.065C51.5214 74.1309 47.2993 70.6132 47.1216 69.6889C46.9438 68.7647 51.3751 66.2999 50.5132 65.5307C49.6513 64.7616 46.4155 67.6878 45.723 67.7948C45.0304 67.9018 42.7226 64.835 41.9019 65.4656C40.6823 66.4027 43.6188 68.7857 43.81 69.557Z" fill="#010101" fill-rule="nonzero" opacity="0.506787" stroke="#000000" stroke-linecap="butt" stroke-linejoin="round" stroke-width="0.3"/>
</g>
</g>
</g>
</g>
</svg>
