<?xml version="1.0" encoding="UTF-8" standalone="no"?>
<!DOCTYPE svg PUBLIC "-//W3C//DTD SVG 1.1//EN" "http://www.w3.org/Graphics/SVG/1.1/DTD/svg11.dtd">
<!-- Created with Vectornator (http://vectornator.io/) -->
<svg height="100%" stroke-miterlimit="10" style="fill-rule:nonzero;clip-rule:evenodd;stroke-linecap:round;stroke-linejoin:round;" version="1.1" viewBox="0 0 135.784 116.045" width="100%" xml:space="preserve" xmlns="http://www.w3.org/2000/svg" xmlns:vectornator="http://vectornator.io" xmlns:xlink="http://www.w3.org/1999/xlink">
<defs>
<radialGradient cx="0" cy="0" gradientTransform="matrix(65.8657 -0.133144 0.133144 65.8657 64.3514 56.4625)" gradientUnits="userSpaceOnUse" id="RadialGradient" r="1">
<stop offset="0.707983" stop-color="#d38218"/>
<stop offset="1" stop-color="#ffffff"/>
</radialGradient>
<radialGradient cx="0" cy="0" gradientTransform="matrix(-11.769 -32.3886 -33.0794 11.2747 90.6916 71.9438)" gradientUnits="userSpaceOnUse" id="RadialGradient_2" r="1">
<stop offset="0" stop-color="#ffffff"/>
<stop offset="1" stop-color="#f7b55e"/>
</radialGradient>
<linearGradient gradientTransform="matrix(6.27342 24.1144 24.1144 -6.27342 75.1596 84.8465)" gradientUnits="userSpaceOnUse" id="LinearGradient" x1="0" x2="1" y1="0" y2="0">
<stop offset="0.521008" stop-color="#f2a847"/>
<stop offset="0.926471" stop-color="#ffffff"/>
</linearGradient>
<linearGradient gradientTransform="matrix(-13.0999 -24.8546 -24.8546 13.0999 66.5812 75.3077)" gradientUnits="userSpaceOnUse" id="LinearGradient_2" x1="0" x2="1" y1="0" y2="0">
<stop offset="0.516807" stop-color="#d38218"/>
<stop offset="0.926471" stop-color="#ffffff"/>
</linearGradient>
</defs>
<g id="mark" vectornator:layerName="mark">
<g opacity="1" vectornator:layerName="(curve)">
<path d="M60.2407 65.6232C60.1475 66.438 53.3732 73.2399 50.2065 73.9136C47.4826 74.4931 42.4527 69.8255 38.9252 70.3824C36.9683 70.6914 33.8942 73.6838 31.7688 73.7484C29.2116 73.8261 28.0225 75.4697 25.3754 75.8274C20.1119 76.5386 18.5803 77.9528 14.4081 80.2195C12.1544 81.4438 7.72327 87.292 6.24309 88.5353C4.56379 89.9459 7.55854 90.9718 11.1991 93.4484C13.8334 95.2404 15.7919 96.8124 18.9131 97.5186C21.1378 98.022 24.4409 97.7735 26.7873 98.2675C32.4256 99.4545 31.1118 96.2411 35.0556 95.0267C38.5833 93.9405 43.9911 94.4855 45.2226 93.6247C46.8843 92.4632 47.8841 88.6463 49.2725 86.9807C50.6608 85.3151 51.7325 81.5504 54.4771 81.2312C59.1688 80.6854 63.8629 83.0932 65.8992 80.5823C66.548 79.7822 74.4926 82.0074 74.8706 82.1884C75.1891 82.3409 79.7811 105.985 84.9831 104.057C89.6286 102.335 92.8655 110.72 98.2538 109.527C103.522 108.361 108.086 108.507 107.42 105.502C106.583 101.732 90.5866 99.9207 90.0624 98.5074C87.4697 91.5167 97.599 59.5864 101.397 54.6542C104.505 50.6183 119.819 47.3352 124.18 47.7099C127.754 48.017 130.308 46.4871 130.413 43.4534C130.518 40.4196 125.307 42.7495 126.084 41.3971C127.445 39.0291 128.966 37.6942 128.356 36.0372C127.223 32.9592 122.996 35.4736 122.924 34.0289C122.849 32.5145 124.014 28.2812 119.319 28.9611C116.294 29.3991 118.517 39.1775 109.155 42.9542C105.105 44.5879 93.9698 34.927 85.9597 38.6563C73.0623 44.661 60.3438 64.7215 60.2407 65.6232Z" fill="url(#RadialGradient)" fill-rule="nonzero" opacity="1" stroke="#000000" stroke-linecap="butt" stroke-linejoin="round" stroke-width="1"/>
<g opacity="1" vectornator:layerName="(curve)">
<path d="M102.112 22.4313C103.226 25.265 104.166 29.2862 105.168 32.3223C106.34 35.8765 107.249 34.6609 108.826 37.5342C114.479 47.8358 115.812 59.4501 114.931 67.3312C114.124 74.545 111.432 80.928 103.594 85.4799C101.676 86.5934 101.105 89.1415 99.3132 91.0541C98.5513 91.8674 94.9977 92.1475 94.018 92.8355C91.3299 94.7233 76.4797 94.2127 73.523 92.5678C72.7876 92.1587 54.3747 87.3411 53.8155 86.9815C49.0659 83.926 46.0583 76.3121 46.3902 74.1115C47.0508 69.7308 44.7863 65.6509 47.2722 63.1581C47.7995 62.6293 49.0391 60.8308 49.5035 59.4786C50.0445 57.903 52.9265 49.8085 52.6344 49.3926C51.0579 47.1478 51.3677 45.2185 53.4137 39.0865C53.9202 37.5683 56.2419 31.4342 56.6806 30.0422C57.7566 26.6284 57.7742 23.8878 58.1692 21.724C58.4956 19.9362 59.881 14.2095 59.7494 12.348C59.6172 10.4794 58.9289 8.44327 59.5008 7.38359C60.3106 5.88301 64.049 6.0417 65.9559 7.28829C68.2745 8.80406 68.5329 11.1155 69.2665 11.6668C70.2799 12.4284 73.1187 10.37 76.1291 10.3564C78.8484 10.3442 82.153 11.2372 84.0268 11.7683C86.1825 12.3794 87.0721 11.1536 88.3667 9.17672C89.5182 7.41837 89.459 5.90457 90.2276 5.21877C91.0429 4.49132 93.2351 3.90007 95.6224 5.34679C97.4258 6.43964 98.398 8.17746 98.5314 9.52692C98.6457 10.6834 98.9244 10.7399 98.5108 12.666C98.0972 14.5921 97.02 16.3484 97.3721 16.5897C98.2267 17.1753 101.402 20.6248 102.112 22.4313Z" fill="#f7b55e" fill-rule="nonzero" opacity="1" stroke="#000000" stroke-linecap="butt" stroke-linejoin="round" stroke-width="1"/>
<path d="M81.3204 51.5404C90.3459 52.048 90.9614 48.6634 94.8415 46.9215C100.009 44.6017 106.752 46.539 110.331 51.3087C114.547 56.9273 115.131 65.9822 114.64 69.4301C114.261 72.0932 112.099 78.918 106.738 83.0177C103.858 85.2208 102.747 84.3293 99.4831 90.5121C98.6329 92.1228 97.0024 91.368 93.7491 92.968C90.4959 94.568 84.122 93.7863 83.537 93.7659C73.0821 93.4027 68.1297 77.3663 67.1834 67.389C66.7156 62.4572 65.6449 50.1751 69.3162 47.8362C73.134 45.4041 73.6215 51.1074 81.3204 51.5404Z" fill="url(#RadialGradient_2)" fill-rule="nonzero" opacity="1" stroke="#000000" stroke-linecap="butt" stroke-linejoin="round" stroke-opacity="0" stroke-width="1"/>
<path d="M67.5574 81.6453C74.0155 82.456 76.4113 84.7128 79.9411 88.146C82.2206 90.363 80.7831 95.7244 84.2007 96.8382C91.8212 99.3216 100.123 97.1173 101.006 98.6015C103.099 102.115 99.1874 104.345 91.7455 103.979C90.1931 103.902 83.7494 104.376 80.4755 107.87C76.998 111.581 68.1479 108.78 68.3994 107.637C68.6509 106.494 64.7734 99.4729 63.2189 98.2569C57.6796 93.9235 52.4346 87.8516 52.7564 84.7781C53.0782 81.7046 61.3428 80.8652 67.5574 81.6453Z" fill="url(#LinearGradient)" fill-rule="nonzero" opacity="1" stroke="#000000" stroke-linecap="butt" stroke-linejoin="round" stroke-width="1"/>
<path d="M74.9809 64.6343C74.9809 64.6343 73.4824 62.5359 71.3949 61.9369C67.354 60.7772 60.9149 59.0017 60.6831 59.667C60.4074 60.4581 66.7543 62.1601 70.5527 64.6548C73.0674 66.3063 73.2265 70.0574 72.8199 69.9428C71.7348 69.6369 71.3868 66.0578 69.4925 64.7162C64.5174 61.1927 57.1402 57.222 55.5128 56.614C51.7296 55.2006 51.792 49.3475 49.5353 50.158C47.7898 50.7849 64.1675 59.9813 71.5602 62.4752C73.7256 63.2057 75.1342 65.3191 74.9809 64.6343Z" fill="#010101" fill-rule="nonzero" opacity="1" stroke="#000000" stroke-linecap="round" stroke-linejoin="round" stroke-width="3.54766"/>
<path d="M54.5966 70.5954C53.9055 67.4561 58.8418 66.4171 57.61 63.9286C56.3782 61.4402 52.968 57.4287 52.4768 55.5688C52.2396 54.6705 52.3701 51.7995 54.442 50.9684C56.6602 50.0787 60.8698 51.2674 61.8809 51.5471C62.7275 51.7814 62.0655 53.5709 63.3831 54.1115C65.1088 54.8194 65.2314 53.8548 66.6817 54.4303C69.2392 55.4453 68.7099 57.3219 68.8171 59.7476C68.9243 62.1733 63.3339 65.4797 63.9781 67.2923C64.6223 69.105 66.0275 72.8232 64.0679 73.6245C62.1083 74.4259 55.2876 73.7347 54.5966 70.5954Z" fill="url(#LinearGradient_2)" fill-rule="nonzero" opacity="1" stroke="#000000" stroke-linecap="butt" stroke-linejoin="round" stroke-width="1" vectornator:layerName="handleft"/>
<g opacity="1" vectornator:layerName="(curve)">
<path d="M91.2489 35.9156C89.1484 32.8005 89.1206 31.5975 83.8179 30.5635C81.0789 30.0294 78.1895 32.8023 75.6541 33.9132C74.0375 34.6215 71.9046 36.2069 69.2631 35.9632C66.3777 35.697 61.9646 34.7981 63.5197 30.1656C68.5508 15.1778 94.9327 18.142 101.714 27.552C103.688 30.2912 102.875 33.8525 100.536 36.5984C97.6701 39.9622 93.7522 39.6282 91.2489 35.9156Z" fill="#100f18" fill-rule="nonzero" opacity="0.506787" stroke="#000000" stroke-linecap="butt" stroke-linejoin="round" stroke-width="0.3"/>
<path d="M75.4286 26.193C76.9444 26.4248 76.6806 28.7968 75.183 28.6962C74.6238 28.6586 74.3146 28.2069 74.2421 27.6963C74.135 26.9415 74.545 26.0579 75.4286 26.193Z" fill="#ffffff" fill-rule="nonzero" opacity="1" stroke="#000000" stroke-linecap="butt" stroke-linejoin="round" stroke-width="0.3"/>
<path d="M94.213 28.7671C95.7686 29.0044 95.5088 31.3623 93.9724 31.2555C93.3987 31.2156 93.0796 30.7649 93.003 30.2568C92.8897 29.5056 93.3062 28.6288 94.213 28.7671Z" fill="#ffffff" fill-rule="nonzero" opacity="1" stroke="#000000" stroke-linecap="butt" stroke-linejoin="round" stroke-width="0.3"/>
<path d="M94.1936 29.1129C95.1749 29.2644 94.972 31.0263 94.0008 30.9717C93.6381 30.9513 93.4434 30.6206 93.4031 30.243C93.3436 29.6849 93.6216 29.0245 94.1936 29.1129Z" fill="#100f18" fill-rule="nonzero" opacity="1" stroke="#000000" stroke-linecap="butt" stroke-linejoin="round" stroke-width="0.3"/>
<path d="M75.4483 26.5184C76.4295 26.67 76.2266 28.4318 75.2554 28.3772C74.8927 28.3568 74.698 28.0261 74.6578 27.6486C74.5983 27.0905 74.8763 26.4301 75.4483 26.5184Z" fill="#0d0d12" fill-rule="nonzero" opacity="1" stroke="#000000" stroke-linecap="butt" stroke-linejoin="round" stroke-width="0.3"/>
<path d="M110.532 47.8846C111.226 47.1349 105.679 45.8594 102.946 44.3252C100.213 42.7911 91.0635 37.9358 90.7077 39.0598C90.352 40.1839 97.0817 42.6123 101.411 44.5637C105.739 46.5151 109.837 48.6342 110.532 47.8846Z" fill="#5f5f5f" fill-rule="nonzero" opacity="1" stroke="#010101" stroke-linecap="butt" stroke-linejoin="round" stroke-width="0.3" vectornator:layerName="higemigiue"/>
<path d="M105.689 52.1122C106.109 50.9972 104.199 51.117 101.603 49.1814C101.135 48.8322 89.2603 39.8175 88.9613 40.7912C88.5965 41.9793 94.8969 44.7094 97.0054 46.6346C97.7838 47.3453 105.269 53.2272 105.689 52.1122Z" fill="#5f5f5f" fill-rule="nonzero" opacity="1" stroke="#000000" stroke-linecap="butt" stroke-linejoin="round" stroke-width="0.3" vectornator:layerName="higemigishita"/>
<path d="M57.9052 45.8913C57.8132 44.7035 59.6136 45.3513 62.6466 44.2165C65.6795 43.0818 77.1077 38.4428 77.1267 39.6855C77.1457 40.9282 70.3338 41.7926 67.772 43.0532C66.8262 43.5186 57.9973 47.0791 57.9052 45.8913Z" fill="#5f5f5f" fill-rule="nonzero" opacity="1" stroke="#000000" stroke-linecap="butt" stroke-linejoin="round" stroke-width="0.3" vectornator:layerName="higehidarishita"/>
<path d="M54.3813 40.146C53.9239 39.2325 59.6065 39.5549 62.6589 38.8439C65.7114 38.1329 75.8516 36.0222 75.8797 37.2009C75.9078 38.3796 68.7678 38.8345 64.0664 39.501C59.3651 40.1675 54.8386 41.0595 54.3813 40.146Z" fill="#5f5f5f" fill-rule="nonzero" opacity="0.995159" stroke="#000000" stroke-linecap="butt" stroke-linejoin="round" stroke-width="0.3" vectornator:layerName="higehidariue"/>
<path d="M91.1142 38.78C92.0485 36.8071 93.9564 39.5266 93.0061 40.2836C92.0557 41.0405 95.0808 41.5228 93.3839 43.2419C91.3638 45.2884 90.789 42.6601 90.0697 43.5691C87.5908 46.7018 88.2406 45.1968 84.887 47.842C83.7911 48.7065 82.8599 48.8264 81.8674 47.6302C78.5203 43.5959 71.349 39.1903 72.2342 38.272C73.4157 37.0463 81.55 43.7365 82.3332 44.3562C85.6813 47.0056 91.1142 38.78 91.1142 38.78Z" fill="#0d0c13" fill-rule="nonzero" opacity="1" stroke="#000000" stroke-linecap="butt" stroke-linejoin="round" stroke-width="0.3" vectornator:layerName="mouse"/>
<path d="M95.2039 72.392C95.0127 73.1633 99.115 76.2592 98.1467 77.3664C97.1784 78.4735 94.6511 74.0156 93.7972 73.9702C92.9434 73.9248 89.3794 78.8342 88.436 77.9C87.4925 76.9659 91.7146 73.4482 91.8924 72.5239C92.0701 71.5997 87.6389 69.1349 88.5008 68.3657C89.3627 67.5966 92.5985 70.5228 93.291 70.6298C93.9835 70.7368 96.2913 67.67 97.112 68.3006C98.3316 69.2377 95.3951 71.6207 95.2039 72.392Z" fill="#010101" fill-rule="nonzero" opacity="0.506787" stroke="#000000" stroke-linecap="butt" stroke-linejoin="round" stroke-width="0.3" vectornator:layerName="navel"/>
</g>
</g>
</g>
</g>
</svg>
