<?xml version="1.0" encoding="UTF-8" standalone="no"?>
<!DOCTYPE svg PUBLIC "-//W3C//DTD SVG 1.1//EN" "http://www.w3.org/Graphics/SVG/1.1/DTD/svg11.dtd">
<!-- Created with Vectornator (http://vectornator.io/) -->
<svg height="100%" stroke-miterlimit="10" style="fill-rule:nonzero;clip-rule:evenodd;stroke-linecap:round;stroke-linejoin:round;" version="1.1" viewBox="0 0 312.051 107.562" width="100%" xml:space="preserve" xmlns="http://www.w3.org/2000/svg" xmlns:xlink="http://www.w3.org/1999/xlink">
<defs>
<radialGradient cx="0" cy="0" gradientTransform="matrix(-41.1769 -4.28395 -4.53891 41.5561 264.026 44.6606)" gradientUnits="userSpaceOnUse" id="RadialGradient" r="1">
<stop offset="0.707983" stop-color="#d38218"/>
<stop offset="1" stop-color="#ffffff"/>
</radialGradient>
<radialGradient cx="0" cy="0" gradientTransform="matrix(9.5502 -19.6884 19.9219 9.22423 246.508 52.7505)" gradientUnits="userSpaceOnUse" id="RadialGradient_2" r="1">
<stop offset="0" stop-color="#ffffff"/>
<stop offset="1" stop-color="#f7b55e"/>
</radialGradient>
<linearGradient gradientTransform="matrix(-5.55405 14.8174 -14.6543 -5.4965 255.347 61.8831)" gradientUnits="userSpaceOnUse" id="LinearGradient" x1="0" x2="1" y1="0" y2="0">
<stop offset="0.521008" stop-color="#f2a847"/>
<stop offset="0.926471" stop-color="#ffffff"/>
</linearGradient>
<linearGradient gradientTransform="matrix(9.87276 -14.8492 14.6554 9.85159 261.357 56.4107)" gradientUnits="userSpaceOnUse" id="LinearGradient_2" x1="0" x2="1" y1="0" y2="0">
<stop offset="0.516807" stop-color="#d38218"/>
<stop offset="0.926471" stop-color="#ffffff"/>
</linearGradient>
<filter color-interpolation-filters="sRGB" filterUnits="userSpaceOnUse" height="12.866" id="Filter" width="51.9192" x="20.1964" y="60.3442">
<feDropShadow dx="1.28548" dy="1.3192" flood-color="#000000" flood-opacity="0.730435" in="SourceGraphic" result="Shadow" stdDeviation="0.0968992"/>
</filter>
<linearGradient gradientTransform="matrix(10.3254 -9.89514 9.89514 10.3254 28.4398 34.2069)" gradientUnits="userSpaceOnUse" id="LinearGradient_3" x1="0" x2="1" y1="0" y2="0">
<stop offset="0" stop-color="#685f01"/>
<stop offset="1" stop-color="#ffe903"/>
</linearGradient>
</defs>
<g id="mark-front-">
<path d="M40.58 9.42183C77.7052 8.16098 83.3877 40.98 83.3877 40.98L218.134 40.5883C218.134 40.5883 223.774 5.17314 251.807 5.58784C272.958 5.90072 282.661 24.3322 284.011 39.988C300.417 39.801 303.302 39.8974 303.302 39.8974L303.469 103.535L10.3453 102.06C10.3453 102.06 10.0431 93.9744 10.0595 68.5489C-0.537858 52.7112 2.96451 14.4652 40.58 9.42183Z" fill="#14008d" fill-rule="nonzero" opacity="1" stroke="#000000" stroke-linecap="butt" stroke-linejoin="round" stroke-opacity="0" stroke-width="0.3"/>
<path d="M299.713 43.9089L299.711 99.7194L12.6563 99.6753L12.6577 43.8648L220.904 44.0421C220.904 44.0421 223.731 8.81597 252.165 8.79059C280.599 8.76521 280.266 43.9057 280.266 43.9057L299.713 43.9089Z" fill="#a8a3c8" fill-opacity="0" fill-rule="nonzero" opacity="1" stroke="#fffdfd" stroke-linecap="butt" stroke-linejoin="round" stroke-width="3"/>
<g fill="#ffffff" opacity="0" stroke="none">
<path d="M99.5426 68.5516L96.635 68.5826L95.8572 66.3861L91.8144 66.4292L91.0836 68.6417L88.2493 68.6719L92.1612 57.7238L95.3983 57.6893L99.5426 68.5516ZM95.1548 64.394L93.7728 60.4974L92.4743 64.4225L95.1548 64.394Z"/>
<path d="M112.203 68.4167L109.551 68.4449L109.508 64.3656C109.504 64.0336 109.484 63.7029 109.446 63.3737C109.408 63.0445 109.347 62.8022 109.263 62.6469C109.163 62.4673 109.019 62.337 108.83 62.256C108.641 62.175 108.378 62.1363 108.041 62.1399C107.802 62.1424 107.56 62.1841 107.314 62.2648C107.068 62.3456 106.802 62.4729 106.516 62.6469L106.578 68.4766L103.941 68.5047L103.82 57.1089L106.457 57.0808L106.5 61.1601C106.965 60.7889 107.412 60.5034 107.842 60.3035C108.272 60.1036 108.751 60.0008 109.278 59.9952C110.167 59.9857 110.864 60.2371 111.37 60.7493C111.876 61.2615 112.135 62.0328 112.146 63.063L112.203 68.4167Z"/>
<path d="M118.51 66.2034L118.492 64.4896C118.135 64.5227 117.75 64.5671 117.336 64.6228C116.921 64.6784 116.607 64.7416 116.393 64.8123C116.13 64.8981 115.93 65.0211 115.793 65.1812C115.655 65.3414 115.588 65.5509 115.59 65.8096C115.592 65.9805 115.608 66.1195 115.639 66.2266C115.669 66.3337 115.744 66.4355 115.862 66.5319C115.975 66.6283 116.11 66.6989 116.267 66.7436C116.424 66.7884 116.668 66.809 117 66.8054C117.264 66.8026 117.53 66.746 117.8 66.6357C118.07 66.5254 118.307 66.3813 118.51 66.2034ZM118.523 67.4777C118.383 67.5866 118.209 67.7179 118 67.8715C117.792 68.0251 117.595 68.1468 117.411 68.2367C117.153 68.3566 116.886 68.4461 116.608 68.5052C116.33 68.5644 116.025 68.5957 115.693 68.5992C114.912 68.6075 114.255 68.3728 113.723 67.8951C113.19 67.4173 112.92 66.8025 112.912 66.0506C112.906 65.45 113.035 64.9579 113.299 64.5742C113.564 64.1905 113.941 63.8862 114.432 63.6612C114.918 63.4363 115.522 63.2736 116.244 63.1731C116.965 63.0727 117.714 62.9963 118.49 62.9441L118.489 62.9002C118.484 62.4461 118.296 62.1344 117.923 61.965C117.55 61.7956 117.002 61.7148 116.279 61.7225C115.845 61.7271 115.382 61.8089 114.89 61.968C114.399 62.1271 114.046 62.2492 113.832 62.3345L113.59 62.3371L113.569 60.3523C113.847 60.2761 114.299 60.1846 114.925 60.0779C115.551 59.9711 116.18 59.9144 116.809 59.9076C118.308 59.8917 119.393 60.1108 120.065 60.5651C120.736 61.0194 121.077 61.7397 121.088 62.726L121.147 68.3214L118.533 68.3492L118.523 67.4777Z"/>
<path d="M131.036 63.9897C131.043 64.6684 130.946 65.2871 130.744 65.8459C130.543 66.4048 130.275 66.8666 129.942 67.2315C129.595 67.6161 129.2 67.9084 128.758 68.1084C128.315 68.3085 127.84 68.4112 127.333 68.4166C126.864 68.4216 126.465 68.3758 126.137 68.2792C125.809 68.1826 125.473 68.0458 125.129 67.8688L125.166 71.2963L122.529 71.3244L122.41 60.0824L125.046 60.0543L125.055 60.9111C125.457 60.5846 125.868 60.319 126.288 60.1143C126.708 59.9096 127.194 59.8043 127.746 59.7984C128.772 59.7875 129.573 60.155 130.149 60.9008C130.726 61.6467 131.022 62.6763 131.036 63.9897ZM128.319 64.0699C128.311 63.2692 128.168 62.6896 127.89 62.3312C127.613 61.9728 127.179 61.7968 126.588 61.8031C126.339 61.8057 126.083 61.8463 125.82 61.9248C125.558 62.0033 125.307 62.1146 125.07 62.2587L125.114 66.3967C125.29 66.4632 125.479 66.5051 125.679 66.5225C125.879 66.5399 126.077 66.5476 126.273 66.5455C126.971 66.538 127.489 66.3286 127.826 65.9173C128.163 65.506 128.328 64.8902 128.319 64.0699Z"/>
<path d="M140.449 63.8894C140.456 64.5681 140.359 65.1868 140.157 65.7456C139.956 66.3045 139.689 66.7663 139.356 67.1312C139.008 67.5158 138.613 67.8081 138.171 68.0081C137.729 68.2082 137.254 68.3109 136.746 68.3163C136.277 68.3213 135.879 68.2755 135.551 68.1789C135.222 68.0823 134.886 67.9455 134.543 67.7685L134.579 71.196L131.943 71.2241L131.823 59.9821L134.459 59.954L134.469 60.8108C134.87 60.4843 135.281 60.2187 135.702 60.014C136.122 59.8093 136.608 59.704 137.16 59.6981C138.185 59.6872 138.986 60.0547 139.563 60.8005C140.14 61.5464 140.435 62.576 140.449 63.8894ZM137.732 63.9696C137.724 63.1689 137.581 62.5893 137.304 62.2309C137.026 61.8725 136.592 61.6965 136.002 61.7028C135.753 61.7054 135.497 61.746 135.234 61.8245C134.971 61.903 134.721 62.0143 134.483 62.1584L134.527 66.2964C134.704 66.3629 134.892 66.4048 135.092 66.4222C135.293 66.4396 135.491 66.4473 135.686 66.4452C136.384 66.4377 136.902 66.2283 137.239 65.817C137.577 65.4057 137.741 64.7899 137.732 63.9696Z"/>
<path d="M145.006 65.1593L146.824 59.8222L149.534 59.7933L145.084 71.0841L142.228 71.1145L143.498 68.0246L140.211 59.8927L142.979 59.8632L145.006 65.1593Z"/>
<path d="M160.246 60.3384C160.243 60.065 160.184 59.8312 160.07 59.6371C159.955 59.443 159.761 59.2913 159.486 59.1819C159.295 59.1058 159.072 59.0606 158.818 59.0462C158.564 59.0318 158.269 59.0264 157.932 59.03L156.914 59.0408L156.945 61.9777L157.809 61.9685C158.259 61.9637 158.634 61.9377 158.937 61.8905C159.239 61.8434 159.492 61.7406 159.695 61.5822C159.889 61.4287 160.03 61.26 160.118 61.0759C160.207 60.8919 160.249 60.646 160.246 60.3384ZM164.713 67.8572L161.279 67.8938L158.262 63.9267L156.966 63.9405L157.009 67.9393L154.211 67.9691L154.095 57.0639L158.811 57.0137C159.456 57.0068 160.01 57.0375 160.475 57.1058C160.94 57.1741 161.376 57.3282 161.784 57.568C162.196 57.8077 162.526 58.1204 162.772 58.506C163.017 58.8916 163.143 59.3773 163.15 59.9632C163.158 60.7688 162.979 61.4275 162.61 61.9393C162.242 62.4511 161.713 62.8791 161.024 63.2234L164.713 67.8572Z"/>
<path d="M174.947 67.7481L172.039 67.7791L171.262 65.5827L167.219 65.6258L166.488 67.8383L163.654 67.8685L167.566 56.9204L170.803 56.8859L174.947 67.7481ZM170.559 63.5905L169.177 59.6939L167.879 63.6191L170.559 63.5905Z"/>
<path d="M180.371 67.9027C179.561 67.9114 178.811 67.7997 178.123 67.5678C177.434 67.3359 176.841 66.9857 176.342 66.5174C175.844 66.049 175.456 65.4623 175.177 64.7572C174.899 64.0521 174.755 63.2358 174.745 62.3081C174.736 61.4439 174.857 60.6588 175.108 59.953C175.359 59.2472 175.729 58.6402 176.217 58.132C176.685 57.6436 177.268 57.2638 177.966 56.9927C178.664 56.7216 179.428 56.5816 180.258 56.5727C180.717 56.5679 181.131 56.5891 181.5 56.6364C181.869 56.6838 182.21 56.7473 182.524 56.8269C182.852 56.9162 183.15 57.0168 183.417 57.1287C183.684 57.2406 183.919 57.3443 184.12 57.4399L184.148 60.0837L183.826 60.0872C183.688 59.9715 183.514 59.8341 183.305 59.6752C183.096 59.5163 182.858 59.3601 182.593 59.2067C182.323 59.0533 182.031 58.9246 181.717 58.8205C181.404 58.7164 181.069 58.6663 180.712 58.6701C180.317 58.6743 179.941 58.7405 179.586 58.8688C179.231 58.9972 178.904 59.2069 178.604 59.4982C178.319 59.7796 178.09 60.1507 177.917 60.6116C177.743 61.0724 177.66 61.63 177.667 62.2843C177.674 62.9678 177.777 63.5381 177.975 63.995C178.172 64.4519 178.419 64.8106 178.715 65.0711C179.016 65.3365 179.35 65.5246 179.717 65.6354C180.084 65.7463 180.446 65.7998 180.803 65.796C181.145 65.7923 181.482 65.7375 181.816 65.6314C182.149 65.5253 182.456 65.3828 182.738 65.204C182.975 65.0599 183.196 64.9062 183.399 64.7429C183.603 64.5796 183.77 64.4386 183.9 64.32L184.193 64.3169L184.221 66.9242C183.949 67.0492 183.689 67.1667 183.441 67.2767C183.193 67.3868 182.933 67.4824 182.66 67.5634C182.305 67.6697 181.971 67.7514 181.659 67.8085C181.347 67.8655 180.918 67.8969 180.371 67.9027Z"/>
<path d="M190.151 67.7985C189.34 67.8072 188.591 67.6955 187.902 67.4636C187.214 67.2317 186.62 66.8815 186.122 66.4132C185.624 65.9448 185.236 65.3581 184.957 64.653C184.678 63.9479 184.534 63.1316 184.524 62.2039C184.515 61.3397 184.636 60.5546 184.887 59.8488C185.139 59.143 185.508 58.536 185.996 58.0278C186.465 57.5394 187.048 57.1596 187.746 56.8885C188.443 56.6174 189.207 56.4774 190.037 56.4685C190.496 56.4637 190.91 56.4849 191.28 56.5322C191.649 56.5796 191.99 56.6431 192.303 56.7227C192.631 56.812 192.929 56.9126 193.196 57.0245C193.464 57.1364 193.698 57.2401 193.899 57.3356L193.927 59.9795L193.605 59.983C193.467 59.8673 193.294 59.7299 193.084 59.571C192.875 59.4121 192.638 59.2559 192.373 59.1025C192.102 58.9491 191.811 58.8204 191.497 58.7163C191.183 58.6122 190.848 58.5621 190.492 58.5659C190.096 58.5701 189.721 58.6363 189.366 58.7646C189.011 58.8929 188.683 59.1027 188.384 59.394C188.099 59.6754 187.87 60.0465 187.696 60.5074C187.523 60.9682 187.44 61.5258 187.447 62.1801C187.454 62.8636 187.556 63.4338 187.754 63.8908C187.952 64.3477 188.199 64.7064 188.494 64.9669C188.795 65.2323 189.129 65.4204 189.497 65.5312C189.864 65.6421 190.226 65.6956 190.582 65.6918C190.924 65.6881 191.262 65.6333 191.595 65.5272C191.928 65.4211 192.236 65.2786 192.517 65.0998C192.755 64.9557 192.975 64.802 193.179 64.6387C193.382 64.4754 193.549 64.3344 193.68 64.2158L193.973 64.2127L194 66.82C193.728 66.945 193.468 67.0625 193.22 67.1725C192.973 67.2826 192.712 67.3782 192.44 67.4592C192.084 67.5655 191.751 67.6472 191.439 67.7042C191.127 67.7613 190.698 67.7927 190.151 67.7985Z"/>
<path d="M205.546 61.9726C205.564 63.7107 205.081 65.0966 204.096 66.1301C203.111 67.1636 201.739 67.6897 199.982 67.7084C198.229 67.7271 196.849 67.2303 195.842 66.218C194.835 65.2058 194.322 63.8305 194.304 62.0924C194.285 60.3395 194.768 58.9488 195.754 57.9202C196.739 56.8916 198.108 56.3679 199.861 56.3492C201.609 56.3306 202.988 56.825 204 57.8323C205.012 58.8396 205.527 60.2197 205.546 61.9726ZM201.848 64.7734C202.117 64.4384 202.316 64.0445 202.443 63.5914C202.57 63.1384 202.63 62.6067 202.624 61.9964C202.617 61.3421 202.535 60.7863 202.379 60.329C202.223 59.8716 202.021 59.5027 201.774 59.2221C201.522 58.9318 201.232 58.7224 200.906 58.5941C200.58 58.4657 200.241 58.4034 199.89 58.4071C199.533 58.4109 199.198 58.478 198.885 58.6083C198.571 58.7386 198.284 58.9516 198.024 59.2474C197.783 59.5234 197.588 59.9027 197.439 60.3853C197.29 60.8678 197.219 61.4265 197.226 62.0612C197.233 62.7106 197.313 63.2627 197.467 63.7177C197.621 64.1726 197.821 64.5428 198.069 64.8283C198.316 65.1137 198.604 65.3231 198.932 65.4563C199.261 65.5895 199.606 65.6542 199.967 65.6504C200.328 65.6465 200.672 65.5733 200.998 65.4306C201.323 65.288 201.606 65.0689 201.848 64.7734Z"/>
<path d="M217.222 61.8482C217.241 63.5863 216.758 64.9722 215.772 66.0057C214.787 67.0392 213.416 67.5653 211.658 67.584C209.905 67.6027 208.525 67.1059 207.518 66.0936C206.512 65.0814 205.999 63.7061 205.98 61.9679C205.962 60.2151 206.445 58.8244 207.43 57.7958C208.415 56.7671 209.784 56.2435 211.537 56.2248C213.285 56.2062 214.665 56.7005 215.677 57.7079C216.688 58.7152 217.204 60.0953 217.222 61.8482ZM213.524 64.6489C213.794 64.314 213.992 63.92 214.119 63.467C214.246 63.014 214.307 62.4823 214.3 61.872C214.293 61.2177 214.211 60.6619 214.055 60.2046C213.899 59.7472 213.697 59.3782 213.45 59.0977C213.198 58.8074 212.909 58.598 212.583 58.4697C212.257 58.3413 211.918 58.279 211.566 58.2827C211.21 58.2865 210.875 58.3536 210.561 58.4839C210.248 58.6142 209.961 58.8272 209.7 59.123C209.459 59.399 209.264 59.7783 209.115 60.2609C208.967 60.7434 208.896 61.3021 208.902 61.9368C208.909 62.5862 208.99 63.1383 209.144 63.5933C209.297 64.0482 209.498 64.4184 209.745 64.7039C209.992 64.9893 210.28 65.1987 210.609 65.3319C210.937 65.4651 211.282 65.5298 211.644 65.526C212.005 65.5221 212.348 65.4489 212.674 65.3062C213 65.1636 213.283 64.9445 213.524 64.6489Z"/>
<path d="M228.268 67.18L225.559 67.2089L220.85 59.7732L220.93 67.2582L218.352 67.2856L218.236 56.3805L221.597 56.3447L225.641 62.5495L225.574 56.3023L228.152 56.2748L228.268 67.18Z"/>
<path d="M107.311 78.4742L104.85 86.726L102.053 86.7558L100.316 81.2296L98.7275 86.7913L95.8932 86.8215L93.2788 78.6238L96.0472 78.5943L97.5138 84.2479L99.2111 78.5606L101.547 78.5357L103.278 84.1865L104.601 78.5031L107.311 78.4742Z"/>
<path d="M112.857 84.4946L112.838 82.7808C112.482 82.8139 112.097 82.8583 111.682 82.914C111.268 82.9697 110.954 83.0329 110.74 83.1035C110.477 83.1893 110.277 83.3123 110.139 83.4725C110.002 83.6326 109.934 83.8421 109.937 84.1009C109.939 84.2718 109.955 84.4108 109.986 84.5179C110.016 84.625 110.09 84.7267 110.208 84.8231C110.322 84.9196 110.457 84.9902 110.614 85.0349C110.77 85.0796 111.015 85.1002 111.347 85.0967C111.61 85.0939 111.877 85.0373 112.147 84.927C112.417 84.8167 112.653 84.6726 112.857 84.4946ZM112.87 85.7689C112.73 85.8779 112.555 86.0091 112.347 86.1627C112.139 86.3163 111.942 86.4381 111.758 86.5279C111.5 86.6479 111.232 86.7374 110.955 86.7965C110.677 86.8556 110.372 86.8869 110.04 86.8905C109.259 86.8988 108.602 86.6641 108.07 86.1863C107.537 85.7086 107.267 85.0937 107.259 84.3418C107.252 83.7413 107.382 83.2492 107.646 82.8655C107.91 82.4818 108.288 82.1774 108.779 81.9525C109.265 81.7275 109.869 81.5649 110.59 81.4644C111.312 81.3639 112.061 81.2876 112.836 81.2354L112.836 81.1914C112.831 80.7373 112.642 80.4256 112.269 80.2562C111.896 80.0869 111.349 80.006 110.626 80.0137C110.191 80.0184 109.728 80.1002 109.237 80.2593C108.745 80.4183 108.393 80.5405 108.179 80.6258L107.937 80.6283L107.916 78.6436C108.193 78.5674 108.645 78.4759 109.272 78.3691C109.898 78.2623 110.526 78.2056 111.156 78.1989C112.655 78.1829 113.74 78.4021 114.412 78.8564C115.083 79.3107 115.424 80.031 115.434 81.0172L115.494 86.6126L112.879 86.6405L112.87 85.7689Z"/>
<path d="M125.105 86.5102L122.454 86.5385L122.41 82.4591C122.407 82.1271 122.386 81.7965 122.349 81.4673C122.311 81.1381 122.25 80.8958 122.165 80.7404C122.065 80.5608 121.921 80.4305 121.732 80.3495C121.544 80.2685 121.281 80.2298 120.944 80.2334C120.704 80.2359 120.462 80.2776 120.216 80.3583C119.971 80.4391 119.705 80.5664 119.418 80.7404L119.48 86.5701L116.844 86.5982L116.756 78.3736L119.393 78.3455L119.402 79.2537C119.867 78.8825 120.315 78.5969 120.745 78.397C121.175 78.1971 121.653 78.0944 122.181 78.0887C123.069 78.0793 123.767 78.3307 124.273 78.8429C124.779 79.3551 125.037 80.1263 125.048 81.1565L125.105 86.5102Z"/>
<path d="M131.713 86.3666C131.43 86.4428 131.131 86.5034 130.814 86.5483C130.497 86.5932 130.109 86.618 129.65 86.6229C128.625 86.6339 127.859 86.4345 127.355 86.0248C126.85 85.6151 126.592 84.9074 126.581 83.9016L126.54 80.0566L125.456 80.0681L125.437 78.2811L126.521 78.2696L126.496 75.9186L129.133 75.8905L129.158 78.2415L131.626 78.2152L131.645 80.0022L129.177 80.0285L129.208 82.9434C129.211 83.2314 129.216 83.4828 129.223 83.6976C129.23 83.9124 129.271 84.1048 129.346 84.275C129.417 84.4451 129.539 84.5793 129.713 84.6776C129.888 84.7758 130.141 84.8232 130.473 84.8196C130.61 84.8182 130.789 84.787 131.01 84.726C131.232 84.665 131.386 84.6097 131.474 84.5599L131.693 84.5576L131.713 86.3666Z"/>
<path d="M139.334 83.751C139.343 84.6006 138.969 85.2894 138.213 85.8175C137.457 86.3456 136.418 86.6167 135.094 86.6308C134.362 86.6386 133.697 86.5774 133.1 86.447C132.503 86.3166 132.023 86.1704 131.66 86.0082L131.637 83.8404L131.878 83.8378C132.011 83.9292 132.165 84.0288 132.339 84.1369C132.514 84.2449 132.761 84.3607 133.079 84.4842C133.354 84.5936 133.665 84.6867 134.012 84.7636C134.36 84.8405 134.731 84.8768 135.127 84.8726C135.644 84.8671 136.027 84.8056 136.275 84.6882C136.523 84.5708 136.645 84.3998 136.643 84.1752C136.641 83.9751 136.566 83.8306 136.419 83.7418C136.271 83.653 135.992 83.5693 135.581 83.4907C135.385 83.4489 135.12 83.4041 134.785 83.3564C134.45 83.3087 134.145 83.2496 133.871 83.1793C133.122 82.992 132.565 82.694 132.199 82.2852C131.833 81.8765 131.647 81.3645 131.64 80.7493C131.632 79.9584 132 79.2965 132.744 78.7636C133.487 78.2307 134.509 77.9574 135.808 77.9436C136.423 77.937 137.013 77.993 137.578 78.1115C138.143 78.23 138.586 78.3583 138.904 78.4965L138.927 80.5765L138.7 80.5789C138.306 80.3145 137.858 80.1008 137.356 79.9377C136.854 79.7745 136.346 79.6957 135.834 79.7012C135.409 79.7057 135.052 79.7681 134.763 79.8884C134.473 80.0087 134.33 80.1762 134.332 80.3911C134.334 80.5864 134.402 80.7346 134.535 80.8357C134.668 80.9368 134.979 81.0361 135.468 81.1334C135.737 81.1842 136.027 81.2336 136.338 81.2816C136.648 81.3296 136.96 81.3909 137.273 81.4657C137.969 81.639 138.484 81.9179 138.82 82.3026C139.157 82.6872 139.328 83.17 139.334 83.751Z"/>
<path d="M149.348 86.1787C149.065 86.2549 148.766 86.3155 148.449 86.3604C148.132 86.4053 147.744 86.4301 147.285 86.435C146.26 86.446 145.495 86.2466 144.99 85.8369C144.485 85.4272 144.227 84.7195 144.216 83.7137L144.175 79.8687L143.091 79.8802L143.072 78.0932L144.156 78.0817L144.131 75.7307L146.768 75.7026L146.793 78.0536L149.261 78.0273L149.28 79.8143L146.812 79.8406L146.843 82.7554C146.846 83.0435 146.851 83.2949 146.858 83.5097C146.866 83.7245 146.907 83.9169 146.982 84.0871C147.052 84.2572 147.174 84.3914 147.349 84.4897C147.523 84.5879 147.776 84.6353 148.108 84.6317C148.245 84.6303 148.424 84.5991 148.646 84.5381C148.867 84.4771 149.022 84.4218 149.109 84.372L149.329 84.3697L149.348 86.1787Z"/>
<path d="M158.213 82.0483C158.227 83.4008 157.844 84.4706 157.064 85.2578C156.284 86.0449 155.181 86.4461 153.755 86.4613C152.33 86.4765 151.218 86.0989 150.421 85.3285C149.625 84.5582 149.219 83.4968 149.205 82.1443C149.19 80.7821 149.575 79.7086 150.361 78.9238C151.146 78.139 152.246 77.7391 153.662 77.724C155.098 77.7087 156.211 78.0875 157.003 78.8604C157.795 79.6332 158.199 80.6959 158.213 82.0483ZM154.99 84.0823C155.158 83.8705 155.284 83.6165 155.366 83.3202C155.448 83.0239 155.487 82.6145 155.481 82.0921C155.476 81.6087 155.428 81.2039 155.337 80.8777C155.245 80.5515 155.12 80.2916 154.962 80.098C154.804 79.8995 154.614 79.7599 154.394 79.6792C154.173 79.5986 153.936 79.5596 153.682 79.5623C153.428 79.565 153.202 79.6016 153.005 79.672C152.808 79.7425 152.621 79.8812 152.442 80.0882C152.283 80.2804 152.158 80.5429 152.066 80.876C151.974 81.209 151.931 81.627 151.937 82.1299C151.941 82.579 151.987 82.968 152.074 83.2967C152.16 83.6254 152.285 83.8889 152.448 84.0874C152.606 84.2762 152.795 84.4133 153.013 84.4989C153.231 84.5845 153.479 84.6258 153.758 84.6228C153.997 84.6202 154.225 84.5775 154.441 84.4947C154.658 84.4118 154.84 84.2743 154.99 84.0823Z"/>
<path d="M170.245 83.4217C170.254 84.2712 169.88 84.9601 169.124 85.4882C168.368 86.0163 167.328 86.2874 166.005 86.3015C165.273 86.3093 164.608 86.248 164.011 86.1176C163.414 85.9873 162.933 85.841 162.57 85.6789L162.547 83.511L162.789 83.5084C162.922 83.5998 163.075 83.6995 163.25 83.8075C163.424 83.9155 163.671 84.0313 163.99 84.1549C164.264 84.2643 164.575 84.3574 164.923 84.4342C165.27 84.5111 165.642 84.5474 166.037 84.5432C166.555 84.5377 166.938 84.4763 167.185 84.3589C167.433 84.2415 167.556 84.0705 167.554 83.8459C167.551 83.6457 167.477 83.5012 167.329 83.4125C167.182 83.3237 166.903 83.24 166.492 83.1614C166.296 83.1195 166.03 83.0747 165.695 83.027C165.36 82.9793 165.056 82.9203 164.782 82.85C164.032 82.6626 163.475 82.3646 163.109 81.9559C162.744 81.5471 162.558 81.0352 162.551 80.42C162.543 79.629 162.91 78.9671 163.654 78.4342C164.398 77.9014 165.419 77.628 166.718 77.6142C167.333 77.6076 167.924 77.6636 168.489 77.7821C169.054 77.9006 169.496 78.029 169.815 78.1672L169.837 80.2471L169.61 80.2495C169.217 79.9852 168.769 79.7714 168.267 79.6083C167.764 79.4452 167.257 79.3664 166.744 79.3718C166.319 79.3764 165.962 79.4388 165.673 79.559C165.384 79.6793 165.24 79.8469 165.243 80.0617C165.245 80.257 165.312 80.4052 165.445 80.5063C165.578 80.6075 165.889 80.7067 166.379 80.804C166.648 80.8549 166.937 80.9043 167.248 80.9522C167.559 81.0002 167.871 81.0616 168.184 81.1364C168.879 81.3096 169.395 81.5886 169.731 81.9732C170.067 82.3578 170.238 82.8407 170.245 83.4217Z"/>
<path d="M179.01 82.3102L172.975 82.3745C173.021 83.0185 173.272 83.5091 173.727 83.846C174.182 84.183 174.849 84.3468 175.728 84.3374C176.285 84.3315 176.823 84.2257 177.343 84.0199C177.864 83.8142 178.274 83.5949 178.574 83.3622L178.867 83.3591L178.89 85.4757C178.297 85.7213 177.737 85.9006 177.211 86.0136C176.685 86.1267 176.102 86.1866 175.462 86.1934C173.812 86.211 172.543 85.8534 171.657 85.1206C170.77 84.3878 170.319 83.3354 170.304 81.9634C170.29 80.6061 170.695 79.5263 171.519 78.724C172.343 77.9217 173.48 77.5128 174.93 77.4974C176.268 77.4831 177.277 77.8105 177.958 78.4796C178.639 79.1486 178.986 80.1179 179 81.3874L179.01 82.3102ZM176.371 80.7928C176.351 80.2412 176.21 79.8276 175.948 79.5521C175.686 79.2766 175.282 79.1417 174.735 79.1475C174.227 79.1529 173.811 79.2892 173.487 79.5563C173.163 79.8235 172.984 80.2478 172.951 80.8292L176.371 80.7928Z"/>
<path d="M187.896 82.2155L181.861 82.2798C181.907 82.9239 182.158 83.4144 182.613 83.7513C183.068 84.0883 183.735 84.2521 184.614 84.2427C185.171 84.2368 185.709 84.131 186.229 83.9252C186.75 83.7195 187.16 83.5002 187.46 83.2675L187.753 83.2644L187.776 85.381C187.183 85.6266 186.623 85.8059 186.097 85.9189C185.571 86.032 184.988 86.0919 184.348 86.0987C182.698 86.1163 181.429 85.7587 180.543 85.0259C179.656 84.2931 179.205 83.2407 179.191 81.8688C179.176 80.5114 179.581 79.4316 180.405 78.6293C181.229 77.827 182.366 77.4182 183.816 77.4027C185.154 77.3885 186.163 77.7159 186.844 78.3849C187.525 79.054 187.873 80.0232 187.886 81.2927L187.896 82.2155ZM185.258 80.6981C185.237 80.1465 185.096 79.733 184.834 79.4574C184.572 79.1819 184.168 79.047 183.621 79.0528C183.113 79.0582 182.697 79.1945 182.373 79.4617C182.049 79.7288 181.87 80.1531 181.837 80.7345L185.258 80.6981Z"/>
<path d="M196.455 82.8421L198.273 77.505L200.983 77.4762L196.533 88.7669L193.676 88.7973L194.947 85.7074L191.66 77.5755L194.428 77.546L196.455 82.8421Z"/>
<path d="M209.825 81.4984C209.839 82.8509 209.457 83.9207 208.676 84.7078C207.896 85.495 206.793 85.8962 205.367 85.9114C203.942 85.9266 202.83 85.549 202.034 84.7786C201.237 84.0083 200.831 82.9468 200.817 81.5944C200.802 80.2322 201.188 79.1586 201.973 78.3739C202.758 77.5891 203.858 77.1892 205.274 77.1741C206.71 77.1588 207.824 77.5376 208.615 78.3104C209.407 79.0833 209.811 80.1459 209.825 81.4984ZM206.602 83.5324C206.771 83.3206 206.896 83.0666 206.978 82.7703C207.061 82.4739 207.099 82.0646 207.093 81.5421C207.088 81.0588 207.04 80.654 206.949 80.3278C206.857 80.0016 206.732 79.7417 206.574 79.5481C206.416 79.3495 206.226 79.2099 206.006 79.1293C205.785 79.0486 205.548 79.0096 205.294 79.0124C205.04 79.0151 204.815 79.0516 204.618 79.1221C204.421 79.1926 204.233 79.3313 204.054 79.5383C203.895 79.7304 203.77 79.993 203.678 80.326C203.587 80.6591 203.543 81.077 203.549 81.5799C203.554 82.0291 203.599 82.4181 203.686 82.7467C203.772 83.0754 203.897 83.339 204.06 83.5375C204.219 83.7262 204.407 83.8634 204.625 83.949C204.843 84.0345 205.092 84.0758 205.37 84.0729C205.609 84.0703 205.837 84.0276 206.053 83.9447C206.27 83.8618 206.453 83.7244 206.602 83.5324Z"/>
<path d="M218.879 85.511L216.243 85.5391L216.233 84.631C215.749 85.0073 215.305 85.294 214.902 85.4912C214.499 85.6883 214.016 85.7899 213.455 85.7959C212.547 85.8056 211.845 85.5518 211.348 85.0346C210.852 84.5174 210.598 83.7486 210.588 82.7281L210.531 77.3744L213.182 77.3462L213.225 81.4255C213.23 81.8406 213.247 82.1859 213.277 82.4614C213.306 82.737 213.371 82.9646 213.471 83.1442C213.565 83.3239 213.707 83.4542 213.896 83.5352C214.085 83.6162 214.348 83.6549 214.685 83.6513C214.909 83.6489 215.158 83.6048 215.43 83.5189C215.703 83.4329 215.965 83.3081 216.217 83.1442L216.155 77.3145L218.792 77.2864L218.879 85.511Z"/>
<path d="M223.482 74.5556L223.228 82.3224L220.84 82.3479L220.421 74.5882L223.482 74.5556ZM223.547 85.4613L220.588 85.4928L220.568 83.5593L223.526 83.5278L223.547 85.4613Z"/>
</g>
<g opacity="1">
<path d="M265.977 50.7036C265.98 51.2237 269.756 55.948 271.69 56.5751C273.354 57.1144 276.815 54.4897 278.983 55.0661C280.186 55.3858 281.906 57.4702 283.23 57.6465C284.824 57.8586 285.457 58.9716 287.088 59.3661C290.331 60.1506 291.193 61.1407 293.648 62.8371C294.975 63.7534 297.35 67.7264 298.191 68.6054C299.146 69.6027 297.204 70.0591 294.76 71.3898C292.992 72.3527 291.661 73.2198 289.661 73.4665C288.236 73.6423 286.187 73.2748 284.687 73.4369C281.081 73.8265 282.12 71.8824 279.736 70.8646C277.603 69.9542 274.185 69.9533 273.473 69.3316C272.513 68.4927 272.146 66.0203 271.39 64.8806C270.635 63.741 270.219 61.297 268.525 60.9205C265.628 60.277 262.53 61.4971 261.426 59.7827C261.075 59.2365 255.956 60.134 255.708 60.2242C255.498 60.3001 251.028 74.9281 247.905 73.3795C245.117 71.9966 242.525 77.0817 239.237 75.9855C236.021 74.9137 233.158 74.7143 233.778 72.8605C234.556 70.535 244.681 70.4121 245.104 69.5536C247.199 65.3074 243.025 44.5119 240.984 41.1573C239.313 38.4122 229.959 35.3638 227.207 35.3223C224.951 35.2882 223.458 34.1599 223.597 32.2387C223.737 30.3176 226.838 32.1201 226.443 31.2172C225.753 29.636 224.892 28.6966 225.385 27.6899C226.302 25.8197 228.775 27.676 228.918 26.7689C229.067 25.8181 228.625 23.0723 231.515 23.8008C233.377 24.27 231.325 30.299 236.924 33.2792C239.346 34.5684 246.962 29.182 251.719 32.0461C259.377 36.6578 265.973 50.128 265.977 50.7036Z" fill="url(#RadialGradient)" fill-rule="nonzero" opacity="1" stroke="#000000" stroke-linecap="butt" stroke-linejoin="round" stroke-width="1"/>
<g opacity="1">
<path d="M242.716 20.7774C241.828 22.4945 240.968 24.9722 240.136 26.8243C239.163 28.9923 238.677 28.1673 237.497 29.8799C233.265 36.0203 231.646 43.2646 231.663 48.2941C231.68 52.8978 232.931 57.0975 237.525 60.4698C238.648 61.2947 238.833 62.9391 239.824 64.2603C240.246 64.8221 242.449 65.2255 243.015 65.7221C244.568 67.0848 253.888 67.7095 255.848 66.8601C256.336 66.6488 268.175 64.7828 268.549 64.5914C271.726 62.9661 274.122 58.3532 274.063 56.9433C273.946 54.1367 275.638 51.7065 274.253 49.9749C273.959 49.6076 273.305 48.3936 273.106 47.5107C272.874 46.4819 271.62 41.1901 271.831 40.9462C272.968 39.6302 272.905 38.393 272.041 34.3929C271.827 33.4025 270.79 29.3835 270.61 28.4772C270.168 26.2542 270.342 24.5237 270.242 23.133C270.158 21.984 269.679 18.2819 269.888 17.1155C270.097 15.9448 270.665 14.7038 270.379 13.9986C269.974 13 267.626 12.8618 266.349 13.5268C264.797 14.3355 264.479 15.7777 263.983 16.0788C263.297 16.4948 261.662 15.0148 259.78 14.8143C258.081 14.6332 255.954 14.986 254.746 15.2017C253.357 15.4498 252.884 14.6196 252.208 13.2895C251.607 12.1065 251.746 11.155 251.312 10.6732C250.851 10.1621 249.521 9.64924 247.93 10.41C246.728 10.9846 246.003 12.0193 245.828 12.8623C245.678 13.5849 245.5 13.6027 245.629 14.8446C245.757 16.0864 246.312 17.2634 246.075 17.3933C245.501 17.7083 243.282 19.6826 242.716 20.7774Z" fill="#f7b55e" fill-rule="nonzero" opacity="1" stroke="#000000" stroke-linecap="butt" stroke-linejoin="round" stroke-width="1"/>
<path d="M253.748 40.4725C248.07 40.2173 247.914 38.0422 245.606 36.6955C242.532 34.9021 238.184 35.6947 235.624 38.4764C232.607 41.7532 231.629 47.43 231.703 49.6371C231.76 51.3419 232.65 55.7865 235.725 58.7154C237.377 60.2894 238.132 59.7977 239.755 63.9075C240.177 64.9781 241.248 64.6057 243.174 65.8229C245.1 67.04 249.138 66.9531 249.506 66.9776C256.068 67.415 260.249 57.611 261.516 51.3752C262.142 48.2928 263.642 40.6104 261.505 38.9004C259.282 37.1222 258.591 40.6902 253.748 40.4725Z" fill="url(#RadialGradient_2)" fill-rule="nonzero" opacity="1" stroke="#000000" stroke-linecap="butt" stroke-linejoin="round" stroke-opacity="0" stroke-width="1"/>
<path d="M260.318 60.3478C256.224 60.4476 254.574 61.719 252.134 63.6604C250.559 64.9141 251.095 68.3891 248.883 68.874C243.95 69.9552 238.908 68.0349 238.255 68.9151C236.709 70.9991 239.004 72.6555 243.682 72.899C244.658 72.9498 248.655 73.6596 250.466 76.0733C252.389 78.637 258.113 77.4332 258.033 76.6959C257.953 75.9586 260.852 71.7754 261.907 71.1072C265.664 68.7258 269.354 65.2286 269.361 63.2685C269.367 61.3084 264.256 60.2518 260.318 60.3478Z" fill="url(#LinearGradient)" fill-rule="nonzero" opacity="1" stroke="#000000" stroke-linecap="butt" stroke-linejoin="round" stroke-width="1"/>
<path d="M256.826 49.1396C256.826 49.1396 257.905 47.911 259.251 47.6661C261.856 47.1919 266.003 46.4821 266.103 46.9167C266.222 47.4335 262.138 48.1029 259.594 49.4349C257.91 50.3168 257.557 52.6737 257.819 52.6273C258.518 52.5035 258.977 50.2671 260.253 49.5413C263.602 47.635 268.484 45.5997 269.542 45.3198C272.004 44.6691 272.361 40.9715 273.717 41.6269C274.766 42.1338 263.903 46.8928 259.111 47.9952C257.708 48.3181 256.684 49.562 256.826 49.1396Z" fill="#010101" fill-rule="nonzero" opacity="1" stroke="#000000" stroke-linecap="round" stroke-linejoin="round" stroke-width="3.54766"/>
<path d="M269.169 54.2012C269.814 52.2642 266.798 51.2938 267.736 49.802C268.675 48.3102 271.079 45.9962 271.511 44.8538C271.721 44.3021 271.833 42.482 270.594 41.8254C269.267 41.1225 266.554 41.6042 265.903 41.7163C265.358 41.8101 265.651 42.9816 264.79 43.2387C263.663 43.5754 263.652 42.9589 262.706 43.2296C261.038 43.707 261.242 44.925 261.011 46.4489C260.78 47.9728 264.052 50.4158 263.527 51.5186C263.001 52.6214 261.871 54.8781 263.042 55.5088C264.213 56.1394 268.525 56.1382 269.169 54.2012Z" fill="url(#LinearGradient_2)" fill-rule="nonzero" opacity="1" stroke="#000000" stroke-linecap="butt" stroke-linejoin="round" stroke-width="1"/>
<g opacity="1">
<path d="M248.597 29.9793C250.121 28.1475 250.22 27.3901 253.605 27.0757C255.354 26.9133 256.973 28.8474 258.484 29.7101C259.447 30.2602 260.673 31.3967 262.341 31.4113C264.163 31.4273 266.984 31.1414 266.325 28.1189C264.193 18.3401 247.496 18.5284 242.619 24.0342C241.199 25.6368 241.467 27.9361 242.744 29.818C244.308 32.1235 246.78 32.1625 248.597 29.9793Z" fill="#100f18" fill-rule="nonzero" opacity="0.506787" stroke="#000000" stroke-linecap="butt" stroke-linejoin="round" stroke-width="0.3"/>
<path d="M259.147 24.8527C258.183 24.9023 258.188 26.416 259.131 26.4479C259.483 26.4599 259.707 26.1945 259.787 25.8769C259.905 25.4075 259.709 24.8238 259.147 24.8527Z" fill="#ffffff" fill-rule="nonzero" opacity="1" stroke="#000000" stroke-linecap="butt" stroke-linejoin="round" stroke-width="0.3"/>
<path d="M247.227 25.2792C246.238 25.3298 246.241 26.8343 247.209 26.8649C247.57 26.8763 247.8 26.6123 247.883 26.2965C248.004 25.8297 247.803 25.2498 247.227 25.2792Z" fill="#ffffff" fill-rule="nonzero" opacity="1" stroke="#000000" stroke-linecap="butt" stroke-linejoin="round" stroke-width="0.3"/>
<path d="M247.216 25.4987C246.592 25.5318 246.599 26.6565 247.21 26.684C247.439 26.6942 247.583 26.498 247.633 26.2623C247.708 25.9139 247.579 25.4794 247.216 25.4987Z" fill="#100f18" fill-rule="nonzero" opacity="1" stroke="#000000" stroke-linecap="butt" stroke-linejoin="round" stroke-width="0.3"/>
<path d="M259.113 25.0567C258.489 25.0898 258.496 26.2146 259.107 26.242C259.336 26.2523 259.48 26.056 259.53 25.8203C259.605 25.4719 259.476 25.0375 259.113 25.0567Z" fill="#0d0d12" fill-rule="nonzero" opacity="1" stroke="#000000" stroke-linecap="butt" stroke-linejoin="round" stroke-width="0.3"/>
<path d="M235.73 36.3028C235.346 35.7855 238.901 35.3343 240.714 34.5404C242.527 33.7465 248.576 31.266 248.722 31.998C248.869 32.73 244.496 33.8333 241.658 34.7887C238.819 35.7441 236.113 36.8201 235.73 36.3028Z" fill="#5f5f5f" fill-rule="nonzero" opacity="1" stroke="#010101" stroke-linecap="butt" stroke-linejoin="round" stroke-width="0.3"/>
<path d="M238.472 39.2794C238.285 38.549 239.471 38.7464 241.225 37.6905C241.541 37.5 249.576 32.5684 249.697 33.202C249.845 33.975 245.721 35.2961 244.272 36.3765C243.737 36.7754 238.659 40.0098 238.472 39.2794Z" fill="#5f5f5f" fill-rule="nonzero" opacity="1" stroke="#000000" stroke-linecap="butt" stroke-linejoin="round" stroke-width="0.3"/>
<path d="M268.772 38.4007C268.91 37.657 267.74 37.9509 265.92 37.0415C264.101 36.132 257.268 32.4758 257.172 33.2588C257.076 34.0418 261.277 35.0216 262.794 35.9805C263.354 36.3345 268.634 39.1444 268.772 38.4007Z" fill="#5f5f5f" fill-rule="nonzero" opacity="1" stroke="#000000" stroke-linecap="butt" stroke-linejoin="round" stroke-width="0.3"/>
<path d="M271.364 34.9998C271.712 34.4525 268.137 34.2936 266.276 33.6503C264.415 33.007 258.217 31.0284 258.12 31.7705C258.023 32.5125 262.457 33.2548 265.351 33.9752C268.246 34.6956 271.016 35.5471 271.364 34.9998Z" fill="#5f5f5f" fill-rule="nonzero" opacity="0.995159" stroke="#000000" stroke-linecap="butt" stroke-linejoin="round" stroke-width="0.3"/>
<path d="M248.487 31.7955C248.036 30.4909 246.659 32.0854 247.202 32.6237C247.746 33.162 245.821 33.2734 246.766 34.4665C247.891 35.8867 248.428 34.2647 248.816 34.8843C250.155 37.0192 249.85 36.028 251.768 37.9112C252.395 38.5266 252.969 38.6617 253.671 37.97C256.036 35.6376 260.819 33.3148 260.327 32.6788C259.671 31.83 254.132 35.5332 253.601 35.8743C251.328 37.3327 248.487 31.7955 248.487 31.7955Z" fill="#0d0c13" fill-rule="nonzero" opacity="1" stroke="#000000" stroke-linecap="butt" stroke-linejoin="round" stroke-width="0.3"/>
<path d="M245.621 51.1374C245.688 51.6363 242.913 53.3283 243.444 54.0888C243.975 54.8492 245.856 52.1972 246.393 52.2229C246.93 52.2487 248.827 55.5741 249.48 55.0448C250.133 54.5154 247.731 52.0263 247.682 51.4317C247.634 50.8372 250.571 49.5643 250.084 49.024C249.598 48.4837 247.376 50.1239 246.936 50.1473C246.496 50.1706 245.26 48.0882 244.704 48.4338C243.878 48.9474 245.553 50.6384 245.621 51.1374Z" fill="#010101" fill-rule="nonzero" opacity="0.506787" stroke="#000000" stroke-linecap="butt" stroke-linejoin="round" stroke-width="0.3"/>
</g>
</g>
</g>
<g opacity="1">
<path d="M5.5873 48.7C5.58866 27.3029 23.0128 9.95838 44.5052 9.95974C65.9976 9.96109 83.4196 27.3079 83.4182 48.7049C83.4169 70.1019 65.9927 87.4465 44.5003 87.4452C23.0079 87.4438 5.58595 70.097 5.5873 48.7Z" fill="#ffffff" fill-rule="nonzero" opacity="1" stroke="#0d0199" stroke-linecap="butt" stroke-linejoin="round" stroke-width="1"/>
<path d="M10.0992 48.8629C10.1004 29.903 25.5399 14.534 44.5843 14.5352C63.6288 14.5364 79.0663 29.9073 79.0651 48.8672C79.064 67.8271 63.6244 83.1962 44.58 83.195C25.5355 83.1938 10.098 67.8228 10.0992 48.8629Z" fill="#1b00bf" fill-rule="nonzero" opacity="1" stroke="#ffffff" stroke-linecap="butt" stroke-linejoin="round" stroke-opacity="3.2396e-16" stroke-width="2.6"/>
</g>
<g opacity="1">
<g opacity="1">
<path d="M13.0446 39.4976L75.7335 39.5012C79.0745 39.5014 81.7828 42.0106 81.7826 45.1055L81.7822 51.6663C81.782 54.7612 79.0733 57.2701 75.7323 57.2699L13.0434 57.2662C9.70232 57.266 6.99403 54.7569 6.99424 51.6619L6.99469 45.1012C6.9949 42.0062 9.70353 39.4974 13.0446 39.4976Z" fill="#ff0000" fill-rule="nonzero" opacity="1" stroke="none"/>
<g fill="#e6e6ff" opacity="1" stroke="#211414" stroke-linecap="butt" stroke-linejoin="round" stroke-width="0.3">
<path d="M16.8345 46.0467C16.8344 46.5779 16.6889 47.0164 16.3979 47.3621C16.1068 47.7077 15.6625 47.9685 15.0648 48.1442L15.0531 48.1911C15.5257 48.3278 15.8841 48.5251 16.1283 48.7829C16.3724 49.0408 16.4944 49.4041 16.4944 49.8728C16.4943 50.7908 16.1183 51.5075 15.3663 52.0231C14.6143 52.5387 13.5509 52.7964 12.1759 52.7964L8.39656 52.7961L10.4127 44.0716L13.5944 44.0718C14.6452 44.0719 15.4479 44.2448 16.0025 44.5905C16.5572 44.9363 16.8345 45.4217 16.8345 46.0467ZM14.4556 46.4039C14.4556 46.1461 14.354 45.9596 14.1509 45.8443C13.9478 45.7291 13.6665 45.6715 13.3072 45.6714L12.2935 45.6714L11.8656 47.517L12.891 47.5171C13.3832 47.5171 13.767 47.4224 14.0424 47.233C14.3178 47.0436 14.4555 46.7672 14.4556 46.4039ZM14.2034 49.9312C14.2034 49.6109 14.0823 49.3795 13.8401 49.2369C13.598 49.0943 13.2171 49.023 12.6976 49.023L11.5198 49.0229L11.0158 51.1967L12.1525 51.1967C12.8088 51.1968 13.3146 51.0894 13.6701 50.8746C14.0256 50.6598 14.2034 50.3453 14.2034 49.9312Z"/>
<path d="M26.3032 46.2699C26.3032 46.9691 26.0902 47.557 25.6644 48.0335C25.2386 48.5101 24.6605 48.8694 23.93 49.1116L25.9454 52.7972L23.4317 52.7971L21.7913 49.5977L20.5257 49.5977L19.7872 52.7968L17.5372 52.7967L19.5534 44.0722L22.9577 44.0724C24.0241 44.0725 24.8483 44.2532 25.4303 44.6146C26.0123 44.9759 26.3033 45.5277 26.3032 46.2699ZM23.8774 46.6448C23.8774 46.2932 23.7651 46.0442 23.5405 45.8977C23.3159 45.7512 22.9849 45.6779 22.5474 45.6779L21.4341 45.6778L20.889 48.0274L21.9965 48.0274C22.5941 48.0275 23.057 47.9054 23.3852 47.6613C23.7133 47.4172 23.8774 47.0783 23.8774 46.6448Z"/>
<path d="M35.2623 44.0732L34.8814 45.7255L30.8091 45.7253L30.4457 47.2838L34.225 47.2841L33.8382 48.9423L30.0589 48.942L29.549 51.1451L33.6213 51.1454L33.2462 52.7977L26.9239 52.7973L28.9401 44.0728L35.2623 44.0732Z"/>
<path d="M43.2774 52.7983L41.0098 52.7982L40.8107 51.0169L37.5998 51.0167L36.5802 52.7979L34.2305 52.7977L39.4635 44.0735L42.0651 44.0736L43.2774 52.7983ZM40.6409 49.4525L40.2895 46.3177L38.4905 49.4523L40.6409 49.4525Z"/>
<path d="M52.6817 52.7989L50.2032 52.7988L48.2405 49.2654L47.3323 50.0564L46.6993 52.7985L44.4376 52.7984L46.4479 44.0739L48.7096 44.0741L47.8246 47.9177L51.7623 44.0742L54.4342 44.0744L50.0277 48.1347L52.6817 52.7989Z"/>
<path d="M58.4122 52.7993L53.3028 52.799L53.6603 51.2521L55.0842 51.2522L56.3853 45.6214L54.9615 45.6213L55.319 44.0745L60.4284 44.0748L60.0708 45.6216L58.647 45.6216L57.3459 51.2523L58.7697 51.2524L58.4122 52.7993Z"/>
<path d="M68.1856 52.7999L66.2696 52.7998L63.7094 46.7586L62.3145 52.7995L60.2403 52.7994L62.2565 44.0749L64.776 44.0751L66.9671 49.126L68.1276 44.0753L70.2018 44.0754L68.1856 52.7999Z"/>
<path d="M74.7071 52.9819C73.4688 52.9819 72.4991 52.6888 71.798 52.1029C71.0968 51.5169 70.7463 50.6848 70.7464 49.6067C70.7465 47.927 71.2876 46.5569 72.3697 45.4964C73.4518 44.436 74.8249 43.9058 76.4889 43.9059C77.1178 43.9059 77.7008 43.9597 78.2379 44.0671C78.775 44.1746 79.3326 44.3787 79.9107 44.6795L79.4126 46.7244L79.1606 46.7244C78.6919 46.2791 78.2486 45.9695 77.8306 45.7956C77.4126 45.6218 76.9517 45.5348 76.4478 45.5348C75.9361 45.5348 75.4732 45.6392 75.0591 45.8482C74.645 46.0571 74.2915 46.3393 73.9985 46.6948C73.7211 47.0307 73.5043 47.4291 73.348 47.8901C73.1918 48.351 73.1136 48.8334 73.1136 49.3373C73.1135 50.0365 73.3049 50.5512 73.6877 50.8813C74.0705 51.2114 74.6935 51.3765 75.5568 51.3765C75.6427 51.3765 75.7365 51.3746 75.8381 51.3707C75.9396 51.3668 76.0334 51.3609 76.1193 51.3531L76.5179 49.6422L74.7776 49.6421L75.1586 47.9956L79.184 47.9959L78.1876 52.3025C77.6681 52.4821 77.1143 52.6403 76.5264 52.777C75.9385 52.9137 75.3321 52.982 74.7071 52.9819Z"/>
</g>
</g>
<g fill="#ffffff" filter="url(#Filter)" stroke="none">
<path d="M30.1281 71.4483L27.7331 71.4482L24.5329 63.8967L22.7893 71.4478L20.1965 71.4477L22.7167 60.5421L25.8661 60.5423L28.605 66.8559L30.0556 60.5425L32.6484 60.5427L30.1281 71.4483Z"/>
<path d="M43.3197 60.5434L42.8435 62.6088L37.7532 62.6085L37.299 64.5567L42.0231 64.557L41.5396 66.6297L36.8155 66.6294L36.1781 69.3833L41.2684 69.3836L40.7995 71.449L32.8967 71.4485L35.4169 60.5429L43.3197 60.5434Z"/>
<path d="M60.7221 60.5445L55.4187 71.4499L52.4011 71.4497L51.9328 64.2207L48.3947 71.4495L45.26 71.4493L44.7626 60.5435L47.6996 60.5437L47.7211 68.051L51.3837 60.5439L54.1889 60.5441L54.518 68.0514L57.8583 60.5443L60.7221 60.5445Z"/>
<path d="M64.0759 71.6482C63.1433 71.6482 62.312 71.5675 61.582 71.4064C60.852 71.2452 60.2209 71.0449 59.6887 70.8056L60.2529 68.1909L60.5605 68.191C61.0634 68.65 61.6542 69.0052 62.3329 69.2567C63.0116 69.5083 63.7415 69.634 64.5228 69.6341C65.3236 69.6341 65.912 69.5255 66.2879 69.3083C66.6639 69.091 66.8519 68.7797 66.852 68.3745C66.852 68.2231 66.8215 68.0925 66.7604 67.9826C66.6994 67.8727 66.581 67.7641 66.4052 67.6567C66.2295 67.5492 65.989 67.443 65.6838 67.338C65.3786 67.233 64.9844 67.1121 64.501 66.9754C63.9688 66.8289 63.4915 66.6701 63.0691 66.4992C62.6468 66.3283 62.2867 66.1256 61.9888 65.8912C61.691 65.652 61.4652 65.3761 61.3114 65.0636C61.1576 64.7511 61.0807 64.3775 61.0808 63.9429C61.0808 62.8492 61.5631 61.9764 62.5275 61.3246C63.4919 60.6728 64.8115 60.347 66.4863 60.3471C67.2919 60.3471 68.0524 60.4131 68.7677 60.545C69.4831 60.6769 70.0897 60.8551 70.5878 61.0798L70.053 63.5919L69.7527 63.5919C69.3718 63.2403 68.8701 62.9461 68.2476 62.7093C67.625 62.4724 66.9451 62.354 66.2078 62.3539C65.4852 62.3539 64.9261 62.4588 64.5305 62.6687C64.135 62.8787 63.9373 63.1692 63.9372 63.5403C63.9372 63.7112 63.9665 63.8528 64.0251 63.9651C64.0837 64.0774 64.2033 64.1873 64.384 64.2947C64.5402 64.3924 64.7868 64.4986 65.1237 64.6134C65.4606 64.7281 65.8561 64.8466 66.3102 64.9687C67.5309 65.2959 68.4024 65.6792 68.9249 66.1187C69.4473 66.5582 69.7085 67.1539 69.7084 67.9059C69.7084 68.5358 69.5668 69.09 69.2835 69.5685C69.0003 70.047 68.6096 70.4351 68.1116 70.7329C67.5891 71.0503 66.9958 71.2822 66.3318 71.4286C65.6677 71.5751 64.9157 71.6483 64.0759 71.6482Z"/>
</g>
</g>
<g opacity="1">
<g opacity="1">
<path d="M29.4542 22.0737L61.0093 22.0757C62.8199 22.0758 64.2876 23.2776 64.2875 24.7601L64.287 33.0283C64.2869 34.5107 62.819 35.7124 61.0084 35.7122L29.4534 35.7102C27.6428 35.7101 26.1751 34.5083 26.1752 33.0258L26.1757 24.7576C26.1758 23.2752 27.6436 22.0735 29.4542 22.0737Z" fill="url(#LinearGradient_3)" fill-rule="nonzero" opacity="1" stroke="none"/>
<g fill="#00008d" opacity="1" stroke="none">
<path d="M36.9037 33.1845L31.1298 33.1841L32.9779 25.1867L35.0512 25.1868L33.563 31.6374L37.2636 31.6376L36.9037 33.1845Z"/>
<path d="M42.4681 33.1848L37.7845 33.1845L38.1123 31.7666L39.4174 31.7666L40.6102 26.6051L39.305 26.605L39.6327 25.1871L44.3163 25.1874L43.9886 26.6053L42.6834 26.6052L41.4907 31.7668L42.7959 31.7669L42.4681 33.1848Z"/>
<path d="M53.2484 25.1879L48.4838 33.1852L46.1742 33.185L45.1058 25.1874L47.2167 25.1876L47.8555 30.8971L51.0409 25.1878L53.2484 25.1879Z"/>
<path d="M60.1879 25.1884L59.8387 26.703L56.1058 26.7028L55.7727 28.1315L59.237 28.1317L58.8824 29.6517L55.4181 29.6514L54.9507 31.671L58.6836 31.6712L58.3397 33.1858L52.5443 33.1854L54.3925 25.188L60.1879 25.1884Z"/>
</g>
</g>
<g opacity="1">
<path d="M24.5408 35.0669C24.5408 33.7306 25.6224 32.6473 26.9566 32.6473C28.2908 32.6473 29.3724 33.7306 29.3724 35.0669C29.3724 36.4032 28.2908 37.4865 26.9566 37.4865C25.6224 37.4865 24.5408 36.4032 24.5408 35.0669Z" fill="#fffefe" fill-rule="nonzero" opacity="1" stroke="none"/>
<path d="M27.0441 19.0637L26.0277 34.08L27.9081 34.0291L27.0441 19.0637Z" fill="#fffefe" fill-rule="nonzero" opacity="1" stroke="none"/>
<path d="M27.095 50.4707L26.0785 35.4544L27.9589 35.5053L27.095 50.4707Z" fill="#fffefe" fill-rule="nonzero" opacity="1" stroke="none"/>
<path d="M42.0446 35.5209L27.0521 34.5028L27.1029 36.3862L42.0446 35.5209Z" fill="#fffefe" fill-rule="nonzero" opacity="1" stroke="none"/>
<path d="M12.1545 35.0118L27.147 33.9938L27.0962 35.8772L12.1545 35.0118Z" fill="#fffefe" fill-rule="nonzero" opacity="1" stroke="none"/>
</g>
</g>
</g>
</svg>
