<?xml version="1.0" encoding="UTF-8" standalone="no"?>
<!DOCTYPE svg PUBLIC "-//W3C//DTD SVG 1.1//EN" "http://www.w3.org/Graphics/SVG/1.1/DTD/svg11.dtd">
<!-- Created with Vectornator (http://vectornator.io/) -->
<svg height="100%" stroke-miterlimit="10" style="fill-rule:nonzero;clip-rule:evenodd;stroke-linecap:round;stroke-linejoin:round;" version="1.1" viewBox="0 0 231.307 193.71" width="100%" xml:space="preserve" xmlns="http://www.w3.org/2000/svg" xmlns:xlink="http://www.w3.org/1999/xlink">
<defs>
<radialGradient cx="0" cy="0" gradientTransform="matrix(-22.2582 -55.5483 -56.7752 21.4393 166.614 120.572)" gradientUnits="userSpaceOnUse" id="RadialGradient" r="1">
<stop offset="0" stop-color="#ffffff"/>
<stop offset="1" stop-color="#f7b55e"/>
</radialGradient>
<linearGradient gradientTransform="matrix(12.252 41.4983 41.4983 -12.252 140.386 143.844)" gradientUnits="userSpaceOnUse" id="LinearGradient" x1="0" x2="1" y1="0" y2="0">
<stop offset="0.521008" stop-color="#f2a847"/>
<stop offset="0.926471" stop-color="#ffffff"/>
</linearGradient>
<linearGradient gradientTransform="matrix(-24.1421 -42.397 -42.397 24.1421 124.958 127.774)" gradientUnits="userSpaceOnUse" id="LinearGradient_2" x1="0" x2="1" y1="0" y2="0">
<stop offset="0.516807" stop-color="#d38218"/>
<stop offset="0.926471" stop-color="#ffffff"/>
</linearGradient>
<linearGradient gradientTransform="matrix(12.0653 41.5529 41.5529 -12.0653 133.867 144.953)" gradientUnits="userSpaceOnUse" id="LinearGradient_3" x1="0" x2="1" y1="0" y2="0">
<stop offset="0.521008" stop-color="#f2a847"/>
<stop offset="0.926471" stop-color="#ffffff"/>
</linearGradient>
<radialGradient cx="0" cy="0" gradientTransform="matrix(115.365 1.979 -1.979 115.365 111.505 92.9294)" gradientUnits="userSpaceOnUse" id="RadialGradient_2" r="1">
<stop offset="0.707983" stop-color="#d38218"/>
<stop offset="1" stop-color="#ffffff"/>
</radialGradient>
</defs>
<g id="back">
<g opacity="0">
<g opacity="1">
<path d="M183.635 33.9914C185.729 38.8466 187.588 45.7726 189.498 50.9855C191.734 57.0879 193.242 54.9267 196.141 59.8244C206.536 77.3842 209.505 97.4668 208.422 111.195C207.43 123.761 203.118 134.992 189.772 143.335C186.507 145.376 185.659 149.831 182.658 153.252C181.382 154.707 175.23 155.394 173.568 156.643C169.01 160.072 143.207 160.025 137.982 157.338C136.683 156.669 104.452 149.349 103.462 148.757C95.0453 143.722 89.3948 130.678 89.8463 126.839C90.745 119.199 86.5841 112.246 90.7576 107.779C91.643 106.831 93.6927 103.64 94.4221 101.266C95.272 98.5011 99.8162 84.2893 99.2857 83.5839C96.4226 79.777 96.8512 76.411 100.055 65.6525C100.849 62.9888 104.531 52.2111 105.214 49.7704C106.888 43.7844 106.764 39.0269 107.327 35.249C107.793 32.1277 109.873 22.1101 109.539 18.8866C109.204 15.6509 107.895 12.1559 108.827 10.2844C110.148 7.63419 116.645 7.69817 120.025 9.75392C124.135 12.2536 124.714 16.2508 126.019 17.1661C127.821 18.4306 132.631 14.6975 137.856 14.5037C142.575 14.3286 148.361 15.6916 151.643 16.5074C155.419 17.4461 156.893 15.2684 159.029 11.764C160.928 8.64709 160.739 6.02308 162.034 4.78932C163.408 3.48063 167.18 2.33048 171.405 4.70639C174.597 6.50117 176.382 9.46236 176.69 11.7969C176.954 13.7977 177.441 13.88 176.832 17.2463C176.223 20.6127 174.453 23.7219 175.078 24.1207C176.594 25.0887 182.3 30.8962 183.635 33.9914Z" fill="#f7b55e" fill-rule="nonzero" opacity="1" stroke="#000000" stroke-linecap="butt" stroke-linejoin="round" stroke-width="1"/>
<path d="M149.195 85.6893C164.888 86.0598 165.765 80.1506 172.401 76.9079C181.238 72.5894 193.05 75.5705 199.532 83.6464C207.167 93.1596 208.693 108.842 208.037 114.854C207.53 119.498 204.162 131.465 195.091 138.884C190.215 142.871 188.237 141.386 182.922 152.302C181.538 155.145 178.665 153.927 173.109 156.888C167.553 159.849 156.447 158.853 155.43 158.851C137.264 158.812 127.762 131.259 125.555 113.996C124.464 105.463 121.911 84.2062 128.151 79.9392C134.639 75.5021 135.808 85.3732 149.195 85.6893Z" fill="url(#RadialGradient)" fill-rule="nonzero" opacity="1" stroke="#000000" stroke-linecap="butt" stroke-linejoin="round" stroke-opacity="0" stroke-width="1"/>
<path d="M127.01 138.718C138.265 139.76 142.551 143.541 148.871 149.3C152.953 153.019 150.761 162.406 156.756 164.146C170.122 168.025 184.406 163.73 186.024 166.256C189.854 172.236 183.191 176.327 170.254 176.112C167.556 176.067 156.399 177.254 150.914 183.503C145.089 190.141 129.57 185.779 129.942 183.781C130.314 181.783 123.187 169.817 120.42 167.795C110.561 160.587 101.114 150.345 101.499 144.992C101.883 139.64 116.18 137.716 127.01 138.718Z" fill="url(#LinearGradient)" fill-rule="nonzero" opacity="1" stroke="#000000" stroke-linecap="butt" stroke-linejoin="round" stroke-width="1"/>
<path d="M138.933 108.774C138.933 108.774 136.213 105.217 132.556 104.295C125.477 102.511 114.201 99.7933 113.836 100.961C113.402 102.35 124.514 104.945 131.248 109.06C135.706 111.784 136.194 118.285 135.482 118.109C133.581 117.64 132.775 111.448 129.411 109.226C120.577 103.392 107.549 96.9179 104.69 95.9546C98.0439 93.7155 97.8211 83.5532 93.9501 85.0876C90.9561 86.2744 119.902 101.309 132.873 105.22C136.673 106.365 139.237 109.953 138.933 108.774Z" fill="#010101" fill-rule="nonzero" opacity="1" stroke="#000000" stroke-linecap="round" stroke-linejoin="round" stroke-width="3.54766"/>
</g>
<path d="M103.89 120.273C102.514 114.863 111.022 112.781 108.744 108.531C106.465 104.282 100.319 97.5126 99.3616 94.3122C98.8991 92.7666 98.9632 87.7763 102.512 86.2167C106.312 84.547 113.685 86.3721 115.456 86.8004C116.939 87.1591 115.891 90.3025 118.208 91.1661C121.243 92.2973 121.402 90.6161 123.951 91.533C128.448 93.1499 127.635 96.4369 127.958 100.641C128.281 104.845 118.766 110.9 119.986 114.009C121.207 117.119 123.856 123.493 120.5 124.994C117.145 126.496 105.267 125.682 103.89 120.273Z" fill="url(#LinearGradient_2)" fill-rule="nonzero" opacity="1" stroke="#000000" stroke-linecap="butt" stroke-linejoin="round" stroke-width="1"/>
<g opacity="1">
<path d="M165.543 58.0092C161.721 52.7214 161.605 50.6351 152.343 49.1404C147.559 48.3683 142.701 53.3443 138.363 55.4158C135.598 56.7366 131.986 59.6089 127.387 59.3353C122.364 59.0365 114.654 57.7259 117.091 49.5977C124.975 23.3003 170.932 26.9529 183.234 42.9015C186.815 47.5439 185.604 53.771 181.7 58.669C176.917 64.6693 170.098 64.3112 165.543 58.0092Z" fill="#100f18" fill-rule="nonzero" opacity="0.506787" stroke="#000000" stroke-linecap="butt" stroke-linejoin="round" stroke-width="0.3"/>
<path d="M137.535 42.0294C140.179 42.3459 139.856 46.4778 137.251 46.3878C136.278 46.3542 135.716 45.5877 135.561 44.7055C135.333 43.4016 135.994 41.8449 137.535 42.0294Z" fill="#ffffff" fill-rule="nonzero" opacity="1" stroke="#000000" stroke-linecap="butt" stroke-linejoin="round" stroke-width="0.3"/>
<path d="M170.283 45.4346C172.997 45.7585 172.679 49.8656 170.007 49.767C169.009 49.7302 168.429 48.9662 168.267 48.0885C168.028 46.7912 168.702 45.2458 170.283 45.4346Z" fill="#ffffff" fill-rule="nonzero" opacity="1" stroke="#000000" stroke-linecap="butt" stroke-linejoin="round" stroke-width="0.3"/>
<path d="M170.269 46.0358C171.981 46.2434 171.728 49.3128 170.04 49.2729C169.409 49.258 169.052 48.695 168.961 48.042C168.826 47.0768 169.272 45.9148 170.269 46.0358Z" fill="#100f18" fill-rule="nonzero" opacity="1" stroke="#000000" stroke-linecap="butt" stroke-linejoin="round" stroke-width="0.3"/>
<path d="M137.588 42.593C139.3 42.8006 139.047 45.87 137.358 45.8301C136.728 45.8152 136.371 45.2522 136.28 44.5992C136.145 43.634 136.59 42.472 137.588 42.593Z" fill="#0d0d12" fill-rule="nonzero" opacity="1" stroke="#000000" stroke-linecap="butt" stroke-linejoin="round" stroke-width="0.3"/>
<path d="M199.687 77.6921C200.849 76.3517 191.15 74.4517 186.32 71.9435C181.489 69.4354 165.336 61.5259 164.782 63.497C164.228 65.4681 176.045 69.3021 183.669 72.4442C191.293 75.5862 198.525 79.0324 199.687 77.6921Z" fill="#5f5f5f" fill-rule="nonzero" opacity="1" stroke="#010101" stroke-linecap="butt" stroke-linejoin="round" stroke-width="0.3"/>
<path d="M191.521 85.3034C192.187 83.3445 188.879 83.6605 184.264 80.4478C183.431 79.8683 162.312 64.8938 161.849 66.6008C161.283 68.6834 172.372 73.0655 176.14 76.2877C177.532 77.4772 190.856 87.2624 191.521 85.3034Z" fill="#5f5f5f" fill-rule="nonzero" opacity="1" stroke="#000000" stroke-linecap="butt" stroke-linejoin="round" stroke-width="0.3"/>
<path d="M108.236 77.2089C108.009 75.1526 111.17 76.175 116.37 74.034C121.57 71.8931 141.143 63.1953 141.246 65.351C141.349 67.5067 129.575 69.3922 125.2 71.7251C123.585 72.5864 108.463 79.2653 108.236 77.2089Z" fill="#5f5f5f" fill-rule="nonzero" opacity="1" stroke="#000000" stroke-linecap="butt" stroke-linejoin="round" stroke-width="0.3"/>
<path d="M101.795 67.4367C100.949 65.8771 110.83 66.1152 116.088 64.7085C121.345 63.3019 138.826 59.0651 138.941 61.1093C139.056 63.1535 126.69 64.3467 118.568 65.7694C110.446 67.1921 102.64 68.9962 101.795 67.4367Z" fill="#5f5f5f" fill-rule="nonzero" opacity="0.995159" stroke="#000000" stroke-linecap="butt" stroke-linejoin="round" stroke-width="0.3"/>
<path d="M165.471 62.9882C166.981 59.5113 170.447 64.1234 168.84 65.4909C167.233 66.8585 172.511 67.5243 169.663 70.6041C166.273 74.2703 165.126 69.741 163.929 71.3594C159.804 76.9368 160.847 74.2879 155.176 79.0686C153.323 80.631 151.713 80.8919 149.923 78.8718C143.886 72.059 131.19 64.8184 132.674 63.1744C134.656 60.9802 149.152 72.1318 150.546 73.1631C156.507 77.5719 165.471 62.9882 165.471 62.9882Z" fill="#0d0c13" fill-rule="nonzero" opacity="1" stroke="#000000" stroke-linecap="butt" stroke-linejoin="round" stroke-width="0.3"/>
<path d="M169.39 116.334C169.101 117.684 176.397 122.825 174.779 124.801C173.161 126.778 168.522 119.183 167.038 119.153C165.553 119.122 159.645 127.845 157.955 126.277C156.265 124.709 163.393 118.365 163.65 116.75C163.906 115.136 156.076 111.109 157.528 109.725C158.98 108.342 164.762 113.237 165.97 113.384C167.178 113.53 171.01 108.077 172.47 109.125C174.64 110.683 169.678 114.985 169.39 116.334Z" fill="#010101" fill-rule="nonzero" opacity="0.506787" stroke="#000000" stroke-linecap="butt" stroke-linejoin="round" stroke-width="0.3"/>
</g>
</g>
<path d="M120.515 139.767C131.765 140.86 136.033 144.66 142.328 150.448C146.393 154.185 144.159 163.562 150.146 165.328C163.495 169.268 177.797 165.037 179.404 167.57C183.207 173.567 176.526 177.628 163.59 177.355C160.892 177.299 149.73 178.435 144.217 184.66C138.362 191.271 122.863 186.839 123.244 184.843C123.624 182.847 116.551 170.849 113.794 168.814C103.967 161.562 94.5665 151.278 94.9753 145.927C95.384 140.576 109.689 138.716 120.515 139.767Z" fill="url(#LinearGradient_3)" fill-rule="nonzero" opacity="1" stroke="#000000" stroke-linecap="butt" stroke-linejoin="round" stroke-width="1"/>
<path d="M103.997 108.836C103.807 110.26 91.7136 121.945 86.1446 123.019C81.3544 123.942 72.7015 115.599 66.5046 116.456C63.0669 116.931 57.5822 122.069 53.8575 122.11C49.3761 122.161 47.2383 124.999 42.59 125.537C33.3473 126.606 30.6174 129.031 23.2338 132.861C19.2454 134.93 11.2882 145.024 8.65398 147.152C5.6654 149.566 10.8761 151.463 17.1692 155.923C21.7227 159.15 25.1002 161.969 30.5431 163.311C34.4226 164.267 40.2162 163.943 44.3092 164.887C54.1445 167.155 51.9513 161.483 58.8995 159.489C65.1147 157.705 74.5678 158.841 76.7536 157.375C79.703 155.396 81.5822 148.745 84.0698 145.874C86.5574 143.003 88.5608 136.446 93.3785 135.979C101.614 135.181 109.755 139.555 113.406 135.226C114.569 133.846 128.409 138.01 129.064 138.34C129.617 138.618 136.866 180.184 146.041 176.981C154.236 174.121 159.623 188.917 169.101 187.009C178.367 185.143 186.356 185.551 185.29 180.265C183.951 173.635 155.995 169.925 155.124 167.432C150.818 155.101 169.631 99.5175 176.449 91.0066C182.027 84.0423 208.961 78.8064 216.586 79.6091C222.835 80.2671 227.36 77.6734 227.646 72.3634C227.932 67.0535 218.726 70.9591 220.132 68.6167C222.596 64.5149 225.304 62.2279 224.292 59.3054C222.411 53.8763 214.922 58.1382 214.845 55.6055C214.764 52.9506 216.948 45.5752 208.701 46.6084C203.389 47.2739 206.953 64.4749 190.43 70.7751C183.282 73.5005 164.103 56.2059 149.949 62.4686C127.158 72.5524 104.208 107.26 103.997 108.836Z" fill="url(#RadialGradient_2)" fill-rule="nonzero" opacity="1" stroke="#000000" stroke-linecap="butt" stroke-linejoin="round" stroke-width="1"/>
<path d="M177.597 36.1464C179.674 41.0088 181.509 47.9412 183.401 53.1607C185.616 59.2707 187.131 57.1147 190.013 62.0224C200.347 79.618 203.248 99.7107 202.117 113.435C201.082 125.998 196.731 137.213 183.356 145.511C180.084 147.541 179.221 151.992 176.208 155.403C174.927 156.853 168.772 157.519 167.107 158.763C162.536 162.176 136.734 162.04 131.518 159.334C130.221 158.662 98.0163 151.23 97.0276 150.634C88.6287 145.571 83.0232 132.507 83.488 128.67C84.4131 121.033 80.2761 114.065 84.4651 109.613C85.3537 108.668 87.4144 105.484 88.152 103.113C89.0115 100.351 93.6048 86.1546 93.0767 85.4474C90.2267 81.6306 90.667 78.2661 93.9082 67.5187C94.7108 64.8578 98.4305 54.0929 99.1217 51.6546C100.817 45.6744 100.709 40.9165 101.285 37.1406C101.761 34.0208 103.876 24.0105 103.554 20.7859C103.23 17.5491 101.932 14.0496 102.871 12.1813C104.201 9.53563 110.698 9.62204 114.071 11.6894C118.172 14.2033 118.738 18.2024 120.039 19.1223C121.837 20.393 126.66 16.6765 131.885 16.5007C136.604 16.3419 142.386 17.7249 145.665 18.5521C149.438 19.5038 150.92 17.3312 153.067 13.8342C154.977 10.7238 154.798 8.09919 156.097 6.86991C157.475 5.56597 161.251 4.42884 165.468 6.81933C168.653 8.62512 169.889 11.1713 170.189 13.5069C170.446 15.5086 166.811 18.1273 167.262 20.681C167.712 23.2347 168.45 25.8452 169.073 26.2462C170.586 27.2195 176.272 33.0466 177.597 36.1464Z" fill="#f7b55e" fill-rule="nonzero" opacity="1" stroke="#000000" stroke-linecap="butt" stroke-linejoin="round" stroke-width="1"/>
<g opacity="1">
<path d="M91.6695 90.2771C91.4953 87.1467 97.0417 88.4122 101.116 88.0083C105.19 87.6044 108.506 88.9777 110.275 88.8787C112.043 88.7798 119.403 96.9304 117.312 95.6838C115.22 94.4371 107.601 91.6716 106.216 91.6326C104.831 91.5937 91.8437 93.4075 91.6695 90.2771Z" fill="#02010b" fill-rule="nonzero" opacity="1" stroke="#000000" stroke-linecap="butt" stroke-linejoin="round" stroke-width="1.23306"/>
<path d="M109.745 96.1958C108.747 98.9444 113.318 105.17 115.847 106.05C118.319 106.91 131.101 101.404 132.077 98.8573C132.808 96.9489 130.611 90.8745 127.938 89.2266C125.976 88.0176 110.573 93.9158 109.745 96.1958Z" fill="#8d8b96" fill-rule="nonzero" opacity="1" stroke="#000000" stroke-linecap="round" stroke-linejoin="round" stroke-width="3.03786"/>
<path d="M110.469 107.546C110.021 107.421 115.549 110.86 115.928 116.513C114.98 122.711 108.971 124.038 108.409 132.326C109.836 140.54 117.567 142.603 121.466 147.663C125.261 149.877 130.083 155.137 141.069 152.173C152.056 149.209 153.298 144.491 162.742 137.631C170.669 134.34 169.014 127.709 165.319 117.317C161.624 106.925 156.43 102.365 150.799 100.222C145.169 98.0778 143.693 100.949 140.4 100.292C137.106 99.6344 139.232 96.2064 137.375 93.2758C132.553 91.5577 128.587 94.5262 121.596 98.0304C114.606 101.535 111.495 102.893 110.469 107.546Z" fill="#ffffff" fill-rule="nonzero" opacity="1" stroke="#000000" stroke-linecap="round" stroke-linejoin="round" stroke-width="3.64126"/>
<path d="M111.575 133.275C114.383 130.199 118.279 131.012 119.709 130.543" fill="#ffffff" fill-rule="nonzero" opacity="1" stroke="#000000" stroke-linecap="round" stroke-linejoin="round" stroke-width="3.64126"/>
<path d="M115.959 139.166L122.65 136.396" fill="#ffffff" fill-rule="nonzero" opacity="1" stroke="#000000" stroke-linecap="round" stroke-linejoin="round" stroke-width="3.64126"/>
<path d="M125.63 148.274L127.683 143.377" fill="#ffffff" fill-rule="nonzero" opacity="1" stroke="#000000" stroke-linecap="round" stroke-linejoin="round" stroke-width="3.64126"/>
<path d="M122.126 122.464C122.74 122.985 133.461 116.71 135.905 114.853C137.067 113.97 127.398 116.921 127.398 116.921C127.398 116.921 121.531 121.96 122.126 122.464Z" fill="#ffffff" fill-rule="nonzero" opacity="1" stroke="#000000" stroke-linecap="round" stroke-linejoin="round" stroke-width="3.64126"/>
<path d="M124.21 127.718C126.982 132.525 131.67 137.695 134.329 144.109C138.925 140.804 143.422 141.303 149.331 136.273C148.851 128.126 144.268 124.625 141.561 118.936C137.496 120.559 132.748 125.772 128.079 125.775C125.107 125.777 125.727 127.683 124.21 127.718Z" fill="#ffffff" fill-rule="nonzero" opacity="1" stroke="#000000" stroke-linecap="round" stroke-linejoin="round" stroke-width="3.64126"/>
<path d="M126.931 119.031L134.921 131.467L130.565 135.047L135.046 131.516L126.931 119.031Z" fill="#ffffff" fill-rule="nonzero" opacity="1" stroke="#000000" stroke-linecap="round" stroke-linejoin="round" stroke-width="3.64126"/>
<path d="M132.176 117.66L138.969 129.326L146.226 127.469L138.787 129.21L132.176 117.66Z" fill="#ffffff" fill-rule="nonzero" opacity="1" stroke="#000000" stroke-linecap="round" stroke-linejoin="round" stroke-width="3.64126"/>
<path d="M133.016 138.989L146.648 131.542L133.016 138.989Z" fill="#ffffff" fill-rule="nonzero" opacity="1" stroke="#000000" stroke-linecap="round" stroke-linejoin="round" stroke-width="3.64126"/>
</g>
</g>
</svg>
