<?xml version="1.0" encoding="UTF-8" standalone="no"?>
<!DOCTYPE svg PUBLIC "-//W3C//DTD SVG 1.1//EN" "http://www.w3.org/Graphics/SVG/1.1/DTD/svg11.dtd">
<!-- Created with Vectornator (http://vectornator.io/) -->
<svg height="100%" stroke-miterlimit="10" style="fill-rule:nonzero;clip-rule:evenodd;stroke-linecap:round;stroke-linejoin:round;" version="1.1" viewBox="0 0 85.05 226.8" width="100%" xml:space="preserve" xmlns="http://www.w3.org/2000/svg" xmlns:xlink="http://www.w3.org/1999/xlink">
<defs/>
<clipPath id="ArtboardFrame">
<rect height="226.8" width="85.05" x="0" y="0"/>
</clipPath>
<g clip-path="url(#ArtboardFrame)" id="layer">
<path d="M22.7699 103.593L26.4219 106.839C26.4219 106.839 27.2764 107.575 26.9579 108.802C26.6394 110.028 26.2026 110.482 26.2026 110.482L20.5696 117.073C20.5696 117.073 19.2543 117.975 18.1358 120.025C17.0173 122.076 17.2233 122.801 17.2051 123.33C16.9288 131.388 16.6283 149.337 16.3043 165.305C15.8956 185.451 15.7586 215.31 15.7586 215.31C15.7586 215.31 15.5344 217.575 16.4014 218.915C17.2684 220.255 19.7383 219.936 19.7383 219.936C19.7383 219.936 32.2262 219.986 40.2089 220.185C48.5909 220.395 62.1688 220.619 62.1688 220.619C62.1688 220.619 65.2325 221.153 66.6082 219.458C67.984 217.763 67.7763 214.94 67.7763 214.94C67.7763 214.94 68.2429 185.392 68.5415 165.402C68.8132 147.208 68.4043 122.962 68.4043 122.962C68.4043 122.962 68.1686 120.833 67.9489 120.379C67.7292 119.925 66.5298 118.643 66.5298 118.643L60.5406 110.243C60.5406 110.243 60.0117 109.428 60.2681 108.375C60.5244 107.323 61.5959 106.106 61.5959 106.106L63.2052 104.154L22.7699 103.593Z" fill="#fdfeff" fill-rule="nonzero" opacity="1" stroke="#fdfeff" stroke-linecap="round" stroke-linejoin="miter" stroke-opacity="0" stroke-width="1"/>
<path d="M15.9824 214.092C15.9824 214.092 15.688 217.582 16.6877 218.817C17.6874 220.052 21.272 219.804 21.272 219.804L59.0047 220.298C59.0047 220.298 65.6451 220.876 66.7628 219.593C67.8806 218.31 67.6797 211.764 67.6797 211.764L68.5966 158.586L16.4761 159.15L15.9824 214.092Z" fill="#ffa96f" fill-rule="nonzero" opacity="1" stroke="#000000" stroke-linecap="round" stroke-linejoin="miter" stroke-opacity="0" stroke-width="0.5"/>
<path d="M22.5911 103.734L26.2431 106.98C26.2431 106.98 27.0976 107.716 26.7791 108.943C26.4606 110.169 26.0238 110.623 26.0238 110.623L20.3907 117.214C20.3907 117.214 19.0754 118.116 17.9569 120.166C16.8384 122.217 17.0444 122.942 17.0263 123.471C16.7499 131.529 16.4494 149.478 16.1255 165.446C15.7168 185.592 15.5798 215.451 15.5798 215.451C15.5798 215.451 15.3555 217.716 16.2225 219.056C17.0895 220.396 19.5594 220.077 19.5594 220.077C19.5594 220.077 32.0473 220.127 40.0301 220.326C48.412 220.536 61.99 220.76 61.99 220.76C61.99 220.76 65.0536 221.294 66.4294 219.599C67.8051 217.904 67.5975 215.081 67.5975 215.081C67.5975 215.081 68.0641 185.534 68.3626 165.543C68.6343 147.349 68.2254 123.103 68.2254 123.103C68.2254 123.103 67.9898 120.974 67.77 120.52C67.5503 120.066 66.3509 118.784 66.3509 118.784L60.3618 110.384C60.3618 110.384 59.8329 109.569 60.0892 108.516C60.3456 107.464 61.417 106.247 61.417 106.247L63.0263 104.295L22.5911 103.734Z" fill="#fdfeff" fill-opacity="0" fill-rule="nonzero" opacity="1" stroke="#000000" stroke-linecap="round" stroke-linejoin="miter" stroke-width="1"/>
<path d="M26.3873 100.513L30.3088 112.822L57.2791 112.594L61.1736 100.291L26.3873 100.513Z" fill="#8c805c" fill-rule="nonzero" opacity="1" stroke="#000000" stroke-linecap="round" stroke-linejoin="miter" stroke-width="1"/>
<path d="M33.5904 164.172L24.1901 197.256C24.1901 197.256 23.3275 199.749 23.7808 201.336C24.2342 202.923 26.0036 203.603 26.0036 203.603L47.0399 209.044C47.0399 209.044 49.4313 209.726 50.9501 208.819C52.4689 207.912 53.1151 205.417 53.1151 205.417L62.22 172.544C62.22 172.544 63.0498 170.884 62.2736 169.033C61.4974 167.183 59.6436 166.608 59.6436 166.608L39.1507 161.124C39.1507 161.124 36.8352 160.822 35.5987 161.563C34.3622 162.305 33.5904 164.172 33.5904 164.172Z" fill="#fdfeff" fill-rule="nonzero" opacity="1" stroke="#000000" stroke-linecap="round" stroke-linejoin="miter" stroke-width="0.5"/>
<path d="M37.4621 165.602L28.0206 199.153L48.626 204.719L58.6459 171.089L37.4621 165.602Z" fill="#471400" fill-rule="nonzero" opacity="1" stroke="#000000" stroke-linecap="round" stroke-linejoin="miter" stroke-width="0.5"/>
<path d="M12.7191 54.3979C12.7191 38.5347 25.9867 25.6751 42.3532 25.6751C58.7197 25.6751 71.9873 38.5347 71.9873 54.3979C71.9873 70.261 58.7197 83.1206 42.3532 83.1206C25.9867 83.1206 12.7191 70.261 12.7191 54.3979Z" fill="#c21815" fill-rule="nonzero" opacity="1" stroke="#000000" stroke-linecap="round" stroke-linejoin="miter" stroke-opacity="4.16334e-17" stroke-width="0.5"/>
<g fill="#ffffff" opacity="1" stroke="none">
<path d="M36.6184 31.5595L34.2388 31.5595L34.2388 30.2058C34.8669 30.1778 35.3065 30.136 35.5577 30.0802C35.9578 29.9918 36.2834 29.815 36.5346 29.5498C36.7068 29.3684 36.837 29.1265 36.9254 28.8241C36.9766 28.6427 37.0022 28.5077 37.0022 28.4194L38.656 28.4194L38.656 38.5376L36.6184 38.5376L36.6184 31.5595Z"/>
<path d="M43.0344 36.2349C42.8483 36.393 42.6925 36.5768 42.5668 36.7861L46.984 36.7861L46.984 38.5376L40.0547 38.5376C40.0733 37.8119 40.2292 37.149 40.5223 36.5489C40.806 35.8743 41.4759 35.1602 42.532 34.4066C43.4484 33.7506 44.0416 33.2808 44.3114 32.997C44.7254 32.5551 44.9324 32.0712 44.9324 31.5456C44.9324 31.1176 44.8138 30.7617 44.5765 30.4779C44.3393 30.1941 43.9997 30.0522 43.5577 30.0522C42.953 30.0522 42.5413 30.2779 42.3226 30.7291C42.197 30.9896 42.1226 31.4037 42.0993 31.9712L40.1664 31.9712C40.1989 31.1106 40.3548 30.4151 40.6339 29.8848C41.1642 28.8753 42.1063 28.3705 43.46 28.3705C44.53 28.3705 45.3814 28.6671 46.014 29.2602C46.6467 29.8534 46.9631 30.6384 46.9631 31.6153C46.9631 32.3643 46.7398 33.0296 46.2932 33.6111C46.0001 33.9972 45.5186 34.4275 44.8487 34.902L44.0532 35.4673C43.5554 35.8208 43.2158 36.0767 43.0344 36.2349Z"/>
</g>
<path d="M64.1083 52.2037C63.885 52.5015 63.778 52.8992 63.7874 53.397L61.9312 53.397C61.9498 52.8946 62.0358 52.4177 62.1894 51.9665C62.3522 51.571 62.608 51.2059 62.957 50.8709C63.2175 50.6336 63.5268 50.4522 63.885 50.3266C64.2433 50.201 64.6829 50.1382 65.2039 50.1382C66.1715 50.1382 66.9519 50.3882 67.5451 50.8883C68.1382 51.3884 68.4348 52.0595 68.4348 52.9015C68.4348 53.497 68.258 53.9994 67.9044 54.4088C67.6811 54.6647 67.4485 54.8391 67.2066 54.9322C67.3881 54.9322 67.6486 55.088 67.9882 55.3997C68.4953 55.8696 68.7488 56.5116 68.7488 57.3257C68.7488 58.1817 68.4522 58.9341 67.8591 59.5831C67.2659 60.2321 66.3879 60.5565 65.2248 60.5565C63.792 60.5565 62.7965 60.089 62.2382 59.1539C61.9451 58.6562 61.7823 58.0049 61.7497 57.2001L63.7036 57.2001C63.7036 57.6048 63.7687 57.9397 63.899 58.2049C64.1409 58.6934 64.5805 58.9376 65.2179 58.9376C65.6086 58.9376 65.9494 58.8039 66.2402 58.5364C66.5309 58.2689 66.6763 57.8839 66.6763 57.3815C66.6763 56.7162 66.4065 56.272 65.8668 56.0487C65.5598 55.9231 65.076 55.8603 64.4154 55.8603L64.4154 54.4367C65.062 54.4274 65.5133 54.3646 65.7691 54.2483C66.2111 54.0529 66.4321 53.6575 66.4321 53.062C66.4321 52.6759 66.3193 52.3619 66.0936 52.12C65.868 51.8781 65.5505 51.7571 65.1411 51.7571C64.6712 51.7571 64.327 51.906 64.1083 52.2037Z" fill="#ffffff" opacity="1" stroke="none"/>
<g opacity="0">
<path d="M230.499 50.9732C230.499 35.3401 243.767 22.667 260.133 22.667C276.5 22.667 289.768 35.3401 289.768 50.9732C289.768 66.6063 276.5 79.2794 260.133 79.2794C243.767 79.2794 230.499 66.6063 230.499 50.9732Z" fill="#0f0083" fill-rule="nonzero" opacity="1" stroke="#000000" stroke-linecap="round" stroke-linejoin="miter" stroke-width="0.5"/>
<g fill="#ffffff" opacity="1" stroke="none">
<path d="M256.885 29.4175L254.506 29.4175L254.506 28.0638C255.134 28.0358 255.573 27.994 255.824 27.9382C256.225 27.8498 256.55 27.673 256.801 27.4078C256.974 27.2264 257.104 26.9845 257.192 26.6821C257.243 26.5007 257.269 26.3657 257.269 26.2774L258.923 26.2774L258.923 36.3956L256.885 36.3956L256.885 29.4175Z"/>
<path d="M263.301 34.0929C263.115 34.251 262.959 34.4348 262.834 34.6441L267.251 34.6441L267.251 36.3956L260.321 36.3956C260.34 35.6699 260.496 35.007 260.789 34.4069C261.073 33.7323 261.743 33.0182 262.799 32.2646C263.715 31.6086 264.308 31.1388 264.578 30.855C264.992 30.4131 265.199 29.9292 265.199 29.4036C265.199 28.9756 265.081 28.6197 264.843 28.3359C264.606 28.0521 264.266 27.9102 263.824 27.9102C263.22 27.9102 262.808 28.1359 262.589 28.5871C262.464 28.8476 262.389 29.2617 262.366 29.8292L260.433 29.8292C260.466 28.9686 260.622 28.2731 260.901 27.7428C261.431 26.7333 262.373 26.2285 263.727 26.2285C264.797 26.2285 265.648 26.5251 266.281 27.1182C266.913 27.7114 267.23 28.4964 267.23 29.4733C267.23 30.2223 267.007 30.8876 266.56 31.4691C266.267 31.8552 265.785 32.2855 265.115 32.76L264.32 33.3253C263.822 33.6788 263.483 33.9347 263.301 34.0929Z"/>
</g>
<path d="M244.086 70.1482C242.956 70.1482 242.1 69.8493 241.518 69.2515C240.937 68.6538 240.646 67.9292 240.646 67.0779C240.646 66.5103 240.775 65.9962 241.033 65.5357C241.291 65.0751 241.669 64.7286 242.167 64.496C241.679 64.1703 241.361 63.8179 241.215 63.4388C241.068 63.0596 240.995 62.7049 240.995 62.3746C240.995 61.6396 241.272 61.0127 241.825 60.494C242.379 59.9753 243.16 59.7159 244.17 59.7159C245.179 59.7159 245.961 59.9753 246.515 60.494C247.068 61.0127 247.345 61.6396 247.345 62.3746C247.345 62.7049 247.272 63.0596 247.125 63.4388C246.979 63.8179 246.661 64.147 246.173 64.4262C246.67 64.7053 247.045 65.0751 247.296 65.5357C247.547 65.9962 247.673 66.5103 247.673 67.0779C247.673 67.9292 247.358 68.6538 246.727 69.2515C246.097 69.8493 245.217 70.1482 244.086 70.1482ZM244.17 68.5154C244.626 68.5154 244.983 68.3781 245.241 68.1036C245.499 67.8292 245.628 67.443 245.628 66.9453C245.628 66.4289 245.497 66.037 245.234 65.7695C244.971 65.502 244.616 65.3682 244.17 65.3682C243.723 65.3682 243.369 65.502 243.106 65.7695C242.843 66.037 242.711 66.4289 242.711 66.9453C242.711 67.443 242.841 67.8292 243.099 68.1036C243.357 68.3781 243.714 68.5154 244.17 68.5154ZM243.235 63.4981C243.458 63.7307 243.77 63.847 244.17 63.847C244.575 63.847 244.887 63.7307 245.108 63.4981C245.329 63.2655 245.44 62.9654 245.44 62.5979C245.44 62.1978 245.329 61.885 245.108 61.6593C244.887 61.4337 244.575 61.3209 244.17 61.3209C243.77 61.3209 243.457 61.4337 243.231 61.6593C243.006 61.885 242.893 62.1978 242.893 62.5979C242.893 62.9654 243.007 63.2655 243.235 63.4981Z" fill="#ffffff" opacity="1" stroke="none"/>
<path d="M271.804 33.2377C271.804 33.2377 275.411 34.9215 279.248 40.3334C284.248 47.3858 281.81 57.0759 278.264 62.4764C275.486 66.7076 269.412 71.0454 260.887 71.0454C256.427 71.0454 253.628 68.7284 253.628 68.7284" fill="#ffffff" fill-opacity="0" fill-rule="nonzero" opacity="1" stroke="#fffcfc" stroke-linecap="round" stroke-linejoin="miter" stroke-width="5"/>
<path d="M251.908 72.2233L250.623 67.5524L255.349 65.206" fill="#ffffff" fill-opacity="0" fill-rule="nonzero" opacity="1" stroke="#fffcfc" stroke-linecap="square" stroke-linejoin="round" stroke-width="3"/>
</g>
<path d="M25.1881 14.6653C25.1881 15.8216 24.9732 16.9173 24.5435 17.9525C24.1138 18.9876 23.4888 19.9192 22.6685 20.7474C21.8482 21.5677 20.9205 22.1927 19.8853 22.6224C18.8502 23.0521 17.7545 23.2669 16.5982 23.2669C15.4498 23.2669 14.3541 23.0501 13.3111 22.6165C12.2681 22.1829 11.3404 21.5599 10.5279 20.7474C9.7076 19.9192 9.0826 18.9876 8.65291 17.9525C8.22322 16.9173 8.00838 15.8216 8.00838 14.6653C8.00838 13.5169 8.22322 12.4232 8.65291 11.3841C9.0826 10.345 9.7076 9.41534 10.5279 8.59503C11.3404 7.78253 12.2681 7.15948 13.3111 6.72589C14.3541 6.2923 15.4498 6.0755 16.5982 6.0755C17.7545 6.0755 18.8502 6.29034 19.8853 6.72003C20.9205 7.14972 21.8482 7.77472 22.6685 8.59503C23.4888 9.41534 24.1138 10.345 24.5435 11.3841C24.9732 12.4232 25.1881 13.5169 25.1881 14.6653ZM21.0631 16.1536L20.2662 16.1653C20.2428 17.095 20.1275 17.7064 19.9205 17.9993C19.7135 18.2923 19.3013 18.4388 18.6842 18.4388L13.7154 18.4388C13.8717 17.931 14.1783 17.4798 14.6353 17.0853C15.0924 16.6907 15.9303 16.2122 17.149 15.6497C18.5865 14.9778 19.5494 14.3528 20.0377 13.7747C20.526 13.1966 20.7701 12.4778 20.7701 11.6185C20.7701 10.6653 20.3678 9.89191 19.5631 9.29816C18.7584 8.70441 17.6959 8.40753 16.3756 8.40753C15.2818 8.40753 14.401 8.64581 13.733 9.12237C13.065 9.59894 12.731 10.2239 12.731 10.9974C12.731 11.4192 12.8482 11.7532 13.0826 11.9993C13.317 12.2454 13.6334 12.3685 14.0318 12.3685C14.3599 12.3685 14.6529 12.2474 14.9107 12.0052C15.1685 11.763 15.2974 11.4896 15.2974 11.1849C15.2974 11.0989 15.2623 10.9505 15.192 10.7396C15.1217 10.5286 15.0865 10.3607 15.0865 10.2357C15.0865 9.99347 15.2154 9.77667 15.4732 9.58526C15.731 9.39386 16.024 9.29816 16.3521 9.29816C16.8443 9.29816 17.2564 9.49933 17.5885 9.90167C17.9205 10.304 18.0865 10.8138 18.0865 11.431C18.0865 12.0872 17.9244 12.6712 17.6002 13.1829C17.276 13.6946 16.567 14.3646 15.4732 15.1927C14.1451 16.2005 13.2681 17.0599 12.8424 17.7708C12.4166 18.4817 12.2037 19.306 12.2037 20.2435L12.2037 20.6888L20.9693 20.6888L21.0631 16.1536Z" fill="#060000" opacity="1" stroke="none"/>
<path d="M57.2139 44.3173L63.3898 46.0952" fill="#c21815" fill-rule="nonzero" opacity="1" stroke="#ffffff" stroke-linecap="round" stroke-linejoin="miter" stroke-width="3"/>
<path d="M66.033 40.8775L63.5604 46.1336" fill="#c21815" fill-rule="nonzero" opacity="1" stroke="#ffffff" stroke-linecap="round" stroke-linejoin="miter" stroke-width="3"/>
<path d="M62.8086 44.9479C62.8086 44.9479 61.8365 41.3319 58.726 37.5215C55.6154 33.711 51.6105 32.6223 51.6105 32.6223" fill="#c21815" fill-opacity="0" fill-rule="nonzero" opacity="1" stroke="#ffffff" stroke-linecap="round" stroke-linejoin="miter" stroke-width="3"/>
</g>
</svg>
