<?xml version="1.0" encoding="UTF-8" standalone="no"?>
<!DOCTYPE svg PUBLIC "-//W3C//DTD SVG 1.1//EN" "http://www.w3.org/Graphics/SVG/1.1/DTD/svg11.dtd">
<!-- Created with Vectornator (http://vectornator.io/) -->
<svg height="100%" stroke-miterlimit="10" style="fill-rule:nonzero;clip-rule:evenodd;stroke-linecap:round;stroke-linejoin:round;" version="1.1" viewBox="0 0 113.4 226.8" width="100%" xml:space="preserve" xmlns="http://www.w3.org/2000/svg" xmlns:xlink="http://www.w3.org/1999/xlink">
<defs/>
<g id="layer">
<path d="M26.9849 107.243L30.6369 110.412C30.6369 110.412 31.4913 111.13 31.1728 112.328C30.8543 113.526 30.4176 113.969 30.4176 113.969L24.7845 120.404C24.7845 120.404 23.4692 121.285 22.3507 123.286C21.2322 125.288 21.4382 125.996 21.4201 126.512C21.1437 134.38 20.8432 151.904 20.5193 167.493C20.1106 187.163 19.9736 216.315 19.9736 216.315C19.9736 216.315 19.7493 218.526 20.6163 219.834C21.4833 221.142 23.9532 220.831 23.9532 220.831C23.9532 220.831 36.4411 220.879 44.4239 221.074C52.8058 221.279 66.3838 221.497 66.3838 221.497C66.3838 221.497 69.4474 222.019 70.8231 220.364C72.1989 218.709 71.9913 215.953 71.9913 215.953C71.9913 215.953 72.4579 187.105 72.7564 167.588C73.0281 149.825 72.6192 126.153 72.6192 126.153C72.6192 126.153 72.3836 124.074 72.1638 123.631C71.9441 123.188 70.7447 121.937 70.7447 121.937L64.7556 113.736C64.7556 113.736 64.2266 112.939 64.483 111.912C64.7394 110.884 65.8108 109.697 65.8108 109.697L67.4201 107.79L26.9849 107.243Z" fill="#fdfeff" fill-rule="nonzero" opacity="1" stroke="#000000" stroke-linecap="round" stroke-linejoin="miter" stroke-width="1"/>
<g opacity="1">
<path d="M2.32879 56.8597L23.6147 79.2009L57.1432 47.7539L35.735 25.0346L2.32879 56.8597Z" fill="#f9f9f9" fill-rule="nonzero" opacity="1" stroke="#000000" stroke-linecap="round" stroke-linejoin="miter" stroke-width="1"/>
<path d="M34.9255 31.351L8.0689 56.5335L24.3761 73.5961L51.2363 47.9948L34.9255 31.351Z" fill="#743c05" fill-rule="nonzero" opacity="1" stroke="#000000" stroke-linecap="round" stroke-linejoin="miter" stroke-width="0.5"/>
</g>
<g opacity="1">
<path d="M50.1242 84.8367C47.2397 91.1917 57.9414 80.972 64.2612 88.4515C70.581 95.931 77.7893 112.51 77.7893 112.51C77.7893 112.51 79.1264 115.004 80.9164 115.63C82.7063 116.257 84.9491 115.015 84.9491 115.015L107.681 94.2599C107.681 94.2599 110.116 91.4192 110.358 89.2564C110.599 87.0935 108.646 85.6085 108.646 85.6085L76.545 65.8126L74.2202 60.9781C74.2202 60.9781 53.0086 78.4818 50.1242 84.8367Z" fill="#fdfeff" fill-rule="nonzero" opacity="1" stroke="#000000" stroke-linecap="round" stroke-linejoin="miter" stroke-width="1"/>
<path d="M80.6622 68.2304C80.6622 68.2304 85.0425 60.2186 88.714 60.4402C97.3116 60.9589 101.599 80.9107 101.599 80.9107L99.8571 79.7217C99.8571 79.7217 96.2293 63.7883 89.5363 63.9756C86.0247 64.0739 83.8591 70.1737 83.8591 70.1737L80.6622 68.2304Z" fill="#fdfeff" fill-rule="nonzero" opacity="1" stroke="#000000" stroke-linecap="round" stroke-linejoin="miter" stroke-width="1"/>
<path d="M55.2133 83.6961C55.5869 85.3351 59.2473 82.5633 64.7473 88.6293C70.0213 94.4461 76.2457 107.863 76.2457 107.863C76.2457 107.863 77.9649 115.117 81.3594 115.455C85.7625 115.894 88.2637 111.075 94.9291 105.424C101.594 99.7731 107.075 95.0159 108.322 92.7501C109.318 90.9388 111.44 89.1574 108.573 86.2179C105.707 83.2784 97.9818 84.8658 97.9818 84.8658C97.9818 84.8658 90.9173 86.9056 81.7229 84.1771C72.5285 81.4486 54.4008 80.1322 55.2133 83.6961Z" fill="#7b94e8" fill-rule="nonzero" opacity="1" stroke="#000000" stroke-linecap="round" stroke-linejoin="miter" stroke-opacity="0" stroke-width="0.5"/>
</g>
<path d="M39.9066 69.9722L41.7121 101.448" fill="#1291c5" fill-opacity="0" fill-rule="nonzero" opacity="1" stroke="#000000" stroke-linecap="round" stroke-linejoin="miter" stroke-width="3"/>
<path d="M34.8365 93.9667L41.9056 102.141L48.295 93.7531" fill="#1291c5" fill-opacity="0" fill-rule="nonzero" opacity="1" stroke="#000000" stroke-linecap="round" stroke-linejoin="miter" stroke-width="3"/>
<path d="M23.3955 13.4967C23.3955 14.6529 23.1806 15.7486 22.7509 16.7838C22.3213 17.8189 21.6963 18.7506 20.8759 19.5787C20.0556 20.399 19.1279 21.024 18.0927 21.4537C17.0576 21.8834 15.9619 22.0982 14.8056 22.0982C13.6572 22.0982 12.5615 21.8814 11.5185 21.4478C10.4756 21.0142 9.54782 20.3912 8.73532 19.5787C7.91501 18.7506 7.29001 17.8189 6.86032 16.7838C6.43064 15.7486 6.21579 14.6529 6.21579 13.4967C6.21579 12.3482 6.43064 11.2545 6.86032 10.2154C7.29001 9.17635 7.91501 8.24666 8.73532 7.42635C9.54782 6.61385 10.4756 5.99081 11.5185 5.55721C12.5615 5.12362 13.6572 4.90682 14.8056 4.90682C15.9619 4.90682 17.0576 5.12166 18.0927 5.55135C19.1279 5.98104 20.0556 6.60604 20.8759 7.42635C21.6963 8.24666 22.3213 9.17635 22.7509 10.2154C23.1806 11.2545 23.3955 12.3482 23.3955 13.4967ZM18.5205 19.5201L18.5205 18.7349C17.8174 18.6881 17.2783 18.5357 16.9033 18.2779C16.5283 18.0201 16.3017 17.6451 16.2236 17.1529L16.2236 7.23885L15.3799 7.23885C14.8408 7.87166 14.2295 8.35213 13.5459 8.68026C12.8623 9.00838 12.1064 9.18416 11.2783 9.2076L11.2783 9.99276L12.8603 9.89901L12.9541 9.89901C13.2666 9.89901 13.4853 9.98885 13.6103 10.1685C13.7353 10.3482 13.7978 10.6685 13.7978 11.1295L13.7978 17.1529C13.7978 17.8248 13.6689 18.2564 13.4111 18.4478C13.1533 18.6392 12.5127 18.7349 11.4892 18.7349L11.4892 19.5201L18.5205 19.5201Z" fill="#060000" opacity="1" stroke="none"/>
</g>
</svg>
