<?xml version="1.0" encoding="UTF-8" standalone="no"?>
<!DOCTYPE svg PUBLIC "-//W3C//DTD SVG 1.1//EN" "http://www.w3.org/Graphics/SVG/1.1/DTD/svg11.dtd">
<!-- Created with Vectornator (http://vectornator.io/) -->
<svg height="100%" stroke-miterlimit="10" style="fill-rule:nonzero;clip-rule:evenodd;stroke-linecap:round;stroke-linejoin:round;" version="1.1" viewBox="0 0 113.4 226.8" width="100%" xml:space="preserve" xmlns="http://www.w3.org/2000/svg" xmlns:vectornator="http://vectornator.io" xmlns:xlink="http://www.w3.org/1999/xlink">
<defs/>
<g id="layer" vectornator:layerName="layer">
<path d="M14.0206 102.132L17.6726 105.378C17.6726 105.378 18.527 106.114 18.2085 107.341C17.89 108.567 17.4533 109.021 17.4533 109.021L11.8202 115.612C11.8202 115.612 10.5049 116.514 9.38643 118.565C8.26793 120.615 8.47392 121.34 8.45577 121.869C8.1794 129.928 7.87888 147.876 7.55496 163.844C7.14626 183.991 7.00925 213.85 7.00925 213.85C7.00925 213.85 6.78504 216.114 7.65201 217.454C8.51898 218.794 10.9889 218.475 10.9889 218.475C10.9889 218.475 23.4768 218.525 31.4596 218.724C39.8415 218.934 53.4195 219.158 53.4195 219.158C53.4195 219.158 56.4831 219.693 57.8588 217.997C59.2346 216.302 59.027 213.479 59.027 213.479C59.027 213.479 59.4935 183.932 59.7921 163.941C60.0638 145.747 59.6549 121.501 59.6549 121.501C59.6549 121.501 59.4192 119.372 59.1995 118.918C58.9798 118.464 57.7804 117.182 57.7804 117.182L51.7913 108.782C51.7913 108.782 51.2623 107.967 51.5187 106.914C51.7751 105.862 52.8465 104.645 52.8465 104.645L54.4558 102.693L14.0206 102.132Z" fill="#fdfeff" fill-rule="nonzero" opacity="1" stroke="#000000" stroke-linecap="round" stroke-linejoin="miter" stroke-opacity="0" stroke-width="1"/>
<path d="M8.05976 217.797C9.13528 219.426 13.3288 218.919 13.3288 218.919L52.1944 219.419C52.1944 219.419 56.6514 220.558 58.2253 217.933C59.5587 215.71 59.3511 212.702 59.3511 212.702L60.2697 156.4L8.34276 156.685L7.3609 209.83C7.3609 209.83 6.70388 215.743 8.05976 217.797Z" fill="#ffa96f" fill-rule="nonzero" opacity="1" stroke="#000000" stroke-linecap="round" stroke-linejoin="miter" stroke-opacity="0" stroke-width="0.5"/>
<path d="M14.3481 102.514L18.0001 105.76C18.0001 105.76 18.8546 106.496 18.5361 107.723C18.2176 108.949 17.7808 109.403 17.7808 109.403L12.1477 115.994C12.1477 115.994 10.8325 116.896 9.71396 118.946C8.59546 120.997 8.80145 121.722 8.7833 122.251C8.50693 130.309 8.20641 148.258 7.88249 164.226C7.47378 184.372 7.33678 214.231 7.33678 214.231C7.33678 214.231 7.11257 216.496 7.97954 217.836C8.84651 219.176 11.3164 218.857 11.3164 218.857C11.3164 218.857 23.8044 218.907 31.7871 219.106C40.1691 219.316 53.747 219.54 53.747 219.54C53.747 219.54 56.8106 220.074 58.1864 218.379C59.5621 216.684 59.3545 213.861 59.3545 213.861C59.3545 213.861 59.8211 184.314 60.1196 164.323C60.3914 146.129 59.9825 121.883 59.9825 121.883C59.9825 121.883 59.7468 119.754 59.5271 119.3C59.3073 118.846 58.1079 117.564 58.1079 117.564L52.1188 109.164C52.1188 109.164 51.5899 108.349 51.8462 107.296C52.1026 106.244 53.174 105.027 53.174 105.027L54.7833 103.075L14.3481 102.514Z" fill="#fdfeff" fill-opacity="0" fill-rule="nonzero" opacity="1" stroke="#000000" stroke-linecap="round" stroke-linejoin="miter" stroke-width="1"/>
<path d="M34.8725 74.9451C34.096 78.5076 23.4597 88.8224 23.3524 102.982C23.2136 121.303 25.1568 144.482 25.1568 144.482" fill="#1291c5" fill-opacity="0" fill-rule="nonzero" opacity="1" stroke="#000000" stroke-linecap="round" stroke-linejoin="miter" stroke-width="3"/>
<path d="M25.3972 78.7194L36.2232 73.4451L38.5828 86.3531" fill="#1291c5" fill-opacity="0" fill-rule="nonzero" opacity="1" stroke="#000000" stroke-linecap="round" stroke-linejoin="miter" stroke-width="3"/>
<g opacity="1" vectornator:layerName="(curve)">
<path d="M45.3855 25.7006L26.2318 54.2674C26.2318 54.2674 24.6416 56.3727 24.5831 58.0219C24.5245 59.6712 25.9975 60.8644 25.9975 60.8644L44.3272 72.5326C44.3272 72.5326 46.3913 73.9196 48.1158 73.5259C49.8403 73.1323 51.2252 70.9581 51.2252 70.9581L70.0326 42.5014C70.0326 42.5014 71.3345 41.1778 71.1673 39.1784C71.0001 37.1791 69.4143 36.06 69.4143 36.06L51.6152 24.5174C51.6152 24.5174 49.5058 23.516 48.1009 23.8393C46.696 24.1626 45.3855 25.7006 45.3855 25.7006Z" fill="#fdfeff" fill-rule="nonzero" opacity="1" stroke="#000000" stroke-linecap="round" stroke-linejoin="miter" stroke-width="0.5"/>
<path d="M48.6265 28.2562L29.2896 57.2545L47.1707 68.9089L67.0824 40.0135L48.6265 28.2562Z" fill="#471400" fill-rule="nonzero" opacity="1" stroke="#000000" stroke-linecap="round" stroke-linejoin="miter" stroke-width="0.5"/>
</g>
<path d="M67.2736 156.805L71.8622 216.276C71.8622 216.276 78.847 219.639 86.1797 219.774C93.5124 219.909 101.193 216.816 101.193 216.816L106.321 157.165L67.2736 156.805Z" fill="#ffffff" fill-rule="nonzero" opacity="1" stroke="#000000" stroke-linecap="round" stroke-linejoin="miter" stroke-opacity="0" stroke-width="1"/>
<path d="M68.7348 165.381L72.5232 216.162C72.5232 216.162 79.9036 219.437 87.0581 219.606C94.2126 219.775 101.467 216.699 101.467 216.699L105.667 165.685L68.7348 165.381Z" fill="#ffa86e" fill-rule="nonzero" opacity="1" stroke="#000000" stroke-linecap="round" stroke-linejoin="miter" stroke-opacity="0" stroke-width="1.63905"/>
<path d="M67.7062 156.906L72.2947 216.377C72.2947 216.377 79.2796 219.74 86.6123 219.875C93.945 220.01 101.626 216.917 101.626 216.917L106.754 157.266L67.7062 156.906Z" fill="#ffffff" fill-opacity="0" fill-rule="nonzero" opacity="1" stroke="#000000" stroke-linecap="round" stroke-linejoin="miter" stroke-width="1"/>
<path d="M82.0829 167.598L76.1209 172.197L80.8053 178.67L86.8525 174.156L82.0829 167.598Z" fill="#ffffff" fill-rule="nonzero" opacity="1" stroke="#000000" stroke-linecap="round" stroke-linejoin="miter" stroke-width="1"/>
<path d="M87.1822 172.866L91.5259 178.828L97.6583 174.399L93.3997 167.926L87.1822 172.866Z" fill="#ffffff" fill-rule="nonzero" opacity="1" stroke="#000000" stroke-linecap="round" stroke-linejoin="miter" stroke-width="1"/>
<path d="M85.3202 173.81L90.4305 178.579L89.7411 179.442L86.0868 183.83L80.6358 179.922L85.3202 173.81Z" fill="#ffffff" fill-rule="nonzero" opacity="1" stroke="#000000" stroke-linecap="round" stroke-linejoin="miter" stroke-width="1"/>
<path d="M23.144 14.3166C23.144 15.4728 22.9291 16.5685 22.4994 17.6037C22.0697 18.6388 21.4447 19.5705 20.6244 20.3986C19.8041 21.2189 18.8764 21.8439 17.8412 22.2736C16.8061 22.7033 15.7104 22.9181 14.5541 22.9181C13.4057 22.9181 12.31 22.7013 11.267 22.2677C10.224 21.8342 9.2963 21.2111 8.4838 20.3986C7.66348 19.5705 7.03848 18.6388 6.6088 17.6037C6.17911 16.5685 5.96426 15.4728 5.96426 14.3166C5.96426 13.1681 6.17911 12.0744 6.6088 11.0353C7.03848 9.99626 7.66348 9.06657 8.4838 8.24626C9.2963 7.43376 10.224 6.81071 11.267 6.37712C12.31 5.94353 13.4057 5.72673 14.5541 5.72673C15.7104 5.72673 16.8061 5.94157 17.8412 6.37126C18.8764 6.80095 19.8041 7.42595 20.6244 8.24626C21.4447 9.06657 22.0697 9.99626 22.4994 11.0353C22.9291 12.0744 23.144 13.1681 23.144 14.3166ZM14.0268 14.1525C14.769 14.1525 15.3471 14.3713 15.7611 14.8088C16.1752 15.2463 16.3822 15.8595 16.3822 16.6486C16.3822 17.4845 16.1518 18.1701 15.6908 18.7052C15.2299 19.2404 14.644 19.508 13.933 19.508C13.5502 19.508 13.2338 19.4181 12.9838 19.2384C12.7338 19.0588 12.6088 18.8361 12.6088 18.5705C12.6088 18.4767 12.6361 18.34 12.6908 18.1603C12.7455 17.9806 12.7729 17.8361 12.7729 17.7267C12.7729 17.3517 12.6498 17.0431 12.4037 16.8009C12.1576 16.5588 11.8432 16.4377 11.4604 16.4377C11.0229 16.4377 10.6772 16.5627 10.4232 16.8127C10.1693 17.0627 10.0424 17.3986 10.0424 17.8205C10.0424 18.6017 10.4232 19.2424 11.185 19.7424C11.9467 20.2424 12.933 20.4924 14.144 20.4924C15.6361 20.4924 16.8529 20.1447 17.7943 19.4494C18.7357 18.7541 19.2065 17.8595 19.2065 16.7658C19.2065 15.8439 18.8607 15.0959 18.1693 14.5217C17.4779 13.9474 16.5463 13.6408 15.3744 13.6017L15.3744 13.5314C16.3588 13.3361 17.1088 13.0119 17.6244 12.5588C18.14 12.1056 18.3979 11.5392 18.3979 10.8595C18.3979 10.008 18.0385 9.32829 17.3197 8.82048C16.601 8.31267 15.6322 8.05876 14.4135 8.05876C13.2963 8.05876 12.392 8.27751 11.7006 8.71501C11.0092 9.15251 10.6635 9.71892 10.6635 10.4142C10.6635 10.7814 10.7768 11.0802 11.0033 11.3107C11.2299 11.5412 11.5268 11.6564 11.894 11.6564C12.2221 11.6564 12.4994 11.5373 12.726 11.299C12.9525 11.0607 13.0658 10.7658 13.0658 10.4142C13.0658 10.3127 13.0404 10.1955 12.9897 10.0627C12.9389 9.92986 12.9096 9.84001 12.9018 9.79314C12.9252 9.55876 13.0482 9.36736 13.2709 9.21892C13.4936 9.07048 13.769 8.99626 14.0971 8.99626C14.6518 8.99626 15.0951 9.18181 15.4272 9.5529C15.7592 9.924 15.9252 10.4259 15.9252 11.0588C15.9252 11.7931 15.6967 12.3595 15.2397 12.758C14.7826 13.1564 14.1283 13.3556 13.2768 13.3556L12.6791 13.3556L12.6791 14.1525L14.0268 14.1525Z" fill="#060000" opacity="1" stroke="none"/>
</g>
</svg>
