<?xml version="1.0" encoding="utf-8"?>
<svg x="0pt" y="21pt" width="500pt" height="185pt" viewBox="0 21 500 185" xmlns="http://www.w3.org/2000/svg" xmlns:xlink="http://www.w3.org/1999/xlink">
  <!--Generated by AMDN-->
  <g id="Layer 1">
    <g id="Layer 6">
      <path id="Path" style="fill:#ffffff;fill-opacity:1;fill-rule:evenodd;opacity:1;stroke:#000000;stroke-linecap:butt;stroke-linejoin:round;stroke-miterlimit:10;stroke-opacity:1;stroke-width:0;" d="M1.98674,23.3425 C1.98674,23.3425,498.001,23.3425,498.001,23.3425 C498.001,23.3425,498.001,204.209,498.001,204.209 C498.001,204.209,1.98674,204.209,1.98674,204.209 C1.98674,204.209,1.98674,23.3425,1.98674,23.3425 z"/>
    </g>
    <path id="Path 2" style="fill:#ffffff;fill-opacity:1;fill-rule:nonzero;opacity:1;stroke:#000000;stroke-linecap:butt;stroke-linejoin:round;stroke-miterlimit:10;stroke-opacity:1;stroke-width:0.5;" d="M47.1815,138.734 C51.7032,132.748,52.7637,129.774,53.8568,123.896 C55.155,116.915,55.5823,109.159,53.3149,107.875 C44.2307,102.73,38.3847,90.4305,37.3458,84.2468 C35.3215,72.1969,37.2811,62.2722,43.4101,51.4121 C61.2308,19.8358,104.778,15.461,123.05,43.8936 C135.421,63.1464,128.868,72.2967,128.25,80.1098 C127.632,87.9231,138.653,98.7941,137.019,102.038 C135.659,104.736,130.963,103.059,129.774,105.052 C128.723,106.815,128.972,107.37,129.375,110.758 C129.515,111.923,131.577,111.718,130.711,112.924 C128.291,116.292,121.139,116.646,121.157,119.286 C121.175,122.034,122.941,121.738,127.13,122.817 C127.915,123.02,128.801,123.999,128.473,125.03 C128.323,125.501,126.142,126.227,125.748,127.47 C124.853,130.304,126.008,134.301,121.611,137.654 C116.906,141.241,112.235,136.462,108.528,136.662 C103.558,136.929,96.4049,145.219,95.2645,153.719"/>
    <path id="Path 3" style="fill:#000000;fill-opacity:0;fill-rule:nonzero;opacity:1;stroke:#020000;stroke-linecap:butt;stroke-linejoin:round;stroke-miterlimit:10;stroke-opacity:1;stroke-width:0.5;" d="M450.882,136.928 C446.486,130.959,447.646,125.038,447.828,119.081 C448.126,109.369,452.016,105.623,453.169,104.364 C461.61,95.1502,463.052,91.6755,464.835,85.6932 C469.091,71.4074,466.196,61.7301,460.236,50.9009 C442.907,19.4142,394.686,20.6187,376.918,48.9705 C364.888,68.1687,372.026,77.802,371.614,82.7512 C371.178,87.9768,362.227,99.3755,363.816,102.61 C365.139,105.3,367.725,104.545,369.83,105.41 C370.861,105.833,372.138,106.362,371.746,109.739 C371.611,110.903,370.947,112.198,370.963,113.204 C370.975,113.964,371.135,116.006,371.307,116.842 C371.447,117.521,371.307,118.429,371.594,119.032 C371.879,119.635,372.125,121.722,372.717,124.206 C373.466,127.351,374.969,128.207,375.081,129.501 C375.94,139.42,380.512,139.986,381.196,140.075 C386.494,140.766,387.722,137.996,390.538,137.83 C394.679,137.586,407.76,139.575,408.868,148.05"/>
    <g id="Group">
      <path id="Path 4" style="fill:#000000;fill-opacity:0;fill-rule:nonzero;opacity:1;stroke:none;" d="M85.4776,56.5772 C85.4776,56.5772,84.9968,93.8798,85.0139,93.5939"/>
      <path id="Path 5" style="fill:none;opacity:1;stroke:#000000;stroke-linecap:round;stroke-linejoin:round;stroke-miterlimit:10;stroke-opacity:1;stroke-width:0.966902;" d="M85.0759,88.1936 C85.2025,77.9222,85.4776,56.5772,85.4776,56.5772"/>
      <g id="Group">
        <path id="Path 6" style="fill:#000000;fill-opacity:1;fill-rule:nonzero;opacity:1;stroke:none;" d="M83.2103,86.401 C83.2103,86.401,85.0139,93.5899,85.0139,93.5899 C85.0139,93.5899,86.714,86.401,86.714,86.401 C86.714,86.401,83.2103,86.401,83.2103,86.401 z"/>
      </g>
    </g>
  </g>
  <g id="Layer 4"/>
  <g id="Layer 2">
    <path id="Path" style="fill:#ffffff;fill-opacity:1;fill-rule:evenodd;opacity:1;stroke:#020000;stroke-linecap:butt;stroke-linejoin:round;stroke-miterlimit:10;stroke-opacity:1;stroke-width:0.5;" d="M274.807,56.9862 C274.807,56.9862,294.805,66.4308,294.805,66.4308 C294.805,66.4308,215.474,153.674,215.474,153.674 C215.474,153.674,195.476,144.23,195.476,144.23 C195.476,144.23,274.807,56.9862,274.807,56.9862 z"/>
  </g>
  <g id="Layer 3">
    <g id="Group">
      <path id="Path" style="fill:#505050;fill-opacity:1;fill-rule:nonzero;opacity:1;stroke:#020000;stroke-linecap:butt;stroke-linejoin:round;stroke-miterlimit:10;stroke-opacity:1;stroke-width:0;" d="M238.728,87.8031 C240.201,88.8274,242.397,91.3672,244.449,92.0705 C246.16,92.6568,251.528,92.7943,252.968,92.1429 C255.341,91.0697,260.785,86.786,260.785,86.786 C260.785,86.786,254.322,89.041,252.673,88.2963 C250.916,87.5034,249.287,85.6178,247.271,84.6791 C245.304,83.7633,240.019,83.2557,240.019,83.2557 C240.019,83.2557,233.635,82.5207,233.635,82.5207 C233.635,82.5207,232.7,84.9308,232.7,84.9308 C232.7,84.9308,237.358,86.8497,238.728,87.8031 z"/>
      <path id="Path" style="fill:#ffffff;fill-opacity:1;fill-rule:nonzero;opacity:1;stroke:#020000;stroke-linecap:butt;stroke-linejoin:round;stroke-miterlimit:10;stroke-opacity:1;stroke-width:0;" d="M238.138,87.1321 C239.611,88.1565,241.887,90.2454,243.749,91.3576 C245.299,92.2825,245.572,90.7409,245.944,89.8641 C246.354,88.8984,245.488,87.5723,245.488,87.5723 C245.488,87.5723,246.795,86.3447,246.795,86.3447 C246.795,86.3447,246.332,85.3631,245.909,84.993 C244.637,83.8783,239.348,83.4158,239.348,83.4158 C239.348,83.4158,232.988,82.1694,232.988,82.1694 C232.988,82.1694,232.376,84.3718,232.376,84.3718 C232.376,84.3718,236.768,86.1788,238.138,87.1321 z"/>
    </g>
    <path id="Path" style="fill:#9e9e9e;fill-opacity:1;fill-rule:nonzero;opacity:1;stroke:#020000;stroke-linecap:butt;stroke-linejoin:round;stroke-miterlimit:10;stroke-opacity:1;stroke-width:0.5;" d="M173.59,58.6479 C174.102,57.1892,175.73,56.4558,177.162,57.0394 C177.162,57.0394,237.044,81.3535,237.044,81.3535 C238.499,81.9466,239.723,83.1215,239.026,84.5286 C239.026,84.5286,238.128,87.0263,238.128,87.0263 C237.49,88.3115,236.01,88.1419,234.691,87.5768 C234.691,87.5768,175.075,62.0298,175.075,62.0298 C173.768,61.4697,173.119,59.9929,173.589,58.6511 C173.589,58.6511,173.59,58.6479,173.59,58.6479 z"/>
    <path id="Path" style="fill:#ffffff;fill-opacity:1;fill-rule:nonzero;opacity:1;stroke:#020000;stroke-linecap:butt;stroke-linejoin:round;stroke-miterlimit:10;stroke-opacity:1;stroke-width:0.5;" d="M185.201,122.602 C185.201,122.602,196.471,107.509,200.648,102.506 C204.201,98.2504,208.712,87.9562,211.172,82.9881 C212.967,79.3607,216.363,71.5149,219.805,69.4502 C223.435,67.2732,228.995,70.1791,232.859,71.8506 C235.329,72.9194,236.305,76.1335,237.93,78.2776 C239.601,80.4816,240.356,80.6119,240.253,83.3548 C240.145,86.2267,239.969,88.7363,237.174,89.0657 C234.529,89.3772,232.712,90.2992,232.712,90.2992 C232.712,90.2992,230.781,97.0987,229.273,98.9225 C226.518,102.255,214.839,106.073,214.839,106.073 C214.839,106.073,197.613,127.769,197.613,127.769"/>
    <g id="Group Copy">
      <path id="Path 11" style="fill:none;opacity:1;stroke:#000000;stroke-linecap:round;stroke-linejoin:round;stroke-miterlimit:10;stroke-opacity:1;stroke-width:0.966902;" d="M251.369,117.84 C254.9,124.713,271.514,145.895,285.206,145.282 C299.089,144.66,308.247,141.449,329.755,119.942 C345.49,104.207,347.943,82.665,376.007,80.9635"/>
      <path id="Path 11 Copy" style="fill:none;opacity:1;stroke:#000000;stroke-linecap:round;stroke-linejoin:round;stroke-miterlimit:10;stroke-opacity:1;stroke-width:0.966902;" d="M417.401,72.7327 C417.96,95.3476,405.632,79.7495,391.11,80.1644"/>
      <g id="Group">
        <path id="Path 12" style="fill:#000000;fill-opacity:1;fill-rule:nonzero;opacity:1;stroke:none;" d="M250.383,120.931 C250.383,120.931,250.046,112.821,250.046,112.821 C250.046,112.821,255.283,119.072,255.283,119.072 C255.283,119.072,250.383,120.931,250.383,120.931 z"/>
      </g>
    </g>
    <g id="Group Copy 1">
      <path id="Path 11" style="fill:none;opacity:1;stroke:#000000;stroke-linecap:round;stroke-linejoin:round;stroke-miterlimit:10;stroke-opacity:1;stroke-width:0.966902;" d="M197.972,117.84 C192.086,122.286,184.706,129.183,177.931,131.179 C165.444,134.858,164.663,117.242,148.973,118.533"/>
      <g id="Group">
        <path id="Path 12" style="fill:#000000;fill-opacity:1;fill-rule:nonzero;opacity:1;stroke:none;" d="M198.378,121.074 C198.378,121.074,201.368,115.018,201.368,115.018 C201.368,115.018,195.044,116.59,195.044,116.59 C195.044,116.59,198.378,121.074,198.378,121.074 z"/>
      </g>
    </g>
    <path id="Path 21" style="fill:#000000;fill-opacity:1;fill-rule:nonzero;opacity:1;stroke:none;" d="M261.785,85.4738 C261.785,85.4738,267.252,85.4738,267.252,85.4738 C267.252,85.4738,267.462,82.6894,267.462,82.6894 C267.462,82.6894,267.169,82.6614,267.169,82.6614 C266.875,84.5923,266.497,85.054,265.175,85.054 C265.175,85.054,263.517,85.054,263.517,85.054 C263.517,85.054,263.517,80.4227,263.517,80.4227 C263.517,80.4227,264.597,80.4227,264.597,80.4227 C265.217,80.4227,265.626,80.5347,265.783,80.7446 C265.93,80.9544,266.004,81.2203,266.077,81.8639 C266.077,81.8639,266.371,81.8639,266.371,81.8639 C266.371,81.8639,266.371,78.5758,266.371,78.5758 C266.371,78.5758,266.077,78.5758,266.077,78.5758 C265.962,79.8071,265.762,80.003,264.597,80.003 C264.597,80.003,263.517,80.003,263.517,80.003 C263.517,80.003,263.517,75.7495,263.517,75.7495 C263.517,75.7495,264.965,75.7495,264.965,75.7495 C266.308,75.7495,266.696,76.1692,266.948,77.8623 C266.948,77.8623,267.252,77.8343,267.252,77.8343 C267.252,77.8343,267.085,75.3297,267.085,75.3297 C267.085,75.3297,261.785,75.3297,261.785,75.3297 C261.785,75.3297,261.785,75.6655,261.785,75.6655 C262.268,75.6655,262.457,75.7775,262.53,76.0713 C262.562,76.1972,262.562,76.2112,262.583,77.1067 C262.583,77.1067,262.583,83.6968,262.583,83.6968 C262.562,84.7462,262.562,84.7602,262.446,84.9281 C262.352,85.068,262.142,85.138,261.785,85.138 C261.785,85.138,261.785,85.4738,261.785,85.4738 z"/>
    <path id="Path 17" style="fill:#000000;fill-opacity:1;fill-rule:nonzero;opacity:1;stroke:none;" d="M83.3357,48.6134 C83.3357,48.6134,86.2635,48.6134,86.2635,48.6134 C86.2635,48.6134,86.7042,50.3763,86.7042,50.3763 C86.7882,50.7261,86.8301,51.006,86.8301,51.1739 C86.8301,51.5796,86.6098,51.7475,86.0746,51.7755 C86.0746,51.7755,86.0746,52.1253,86.0746,52.1253 C86.0746,52.1253,88.782,52.1253,88.782,52.1253 C88.782,52.1253,88.782,51.7755,88.782,51.7755 C88.1734,51.7475,87.974,51.4817,87.6801,50.3344 C87.6801,50.3344,85.4555,41.8833,85.4555,41.8833 C85.4555,41.8833,84.8048,41.9813,84.8048,41.9813 C84.8048,41.9813,82.5697,49.8726,82.5697,49.8726 C82.1709,51.2858,81.8246,51.7755,81.2264,51.7755 C81.2264,51.7755,81.2264,52.1253,81.2264,52.1253 C81.2264,52.1253,83.682,52.1253,83.682,52.1253 C83.682,52.1253,83.682,51.7755,83.682,51.7755 C83.0734,51.7475,82.8005,51.5237,82.8005,51.0199 C82.8005,50.7541,82.874,50.3204,82.9999,49.8726 C82.9999,49.8726,83.3357,48.6134,83.3357,48.6134 z M86.1271,48.0957 C86.1271,48.0957,83.4826,48.0957,83.4826,48.0957 C83.4826,48.0957,84.8468,43.1985,84.8468,43.1985 C84.8468,43.1985,86.1271,48.0957,86.1271,48.0957 z"/>
    <path id="Path 14" style="fill:none;opacity:1;stroke:#000000;stroke-linecap:round;stroke-linejoin:round;stroke-miterlimit:10;stroke-opacity:1;stroke-width:0.966902;" d="M133.846,118.68 C133.846,118.68,105.616,121.189,97.6965,121.06 C87.2931,120.891,85.2632,108.204,85.2632,108.204"/>
    <g id="Group">
      <path id="Path 15" style="fill:#000000;fill-opacity:1;fill-rule:nonzero;opacity:1;stroke:none;" d="M132.518,120.872 C132.518,120.872,138.928,118.463,138.928,118.463 C138.928,118.463,132.325,116.631,132.325,116.631 C132.325,116.631,132.518,120.872,132.518,120.872 z"/>
    </g>
    <path id="Path 18" style="fill:#000000;fill-opacity:1;fill-rule:nonzero;opacity:1;stroke:none;" d="M82.2382,105.953 C82.2382,105.953,85.0505,105.953,85.0505,105.953 C85.7641,105.953,86.4252,105.855,86.824,105.701 C87.7684,105.295,88.2302,104.498,88.2302,103.211 C88.2302,102.147,87.8944,101.42,87.1808,100.93 C86.8135,100.678,86.4882,100.58,85.974,100.552 C85.974,100.552,85.974,100.454,85.974,100.454 C87.2962,100.23,87.9363,99.4889,87.9363,98.1596 C87.9363,97.2362,87.6425,96.6065,87.0339,96.2148 C86.6246,95.9629,85.9215,95.809,85.103,95.809 C85.103,95.809,82.2382,95.809,82.2382,95.809 C82.2382,95.809,82.2382,96.1448,82.2382,96.1448 C82.7209,96.1448,82.9098,96.2567,82.9833,96.5506 C83.0147,96.6765,83.0147,96.6905,83.0357,97.586 C83.0357,97.586,83.0357,104.176,83.0357,104.176 C83.0147,105.225,83.0147,105.239,82.8993,105.407 C82.8049,105.547,82.595,105.617,82.2382,105.617 C82.2382,105.617,82.2382,105.953,82.2382,105.953 z M83.9697,100.3 C83.9697,100.3,83.9697,96.2288,83.9697,96.2288 C83.9697,96.2288,84.9351,96.2288,84.9351,96.2288 C86.2888,96.2288,86.9394,96.8724,86.9394,98.2156 C86.9394,99.5868,86.2888,100.3,85.0296,100.3 C85.0296,100.3,83.9697,100.3,83.9697,100.3 z M83.9697,105.533 C83.9697,105.533,83.9697,100.762,83.9697,100.762 C83.9697,100.762,84.9876,100.762,84.9876,100.762 C85.5647,100.762,86.0789,100.888,86.3833,101.098 C86.887,101.462,87.1598,102.147,87.1598,103.099 C87.1598,103.924,86.9709,104.596,86.6351,104.96 C86.2993,105.351,85.7536,105.533,84.9876,105.533 C84.9876,105.533,83.9697,105.533,83.9697,105.533 z"/>
    <path id="Path 19" style="fill:#000000;fill-opacity:1;fill-rule:nonzero;opacity:1;stroke:none;" d="M146.973,116.992 C146.973,116.992,146.973,113.941,146.973,113.941 C146.627,114.109,146.575,114.137,146.428,114.137 C146.249,114.137,146.144,114.109,145.651,113.899 C145.189,113.703,144.728,113.592,144.318,113.592 C143.615,113.592,142.87,113.899,142.335,114.445 C141.391,115.369,140.856,117.034,140.856,118.992 C140.856,120.545,141.191,121.819,141.842,122.756 C142.461,123.638,143.311,124.127,144.256,124.127 C145.179,124.127,145.977,123.75,146.512,123.064 C146.879,122.588,147.141,122.029,147.372,121.217 C147.372,121.217,147.068,121.035,147.068,121.035 C146.659,122.616,145.714,123.568,144.549,123.568 C142.965,123.568,141.915,121.651,141.915,118.727 C141.915,117.369,142.125,116.18,142.524,115.327 C142.902,114.487,143.605,113.969,144.36,113.969 C145.043,113.969,145.683,114.389,146.113,115.103 C146.396,115.606,146.543,116.124,146.638,116.992 C146.638,116.992,146.973,116.992,146.973,116.992 z"/>
    <path id="Path 20" style="fill:#000000;fill-opacity:1;fill-rule:nonzero;opacity:1;stroke:none;" d="M217.154,93.778 C217.154,93.778,219.851,93.778,219.851,93.778 C221.121,93.778,221.982,93.5402,222.622,92.994 C223.577,92.1685,224.091,90.6434,224.091,88.6425 C224.091,86.5438,223.535,85.0187,222.464,84.2072 C221.95,83.8154,221.195,83.6335,220.114,83.6335 C220.114,83.6335,217.154,83.6335,217.154,83.6335 C217.154,83.6335,217.154,83.9693,217.154,83.9693 C217.637,83.9693,217.826,84.0812,217.899,84.3751 C217.931,84.501,217.931,84.515,217.952,85.4104 C217.952,85.4104,217.952,92.0006,217.952,92.0006 C217.931,93.05,217.931,93.0639,217.815,93.2323 C217.721,93.3723,217.511,93.4422,217.154,93.4422 C217.154,93.4422,217.154,93.778,217.154,93.778 z M218.907,93.3583 C218.907,93.3583,218.907,84.0532,218.907,84.0532 C218.907,84.0532,219.904,84.0532,219.904,84.0532 C221.163,84.0532,222.024,84.5569,222.464,85.5364 C222.832,86.3759,223.031,87.5372,223.031,88.8804 C223.031,90.3355,222.769,91.4969,222.286,92.2384 C221.814,92.966,221.006,93.3583,219.977,93.3583 C219.977,93.3583,218.907,93.3583,218.907,93.3583 z"/>
    <text id="Text" style="fill:#000000;font-family:Bodoni 72;font-size:13;" transform="matrix(1,0,0,1,379.119,73.9807)">
      <tspan x="1.7328" y="12">F</tspan>
    </text>
    <text id="Text" style="fill:#000000;font-family:Bodoni 72;font-size:13;" transform="matrix(1,0,0,1,411.606,55.8699)">
      <tspan x="0.939799" y="12">G</tspan>
    </text>
    <text id="Text" style="fill:#000000;font-family:Bodoni 72;font-size:13;" transform="matrix(1,0,0,1,42.8038,164.709)">
      <tspan x="10.3304" y="12">Compress with simple and </tspan>
      <tspan x="45.9309" y="27">basic words</tspan>
    </text>
    <text id="Text" style="fill:#000000;font-family:Bodoni 72;font-size:13;" transform="matrix(1,0,0,1,328.306,150.018)">
      <tspan x="13.1095" y="12">Read and explore </tspan>
      <tspan x="7.68855" y="27">broader meaning of </tspan>
      <tspan x="24.751" y="42">poetic world</tspan>
    </text>
  </g>
  <g id="Layer 5">
    <path id="Path" style="fill:#ffffff;fill-opacity:1;fill-rule:nonzero;opacity:1;stroke:#000000;stroke-linecap:butt;stroke-linejoin:round;stroke-miterlimit:10;stroke-opacity:1;stroke-width:0.3;" d="M22.9621,32.9518 C17.652,35.7586,19.3723,39.7444,19.3723,39.7444 C19.3723,39.7444,13.685,40.2697,12.8207,47.069 C11.8779,54.4861,17.1334,55.7126,17.1334,55.7126 C17.1334,55.7126,16.9077,62.3155,21.0029,64.4131 C25.7279,66.8331,29.6799,64.1615,29.6799,64.1615 C29.6799,64.1615,31.951,69.7718,36.9064,70.1752 C42.6636,70.6438,45.099,66.9496,45.099,66.9496 C45.099,66.9496,48.4307,69.6566,53.8471,66.7179 C60.0987,63.3261,58.8025,60.2643,58.8025,60.2643 C58.8025,60.2643,64.0531,60.7329,66.7702,55.079 C68.5981,51.2754,65.3137,48.9129,65.3137,48.9129 C65.3137,48.9129,76.7227,47.1267,76.7227,47.1267 C76.7227,47.1267,65.2561,44.3032,65.2561,44.3032 C65.1354,44.1245,68.6055,40.2887,65.9253,38.0123 C62.8415,35.3932,57.0963,36.7028,57.0963,36.7028 C57.0963,36.7028,56.738,31.415,52.1298,30.1179 C46.4086,28.5074,43.4752,32.6637,43.4752,32.6637 C43.4752,32.6637,40.557,27.9999,36.0336,29.0362 C32.2568,29.9015,30.5104,33.2399,30.5104,33.2399 C30.5104,33.2399,26.9955,30.8198,22.9621,32.9518 z"/>
    <path id="Path" style="fill:#ffffff;fill-opacity:1;fill-rule:nonzero;opacity:1;stroke:#000000;stroke-linecap:butt;stroke-linejoin:round;stroke-miterlimit:10;stroke-opacity:1;stroke-width:0.3;" d="M480.916,68.5468 C486.598,65.5094,484.635,61.44,484.635,61.44 C484.635,61.44,490.783,60.7479,491.549,53.7059 C492.384,46.0241,486.66,44.8964,486.66,44.8964 C486.66,44.8964,486.738,38.074,482.249,36.0165 C477.07,33.6425,472.855,36.5047,472.855,36.5047 C472.855,36.5047,470.254,30.7727,464.876,30.4868 C458.627,30.1547,456.081,34.0325,456.081,34.0325 C456.081,34.0325,452.404,31.3257,446.61,34.502 C439.922,38.1682,441.403,41.2948,441.403,41.2948 C441.403,41.2948,435.703,40.9494,432.902,46.8577 C431.017,50.8324,434.634,53.1848,434.634,53.1848 C434.634,53.1848,422.319,55.3293,422.319,55.3293 C422.319,55.3293,434.812,57.9421,434.812,57.9421 C434.948,58.1234,431.284,62.1747,434.245,64.454 C437.652,67.0767,443.843,65.5735,443.843,65.5735 C443.843,65.5735,444.364,71.0228,449.389,72.2405 C455.627,73.7524,458.701,69.3844,458.701,69.3844 C458.701,69.3844,461.979,74.1223,466.854,72.9333 C470.923,71.9406,472.732,68.4481,472.732,68.4481 C472.732,68.4481,476.6,70.8539,480.916,68.5468 z"/>
    <text id="Text" style="fill:#000000;font-family:Helvetica;font-size:10;" transform="matrix(1,0,0,1,20.9513,42.4907)">
      <tspan x="0" y="10">Thought</tspan>
    </text>
    <text id="Text" style="fill:#000000;font-family:Helvetica;font-size:10;" transform="matrix(1,-6.86472e-17,6.86472e-17,1,218.697,35.6707)">
      <tspan x="4.21845" y="10">31-syllable-poem</tspan>
    </text>
    <text id="Text" style="fill:#000000;font-family:Helvetica;font-size:10;" transform="matrix(1,0,0,1,437.052,43.4726)">
      <tspan x="0" y="10">Imagination</tspan>
    </text>
    <text id="Text" style="fill:#000000;font-family:Helvetica;font-size:10;" transform="matrix(1,0,0,1,224.498,143.693)">
      <tspan x="5.02992" y="10">symbolic
</tspan>
      <tspan x="5.85512" y="22">skeleton
</tspan>
      <tspan x="6.59975" y="34">in Waka
</tspan>
      <tspan x="8.63588" y="46">closet?
</tspan>
    </text>
  </g>
</svg>
