<?xml version="1.0" encoding="utf-8"?>
<svg viewBox="0 0 340 170" xmlns="http://www.w3.org/2000/svg" xmlns:xlink="http://www.w3.org/1999/xlink">
  <!--Generated by AMDN-->
  <g id="am1">
    <g id="am2">
      <path id="am3" style="fill:#ffffff;fill-opacity:1;fill-rule:evenodd;opacity:1;stroke:#000000;stroke-linecap:butt;stroke-linejoin:round;stroke-miterlimit:10;stroke-opacity:1;stroke-width:0;" d="M4.29415,3.75836 C4.29415,3.75836,335.702,3.75836,335.702,3.75836 C335.702,3.75836,335.702,166.597,335.702,166.597 C335.702,166.597,4.29415,166.597,4.29415,166.597 C4.29415,166.597,4.29415,3.75836,4.29415,3.75836 z"/>
    </g>
    <path id="am4" style="fill:#ffffff;fill-opacity:1;fill-rule:nonzero;opacity:1;stroke:#000000;stroke-linecap:butt;stroke-linejoin:round;stroke-miterlimit:10;stroke-opacity:1;stroke-width:0.5;" d="M47.1815,138.734 C51.7032,132.748,52.7637,129.774,53.8568,123.896 C55.155,116.915,55.5823,109.159,53.3149,107.875 C44.2307,102.73,38.3847,90.4305,37.3458,84.2468 C35.3215,72.1969,37.2811,62.2722,43.4101,51.4121 C61.2308,19.8358,104.778,15.461,123.05,43.8936 C135.421,63.1464,128.868,72.2967,128.25,80.1098 C127.632,87.9231,138.653,98.7941,137.019,102.038 C135.659,104.736,130.963,103.059,129.774,105.052 C128.723,106.815,128.972,107.37,129.375,110.758 C129.515,111.923,131.577,111.718,130.711,112.924 C128.291,116.292,121.139,116.646,121.157,119.286 C121.175,122.034,122.941,121.738,127.13,122.817 C127.915,123.02,128.801,123.999,128.473,125.03 C128.323,125.501,126.142,126.227,125.748,127.47 C124.853,130.304,126.008,134.301,121.611,137.654 C116.906,141.241,112.235,136.462,108.528,136.662 C103.558,136.929,96.4049,145.219,95.2645,153.719"/>
    <g id="am5">
      <path id="am6" style="fill:#000000;fill-opacity:0;fill-rule:nonzero;opacity:1;stroke:none;" d="M85.4776,56.5772 C85.4776,56.5772,84.9968,93.8798,85.0139,93.5939"/>
      <path id="am7" style="fill:none;opacity:1;stroke:#000000;stroke-linecap:round;stroke-linejoin:round;stroke-miterlimit:10;stroke-opacity:1;stroke-width:0.966902;" d="M85.0759,88.1936 C85.2025,77.9222,85.4776,56.5772,85.4776,56.5772"/>
      <g id="am8">
        <path id="am9" style="fill:#000000;fill-opacity:1;fill-rule:nonzero;opacity:1;stroke:none;" d="M83.2103,86.401 C83.2103,86.401,85.0139,93.5899,85.0139,93.5899 C85.0139,93.5899,86.714,86.401,86.714,86.401 C86.714,86.401,83.2103,86.401,83.2103,86.401 z"/>
      </g>
    </g>
    <g id="am10">
      <g id="am11">
        <path id="am12" style="fill:#000000;fill-opacity:1;fill-rule:nonzero;opacity:1;stroke:none;" d="M213.689,103.306 C213.689,103.306,216.276,95.7226,216.276,95.7226 C216.276,95.7226,210.052,96.4519,210.052,96.4519 C210.052,96.4519,213.689,103.306,213.689,103.306 z"/>
      </g>
    </g>
  </g>
  <g id="am13"/>
  <g id="am14">
    <path id="am15" style="fill:#ffffff;fill-opacity:1;fill-rule:evenodd;opacity:1;stroke:#020000;stroke-linecap:butt;stroke-linejoin:round;stroke-miterlimit:10;stroke-opacity:1;stroke-width:0.5;" d="M270.803,52.1277 C270.803,52.1277,292.165,57.8517,292.165,57.8517 C292.165,57.8517,229.678,157.853,229.678,157.853 C229.678,157.853,208.315,152.129,208.315,152.129 C208.315,152.129,270.803,52.1277,270.803,52.1277 z"/>
  </g>
  <g id="am16">
    <g id="am17">
      <path id="am18" style="fill:#505050;fill-opacity:1;fill-rule:nonzero;opacity:1;stroke:#020000;stroke-linecap:butt;stroke-linejoin:round;stroke-miterlimit:10;stroke-opacity:1;stroke-width:0;" d="M238.728,87.8031 C240.201,88.8274,242.397,91.3672,244.449,92.0705 C246.16,92.6568,251.528,92.7943,252.968,92.1429 C255.341,91.0697,260.785,86.786,260.785,86.786 C260.785,86.786,254.322,89.041,252.673,88.2963 C250.916,87.5034,249.287,85.6178,247.271,84.6791 C245.304,83.7633,240.019,83.2557,240.019,83.2557 C240.019,83.2557,233.635,82.5207,233.635,82.5207 C233.635,82.5207,232.7,84.9308,232.7,84.9308 C232.7,84.9308,237.358,86.8497,238.728,87.8031 z"/>
      <path id="am19" style="fill:#ffffff;fill-opacity:1;fill-rule:nonzero;opacity:1;stroke:#020000;stroke-linecap:butt;stroke-linejoin:round;stroke-miterlimit:10;stroke-opacity:1;stroke-width:0;" d="M238.138,87.1321 C239.611,88.1565,241.887,90.2454,243.749,91.3576 C245.299,92.2825,245.572,90.7409,245.944,89.8641 C246.354,88.8984,245.488,87.5723,245.488,87.5723 C245.488,87.5723,246.795,86.3447,246.795,86.3447 C246.795,86.3447,246.332,85.3631,245.909,84.993 C244.637,83.8783,239.348,83.4158,239.348,83.4158 C239.348,83.4158,232.988,82.1694,232.988,82.1694 C232.988,82.1694,232.376,84.3718,232.376,84.3718 C232.376,84.3718,236.768,86.1788,238.138,87.1321 z"/>
    </g>
    <path id="am20" style="fill:#9e9e9e;fill-opacity:1;fill-rule:nonzero;opacity:1;stroke:#020000;stroke-linecap:butt;stroke-linejoin:round;stroke-miterlimit:10;stroke-opacity:1;stroke-width:0.5;" d="M173.59,58.6479 C174.102,57.1892,175.73,56.4558,177.162,57.0394 C177.162,57.0394,237.044,81.3535,237.044,81.3535 C238.499,81.9466,239.723,83.1215,239.026,84.5286 C239.026,84.5286,238.128,87.0263,238.128,87.0263 C237.49,88.3115,236.01,88.1419,234.691,87.5768 C234.691,87.5768,175.075,62.0298,175.075,62.0298 C173.768,61.4697,173.119,59.9929,173.589,58.6511 C173.589,58.6511,173.59,58.6479,173.59,58.6479 z"/>
    <path id="am21" style="fill:#ffffff;fill-opacity:1;fill-rule:nonzero;opacity:1;stroke:#020000;stroke-linecap:butt;stroke-linejoin:round;stroke-miterlimit:10;stroke-opacity:1;stroke-width:0.5;" d="M185.201,122.602 C185.201,122.602,196.471,107.509,200.648,102.506 C204.201,98.2504,208.712,87.9562,211.172,82.9881 C212.967,79.3607,216.363,71.5149,219.805,69.4502 C223.435,67.2732,228.995,70.1791,232.859,71.8506 C235.329,72.9194,236.305,76.1335,237.93,78.2776 C239.601,80.4816,240.356,80.6119,240.253,83.3548 C240.145,86.2267,239.969,88.7363,237.174,89.0657 C234.529,89.3772,232.712,90.2992,232.712,90.2992 C232.712,90.2992,230.781,97.0987,229.273,98.9225 C226.518,102.255,214.839,106.073,214.839,106.073 C214.839,106.073,197.613,127.769,197.613,127.769"/>
    <g id="am22">
      <path id="am23" style="fill:none;opacity:1;stroke:#000000;stroke-linecap:round;stroke-linejoin:round;stroke-miterlimit:10;stroke-opacity:1;stroke-width:0.966902;" d="M197.972,117.84 C192.086,122.286,184.706,129.183,177.931,131.179 C165.444,134.858,164.663,117.242,148.973,118.533"/>
      <g id="am24">
        <path id="am25" style="fill:#000000;fill-opacity:1;fill-rule:nonzero;opacity:1;stroke:none;" d="M198.378,121.074 C198.378,121.074,201.368,115.018,201.368,115.018 C201.368,115.018,195.044,116.59,195.044,116.59 C195.044,116.59,198.378,121.074,198.378,121.074 z"/>
      </g>
    </g>
    <path id="am26" style="fill:#000000;fill-opacity:1;fill-rule:nonzero;opacity:1;stroke:none;" d="M261.785,85.4738 C261.785,85.4738,267.252,85.4738,267.252,85.4738 C267.252,85.4738,267.462,82.6894,267.462,82.6894 C267.462,82.6894,267.169,82.6614,267.169,82.6614 C266.875,84.5923,266.497,85.054,265.175,85.054 C265.175,85.054,263.517,85.054,263.517,85.054 C263.517,85.054,263.517,80.4227,263.517,80.4227 C263.517,80.4227,264.597,80.4227,264.597,80.4227 C265.217,80.4227,265.626,80.5347,265.783,80.7446 C265.93,80.9544,266.004,81.2203,266.077,81.8639 C266.077,81.8639,266.371,81.8639,266.371,81.8639 C266.371,81.8639,266.371,78.5758,266.371,78.5758 C266.371,78.5758,266.077,78.5758,266.077,78.5758 C265.962,79.8071,265.762,80.003,264.597,80.003 C264.597,80.003,263.517,80.003,263.517,80.003 C263.517,80.003,263.517,75.7495,263.517,75.7495 C263.517,75.7495,264.965,75.7495,264.965,75.7495 C266.308,75.7495,266.696,76.1692,266.948,77.8623 C266.948,77.8623,267.252,77.8343,267.252,77.8343 C267.252,77.8343,267.085,75.3297,267.085,75.3297 C267.085,75.3297,261.785,75.3297,261.785,75.3297 C261.785,75.3297,261.785,75.6655,261.785,75.6655 C262.268,75.6655,262.457,75.7775,262.53,76.0713 C262.562,76.1972,262.562,76.2112,262.583,77.1067 C262.583,77.1067,262.583,83.6968,262.583,83.6968 C262.562,84.7462,262.562,84.7602,262.446,84.9281 C262.352,85.068,262.142,85.138,261.785,85.138 C261.785,85.138,261.785,85.4738,261.785,85.4738 z"/>
    <path id="am27" style="fill:#000000;fill-opacity:1;fill-rule:nonzero;opacity:1;stroke:none;" d="M83.3357,48.6134 C83.3357,48.6134,86.2635,48.6134,86.2635,48.6134 C86.2635,48.6134,86.7042,50.3763,86.7042,50.3763 C86.7882,50.7261,86.8301,51.006,86.8301,51.1739 C86.8301,51.5796,86.6098,51.7475,86.0746,51.7755 C86.0746,51.7755,86.0746,52.1253,86.0746,52.1253 C86.0746,52.1253,88.782,52.1253,88.782,52.1253 C88.782,52.1253,88.782,51.7755,88.782,51.7755 C88.1734,51.7475,87.974,51.4817,87.6801,50.3344 C87.6801,50.3344,85.4555,41.8833,85.4555,41.8833 C85.4555,41.8833,84.8048,41.9813,84.8048,41.9813 C84.8048,41.9813,82.5697,49.8726,82.5697,49.8726 C82.1709,51.2858,81.8246,51.7755,81.2264,51.7755 C81.2264,51.7755,81.2264,52.1253,81.2264,52.1253 C81.2264,52.1253,83.682,52.1253,83.682,52.1253 C83.682,52.1253,83.682,51.7755,83.682,51.7755 C83.0734,51.7475,82.8005,51.5237,82.8005,51.0199 C82.8005,50.7541,82.874,50.3204,82.9999,49.8726 C82.9999,49.8726,83.3357,48.6134,83.3357,48.6134 z M86.1271,48.0957 C86.1271,48.0957,83.4826,48.0957,83.4826,48.0957 C83.4826,48.0957,84.8468,43.1985,84.8468,43.1985 C84.8468,43.1985,86.1271,48.0957,86.1271,48.0957 z"/>
    <path id="am28" style="fill:none;opacity:1;stroke:#000000;stroke-linecap:round;stroke-linejoin:round;stroke-miterlimit:10;stroke-opacity:1;stroke-width:0.966902;" d="M133.846,118.68 C133.846,118.68,105.616,121.189,97.6965,121.06 C87.2931,120.891,85.2632,108.204,85.2632,108.204"/>
    <g id="am29">
      <path id="am30" style="fill:#000000;fill-opacity:1;fill-rule:nonzero;opacity:1;stroke:none;" d="M132.518,120.872 C132.518,120.872,138.928,118.463,138.928,118.463 C138.928,118.463,132.325,116.631,132.325,116.631 C132.325,116.631,132.518,120.872,132.518,120.872 z"/>
    </g>
    <path id="am31" style="fill:#000000;fill-opacity:1;fill-rule:nonzero;opacity:1;stroke:none;" d="M82.2382,105.953 C82.2382,105.953,85.0505,105.953,85.0505,105.953 C85.7641,105.953,86.4252,105.855,86.824,105.701 C87.7684,105.295,88.2302,104.498,88.2302,103.211 C88.2302,102.147,87.8944,101.42,87.1808,100.93 C86.8135,100.678,86.4882,100.58,85.974,100.552 C85.974,100.552,85.974,100.454,85.974,100.454 C87.2962,100.23,87.9363,99.4889,87.9363,98.1596 C87.9363,97.2362,87.6425,96.6065,87.0339,96.2148 C86.6246,95.9629,85.9215,95.809,85.103,95.809 C85.103,95.809,82.2382,95.809,82.2382,95.809 C82.2382,95.809,82.2382,96.1448,82.2382,96.1448 C82.7209,96.1448,82.9098,96.2567,82.9833,96.5506 C83.0147,96.6765,83.0147,96.6905,83.0357,97.586 C83.0357,97.586,83.0357,104.176,83.0357,104.176 C83.0147,105.225,83.0147,105.239,82.8993,105.407 C82.8049,105.547,82.595,105.617,82.2382,105.617 C82.2382,105.617,82.2382,105.953,82.2382,105.953 z M83.9697,100.3 C83.9697,100.3,83.9697,96.2288,83.9697,96.2288 C83.9697,96.2288,84.9351,96.2288,84.9351,96.2288 C86.2888,96.2288,86.9394,96.8724,86.9394,98.2156 C86.9394,99.5868,86.2888,100.3,85.0296,100.3 C85.0296,100.3,83.9697,100.3,83.9697,100.3 z M83.9697,105.533 C83.9697,105.533,83.9697,100.762,83.9697,100.762 C83.9697,100.762,84.9876,100.762,84.9876,100.762 C85.5647,100.762,86.0789,100.888,86.3833,101.098 C86.887,101.462,87.1598,102.147,87.1598,103.099 C87.1598,103.924,86.9709,104.596,86.6351,104.96 C86.2993,105.351,85.7536,105.533,84.9876,105.533 C84.9876,105.533,83.9697,105.533,83.9697,105.533 z"/>
    <path id="am32" style="fill:#000000;fill-opacity:1;fill-rule:nonzero;opacity:1;stroke:none;" d="M146.973,116.992 C146.973,116.992,146.973,113.941,146.973,113.941 C146.627,114.109,146.575,114.137,146.428,114.137 C146.249,114.137,146.144,114.109,145.651,113.899 C145.189,113.703,144.728,113.592,144.318,113.592 C143.615,113.592,142.87,113.899,142.335,114.445 C141.391,115.369,140.856,117.034,140.856,118.992 C140.856,120.545,141.191,121.819,141.842,122.756 C142.461,123.638,143.311,124.127,144.256,124.127 C145.179,124.127,145.977,123.75,146.512,123.064 C146.879,122.588,147.141,122.029,147.372,121.217 C147.372,121.217,147.068,121.035,147.068,121.035 C146.659,122.616,145.714,123.568,144.549,123.568 C142.965,123.568,141.915,121.651,141.915,118.727 C141.915,117.369,142.125,116.18,142.524,115.327 C142.902,114.487,143.605,113.969,144.36,113.969 C145.043,113.969,145.683,114.389,146.113,115.103 C146.396,115.606,146.543,116.124,146.638,116.992 C146.638,116.992,146.973,116.992,146.973,116.992 z"/>
    <path id="am33" style="fill:#000000;fill-opacity:1;fill-rule:nonzero;opacity:1;stroke:none;" d="M217.154,93.778 C217.154,93.778,219.851,93.778,219.851,93.778 C221.121,93.778,221.982,93.5402,222.622,92.994 C223.577,92.1685,224.091,90.6434,224.091,88.6425 C224.091,86.5438,223.535,85.0187,222.464,84.2072 C221.95,83.8154,221.195,83.6335,220.114,83.6335 C220.114,83.6335,217.154,83.6335,217.154,83.6335 C217.154,83.6335,217.154,83.9693,217.154,83.9693 C217.637,83.9693,217.826,84.0812,217.899,84.3751 C217.931,84.501,217.931,84.515,217.952,85.4104 C217.952,85.4104,217.952,92.0006,217.952,92.0006 C217.931,93.05,217.931,93.0639,217.815,93.2323 C217.721,93.3723,217.511,93.4422,217.154,93.4422 C217.154,93.4422,217.154,93.778,217.154,93.778 z M218.907,93.3583 C218.907,93.3583,218.907,84.0532,218.907,84.0532 C218.907,84.0532,219.904,84.0532,219.904,84.0532 C221.163,84.0532,222.024,84.5569,222.464,85.5364 C222.832,86.3759,223.031,87.5372,223.031,88.8804 C223.031,90.3355,222.769,91.4969,222.286,92.2384 C221.814,92.966,221.006,93.3583,219.977,93.3583 C219.977,93.3583,218.907,93.3583,218.907,93.3583 z"/>
  </g>
  <g id="am34">
    <path id="am35" style="fill:#ffffff;fill-opacity:1;fill-rule:nonzero;opacity:1;stroke:#000000;stroke-linecap:butt;stroke-linejoin:round;stroke-miterlimit:10;stroke-opacity:1;stroke-width:0.3;" d="M22.9621,32.9518 C17.652,35.7586,19.3723,39.7444,19.3723,39.7444 C19.3723,39.7444,13.685,40.2697,12.8207,47.069 C11.8779,54.4861,17.1334,55.7126,17.1334,55.7126 C17.1334,55.7126,16.9077,62.3155,21.0029,64.4131 C25.7279,66.8331,29.6799,64.1615,29.6799,64.1615 C29.6799,64.1615,31.951,69.7718,36.9064,70.1752 C42.6636,70.6438,45.099,66.9496,45.099,66.9496 C45.099,66.9496,48.4307,69.6566,53.8471,66.7179 C60.0987,63.3261,58.8025,60.2643,58.8025,60.2643 C58.8025,60.2643,64.0531,60.7329,66.7702,55.079 C68.5981,51.2754,65.3137,48.9129,65.3137,48.9129 C65.3137,48.9129,76.7227,47.1267,76.7227,47.1267 C76.7227,47.1267,65.2561,44.3032,65.2561,44.3032 C65.1354,44.1245,68.6055,40.2887,65.9253,38.0123 C62.8415,35.3932,57.0963,36.7028,57.0963,36.7028 C57.0963,36.7028,56.738,31.415,52.1298,30.1179 C46.4086,28.5074,43.4752,32.6637,43.4752,32.6637 C43.4752,32.6637,40.557,27.9999,36.0336,29.0362 C32.2568,29.9015,30.5104,33.2399,30.5104,33.2399 C30.5104,33.2399,26.9955,30.8198,22.9621,32.9518 z"/>
    <g id="am36">
      <g id="am38">
        <path style="fill:#000000;fill-opacity:1;fill-rule:nonzero;opacity:1;stroke:none;" d="M26.9327,45.3179 C26.9327,45.3179,26.9327,46.1724,26.9327,46.1724 C26.9327,46.1724,24.5157,46.1724,24.5157,46.1724 C24.5157,46.1724,24.5157,52.4907,24.5157,52.4907 C24.5157,52.4907,23.5294,52.4907,23.5294,52.4907 C23.5294,52.4907,23.5294,46.1724,23.5294,46.1724 C23.5294,46.1724,21.1124,46.1724,21.1124,46.1724 C21.1124,46.1724,21.1124,45.3179,21.1124,45.3179 C21.1124,45.3179,26.9327,45.3179,26.9327,45.3179 z M27.7042,45.2935 C27.7042,45.2935,28.5831,45.2935,28.5831,45.2935 C28.5831,45.2935,28.5831,47.9693,28.5831,47.9693 C28.7914,47.7056,28.9786,47.52,29.1446,47.4126 C29.4278,47.2271,29.781,47.1343,30.2042,47.1343 C30.9627,47.1343,31.477,47.3996,31.7472,47.9302 C31.8937,48.2199,31.9669,48.6219,31.9669,49.1362 C31.9669,49.1362,31.9669,52.4907,31.9669,52.4907 C31.9669,52.4907,31.0636,52.4907,31.0636,52.4907 C31.0636,52.4907,31.0636,49.1948,31.0636,49.1948 C31.0636,48.8107,31.0147,48.5291,30.9171,48.3501 C30.7576,48.0637,30.4581,47.9204,30.0187,47.9204 C29.6541,47.9204,29.3237,48.0457,29.0274,48.2964 C28.7312,48.5471,28.5831,49.0207,28.5831,49.7173 C28.5831,49.7173,28.5831,52.4907,28.5831,52.4907 C28.5831,52.4907,27.7042,52.4907,27.7042,52.4907 C27.7042,52.4907,27.7042,45.2935,27.7042,45.2935 z M35.3409,51.9243 C35.9236,51.9243,36.3232,51.7038,36.5396,51.2627 C36.7561,50.8216,36.8644,50.3309,36.8644,49.7905 C36.8644,49.3023,36.7862,48.9051,36.63,48.5991 C36.3826,48.1174,35.9562,47.8765,35.3507,47.8765 C34.8136,47.8765,34.423,48.0816,34.1788,48.4917 C33.9347,48.9019,33.8126,49.3967,33.8126,49.9761 C33.8126,50.5327,33.9347,50.9966,34.1788,51.3677 C34.423,51.7388,34.8103,51.9243,35.3409,51.9243 z M35.3751,47.1099 C36.0489,47.1099,36.6186,47.3345,37.0841,47.7837 C37.5496,48.2329,37.7823,48.8937,37.7823,49.7661 C37.7823,50.6092,37.5772,51.3058,37.1671,51.856 C36.7569,52.4061,36.1205,52.6812,35.2579,52.6812 C34.5385,52.6812,33.9672,52.4378,33.544,51.9512 C33.1209,51.4645,32.9093,50.8111,32.9093,49.9907 C32.9093,49.1118,33.1323,48.412,33.5782,47.8911 C34.0242,47.3703,34.6231,47.1099,35.3751,47.1099 z M35.3458,47.1343 M39.7062,47.2612 C39.7062,47.2612,39.7062,50.7329,39.7062,50.7329 C39.7062,50.9999,39.7485,51.218,39.8331,51.3872 C39.9894,51.6997,40.2807,51.856,40.7071,51.856 C41.3191,51.856,41.7358,51.5825,41.9571,51.0357 C42.0776,50.7427,42.1378,50.3407,42.1378,49.8296 C42.1378,49.8296,42.1378,47.2612,42.1378,47.2612 C42.1378,47.2612,43.0167,47.2612,43.0167,47.2612 C43.0167,47.2612,43.0167,52.4907,43.0167,52.4907 C43.0167,52.4907,42.1866,52.4907,42.1866,52.4907 C42.1866,52.4907,42.1964,51.7193,42.1964,51.7193 C42.0825,51.9178,41.9409,52.0855,41.7716,52.2222 C41.4363,52.4956,41.0294,52.6323,40.5509,52.6323 C39.8054,52.6323,39.2976,52.3833,39.0274,51.8853 C38.881,51.6183,38.8077,51.2619,38.8077,50.8159 C38.8077,50.8159,38.8077,47.2612,38.8077,47.2612 C38.8077,47.2612,39.7062,47.2612,39.7062,47.2612 z M40.9122,47.1343 M46.2345,47.1685 C46.6446,47.1685,47.0027,47.2694,47.3087,47.4712 C47.4747,47.5851,47.644,47.7512,47.8165,47.9693 C47.8165,47.9693,47.8165,47.3101,47.8165,47.3101 C47.8165,47.3101,48.6271,47.3101,48.6271,47.3101 C48.6271,47.3101,48.6271,52.0659,48.6271,52.0659 C48.6271,52.73,48.5294,53.2541,48.3341,53.6382 C47.9695,54.3478,47.281,54.7027,46.2687,54.7027 C45.7055,54.7027,45.2319,54.5765,44.8478,54.3242 C44.4636,54.072,44.2488,53.6773,44.2032,53.1402 C44.2032,53.1402,45.0968,53.1402,45.0968,53.1402 C45.1391,53.3745,45.2237,53.5552,45.3507,53.6821 C45.5493,53.8775,45.8618,53.9751,46.2882,53.9751 C46.962,53.9751,47.4031,53.7375,47.6114,53.2622 C47.7351,52.9823,47.7921,52.4826,47.7823,51.7632 C47.6065,52.0301,47.395,52.2287,47.1476,52.3589 C46.9002,52.4891,46.573,52.5542,46.1661,52.5542 C45.5997,52.5542,45.1041,52.3532,44.6793,51.9512 C44.2545,51.5492,44.0421,50.8843,44.0421,49.9566 C44.0421,49.0809,44.2561,48.3973,44.6842,47.9058 C45.1122,47.4142,45.629,47.1685,46.2345,47.1685 z M47.8165,49.854 C47.8165,49.2062,47.683,48.7261,47.4161,48.4136 C47.1492,48.1011,46.809,47.9448,46.3956,47.9448 C45.7771,47.9448,45.3539,48.2346,45.1261,48.814 C45.0056,49.1232,44.9454,49.5285,44.9454,50.0298 C44.9454,50.619,45.065,51.0674,45.3043,51.375 C45.5436,51.6826,45.865,51.8364,46.2687,51.8364 C46.9002,51.8364,47.3445,51.5516,47.6017,50.9819 C47.7449,50.6597,47.8165,50.2837,47.8165,49.854 z M46.337,47.1343 M49.9503,45.2935 C49.9503,45.2935,50.8292,45.2935,50.8292,45.2935 C50.8292,45.2935,50.8292,47.9693,50.8292,47.9693 C51.0375,47.7056,51.2247,47.52,51.3907,47.4126 C51.6739,47.2271,52.0271,47.1343,52.4503,47.1343 C53.2088,47.1343,53.7231,47.3996,53.9933,47.9302 C54.1397,48.2199,54.213,48.6219,54.213,49.1362 C54.213,49.1362,54.213,52.4907,54.213,52.4907 C54.213,52.4907,53.3097,52.4907,53.3097,52.4907 C53.3097,52.4907,53.3097,49.1948,53.3097,49.1948 C53.3097,48.8107,53.2608,48.5291,53.1632,48.3501 C53.0037,48.0637,52.7042,47.9204,52.2647,47.9204 C51.9002,47.9204,51.5698,48.0457,51.2735,48.2964 C50.9773,48.5471,50.8292,49.0207,50.8292,49.7173 C50.8292,49.7173,50.8292,52.4907,50.8292,52.4907 C50.8292,52.4907,49.9503,52.4907,49.9503,52.4907 C49.9503,52.4907,49.9503,45.2935,49.9503,45.2935 z M55.6876,45.8013 C55.6876,45.8013,56.5763,45.8013,56.5763,45.8013 C56.5763,45.8013,56.5763,47.2612,56.5763,47.2612 C56.5763,47.2612,57.4112,47.2612,57.4112,47.2612 C57.4112,47.2612,57.4112,47.979,57.4112,47.979 C57.4112,47.979,56.5763,47.979,56.5763,47.979 C56.5763,47.979,56.5763,51.3921,56.5763,51.3921 C56.5763,51.5744,56.6381,51.6965,56.7618,51.7583 C56.8302,51.7941,56.9441,51.812,57.1036,51.812 C57.1459,51.812,57.1915,51.8112,57.2403,51.8096 C57.2892,51.808,57.3461,51.8039,57.4112,51.7974 C57.4112,51.7974,57.4112,52.4907,57.4112,52.4907 C57.3103,52.52,57.2053,52.5412,57.0963,52.5542 C56.9872,52.5672,56.8692,52.5737,56.7423,52.5737 C56.3321,52.5737,56.0538,52.4688,55.9073,52.2588 C55.7608,52.0488,55.6876,51.7762,55.6876,51.4409 C55.6876,51.4409,55.6876,47.979,55.6876,47.979 C55.6876,47.979,54.9796,47.979,54.9796,47.979 C54.9796,47.979,54.9796,47.2612,54.9796,47.2612 C54.9796,47.2612,55.6876,47.2612,55.6876,47.2612 C55.6876,47.2612,55.6876,45.8013,55.6876,45.8013 z"/>
      </g>
    </g>
    <g id="am39">
      <g id="am41">
        <path style="fill:#000000;fill-opacity:1;fill-rule:nonzero;opacity:1;stroke:none;" d="M248.669,143.879 C247.842,143.879,247.242,143.652,246.869,143.198 C246.497,142.744,246.31,142.191,246.31,141.54 C246.31,141.54,247.228,141.54,247.228,141.54 C247.267,141.993,247.352,142.322,247.482,142.527 C247.71,142.894,248.122,143.078,248.718,143.078 C249.18,143.078,249.551,142.955,249.831,142.707 C250.111,142.46,250.251,142.141,250.251,141.75 C250.251,141.268,250.104,140.932,249.809,140.739 C249.514,140.547,249.105,140.451,248.581,140.451 C248.522,140.451,248.463,140.452,248.403,140.454 C248.342,140.455,248.281,140.458,248.22,140.461 C248.22,140.461,248.22,139.685,248.22,139.685 C248.311,139.695,248.387,139.701,248.449,139.704 C248.511,139.708,248.578,139.709,248.649,139.709 C248.978,139.709,249.248,139.657,249.46,139.553 C249.831,139.371,250.016,139.045,250.016,138.576 C250.016,138.228,249.893,137.96,249.645,137.771 C249.398,137.582,249.11,137.488,248.781,137.488 C248.195,137.488,247.79,137.683,247.565,138.073 C247.442,138.288,247.372,138.594,247.355,138.991 C247.355,138.991,246.486,138.991,246.486,138.991 C246.486,138.471,246.59,138.028,246.799,137.663 C247.157,137.012,247.787,136.687,248.688,136.687 C249.401,136.687,249.953,136.845,250.344,137.163 C250.734,137.48,250.93,137.94,250.93,138.542 C250.93,138.972,250.814,139.32,250.583,139.587 C250.44,139.753,250.254,139.883,250.026,139.978 C250.394,140.079,250.681,140.273,250.888,140.561 C251.095,140.849,251.198,141.202,251.198,141.618 C251.198,142.286,250.978,142.829,250.539,143.249 C250.099,143.669,249.476,143.879,248.669,143.879 z M252.59,138.738 C252.59,138.738,252.59,138.064,252.59,138.064 C253.224,138.002,253.667,137.898,253.918,137.754 C254.168,137.609,254.356,137.266,254.479,136.726 C254.479,136.726,255.173,136.726,255.173,136.726 C255.173,136.726,255.173,143.689,255.173,143.689 C255.173,143.689,254.235,143.689,254.235,143.689 C254.235,143.689,254.235,138.738,254.235,138.738 C254.235,138.738,252.59,138.738,252.59,138.738 z M257.609,140.451 C257.609,140.451,260.06,140.451,260.06,140.451 C260.06,140.451,260.06,141.355,260.06,141.355 C260.06,141.355,257.609,141.355,257.609,141.355 C257.609,141.355,257.609,140.451,257.609,140.451 z M261.691,142.048 C261.717,142.341,261.79,142.566,261.911,142.722 C262.132,143.005,262.516,143.147,263.063,143.147 C263.389,143.147,263.675,143.076,263.923,142.934 C264.17,142.793,264.294,142.574,264.294,142.278 C264.294,142.053,264.194,141.882,263.996,141.765 C263.869,141.693,263.618,141.61,263.244,141.516 C263.244,141.516,262.546,141.34,262.546,141.34 C262.1,141.229,261.771,141.106,261.559,140.969 C261.182,140.731,260.993,140.403,260.993,139.983 C260.993,139.488,261.171,139.087,261.528,138.781 C261.884,138.475,262.363,138.322,262.966,138.322 C263.753,138.322,264.321,138.554,264.67,139.016 C264.888,139.309,264.994,139.625,264.987,139.963 C264.987,139.963,264.157,139.963,264.157,139.963 C264.141,139.765,264.071,139.584,263.947,139.421 C263.745,139.19,263.395,139.074,262.897,139.074 C262.565,139.074,262.314,139.138,262.143,139.265 C261.972,139.392,261.887,139.559,261.887,139.768 C261.887,139.996,261.999,140.178,262.223,140.315 C262.354,140.396,262.546,140.468,262.8,140.53 C262.8,140.53,263.381,140.671,263.381,140.671 C264.012,140.824,264.435,140.972,264.65,141.115 C264.992,141.34,265.163,141.693,265.163,142.175 C265.163,142.641,264.986,143.043,264.633,143.381 C264.28,143.72,263.742,143.889,263.019,143.889 C262.241,143.889,261.69,143.712,261.367,143.359 C261.043,143.006,260.869,142.569,260.846,142.048 C260.846,142.048,261.691,142.048,261.691,142.048 z M262.99,138.332 M269.435,138.459 C269.435,138.459,270.407,138.459,270.407,138.459 C270.283,138.794,270.008,139.559,269.582,140.754 C269.263,141.653,268.996,142.385,268.781,142.951 C268.273,144.286,267.915,145.1,267.707,145.393 C267.499,145.686,267.14,145.832,266.633,145.832 C266.509,145.832,266.414,145.827,266.347,145.818 C266.28,145.808,266.198,145.79,266.1,145.764 C266.1,145.764,266.1,144.963,266.1,144.963 C266.253,145.005,266.364,145.031,266.432,145.041 C266.501,145.051,266.561,145.056,266.613,145.056 C266.776,145.056,266.895,145.029,266.972,144.975 C267.048,144.922,267.113,144.856,267.165,144.778 C267.181,144.752,267.24,144.618,267.341,144.377 C267.442,144.136,267.515,143.957,267.56,143.84 C267.56,143.84,265.627,138.459,265.627,138.459 C265.627,138.459,266.623,138.459,266.623,138.459 C266.623,138.459,268.024,142.717,268.024,142.717 C268.024,142.717,269.435,138.459,269.435,138.459 z M268.019,138.332 M271.193,136.516 C271.193,136.516,272.072,136.516,272.072,136.516 C272.072,136.516,272.072,143.689,272.072,143.689 C272.072,143.689,271.193,143.689,271.193,143.689 C271.193,143.689,271.193,136.516,271.193,136.516 z M273.415,136.516 C273.415,136.516,274.294,136.516,274.294,136.516 C274.294,136.516,274.294,143.689,274.294,143.689 C274.294,143.689,273.415,143.689,273.415,143.689 C273.415,143.689,273.415,136.516,273.415,136.516 z M276.286,142.297 C276.286,142.551,276.379,142.751,276.564,142.898 C276.75,143.044,276.97,143.117,277.223,143.117 C277.533,143.117,277.832,143.046,278.122,142.903 C278.61,142.665,278.854,142.276,278.854,141.736 C278.854,141.736,278.854,141.028,278.854,141.028 C278.747,141.096,278.609,141.153,278.439,141.198 C278.27,141.244,278.104,141.277,277.941,141.296 C277.941,141.296,277.409,141.364,277.409,141.364 C277.09,141.407,276.851,141.474,276.691,141.565 C276.421,141.718,276.286,141.962,276.286,142.297 z M278.415,140.52 C278.617,140.494,278.752,140.409,278.82,140.266 C278.859,140.188,278.879,140.075,278.879,139.929 C278.879,139.629,278.772,139.412,278.559,139.277 C278.346,139.142,278.04,139.074,277.643,139.074 C277.184,139.074,276.859,139.198,276.667,139.446 C276.559,139.582,276.489,139.786,276.457,140.056 C276.457,140.056,275.637,140.056,275.637,140.056 C275.653,139.411,275.862,138.963,276.264,138.711 C276.666,138.458,277.132,138.332,277.663,138.332 C278.278,138.332,278.778,138.449,279.162,138.684 C279.543,138.918,279.733,139.283,279.733,139.778 C279.733,139.778,279.733,142.79,279.733,142.79 C279.733,142.881,279.752,142.955,279.789,143.01 C279.827,143.065,279.906,143.093,280.026,143.093 C280.065,143.093,280.109,143.091,280.158,143.086 C280.207,143.081,280.259,143.073,280.314,143.064 C280.314,143.064,280.314,143.713,280.314,143.713 C280.178,143.752,280.073,143.777,280.002,143.786 C279.93,143.796,279.832,143.801,279.709,143.801 C279.406,143.801,279.186,143.694,279.05,143.479 C278.978,143.365,278.928,143.204,278.898,142.995 C278.719,143.23,278.462,143.433,278.127,143.606 C277.791,143.778,277.422,143.864,277.018,143.864 C276.533,143.864,276.137,143.717,275.829,143.423 C275.522,143.128,275.368,142.759,275.368,142.317 C275.368,141.832,275.519,141.456,275.822,141.189 C276.125,140.922,276.522,140.757,277.013,140.696 C277.013,140.696,278.415,140.52,278.415,140.52 z M277.687,138.332 M281.105,136.491 C281.105,136.491,281.96,136.491,281.96,136.491 C281.96,136.491,281.96,139.094,281.96,139.094 C282.152,138.843,282.381,138.652,282.648,138.52 C282.915,138.388,283.205,138.322,283.517,138.322 C284.168,138.322,284.697,138.546,285.102,138.994 C285.507,139.441,285.71,140.101,285.71,140.974 C285.71,141.801,285.51,142.488,285.109,143.034 C284.709,143.581,284.154,143.855,283.444,143.855 C283.047,143.855,282.712,143.759,282.438,143.567 C282.276,143.453,282.101,143.27,281.916,143.02 C281.916,143.02,281.916,143.689,281.916,143.689 C281.916,143.689,281.105,143.689,281.105,143.689 C281.105,143.689,281.105,136.491,281.105,136.491 z M283.39,143.078 C283.866,143.078,284.221,142.89,284.457,142.512 C284.693,142.134,284.811,141.636,284.811,141.018 C284.811,140.468,284.693,140.012,284.457,139.651 C284.221,139.289,283.874,139.109,283.415,139.109 C283.014,139.109,282.664,139.257,282.363,139.553 C282.061,139.849,281.911,140.337,281.911,141.018 C281.911,141.509,281.973,141.908,282.096,142.214 C282.328,142.79,282.759,143.078,283.39,143.078 z M286.76,136.516 C286.76,136.516,287.638,136.516,287.638,136.516 C287.638,136.516,287.638,143.689,287.638,143.689 C287.638,143.689,286.76,143.689,286.76,143.689 C286.76,143.689,286.76,136.516,286.76,136.516 z M291.135,138.342 C291.506,138.342,291.865,138.429,292.214,138.603 C292.562,138.777,292.827,139.003,293.01,139.28 C293.185,139.543,293.303,139.851,293.361,140.202 C293.413,140.443,293.439,140.827,293.439,141.355 C293.439,141.355,289.606,141.355,289.606,141.355 C289.623,141.885,289.748,142.311,289.982,142.632 C290.217,142.952,290.58,143.113,291.071,143.113 C291.53,143.113,291.896,142.961,292.17,142.658 C292.326,142.483,292.437,142.279,292.502,142.048 C292.502,142.048,293.366,142.048,293.366,142.048 C293.343,142.24,293.268,142.454,293.139,142.69 C293.01,142.926,292.866,143.119,292.707,143.269 C292.44,143.529,292.11,143.705,291.716,143.796 C291.504,143.848,291.265,143.874,290.998,143.874 C290.347,143.874,289.795,143.637,289.343,143.164 C288.89,142.69,288.664,142.027,288.664,141.174 C288.664,140.334,288.892,139.652,289.347,139.128 C289.803,138.604,290.399,138.342,291.135,138.342 z M292.536,140.656 C292.5,140.276,292.417,139.971,292.287,139.743 C292.046,139.32,291.644,139.109,291.081,139.109 C290.677,139.109,290.339,139.254,290.065,139.546 C289.792,139.837,289.647,140.207,289.631,140.656 C289.631,140.656,292.536,140.656,292.536,140.656 z M291.052,138.332 M294.289,140.451 C294.289,140.451,296.74,140.451,296.74,140.451 C296.74,140.451,296.74,141.355,296.74,141.355 C296.74,141.355,294.289,141.355,294.289,141.355 C294.289,141.355,294.289,140.451,294.289,140.451 z M300.055,143.098 C300.466,143.098,300.807,142.926,301.078,142.583 C301.35,142.239,301.486,141.726,301.486,141.042 C301.486,140.626,301.426,140.267,301.305,139.968 C301.078,139.392,300.661,139.104,300.055,139.104 C299.447,139.104,299.03,139.408,298.805,140.017 C298.685,140.342,298.625,140.756,298.625,141.257 C298.625,141.661,298.685,142.004,298.805,142.287 C299.033,142.828,299.45,143.098,300.055,143.098 z M297.78,138.484 C297.78,138.484,298.635,138.484,298.635,138.484 C298.635,138.484,298.635,139.177,298.635,139.177 C298.81,138.939,299.002,138.755,299.211,138.625 C299.507,138.43,299.855,138.332,300.256,138.332 C300.848,138.332,301.351,138.559,301.764,139.013 C302.178,139.468,302.385,140.116,302.385,140.959 C302.385,142.099,302.087,142.912,301.491,143.401 C301.113,143.71,300.674,143.864,300.173,143.864 C299.779,143.864,299.448,143.778,299.181,143.606 C299.025,143.508,298.851,143.34,298.659,143.103 C298.659,143.103,298.659,145.774,298.659,145.774 C298.659,145.774,297.78,145.774,297.78,145.774 C297.78,145.774,297.78,138.484,297.78,138.484 z M305.485,143.122 C306.068,143.122,306.467,142.902,306.684,142.461 C306.9,142.02,307.009,141.529,307.009,140.989 C307.009,140.5,306.93,140.103,306.774,139.797 C306.527,139.315,306.1,139.074,305.495,139.074 C304.958,139.074,304.567,139.28,304.323,139.69 C304.079,140.1,303.957,140.595,303.957,141.174 C303.957,141.731,304.079,142.195,304.323,142.566 C304.567,142.937,304.955,143.122,305.485,143.122 z M305.519,138.308 C306.193,138.308,306.763,138.532,307.228,138.982 C307.694,139.431,307.927,140.092,307.927,140.964 C307.927,141.807,307.721,142.504,307.311,143.054 C306.901,143.604,306.265,143.879,305.402,143.879 C304.683,143.879,304.111,143.636,303.688,143.149 C303.265,142.663,303.054,142.009,303.054,141.189 C303.054,140.31,303.277,139.61,303.722,139.089 C304.168,138.568,304.767,138.308,305.519,138.308 z M305.49,138.332 M311.149,138.342 C311.52,138.342,311.88,138.429,312.228,138.603 C312.577,138.777,312.842,139.003,313.024,139.28 C313.2,139.543,313.317,139.851,313.376,140.202 C313.428,140.443,313.454,140.827,313.454,141.355 C313.454,141.355,309.621,141.355,309.621,141.355 C309.637,141.885,309.763,142.311,309.997,142.632 C310.231,142.952,310.594,143.113,311.086,143.113 C311.545,143.113,311.911,142.961,312.184,142.658 C312.341,142.483,312.451,142.279,312.516,142.048 C312.516,142.048,313.381,142.048,313.381,142.048 C313.358,142.24,313.282,142.454,313.154,142.69 C313.025,142.926,312.881,143.119,312.721,143.269 C312.455,143.529,312.124,143.705,311.73,143.796 C311.519,143.848,311.279,143.874,311.013,143.874 C310.361,143.874,309.81,143.637,309.357,143.164 C308.905,142.69,308.679,142.027,308.679,141.174 C308.679,140.334,308.906,139.652,309.362,139.128 C309.818,138.604,310.414,138.342,311.149,138.342 z M312.551,140.656 C312.515,140.276,312.432,139.971,312.302,139.743 C312.061,139.32,311.659,139.109,311.096,139.109 C310.692,139.109,310.353,139.254,310.08,139.546 C309.806,139.837,309.662,140.207,309.645,140.656 C309.645,140.656,312.551,140.656,312.551,140.656 z M311.066,138.332 M314.533,138.459 C314.533,138.459,315.402,138.459,315.402,138.459 C315.402,138.459,315.402,139.201,315.402,139.201 C315.611,138.944,315.799,138.757,315.969,138.64 C316.258,138.441,316.587,138.342,316.955,138.342 C317.372,138.342,317.707,138.445,317.961,138.65 C318.104,138.767,318.234,138.939,318.351,139.167 C318.547,138.887,318.776,138.68,319.04,138.545 C319.304,138.41,319.6,138.342,319.929,138.342 C320.632,138.342,321.11,138.596,321.364,139.104 C321.501,139.377,321.569,139.745,321.569,140.207 C321.569,140.207,321.569,143.689,321.569,143.689 C321.569,143.689,320.656,143.689,320.656,143.689 C320.656,143.689,320.656,140.056,320.656,140.056 C320.656,139.708,320.569,139.468,320.395,139.338 C320.221,139.208,320.008,139.143,319.758,139.143 C319.413,139.143,319.116,139.258,318.867,139.489 C318.617,139.721,318.493,140.106,318.493,140.647 C318.493,140.647,318.493,143.689,318.493,143.689 C318.493,143.689,317.599,143.689,317.599,143.689 C317.599,143.689,317.599,140.276,317.599,140.276 C317.599,139.921,317.557,139.662,317.472,139.499 C317.339,139.255,317.09,139.133,316.725,139.133 C316.393,139.133,316.091,139.262,315.82,139.519 C315.548,139.776,315.412,140.241,315.412,140.915 C315.412,140.915,315.412,143.689,315.412,143.689 C315.412,143.689,314.533,143.689,314.533,143.689 C314.533,143.689,314.533,138.459,314.533,138.459 z"/>
      </g>
    </g>
  </g>
</svg>
