<?xml version="1.0" encoding="UTF-8" standalone="no"?>
<!DOCTYPE svg PUBLIC "-//W3C//DTD SVG 1.1//EN" "http://www.w3.org/Graphics/SVG/1.1/DTD/svg11.dtd">
<!-- Created with Vectornator (http://vectornator.io/) -->
<svg height="100%" stroke-miterlimit="10" style="fill-rule:nonzero;clip-rule:evenodd;stroke-linecap:round;stroke-linejoin:round;" version="1.1" viewBox="0 0 200 240" width="100%" xml:space="preserve" xmlns="http://www.w3.org/2000/svg" xmlns:vectornator="http://vectornator.io" xmlns:xlink="http://www.w3.org/1999/xlink">
<defs/>
<g id="body" vectornator:layerName="body">
<g opacity="1" vectornator:layerName="(curve)">
<path d="M113.09 87.1307C119.811 97.9038 139.793 110.21 142.108 126.202C144.422 142.194 148.505 186.522 148.505 186.522C148.505 186.522 43.5973 189.799 48.4284 186.065C54.8623 181.093 46.372 123.917 46.372 123.917L73.5618 83.9319C73.5618 83.9319 106.369 76.3577 113.09 87.1307Z" fill="#d8d0bd" fill-rule="nonzero" opacity="1" stroke="#cdc0c1" stroke-linecap="round" stroke-linejoin="round" stroke-width="1"/>
<path d="M31.733 157.39L162.867 155.388C163.524 155.388 169.274 159.936 169.274 160.593L191.296 227.873C191.296 228.53 190.764 229.063 190.106 229.063L14.9046 229.063C14.2474 229.063 13.7146 228.53 13.7146 227.873L27.7289 163.196C27.7289 162.538 31.0758 157.39 31.733 157.39Z" fill="#7f7766" fill-rule="nonzero" opacity="1" stroke="#1e1415" stroke-linecap="round" stroke-linejoin="round" stroke-width="1"/>
<path d="M124.027 159.992L131.235 215.849C131.235 216.497 68.5707 217.898 68.5707 217.251L75.7781 162.195C75.7781 161.547 124.027 159.345 124.027 159.992Z" fill="#ffffff" fill-rule="nonzero" opacity="1" stroke="#1e1415" stroke-linecap="round" stroke-linejoin="round" stroke-width="1"/>
<g opacity="1" vectornator:layerName="(curve)">
<path d="M117.698 167.156C109.409 173.214 108.378 182.695 110.146 193.772C108.625 194.422 107.083 194.946 105.663 195.807C102.835 191.703 106.48 191.362 108.902 190.089C108.831 189.645 106.457 189.104 105.097 189.52C102.91 183.478 89.1737 185.586 90.0154 190.862C90.2288 190.83 91.6968 192.96 92.2193 193.719C95.6906 191.182 94.5937 188.342 102.073 189.744C102.457 192.15 94.3328 191.901 94.6733 194.035C95.0421 196.346 98.6189 194.426 99.6885 193.969C100.574 193.59 101.453 193.222 102.357 192.887C102.242 193.632 102.995 196.206 103.315 196.158C102.116 197.87 91.3185 200.737 94.3877 196.353C92.9157 196.077 89.207 198.65 87.9128 199.596C88.363 200.49 89.9394 201.342 89.9749 201.564C91.6883 201.308 93.1962 202.448 95.0964 202.164C97.4973 201.806 100.119 199.794 102.46 199.016C102.609 199.949 102.534 200.844 102.673 201.716C101.521 202.067 97.8097 203.21 96.4805 204.48C95.7248 205.203 96.86 206.37 96.8729 206.451C99.1064 206.117 100.561 204.762 102.671 204.447C103.148 207.433 107.895 209.88 107.97 207.524C108.076 204.148 106.161 200.979 105.52 197.649C107.542 197.347 109.378 196.39 111.389 196.09C112.146 195.977 115.283 197.046 115.551 196.151C116.407 193.287 113.137 185.859 113.139 182.402C113.141 176.105 116.004 172.819 117.698 167.156Z" fill="#131313" fill-rule="nonzero" opacity="1" stroke="#131313" stroke-linecap="round" stroke-linejoin="round" stroke-width="1"/>
<path d="M95.7937 179.478C94.7697 177.35 94.1843 174.536 94.1488 174.314C90.975 174.788 86.6658 173.538 84.4732 176.669C83.4964 178.064 84.9575 180.659 83.7241 181.56C83.3983 179.518 80.505 177.591 80.7747 175.401C81.3873 170.428 93.4511 169.097 96.5332 171.454C98.2027 172.732 98.7724 177.272 98.9841 178.598C99.2797 180.451 101.465 183.318 99.8708 184.156C93.2745 187.623 96.7469 181.459 95.7937 179.478Z" fill="#212121" fill-rule="nonzero" opacity="1" stroke="#212121" stroke-linecap="round" stroke-linejoin="round" stroke-width="1"/>
<path d="M104.815 183.645C105.055 176.038 105.457 175.358 109.908 169.002C103.992 166.973 95.7943 183.13 104.815 183.645Z" fill="#212121" fill-rule="nonzero" opacity="1" stroke="#212121" stroke-linecap="round" stroke-linejoin="round" stroke-width="1"/>
</g>
<path d="M67.3499 95.4322C54.9885 98.3349 49.1135 97.2237 36.1982 106.934C23.2828 116.644 19.7021 116.751 15.8579 126.456C12.0138 136.161 21.7742 142.621 21.7742 142.621L27.0494 137.804C27.0494 137.804 22.1461 141.069 22.0245 144.655C21.8503 149.79 31.7606 157.058 34.4045 158.371C41.4803 161.886 46.9456 157.826 53.391 156.035C54.8903 155.619 53.6776 143.176 53.6776 143.176C53.6776 143.176 53.8659 154.443 56.1272 154.96C59.26 155.678 60.8201 144.885 61.4882 142.501C62.1944 139.982 61.3415 137.211 59.7039 134.515C57.865 131.488 55.0365 128.555 52.315 126.179C47.1701 121.687 38.4006 126.725 38.4006 126.725C38.4006 126.725 42.5459 124.16 45.6315 123.871C48.7172 123.582 55.4262 128.053 55.4262 128.053C55.4262 128.053 60.1717 111.478 69.9683 110.852C77.9339 110.344 88.3654 107.209 88.3654 107.209L85.6436 95.3228C85.6436 95.3228 79.7112 92.5294 67.3499 95.4322Z" fill="#d69919" fill-rule="nonzero" opacity="1" stroke="#1e1415" stroke-linecap="round" stroke-linejoin="round" stroke-opacity="0" stroke-width="1"/>
<path d="M144.285 100.47C164.686 117.41 163.883 148.254 159.768 157.847C156.286 165.965 135.398 158.817 135.398 158.817C135.398 158.817 133.931 167.941 127.182 169.839C120.433 171.737 110.182 169.968 108.402 166.408C105.488 160.579 106.095 153.089 110.927 149.355C117.361 144.382 142.85 140.882 142.85 140.882L136.597 141.63C136.597 141.63 135.967 134.104 135.554 132.417C133.85 125.462 128.528 118.49 118.784 112.856C109.041 107.222 97.4729 107.027 97.4729 107.027L128.541 86.9737C128.541 86.9737 134.517 92.3583 144.285 100.47Z" fill="#d69919" fill-rule="nonzero" opacity="1" stroke="#1e1415" stroke-linecap="round" stroke-linejoin="round" stroke-opacity="1.42247e-16" stroke-width="1"/>
<path d="M142.418 98.9865L148.355 104.425C148.355 104.425 148.265 108.309 143.462 110.514C138.659 112.719 129.142 113.244 129.142 113.244C129.142 113.244 136.908 110.97 140.871 106.433C144.833 101.896 142.418 98.9865 142.418 98.9865Z" fill="#110a04" fill-rule="nonzero" opacity="1" stroke="#110a04" stroke-linecap="round" stroke-linejoin="round" stroke-width="1"/>
<path d="M152.874 110.316L156.806 117.343C156.806 117.343 155.501 121.003 150.249 121.589C144.996 122.175 135.796 119.687 135.796 119.687C135.796 119.687 142.749 120.096 147.935 117.031C153.121 113.967 152.874 110.316 152.874 110.316Z" fill="#110a04" fill-rule="nonzero" opacity="1" stroke="#110a04" stroke-linecap="round" stroke-linejoin="round" stroke-width="1"/>
<path d="M159.669 125.402L161.211 133.305C161.211 133.305 158.829 136.375 153.656 135.292C148.483 134.21 140.519 128.975 140.519 128.975C140.519 128.975 146.997 131.533 152.88 130.24C158.764 128.947 159.669 125.402 159.669 125.402Z" fill="#110a04" fill-rule="nonzero" opacity="1" stroke="#110a04" stroke-linecap="round" stroke-linejoin="round" stroke-width="1"/>
<path d="M134.894 142.312L140.373 141.244C140.373 141.244 142.878 142.589 142.755 145.666C142.633 148.743 146.857 152.977 146.857 152.977C146.857 152.977 140.899 149.674 139.227 146.225C137.554 142.776 134.894 142.312 134.894 142.312Z" fill="#110a04" fill-rule="nonzero" opacity="1" stroke="#110a04" stroke-linecap="round" stroke-linejoin="round" stroke-width="1"/>
<path d="M125.673 143.994L130.583 143.03C130.583 143.03 132.849 143.78 132.775 145.783C132.701 147.787 136.546 150.327 136.546 150.327C136.546 150.327 131.155 148.476 129.611 146.32C128.068 144.164 125.673 143.994 125.673 143.994Z" fill="#110a04" fill-rule="nonzero" opacity="1" stroke="#110a04" stroke-linecap="round" stroke-linejoin="round" stroke-width="1"/>
<path d="M46.8799 100.817L39.8039 104.659C39.8039 104.659 38.9532 108.451 43.0816 111.75C47.21 115.05 56.3174 117.858 56.3174 117.858C56.3174 117.858 49.3308 113.776 46.5819 108.416C43.8331 103.056 46.8799 100.817 46.8799 100.817Z" fill="#110a04" fill-rule="nonzero" opacity="1" stroke="#110a04" stroke-linecap="round" stroke-linejoin="round" stroke-width="1"/>
<path d="M33.26 109.1L26.5684 113.579C26.5684 113.579 26.0708 117.433 30.4858 120.338C34.9008 123.243 44.2283 125.2 44.2283 125.2C44.2283 125.2 36.8951 121.779 33.6639 116.695C30.4326 111.611 33.26 109.1 33.26 109.1Z" fill="#110a04" fill-rule="nonzero" opacity="1" stroke="#110a04" stroke-linecap="round" stroke-linejoin="round" stroke-width="1"/>
<path d="M19.2031 119.996L15.6272 127.012C15.6272 127.012 17.1129 130.503 22.3881 130.817C27.6632 131.132 36.7278 128.269 36.7278 128.269C36.7278 128.269 28.6647 128.931 23.3323 126.207C17.9999 123.482 19.2031 119.996 19.2031 119.996Z" fill="#110a04" fill-rule="nonzero" opacity="1" stroke="#110a04" stroke-linecap="round" stroke-linejoin="round" stroke-width="1"/>
<g opacity="1" vectornator:layerName="(curve)">
<path d="M51.8469 106.504L51.9014 157.232C51.9014 157.232 53.7652 158.906 55.8807 158.974C57.9962 159.042 60.3633 157.505 60.3633 157.505L59.5347 106.637C59.5347 106.637 58.0207 104.664 56.0988 104.631C54.1768 104.598 51.8469 106.504 51.8469 106.504Z" fill="#79823c" fill-rule="nonzero" opacity="1" stroke="#1e1415" stroke-linecap="round" stroke-linejoin="round" stroke-width="1"/>
<path d="M52.0677 153.419L52.9697 164.386C52.9697 164.386 53.9616 162.992 56.1506 163.009C58.3395 163.026 59.189 164.623 59.189 164.623L60.186 153.989C60.186 153.989 58.1393 151.671 56.1506 151.662C54.1618 151.654 52.0677 153.419 52.0677 153.419Z" fill="#625a48" fill-rule="nonzero" opacity="1" stroke="#000000" stroke-linecap="round" stroke-linejoin="round" stroke-width="1"/>
<path d="M52.9489 163.677C52.9489 163.677 51.4053 166.449 51.7851 169.431C52.165 172.412 54.4682 175.604 54.4682 175.604C54.4682 175.604 54.2824 177.14 56.1826 177.157C58.0829 177.174 57.7094 175.629 57.7094 175.629C57.7094 175.629 59.6212 171.818 60.0137 168.894C60.4061 165.969 59.2793 163.931 59.2793 163.931C59.2793 163.931 57.7004 162.327 55.9739 162.319C54.2475 162.311 52.9489 163.677 52.9489 163.677Z" fill="#ffffff" fill-rule="nonzero" opacity="1" stroke="#000000" stroke-linecap="round" stroke-linejoin="round" stroke-width="1"/>
<path d="M51.7854 170.221C51.0113 176.6 59.4341 182.39 59.4341 182.39C59.4341 182.39 56.0068 178.631 60.0224 169.261C60.1153 169.044 57.073 172.397 55.3465 172.388C53.6201 172.38 51.8609 169.599 51.7854 170.221Z" fill="#000000" fill-rule="nonzero" opacity="1" stroke="#000000" stroke-linecap="round" stroke-linejoin="round" stroke-width="1"/>
</g>
<path d="M59.7847 129.908L58.5987 140.495C58.5987 140.495 58.2725 151.115 60.5338 151.633C63.6666 152.35 64.3614 145.627 63.78 139.147C63.1986 132.667 59.7847 129.908 59.7847 129.908Z" fill="#d69919" fill-rule="nonzero" opacity="1" stroke="#1e1415" stroke-linecap="round" stroke-linejoin="round" stroke-width="1"/>
<path d="M50.3876 125.505C52.9059 128.992 53.022 138.42 55.2537 144C57.4854 149.579 52.0679 154.353 48.0857 158.017C42.6921 162.979 33.0334 157.72 30.3794 156.219C25.4367 153.424 20.3238 147.887 21.8786 144.185C23.9139 139.34 32.2743 129.629 38.8227 126.033C45.1653 122.549 49.6114 124.431 50.3876 125.505Z" fill="#d69919" fill-rule="nonzero" opacity="1" stroke="#1e1415" stroke-linecap="round" stroke-linejoin="round" stroke-width="1"/>
<path d="M110.798 166.354C110.798 166.354 109.809 164.35 110.404 162.528C110.999 160.706 113.178 159.067 113.178 159.067L112.049 163.851L112.192 166.282L113.694 168.642C113.694 168.642 116.016 169.067 116.733 169.322C117.119 169.459 115.91 166.806 116.232 165.317C116.821 162.599 118.822 160.157 118.822 160.157C118.822 160.157 117.434 164.974 117.734 167.355C118.034 169.736 120.023 169.679 120.023 169.679C120.023 169.679 128.687 169.204 129.668 168.699C132.253 167.367 132.94 166.197 133.84 163.377C135.029 159.657 135.817 157.257 135.924 157.821C135.995 158.191 145.619 157.595 145.619 157.595C145.619 157.595 151.78 158.543 156.384 157.708C158.187 157.381 161.449 155.723 160.894 156.186C160.225 156.744 159.642 162.862 154.355 163.513C149.068 164.165 139.615 161.438 138.122 162.273C135.599 163.687 135.227 163.284 133.613 165.881C132 168.478 129.044 169.204 128.484 169.375C121.833 171.404 112.407 168.893 112.407 168.893L110.798 166.354Z" fill="#fffefd" fill-rule="nonzero" opacity="1" stroke="#110a04" stroke-linecap="round" stroke-linejoin="round" stroke-width="1"/>
</g>
</g>
<g id="レイヤー-1" vectornator:layerName="レイヤー 1">
<g opacity="1" vectornator:layerName="(curve)">
<path d="M60.7501 90.3804C60.4876 91.3453 84.617 71.2163 92.8484 74.4799C104.873 79.2475 115.489 99.5764 117.771 102.048C120.053 104.52 147.156 86.0937 149.316 83.1919C151.476 80.2901 144.936 96.4953 137.58 102.057C130.5 107.41 118.302 111.102 110.661 112.822C102.452 114.67 95.7807 116.995 87.3185 115.105C76.9731 112.795 68.4562 108.52 61.7311 102.071C58.9294 99.3844 49.7265 87.9259 47.7088 84.7493C41.1809 74.4714 45.1337 68.7496 44.6224 66.2021C48.8876 67.3623 56.1279 87.3034 60.7501 90.3804Z" fill="#e1dfdd" fill-rule="nonzero" opacity="1" stroke="#110a04" stroke-linecap="round" stroke-linejoin="round" stroke-width="0.2"/>
<path d="M61.5403 90.837C61.5403 90.837 50.9922 85.1067 46.6332 77.3015C43.0173 70.8271 44.5565 62.3974 45.6495 60.0037C52.006 36.3094 82.2684 24.2586 101.857 29.5869C101.814 31.648 101.326 30.8745 101.284 32.9356C93.2152 31.9325 86.9879 31.3405 79.8849 35.4056C86.6377 37.2424 93.0863 36.0751 100.234 36.7953C99.2506 40.4094 99.2494 38.7097 99.8862 41.8825C94.3778 40.3842 85.6863 41.0473 80.68 43.9125C85.4106 47.0618 92.7351 45.5983 98.1338 44.5148C97.3039 49.4708 97.3039 49.4708 96.474 54.4267C100.373 53.6441 100.227 50.3978 99.5387 46.9697C107.191 47.1274 109.815 50.8013 115.68 52.3967C116.556 51.0805 116.556 51.0805 117.433 49.7644C112.868 46.7254 107.081 43.0616 101.554 43.3724C102.21 40.96 102.21 40.96 102.866 38.5477C111.253 39.8576 111.718 40.1701 118.043 43.7122C119.368 38.8409 106.411 34.7749 103.213 33.4605C103.607 32.0131 103.607 32.0131 104.001 30.5657C111.879 31.958 128.087 37.7228 130.46 36.2045C138.849 30.8359 162.681 24.3835 154.973 52.7214C152.94 60.1935 148.914 64.514 148.914 64.514C148.914 64.514 155.765 75.719 147.203 88.7176C145.543 91.2379 139.99 94.2447 135.566 96.6898C128.105 100.814 118.635 103.218 118.635 103.218C118.635 103.218 111.945 89.8108 99.3272 83.1274C94.0449 80.3295 87.9861 80.7513 83.6424 79.1603C76.819 76.6611 61.5403 90.837 61.5403 90.837Z" fill="#d69919" fill-rule="nonzero" opacity="1" stroke="#d69919" stroke-linecap="round" stroke-linejoin="round" stroke-width="1"/>
<path d="M104.762 31.8912L104.306 34.2443C104.306 34.2443 112.189 37.5365 118.567 41.7824C118.305 42.7473 118.305 42.7473 118.043 43.7122C113.126 42.3749 108.888 39.8159 104.093 37.8452C102.823 40.6088 102.823 40.6088 101.554 43.3724C108.14 45.1639 111.444 46.4103 117.433 49.7644C116.556 51.0805 116.556 51.0805 115.68 52.3967C107.88 50.2751 99.6598 39.4411 98.6664 53.9867C97.5702 54.2067 97.5702 54.2067 96.474 54.4267C97.1727 49.9532 96.9488 50.7154 97.6475 46.2419C92.0644 44.7232 86.1972 44.9966 80.4175 44.8775C85.3982 40.5336 93.3585 42.2495 99.8862 41.8825C100.688 38.9355 100.449 40.6182 100.234 36.7953C93.0159 34.832 87.178 35.9037 79.8849 35.4056C87.1726 31.2348 91.875 32.6209 100.056 33.638C100.581 31.7082 100.366 30.5119 100.366 30.5119L92.2037 27.9704C92.2037 27.9704 97.3852 27.4692 103.568 28.8988C109.751 30.3283 116.935 33.6884 116.935 33.6884L104.762 31.8912Z" fill="#352407" fill-rule="nonzero" opacity="1" stroke="#352407" stroke-linecap="round" stroke-linejoin="round" stroke-width="1"/>
<path d="M82.8584 28.2841C79.8329 31.9603 82.0078 29.8187 75.3197 33.1394C73.2087 6.84292 47.3153 23.579 60.8253 40.7065C48.4087 40.7717 49.1807 17.2683 58.4638 11.2895C70.9876 3.22359 76.1793 23.5143 82.8584 28.2841Z" fill="#dea632" fill-rule="nonzero" opacity="1" stroke="#dea632" stroke-linecap="round" stroke-linejoin="round" stroke-width="1"/>
<path d="M69.6954 11.9072C55.1789-1.0639 45.633 32.1224 54.3345 37.915C46.7524 24.667 57.2746 8.5286 69.6954 11.9072Z" fill="#6c4d0f" fill-rule="nonzero" opacity="1" stroke="#6c4d0f" stroke-linecap="round" stroke-linejoin="round" stroke-width="1"/>
<path d="M61.0429 39.9066C53.3694 35.8416 57.2284 12.2755 69.0812 17.9752C74.7764 20.7139 78.7009 27.8293 76.3941 31.952C75.2041 34.0788 70.5518 32.5643 66.714 34.5529C62.8762 36.5416 63.5731 41.2469 61.0429 39.9066Z" fill="#fbefd6" fill-rule="nonzero" opacity="1" stroke="#fbefd6" stroke-linecap="round" stroke-linejoin="round" stroke-width="1"/>
<path d="M139.889 54.8363C141.046 50.5806 133.189 45.0577 129.707 42.7397C150.181 31.022 156.691 53.8917 139.889 54.8363Z" fill="#fefaf4" fill-rule="nonzero" opacity="1" stroke="#fefaf4" stroke-linecap="round" stroke-linejoin="round" stroke-width="1"/>
<path d="M149.587 65.0604L151.196 69.7613C151.196 69.7613 144.366 76.6703 136.737 80.9555C129.108 85.2406 120.68 86.9018 120.68 86.9018C120.68 86.9018 129.163 83.6689 136.39 78.2086C143.616 72.7483 149.587 65.0604 149.587 65.0604Z" fill="#110a04" fill-rule="nonzero" opacity="1" stroke="#110a04" stroke-linecap="round" stroke-linejoin="round" stroke-width="1"/>
<path d="M87.6263 94.0883C87.6985 95.3711 90.2869 97.9855 93.9208 98.8015C97.7188 99.6543 104.066 97.1303 104.066 97.1303C104.066 97.1303 97.4945 115.464 85.2591 111.778C71.7418 107.706 72.0181 92.1138 73.7721 92.2498C74.66 92.3186 78.6291 97.0051 81.517 97.4494C84.3343 97.8828 87.1159 95.9648 87.6263 94.0883Z" fill="#414141" fill-rule="nonzero" opacity="1" stroke="#414141" stroke-linecap="round" stroke-linejoin="round" stroke-width="1"/>
<path d="M152.359 60.0927C155.857 57.0421 155.762 45.2339 154.951 40.4847C153.885 34.2397 142.215 31.4125 142.215 31.4125C142.215 31.4125 148.766 31.0113 152.689 32.7661C156.231 34.3502 156.938 38.8192 157.441 41.4112C158.697 47.8892 157.799 57.933 152.359 60.0927Z" fill="#392e1b" fill-rule="nonzero" opacity="1" stroke="#392e1b" stroke-linecap="round" stroke-linejoin="round" stroke-width="1"/>
<path d="M90.1324 58.6831C90.1324 58.6831 94.2446 55.0722 97.3758 55.4061C100.507 55.74 102.657 60.0187 102.657 60.0187C102.657 60.0187 99.4622 82.0572 96.9555 85.2107C92.5276 90.781 84.6318 88.2756 83.9613 81.0317C83.606 77.193 90.1324 58.6831 90.1324 58.6831Z" fill="#b07f17" fill-rule="nonzero" opacity="1" stroke="#b07f17" stroke-linecap="round" stroke-linejoin="round" stroke-width="1"/>
<path d="M83.8406 81.137C83.8406 81.137 87.6442 79.1682 91.0308 79.9168C94.4175 80.6654 97.3871 84.1314 97.3871 84.1314C97.3871 84.1314 90.8035 94.5366 87.3277 93.869C83.852 93.2014 83.8406 81.137 83.8406 81.137Z" fill="#3c3736" fill-rule="nonzero" opacity="1" stroke="#3c3736" stroke-linecap="round" stroke-linejoin="round" stroke-width="1"/>
<path d="M151.658 76.8536L149.524 84.544C149.524 84.544 144.853 90.1343 137.056 94.4572C129.259 98.7802 118.336 101.836 118.336 101.836C118.336 101.836 128.43 98.4797 136.761 92.2341C145.092 85.9886 151.658 76.8536 151.658 76.8536Z" fill="#110a04" fill-rule="nonzero" opacity="1" stroke="#110a04" stroke-linecap="round" stroke-linejoin="round" stroke-width="1"/>
<path d="M46.7782 57.841L44.4947 65.1961C44.4947 65.1961 45.5092 70.0318 49.5911 76.1991C53.673 82.3664 60.8223 89.8654 60.8223 89.8654C60.8223 89.8654 55.9947 81.0653 52.4837 73.0592C48.9727 65.0531 46.7782 57.841 46.7782 57.841Z" fill="#110a04" fill-rule="nonzero" opacity="1" stroke="#110a04" stroke-linecap="round" stroke-linejoin="round" stroke-width="1"/>
<path d="M55.6016 44.2095L51.337 48.6602C51.337 48.6602 51.6383 56.6256 55.5479 62.9447C59.4575 69.2637 66.9754 73.9365 66.9754 73.9365C66.9754 73.9365 61.1662 67.225 58.3227 59.7932C55.4793 52.3615 55.6016 44.2095 55.6016 44.2095Z" fill="#110a04" fill-rule="nonzero" opacity="1" stroke="#110a04" stroke-linecap="round" stroke-linejoin="round" stroke-width="1"/>
<path d="M74.6074 102.848C74.6074 102.848 76.446 109.432 82.9207 111.487C93.0789 114.711 97.7635 107.265 97.7635 107.265C97.7635 107.265 93.6569 101.706 87.8679 100.601C82.0789 99.497 74.6074 102.848 74.6074 102.848Z" fill="#cd0202" fill-rule="nonzero" opacity="1" stroke="#cd0202" stroke-linecap="round" stroke-linejoin="round" stroke-width="1"/>
<path d="M105.024 70.4211C104.047 72.6432 103.302 73.6817 104.466 75.136C105.923 76.9571 106.433 76.7295 109.49 76.3066C110.617 76.1507 111.552 74.8543 112.332 72.5794C113.113 70.3044 110.436 69.3881 109.997 69.1016C109.302 68.6478 106.009 68.1823 105.024 70.4211Z" fill="#1e1415" fill-rule="nonzero" opacity="1" stroke="#1e1415" stroke-linecap="round" stroke-linejoin="round" stroke-width="1"/>
<path d="M84.7655 65.0575C84.4826 67.4685 84.5988 68.7412 82.8588 69.4057C80.6802 70.2378 80.3555 69.7832 77.9341 67.8701C77.0413 67.1648 76.8913 65.5731 77.3709 63.2164C77.8506 60.8597 80.6225 61.4255 81.1462 61.4009C81.9758 61.3619 85.0506 62.6284 84.7655 65.0575Z" fill="#1e1415" fill-rule="nonzero" opacity="1" stroke="#1e1415" stroke-linecap="round" stroke-linejoin="round" stroke-width="1"/>
</g>
</g>
</svg>
