<?xml version="1.0" encoding="UTF-8" standalone="no"?>
<!DOCTYPE svg PUBLIC "-//W3C//DTD SVG 1.1//EN" "http://www.w3.org/Graphics/SVG/1.1/DTD/svg11.dtd">
<!-- Created with Vectornator (http://vectornator.io/) -->
<svg height="100%" stroke-miterlimit="10" style="fill-rule:nonzero;clip-rule:evenodd;stroke-linecap:round;stroke-linejoin:round;" version="1.1" viewBox="0 0 70.875 70.875" width="100%" xml:space="preserve" xmlns="http://www.w3.org/2000/svg" xmlns:vectornator="http://vectornator.io" xmlns:xlink="http://www.w3.org/1999/xlink">
<defs/>
<g id="moji" vectornator:layerName="moji">
<g opacity="1" vectornator:layerName="(curve)">
<path d="M35.5627 1.23315L35.5627 1.23315C54.441 1.23315 69.745 16.5371 69.745 35.4155L69.745 35.4155C69.745 54.2939 54.441 69.5978 35.5627 69.5978L35.5627 69.5978C16.6843 69.5978 1.38032 54.2939 1.38032 35.4155L1.38032 35.4155C1.38032 16.5371 16.6843 1.23315 35.5627 1.23315Z" fill="#fffefe" fill-rule="nonzero" opacity="1" stroke="#000c85" stroke-linecap="butt" stroke-linejoin="round" stroke-width="1"/>
<path d="M36.412 12.2869L36.412 12.2869C49.0398 12.2869 59.2767 22.5238 59.2767 35.1516L59.2767 35.1516C59.2767 47.7795 49.0398 58.0164 36.412 58.0164L36.412 58.0164C23.7841 58.0164 13.5472 47.7795 13.5472 35.1516L13.5472 35.1516C13.5472 22.5238 23.7841 12.2869 36.412 12.2869Z" fill="#0d0199" fill-rule="nonzero" opacity="1" stroke="#000000" stroke-linecap="butt" stroke-linejoin="round" stroke-opacity="0.00245658" stroke-width="0.3"/>
<path d="M18.3194 20.0005C18.3194 20.0005 14.1411 16.4918 8.53267 18.4849C9.97181 19.4022 10.158 24.769 7.47967 25.449C9.92905 26.2462 9.86037 31.2641 7.91461 31.991C10.6158 33.4448 10.2953 36.2586 8.94472 38.1813C11.2567 39.7992 10.9398 39.9394 10.532 42.3701C13.3128 43.8133 13.2672 43.6526 12.6233 46.0606C14.8334 46.5718 15.3485 49.1681 15.3485 49.1681L17.5082 50.3269L13.7063 41.6893L12.6957 33.1543L14.1756 24.3051L18.3194 20.0005Z" fill="#ffffff" fill-opacity="0.789062" fill-rule="nonzero" opacity="1" stroke="#000000" stroke-linecap="butt" stroke-linejoin="round" stroke-opacity="0" stroke-width="0.3"/>
<path d="M19.8159 21.533C19.8159 21.533 15.4496 17.032 9.27749 18.5683C9.61257 18.7581 10.0733 20.06 9.81653 21.4252C12.4451 21.9736 17.3139 22.8463 17.2823 23.1771C17.2528 23.4877 12.1344 22.3685 9.87044 22.2068C9.4797 24.702 8.85542 25.6371 8.21899 25.7808C8.75346 25.9354 10.2208 27.0313 10.0387 28.1848C12.3501 28.3789 15.9586 28.8346 15.9617 29.0258C15.968 29.4204 11.9403 29.0897 9.9513 28.9719C9.89189 31.0034 9.10214 32.192 8.70826 32.3228C8.89864 32.3738 10.4634 33.3921 10.1485 34.7834C11.8919 34.6049 14.6097 34.7303 14.641 34.9284C14.6967 35.2799 12.0693 35.3361 10.3017 35.5483C10.5442 37.0846 9.90715 37.9044 9.68177 38.1896C9.97117 38.2925 11.4035 38.6587 11.0563 40.0763C12.859 39.7098 14.2705 39.6817 14.2815 39.8361C14.304 40.1538 12.8891 40.4267 11.1372 40.6692C11.8919 41.8551 11.255 41.9749 11.1911 42.3133C11.7781 42.3857 12.377 42.6637 12.8891 43.5262C14.2637 43.3645 15.1336 43.1924 15.3534 43.8274C15.481 44.1962 14.2531 43.6444 13.1856 43.9844C13.5793 44.8842 13.1387 45.6599 13.0508 45.9519C15.537 46.4632 15.4254 48.9842 15.4254 48.9842L19.1567 49.537C19.1567 49.537 16.2429 46.3646 15.2235 42.021C14.2041 37.6774 14.7664 37.5236 15.4226 33.2843C16.0789 29.045 17.8483 25.0638 17.8483 25.0638L19.8159 21.533Z" fill="#d30e6d" fill-opacity="0.789062" fill-rule="nonzero" opacity="1" stroke="#000000" stroke-linecap="butt" stroke-linejoin="round" stroke-opacity="0" stroke-width="0.3"/>
<path d="M46.1338 19.4055C45.8483 21.338 45.7703 21.6652 46.7265 21.6519C47.6828 21.6386 48.382 20.6956 48.4845 19.6175C48.587 18.5394 48.1731 16.1894 47.7215 15.791C47.2699 15.3926 46.4194 17.4731 46.1338 19.4055Z" fill="#000000" fill-rule="nonzero" opacity="1" stroke="#ffffff" stroke-linecap="butt" stroke-linejoin="round" stroke-opacity="0" stroke-width="0.3"/>
<path d="M52.3367 33.1071C52.6174 33.5834 48.2342 30.2372 48.6522 27.9423C49.0681 25.6588 55.403 25.3567 55.403 25.3567C55.403 25.3567 55.054 26.0832 55.1993 26.9668C55.3537 27.9059 55.9332 28.7458 55.9332 28.7458C55.9332 28.7458 54.5857 28.696 54.0512 29.4029C53.5167 30.1097 53.7951 30.978 53.7951 30.978C53.7951 30.978 53.0376 31.3078 52.6254 31.8061C52.2133 32.3043 52.0054 32.5452 52.3367 33.1071Z" fill="#f5f5f5" fill-rule="nonzero" opacity="1" stroke="#fbfbfb" stroke-linecap="butt" stroke-linejoin="round" stroke-opacity="0.0120208" stroke-width="0.2"/>
<path d="M52.117 32.7599C52.3803 33.2647 48.2308 30.1068 48.9407 27.8848C49.6545 25.6507 55.1435 25.5222 55.1435 25.5222C55.1435 25.5222 54.6581 26.1717 54.8794 26.8784C53.1948 26.9569 49.6545 27.1211 49.6402 27.3566C49.6259 27.5922 52.9521 27.4137 54.9436 27.1567C54.9507 27.5707 55.586 28.5915 55.586 28.5915C55.586 28.5915 54.1941 28.7128 53.8586 29.4623C52.5667 28.9055 49.3761 27.4994 49.2119 27.8563C49.0921 28.1167 53.7881 29.5014 53.6873 29.6764C53.4332 30.1178 53.5232 30.9041 53.5232 30.9041C53.5232 30.9041 53.0806 30.9826 52.6167 31.4751C51.5745 30.5115 49.3966 28.4215 49.2619 28.5915C49.148 28.7351 51.4461 30.5972 52.5167 31.6607C51.9386 32.2829 52.0314 32.5958 52.117 32.7599Z" fill="#a61f62" fill-opacity="0.973958" fill-rule="nonzero" opacity="1" stroke="#fbfbfb" stroke-linecap="butt" stroke-linejoin="round" stroke-opacity="0.0120208" stroke-width="0.2"/>
<path d="M47.8534 35.9289C47.285 36.1361 46.8466 40.2758 46.9557 41.4061C47.0234 42.1077 47.0062 40.8008 47.9835 40.4566C47.8982 38.5233 47.6893 37.252 47.9183 37.138C48.0371 37.0789 48.1581 39.2865 48.2263 40.5142C48.6705 40.6299 49.1641 41.1117 49.2478 41.1216C49.5137 41.1532 48.0591 36.4951 48.4812 36.8458C48.7729 37.0882 49.3445 40.2621 49.4984 41.4107C50.143 41.2657 51.2179 42.4415 51.2179 42.4415C51.2179 42.4415 49.133 35.4626 47.8534 35.9289Z" fill="#fff8fb" fill-opacity="0.95319" fill-rule="nonzero" opacity="1" stroke="#ffffff" stroke-linecap="butt" stroke-linejoin="round" stroke-opacity="0" stroke-width="0.3"/>
<path d="M47.9553 36.1357C47.4407 36.3079 46.9701 39.9968 47.0431 41.0349C47.0884 41.6793 47.0004 40.7132 47.8849 40.4281C47.8509 38.6556 47.6623 37.0873 47.8904 37.1139C48.131 37.1419 48.3053 39.2788 48.3395 40.4049C48.7355 40.5245 49.0281 40.9119 49.1029 40.9235C49.3409 40.9606 48.0021 36.77 48.4815 36.9095C48.8543 37.0179 49.4758 40.1907 49.5886 41.247C50.1702 41.1341 51.0461 42.1481 51.0461 42.1481C51.0461 42.1481 49.1137 35.7482 47.9553 36.1357Z" fill="#ff77b9" fill-opacity="0.95319" fill-rule="nonzero" opacity="1" stroke="#ffffff" stroke-linecap="butt" stroke-linejoin="round" stroke-opacity="0" stroke-width="0.3"/>
<path d="M45.7645 21.3339C45.7645 21.3339 50.4859 17.8508 51.8356 18.6851C53.1853 19.5193 50.288 21.0838 49.916 21.8276C49.5439 22.5714 51.389 34.1994 47.1542 39.908C42.9194 45.6166 34.0763 55.0005 30.2856 54.9195C26.4948 54.8385 24.8182 51.7099 28.6639 42.31C32.5096 32.9101 45.7645 21.3339 45.7645 21.3339Z" fill="#fefefe" fill-rule="nonzero" opacity="1" stroke="#ffffff" stroke-linecap="butt" stroke-linejoin="round" stroke-opacity="0" stroke-width="0.3"/>
<path d="M46.375 34.8742C45.7393 34.2941 41.0057 36.329 39.8802 37.17C39.1815 37.692 40.5623 36.8555 41.6427 37.8602C43.6416 36.5481 44.8446 35.4946 45.1332 35.7092C45.2829 35.8205 43.0176 37.3483 41.7584 38.1991C41.9592 38.8255 41.8058 39.7418 41.8563 39.8524C42.0168 40.2039 45.9215 35.4839 45.8556 36.2293C45.8101 36.7445 42.8434 39.4371 41.731 40.3454C42.3561 41.0593 41.887 43.1338 41.887 43.1338C41.887 43.1338 47.8061 36.18 46.375 34.8742Z" fill="#ff77b9" fill-opacity="0.95319" fill-rule="nonzero" opacity="1" stroke="#ffffff" stroke-linecap="butt" stroke-linejoin="round" stroke-opacity="0" stroke-width="0.3"/>
<path d="M47.7827 15.2819C44.6969 13.6125 40.1352 11.4143 31.9487 12.6008C28.4581 13.1067 22.1346 14.8266 16.7217 22.3137C11.3088 29.8007 11.2985 42.2673 16.9241 49.4794C22.5497 56.6914 23.8546 56.0052 26.9911 57.624C35.3887 60.204 38.2993 57.348 38.2722 56.0052C37.5409 53.4321 36.451 54.4876 29.9516 53.795C26.8638 52.4241 28.6235 48.4541 29.6257 44.5381C31.0071 41.2405 42.6028 32.4675 43.6336 27.9411C44.6645 23.4148 44.6463 22.1113 47.7827 15.2819Z" fill="#ce0774" fill-rule="nonzero" opacity="1" stroke="#ffffff" stroke-linecap="butt" stroke-linejoin="round" stroke-opacity="0" stroke-width="0.3"/>
<path d="M27.754 55.4864C30.519 53.323 35.2632 47.3011 39.9202 40.6268C38.9665 49.1497 43.1768 50.548 44.7776 51.1463C46.3784 51.7447 58.6018 49.3681 58.3952 54.3665C56.7566 54.5707 55.2976 54.8035 53.9859 55.0551C44.4178 56.8898 42.685 59.7211 36.2432 59.7211C28.9182 59.7211 24.9889 57.6498 27.754 55.4864Z" fill="#fcfcfc" fill-rule="nonzero" opacity="1" stroke="#000000" stroke-linecap="butt" stroke-linejoin="round" stroke-opacity="0" stroke-width="0.3"/>
<path d="M27.0199 54.735C29.9034 52.3574 35.0031 48.9113 39.4136 41.8486C39.2756 42.8657 39.4547 43.471 39.3241 44.9181C39.2683 45.5372 39.3246 46.2609 39.4732 46.8551C35.4248 50.5729 29.6986 54.4244 30.1523 55.0259C30.5109 55.5015 36.5229 50.1033 39.8308 47.5405C40.8142 49.4179 40.5162 49.4775 42.1254 50.4907C39.5669 52.9035 31.794 56.3458 33.3093 56.4868C34.0354 56.5544 39.0751 53.3323 42.5864 51.0602C44.718 51.9808 43.3713 51.5973 45.8086 52.0517C44.6519 53.7867 37.2653 56.6348 38.215 56.671C39.7678 56.73 45.0985 54.2792 46.9239 51.9277C49.344 52.3568 56.1359 50.2754 57.4992 53.7454C45.8499 55.3151 41.4996 59.103 34.2581 58.7156C26.6302 58.3076 24.1364 57.1127 27.0199 54.735Z" fill="#d30e6d" fill-rule="nonzero" opacity="1" stroke="#000000" stroke-linecap="butt" stroke-linejoin="round" stroke-opacity="0" stroke-width="0.3"/>
<path d="M41.5199 14.4098L41.5199 14.4098C42.838 14.4098 43.9066 15.4784 43.9066 16.7965L43.9066 16.7965C43.9066 18.1147 42.838 19.1833 41.5199 19.1833L41.5199 19.1833C40.2017 19.1833 39.1332 18.1147 39.1332 16.7965L39.1332 16.7965C39.1332 15.4784 40.2017 14.4098 41.5199 14.4098Z" fill="#fff7fb" fill-rule="nonzero" opacity="1" stroke="#000000" stroke-linecap="butt" stroke-linejoin="round" stroke-opacity="0" stroke-width="0.3"/>
<path d="M42.4575 14.8644L42.5143 14.8644C43.4088 14.8644 44.1339 15.5895 44.1339 16.484L44.1339 16.484C44.1339 17.3784 43.4088 18.1035 42.5143 18.1035L42.4575 18.1035C41.5631 18.1035 40.838 17.3784 40.838 16.484L40.838 16.484C40.838 15.5895 41.5631 14.8644 42.4575 14.8644Z" fill="#000000" fill-rule="nonzero" opacity="1" stroke="#000000" stroke-linecap="butt" stroke-linejoin="round" stroke-opacity="0" stroke-width="0.3"/>
<path d="M46.001 15.8993C45.0264 17.2731 44.3916 18.2208 44.0354 20.2821C43.6792 22.3434 44.9403 23.0214 45.8682 22.3009C46.3591 21.9197 46.0498 19.7921 46.6003 18.2729C47.0904 16.9205 47.8723 16.5104 47.8723 16.5104C47.8723 16.5104 47.9175 19.7299 48.2802 19.6632C48.6429 19.5965 48.9924 19.3978 49.3155 19.1776C49.6386 18.9574 48.7692 17.4157 48.7657 16.2899C48.7643 15.8238 49.079 14.7235 48.0348 14.4567C47.3864 14.291 46.9756 14.5255 46.001 15.8993Z" fill="#e764a4" fill-rule="nonzero" opacity="1" stroke="#ffffff" stroke-linecap="butt" stroke-linejoin="round" stroke-opacity="0" stroke-width="0.3"/>
<path d="M23.8441 25.5592C23.1528 24.994 35.5044 26.4676 36.2196 29.8846C37.0847 34.0178 28.4819 39.5688 28.4819 39.5688C28.4819 39.5688 29.0217 37.2984 28.0494 35.9642C27.0161 34.5465 22.8349 35.2914 22.8349 35.2914C22.8349 35.2914 26.968 33.1767 26.7277 31.6148C26.4874 30.0528 22.4504 29.6203 22.4504 29.6203C22.4504 29.6203 25.9828 28.8754 26.0068 27.8661C26.0309 26.8568 24.6598 26.226 23.8441 25.5592Z" fill="#f9f9f9" fill-opacity="0.973958" fill-rule="nonzero" opacity="1" stroke="#fbfbfb" stroke-linecap="butt" stroke-linejoin="round" stroke-opacity="0.0120208" stroke-width="0.2"/>
<path d="M24.3743 25.7368C23.6829 25.1716 35.3957 26.9177 36.1045 29.9373C36.9753 33.6467 28.7676 39.0818 28.7676 39.0818C28.7676 39.0818 28.8193 38.2955 28.8311 37.4693C28.8438 36.5817 28.2363 35.913 28.3486 35.7805C28.6294 35.4491 35.4083 31.7173 35.1163 31.3237C35.0691 31.2601 28.283 35.7868 27.9803 35.3742C27.8178 35.1525 26.8854 34.8292 25.9869 34.8282C24.5723 34.8266 23.8664 34.8917 23.8664 34.8917C23.8664 34.8917 27.0874 33.294 26.9773 31.6411C26.9646 31.4509 34.5576 30.7142 34.4433 30.3587C34.3291 30.0032 27.0658 31.3694 26.9138 31.184C25.781 29.8029 23.4728 29.4953 23.4728 29.4953C23.4728 29.4953 25.6451 29.1379 26.3678 27.87C27.8259 28.1616 33.5545 29.6349 33.6561 29.2159C33.7551 28.8075 26.5578 27.7681 26.2408 27.5653C25.797 26.31 24.7584 26.0509 24.3743 25.7368Z" fill="#a70355" fill-opacity="0.973958" fill-rule="nonzero" opacity="1" stroke="#fbfbfb" stroke-linecap="butt" stroke-linejoin="round" stroke-opacity="0.0120208" stroke-width="0.2"/>
<path d="M40.4291 27.1949C40.283 28.0758 35.2394 26.9676 34.0504 23.6853C32.6123 19.715 34.7137 15.7806 34.7137 15.7806C34.7137 15.7806 34.1594 21.6681 35.1866 23.5259C36.8915 26.6092 40.623 26.0261 40.4291 27.1949Z" fill="#8e0047" fill-opacity="0.973958" fill-rule="nonzero" opacity="1" stroke="#fbfbfb" stroke-linecap="butt" stroke-linejoin="round" stroke-opacity="0.0120208" stroke-width="0.2"/>
<path d="M40.477 27.1579C40.0572 27.946 36.0855 26.5642 34.8965 23.2818C33.4584 19.3115 34.6897 16.0122 34.6897 16.0122C34.6897 16.0122 34.801 21.4099 35.8282 23.2677C37.5331 26.351 40.9684 26.2355 40.477 27.1579Z" fill="#f9b2d5" fill-opacity="0.973958" fill-rule="nonzero" opacity="1" stroke="#fbfbfb" stroke-linecap="butt" stroke-linejoin="round" stroke-opacity="0.0120208" stroke-width="0.2"/>
<path d="M41.3765 25.164C41.2627 25.9264 37.3353 24.9673 36.4094 22.1264C35.2895 18.6901 36.9259 15.2849 36.9259 15.2849C36.9259 15.2849 36.4943 20.3805 37.2942 21.9885C38.6218 24.6571 41.5275 24.1525 41.3765 25.164Z" fill="#800040" fill-opacity="0.973958" fill-rule="nonzero" opacity="1" stroke="#fbfbfb" stroke-linecap="butt" stroke-linejoin="round" stroke-opacity="0.0120208" stroke-width="0.2"/>
<path d="M41.3984 25.1708C41.236 25.9244 37.8846 24.4912 36.9588 21.6503C35.8389 18.214 36.9109 15.5189 36.9109 15.5189C36.9109 15.5189 37.0328 19.8319 37.8327 21.4399C39.1603 24.1085 41.6458 24.0226 41.3984 25.1708Z" fill="#f9b2d5" fill-opacity="0.973958" fill-rule="nonzero" opacity="1" stroke="#fbfbfb" stroke-linecap="butt" stroke-linejoin="round" stroke-opacity="0.0120208" stroke-width="0.2"/>
<g fill="#23048c" opacity="0.998894" stroke="#fefefe" stroke-linecap="butt" stroke-linejoin="round" stroke-width="0.2">
<path d="M22.3749 56.9241C22.2602 56.8627 22.1816 56.836 22.139 56.8442C22.0964 56.8523 22.0618 56.8761 22.035 56.9156L19.8888 60.0765L21.3425 61.0635C21.3876 61.0941 21.4319 61.1016 21.4755 61.0859C21.5191 61.0702 21.579 61.0183 21.6553 60.9301L21.7568 60.999L20.7353 62.5034L20.6339 62.4346C20.6877 62.3311 20.7138 62.2563 20.7123 62.21C20.7108 62.1637 20.6875 62.1252 20.6425 62.0946L16.4673 59.2599C16.4222 59.2293 16.3779 59.2218 16.3343 59.2375C16.2907 59.2532 16.2308 59.3051 16.1545 59.3932L16.0531 59.3244L17.0745 57.82L17.1759 57.8888C17.1222 57.9923 17.096 58.0671 17.0975 58.1134C17.099 58.1597 17.1223 58.1982 17.1674 58.2288L18.6211 59.2158L20.7672 56.0548C20.794 56.0154 20.8033 55.9744 20.7952 55.9318C20.787 55.8892 20.7333 55.826 20.6339 55.742L20.7027 55.6406L22.4438 56.8227L22.3749 56.9241Z"/>
<path d="M15.2725 55.4785C15.4062 55.6145 15.5533 55.723 15.714 55.8038C15.8746 55.8847 16.0379 55.9343 16.2039 55.9526C16.3699 55.9709 16.5314 55.9531 16.6883 55.8991C16.8453 55.8451 16.9918 55.7512 17.1279 55.6176C17.2639 55.4839 17.3603 55.3391 17.417 55.1831C17.4738 55.0271 17.4944 54.8659 17.479 54.6996C17.4636 54.5333 17.4169 54.3692 17.3389 54.2072C17.2608 54.0451 17.155 53.8961 17.0213 53.7601C16.8829 53.6192 16.7346 53.5096 16.5763 53.4311C16.4181 53.3527 16.256 53.3043 16.09 53.286C15.924 53.2677 15.7625 53.2855 15.6055 53.3396C15.4485 53.3936 15.302 53.4874 15.166 53.621C15.03 53.7547 14.9336 53.8995 14.8769 54.0556C14.8201 54.2116 14.7994 54.3727 14.8148 54.539C14.8302 54.7053 14.8758 54.8682 14.9514 55.0278C15.0271 55.1874 15.1341 55.3376 15.2725 55.4785ZM14.5002 56.2375C14.2758 56.0092 14.0818 55.7486 13.9183 55.4558C13.7547 55.163 13.6478 54.8575 13.5976 54.5392C13.5474 54.2209 13.5695 53.9008 13.6638 53.579C13.7581 53.2571 13.9486 52.9554 14.2352 52.6738C14.5267 52.3874 14.8329 52.201 15.1539 52.1148C15.4749 52.0285 15.7929 52.0144 16.1079 52.0726C16.4228 52.1307 16.7228 52.2465 17.0078 52.42C17.2928 52.5934 17.5475 52.7943 17.7719 53.0226C17.9962 53.2509 18.1926 53.5091 18.361 53.7971C18.5295 54.0852 18.64 54.3871 18.6926 54.703C18.7452 55.0189 18.7256 55.3366 18.6337 55.6561C18.5418 55.9755 18.3501 56.2784 18.0587 56.5648C17.772 56.8465 17.467 57.0316 17.1436 57.1203C16.8201 57.209 16.4997 57.2254 16.1824 57.1697C15.865 57.1139 15.5614 57.0017 15.2715 56.833C14.9816 56.6643 14.7245 56.4658 14.5002 56.2375Z"/>
<path d="M14.1124 48.6026C14.0863 48.5627 14.0452 48.5184 13.9889 48.4697C13.9327 48.4211 13.8732 48.4173 13.8105 48.4583C13.7934 48.4695 13.7651 48.5165 13.7257 48.5992C13.6863 48.682 13.6405 48.7831 13.5885 48.9026C13.5365 49.0221 13.4791 49.1553 13.4165 49.3021C13.3538 49.4489 13.295 49.5891 13.24 49.7228C13.185 49.8564 13.1354 49.9764 13.091 50.0827C13.0467 50.1891 13.012 50.2667 12.987 50.3156L14.1917 50.5895L14.8927 50.1308C14.9553 50.0898 14.9785 50.0381 14.962 49.9756C14.9455 49.9131 14.9215 49.8515 14.8899 49.7908L14.9925 49.7237L16.0385 51.3222L15.9359 51.3893C15.908 51.3343 15.8678 51.2915 15.8151 51.2608C15.7625 51.2301 15.7049 51.2353 15.6422 51.2763L12.3938 53.4018C12.3311 53.4428 12.3033 53.4936 12.3103 53.5541C12.3173 53.6146 12.3405 53.6686 12.3797 53.7162L12.2772 53.7833L11.2312 52.1847L11.3338 52.1176C11.3768 52.1709 11.4236 52.2176 11.4743 52.2577C11.5249 52.2978 11.5816 52.2973 11.6443 52.2563L13.2172 51.2271C13.0872 51.1901 12.9326 51.1468 12.7536 51.097C12.5746 51.0473 12.3876 50.9947 12.1925 50.9392C11.9975 50.8837 11.8048 50.8287 11.6145 50.7742C11.4242 50.7196 11.2494 50.6733 11.0901 50.6351C10.9308 50.5969 10.8003 50.5683 10.6984 50.5495C10.5966 50.5307 10.5371 50.5269 10.52 50.5381C10.4573 50.5791 10.4333 50.6294 10.4479 50.689C10.4625 50.7487 10.4818 50.8031 10.506 50.8525L10.4034 50.9196L9.31269 49.2526L9.41527 49.1855C9.4826 49.2636 9.61515 49.3355 9.81292 49.4015C10.0107 49.4674 10.2297 49.5316 10.47 49.5941C10.7103 49.6566 10.9526 49.7158 11.1967 49.7718C11.4408 49.8277 11.6411 49.8819 11.7974 49.9342L12.9718 47.1392C12.9988 47.0809 13.0105 47.0304 13.0071 46.9879C13.0037 46.9454 12.9918 46.9023 12.9714 46.8587L13.074 46.7916L14.215 48.5354L14.1124 48.6026Z"/>
<path d="M11.7715 44.2C11.8409 44.172 11.8762 44.1321 11.8773 44.0802C11.8785 44.0283 11.8733 43.979 11.8617 43.9323L11.9754 43.8864L12.648 45.5539L12.5343 45.5997C12.5101 45.5581 12.4797 45.5189 12.4429 45.4824C12.4061 45.4458 12.353 45.4415 12.2835 45.4695L11.0614 45.9625L9.33745 48.7618C9.30975 48.8023 9.30168 48.8551 9.31325 48.9202C9.32482 48.9853 9.33825 49.0368 9.35353 49.0747L9.23984 49.1206L8.41826 47.0837L8.53194 47.0378C8.54723 47.0757 8.57044 47.1196 8.60157 47.1694C8.63269 47.2193 8.67352 47.2341 8.72405 47.2137C8.75563 47.2009 8.80195 47.1474 8.86302 47.053C8.92408 46.9586 8.99678 46.843 9.08112 46.7061C9.16546 46.5693 9.25388 46.4198 9.34636 46.2577C9.43885 46.0955 9.52915 45.9416 9.61725 45.7959C9.55653 45.791 9.44518 45.7699 9.28319 45.7324C9.12121 45.6949 8.95099 45.6553 8.77255 45.6134C8.59411 45.5716 8.43276 45.5357 8.2885 45.5057C8.14425 45.4758 8.05633 45.4672 8.02475 45.4799C7.97422 45.5003 7.95441 45.5377 7.96531 45.592C7.97622 45.6464 7.98804 45.6893 8.00078 45.7209L7.88709 45.7668L7.13046 43.8909L7.24415 43.845C7.25689 43.8766 7.28104 43.9183 7.3166 43.97C7.35216 44.0218 7.39398 44.0527 7.44207 44.0626L10.5114 44.7083L11.7715 44.2Z"/>
<path d="M7.51378 40.6342C7.54936 40.8215 7.61146 40.9934 7.7001 41.1499C7.78874 41.3064 7.89698 41.4383 8.02483 41.5458C8.15268 41.6532 8.29687 41.7281 8.45741 41.7704C8.61795 41.8127 8.7919 41.816 8.97924 41.7805C9.16659 41.7449 9.32719 41.678 9.46105 41.5798C9.59491 41.4816 9.70162 41.3591 9.78119 41.2122C9.86076 41.0654 9.9131 40.903 9.93821 40.7249C9.96331 40.5468 9.95808 40.3641 9.92251 40.1768C9.88566 39.9827 9.82324 39.8092 9.73523 39.656C9.64723 39.5029 9.53931 39.3726 9.41146 39.2652C9.28361 39.1578 9.13941 39.0829 8.97887 39.0406C8.81833 38.9983 8.64439 38.9949 8.45704 39.0305C8.2697 39.0661 8.1091 39.133 7.97524 39.2312C7.84138 39.3294 7.73466 39.4519 7.6551 39.5987C7.57553 39.7455 7.52287 39.9063 7.49713 40.081C7.47138 40.2558 7.47693 40.4401 7.51378 40.6342ZM6.44993 40.8362C6.39021 40.5217 6.37367 40.1973 6.4003 39.863C6.42693 39.5286 6.50778 39.2152 6.64287 38.9227C6.77795 38.6301 6.9741 38.3762 7.23132 38.161C7.48853 37.9458 7.81452 37.8007 8.20928 37.7258C8.61074 37.6495 8.96889 37.6647 9.28375 37.7713C9.59861 37.8779 9.87082 38.0428 10.1004 38.2661C10.33 38.4894 10.5151 38.7523 10.6557 39.0549C10.7964 39.3575 10.8965 39.666 10.9562 39.9805C11.016 40.2949 11.0359 40.6187 11.0159 40.9518C10.996 41.2848 10.9201 41.5973 10.7884 41.8892C10.6567 42.1811 10.4639 42.4344 10.21 42.649C9.95612 42.8635 9.62846 43.0089 9.227 43.0852C8.83224 43.1601 8.47576 43.1446 8.15755 43.0387C7.83935 42.9328 7.56379 42.7684 7.33088 42.5458C7.09796 42.3231 6.90783 42.0612 6.7605 41.7598C6.61317 41.4585 6.50964 41.1507 6.44993 40.8362Z"/>
<path d="M10.3621 34.0726C10.3598 33.9425 10.3448 33.8609 10.3169 33.8277C10.2891 33.7945 10.2514 33.7758 10.2039 33.7716L5.46166 33.3551C5.41417 33.3509 5.37382 33.3628 5.34061 33.3906C5.3074 33.4185 5.27835 33.4962 5.25346 33.6239L5.13134 33.6132L5.31546 31.5169L5.43758 31.5276C5.43983 31.6577 5.45488 31.7393 5.48272 31.7725C5.51057 31.8058 5.54824 31.8244 5.59573 31.8286L10.338 32.2451C10.3855 32.2493 10.4258 32.2375 10.459 32.2096C10.4923 32.1818 10.5213 32.104 10.5462 31.9763L10.6683 31.987L10.4842 34.0834L10.3621 34.0726Z"/>
<path d="M11.7638 26.0327C11.836 26.0527 11.8892 26.0392 11.9234 25.9921C11.9576 25.945 11.9889 25.883 12.0173 25.8061L12.1354 25.8388L11.6315 27.6602L11.5134 27.6276C11.5279 27.5751 11.5381 27.5125 11.5441 27.44C11.55 27.3674 11.5234 27.323 11.4644 27.3066C11.4053 27.2903 11.2754 27.3321 11.0746 27.432C10.8738 27.5319 10.624 27.6624 10.325 27.8235C10.0261 27.9846 9.69153 28.1658 9.32135 28.3673C8.95118 28.5687 8.56386 28.7619 8.15939 28.9468L8.17364 28.9719L10.7533 29.6856C10.8255 29.7055 10.8782 29.6936 10.9115 29.6498C10.9448 29.6061 10.9748 29.549 11.0013 29.4786L11.1195 29.5113L10.6537 31.1949L10.5355 31.1622C10.5471 31.0948 10.5499 31.0337 10.5438 30.979C10.5377 30.9244 10.4986 30.887 10.4264 30.8671L6.68497 29.832C6.61276 29.812 6.55955 29.8256 6.52533 29.8727C6.49112 29.9197 6.46074 29.9784 6.4342 30.0488L6.31605 30.0161L6.96431 27.6728L7.08246 27.7055C7.07631 27.7533 7.07673 27.8029 7.08371 27.8542C7.09069 27.9056 7.13028 27.9413 7.20249 27.9613C7.21562 27.9649 7.29788 27.9294 7.44927 27.8547C7.60067 27.78 7.79186 27.6827 8.02287 27.5629C8.25387 27.4431 8.51001 27.309 8.79129 27.1607C9.07257 27.0124 9.35385 26.8641 9.63514 26.7158L7.69549 26.1792C7.62329 26.1592 7.57008 26.1728 7.53586 26.2198C7.50164 26.2669 7.47036 26.3289 7.442 26.4059L7.32385 26.3732L7.80324 24.6403L7.92139 24.673C7.90616 24.7536 7.90113 24.8228 7.9063 24.8808C7.91146 24.9387 7.95015 24.9777 8.02235 24.9977L11.7638 26.0327Z"/>
<path d="M10.9386 25.0277C10.9508 25.0338 10.9637 25.0421 10.9775 25.0528C10.9912 25.0634 11.0103 25.0748 11.0347 25.0869C11.0957 25.1172 11.1824 25.088 11.2948 24.9994C11.4073 24.9108 11.5311 24.7879 11.6662 24.6307C11.8014 24.4735 11.9349 24.2965 12.0669 24.0997C12.1989 23.9029 12.3103 23.713 12.4012 23.53C12.4285 23.4751 12.4626 23.3989 12.5034 23.3013C12.5443 23.2038 12.5737 23.1024 12.5917 22.9973C12.6097 22.8922 12.6087 22.7947 12.5887 22.7049C12.5687 22.6151 12.5129 22.5475 12.4214 22.502C12.2994 22.4414 12.1762 22.4714 12.0516 22.5921C11.927 22.7127 11.7957 22.8775 11.6577 23.0865C11.5196 23.2955 11.371 23.522 11.2117 23.7661C11.0524 24.0102 10.8794 24.2246 10.6925 24.4093C10.5057 24.5941 10.3043 24.724 10.0882 24.7992C9.87216 24.8744 9.63605 24.8483 9.37987 24.7211C9.23959 24.6514 9.10681 24.5398 8.98154 24.3863C8.85627 24.2328 8.76593 24.0435 8.71053 23.8182C8.65512 23.593 8.64759 23.3288 8.68792 23.0256C8.72826 22.7225 8.84084 22.3849 9.02567 22.0128C9.13475 21.7932 9.25072 21.5904 9.3736 21.4043C9.49647 21.2182 9.6133 21.0519 9.72409 20.9054C9.83488 20.7589 9.93051 20.6353 10.011 20.5346C10.0914 20.4339 10.1438 20.3591 10.168 20.3103C10.1922 20.2615 10.1982 20.2151 10.1859 20.1709C10.1736 20.1268 10.1644 20.088 10.1582 20.0545L10.2448 19.9721L11.1249 21.0937L11.0109 21.1853C10.9987 21.1793 10.9842 21.1702 10.9674 21.158C10.9506 21.1459 10.9331 21.1353 10.9148 21.1262C10.8904 21.1141 10.8417 21.1355 10.7688 21.1905C10.6958 21.2455 10.6115 21.3234 10.5158 21.4242C10.4201 21.5249 10.3214 21.6432 10.2198 21.779C10.1181 21.9148 10.0278 22.062 9.94907 22.2206C9.9218 22.2755 9.8809 22.3616 9.82638 22.479C9.77186 22.5964 9.72954 22.7199 9.69941 22.8494C9.66929 22.9789 9.65818 23.1008 9.66609 23.215C9.674 23.3292 9.7298 23.412 9.83349 23.4635C9.94328 23.5181 10.0574 23.4835 10.1759 23.3599C10.2943 23.2362 10.4226 23.0699 10.5606 22.8609C10.6987 22.6519 10.8489 22.4261 11.0112 22.1836C11.1735 21.941 11.3496 21.7281 11.5395 21.5449C11.7294 21.3617 11.9354 21.234 12.1575 21.1618C12.3797 21.0897 12.625 21.1203 12.8933 21.2536C13.0702 21.3414 13.2198 21.4652 13.342 21.6248C13.4643 21.7843 13.5455 21.9768 13.5856 22.2021C13.6258 22.4273 13.615 22.6825 13.5533 22.9674C13.4916 23.2523 13.3744 23.5686 13.2017 23.9163C13.0926 24.1359 12.9683 24.3517 12.8288 24.5637C12.6892 24.7757 12.5527 24.9665 12.4191 25.1358C12.2855 25.3052 12.1709 25.4441 12.0752 25.5525C11.9796 25.6608 11.9272 25.7242 11.9181 25.7425C11.8969 25.7852 11.8917 25.8301 11.9025 25.8773C11.9132 25.9245 11.9263 25.9709 11.9416 26.0165L11.8642 26.1035L10.8246 25.1194L10.9386 25.0277Z"/>
<path d="M13.1794 15.7105C13.2038 15.6777 13.2172 15.6368 13.2197 15.5878C13.2223 15.5387 13.1853 15.4858 13.1087 15.4289L13.1819 15.3305L14.3788 16.2204L14.3057 16.3188C14.2292 16.2619 14.1678 16.2417 14.1215 16.2582C14.0753 16.2748 14.04 16.2994 14.0156 16.3322L13.144 17.5046L15.6691 19.3818C15.7292 19.4265 15.7827 19.4345 15.8296 19.4057C15.8764 19.3769 15.9189 19.3427 15.9568 19.303L16.0552 19.3761L14.9581 20.8518L14.8597 20.7787C14.8868 20.7309 14.9073 20.6804 14.9214 20.6272C14.9355 20.574 14.9125 20.5251 14.8524 20.4804L12.3273 18.6031L11.4557 19.7755C11.4313 19.8083 11.4179 19.8492 11.4154 19.8983C11.4128 19.9473 11.4498 20.0003 11.5264 20.0572L11.4532 20.1555L10.2563 19.2657L10.3294 19.1673C10.4059 19.2242 10.4673 19.2443 10.5135 19.2278C10.5598 19.2113 10.5951 19.1866 10.6195 19.1538L13.1794 15.7105Z"/>
<path d="M15.2917 13.752C15.2252 13.8298 15.179 13.8966 15.1531 13.9522C15.1273 14.0079 15.1412 14.0619 15.1947 14.1143L17.9708 16.8278C18.0244 16.8801 18.0787 16.8927 18.1338 16.8656C18.1889 16.8385 18.2546 16.7908 18.3308 16.7225L18.4185 16.8082L17.0047 18.2547L16.917 18.169C16.9835 18.0912 17.0297 18.0245 17.0556 17.9688C17.0814 17.9131 17.0676 17.8591 17.014 17.8067L14.2379 15.0933C14.1843 15.0409 14.13 15.0283 14.0749 15.0554C14.0198 15.0825 13.9542 15.1302 13.8779 15.1985L13.7902 15.1128L15.2041 13.6663L15.2917 13.752Z"/>
<path d="M19.616 10.1153C19.6486 10.0907 19.6731 10.0553 19.6895 10.009C19.7058 9.96267 19.6853 9.90139 19.6281 9.82514L19.7261 9.75154L20.6216 10.9443L20.5235 11.0179C20.4663 10.9417 20.4131 10.9049 20.3641 10.9077C20.3151 10.9104 20.2742 10.9241 20.2415 10.9486L19.0733 11.8256L20.9622 14.3419C21.0072 14.4018 21.0563 14.4246 21.1094 14.4103C21.1625 14.396 21.2129 14.3752 21.2606 14.3479L21.3341 14.446L19.8636 15.5499L19.79 15.4519C19.8295 15.4137 19.8635 15.3711 19.8921 15.3241C19.9207 15.2771 19.9125 15.2237 19.8675 15.1638L17.9785 12.6475L16.8102 13.5245C16.7775 13.549 16.753 13.5844 16.7367 13.6308C16.7204 13.6771 16.7408 13.7384 16.7981 13.8146L16.7001 13.8882L15.8046 12.6954L15.9027 12.6218C15.9599 12.6981 16.013 12.7348 16.0621 12.7321C16.1111 12.7293 16.152 12.7157 16.1846 12.6912L19.616 10.1153Z"/>
<path d="M20.9958 9.60946C20.9637 9.54177 20.9171 9.5111 20.8561 9.51745C20.795 9.5238 20.7261 9.54142 20.6493 9.57029L20.5968 9.45953L22.2582 8.67145L22.3107 8.78221C22.2829 8.80296 22.2549 8.83132 22.2267 8.86729C22.1985 8.90327 22.2005 8.9551 22.2326 9.02278L23.2965 11.2657C23.4074 11.4995 23.5716 11.627 23.789 11.6483C24.0063 11.6696 24.2535 11.6145 24.5304 11.4832C24.8073 11.3518 25.0062 11.1953 25.1273 11.0135C25.2484 10.8317 25.2534 10.6238 25.1425 10.39L24.0786 8.14714C24.0465 8.07946 24.0076 8.04514 23.9619 8.04419C23.9163 8.04325 23.8766 8.04699 23.8429 8.05543L23.7904 7.94468L25.4517 7.1566L25.5043 7.26736C25.4334 7.30854 25.3761 7.35076 25.3326 7.39403C25.289 7.4373 25.2833 7.49278 25.3154 7.56047L26.2786 9.59106C26.3954 9.83719 26.4686 10.087 26.4984 10.3405C26.5282 10.5939 26.4987 10.8416 26.4099 11.0835C26.3211 11.3253 26.1594 11.5566 25.9248 11.7771C25.6903 11.9977 25.3699 12.2043 24.9638 12.3969C24.5577 12.5896 24.195 12.707 23.8758 12.7491C23.5566 12.7912 23.2752 12.7701 23.0317 12.6859C22.7882 12.6016 22.5778 12.4678 22.4003 12.2844C22.2229 12.101 22.0758 11.8862 21.959 11.64L20.9958 9.60946Z"/>
<path d="M30.4959 5.82172C30.5355 5.81155 30.5717 5.78819 30.6045 5.75163C30.6373 5.71508 30.6418 5.65063 30.6181 5.55828L30.7368 5.52777L31.108 6.97232L30.9893 7.00283C30.9656 6.91049 30.9305 6.85621 30.8842 6.83999C30.8378 6.82378 30.7949 6.82076 30.7553 6.83093L29.3404 7.19454L30.1236 10.242C30.1422 10.3145 30.1788 10.3543 30.2334 10.3614C30.2879 10.3685 30.3424 10.3685 30.3969 10.3616L30.4274 10.4803L28.6465 10.938L28.6159 10.8192C28.667 10.7991 28.7147 10.7728 28.7591 10.7403C28.8035 10.7078 28.8164 10.6552 28.7977 10.5827L28.0146 7.53526L26.5997 7.89886C26.5601 7.90903 26.524 7.9324 26.4912 7.96895C26.4584 8.00551 26.4538 8.06996 26.4776 8.1623L26.3588 8.19282L25.9876 6.74826L26.1063 6.71775C26.1301 6.8101 26.1651 6.86438 26.2115 6.88059C26.2578 6.8968 26.3008 6.89982 26.3404 6.88965L30.4959 5.82172Z"/>
<path d="M36.2927 8.93232C36.4287 8.9239 36.5118 8.83345 36.542 8.66099L36.6644 8.6534L36.7472 9.9891L36.6452 9.99542C36.6053 9.90236 36.5663 9.85019 36.5281 9.83891C36.4898 9.82764 36.4299 9.82453 36.3484 9.82958L31.8009 10.1115L31.7933 9.98912C31.8676 9.97769 31.9331 9.95999 31.9896 9.93601C32.0461 9.91204 32.072 9.86266 32.0674 9.78789L31.8272 5.91336C31.8226 5.83859 31.7908 5.7928 31.7317 5.77599C31.6727 5.75918 31.6056 5.74969 31.5304 5.74753L31.5228 5.62518L36.1518 5.33823C36.1926 5.3357 36.2325 5.31958 36.2716 5.28986C36.3107 5.26014 36.3273 5.1977 36.3214 5.10254L36.4438 5.09495L36.5285 6.46123L36.4061 6.46882C36.3998 6.36686 36.3753 6.30185 36.3326 6.27379C36.29 6.24573 36.2482 6.23296 36.2074 6.23549L33.2302 6.42004L33.2814 7.24593L35.1982 7.12711C35.239 7.12458 35.2789 7.10676 35.3178 7.07364C35.3566 7.04052 35.3731 6.97638 35.3672 6.88122L35.4896 6.87363L35.5718 8.19913L35.4494 8.20672C35.4435 8.11155 35.4192 8.04994 35.3765 8.02188C35.3338 7.99382 35.2921 7.98105 35.2513 7.98358L33.3345 8.10241L33.397 9.11182L36.2927 8.93232Z"/>
<path d="M43.2053 7.39196C43.0209 7.34305 42.8391 7.32474 42.6597 7.33702C42.4803 7.34931 42.3145 7.38987 42.1623 7.45872C42.0102 7.52756 41.8803 7.62522 41.7728 7.7517C41.6652 7.87818 41.587 8.03357 41.5381 8.21789C41.4892 8.4022 41.4801 8.57594 41.5108 8.7391C41.5415 8.90226 41.6058 9.05145 41.7038 9.18667C41.8018 9.32188 41.9257 9.4393 42.0754 9.53893C42.2251 9.63855 42.3921 9.71281 42.5764 9.76172C42.7673 9.81237 42.9509 9.83112 43.127 9.81796C43.3031 9.8048 43.4672 9.7638 43.6194 9.69496C43.7715 9.62612 43.9014 9.52845 44.0089 9.40198C44.1165 9.2755 44.1947 9.1201 44.2436 8.93579C44.2925 8.75147 44.3016 8.57774 44.2709 8.41458C44.2402 8.25142 44.1759 8.10223 44.0779 7.96701C43.9799 7.83179 43.8577 7.71481 43.7112 7.61606C43.5648 7.51731 43.3962 7.44261 43.2053 7.39196ZM43.483 6.34531C43.7924 6.42741 44.0921 6.55273 44.382 6.72127C44.672 6.88982 44.9197 7.09822 45.1251 7.3465C45.3305 7.59477 45.4746 7.88139 45.5575 8.20637C45.6404 8.53134 45.6303 8.88802 45.5272 9.2764C45.4224 9.67136 45.2539 9.98776 45.0217 10.2256C44.7895 10.4634 44.5231 10.6376 44.2225 10.7481C43.9219 10.8586 43.6047 10.9118 43.2711 10.9078C42.9375 10.9039 42.616 10.8608 42.3066 10.7787C41.9972 10.6966 41.6966 10.5746 41.4049 10.4127C41.1132 10.2507 40.8642 10.0472 40.6579 9.80224C40.4517 9.55726 40.3067 9.27393 40.2229 8.95225C40.1392 8.63056 40.1497 8.27224 40.2545 7.87728C40.3576 7.4889 40.5256 7.17415 40.7587 6.93301C40.9918 6.69188 41.2591 6.51443 41.5606 6.40065C41.862 6.28688 42.1804 6.22869 42.5158 6.22608C42.8512 6.22347 43.1736 6.26322 43.483 6.34531Z"/>
<path d="M46.7955 7.76458C46.8277 7.69693 46.8236 7.64218 46.7832 7.60032C46.7428 7.55846 46.681 7.51397 46.5978 7.46685L46.6505 7.35615L50.6631 9.26567C50.7 9.28322 50.7428 9.28848 50.7914 9.28144C50.84 9.2744 50.8848 9.22784 50.9257 9.14174L51.0364 9.19442L50.4307 10.4674L50.32 10.4147C50.3639 10.3225 50.3739 10.2537 50.3502 10.2085C50.3265 10.1633 50.2962 10.1319 50.2593 10.1143L47.7594 8.92471L47.3512 9.78259L49.0393 10.5859C49.0762 10.6035 49.1189 10.6087 49.1675 10.6017C49.2161 10.5946 49.2609 10.5481 49.3019 10.462L49.4126 10.5147L48.8244 11.7507L48.7137 11.6981C48.7576 11.6058 48.7677 11.5371 48.7439 11.4918C48.7202 11.4466 48.6899 11.4152 48.653 11.3977L46.9649 10.5943L46.3635 11.8581C46.3313 11.9257 46.3354 11.9805 46.3759 12.0224C46.4163 12.0642 46.4719 12.1058 46.5428 12.1471L46.4901 12.2577L44.7375 11.4237L44.7901 11.313C44.8669 11.342 44.9342 11.3589 44.9922 11.3639C45.0502 11.3689 45.0952 11.3375 45.1274 11.2699L46.7955 7.76458Z"/>
<path d="M52.5724 16.02C52.6759 16.099 52.7493 16.1378 52.7926 16.1366C52.8359 16.1353 52.8739 16.1174 52.9067 16.0827L55.5295 13.3045L54.2518 12.0983C54.2122 12.0609 54.1696 12.0464 54.1241 12.055C54.0786 12.0635 54.0111 12.1052 53.9217 12.18L53.8326 12.0959L55.0809 10.7736L55.17 10.8578C55.1004 10.9513 55.0627 11.0211 55.0568 11.067C55.0509 11.113 55.0677 11.1546 55.1074 11.192L58.777 14.6564C58.8166 14.6938 58.8592 14.7082 58.9047 14.6997C58.9502 14.6911 59.0177 14.6495 59.107 14.5746L59.1962 14.6588L57.9479 15.981L57.8587 15.8969C57.9283 15.8033 57.9661 15.7336 57.972 15.6876C57.9779 15.6417 57.961 15.6 57.9214 15.5626L56.6437 14.3564L54.0209 17.1346C53.9882 17.1693 53.9724 17.2083 53.9737 17.2516C53.9749 17.2949 54.0179 17.366 54.1027 17.4647L54.0185 17.5538L52.4883 16.1092L52.5724 16.02Z"/>
<path d="M58.4384 21.7432C58.5171 21.8543 58.6378 21.8773 58.8003 21.8122L58.8712 21.9122L57.7795 22.6862L57.7204 22.6028C57.7785 22.5199 57.8023 22.4592 57.7917 22.4208C57.7812 22.3824 57.7522 22.3298 57.705 22.2631L55.0699 18.5463L55.1699 18.4754C55.2187 18.5326 55.2683 18.5788 55.3184 18.6143C55.3686 18.6497 55.4242 18.6457 55.4853 18.6024L58.6521 16.3572C58.7133 16.3139 58.7354 16.2627 58.7186 16.2036C58.7018 16.1446 58.6745 16.0826 58.6367 16.0175L58.7367 15.9466L61.4191 19.7301C61.4427 19.7635 61.4775 19.7889 61.5233 19.8065C61.5692 19.8241 61.631 19.8053 61.7088 19.7502L61.7797 19.8502L60.663 20.6419L60.5921 20.5419C60.6754 20.4828 60.7178 20.4277 60.7191 20.3767C60.7205 20.3256 60.7094 20.2834 60.6857 20.2501L58.9605 17.8166L58.2855 18.2952L59.3962 19.8619C59.4199 19.8953 59.456 19.9197 59.5046 19.9354C59.5533 19.951 59.6165 19.9312 59.6943 19.8761L59.7652 19.9761L58.6818 20.7441L58.6109 20.6441C58.6887 20.589 58.7282 20.5359 58.7296 20.4848C58.731 20.4338 58.7198 20.3916 58.6962 20.3582L57.5854 18.7915L56.7604 19.3764L58.4384 21.7432Z"/>
<path d="M62.2253 25.3814L62.2322 25.2216C62.2598 25.2167 62.2882 25.2134 62.3172 25.2116C62.3462 25.2098 62.3763 25.202 62.4074 25.1881C62.4447 25.1714 62.4708 25.1131 62.4858 25.0131C62.5008 24.9131 62.5014 24.7935 62.4876 24.6542C62.4738 24.5149 62.4484 24.3621 62.4113 24.1959C62.3743 24.0297 62.321 23.8689 62.2515 23.7134C62.1737 23.5394 62.0727 23.3719 61.9486 23.2111C61.8244 23.0502 61.6853 22.9185 61.5312 22.8158C61.3771 22.7131 61.2093 22.6464 61.0277 22.6157C60.8461 22.585 60.6558 22.6141 60.4569 22.7031C60.2641 22.7893 60.1171 22.911 60.0158 23.0682C59.9145 23.2254 59.8508 23.3956 59.8246 23.579C59.7984 23.7623 59.8038 23.9538 59.8409 24.1536C59.878 24.3533 59.9355 24.5402 60.0134 24.7143C60.0968 24.9008 60.1986 25.066 60.3189 25.2099C60.4392 25.3538 60.5605 25.4749 60.6828 25.5732C60.8051 25.6714 60.9148 25.7417 61.0121 25.784C61.1093 25.8263 61.1735 25.8405 61.2046 25.8266L61.2885 25.7891C61.3258 25.7724 61.3524 25.7568 61.3683 25.7422L61.4794 25.8156L60.598 27.2729L60.4827 27.1902C60.526 27.1037 60.538 27.0386 60.5185 26.9951C60.5074 26.9702 60.4495 26.9159 60.3449 26.8321C60.2403 26.7484 60.112 26.6323 59.9598 26.484C59.8077 26.3357 59.6519 26.1498 59.4923 25.9265C59.3328 25.7032 59.1863 25.4423 59.0528 25.1438C58.8999 24.8019 58.7847 24.4524 58.7071 24.0955C58.6295 23.7385 58.6161 23.3957 58.6669 23.0671C58.7177 22.7385 58.842 22.4368 59.0398 22.1618C59.2376 21.8868 59.5293 21.6631 59.9147 21.4908C60.294 21.3212 60.652 21.2543 60.9889 21.2902C61.3257 21.3261 61.6351 21.4339 61.9169 21.6138C62.1988 21.7936 62.4515 22.0294 62.6752 22.321C62.8989 22.6126 63.0872 22.9294 63.2401 23.2714C63.3318 23.4766 63.4037 23.6831 63.4557 23.8912C63.5077 24.0992 63.5512 24.2924 63.5861 24.4707C63.6211 24.649 63.6479 24.8049 63.6666 24.9383C63.6852 25.0717 63.7056 25.1633 63.7279 25.213C63.7418 25.2441 63.7636 25.2679 63.7934 25.2845C63.8231 25.301 63.8501 25.3113 63.8744 25.3154L63.8871 25.444L62.2253 25.3814Z"/>
<path d="M60.6809 28.7391C60.6077 28.755 60.5669 28.7918 60.5584 28.8493C60.55 28.9069 60.5512 28.9764 60.5618 29.0577L60.442 29.0836L60.0306 27.1868L60.1504 27.1608C60.1743 27.2392 60.2021 27.3029 60.2336 27.3518C60.2651 27.4007 60.3175 27.4172 60.3907 27.4014L64.1844 26.5784C64.2577 26.5625 64.2985 26.5258 64.3069 26.4682C64.3153 26.4107 64.3142 26.3412 64.3035 26.2599L64.4233 26.2339L64.8348 28.1308L64.715 28.1568C64.691 28.0783 64.6632 28.0147 64.6317 27.9658C64.6002 27.9169 64.5478 27.9003 64.4746 27.9162L63.2167 28.1891L63.6953 30.3954L64.9532 30.1226C65.0264 30.1067 65.0673 30.07 65.0757 30.0124C65.0841 29.9548 65.083 29.8854 65.0723 29.8041L65.1921 29.7781L65.6036 31.6749L65.4838 31.7009C65.4598 31.6225 65.432 31.5588 65.4005 31.5099C65.369 31.461 65.3166 31.4445 65.2434 31.4604L61.4497 32.2833C61.3765 32.2992 61.3357 32.3359 61.3272 32.3935C61.3188 32.4511 61.3199 32.5205 61.3306 32.6018L61.2108 32.6278L60.7993 30.7309L60.9191 30.7049C60.9431 30.7834 60.9709 30.847 61.0024 30.896C61.0339 30.9449 61.0863 30.9614 61.1595 30.9455L62.677 30.6163L62.1984 28.41L60.6809 28.7391Z"/>
<path d="M61.5024 37.8224C61.4275 37.8224 61.3798 37.8496 61.3593 37.904C61.3388 37.9585 61.3252 38.0266 61.3183 38.1083L61.1957 38.1082L61.1976 36.2183L61.3202 36.2184C61.3201 36.2729 61.3268 36.3359 61.3404 36.4074C61.3539 36.4789 61.3914 36.5147 61.4527 36.5148C61.514 36.5148 61.6281 36.44 61.7951 36.2904C61.9621 36.1407 62.1683 35.9485 62.4137 35.7138C62.6592 35.4791 62.9335 35.2155 63.2369 34.9229C63.5403 34.6304 63.8623 34.3412 64.2032 34.0555L64.1827 34.0351L61.5062 34.0324C61.4313 34.0323 61.3836 34.0578 61.3631 34.1089C61.3426 34.1599 61.329 34.2229 61.3221 34.2978L61.1995 34.2977L61.2012 32.5508L61.3238 32.551C61.3306 32.6191 61.3441 32.6787 61.3645 32.7298C61.3849 32.7809 61.4325 32.8065 61.5075 32.8065L65.3894 32.8104C65.4643 32.8105 65.512 32.7833 65.5325 32.7288C65.553 32.6744 65.5667 32.6097 65.5736 32.5348L65.6962 32.5349L65.6937 34.9662L65.5711 34.9661C65.5644 34.9184 65.5508 34.8707 65.5304 34.8231C65.51 34.7754 65.4624 34.7515 65.3875 34.7514C65.3739 34.7514 65.304 34.8075 65.1779 34.9198C65.0518 35.032 64.8933 35.1766 64.7024 35.3534C64.5115 35.5303 64.3002 35.7276 64.0685 35.9453C63.8367 36.163 63.6049 36.3807 63.3731 36.5984L65.3856 36.6004C65.4605 36.6005 65.5082 36.5733 65.5287 36.5189C65.5492 36.4644 65.5629 36.3963 65.5698 36.3146L65.6924 36.3147L65.6906 38.1127L65.568 38.1126C65.5613 38.0308 65.5477 37.9627 65.5273 37.9082C65.507 37.8537 65.4593 37.8264 65.3844 37.8263L61.5024 37.8224Z"/>
<path d="M64.0703 41.1321C64.1092 40.9454 64.1177 40.7628 64.0958 40.5843C64.0739 40.4058 64.0244 40.2425 63.9475 40.0943C63.8705 39.9461 63.766 39.8217 63.6339 39.7211C63.5019 39.6205 63.3425 39.5508 63.1558 39.5119C62.9691 39.473 62.7951 39.4732 62.6339 39.5127C62.4726 39.5521 62.3271 39.6244 62.1973 39.7295C62.0676 39.8347 61.957 39.9647 61.8656 40.1195C61.7742 40.2744 61.709 40.4452 61.6701 40.6319C61.6298 40.8252 61.621 41.0095 61.6436 41.1846C61.6663 41.3598 61.716 41.5215 61.793 41.6697C61.8699 41.8179 61.9744 41.9423 62.1065 42.0429C62.2386 42.1434 62.398 42.2132 62.5847 42.2521C62.7714 42.291 62.9453 42.2907 63.1066 42.2513C63.2679 42.2119 63.4134 42.1396 63.5431 42.0344C63.6729 41.9293 63.7831 41.801 63.8738 41.6494C63.9645 41.4979 64.03 41.3254 64.0703 41.1321ZM65.1304 41.353C65.0651 41.6664 64.9561 41.9724 64.8034 42.271C64.6508 42.5696 64.456 42.8282 64.2191 43.0467C63.9823 43.2651 63.7039 43.4245 63.3838 43.5248C63.0638 43.625 62.7071 43.6342 62.3137 43.5522C61.9137 43.4688 61.5887 43.3176 61.3387 43.0985C61.0886 42.8795 60.9004 42.6228 60.7739 42.3286C60.6474 42.0344 60.5771 41.7206 60.5631 41.3873C60.5491 41.0539 60.5747 40.7305 60.6401 40.4172C60.7054 40.1038 60.811 39.7971 60.957 39.4971C61.103 39.1971 61.2928 38.9375 61.5263 38.7183C61.7598 38.4992 62.0349 38.3391 62.3516 38.2381C62.6683 38.1372 63.0267 38.1284 63.4268 38.2118C63.8201 38.2937 64.1435 38.4446 64.3968 38.6644C64.6501 38.8841 64.8417 39.1415 64.9716 39.4364C65.1014 39.7313 65.1767 40.0461 65.1974 40.3809C65.218 40.7156 65.1957 41.0397 65.1304 41.353Z"/>
<path d="M63.9105 44.6915C63.9798 44.72 64.0342 44.713 64.0739 44.6704C64.1135 44.6279 64.1508 44.5732 64.1856 44.5066L64.299 44.5533L63.5707 46.3194L63.4574 46.2727C63.4796 46.2008 63.4911 46.1374 63.4916 46.0824C63.4922 46.0274 63.4579 45.9856 63.3886 45.957L60.4798 44.7575L59.4127 47.3452C59.3971 47.383 59.3957 47.4266 59.4085 47.4761C59.4212 47.5256 59.478 47.5711 59.5787 47.6126L59.532 47.7259L58.1248 47.1457L58.1715 47.0323C58.2723 47.0739 58.3399 47.0796 58.3743 47.0496C58.4088 47.0197 58.4338 46.9858 58.4494 46.948L60.1435 42.8398L60.2568 42.8865C60.2346 42.9583 60.2225 43.0233 60.2206 43.0815C60.2187 43.1397 60.2524 43.183 60.3217 43.2116L63.9105 44.6915Z"/>
<path d="M59.9551 51.0655C60.0595 50.9058 60.134 50.739 60.1787 50.5648C60.2235 50.3906 60.237 50.2205 60.2195 50.0544C60.2019 49.8883 60.15 49.7344 60.0638 49.5925C59.9775 49.4507 59.8545 49.3276 59.6949 49.2232C59.5353 49.1189 59.3732 49.0556 59.2087 49.0335C59.0442 49.0114 58.8823 49.0256 58.7231 49.0761C58.564 49.1267 58.4136 49.2073 58.272 49.3182C58.1303 49.429 58.0074 49.5642 57.903 49.7238C57.7949 49.8891 57.7195 50.0575 57.6766 50.2288C57.6338 50.4001 57.6211 50.5688 57.6387 50.7349C57.6562 50.901 57.7081 51.0549 57.7944 51.1968C57.8807 51.3386 58.0036 51.4617 58.1632 51.5661C58.3228 51.6704 58.4849 51.7337 58.6495 51.7558C58.814 51.7779 58.9758 51.7637 59.135 51.7132C59.2942 51.6626 59.4436 51.5834 59.5834 51.4754C59.7232 51.3674 59.8471 51.2308 59.9551 51.0655ZM60.8615 51.658C60.6863 51.9259 60.4732 52.171 60.2221 52.3934C59.971 52.6157 59.6953 52.7853 59.395 52.9023C59.0948 53.0193 58.7774 53.0661 58.4428 53.0426C58.1083 53.0192 57.7728 52.8975 57.4365 52.6776C57.0945 52.454 56.8471 52.1946 56.6943 51.8994C56.5414 51.6042 56.4598 51.2966 56.4494 50.9765C56.4389 50.6564 56.488 50.3387 56.5967 50.0232C56.7053 49.7077 56.8472 49.416 57.0223 49.1481C57.1975 48.8801 57.4078 48.6332 57.6532 48.4071C57.8986 48.1811 58.17 48.0086 58.4674 47.8898C58.7648 47.7709 59.0793 47.7223 59.411 47.7439C59.7427 47.7655 60.0796 47.8881 60.4216 48.1117C60.758 48.3315 61.004 48.59 61.1596 48.8871C61.3153 49.1841 61.3998 49.4936 61.4131 49.8156C61.4263 50.1375 61.3815 50.4581 61.2786 50.7773C61.1757 51.0965 61.0367 51.3901 60.8615 51.658Z"/>
<path d="M52.9511 55.5389C52.9026 55.4912 52.8469 55.4604 52.7842 55.4465C52.7215 55.4326 52.6686 55.4475 52.6257 55.4912L52.5612 55.5568L52.4738 55.4709C52.53 55.297 52.6018 55.1049 52.6891 54.8947C52.7763 54.6844 52.8816 54.468 53.0048 54.2454C53.1281 54.0228 53.2671 53.806 53.4218 53.5952C53.5764 53.3844 53.7445 53.1866 53.9258 53.002C54.2027 52.7203 54.4872 52.4891 54.7794 52.3083C55.0716 52.1276 55.3668 52.019 55.6651 51.9827C55.9634 51.9464 56.2623 51.9823 56.5618 52.0904C56.8613 52.1986 57.1544 52.3935 57.441 52.6751C57.7276 52.9567 57.9216 53.2524 58.0231 53.5622C58.1245 53.8719 58.1537 54.1823 58.1107 54.4933C58.0676 54.8043 57.9656 55.1074 57.8044 55.4026C57.6432 55.6977 57.4409 55.9692 57.1975 56.2169C57.0161 56.4015 56.8393 56.5596 56.6671 56.6911C56.4949 56.8227 56.3369 56.9324 56.1932 57.0204C56.0495 57.1083 55.9297 57.1792 55.8338 57.233C55.738 57.2868 55.6781 57.3259 55.6543 57.3501C55.6161 57.389 55.5983 57.4217 55.601 57.4481C55.6036 57.4746 55.6051 57.5071 55.6054 57.5456L55.5049 57.6187L54.9154 56.2947L55.0451 56.2502L55.0961 56.3003C55.1398 56.3433 55.2133 56.3511 55.3166 56.3237C55.4199 56.2963 55.5351 56.2495 55.6621 56.1834C55.7892 56.1173 55.9149 56.0379 56.0393 55.9453C56.1637 55.8527 56.2689 55.7627 56.3548 55.6753C56.5028 55.5247 56.6266 55.3647 56.7262 55.1953C56.8259 55.0258 56.8858 54.8532 56.9059 54.6772C56.926 54.5012 56.9052 54.3256 56.8435 54.1504C56.7818 53.9752 56.6659 53.804 56.4959 53.6369C56.321 53.4651 56.143 53.3475 55.9618 53.284C55.7807 53.2206 55.5999 53.2005 55.4195 53.2238C55.2391 53.247 55.0627 53.3075 54.8902 53.4054C54.7176 53.5032 54.5526 53.6323 54.3951 53.7926C54.2758 53.914 54.1673 54.0414 54.0697 54.1747C53.9722 54.308 53.8856 54.452 53.8099 54.6068L54.2835 55.0722L54.8849 54.4601C54.9422 54.4018 54.9562 54.3439 54.9268 54.2864C54.8974 54.2288 54.8681 54.1857 54.8389 54.1571L54.9249 54.0697L55.8284 54.9575L55.7425 55.045C55.7133 55.0163 55.6697 54.9878 55.6117 54.9594C55.5536 54.931 55.496 54.946 55.4387 55.0043L53.9494 56.5199L52.9511 55.5389Z"/>
<path d="M49.6776 56.8948C49.6355 56.8328 49.589 56.8068 49.5381 56.8166C49.4872 56.8265 49.4401 56.8421 49.3968 56.8632L49.328 56.7618L50.8151 55.7514L50.884 55.8528C50.8484 55.8852 50.8166 55.9232 50.7887 55.9669C50.7607 56.0106 50.7678 56.0635 50.8099 56.1254L51.5505 57.2154L54.6514 58.3073C54.6969 58.3258 54.7503 58.3225 54.8114 58.2974C54.8726 58.2723 54.9201 58.2483 54.9539 58.2253L55.0228 58.3267L53.2061 59.5611L53.1372 59.4597C53.171 59.4367 53.209 59.4048 53.2511 59.3638C53.2932 59.3228 53.299 59.2798 53.2684 59.2347C53.2492 59.2065 53.1871 59.1726 53.0819 59.1329C52.9767 59.0932 52.8483 59.0467 52.6967 58.9932C52.5451 58.9398 52.3803 58.885 52.2023 58.829C52.0242 58.773 51.8547 58.7173 51.6936 58.6621C51.7017 58.7224 51.7046 58.8357 51.7023 59.002C51.7 59.1682 51.6973 59.343 51.6941 59.5262C51.691 59.7095 51.6901 59.8748 51.6914 60.0221C51.6927 60.1695 51.7029 60.2572 51.7221 60.2854C51.7527 60.3304 51.7934 60.3419 51.8442 60.3197C51.895 60.2975 51.9345 60.2769 51.9627 60.2577L52.0316 60.3591L50.3585 61.4959L50.2896 61.3945C50.3178 61.3754 50.3534 61.343 50.3965 61.2972C50.4395 61.2515 50.4608 61.2041 50.4604 61.155L50.4412 58.0186L49.6776 56.8948Z"/>
</g>
<g fill="#23048c" opacity="1" stroke="#fefefe" stroke-linecap="butt" stroke-linejoin="round" stroke-width="0.197539">
<path d="M28.2636 64.1134C28.2577 64.143 28.2532 64.1697 28.2503 64.1934C28.2473 64.2171 28.2458 64.2349 28.2458 64.2467C28.2458 64.3534 28.2977 64.4408 28.4014 64.5089C28.5051 64.5771 28.6251 64.6319 28.7614 64.6734C28.8977 64.7149 29.034 64.743 29.1703 64.7578C29.3066 64.7727 29.4073 64.7801 29.4725 64.7801C29.7274 64.7801 29.8948 64.7238 29.9748 64.6112C30.0548 64.4986 30.0948 64.3297 30.0948 64.1045L30.0948 61.3666C30.0948 61.3251 30.0814 61.291 30.0548 61.2644C30.0281 61.2377 29.9585 61.2184 29.8459 61.2066L29.8459 61.0999L31.6771 61.0999L31.6771 61.2066C31.5645 61.2184 31.4948 61.2377 31.4682 61.2644C31.4415 61.291 31.4282 61.3251 31.4282 61.3666L31.4282 64.3267C31.4282 64.6408 31.3763 64.8956 31.2726 65.0912C31.1689 65.2868 31.0267 65.4379 30.8459 65.5445C30.6652 65.6512 30.4533 65.7208 30.2103 65.7534C29.9674 65.786 29.7066 65.8023 29.4281 65.8023C29.2147 65.8023 29.0192 65.7905 28.8414 65.7668C28.6636 65.7431 28.508 65.7134 28.3747 65.6779C28.2414 65.6423 28.1332 65.6097 28.0503 65.5801C27.9673 65.5505 27.9139 65.5357 27.8902 65.5357C27.8428 65.5357 27.8088 65.5445 27.788 65.5623C27.7673 65.5801 27.7332 65.6097 27.6858 65.6512L27.5525 65.5712L28.1569 64.0778L28.2636 64.1134Z"/>
<path d="M37.7395 64.6912C37.7869 64.6912 37.8225 64.6749 37.8462 64.6423C37.8699 64.6097 37.8877 64.543 37.8995 64.4423L38.0062 64.4423L38.0062 65.9801L37.8995 65.9801C37.8877 65.8853 37.8699 65.8275 37.8462 65.8068C37.8225 65.786 37.7869 65.7757 37.7395 65.7757L33.0993 65.7757L33.0993 65.669C33.2119 65.6571 33.2816 65.6379 33.3082 65.6112C33.3349 65.5845 33.3482 65.5505 33.3482 65.509L33.3482 61.3666C33.3482 61.3251 33.3349 61.291 33.3082 61.2644C33.2816 61.2377 33.2119 61.2184 33.0993 61.2066L33.0993 61.0999L34.9305 61.0999L34.9305 61.2066C34.8179 61.2184 34.7483 61.2377 34.7216 61.2644C34.695 61.291 34.6816 61.3251 34.6816 61.3666L34.6816 64.6912L37.7395 64.6912Z"/>
<path d="M43.2864 62.7622C43.2923 62.7444 43.2968 62.7252 43.2997 62.7044C43.3027 62.6837 43.3042 62.6585 43.3042 62.6289C43.3042 62.5815 43.2642 62.5341 43.1842 62.4866C43.1042 62.4392 42.9975 62.3963 42.8642 62.3578C42.7308 62.3192 42.5782 62.2866 42.4064 62.26C42.2345 62.2333 42.0538 62.22 41.8641 62.22C41.6863 62.22 41.4997 62.2407 41.3041 62.2822C41.1085 62.3237 40.9293 62.3918 40.7663 62.4866C40.6033 62.5815 40.47 62.7074 40.3663 62.8644C40.2626 63.0215 40.2107 63.2126 40.2107 63.4378C40.2107 63.663 40.2626 63.8541 40.3663 64.0112C40.47 64.1682 40.6033 64.2941 40.7663 64.3889C40.9293 64.4838 41.1085 64.5519 41.3041 64.5934C41.4997 64.6349 41.6863 64.6556 41.8641 64.6556C41.9412 64.6556 42.0627 64.6423 42.2286 64.6156C42.3945 64.589 42.5605 64.5519 42.7264 64.5045C42.8923 64.4571 43.039 64.4038 43.1664 64.3445C43.2938 64.2852 43.3575 64.223 43.3575 64.1578C43.3575 64.1282 43.3516 64.1045 43.3397 64.0867C43.3279 64.0689 43.316 64.0482 43.3042 64.0245L43.402 63.9623L44.3176 65.3579L44.2109 65.4201C44.199 65.3905 44.1827 65.3712 44.162 65.3623C44.1413 65.3534 44.1161 65.349 44.0864 65.349C44.045 65.349 43.962 65.3742 43.8375 65.4245C43.7131 65.4749 43.5516 65.5282 43.3531 65.5845C43.1545 65.6408 42.9219 65.6912 42.6553 65.7357C42.3886 65.7801 42.0893 65.8023 41.7575 65.8023C41.4019 65.8023 41.0493 65.7564 40.6996 65.6645C40.35 65.5727 40.0359 65.4275 39.7574 65.229C39.4788 65.0304 39.2537 64.7816 39.0818 64.4823C38.9099 64.183 38.824 63.8348 38.824 63.4378C38.824 63.0407 38.9099 62.6926 39.0818 62.3933C39.2537 62.094 39.4788 61.8451 39.7574 61.6466C40.0359 61.4481 40.35 61.2985 40.6996 61.1977C41.0493 61.097 41.4019 61.0466 41.7575 61.0466C42.113 61.0466 42.4197 61.0658 42.6775 61.1044C42.9353 61.1429 43.1531 61.1859 43.3309 61.2333C43.5027 61.2807 43.636 61.3207 43.7309 61.3533C43.8257 61.3859 43.8968 61.4022 43.9442 61.4022C43.9975 61.4022 44.042 61.3785 44.0775 61.331L44.1753 61.3577L43.3753 62.8244L43.2864 62.7622Z"/>
</g>
<path d="M25.1465 58.6592L25.9373 60.2615L27.7055 60.5185L26.426 61.7657L26.7281 63.5267L25.1465 62.6953L23.565 63.5267L23.867 61.7657L22.5875 60.5185L24.3557 60.2615L25.1465 58.6592Z" fill="#ce0774" fill-rule="nonzero" opacity="0.996851" stroke="none"/>
<path d="M46.7789 58.5554L47.5697 60.1577L49.3379 60.4146L48.0584 61.6618L48.3605 63.4229L46.7789 62.5914L45.1974 63.4229L45.4994 61.6618L44.2199 60.4146L45.9882 60.1577L46.7789 58.5554Z" fill="#ce0774" fill-rule="nonzero" opacity="0.996851" stroke="none"/>
</g>
</g>
</svg>
