<?xml version="1.0" encoding="utf-8"?>
<svg x="0pt" y="0pt" width="283.465pt" height="170.079pt" viewBox="0 0 283.465 170.079" xmlns="http://www.w3.org/2000/svg" xmlns:xlink="http://www.w3.org/1999/xlink">
  <!--Generated by AMDN-->
  <g id="Layer_4">
    <path id="Path" style="fill:#aaaaaa;fill-opacity:1;fill-rule:nonzero;opacity:1;stroke:none;" d="M96.9924,97.4261 C91.4311,94.4108,78.7485,89.7266,72.7291,91.4578 C70.3031,92.1555,66.2055,96.2119,63.4958,99.1296 C61.9253,100.821,61.0837,105.352,62.2186,107.449 C62.2599,107.526,62.2959,107.604,62.3539,107.668 C62.3539,107.668,68.6772,114.675,68.6772,114.675 C69.4631,115.546,70.4896,116.162,71.6251,116.447 C71.7295,116.473,71.8371,116.48,71.9447,116.474 C73.5807,116.392,86.7325,115.796,90.8245,117.596 C92.6521,118.399,96.046,122.187,97.6021,123.998 C98.0357,124.503,97.9039,125.286,97.3417,125.642 C95.0119,127.118,89.5882,130.653,87.9746,132.58 C86.4219,134.435,83.9068,140.142,82.7416,142.892 C82.4377,143.609,82.9698,144.408,83.7486,144.412 C83.7486,144.412,102.544,144.512,102.544,144.512 C102.959,144.514,103.337,144.28,103.523,143.909 C104.208,142.544,105.904,139.268,106.909,138.26 C107.911,137.255,110.996,135.61,112.623,134.778 C113.18,134.493,113.385,133.801,113.071,133.26 C113.071,133.26,113.07,133.258,113.07,133.258 C112.501,132.278,113.617,131.188,114.583,131.78 C114.583,131.78,115.196,132.156,115.196,132.156 C115.476,132.328,115.663,132.617,115.706,132.942 C115.895,134.367,116.458,138.349,117.015,139.764 C117.566,141.163,119.836,144.413,120.675,145.593 C120.873,145.87,121.192,146.037,121.533,146.048 C121.533,146.048,138.447,146.594,138.447,146.594 C139.186,146.618,139.734,145.915,139.531,145.204 C139.531,145.204,136.89,135.961,136.89,135.961 C136.666,135.177,137.351,134.433,138.151,134.592 C142.045,135.365,151.361,137.146,155.052,137.255 C161.333,137.439,178.79,135.001,182.28,134.502 C182.659,134.448,183.039,134.597,183.28,134.895 C183.28,134.895,191.746,145.335,191.746,145.335 C191.946,145.583,192.245,145.73,192.563,145.739 C192.563,145.739,211.409,146.264,211.409,146.264 C212.117,146.283,212.661,145.632,212.51,144.939 C211.991,142.567,210.879,137.759,210.008,135.914 C209.412,134.654,207.236,131.8,206.028,130.256 C205.606,129.716,206.956,128.072,207.567,127.761 C207.567,127.761,210.89,126.317,210.89,126.317 C211.043,126.238,214.93,125.254,214.93,125.254 C216.573,125.252,223.39,123.687,223.39,123.687 C223.39,123.687,216.291,120.252,214.476,120.053 C214.322,120.036,208.34,118.543,208.193,118.591 C205.715,119.397,182.977,125.074,174.881,125.633 C165.193,126.302,146.821,124.924,137.623,121.767 C130.688,119.387,118.917,114.497,112.942,110.235 C109.302,107.638,101.273,99.7467,96.9924,97.4261 z"/>
    <path id="Path-1" style="fill:#aaaaaa;fill-opacity:1;fill-rule:nonzero;opacity:1;stroke:none;" d="M163.742,138.354 C162.471,138.503,161.825,139.606,162.241,140.816 C162.362,141.167,163.596,142.299,163.562,142.498 C163.53,142.685,160.735,144.867,160.499,145.08 C159.818,145.697,162.103,145.993,163.022,145.981 C163.022,145.981,182.626,145.541,182.626,145.541 C182.626,145.541,180.39,140.213,180.39,140.213 C180.39,140.213,179.268,136.745,179.268,136.745 C179.268,136.745,163.742,138.354,163.742,138.354 z"/>
    <path id="Path-2" style="fill:#ffffff;fill-opacity:1;fill-rule:nonzero;opacity:1;stroke:none;" d="M72.6055,101.036 C72.8418,99.3224,74.3874,99.0144,75.323,98.968 C76.756,98.8969,80.5808,100.031,80.5808,100.031 C80.5808,100.031,78.7238,102.786,77.5679,103.34 C76.747,103.733,74.4798,103.797,73.6689,103.281 C73.1712,102.964,72.5197,101.658,72.6055,101.036 z"/>
  </g>
  <g id="Layer_3">
    <path id="Path-3" style="fill:#aaaaaa;fill-opacity:1;fill-rule:nonzero;opacity:0.36;stroke:none;" d="M106.029,99.511 C106.029,99.511,113.954,90.9255,113.954,90.9255"/>
    <path id="Path-4" style="fill:#aaaaaa;fill-opacity:1;fill-rule:nonzero;opacity:1;stroke:none;" d="M157.552,72.5697 C131.775,73.1198,121.872,84.8298,111.184,96.304 C110.573,96.9602,107.49,100.233,107.49,100.233 C107.49,100.233,114.217,109.295,126.712,114.292 C138.982,119.201,149.902,121.028,160.314,121.938 C194.588,124.933,207.954,114.606,207.954,114.606 C207.954,114.606,204.628,97.7186,191.114,86.2083 C179.412,76.2421,165.833,72.393,157.552,72.5697 z"/>
    <path id="Path-5" style="fill:#aaaaaa;fill-opacity:1;fill-rule:nonzero;opacity:1;stroke:#ffffff;stroke-linecap:butt;stroke-linejoin:miter;stroke-miterlimit:10;stroke-opacity:1;stroke-width:2.5;" d="M116.404,89.2612 C116.404,89.2612,129.49,102.861,129.49,102.861 C129.49,102.861,145.856,93.3392,145.856,93.3392 C145.856,93.3392,160.423,109.075,160.423,109.075 C160.423,109.075,176.846,99.4549,176.846,99.4549 C176.846,99.4549,191.62,115.191,191.62,115.191 C191.62,115.191,206.692,105.949,206.692,105.949"/>
    <path id="Path-6" style="fill:#aaaaaa;fill-opacity:1;fill-rule:nonzero;opacity:1;stroke:#ffffff;stroke-linecap:butt;stroke-linejoin:miter;stroke-miterlimit:10;stroke-opacity:1;stroke-width:2.5;" d="M148.055,70.8008 C148.055,70.8008,145.856,93.4767,145.856,93.4767"/>
    <path id="Path-7" style="fill:#aaaaaa;fill-opacity:1;fill-rule:nonzero;opacity:1;stroke:#ffffff;stroke-linecap:butt;stroke-linejoin:miter;stroke-miterlimit:10;stroke-opacity:1;stroke-width:2.5;" d="M128.815,115.465 C128.815,115.465,129.777,102.547,129.777,102.547"/>
    <path id="Path-8" style="fill:#aaaaaa;fill-opacity:1;fill-rule:nonzero;opacity:1;stroke:#ffffff;stroke-linecap:butt;stroke-linejoin:miter;stroke-miterlimit:10;stroke-opacity:1;stroke-width:2.5;" d="M159.805,122.199 C159.805,122.199,161.11,109.144,161.11,109.144"/>
    <path id="Path-9" style="fill:#aaaaaa;fill-opacity:1;fill-rule:nonzero;opacity:1;stroke:#ffffff;stroke-linecap:butt;stroke-linejoin:miter;stroke-miterlimit:10;stroke-opacity:1;stroke-width:2.5;" d="M179.663,73.1371 C179.663,73.1371,177.533,99.18,177.533,99.18"/>
    <path id="Path-10" style="fill:#aaaaaa;fill-opacity:1;fill-rule:nonzero;opacity:1;stroke:#ffffff;stroke-linecap:butt;stroke-linejoin:miter;stroke-miterlimit:10;stroke-opacity:1;stroke-width:2.5;" d="M191.226,121.855 C191.226,121.855,191.689,114.847,191.689,114.847"/>
  </g>
</svg>
