<?xml version="1.0" encoding="UTF-8" standalone="no"?>
<!DOCTYPE svg PUBLIC "-//W3C//DTD SVG 1.1//EN" "http://www.w3.org/Graphics/SVG/1.1/DTD/svg11.dtd">
<!-- Created with Vectornator (http://vectornator.io/) -->
<svg height="100%" stroke-miterlimit="10" style="fill-rule:nonzero;clip-rule:evenodd;stroke-linecap:round;stroke-linejoin:round;" version="1.1" viewBox="0 0 400 240" width="100%" xml:space="preserve" xmlns="http://www.w3.org/2000/svg" xmlns:xlink="http://www.w3.org/1999/xlink">
<defs/>
<g id="レイヤー-1">
<path d="M310 72L200 32L90 72" fill="#ffffff" fill-opacity="0.00217391" fill-rule="nonzero" opacity="1" stroke="#000000" stroke-linecap="butt" stroke-linejoin="round" stroke-width="0.5"/>
<path d="M198.613 30.4891C198.587 30.7234 198.527 30.8862 198.434 30.9773C198.34 31.0685 198.191 31.1141 197.988 31.1141C197.77 31.1141 197.607 31.0503 197.5 30.9227C197.393 30.7951 197.332 30.588 197.316 30.3016L197.215 28.4891L197.215 28.3484C197.215 28.0984 197.263 27.9214 197.359 27.8172C197.456 27.713 197.616 27.6609 197.84 27.6609C198.152 27.6609 198.376 27.8849 198.512 28.3328C198.574 28.5568 198.634 28.726 198.691 28.8406C198.874 29.2052 199.161 29.4865 199.555 29.6844C199.948 29.8823 200.418 29.9812 200.965 29.9812C201.637 29.9812 202.182 29.8224 202.602 29.5047C203.021 29.187 203.23 28.7807 203.23 28.2859C203.23 27.8745 203.102 27.5437 202.844 27.2937C202.586 27.0437 202.21 26.8823 201.715 26.8094L200.559 26.6531C199.48 26.5021 198.694 26.2182 198.199 25.8016C197.704 25.3849 197.457 24.799 197.457 24.0437C197.457 23.2469 197.786 22.5776 198.445 22.0359C199.104 21.4943 199.926 21.2234 200.91 21.2234C201.197 21.2234 201.499 21.2612 201.816 21.3367C202.134 21.4122 202.493 21.5307 202.895 21.6922C202.905 21.5411 202.947 21.437 203.02 21.3797C203.092 21.3224 203.217 21.2937 203.395 21.2937C203.624 21.2937 203.783 21.3276 203.871 21.3953C203.96 21.463 204.014 21.6245 204.035 21.8797L204.145 23.5125L204.145 23.5906C204.145 23.7729 204.092 23.9148 203.988 24.0164C203.884 24.118 203.738 24.1687 203.551 24.1687C203.275 24.1687 203.061 23.976 202.91 23.5906C202.837 23.3719 202.764 23.2078 202.691 23.0984C202.52 22.838 202.272 22.6375 201.949 22.4969C201.626 22.3562 201.259 22.2859 200.848 22.2859C200.217 22.2859 199.706 22.4422 199.312 22.7547C198.919 23.0672 198.723 23.476 198.723 23.9812C198.723 24.3771 198.87 24.6896 199.164 24.9187C199.458 25.1479 199.908 25.3042 200.512 25.3875L201.762 25.5437C202.668 25.6635 203.35 25.9409 203.809 26.3758C204.267 26.8107 204.496 27.3979 204.496 28.1375C204.496 29.0125 204.171 29.7143 203.52 30.243C202.868 30.7716 201.999 31.0359 200.91 31.0359C200.535 31.0359 200.163 30.9917 199.793 30.9031C199.423 30.8146 199.03 30.6766 198.613 30.4891Z" fill="#141414" opacity="1" stroke="none"/>
<g fill="#141414" opacity="1" stroke="none">
<path d="M83.0703 89.6609L83.4688 89.6609L84.0469 89.6609C84.3281 89.6609 84.5286 89.7026 84.6484 89.7859C84.7682 89.8693 84.8281 90.0073 84.8281 90.2C84.8281 90.4135 84.7721 90.5607 84.6602 90.6414C84.5482 90.7221 84.3021 90.7625 83.9219 90.7625L81.9688 90.7625L81.6016 90.7625C81.4141 90.7625 81.2734 90.7156 81.1797 90.6219C81.0859 90.5281 81.0391 90.3875 81.0391 90.2C81.0391 89.9917 81.0924 89.8497 81.1992 89.7742C81.306 89.6987 81.513 89.6609 81.8203 89.6609L81.9688 89.6609L81.9688 82.6219L81.7734 82.6219C81.3359 82.6219 81.0404 82.5802 80.8867 82.4969C80.7331 82.4135 80.6562 82.2677 80.6562 82.0594C80.6562 81.8667 80.7227 81.7273 80.8555 81.6414C80.9883 81.5555 81.2031 81.5125 81.5 81.5125C81.5 81.5125 81.5521 81.5099 81.6562 81.5047C81.7604 81.4995 81.8646 81.4969 81.9688 81.4969L82.7031 81.4969C82.9427 81.4969 83.1107 81.5242 83.207 81.5789C83.3034 81.6336 83.4167 81.7729 83.5469 81.9969L87.4844 88.7938L87.4844 82.6219L87.1797 82.6219L86.625 82.6219C86.3438 82.6219 86.1393 82.5763 86.0117 82.4852C85.8841 82.394 85.8203 82.2521 85.8203 82.0594C85.8203 81.8458 85.875 81.6987 85.9844 81.618C86.0938 81.5372 86.3229 81.4969 86.6719 81.4969L88.5391 81.4969L88.9141 81.4969C89.1016 81.4969 89.2409 81.5438 89.332 81.6375C89.4232 81.7313 89.4688 81.8719 89.4688 82.0594C89.4688 82.2677 89.4128 82.4135 89.3008 82.4969C89.1888 82.5802 88.9844 82.6219 88.6875 82.6219L88.5938 82.6219L88.5938 90.4891C88.5938 90.6401 88.5586 90.7443 88.4883 90.8016C88.418 90.8589 88.2552 90.8875 88 90.8875C87.7448 90.8875 87.5872 90.8732 87.5273 90.8445C87.4674 90.8159 87.3672 90.6818 87.2266 90.4422L83.0703 83.2781L83.0703 89.6609Z"/>
<path d="M93.4844 82.6219L93.4844 86.2469L94.9453 86.2469C95.763 86.2469 96.375 86.0958 96.7812 85.7938C97.1875 85.4917 97.3906 85.0359 97.3906 84.4266C97.3906 83.8276 97.1862 83.3771 96.7773 83.075C96.3685 82.7729 95.7578 82.6219 94.9453 82.6219L93.4844 82.6219ZM95.1172 89.6609C95.3724 89.6609 95.5573 89.7039 95.6719 89.7898C95.7865 89.8758 95.8438 90.0125 95.8438 90.2C95.8438 90.4083 95.7891 90.5542 95.6797 90.6375C95.5703 90.7208 95.362 90.7625 95.0547 90.7625L91.2344 90.7625C91.0573 90.7625 90.9219 90.7143 90.8281 90.618C90.7344 90.5216 90.6875 90.3823 90.6875 90.2C90.6875 90.0177 90.7331 89.8823 90.8242 89.7938C90.9154 89.7052 91.0573 89.6609 91.25 89.6609L92.2578 89.6609L92.2578 82.6219L91.7109 82.6219C91.2526 82.6219 90.9674 82.5815 90.8555 82.5008C90.7435 82.4201 90.6875 82.2729 90.6875 82.0594C90.6875 81.8771 90.7344 81.7378 90.8281 81.6414C90.9219 81.5451 91.0573 81.4969 91.2344 81.4969L94.8516 81.4969C96.1172 81.4969 97.0781 81.7417 97.7344 82.2313C98.3906 82.7208 98.7188 83.4422 98.7188 84.3953C98.7188 85.3484 98.3932 86.0672 97.7422 86.5516C97.0911 87.0359 96.1276 87.2781 94.8516 87.2781L93.4844 87.2781L93.4844 89.6609L95.1172 89.6609Z"/>
</g>
<g fill="#141414" opacity="1" stroke="none">
<path d="M38.8428 224.361C39.0342 224.361 39.1738 224.394 39.2617 224.461C39.3496 224.527 39.3936 224.632 39.3936 224.777C39.3936 224.914 39.3525 225.016 39.2705 225.085C39.1885 225.153 39.0654 225.187 38.9014 225.187L36.5283 225.187L36.5283 227.144C36.5283 227.785 36.6113 228.207 36.7773 228.41C36.9434 228.613 37.2275 228.714 37.6299 228.714C37.9854 228.714 38.4111 228.611 38.9072 228.404C39.4033 228.197 39.71 228.093 39.8271 228.093C39.9365 228.093 40.0293 228.132 40.1055 228.211C40.1816 228.289 40.2197 228.384 40.2197 228.498C40.2197 228.627 40.1719 228.739 40.0762 228.835C39.9805 228.93 39.8174 229.023 39.5869 229.113C39.2041 229.265 38.8594 229.377 38.5527 229.447C38.2461 229.517 37.958 229.552 37.6885 229.552C37.2314 229.552 36.8477 229.479 36.5371 229.333C36.2266 229.186 35.9951 228.968 35.8428 228.679C35.7646 228.543 35.709 228.38 35.6758 228.193C35.6426 228.005 35.626 227.716 35.626 227.326L35.626 227.144L35.626 225.187L34.6299 225.187C34.4658 225.187 34.3467 225.155 34.2725 225.09C34.1982 225.026 34.1611 224.921 34.1611 224.777C34.1611 224.617 34.2119 224.507 34.3135 224.449C34.415 224.39 34.6318 224.361 34.9639 224.361L35.626 224.361L35.626 223.16L35.626 222.849C35.626 222.681 35.6621 222.557 35.7344 222.477C35.8066 222.397 35.9189 222.357 36.0713 222.357C36.2432 222.357 36.3623 222.406 36.4287 222.504C36.4951 222.601 36.5283 222.824 36.5283 223.171L36.5283 224.361L38.8428 224.361Z"/>
<path d="M42.2412 228.621L42.2412 222.621L42.1299 222.621C41.8643 222.621 41.6816 222.589 41.582 222.527C41.4824 222.464 41.4326 222.355 41.4326 222.199C41.4326 222.058 41.4727 221.953 41.5527 221.882C41.6328 221.812 41.749 221.777 41.9014 221.777L42.792 221.777C42.8975 221.777 42.9795 221.798 43.0381 221.841C43.0967 221.884 43.126 221.943 43.126 222.017L43.126 224.671C43.4111 224.406 43.6934 224.21 43.9727 224.083C44.252 223.956 44.542 223.892 44.8428 223.892C45.4326 223.892 45.8965 224.076 46.2344 224.443C46.5723 224.81 46.7412 225.318 46.7412 225.966L46.7412 228.621L47.0166 228.621C47.2119 228.621 47.3525 228.653 47.4385 228.717C47.5244 228.782 47.5674 228.884 47.5674 229.025C47.5674 229.166 47.5283 229.271 47.4502 229.341C47.3721 229.412 47.2549 229.447 47.0986 229.447L45.54 229.447C45.3564 229.447 45.2324 229.417 45.168 229.356C45.1035 229.296 45.0713 229.185 45.0713 229.025C45.0713 228.869 45.1113 228.762 45.1914 228.706C45.2715 228.649 45.4229 228.621 45.6455 228.621L45.8506 228.621L45.8506 226.183C45.8506 225.726 45.7471 225.378 45.54 225.137C45.333 224.897 45.0322 224.777 44.6377 224.777C44.2354 224.777 43.8828 224.912 43.5801 225.181C43.2773 225.451 43.126 225.785 43.126 226.183L43.126 228.621L43.3311 228.621C43.5654 228.621 43.7236 228.65 43.8057 228.709C43.8877 228.767 43.9287 228.873 43.9287 229.025C43.9287 229.185 43.8965 229.296 43.832 229.356C43.7676 229.417 43.6436 229.447 43.46 229.447L41.9014 229.447C41.749 229.447 41.6348 229.412 41.5586 229.341C41.4824 229.271 41.4443 229.166 41.4443 229.025C41.4443 228.869 41.4902 228.762 41.582 228.706C41.6738 228.649 41.8525 228.621 42.1182 228.621L42.2412 228.621Z"/>
<path d="M49.665 226.998C49.6963 227.56 49.8867 227.995 50.2363 228.301C50.5859 228.608 51.0635 228.761 51.6689 228.761C52.126 228.761 52.624 228.639 53.1631 228.395C53.7021 228.151 54.0283 228.029 54.1416 228.029C54.2588 228.029 54.3564 228.066 54.4346 228.14C54.5127 228.214 54.5518 228.306 54.5518 228.416C54.5518 228.529 54.5107 228.632 54.4287 228.726C54.3467 228.82 54.2158 228.912 54.0361 229.002C53.6455 229.193 53.2422 229.339 52.8262 229.441C52.4102 229.543 51.9971 229.593 51.5869 229.593C50.6963 229.593 49.9834 229.337 49.4482 228.823C48.9131 228.309 48.6455 227.629 48.6455 226.781C48.6455 225.918 48.9287 225.218 49.4951 224.683C50.0615 224.148 50.7998 223.88 51.71 223.88C52.5342 223.88 53.2178 224.13 53.7607 224.63C54.3037 225.13 54.5752 225.736 54.5752 226.447C54.5752 226.666 54.5293 226.812 54.4375 226.886C54.3457 226.961 54.0967 226.998 53.6904 226.998L53.6025 226.998L49.665 226.998ZM49.6943 226.23L53.5088 226.23C53.4502 225.765 53.2559 225.391 52.9258 225.108C52.5957 224.825 52.1904 224.683 51.71 224.683C51.1904 224.683 50.7529 224.82 50.3975 225.093C50.042 225.367 49.8076 225.746 49.6943 226.23Z"/>
<path d="M102.37 228.632C102.921 228.632 103.368 228.459 103.712 228.111C104.056 227.763 104.228 227.312 104.228 226.757C104.228 226.214 104.053 225.767 103.703 225.416C103.354 225.064 102.909 224.888 102.37 224.888C101.827 224.888 101.383 225.063 101.037 225.413C100.691 225.762 100.519 226.211 100.519 226.757C100.519 227.304 100.691 227.754 101.037 228.105C101.383 228.457 101.827 228.632 102.37 228.632ZM100.542 224.877C100.761 224.603 101.034 224.394 101.362 224.25C101.69 224.105 102.062 224.033 102.476 224.033C103.261 224.033 103.915 224.297 104.438 224.827C104.962 225.356 105.224 226.011 105.224 226.793C105.224 227.562 104.955 228.214 104.418 228.75C103.881 229.285 103.226 229.552 102.452 229.552C102.042 229.552 101.685 229.48 101.38 229.336C101.075 229.191 100.825 228.972 100.63 228.679L100.63 229.148C100.63 229.254 100.611 229.33 100.574 229.377C100.537 229.423 100.476 229.447 100.39 229.447L99.3174 229.447C99.165 229.447 99.0518 229.412 98.9775 229.341C98.9033 229.271 98.8662 229.166 98.8662 229.025C98.8662 228.869 98.9111 228.762 99.001 228.706C99.0908 228.649 99.2686 228.621 99.5342 228.621L99.6572 228.621L99.6572 222.621L99.5459 222.621C99.2803 222.621 99.0986 222.589 99.001 222.527C98.9033 222.464 98.8545 222.355 98.8545 222.199C98.8545 222.058 98.8936 221.953 98.9717 221.882C99.0498 221.812 99.165 221.777 99.3174 221.777L100.208 221.777C100.325 221.777 100.41 221.796 100.463 221.836C100.516 221.875 100.542 221.935 100.542 222.017L100.542 224.877Z"/>
<path d="M109.255 228.773C109.856 228.773 110.35 228.583 110.734 228.202C111.119 227.821 111.312 227.336 111.312 226.746C111.312 226.156 111.118 225.669 110.731 225.284C110.345 224.899 109.853 224.707 109.255 224.707C108.657 224.707 108.166 224.899 107.781 225.284C107.396 225.669 107.204 226.156 107.204 226.746C107.204 227.339 107.396 227.826 107.778 228.205C108.161 228.584 108.653 228.773 109.255 228.773ZM112.331 226.746C112.331 227.582 112.046 228.265 111.476 228.796C110.905 229.328 110.165 229.593 109.255 229.593C108.349 229.593 107.61 229.328 107.04 228.796C106.47 228.265 106.185 227.582 106.185 226.746C106.185 225.91 106.47 225.227 107.04 224.698C107.61 224.169 108.349 223.904 109.255 223.904C110.161 223.904 110.9 224.17 111.473 224.701C112.045 225.232 112.331 225.914 112.331 226.746Z"/>
<path d="M116.017 230.947L116.269 230.947C116.554 230.947 116.747 230.977 116.849 231.038C116.95 231.098 117.001 231.209 117.001 231.369C117.001 231.505 116.961 231.609 116.881 231.679C116.801 231.75 116.685 231.785 116.532 231.785L113.831 231.785C113.647 231.785 113.52 231.754 113.447 231.691C113.375 231.629 113.339 231.521 113.339 231.369C113.339 231.228 113.377 231.123 113.453 231.052C113.529 230.982 113.644 230.947 113.796 230.947L115.067 230.947L116.017 229.078L113.866 224.865C113.608 224.865 113.432 224.834 113.336 224.771C113.24 224.709 113.192 224.599 113.192 224.443C113.192 224.306 113.231 224.204 113.31 224.135C113.388 224.067 113.505 224.033 113.661 224.033L115.296 224.033C115.515 224.033 115.661 224.063 115.735 224.124C115.81 224.184 115.847 224.291 115.847 224.443C115.847 224.599 115.798 224.709 115.7 224.771C115.603 224.834 115.423 224.865 115.161 224.865L114.944 224.865L116.532 228.093L118.149 224.865L117.921 224.865C117.651 224.865 117.466 224.834 117.364 224.771C117.263 224.709 117.212 224.599 117.212 224.443C117.212 224.291 117.249 224.184 117.323 224.124C117.397 224.063 117.546 224.033 117.769 224.033L119.216 224.033C119.376 224.033 119.494 224.067 119.57 224.135C119.646 224.204 119.685 224.306 119.685 224.443C119.685 224.591 119.642 224.697 119.556 224.759C119.47 224.822 119.317 224.857 119.099 224.865L116.017 230.947Z"/>
<path d="M193.466 228.621L193.466 222.621L193.354 222.621C193.089 222.621 192.906 222.589 192.807 222.527C192.707 222.464 192.657 222.355 192.657 222.199C192.657 222.058 192.697 221.953 192.777 221.882C192.857 221.812 192.974 221.777 193.126 221.777L194.017 221.777C194.122 221.777 194.204 221.798 194.263 221.841C194.321 221.884 194.351 221.943 194.351 222.017L194.351 224.671C194.636 224.406 194.918 224.21 195.197 224.083C195.477 223.956 195.767 223.892 196.067 223.892C196.657 223.892 197.121 224.076 197.459 224.443C197.797 224.81 197.966 225.318 197.966 225.966L197.966 228.621L198.241 228.621C198.437 228.621 198.577 228.653 198.663 228.717C198.749 228.782 198.792 228.884 198.792 229.025C198.792 229.166 198.753 229.271 198.675 229.341C198.597 229.412 198.479 229.447 198.323 229.447L196.765 229.447C196.581 229.447 196.457 229.417 196.393 229.356C196.328 229.296 196.296 229.185 196.296 229.025C196.296 228.869 196.336 228.762 196.416 228.706C196.496 228.649 196.647 228.621 196.87 228.621L197.075 228.621L197.075 226.183C197.075 225.726 196.972 225.378 196.765 225.137C196.558 224.897 196.257 224.777 195.862 224.777C195.46 224.777 195.107 224.912 194.805 225.181C194.502 225.451 194.351 225.785 194.351 226.183L194.351 228.621L194.556 228.621C194.79 228.621 194.948 228.65 195.03 228.709C195.112 228.767 195.153 228.873 195.153 229.025C195.153 229.185 195.121 229.296 195.057 229.356C194.992 229.417 194.868 229.447 194.685 229.447L193.126 229.447C192.974 229.447 192.859 229.412 192.783 229.341C192.707 229.271 192.669 229.166 192.669 229.025C192.669 228.869 192.715 228.762 192.807 228.706C192.898 228.649 193.077 228.621 193.343 228.621L193.466 228.621Z"/>
<path d="M202.331 222.345C202.331 221.923 202.369 221.658 202.445 221.548C202.521 221.439 202.685 221.384 202.935 221.384C203.177 221.384 203.337 221.43 203.415 221.522C203.493 221.614 203.532 221.832 203.532 222.175C203.532 222.511 203.496 222.719 203.424 222.799C203.352 222.879 203.188 222.92 202.935 222.92C202.685 222.92 202.521 222.882 202.445 222.808C202.369 222.734 202.331 222.58 202.331 222.345ZM203.415 228.621L205.296 228.621C205.448 228.621 205.561 228.653 205.633 228.717C205.705 228.782 205.741 228.884 205.741 229.025C205.741 229.185 205.707 229.296 205.639 229.356C205.57 229.417 205.444 229.447 205.261 229.447L200.714 229.447C200.558 229.447 200.44 229.412 200.362 229.341C200.284 229.271 200.245 229.166 200.245 229.025C200.245 228.888 200.286 228.787 200.368 228.72C200.45 228.654 200.573 228.621 200.737 228.621L202.524 228.621L202.524 224.865L201.382 224.865C201.222 224.865 201.1 224.829 201.016 224.756C200.932 224.684 200.89 224.58 200.89 224.443C200.89 224.306 200.929 224.204 201.007 224.135C201.085 224.067 201.202 224.033 201.358 224.033L203.075 224.033C203.181 224.033 203.264 224.054 203.324 224.097C203.385 224.14 203.415 224.199 203.415 224.273L203.415 228.621Z"/>
<path d="M211.671 224.361C211.862 224.361 212.002 224.394 212.09 224.461C212.178 224.527 212.222 224.632 212.222 224.777C212.222 224.914 212.181 225.016 212.099 225.085C212.017 225.153 211.894 225.187 211.729 225.187L209.356 225.187L209.356 227.144C209.356 227.785 209.439 228.207 209.605 228.41C209.771 228.613 210.056 228.714 210.458 228.714C210.813 228.714 211.239 228.611 211.735 228.404C212.231 228.197 212.538 228.093 212.655 228.093C212.765 228.093 212.857 228.132 212.934 228.211C213.01 228.289 213.048 228.384 213.048 228.498C213.048 228.627 213 228.739 212.904 228.835C212.809 228.93 212.646 229.023 212.415 229.113C212.032 229.265 211.688 229.377 211.381 229.447C211.074 229.517 210.786 229.552 210.517 229.552C210.06 229.552 209.676 229.479 209.365 229.333C209.055 229.186 208.823 228.968 208.671 228.679C208.593 228.543 208.537 228.38 208.504 228.193C208.471 228.005 208.454 227.716 208.454 227.326L208.454 227.144L208.454 225.187L207.458 225.187C207.294 225.187 207.175 225.155 207.101 225.09C207.026 225.026 206.989 224.921 206.989 224.777C206.989 224.617 207.04 224.507 207.142 224.449C207.243 224.39 207.46 224.361 207.792 224.361L208.454 224.361L208.454 223.16L208.454 222.849C208.454 222.681 208.49 222.557 208.562 222.477C208.635 222.397 208.747 222.357 208.899 222.357C209.071 222.357 209.19 222.406 209.257 222.504C209.323 222.601 209.356 222.824 209.356 223.171L209.356 224.361L211.671 224.361Z"/>
<path d="M276.481 224.361C276.673 224.361 276.812 224.394 276.9 224.461C276.988 224.527 277.032 224.632 277.032 224.777C277.032 224.914 276.991 225.016 276.909 225.085C276.827 225.153 276.704 225.187 276.54 225.187L274.167 225.187L274.167 227.144C274.167 227.785 274.25 228.207 274.416 228.41C274.582 228.613 274.866 228.714 275.269 228.714C275.624 228.714 276.05 228.611 276.546 228.404C277.042 228.197 277.349 228.093 277.466 228.093C277.575 228.093 277.668 228.132 277.744 228.211C277.82 228.289 277.858 228.384 277.858 228.498C277.858 228.627 277.811 228.739 277.715 228.835C277.619 228.93 277.456 229.023 277.226 229.113C276.843 229.265 276.498 229.377 276.191 229.447C275.885 229.517 275.597 229.552 275.327 229.552C274.87 229.552 274.486 229.479 274.176 229.333C273.865 229.186 273.634 228.968 273.481 228.679C273.403 228.543 273.348 228.38 273.314 228.193C273.281 228.005 273.265 227.716 273.265 227.326L273.265 227.144L273.265 225.187L272.269 225.187C272.104 225.187 271.985 225.155 271.911 225.09C271.837 225.026 271.8 224.921 271.8 224.777C271.8 224.617 271.851 224.507 271.952 224.449C272.054 224.39 272.271 224.361 272.603 224.361L273.265 224.361L273.265 223.16L273.265 222.849C273.265 222.681 273.301 222.557 273.373 222.477C273.445 222.397 273.558 222.357 273.71 222.357C273.882 222.357 274.001 222.406 274.067 222.504C274.134 222.601 274.167 222.824 274.167 223.171L274.167 224.361L276.481 224.361Z"/>
<path d="M279.88 228.621L279.88 222.621L279.769 222.621C279.503 222.621 279.32 222.589 279.221 222.527C279.121 222.464 279.071 222.355 279.071 222.199C279.071 222.058 279.111 221.953 279.191 221.882C279.271 221.812 279.388 221.777 279.54 221.777L280.431 221.777C280.536 221.777 280.618 221.798 280.677 221.841C280.735 221.884 280.765 221.943 280.765 222.017L280.765 224.671C281.05 224.406 281.332 224.21 281.611 224.083C281.891 223.956 282.181 223.892 282.481 223.892C283.071 223.892 283.535 224.076 283.873 224.443C284.211 224.81 284.38 225.318 284.38 225.966L284.38 228.621L284.655 228.621C284.851 228.621 284.991 228.653 285.077 228.717C285.163 228.782 285.206 228.884 285.206 229.025C285.206 229.166 285.167 229.271 285.089 229.341C285.011 229.412 284.894 229.447 284.737 229.447L283.179 229.447C282.995 229.447 282.871 229.417 282.807 229.356C282.742 229.296 282.71 229.185 282.71 229.025C282.71 228.869 282.75 228.762 282.83 228.706C282.91 228.649 283.062 228.621 283.284 228.621L283.489 228.621L283.489 226.183C283.489 225.726 283.386 225.378 283.179 225.137C282.972 224.897 282.671 224.777 282.276 224.777C281.874 224.777 281.521 224.912 281.219 225.181C280.916 225.451 280.765 225.785 280.765 226.183L280.765 228.621L280.97 228.621C281.204 228.621 281.362 228.65 281.444 228.709C281.526 228.767 281.567 228.873 281.567 229.025C281.567 229.185 281.535 229.296 281.471 229.356C281.406 229.417 281.282 229.447 281.099 229.447L279.54 229.447C279.388 229.447 279.273 229.412 279.197 229.341C279.121 229.271 279.083 229.166 279.083 229.025C279.083 228.869 279.129 228.762 279.221 228.706C279.312 228.649 279.491 228.621 279.757 228.621L279.88 228.621Z"/>
<path d="M287.304 226.998C287.335 227.56 287.525 227.995 287.875 228.301C288.225 228.608 288.702 228.761 289.308 228.761C289.765 228.761 290.263 228.639 290.802 228.395C291.341 228.151 291.667 228.029 291.78 228.029C291.897 228.029 291.995 228.066 292.073 228.14C292.151 228.214 292.19 228.306 292.19 228.416C292.19 228.529 292.149 228.632 292.067 228.726C291.985 228.82 291.854 228.912 291.675 229.002C291.284 229.193 290.881 229.339 290.465 229.441C290.049 229.543 289.636 229.593 289.226 229.593C288.335 229.593 287.622 229.337 287.087 228.823C286.552 228.309 286.284 227.629 286.284 226.781C286.284 225.918 286.567 225.218 287.134 224.683C287.7 224.148 288.438 223.88 289.349 223.88C290.173 223.88 290.856 224.13 291.399 224.63C291.942 225.13 292.214 225.736 292.214 226.447C292.214 226.666 292.168 226.812 292.076 226.886C291.984 226.961 291.735 226.998 291.329 226.998L291.241 226.998L287.304 226.998ZM287.333 226.23L291.147 226.23C291.089 225.765 290.895 225.391 290.564 225.108C290.234 224.825 289.829 224.683 289.349 224.683C288.829 224.683 288.392 224.82 288.036 225.093C287.681 225.367 287.446 225.746 287.333 226.23Z"/>
<path d="M332.327 224.9C331.815 224.9 331.397 225.058 331.073 225.375C330.749 225.691 330.587 226.101 330.587 226.605C330.587 227.101 330.749 227.508 331.073 227.827C331.397 228.145 331.815 228.304 332.327 228.304C332.835 228.304 333.252 228.145 333.578 227.827C333.904 227.508 334.067 227.101 334.067 226.605C334.067 226.109 333.904 225.701 333.578 225.38C333.252 225.06 332.835 224.9 332.327 224.9ZM334.87 229.136C334.87 229.683 334.843 230.071 334.788 230.299C334.733 230.528 334.64 230.728 334.507 230.9C334.288 231.189 333.981 231.409 333.587 231.559C333.192 231.71 332.728 231.785 332.192 231.785C331.747 231.785 331.422 231.742 331.217 231.656C331.012 231.57 330.909 231.433 330.909 231.246C330.909 231.125 330.959 231.018 331.059 230.926C331.158 230.835 331.276 230.789 331.413 230.789C331.519 230.789 331.681 230.803 331.899 230.833C332.118 230.862 332.284 230.877 332.397 230.877C332.976 230.877 333.386 230.744 333.628 230.478C333.87 230.213 333.991 229.757 333.991 229.113L333.991 228.404C333.753 228.681 333.489 228.884 333.2 229.013C332.911 229.142 332.579 229.207 332.204 229.207C331.474 229.207 330.869 228.963 330.391 228.477C329.912 227.991 329.673 227.375 329.673 226.629C329.673 225.879 329.919 225.256 330.411 224.762C330.903 224.268 331.513 224.021 332.239 224.021C332.54 224.021 332.834 224.077 333.121 224.188C333.408 224.299 333.698 224.468 333.991 224.695L333.991 224.273C333.991 224.191 334.018 224.13 334.07 224.091C334.123 224.052 334.206 224.033 334.319 224.033L335.204 224.033C335.36 224.033 335.478 224.067 335.556 224.135C335.634 224.204 335.673 224.306 335.673 224.443C335.673 224.599 335.624 224.709 335.526 224.771C335.429 224.834 335.245 224.865 334.976 224.865L334.87 224.865L334.87 229.136Z"/>
<path d="M339.153 222.345C339.153 221.923 339.191 221.658 339.268 221.548C339.344 221.439 339.507 221.384 339.757 221.384C339.999 221.384 340.159 221.43 340.237 221.522C340.315 221.614 340.354 221.832 340.354 222.175C340.354 222.511 340.318 222.719 340.246 222.799C340.174 222.879 340.011 222.92 339.757 222.92C339.507 222.92 339.344 222.882 339.268 222.808C339.191 222.734 339.153 222.58 339.153 222.345ZM340.237 228.621L342.118 228.621C342.271 228.621 342.383 228.653 342.455 228.717C342.527 228.782 342.563 228.884 342.563 229.025C342.563 229.185 342.529 229.296 342.461 229.356C342.393 229.417 342.267 229.447 342.083 229.447L337.536 229.447C337.38 229.447 337.263 229.412 337.185 229.341C337.106 229.271 337.067 229.166 337.067 229.025C337.067 228.888 337.108 228.787 337.19 228.72C337.272 228.654 337.396 228.621 337.56 228.621L339.347 228.621L339.347 224.865L338.204 224.865C338.044 224.865 337.922 224.829 337.838 224.756C337.754 224.684 337.712 224.58 337.712 224.443C337.712 224.306 337.751 224.204 337.829 224.135C337.907 224.067 338.024 224.033 338.181 224.033L339.897 224.033C340.003 224.033 340.086 224.054 340.146 224.097C340.207 224.14 340.237 224.199 340.237 224.273L340.237 228.621Z"/>
<path d="M346.319 228.621L348.265 228.621C348.417 228.621 348.529 228.653 348.602 228.717C348.674 228.782 348.71 228.884 348.71 229.025C348.71 229.185 348.676 229.296 348.607 229.356C348.539 229.417 348.413 229.447 348.229 229.447L344.397 229.447C344.245 229.447 344.13 229.412 344.052 229.341C343.974 229.271 343.935 229.166 343.935 229.025C343.935 228.888 343.975 228.787 344.055 228.72C344.135 228.654 344.259 228.621 344.427 228.621L345.446 228.621L345.446 224.865L345.048 224.865C344.669 224.865 344.433 224.835 344.339 224.774C344.245 224.713 344.198 224.603 344.198 224.443C344.198 224.306 344.236 224.204 344.312 224.135C344.389 224.067 344.505 224.033 344.661 224.033L345.997 224.033C346.103 224.033 346.183 224.053 346.237 224.094C346.292 224.135 346.319 224.195 346.319 224.273L346.319 225.269C346.69 224.804 347.077 224.459 347.479 224.232C347.882 224.005 348.315 223.892 348.78 223.892C349.128 223.892 349.409 223.963 349.624 224.103C349.839 224.244 349.946 224.425 349.946 224.648C349.946 224.793 349.893 224.921 349.785 225.032C349.678 225.143 349.56 225.199 349.431 225.199C349.341 225.199 349.189 225.139 348.977 225.02C348.764 224.901 348.573 224.841 348.405 224.841C348.101 224.841 347.779 224.95 347.441 225.167C347.104 225.383 346.729 225.726 346.319 226.195L346.319 228.621Z"/>
<path d="M353.702 222.621L352.706 222.621C352.327 222.621 352.09 222.59 351.994 222.53C351.898 222.469 351.851 222.359 351.851 222.199C351.851 222.058 351.891 221.953 351.971 221.882C352.051 221.812 352.167 221.777 352.319 221.777L354.253 221.777C354.358 221.777 354.44 221.798 354.499 221.841C354.558 221.884 354.587 221.943 354.587 222.017L354.587 228.621L356.427 228.621C356.575 228.621 356.684 228.653 356.752 228.717C356.82 228.782 356.854 228.884 356.854 229.025C356.854 229.185 356.821 229.296 356.755 229.356C356.688 229.417 356.563 229.447 356.38 229.447L352.056 229.447C351.903 229.447 351.787 229.412 351.707 229.341C351.627 229.271 351.587 229.166 351.587 229.025C351.587 228.888 351.628 228.787 351.71 228.72C351.792 228.654 351.915 228.621 352.079 228.621L353.702 228.621L353.702 222.621Z"/>
</g>
</g>
</svg>
