<?xml version="1.0" encoding="UTF-8" standalone="no"?>
<!DOCTYPE svg PUBLIC "-//W3C//DTD SVG 1.1//EN" "http://www.w3.org/Graphics/SVG/1.1/DTD/svg11.dtd">
<!-- Created with Vectornator (http://vectornator.io/) -->
<svg height="100%" stroke-miterlimit="10" style="fill-rule:nonzero;clip-rule:evenodd;stroke-linecap:round;stroke-linejoin:round;" version="1.1" viewBox="0 0 396.9 113.4" width="100%" xml:space="preserve" xmlns="http://www.w3.org/2000/svg" xmlns:xlink="http://www.w3.org/1999/xlink">
<defs/>
<g id="レイヤー-2">
<path d="M89.2322 112.252C45.0383 109.533 4.70347 71.2164 4.03952 40.8408C3.46188 14.414 26.8025 6.14293 84.1863 5.67464C150.308 5.13505 254.225 5.42902 262.75 5.13505C278.568 4.5896 251.681 22.8927 238.633 27.686C314.589 15.8178 371.71 4.60638 371.71 4.60638C371.71 4.60638 372.115 34.6117 318.998 52.4527C368.78 68.8408 391.984 101.921 391.984 101.921C391.984 101.921 297.679 92.7832 283.108 88.1352C254.389 100.823 215.18 99.6775 192.816 96.4048C165.271 113.314 129.949 114.758 89.2322 112.252Z" fill="#aaaac7" fill-rule="nonzero" opacity="1" stroke="none"/>
<path d="M194.204 60.4708C200.997 66.4281 255.778 80.9188 283.385 81.4945C246.763 106.926 158.771 89.2927 145.374 80.1381C139.39 76.0485 189.07 55.9689 194.204 60.4708Z" fill="#979798" fill-rule="nonzero" opacity="1" stroke="none"/>
<path d="M122.634 69.9513C122.451 70.2947 123.077 71.1403 124.398 72.3517C130.511 77.9572 152.951 89.2147 177.705 96.9807C207.809 106.425 242.476 88.8871 243.343 86.3821C244.209 83.8771 200.125 82.6986 185.444 77.8431C170.762 72.9875 123.661 68.0186 122.634 69.9513Z" fill="#ffffff" fill-rule="nonzero" opacity="0" stroke="none"/>
<path d="M127.986 66.6193C128.665 65.0416 113.47 61.458 123.28 59.5803C127.998 54.9018 130.274 54.3294 135.899 53.5193C142.199 52.4912 157.944 57.6555 157.944 57.6555C157.944 57.6555 135.525 21.6373 158.588 14.5773C181.65 7.51737 181 28.6078 279.213 53.3888C214.709 61.9529 196.306 59.5841 196.306 59.5841C196.306 59.5841 200.839 59.5703 222.727 67.9659C241.816 75.2879 275.063 72.5679 296.412 65.2472C299.542 64.1737 302.364 63.0844 304.779 62.0208C303.375 63.2239 300.976 65.0618 297.939 67.2041C290.156 72.6953 278.18 80.187 268.03 84.1191C259.649 87.3657 243.789 90.3646 235.682 90.7071C213.928 91.6263 195.082 88.8566 175.546 83.9932C156.011 79.1297 156.437 77.6431 131.759 71.3156C116.903 69.1034 125.004 71.689 118.573 69.8164C112.141 67.9437 127.306 68.1969 127.986 66.6193Z" fill="#000000" fill-rule="nonzero" opacity="0" stroke="none"/>
</g>
<g id="レイヤー-1">
<g opacity="1">
<path d="M58.0206 37.0704L119.081 47.3192L222.451 73.1323C222.451 73.1323 169.466 114.084 93.7568 108.299C42.2553 104.363 16.0646 64.0969 16.0646 64.0969C16.0646 64.0969 15.3146 53.0865 21.8646 44.7515C28.4146 36.4164 42.2647 28.2872 42.2647 28.2872L58.0206 37.0704Z" fill="#ffffff" fill-rule="nonzero" opacity="1" stroke="#080100" stroke-linecap="butt" stroke-linejoin="round" stroke-width="1"/>
<path d="M66.2545 10.9509C122.115 9.21883 251.879 8.1796 251.879 8.1796C251.879 8.1796 216.314 29.255 186.65 36.2388C156.986 43.2227 120.38 48.3632 120.38 48.3632L41.9672 40.0493C41.9672 40.0493 29.9597 12.0763 66.2545 10.9509Z" fill="#000000" fill-rule="nonzero" opacity="1" stroke="#080100" stroke-linecap="butt" stroke-linejoin="round" stroke-width="1"/>
<path d="M84.8126 43.9162C84.8126 43.9162 147.333 45.3444 216.137 37.6559C284.941 29.9675 366.198 8.58234 366.198 8.58234C366.198 8.58234 357.953 27.941 331.246 39.7192C296.279 55.1397 293.785 50.9726 293.785 54.4634C293.785 58.9187 296.56 53.8292 326.217 64.0488C355.875 74.2684 379.595 94.9436 379.595 94.9436C379.595 94.9436 322.35 87.6644 271.945 81.966C221.541 76.2676 181.819 67.6253 181.819 67.6253L84.8126 43.9162Z" fill="#000000" fill-rule="nonzero" opacity="1" stroke="#080100" stroke-linecap="butt" stroke-linejoin="round" stroke-width="1"/>
<path d="M9.60889 54.5193C10.0812 59.1057 17.4122 66.8768 17.4122 66.8768C17.4122 66.8768 22.8233 71.6013 30.5949 73.5586C38.3664 75.5159 49.7857 72.0461 49.7857 72.0461C49.7857 72.0461 60.2397 65.6723 58.6887 58.8137C57.1377 51.9551 53.9903 39.202 53.9903 39.202C53.9903 39.202 47.544 29.1233 43.6436 26.7199C41.6313 25.4798 28.567 18.0972 14.2071 30.7439C6.58662 37.4551 9.38026 52.2991 9.60889 54.5193Z" fill="#080100" fill-rule="nonzero" opacity="1" stroke="#080100" stroke-linecap="butt" stroke-linejoin="round" stroke-width="1"/>
<g opacity="1">
<path d="M22.4689 42.9675C23.256 40.1949 27.6872 38.4578 29.8894 40.5042C32.4813 42.9127 33.9727 46.9758 31.7408 50.5641C29.5089 54.1524 24.3614 51.5644 24.3614 51.5644C24.3614 51.5644 21.0909 47.8211 22.4689 42.9675Z" fill="#ffffff" fill-rule="nonzero" opacity="1" stroke="#080100" stroke-linecap="butt" stroke-linejoin="round" stroke-width="1"/>
<path d="M25.7295 46.167C26.535 44.872 28.2566 44.5261 29.5749 45.3944C30.8932 46.2626 31.3089 48.0163 30.5034 49.3112C29.6979 50.6062 27.9762 50.9522 26.658 50.0839C25.3397 49.2157 24.924 47.462 25.7295 46.167Z" fill="#080100" fill-rule="nonzero" opacity="1" stroke="#080100" stroke-linecap="butt" stroke-linejoin="round" stroke-width="1"/>
</g>
<path d="M42.6554 57.4749C42.6554 57.4749 41.7486 52.184 44.267 48.9811C48.4707 43.635 57.919 52.4753 57.919 52.4753C57.919 52.4753 62.3282 60.3081 55.8572 67.2426C51.8651 71.5207 42.6554 57.4749 42.6554 57.4749Z" fill="#b40000" fill-rule="nonzero" opacity="1" stroke="#080100" stroke-linecap="butt" stroke-linejoin="round" stroke-width="1"/>
<path d="M42.9712 37.6596C42.9712 37.6596 44.3326 38.2492 51.6624 46.5693C58.9922 54.8894 77.7274 64.2907 77.7274 64.2907C77.7274 64.2907 47.9148 59.1525 45.7732 56.7027C38.3545 48.2168 42.9712 37.6596 42.9712 37.6596Z" fill="#fcff00" fill-rule="nonzero" opacity="1" stroke="#080100" stroke-linecap="butt" stroke-linejoin="round" stroke-width="1"/>
<path d="M46.7279 29.7608C46.7279 29.7608 48.0893 30.3504 55.4191 38.6705C62.7488 46.9906 78.0125 63.6545 78.0125 63.6545C78.0125 63.6545 69.1621 60.6874 60.162 55.1422C51.1618 49.597 42.0963 39.9787 42.0963 39.9787L46.7279 29.7608Z" fill="#fcff00" fill-rule="nonzero" opacity="1" stroke="#080100" stroke-linecap="butt" stroke-linejoin="round" stroke-width="1"/>
<g fill="#000000" opacity="1" stroke="none">
<path d="M45.7913 80.4927L43.8767 79.1105L40.2891 84.0704L38.708 82.9289L42.2955 77.969L40.3809 76.5867L41.2412 75.3973L46.6516 79.3034L45.7913 80.4927Z"/>
<path d="M49.6034 86.5226C49.1223 87.3315 48.508 87.8294 47.7606 88.0163C47.0132 88.2033 46.2142 88.0447 45.3636 87.5406C44.5131 87.0365 43.9911 86.4122 43.7977 85.6676C43.6043 84.923 43.7481 84.1463 44.2292 83.3374C44.7137 82.5227 45.3307 82.0235 46.0802 81.8397C46.8297 81.6559 47.6268 81.8144 48.4715 82.315C49.3279 82.8226 49.8509 83.4485 50.0405 84.1928C50.2302 84.9371 50.0844 85.7137 49.6034 86.5226ZM46.9566 86.5712C47.1332 86.5061 47.2996 86.4003 47.4556 86.2538C47.6117 86.1073 47.7826 85.8779 47.9684 85.5654C48.1404 85.2763 48.2583 85.0184 48.3222 84.7917C48.3862 84.565 48.4062 84.3656 48.3825 84.1935C48.3605 84.0186 48.2987 83.8674 48.1972 83.7401C48.0956 83.6128 47.9691 83.5042 47.8176 83.4144C47.6662 83.3247 47.5193 83.2653 47.377 83.2362C47.2347 83.2072 47.0732 83.2221 46.8925 83.2808C46.7287 83.3378 46.5593 83.4487 46.3844 83.6136C46.2095 83.7785 46.0326 84.0113 45.8537 84.3121C45.6939 84.5807 45.5802 84.8283 45.5125 85.0547C45.4448 85.2812 45.4234 85.4828 45.4483 85.6595C45.4738 85.8286 45.5357 85.9779 45.634 86.1073C45.7324 86.2366 45.8646 86.3505 46.0306 86.4489C46.1734 86.5335 46.3239 86.5901 46.4821 86.6188C46.6404 86.6474 46.7986 86.6316 46.9566 86.5712Z"/>
<path d="M54.7315 92.2765L52.8248 91.3305L52.5034 88.3894L51.7869 88.7109L50.9455 90.3981L49.3074 89.5854L52.8456 82.4897L54.4837 83.3025L52.3713 87.5389L55.2647 86.153L57.1531 87.0899L54.2142 88.385L54.7315 92.2765Z"/>
<path d="M59.5173 92.077L62.1296 89.1491L63.8695 89.8606L57.9572 95.8921L56.1232 95.1421L57.7751 93.5057L57.8832 87.4126L59.6608 88.1395L59.5173 92.077Z"/>
<path d="M69.1013 94.6712C68.7953 95.5608 68.2952 96.1734 67.6012 96.509C66.9072 96.8446 66.092 96.8529 65.1558 96.5336C64.2196 96.2144 63.5807 95.7104 63.2391 95.0217C62.8975 94.3329 62.8797 93.5438 63.1858 92.6542C63.494 91.7583 63.9965 91.1438 64.6932 90.8109C65.3899 90.4779 66.2031 90.47 67.1329 90.787C68.0756 91.1084 68.7158 91.6138 69.0536 92.303C69.3915 92.9923 69.4074 93.7817 69.1013 94.6712ZM66.5183 95.2598C66.678 95.16 66.8194 95.0225 66.9423 94.8474C67.0653 94.6722 67.1859 94.4128 67.3041 94.0692C67.4135 93.7513 67.4763 93.4749 67.4926 93.2401C67.5089 93.0052 67.4879 92.8061 67.4295 92.6427C67.3722 92.476 67.2808 92.3408 67.1553 92.237C67.0298 92.1332 66.8837 92.0529 66.717 91.9961C66.5502 91.9392 66.3942 91.9111 66.2489 91.9118C66.1036 91.9125 65.9484 91.9601 65.7833 92.0545C65.6344 92.1437 65.4912 92.2868 65.3535 92.4838C65.2159 92.6809 65.0901 92.9448 64.9763 93.2755C64.8747 93.571 64.8138 93.8364 64.7938 94.0717C64.7737 94.3071 64.7939 94.5086 64.8544 94.6763C64.9139 94.8366 65.0051 94.9699 65.1279 95.0764C65.2507 95.1828 65.4034 95.2672 65.5862 95.3295C65.7433 95.3831 65.9023 95.4077 66.0632 95.4033C66.2241 95.399 66.3758 95.3512 66.5183 95.2598Z"/>
<path d="M76.9156 99.7531L72.6219 98.6553L72.959 97.3537L74.1604 97.6609L75.3876 92.923L74.1862 92.6158L74.5233 91.3142L78.8171 92.412L78.4799 93.7136L77.2785 93.4064L76.0513 98.1443L77.2527 98.4515L76.9156 99.7531Z"/>
<path d="M83.9815 101.256L82.179 100.885L82.7594 98.1087C82.8066 97.8828 82.842 97.6552 82.8657 97.4262C82.8893 97.1971 82.884 97.0236 82.8498 96.9056C82.8091 96.7691 82.7308 96.6594 82.6148 96.5766C82.4988 96.4938 82.3263 96.4289 82.0973 96.3818C81.9346 96.3484 81.7639 96.341 81.5852 96.3597C81.4064 96.3784 81.207 96.4258 80.9868 96.5019L80.1575 100.469L78.3651 100.101L79.535 94.5035L81.3275 94.872L81.1983 95.49C81.5691 95.3063 81.9152 95.1782 82.2368 95.1057C82.5583 95.0332 82.8984 95.0337 83.2569 95.1074C83.861 95.2316 84.2964 95.5048 84.563 95.927C84.8296 96.3492 84.8896 96.9108 84.7431 97.612L83.9815 101.256Z"/>
<path d="M90.8304 100.522C90.7365 101.105 90.3997 101.534 89.8199 101.809C89.2401 102.083 88.4965 102.149 87.5892 102.006C87.087 101.927 86.6392 101.808 86.2459 101.65C85.8525 101.492 85.5411 101.336 85.3117 101.183L85.5514 99.6955L85.7171 99.7216C85.7973 99.7996 85.8907 99.8856 85.9974 99.9797C86.1041 100.074 86.2593 100.182 86.4628 100.303C86.6379 100.41 86.8399 100.509 87.0687 100.602C87.2975 100.695 87.5475 100.762 87.8187 100.805C88.1736 100.861 88.4427 100.863 88.6262 100.811C88.8096 100.759 88.9137 100.656 88.9386 100.502C88.9607 100.365 88.9265 100.257 88.8361 100.179C88.7456 100.102 88.5644 100.012 88.2923 99.9109C88.1632 99.8596 87.9869 99.7983 87.7632 99.727C87.5395 99.6557 87.338 99.5801 87.1586 99.5003C86.6679 99.2856 86.3215 99.0171 86.1194 98.6949C85.9172 98.3727 85.8501 98.0005 85.9182 97.5783C86.0056 97.0354 86.3353 96.6244 86.9072 96.3451C87.4792 96.0658 88.2105 95.9963 89.101 96.1366C89.5229 96.2031 89.9203 96.3095 90.2932 96.4559C90.6662 96.6022 90.9536 96.7411 91.1556 96.8726L90.9257 98.3001L90.77 98.2756C90.5318 98.0491 90.2505 97.851 89.9259 97.6814C89.6014 97.5117 89.2633 97.3992 88.9118 97.3438C88.6205 97.2979 88.3688 97.2995 88.1566 97.3485C87.9444 97.3976 87.8265 97.4958 87.8027 97.6432C87.7811 97.7773 87.8099 97.8866 87.8889 97.9712C87.968 98.0558 88.1693 98.1597 88.4927 98.2828C88.6709 98.3487 88.8635 98.416 89.0704 98.4846C89.2774 98.5533 89.4837 98.6313 89.6893 98.7187C90.1448 98.9176 90.4649 99.1682 90.6496 99.4705C90.8344 99.7727 90.8946 100.123 90.8304 100.522Z"/>
<path d="M95.3801 102.847C95.1786 102.873 94.9667 102.888 94.7444 102.89C94.5221 102.892 94.2527 102.874 93.9364 102.835C93.2298 102.75 92.7219 102.543 92.4127 102.215C92.1036 101.886 91.9924 101.375 92.0791 100.682L92.4107 98.0298L91.6636 97.9391L91.8177 96.7065L92.5648 96.7972L92.7675 95.1757L94.5846 95.3964L94.3819 97.0179L96.0829 97.2244L95.9288 98.457L94.2278 98.2504L93.9765 100.261C93.9516 100.46 93.9316 100.633 93.9165 100.782C93.9013 100.93 93.9116 101.067 93.9473 101.191C93.9797 101.314 94.0513 101.418 94.1621 101.501C94.273 101.585 94.4428 101.641 94.6716 101.668C94.7658 101.68 94.892 101.675 95.0502 101.653C95.2084 101.631 95.3198 101.607 95.3846 101.581L95.536 101.599L95.3801 102.847Z"/>
<path d="M98.2846 103.172L96.4622 102.999L97.025 97.3102L98.8473 97.4839L98.2846 103.172ZM98.9781 96.6782L97.0545 96.4949L97.1913 95.112L99.1149 95.2953L98.9781 96.6782Z"/>
<path d="M103.653 103.527C103.454 103.564 103.243 103.589 103.021 103.602C102.799 103.616 102.529 103.611 102.211 103.589C101.501 103.539 100.983 103.358 100.657 103.046C100.332 102.734 100.195 102.23 100.246 101.533L100.443 98.8678L99.6924 98.8151L99.7839 97.5765L100.535 97.6292L100.655 95.9999L102.481 96.128L102.361 97.7574L104.071 97.8774L103.979 99.1159L102.27 98.996L102.12 101.016C102.106 101.216 102.094 101.39 102.087 101.539C102.079 101.688 102.096 101.824 102.138 101.946C102.177 102.068 102.254 102.168 102.369 102.245C102.484 102.323 102.656 102.37 102.886 102.386C102.981 102.393 103.107 102.381 103.263 102.352C103.42 102.322 103.531 102.292 103.594 102.263L103.746 102.273L103.653 103.527Z"/>
<path d="M110.43 103.846L108.6 103.782L108.624 103.151C108.276 103.397 107.958 103.582 107.671 103.706C107.385 103.83 107.047 103.885 106.657 103.872C106.027 103.85 105.548 103.651 105.222 103.276C104.896 102.902 104.746 102.36 104.773 101.652L104.918 97.9342L106.758 97.9988L106.648 100.831C106.637 101.119 106.637 101.36 106.648 101.552C106.659 101.744 106.696 101.904 106.759 102.032C106.819 102.16 106.913 102.255 107.041 102.317C107.169 102.379 107.35 102.414 107.584 102.422C107.74 102.428 107.914 102.405 108.106 102.354C108.298 102.303 108.484 102.225 108.664 102.119L108.822 98.0712L110.651 98.1355L110.43 103.846Z"/>
<path d="M115.812 103.811C115.615 103.862 115.406 103.901 115.186 103.929C114.965 103.958 114.695 103.972 114.377 103.971C113.664 103.97 113.135 103.825 112.789 103.536C112.443 103.247 112.272 102.753 112.276 102.054L112.291 99.3826L111.538 99.3812L111.545 98.1396L112.298 98.1411L112.307 96.5077L114.138 96.5111L114.129 98.1445L115.844 98.1477L115.837 99.3892L114.122 99.386L114.111 101.411C114.11 101.611 114.111 101.786 114.113 101.935C114.116 102.085 114.142 102.219 114.192 102.337C114.239 102.456 114.323 102.551 114.443 102.62C114.563 102.69 114.738 102.725 114.969 102.726C115.063 102.726 115.188 102.706 115.343 102.665C115.497 102.625 115.605 102.588 115.666 102.554L115.819 102.554L115.812 103.811Z"/>
<path d="M122.461 101.161L118.271 101.292C118.311 101.739 118.49 102.076 118.811 102.304C119.131 102.531 119.596 102.635 120.206 102.616C120.593 102.604 120.965 102.523 121.324 102.373C121.683 102.222 121.965 102.064 122.171 101.898L122.375 101.892L122.415 103.362C122.006 103.541 121.619 103.673 121.255 103.759C120.891 103.845 120.487 103.895 120.043 103.909C118.897 103.945 118.012 103.715 117.388 103.219C116.763 102.722 116.438 101.998 116.412 101.045C116.386 100.102 116.654 99.3466 117.217 98.7776C117.78 98.2085 118.565 97.9083 119.572 97.8768C120.5 97.8477 121.205 98.0606 121.686 98.5156C122.167 98.9706 122.419 99.6388 122.444 100.52L122.461 101.161ZM120.611 100.145C120.591 99.7622 120.488 99.477 120.303 99.2893C120.118 99.1017 119.835 99.0138 119.456 99.0257C119.103 99.0367 118.816 99.1373 118.594 99.3275C118.372 99.5177 118.253 99.815 118.237 100.219L120.611 100.145Z"/>
<path d="M132.941 99.9898C133.024 100.925 132.817 101.688 132.319 102.277C131.821 102.866 131.079 103.206 130.092 103.297C129.106 103.388 128.316 103.19 127.723 102.701C127.13 102.213 126.792 101.501 126.709 100.565C126.625 99.6225 126.834 98.8574 127.336 98.2696C127.837 97.6819 128.578 97.3428 129.557 97.2524C130.55 97.1608 131.342 97.3601 131.932 97.8506C132.522 98.341 132.858 99.0541 132.941 99.9898ZM130.819 101.58C130.924 101.424 130.998 101.241 131.039 101.031C131.08 100.821 131.084 100.536 131.052 100.174C131.022 99.8399 130.967 99.5623 130.886 99.3416C130.806 99.1209 130.705 98.948 130.585 98.8228C130.465 98.6943 130.326 98.6084 130.169 98.565C130.012 98.5216 129.845 98.508 129.67 98.5242C129.494 98.5404 129.34 98.5785 129.207 98.6384C129.075 98.6983 128.952 98.805 128.84 98.9584C128.74 99.1004 128.667 99.2893 128.622 99.5251C128.576 99.7608 128.569 100.053 128.6 100.401C128.627 100.711 128.68 100.978 128.757 101.201C128.835 101.424 128.936 101.599 129.059 101.727C129.179 101.849 129.317 101.933 129.473 101.98C129.628 102.027 129.802 102.042 129.995 102.024C130.16 102.009 130.316 101.966 130.461 101.897C130.607 101.827 130.726 101.722 130.819 101.58Z"/>
<path d="M137.378 95.677L137.242 95.6941C137.158 95.6807 137.05 95.6669 136.916 95.6529C136.783 95.6389 136.642 95.6411 136.494 95.6597C136.138 95.7044 135.904 95.7986 135.793 95.9424C135.682 96.0861 135.649 96.3414 135.694 96.7083L135.699 96.7537L137.103 96.5778L137.253 97.8097L135.91 97.9781L136.45 102.416L134.632 102.644L134.092 98.2059L133.314 98.3034L133.164 97.0715L133.942 96.974L133.923 96.8175C133.839 96.1241 133.96 95.5809 134.286 95.1881C134.613 94.7952 135.15 94.5519 135.897 94.4582C136.166 94.4244 136.412 94.4031 136.633 94.3942C136.854 94.3853 137.05 94.3854 137.222 94.3946L137.378 95.677Z"/>
<path d="M147.272 94.4923L144.942 94.9082L145.993 100.924L144.069 101.268L143.017 95.2517L140.687 95.6675L140.435 94.2249L147.02 93.0497L147.272 94.4923Z"/>
<path d="M154.347 96.6223L150.249 97.5177C150.369 97.9493 150.608 98.2476 150.964 98.4126C151.321 98.5776 151.797 98.5949 152.394 98.4645C152.772 98.3819 153.124 98.2339 153.45 98.0205C153.775 97.8071 154.024 97.6001 154.196 97.3994L154.395 97.3559L154.704 98.7926C154.334 99.0433 153.978 99.2443 153.636 99.3954C153.293 99.5466 152.905 99.6696 152.471 99.7645C151.35 100.009 150.437 99.9451 149.732 99.5718C149.027 99.1985 148.574 98.5462 148.374 97.615C148.176 96.6937 148.302 95.902 148.752 95.2399C149.202 94.5779 149.919 94.1393 150.903 93.9241C151.812 93.7256 152.544 93.8059 153.101 94.1649C153.657 94.5239 154.027 95.1343 154.212 95.9959L154.347 96.6223ZM152.341 95.9624C152.251 95.5901 152.097 95.3287 151.881 95.1782C151.665 95.0277 151.371 94.993 151 95.0741C150.655 95.1495 150.39 95.3009 150.207 95.5284C150.023 95.7559 149.96 96.0697 150.018 96.4699L152.341 95.9624Z"/>
<path d="M159.054 98.1796C158.57 98.3033 158.114 98.3587 157.686 98.3459C157.257 98.3331 156.865 98.2446 156.508 98.0805C156.155 97.9154 155.852 97.6712 155.599 97.3476C155.345 97.024 155.157 96.6174 155.034 96.1278C154.903 95.6118 154.878 95.1445 154.956 94.7257C155.034 94.3068 155.196 93.9347 155.443 93.6091C155.684 93.2992 155.986 93.04 156.35 92.8314C156.714 92.6228 157.106 92.4647 157.527 92.357C157.905 92.2603 158.264 92.2122 158.604 92.2127C158.944 92.2132 159.268 92.2439 159.578 92.3047L159.959 93.818L159.708 93.8824C159.624 93.8409 159.523 93.7931 159.406 93.7391C159.29 93.685 159.151 93.6383 158.99 93.5989C158.837 93.5611 158.674 93.539 158.501 93.5326C158.328 93.5261 158.134 93.5503 157.921 93.6049C157.447 93.7261 157.121 93.9696 156.942 94.3355C156.763 94.7014 156.738 95.1424 156.869 95.6583C157.003 96.1907 157.236 96.5615 157.567 96.7706C157.898 96.9798 158.303 97.0229 158.783 96.9001C159.007 96.8429 159.202 96.7659 159.368 96.6691C159.535 96.5723 159.668 96.4742 159.769 96.3749C159.865 96.2806 159.946 96.1864 160.013 96.0922C160.08 95.998 160.141 95.9072 160.196 95.8196L160.448 95.7553L160.83 97.2686C160.583 97.4716 160.318 97.6506 160.033 97.8056C159.748 97.9607 159.422 98.0853 159.054 98.1796Z"/>
<path d="M167.579 95.6047L165.811 96.1262L165.019 93.408C164.955 93.1867 164.879 92.9697 164.792 92.7568C164.705 92.5439 164.619 92.3936 164.534 92.3058C164.433 92.2046 164.312 92.1449 164.171 92.1265C164.03 92.1082 163.846 92.1322 163.622 92.1984C163.462 92.2455 163.308 92.3193 163.159 92.4199C163.009 92.5204 162.855 92.656 162.696 92.8265L163.828 96.7112L162.07 97.2298L159.857 89.6362L161.615 89.1176L162.408 91.8358C162.649 91.4996 162.895 91.2239 163.145 91.0088C163.395 90.7937 163.696 90.6342 164.048 90.5305C164.641 90.3557 165.154 90.3915 165.588 90.6379C166.023 90.8843 166.34 91.3508 166.54 92.0373L167.579 95.6047Z"/>
<path d="M174.628 93.2529L172.882 93.8439L171.983 91.1596C171.91 90.9411 171.826 90.7272 171.73 90.518C171.635 90.3087 171.543 90.1619 171.454 90.0776C171.35 89.9805 171.227 89.9256 171.085 89.9129C170.943 89.9002 170.76 89.9314 170.539 90.0065C170.381 90.0598 170.23 90.1397 170.084 90.2461C169.939 90.3525 169.791 90.494 169.639 90.6707L170.924 94.5069L169.187 95.0947L167.374 89.6825L169.111 89.0947L169.311 89.6923C169.539 89.3469 169.774 89.0617 170.015 88.8369C170.257 88.612 170.551 88.4408 170.899 88.3232C171.484 88.1251 171.998 88.1406 172.442 88.3696C172.886 88.5986 173.221 89.052 173.448 89.7299L174.628 93.2529Z"/>
<path d="M180.666 87.9243C180.998 88.8019 181.004 89.5913 180.683 90.2924C180.362 90.9936 179.739 91.5211 178.813 91.8752C177.886 92.2292 177.072 92.2514 176.368 91.9419C175.664 91.6324 175.146 91.0388 174.814 90.1612C174.479 89.2773 174.474 88.4849 174.798 87.7842C175.123 87.0834 175.745 86.5572 176.665 86.2056C177.597 85.8492 178.414 85.8271 179.115 86.1394C179.816 86.4518 180.333 87.0467 180.666 87.9243ZM179.049 90.0274C179.109 89.8487 179.13 89.6529 179.113 89.44C179.096 89.2271 179.023 88.9512 178.895 88.6122C178.776 88.2985 178.648 88.0465 178.51 87.856C178.373 87.6656 178.229 87.5264 178.08 87.4385C177.929 87.3474 177.772 87.3022 177.609 87.3029C177.446 87.3036 177.282 87.3354 177.117 87.3985C176.952 87.4615 176.813 87.5398 176.702 87.6332C176.59 87.7267 176.501 87.8624 176.434 88.0403C176.376 88.2039 176.357 88.4052 176.377 88.6443C176.397 88.8834 176.468 89.1661 176.592 89.4924C176.702 89.7839 176.825 90.0262 176.96 90.2195C177.095 90.4127 177.239 90.5543 177.393 90.6442C177.541 90.7289 177.697 90.7728 177.86 90.7759C178.022 90.779 178.194 90.746 178.375 90.6769C178.53 90.6175 178.669 90.5347 178.79 90.4284C178.912 90.3222 178.998 90.1885 179.049 90.0274Z"/>
<path d="M184.578 89.3705L182.885 90.0741L179.872 82.7638L181.565 82.0602L184.578 89.3705Z"/>
<path d="M190.349 83.7043C190.732 84.561 190.783 85.3485 190.503 86.0669C190.224 86.7853 189.632 87.348 188.727 87.755C187.823 88.162 187.011 88.2314 186.29 87.9632C185.569 87.695 185.018 87.1326 184.635 86.2759C184.249 85.413 184.198 84.6225 184.482 83.9042C184.765 83.186 185.356 82.6248 186.254 82.2206C187.165 81.8108 187.979 81.7415 188.697 82.0126C189.416 82.2837 189.966 82.8476 190.349 83.7043ZM188.857 85.897C188.906 85.7152 188.916 85.5186 188.886 85.3071C188.857 85.0956 188.768 84.8243 188.62 84.4934C188.483 84.1872 188.341 83.9431 188.193 83.761C188.044 83.5788 187.893 83.4482 187.738 83.3691C187.583 83.2869 187.423 83.2509 187.261 83.261C187.098 83.2712 186.936 83.3125 186.775 83.385C186.614 83.4574 186.48 83.5436 186.374 83.6433C186.268 83.7431 186.187 83.8837 186.13 84.0651C186.082 84.2317 186.074 84.4338 186.108 84.6713C186.142 84.9088 186.229 85.1868 186.372 85.5053C186.499 85.7898 186.635 86.0246 186.781 86.2097C186.927 86.3948 187.08 86.5277 187.239 86.6085C187.392 86.6845 187.549 86.7194 187.712 86.713C187.875 86.7066 188.044 86.6637 188.221 86.5843C188.373 86.516 188.506 86.4253 188.621 86.3123C188.736 86.1992 188.815 86.0608 188.857 85.897Z"/>
<path d="M197.381 82.6629C197.62 83.1422 197.752 83.5798 197.778 83.9757C197.804 84.3716 197.74 84.7236 197.586 85.0317C197.433 85.3428 197.203 85.627 196.897 85.8843C196.591 86.1416 196.219 86.3797 195.781 86.5984C195.426 86.7761 195.065 86.9299 194.699 87.0599C194.333 87.1898 194.009 87.2875 193.727 87.3529L193.092 86.0743L193.292 85.9741C193.532 85.9527 193.812 85.9025 194.133 85.8234C194.454 85.7443 194.729 85.6478 194.957 85.5339C195.26 85.382 195.493 85.2305 195.655 85.0795C195.817 84.9285 195.923 84.7763 195.972 84.6231C196.018 84.4789 196.024 84.3204 195.991 84.1474C195.959 83.9745 195.889 83.7819 195.784 83.5696L195.736 83.474C195.619 83.7335 195.463 83.9703 195.27 84.1843C195.077 84.3983 194.833 84.579 194.538 84.7263C193.821 85.0848 193.161 85.1459 192.558 84.9096C191.956 84.6733 191.436 84.1153 190.998 83.2357C190.789 82.814 190.667 82.4204 190.634 82.0548C190.6 81.6892 190.634 81.3388 190.737 81.0034C190.832 80.6909 190.997 80.4021 191.231 80.1373C191.465 79.8724 191.736 79.6633 192.043 79.5099C192.319 79.3716 192.587 79.2786 192.846 79.2306C193.104 79.1827 193.355 79.17 193.598 79.1926L193.544 78.9355L195.134 78.1404L197.381 82.6629ZM195.232 82.4594L194.082 80.1435C193.968 80.1512 193.837 80.1778 193.689 80.2234C193.541 80.269 193.412 80.3191 193.303 80.3738C192.871 80.5895 192.609 80.8749 192.516 81.2299C192.424 81.585 192.487 81.9839 192.707 82.4268C192.951 82.9182 193.214 83.215 193.494 83.3172C193.774 83.4194 194.095 83.3802 194.456 83.1994C194.621 83.1174 194.769 83.0111 194.901 82.8806C195.033 82.75 195.144 82.6096 195.232 82.4594Z"/>
<path d="M200.488 79.4198L199.845 75.5583L201.493 74.6429L202.485 83.0121L200.747 83.9769L200.508 81.669L195.823 77.7923L197.506 76.8571L200.488 79.4198Z"/>
</g>
<g fill="#ffffff" opacity="1" stroke="none">
<path d="M159.56 51.9599C159.581 52.2584 159.544 52.5415 159.451 52.8092C159.357 53.077 159.206 53.308 158.998 53.5022C158.779 53.7095 158.508 53.8765 158.187 54.0033C157.866 54.1301 157.463 54.2096 156.978 54.2417C156.65 54.2634 156.34 54.2725 156.048 54.2688C155.756 54.2652 155.499 54.2494 155.276 54.2213L155.181 52.8418L155.353 52.8304C155.51 52.8751 155.673 52.9156 155.842 52.9518C156.011 52.988 156.225 52.9976 156.483 52.9805C156.818 52.9583 157.073 52.8986 157.247 52.8014C157.421 52.7042 157.541 52.577 157.608 52.4196C157.671 52.2656 157.701 52.0991 157.698 51.9204C157.696 51.7416 157.685 51.5136 157.666 51.2365L157.48 48.5278L155.849 48.6358L155.763 47.3843L159.23 47.1546L159.56 51.9599Z"/>
<path d="M164.472 52.2572L164.387 51.1891C164.156 51.225 163.906 51.2692 163.638 51.3216C163.37 51.3741 163.167 51.427 163.03 51.4802C162.862 51.545 162.737 51.6303 162.654 51.736C162.571 51.8418 162.536 51.9753 162.548 52.1366C162.557 52.2431 162.573 52.3291 162.598 52.3946C162.622 52.4601 162.675 52.5204 162.756 52.5755C162.834 52.6308 162.926 52.669 163.03 52.6902C163.134 52.7114 163.295 52.7137 163.511 52.6973C163.683 52.6843 163.855 52.6376 164.027 52.5572C164.198 52.4769 164.347 52.3768 164.472 52.2572ZM164.535 53.0514C164.447 53.1253 164.339 53.2146 164.21 53.3194C164.08 53.4241 163.957 53.5084 163.84 53.5724C163.677 53.6582 163.506 53.7255 163.327 53.7743C163.148 53.823 162.951 53.8556 162.734 53.872C162.224 53.9107 161.785 53.7924 161.417 53.5173C161.049 53.2421 160.847 52.8702 160.81 52.4016C160.78 52.0273 160.843 51.7149 161 51.4642C161.156 51.2136 161.39 51.0076 161.701 50.8463C162.009 50.6852 162.396 50.5579 162.863 50.4643C163.33 50.3707 163.816 50.2911 164.32 50.2253L164.318 50.1979C164.296 49.9149 164.159 49.7286 163.909 49.6389C163.658 49.5492 163.297 49.5223 162.825 49.558C162.541 49.5795 162.243 49.6504 161.928 49.7706C161.614 49.8909 161.389 49.9822 161.253 50.0446L161.095 50.0565L160.997 48.8196C161.175 48.7601 161.466 48.6837 161.871 48.5903C162.275 48.4969 162.683 48.4346 163.094 48.4034C164.072 48.3293 164.79 48.4195 165.248 48.6741C165.706 48.9287 165.959 49.3633 166.008 49.978L166.284 53.4652L164.578 53.5945L164.535 53.0514Z"/>
<path d="M173.232 50.2372C173.269 50.6599 173.236 51.0502 173.131 51.4082C173.026 51.7662 172.874 52.067 172.674 52.3104C172.465 52.5668 172.222 52.768 171.943 52.9139C171.663 53.0599 171.358 53.1467 171.027 53.1745C170.721 53.2001 170.459 53.1907 170.24 53.1463C170.022 53.1018 169.796 53.0327 169.563 52.9389L169.751 55.0735L168.031 55.2177L167.415 48.2163L169.134 48.0721L169.181 48.6057C169.428 48.3829 169.684 48.1976 169.948 48.0498C170.213 47.902 170.525 47.8131 170.885 47.7829C171.553 47.7268 172.094 47.9173 172.506 48.3545C172.918 48.7917 173.16 49.4193 173.232 50.2372ZM171.463 50.4178C171.419 49.9191 171.298 49.5647 171.1 49.3546C170.902 49.1446 170.61 49.0557 170.225 49.088C170.062 49.1016 169.897 49.1392 169.729 49.2008C169.562 49.2623 169.404 49.3437 169.255 49.445L169.482 52.0221C169.601 52.055 169.726 52.0721 169.857 52.0733C169.989 52.0746 170.118 52.0698 170.246 52.0591C170.701 52.021 171.029 51.8656 171.23 51.593C171.43 51.3204 171.508 50.9286 171.463 50.4178Z"/>
<path d="M177.823 51.1276L177.721 50.061C177.49 50.1004 177.241 50.1483 176.974 50.2048C176.706 50.2613 176.505 50.3172 176.369 50.3725C176.202 50.4398 176.078 50.5269 175.997 50.6339C175.915 50.7409 175.882 50.875 175.898 51.036C175.908 51.1424 175.926 51.2281 175.951 51.2932C175.977 51.3583 176.031 51.4178 176.113 51.4716C176.192 51.5258 176.284 51.5626 176.388 51.5822C176.493 51.6018 176.653 51.6018 176.87 51.5821C177.042 51.5665 177.213 51.5172 177.383 51.4343C177.553 51.3514 177.7 51.2492 177.823 51.1276ZM177.899 51.9207C177.813 51.996 177.706 52.0869 177.578 52.1936C177.451 52.3002 177.329 52.3864 177.213 52.4521C177.052 52.5403 176.882 52.6102 176.704 52.6616C176.526 52.7131 176.328 52.7486 176.112 52.7683C175.603 52.8146 175.162 52.703 174.789 52.4334C174.417 52.1638 174.208 51.795 174.163 51.3271C174.128 50.9533 174.186 50.6399 174.338 50.387C174.491 50.1341 174.721 49.9246 175.029 49.7586C175.334 49.593 175.72 49.4598 176.185 49.3593C176.65 49.2587 177.135 49.1717 177.638 49.0984L177.636 49.071C177.609 48.7884 177.469 48.6042 177.217 48.5183C176.965 48.4324 176.603 48.4109 176.132 48.4537C175.849 48.4795 175.551 48.5548 175.239 48.6798C174.927 48.8047 174.703 48.8994 174.568 48.9638L174.41 48.9781L174.292 47.7429C174.469 47.6808 174.759 47.6 175.162 47.5005C175.565 47.401 175.972 47.3326 176.382 47.2953C177.359 47.2065 178.079 47.2859 178.54 47.5335C179.002 47.7812 179.263 48.2119 179.321 48.8258L179.655 52.3082L177.951 52.4632L177.899 51.9207Z"/>
<path d="M186.616 51.6345L184.889 51.8031L184.627 49.2659C184.606 49.0594 184.574 48.8548 184.53 48.652C184.487 48.4492 184.433 48.3018 184.369 48.2099C184.294 48.1038 184.192 48.0308 184.065 47.9912C183.937 47.9515 183.763 47.9424 183.544 47.9638C183.388 47.979 183.232 48.0187 183.077 48.083C182.921 48.1472 182.755 48.2417 182.578 48.3663L182.952 51.9921L181.235 52.1597L180.708 47.0444L182.425 46.8768L182.483 47.4416C182.765 47.184 183.04 46.9808 183.309 46.8319C183.578 46.6829 183.884 46.5917 184.228 46.5582C184.806 46.5017 185.275 46.6185 185.635 46.9086C185.994 47.1987 186.206 47.6641 186.272 48.3048L186.616 51.6345Z"/>
<path d="M193.218 48.6732L189.29 49.0816C189.36 49.4795 189.553 49.7694 189.87 49.9513C190.188 50.1331 190.632 50.1943 191.205 50.1348C191.567 50.0972 191.911 49.9985 192.237 49.8387C192.564 49.6789 192.818 49.5175 192.999 49.3544L193.19 49.3346L193.335 50.65C192.963 50.839 192.61 50.9848 192.274 51.0872C191.938 51.1897 191.562 51.2625 191.145 51.3058C190.071 51.4175 189.223 51.2724 188.6 50.8706C187.977 50.4688 187.619 49.8416 187.525 48.9889C187.432 48.1453 187.629 47.4487 188.117 46.8993C188.605 46.3498 189.32 46.026 190.264 45.9279C191.135 45.8374 191.813 45.9795 192.298 46.3542C192.782 46.7289 193.068 47.3107 193.155 48.0997L193.218 48.6732ZM191.406 47.8902C191.359 47.5483 191.241 47.2996 191.054 47.1441C190.866 46.9887 190.595 46.9295 190.239 46.9665C189.908 47.0008 189.645 47.111 189.45 47.297C189.256 47.483 189.165 47.7579 189.18 48.1216L191.406 47.8902Z"/>
<path d="M199.138 48.6657C199.199 49.1934 199.001 49.6458 198.543 50.0231C198.085 50.4004 197.426 50.6363 196.565 50.7307C196.089 50.7829 195.652 50.7878 195.255 50.7454C194.857 50.703 194.535 50.6431 194.288 50.5657L194.131 49.2193L194.289 49.202C194.381 49.2502 194.488 49.3023 194.608 49.3582C194.729 49.414 194.897 49.4701 195.113 49.5263C195.299 49.5765 195.507 49.6143 195.739 49.6396C195.97 49.6649 196.214 49.6635 196.472 49.6353C196.808 49.5984 197.053 49.5354 197.207 49.4464C197.361 49.3573 197.429 49.2431 197.413 49.1036C197.399 48.9792 197.341 48.8942 197.239 48.8486C197.137 48.8029 196.95 48.769 196.677 48.7467C196.547 48.7333 196.371 48.7226 196.15 48.7146C195.929 48.7066 195.726 48.6897 195.543 48.6637C195.043 48.5957 194.661 48.4464 194.396 48.2159C194.131 47.9854 193.976 47.6791 193.932 47.297C193.875 46.8058 194.071 46.3704 194.521 45.9909C194.97 45.6115 195.617 45.3754 196.462 45.2828C196.862 45.2389 197.25 45.2355 197.626 45.2726C198.002 45.3097 198.298 45.361 198.515 45.4263L198.665 46.7181L198.518 46.7343C198.244 46.5954 197.938 46.4915 197.601 46.4225C197.263 46.3536 196.927 46.3374 196.594 46.374C196.318 46.4043 196.089 46.4662 195.909 46.5597C195.728 46.6532 195.646 46.7667 195.661 46.9001C195.675 47.0214 195.729 47.1092 195.822 47.1635C195.915 47.2178 196.124 47.2593 196.449 47.2882C196.628 47.3024 196.82 47.3144 197.025 47.3241C197.231 47.3338 197.438 47.3518 197.647 47.378C198.111 47.4408 198.465 47.5809 198.709 47.7983C198.953 48.0157 199.096 48.3048 199.138 48.6657Z"/>
<path d="M205.454 47.2995L201.531 47.7518C201.605 48.1489 201.802 48.4366 202.122 48.6149C202.442 48.7932 202.887 48.8494 203.458 48.7835C203.82 48.7418 204.163 48.6392 204.488 48.4758C204.812 48.3124 205.064 48.1482 205.243 47.983L205.434 47.9611L205.595 49.2748C205.226 49.4679 204.874 49.6176 204.539 49.7238C204.204 49.83 203.829 49.907 203.413 49.955C202.341 50.0787 201.49 49.9431 200.863 49.5483C200.235 49.1536 199.869 48.5304 199.765 47.6788C199.661 46.8364 199.85 46.1377 200.331 45.5829C200.812 45.028 201.524 44.6963 202.466 44.5876C203.336 44.4873 204.015 44.6218 204.505 44.991C204.994 45.3602 205.287 45.9388 205.384 46.7268L205.454 47.2995ZM203.632 46.5369C203.581 46.1955 203.46 45.9482 203.271 45.7948C203.081 45.6415 202.809 45.5853 202.453 45.6263C202.123 45.6643 201.862 45.7774 201.669 45.9656C201.477 46.1538 201.39 46.4296 201.409 46.7932L203.632 46.5369Z"/>
<path d="M215.471 48.3578L210.364 48.992L209.47 42.2312L211.296 42.0044L212.017 47.4576L215.298 47.0501L215.471 48.3578Z"/>
<path d="M219.521 46.4793L219.374 45.4177C219.145 45.4659 218.898 45.5234 218.633 45.5902C218.368 45.657 218.169 45.7206 218.036 45.7811C217.872 45.8548 217.752 45.9466 217.675 46.0567C217.598 46.1667 217.571 46.3019 217.593 46.4622C217.608 46.5681 217.629 46.653 217.658 46.7171C217.686 46.7812 217.742 46.8385 217.827 46.8891C217.908 46.9401 218.001 46.9734 218.107 46.9889C218.212 47.0045 218.372 46.9982 218.588 46.9702C218.759 46.948 218.928 46.8921 219.094 46.8027C219.261 46.7133 219.403 46.6055 219.521 46.4793ZM219.631 47.2688C219.548 47.3472 219.445 47.4422 219.322 47.5537C219.199 47.6652 219.081 47.756 218.968 47.8261C218.81 47.9205 218.643 47.9969 218.467 48.0551C218.292 48.1134 218.096 48.1565 217.881 48.1846C217.374 48.2505 216.928 48.156 216.545 47.901C216.161 47.6461 215.937 47.2858 215.872 46.82C215.821 46.448 215.866 46.1327 216.007 45.8741C216.149 45.6155 216.37 45.3973 216.671 45.2196C216.969 45.0423 217.348 44.8944 217.809 44.776C218.27 44.6575 218.751 44.5519 219.25 44.4592L219.247 44.432C219.208 44.1507 219.06 43.972 218.805 43.896C218.549 43.8199 218.187 43.8124 217.718 43.8734C217.436 43.91 217.142 43.9968 216.835 44.1337C216.528 44.2706 216.309 44.3738 216.176 44.4434L216.02 44.4638L215.849 43.2343C216.023 43.1654 216.31 43.0735 216.708 42.9586C217.107 42.8436 217.51 42.7596 217.919 42.7064C218.891 42.5799 219.614 42.6314 220.086 42.861C220.558 43.0906 220.836 43.5109 220.921 44.1218L221.402 47.588L219.705 47.8086L219.631 47.2688Z"/>
<path d="M228.329 46.6488L226.611 46.8832L226.243 44.3584C226.213 44.1529 226.172 43.9497 226.12 43.7488C226.069 43.5478 226.009 43.4027 225.941 43.3133C225.861 43.2101 225.757 43.1412 225.627 43.1064C225.498 43.0717 225.324 43.0692 225.106 43.099C224.951 43.1201 224.797 43.1658 224.644 43.2359C224.491 43.3061 224.329 43.4067 224.158 43.538L224.683 47.146L222.974 47.3791L222.233 42.2888L223.942 42.0558L224.024 42.6178C224.295 42.3497 224.561 42.1362 224.824 41.9771C225.086 41.818 225.388 41.7152 225.73 41.6686C226.306 41.59 226.78 41.6888 227.151 41.9648C227.522 42.2409 227.754 42.6977 227.847 43.3354L228.329 46.6488Z"/>
<path d="M234.99 45.1047C235.063 45.5816 235.053 45.9933 234.961 46.3397C234.869 46.6861 234.708 46.9696 234.48 47.1904C234.253 47.4142 233.964 47.5935 233.615 47.7282C233.266 47.863 232.863 47.9629 232.408 48.028C232.038 48.0809 231.67 48.1118 231.305 48.1209C230.94 48.1299 230.621 48.123 230.349 48.1001L230.155 46.8277L230.364 46.7979C230.584 46.8465 230.85 46.8818 231.16 46.9038C231.47 46.9258 231.744 46.9198 231.981 46.8859C232.298 46.8407 232.55 46.7761 232.739 46.692C232.928 46.6079 233.067 46.507 233.156 46.3895C233.239 46.2789 233.291 46.1449 233.313 45.9877C233.334 45.8304 233.328 45.6461 233.296 45.4348L233.281 45.3397C233.1 45.5291 232.892 45.6884 232.657 45.8177C232.421 45.947 232.15 46.0335 231.843 46.0774C231.097 46.184 230.489 46.052 230.018 45.6811C229.548 45.3103 229.246 44.6872 229.112 43.8117C229.048 43.3921 229.055 43.021 229.131 42.6985C229.208 42.3759 229.341 42.0854 229.531 41.8269C229.708 41.5858 229.939 41.3845 230.227 41.2232C230.514 41.0618 230.817 40.9583 231.136 40.9127C231.424 40.8715 231.691 40.8666 231.936 40.8978C232.182 40.929 232.41 40.9882 232.62 41.0754L232.647 40.8402L234.302 40.6035L234.99 45.1047ZM233.127 44.3299L232.775 42.025C232.671 41.9997 232.546 41.986 232.4 41.9837C232.254 41.9814 232.125 41.9883 232.011 42.0046C231.562 42.0688 231.244 42.2399 231.057 42.5181C230.87 42.7962 230.81 43.1556 230.878 43.5964C230.952 44.0855 231.1 44.4129 231.321 44.5788C231.542 44.7446 231.84 44.8007 232.217 44.7469C232.387 44.7225 232.551 44.6729 232.708 44.598C232.864 44.5232 233.004 44.4338 233.127 44.3299Z"/>
<path d="M241.994 44.6599L240.288 44.9151L240.198 44.3542C239.919 44.6307 239.658 44.8481 239.415 45.0064C239.172 45.1648 238.869 45.2711 238.505 45.3255C237.918 45.4134 237.439 45.3198 237.07 45.0446C236.701 44.7694 236.466 44.3167 236.365 43.6864L235.835 40.3797L237.551 40.1231L237.954 42.6427C237.995 42.899 238.038 43.1111 238.083 43.2789C238.127 43.4466 238.19 43.5816 238.271 43.6837C238.349 43.7863 238.453 43.8542 238.583 43.8872C238.713 43.9203 238.887 43.9205 239.105 43.8879C239.25 43.8662 239.407 43.8164 239.576 43.7387C239.744 43.6609 239.903 43.56 240.051 43.4359L239.474 39.8352L241.18 39.58L241.994 44.6599Z"/>
<path d="M246.6 42.5858L246.423 41.5284C246.196 41.5825 245.951 41.6463 245.688 41.7199C245.425 41.7935 245.228 41.8622 245.096 41.9261C244.934 42.0039 244.816 42.0988 244.743 42.2108C244.669 42.3228 244.646 42.4586 244.673 42.6182C244.69 42.7237 244.714 42.808 244.744 42.8713C244.774 42.9347 244.832 42.9905 244.918 43.0389C245.001 43.0878 245.095 43.1187 245.201 43.1315C245.306 43.1443 245.467 43.134 245.681 43.1004C245.852 43.0738 246.019 43.0136 246.183 42.92C246.347 42.8263 246.486 42.7149 246.6 42.5858ZM246.732 43.372C246.652 43.4526 246.551 43.5502 246.431 43.6648C246.311 43.7794 246.196 43.8731 246.085 43.9461C245.93 44.0446 245.765 44.1252 245.591 44.1879C245.417 44.2507 245.223 44.2988 245.008 44.3324C244.504 44.4113 244.056 44.3283 243.665 44.0834C243.274 43.8385 243.04 43.484 242.962 43.0201C242.9 42.6496 242.936 42.3333 243.07 42.0712C243.205 41.8091 243.42 41.5854 243.716 41.4C244.008 41.2151 244.384 41.0575 244.841 40.9272C245.298 40.797 245.776 40.6791 246.273 40.5735L246.268 40.5464C246.221 40.2663 246.069 40.0915 245.811 40.022C245.554 39.9526 245.191 39.9544 244.724 40.0274C244.443 40.0713 244.152 40.1656 243.849 40.3103C243.546 40.4551 243.329 40.5639 243.199 40.6368L243.043 40.6612L242.838 39.4367C243.01 39.3634 243.294 39.2642 243.689 39.139C244.084 39.0138 244.485 38.9194 244.892 38.8558C245.861 38.7043 246.584 38.7373 247.063 38.9546C247.541 39.1719 247.832 39.5848 247.933 40.1933L248.512 43.6455L246.822 43.9097L246.732 43.372Z"/>
<path d="M255.139 41.971C255.222 42.4464 255.221 42.8582 255.136 43.2063C255.051 43.5544 254.897 43.841 254.674 44.0662C254.451 44.2945 254.167 44.4794 253.82 44.621C253.474 44.7627 253.074 44.8705 252.62 44.9446C252.251 45.0048 251.884 45.043 251.519 45.0592C251.154 45.0755 250.835 45.0749 250.563 45.0574L250.341 43.7892L250.549 43.7552C250.771 43.7995 251.037 43.8296 251.348 43.8454C251.659 43.8612 251.932 43.8498 252.169 43.8113C252.484 43.7598 252.735 43.6902 252.922 43.6024C253.109 43.5146 253.246 43.411 253.332 43.2917C253.413 43.1795 253.462 43.0446 253.48 42.8869C253.498 42.7293 253.488 42.5452 253.452 42.3345L253.435 42.2398C253.258 42.4327 253.053 42.5961 252.821 42.73C252.588 42.8639 252.319 42.9558 252.013 43.0057C251.269 43.1271 250.658 43.0071 250.18 42.6456C249.702 42.2842 249.386 41.6672 249.233 40.7947C249.16 40.3764 249.158 40.0053 249.228 39.6814C249.298 39.3574 249.425 39.0644 249.609 38.8022C249.78 38.5576 250.008 38.3518 250.291 38.1849C250.575 38.0179 250.876 37.9084 251.194 37.8565C251.481 37.8096 251.748 37.7994 251.994 37.8258C252.24 37.8522 252.469 37.9068 252.681 37.9898L252.703 37.7541L254.353 37.4848L255.139 41.971ZM253.259 41.2333L252.857 38.936C252.752 38.9129 252.627 38.9016 252.481 38.9022C252.335 38.9027 252.206 38.9123 252.092 38.9308C251.645 39.0038 251.33 39.1812 251.15 39.463C250.969 39.7447 250.917 40.1052 250.994 40.5445C251.079 41.032 251.234 41.3564 251.458 41.5179C251.683 41.6793 251.982 41.7294 252.358 41.6682C252.528 41.6404 252.69 41.5876 252.845 41.5097C253 41.4318 253.138 41.3397 253.259 41.2333Z"/>
<path d="M261.663 39.1648L257.772 39.8269C257.869 40.2193 258.083 40.4959 258.413 40.6567C258.742 40.8175 259.19 40.8497 259.757 40.7533C260.116 40.6922 260.452 40.5714 260.767 40.3909C261.081 40.2104 261.323 40.0329 261.492 39.8584L261.681 39.8263L261.919 41.129C261.562 41.3416 261.22 41.5099 260.892 41.6339C260.564 41.7578 260.194 41.8549 259.781 41.9251C258.717 42.1061 257.86 42.0165 257.21 41.6561C256.56 41.2958 256.158 40.6934 256.003 39.8489C255.851 39.0135 255.998 38.306 256.446 37.7263C256.893 37.1466 257.584 36.7772 258.519 36.6181C259.382 36.4714 260.069 36.5691 260.579 36.9114C261.089 37.2537 261.416 37.8155 261.559 38.5968L261.663 39.1648ZM259.798 38.5013C259.727 38.1634 259.592 37.9229 259.394 37.78C259.196 37.6371 258.92 37.5957 258.568 37.6557C258.24 37.7114 257.986 37.8383 257.805 38.0365C257.624 38.2347 257.553 38.5147 257.593 38.8766L259.798 38.5013Z"/>
<path d="M269.518 38.7051L269.313 37.6525C269.087 37.7121 268.844 37.7818 268.583 37.8617C268.322 37.9416 268.126 38.0151 267.996 38.0822C267.837 38.1639 267.721 38.2616 267.651 38.3753C267.58 38.489 267.561 38.6254 267.592 38.7843C267.612 38.8893 267.638 38.973 267.67 39.0356C267.702 39.0981 267.761 39.1526 267.848 39.1989C267.932 39.2457 268.027 39.2743 268.133 39.2846C268.239 39.2948 268.399 39.2806 268.613 39.2419C268.782 39.2111 268.948 39.1469 269.109 39.0493C269.271 38.9517 269.407 38.837 269.518 38.7051ZM269.671 39.4878C269.592 39.5703 269.495 39.6703 269.378 39.7878C269.261 39.9052 269.148 40.0018 269.039 40.0774C268.887 40.1796 268.724 40.2641 268.552 40.3311C268.379 40.398 268.186 40.4509 267.973 40.4896C267.47 40.5807 267.02 40.5086 266.623 40.2733C266.226 40.0379 265.982 39.6893 265.892 39.2275C265.82 38.8586 265.848 38.5416 265.975 38.2763C266.102 38.0111 266.312 37.7822 266.603 37.5897C266.89 37.3978 267.261 37.2312 267.715 37.0899C268.169 36.9486 268.643 36.8192 269.137 36.7017L269.132 36.6747C269.078 36.3958 268.921 36.2247 268.661 36.1616C268.402 36.0984 268.039 36.109 267.574 36.1933C267.295 36.244 267.006 36.3453 266.707 36.4973C266.408 36.6493 266.194 36.7633 266.066 36.8394L265.91 36.8676L265.673 35.6485C265.843 35.5711 266.124 35.465 266.516 35.3303C266.907 35.1957 267.306 35.0916 267.711 35.0181C268.676 34.8432 269.4 34.8586 269.884 35.0643C270.368 35.2699 270.669 35.6756 270.787 36.2814L271.457 39.7181L269.775 40.0231L269.671 39.4878Z"/>
<path d="M278.323 38.4228L276.62 38.746L276.109 36.2446C276.067 36.041 276.015 35.8403 275.952 35.6424C275.888 35.4444 275.82 35.3026 275.747 35.217C275.662 35.1181 275.554 35.0547 275.423 35.0267C275.292 34.9987 275.118 35.0053 274.901 35.0463C274.748 35.0755 274.596 35.1291 274.448 35.207C274.299 35.285 274.143 35.3939 273.98 35.5338L274.71 39.1086L273.016 39.43L271.986 34.3868L273.68 34.0653L273.793 34.6222C274.049 34.3405 274.303 34.1135 274.556 33.941C274.809 33.7686 275.105 33.6502 275.444 33.5859C276.014 33.4776 276.493 33.5516 276.879 33.8079C277.266 34.0642 277.523 34.5083 277.652 35.14L278.323 38.4228Z"/>
<path d="M285.006 37.0979L283.316 37.4349L283.203 36.9105C282.961 37.1957 282.724 37.4173 282.494 37.5754C282.263 37.7335 281.982 37.8456 281.65 37.9118C281.009 38.0397 280.445 37.906 279.958 37.5107C279.472 37.1153 279.142 36.5172 278.971 35.7164C278.879 35.2892 278.862 34.8975 278.921 34.5414C278.98 34.1853 279.097 33.8668 279.272 33.5858C279.437 33.3193 279.658 33.0937 279.935 32.9092C280.212 32.7247 280.502 32.6021 280.806 32.5416C281.122 32.4786 281.388 32.459 281.603 32.483C281.819 32.507 282.044 32.5471 282.278 32.6033L281.818 30.4609L283.508 30.1239L285.006 37.0979ZM283.017 36.0455L282.487 33.5759C282.358 33.5518 282.225 33.5424 282.089 33.5477C281.953 33.553 281.83 33.5665 281.721 33.5884C281.276 33.677 280.971 33.8757 280.806 34.1844C280.64 34.4932 280.608 34.8821 280.709 35.3512C280.815 35.8443 280.981 36.1843 281.207 36.3713C281.433 36.5584 281.743 36.6126 282.138 36.5339C282.291 36.5034 282.448 36.4433 282.608 36.3537C282.769 36.2641 282.905 36.1613 283.017 36.0455Z"/>
<path d="M293.155 35.5196C292.637 35.6313 292.142 35.6614 291.67 35.61C291.198 35.5587 290.77 35.4226 290.388 35.2017C290.006 34.9808 289.678 34.6732 289.404 34.2788C289.131 33.8844 288.928 33.4044 288.797 32.8387C288.674 32.3117 288.645 31.816 288.711 31.3516C288.777 30.8871 288.931 30.4676 289.175 30.093C289.409 29.733 289.731 29.4243 290.141 29.167C290.552 28.9096 291.022 28.7238 291.552 28.6094C291.846 28.5462 292.114 28.5048 292.356 28.4853C292.599 28.4657 292.826 28.4597 293.038 28.4673C293.26 28.4788 293.464 28.5012 293.65 28.5345C293.837 28.5678 294.001 28.6004 294.142 28.6324L294.518 30.2447L294.312 30.2891C294.208 30.2365 294.078 30.1753 293.923 30.1057C293.767 30.036 293.594 29.9717 293.403 29.9127C293.21 29.8545 293.005 29.8141 292.79 29.7917C292.576 29.7692 292.354 29.7825 292.127 29.8317C291.874 29.8862 291.643 29.9759 291.432 30.101C291.222 30.226 291.041 30.3972 290.889 30.6146C290.744 30.824 290.647 31.0809 290.599 31.3854C290.55 31.6898 290.572 32.0415 290.665 32.4405C290.762 32.8573 290.904 33.1924 291.093 33.4457C291.281 33.699 291.487 33.8859 291.712 34.0063C291.94 34.129 292.18 34.2001 292.43 34.2196C292.68 34.2391 292.919 34.2243 293.147 34.1752C293.365 34.1281 293.574 34.0503 293.773 33.9417C293.972 33.833 294.15 33.7056 294.306 33.5594C294.439 33.4401 294.559 33.3172 294.667 33.1907C294.775 33.0642 294.863 32.9561 294.931 32.8665L295.118 32.8261L295.488 34.4161C295.331 34.5282 295.18 34.6341 295.036 34.734C294.892 34.8338 294.739 34.9263 294.575 35.0116C294.362 35.1233 294.159 35.217 293.967 35.2928C293.775 35.3686 293.504 35.4442 293.155 35.5196Z"/>
<path d="M302.036 33.3908L300.356 33.7748L300.22 33.2227C299.964 33.5194 299.722 33.7559 299.493 33.9322C299.264 34.1085 298.97 34.2375 298.613 34.3193C298.034 34.4516 297.549 34.3947 297.158 34.1485C296.767 33.9024 296.495 33.4691 296.342 32.8487L295.538 29.5937L297.227 29.2075L297.84 31.6877C297.902 31.94 297.962 32.1481 298.021 32.3119C298.079 32.4757 298.153 32.6054 298.243 32.701C298.329 32.7974 298.438 32.8571 298.57 32.8801C298.702 32.9032 298.876 32.8902 299.09 32.8412C299.233 32.8084 299.386 32.7469 299.548 32.6566C299.709 32.5663 299.859 32.4537 299.996 32.3188L299.121 28.7744L300.801 28.3903L302.036 33.3908Z"/>
<path d="M305.293 32.6102L303.618 33.0114L301.829 26.1011L303.505 25.6999L305.293 32.6102Z"/>
<path d="M310.196 31.3542C310.028 31.4431 309.847 31.5251 309.653 31.6002C309.458 31.6754 309.216 31.7491 308.925 31.8214C308.275 31.983 307.757 31.9776 307.373 31.8054C306.988 31.6332 306.714 31.2428 306.55 30.6343L305.925 28.3081L305.238 28.4789L304.947 27.3977L305.634 27.2269L305.252 25.8046L306.923 25.3891L307.306 26.8115L308.87 26.4225L309.161 27.5037L307.596 27.8926L308.07 29.6561C308.117 29.8304 308.16 29.9821 308.198 30.1113C308.236 30.2406 308.292 30.3511 308.366 30.4429C308.437 30.5355 308.536 30.5985 308.662 30.6317C308.788 30.665 308.956 30.6554 309.167 30.6031C309.254 30.5816 309.363 30.5356 309.494 30.4651C309.625 30.3947 309.715 30.3377 309.762 30.2943L309.902 30.2597L310.196 31.3542Z"/>
<path d="M316.381 29.7842L314.716 30.2232L314.56 29.676C314.315 29.9809 314.082 30.2252 313.859 30.4089C313.636 30.5926 313.347 30.7312 312.993 30.8247C312.419 30.9759 311.933 30.9349 311.533 30.7018C311.133 30.4687 310.846 30.0447 310.67 29.4297L309.75 26.2036L311.424 25.7621L312.125 28.2204C312.197 28.4704 312.265 28.6764 312.329 28.8381C312.393 28.9999 312.472 29.1271 312.565 29.2197C312.654 29.3131 312.766 29.3692 312.899 29.3879C313.032 29.4066 313.205 29.3879 313.417 29.3318C313.559 29.2944 313.709 29.228 313.868 29.1324C314.026 29.0369 314.171 28.9194 314.304 28.78L313.302 25.267L314.967 24.828L316.381 29.7842Z"/>
<path d="M320.645 24.8665L320.497 24.9081C320.42 24.9046 320.301 24.9191 320.141 24.9515C319.981 24.984 319.849 25.015 319.744 25.0444C319.508 25.1111 319.304 25.1847 319.132 25.265C318.96 25.3454 318.78 25.4502 318.593 25.5793L319.603 28.881L317.947 29.3488L316.439 24.4183L318.095 23.9505L318.317 24.6749C318.59 24.2733 318.847 23.9853 319.087 23.811C319.327 23.6367 319.561 23.5175 319.788 23.4534C319.846 23.437 319.912 23.4198 319.987 23.4019C320.061 23.3841 320.127 23.3703 320.184 23.3605L320.645 24.8665Z"/>
<path d="M326.972 24.3198L323.205 25.4681C323.356 25.8445 323.607 26.0915 323.956 26.2091C324.305 26.3267 324.754 26.3018 325.302 26.1346C325.65 26.0287 325.967 25.8664 326.254 25.6478C326.54 25.4292 326.755 25.2227 326.899 25.0285L327.082 24.9727L327.499 26.2332C327.174 26.489 326.858 26.6991 326.55 26.8634C326.242 27.0277 325.888 27.1707 325.489 27.2924C324.459 27.6064 323.597 27.6261 322.902 27.3514C322.207 27.0766 321.725 26.5307 321.455 25.7137C321.187 24.9053 321.236 24.1857 321.599 23.5548C321.962 22.9239 322.597 22.4705 323.502 22.1945C324.337 21.94 325.031 21.95 325.585 22.2245C326.138 22.499 326.54 23.0142 326.79 23.7702L326.972 24.3198ZM325.031 23.8984C324.913 23.5726 324.746 23.3515 324.53 23.235C324.314 23.1185 324.035 23.1122 323.694 23.2163C323.377 23.3129 323.142 23.4709 322.99 23.6901C322.837 23.9094 322.806 24.1957 322.896 24.5492L325.031 23.8984Z"/>
</g>
</g>
</g>
<g id="レイヤー-3">
<g opacity="1">
<path d="M68.7172 59.237C68.9566 56.0041 97.9572 63.1511 82.9385 51.5105C79.0503 39.582 75.6863 36.6518 66.839 30.424C57.0363 23.2461 40.8983 19.4804 30.0481 27.5858C19.1978 35.6911 17.5877 52.1283 23.438 62.8455C29.2882 73.5628 40.1307 59.7664 58.1518 63.8435C85.3655 72.997 69.3065 70.3176 81.8961 72.7464C94.4858 75.1752 68.4779 62.4699 68.7172 59.237Z" fill="#000000" fill-rule="nonzero" opacity="1" stroke="none"/>
<path d="M74.8721 69.4565C74.8789 70.1903 73.0682 71.0663 69.7516 71.9535C54.405 76.0586 28.8325 78.3337 23.824 62.7845C22.381 58.3046 35.9614 56.4141 38.9312 57.326C41.901 58.2378 74.834 65.3274 74.8721 69.4565Z" fill="#ffffff" fill-rule="nonzero" opacity="1" stroke="none"/>
<g opacity="1">
<path d="M80.5291 49.2197L86.1625 54.7316L73.589 53.0087C73.589 53.0087 71.1653 50.0318 73.8478 47.5797C76.5303 45.1275 80.5291 49.2197 80.5291 49.2197Z" fill="#800000" fill-rule="nonzero" opacity="1" stroke="none"/>
<g opacity="1">
<path d="M57.8172 61.7722C64.7809 60.8091 71.2247 66.0124 78.2975 71.9427C67.0663 74.2798 58.0548 76.684 45.8899 75.597C48.7753 67.5751 50.8534 62.7353 57.8172 61.7722Z" fill="#fe0000" fill-rule="nonzero" opacity="1" stroke="none"/>
<g opacity="1">
<path d="M111.104 75.2465C111.244 73.3552 105.34 68.2815 98.5359 63.4165C93.7095 59.9658 92.6977 59.7286 86.4653 54.8981C83.4139 51.2572 56.9117 50.7277 58.0859 64.9313C85.2996 74.0848 69.2406 71.4055 81.8302 73.8342C94.4199 76.263 110.864 78.4794 111.104 75.2465Z" fill="#737385" fill-rule="nonzero" opacity="1" stroke="none"/>
<g opacity="1">
<path d="M59.8847 59.0236C60.2193 57.7295 73.4005 60.6639 85.8967 64.7233C98.3928 68.7827 110.081 73.8577 109.869 75.2612C109.657 76.6647 100.484 71.2445 87.9883 67.1852C75.4921 63.1258 59.5502 60.3178 59.8847 59.0236Z" fill="#ffffff" fill-opacity="0.710938" fill-rule="nonzero" opacity="1" stroke="none"/>
<g opacity="1">
<path d="M57.1268 42.386L57.1268 42.386C55.0917 44.079 54.8313 47.0725 56.5453 49.0721L56.5453 49.0721C58.2592 51.0717 61.2985 51.3203 63.3336 49.6273L63.3336 49.6273C65.3688 47.9343 65.6292 44.9409 63.9152 42.9413L63.9152 42.9413C62.2012 40.9416 59.162 40.6931 57.1268 42.386Z" fill="#ffffff" fill-rule="nonzero" opacity="1" stroke="none"/>
<path d="M59.5418 44.0183L59.5418 44.0183C58.1581 45.1694 57.981 47.2047 59.1464 48.5643L59.1464 48.5643C60.3117 49.9239 62.3782 50.0929 63.7619 48.9418L63.7619 48.9418C65.1457 47.7907 65.3227 45.7554 64.1574 44.3958L64.1574 44.3958C62.992 43.0362 60.9255 42.8672 59.5418 44.0183Z" fill="#000000" fill-rule="nonzero" opacity="1" stroke="none"/>
</g>
</g>
</g>
</g>
</g>
</g>
</g>
</svg>
