<?xml version="1.0" encoding="UTF-8" standalone="no"?>
<!DOCTYPE svg PUBLIC "-//W3C//DTD SVG 1.1//EN" "http://www.w3.org/Graphics/SVG/1.1/DTD/svg11.dtd">
<!-- Created with Vectornator (http://vectornator.io/) -->
<svg height="100%" stroke-miterlimit="10" style="fill-rule:nonzero;clip-rule:evenodd;stroke-linecap:round;stroke-linejoin:round;" version="1.1" viewBox="0 0 396.9 113.4" width="100%" xml:space="preserve" xmlns="http://www.w3.org/2000/svg" xmlns:xlink="http://www.w3.org/1999/xlink">
<defs/>
<g id="レイヤー-1">
<g opacity="1">
<path d="M54.6368 34.7391L118.505 45.4762L226.629 72.5193C226.629 72.5193 171.207 115.423 92.0163 109.361C38.1465 105.238 10.7515 63.0534 10.7515 63.0534C10.7515 63.0534 9.96698 51.5183 16.8182 42.7862C23.6694 34.054 38.1564 25.5374 38.1564 25.5374L54.6368 34.7391Z" fill="#ffffff" fill-rule="nonzero" opacity="1" stroke="#080100" stroke-linecap="butt" stroke-linejoin="round" stroke-width="1"/>
<path d="M63.2494 7.37502C121.679 5.56044 257.409 4.47169 257.409 4.47169C257.409 4.47169 220.21 26.5513 189.181 33.8679C158.153 41.1845 119.864 46.5699 119.864 46.5699L37.8452 37.86C37.8452 37.86 25.2856 8.55402 63.2494 7.37502Z" fill="#000000" fill-rule="nonzero" opacity="1" stroke="#080100" stroke-linecap="butt" stroke-linejoin="round" stroke-width="1"/>
<path d="M82.6609 41.911C82.6609 41.911 148.057 43.4073 220.024 35.3525C291.992 27.2977 376.986 4.89362 376.986 4.89362C376.986 4.89362 368.362 25.1747 340.426 37.5141C303.851 53.6694 301.243 49.3037 301.243 52.9608C301.243 57.6285 304.145 52.2965 335.166 63.003C366.188 73.7096 390.999 95.3699 390.999 95.3699C390.999 95.3699 331.121 87.7439 278.399 81.7739C225.677 75.804 184.129 66.7499 184.129 66.7499L82.6609 41.911Z" fill="#000000" fill-rule="nonzero" opacity="1" stroke="#080100" stroke-linecap="butt" stroke-linejoin="round" stroke-width="1"/>
<path d="M3.99893 53.0194C4.49294 57.8244 12.1611 65.9657 12.1611 65.9657C12.1611 65.9657 17.821 70.9153 25.9499 72.9659C34.0788 75.0164 46.0233 71.3813 46.0233 71.3813C46.0233 71.3813 56.9579 64.7038 55.3357 57.5184C53.7134 50.333 50.4212 36.9723 50.4212 36.9723C50.4212 36.9723 43.6785 26.4133 39.5988 23.8954C37.4939 22.5963 23.8289 14.8619 8.80854 28.1111C0.837687 35.1421 3.75979 50.6935 3.99893 53.0194Z" fill="#080100" fill-rule="nonzero" opacity="1" stroke="#080100" stroke-linecap="butt" stroke-linejoin="round" stroke-width="1"/>
<g opacity="1">
<path d="M17.4503 40.9172C18.2736 38.0125 22.9086 36.1926 25.2121 38.3366C27.9231 40.8598 29.4831 45.1165 27.1485 48.8757C24.814 52.635 19.4298 49.9238 19.4298 49.9238C19.4298 49.9238 16.0089 46.0021 17.4503 40.9172Z" fill="#ffffff" fill-rule="nonzero" opacity="1" stroke="#080100" stroke-linecap="butt" stroke-linejoin="round" stroke-width="1"/>
<path d="M20.8608 44.2692C21.7033 42.9125 23.5042 42.5501 24.8831 43.4597C26.262 44.3693 26.6968 46.2065 25.8543 47.5632C25.0117 48.9199 23.2109 49.2823 21.832 48.3727C20.4531 47.4631 20.0183 45.6259 20.8608 44.2692Z" fill="#080100" fill-rule="nonzero" opacity="1" stroke="#080100" stroke-linecap="butt" stroke-linejoin="round" stroke-width="1"/>
</g>
<path d="M38.565 56.1158C38.565 56.1158 37.6166 50.5728 40.2508 47.2173C44.6478 41.6165 54.5306 50.8781 54.5306 50.8781C54.5306 50.8781 59.1425 59.0841 52.3739 66.349C48.1982 70.8309 38.565 56.1158 38.565 56.1158Z" fill="#b40000" fill-rule="nonzero" opacity="1" stroke="#080100" stroke-linecap="butt" stroke-linejoin="round" stroke-width="1"/>
<path d="M38.8954 35.3564C38.8954 35.3564 40.3194 35.9741 47.9863 44.6906C55.6531 53.4072 75.2498 63.2564 75.2498 63.2564C75.2498 63.2564 44.0664 57.8734 41.8262 55.3069C34.0664 46.4166 38.8954 35.3564 38.8954 35.3564Z" fill="#fcff00" fill-rule="nonzero" opacity="1" stroke="#080100" stroke-linecap="butt" stroke-linejoin="round" stroke-width="1"/>
<path d="M42.8248 27.0812C42.8248 27.0812 44.2489 27.6989 51.9157 36.4155C59.5825 45.132 75.5481 62.5899 75.5481 62.5899C75.5481 62.5899 66.2907 59.4814 56.8767 53.672C47.4627 47.8626 37.9802 37.786 37.9802 37.786L42.8248 27.0812Z" fill="#fcff00" fill-rule="nonzero" opacity="1" stroke="#080100" stroke-linecap="butt" stroke-linejoin="round" stroke-width="1"/>
<g fill="#000000" opacity="1" stroke="none">
<path d="M41.8452 80.2305L39.8425 78.7823L36.09 83.9785L34.4361 82.7827L38.1887 77.5864L36.186 76.1383L37.0858 74.8922L42.7451 78.9844L41.8452 80.2305Z"/>
<path d="M45.8326 86.5476C45.3294 87.395 44.6869 87.9167 43.9051 88.1125C43.1233 88.3084 42.2875 88.1423 41.3979 87.6141C40.5082 87.086 39.9622 86.4319 39.7599 85.6519C39.5576 84.8718 39.708 84.0581 40.2112 83.2107C40.7181 82.3571 41.3634 81.8341 42.1474 81.6416C42.9313 81.4491 43.7651 81.6151 44.6486 82.1396C45.5444 82.6713 46.0915 83.3271 46.2898 84.1068C46.4882 84.8866 46.3358 85.7002 45.8326 86.5476ZM43.0641 86.5986C43.2488 86.5303 43.4228 86.4195 43.586 86.266C43.7493 86.1126 43.9281 85.8722 44.1224 85.5449C44.3023 85.242 44.4256 84.9718 44.4925 84.7343C44.5594 84.4967 44.5804 84.2879 44.5555 84.1076C44.5325 83.9243 44.4679 83.7659 44.3617 83.6326C44.2555 83.4992 44.1231 83.3854 43.9647 83.2914C43.8063 83.1973 43.6526 83.1351 43.5038 83.1047C43.355 83.0743 43.1861 83.0898 42.997 83.1514C42.8256 83.211 42.6485 83.3272 42.4655 83.5C42.2826 83.6728 42.0976 83.9167 41.9105 84.2318C41.7433 84.5132 41.6244 84.7726 41.5535 85.0098C41.4827 85.2471 41.4603 85.4583 41.4864 85.6434C41.513 85.8206 41.5778 85.9769 41.6807 86.1125C41.7836 86.2481 41.9219 86.3674 42.0955 86.4705C42.2448 86.5591 42.4022 86.6184 42.5678 86.6484C42.7333 86.6784 42.8988 86.6618 43.0641 86.5986Z"/>
<path d="M51.1965 92.5757L49.2022 91.5846L48.8659 88.5034L48.1165 88.8402L47.2364 90.6078L45.5229 89.7564L49.2238 82.3226L50.9373 83.1741L48.7277 87.6124L51.7542 86.1604L53.7295 87.142L50.6554 88.4987L51.1965 92.5757Z"/>
<path d="M56.2023 92.3667L58.9348 89.2993L60.7547 90.0447L54.5705 96.3636L52.6522 95.5778L54.38 93.8635L54.4932 87.48L56.3524 88.2416L56.2023 92.3667Z"/>
<path d="M66.2271 95.0845C65.907 96.0165 65.384 96.6582 64.658 97.0099C63.9321 97.3615 63.0794 97.3701 62.1002 97.0357C61.1209 96.7013 60.4526 96.1732 60.0953 95.4517C59.738 94.7301 59.7194 93.9034 60.0395 92.9714C60.3619 92.0328 60.8875 91.3891 61.6163 91.0403C62.345 90.6914 63.1956 90.6831 64.1682 91.0153C65.1542 91.352 65.8239 91.8814 66.1772 92.6035C66.5306 93.3256 66.5472 94.1526 66.2271 95.0845ZM63.5253 95.7012C63.6924 95.5966 63.8402 95.4526 63.9689 95.2691C64.0975 95.0856 64.2236 94.8138 64.3472 94.4538C64.4617 94.1208 64.5274 93.8312 64.5445 93.5852C64.5615 93.3392 64.5395 93.1306 64.4784 92.9593C64.4185 92.7847 64.3229 92.6431 64.1916 92.5343C64.0603 92.4256 63.9075 92.3415 63.7331 92.2819C63.5587 92.2224 63.3955 92.1929 63.2435 92.1937C63.0915 92.1944 62.9292 92.2442 62.7566 92.3431C62.6008 92.4365 62.451 92.5865 62.307 92.7929C62.163 92.9993 62.0315 93.2758 61.9125 93.6223C61.8061 93.9319 61.7425 94.2099 61.7215 94.4565C61.7005 94.703 61.7216 94.9142 61.7849 95.0899C61.8472 95.2578 61.9425 95.3974 62.071 95.509C62.1994 95.6205 62.3592 95.7089 62.5504 95.7742C62.7147 95.8303 62.881 95.8561 63.0493 95.8515C63.2176 95.847 63.3763 95.7969 63.5253 95.7012Z"/>
<path d="M74.4008 100.409L69.9095 99.2584L70.2622 97.8948L71.5189 98.2167L72.8025 93.253L71.5458 92.9311L71.8984 91.5675L76.3896 92.7177L76.037 94.0813L74.7803 93.7595L73.4967 98.7231L74.7534 99.045L74.4008 100.409Z"/>
<path d="M81.7915 101.983L79.9062 101.594L80.5132 98.6858C80.5626 98.4491 80.5997 98.2107 80.6244 97.9707C80.6491 97.7308 80.6436 97.549 80.6078 97.4254C80.5653 97.2823 80.4833 97.1674 80.362 97.0807C80.2407 96.994 80.0603 96.926 79.8207 96.8767C79.6506 96.8416 79.472 96.8339 79.285 96.8535C79.0981 96.8731 78.8895 96.9227 78.6592 97.0024L77.7917 101.159L75.9168 100.773L77.1406 94.9088L79.0155 95.2948L78.8804 95.9424C79.2682 95.7499 79.6303 95.6157 79.9666 95.5397C80.3029 95.4637 80.6586 95.4643 81.0336 95.5415C81.6655 95.6716 82.1209 95.9578 82.3998 96.4001C82.6786 96.8424 82.7414 97.4309 82.5881 98.1654L81.7915 101.983Z"/>
<path d="M88.9554 101.214C88.8572 101.825 88.5048 102.274 87.8984 102.562C87.292 102.85 86.5142 102.919 85.5652 102.769C85.0399 102.686 84.5715 102.562 84.1601 102.396C83.7486 102.23 83.4229 102.067 83.183 101.907L83.4336 100.348L83.607 100.376C83.6908 100.457 83.7885 100.547 83.9002 100.646C84.0118 100.745 84.1741 100.857 84.387 100.985C84.5701 101.096 84.7814 101.201 85.0207 101.298C85.26 101.395 85.5215 101.466 85.8052 101.511C86.1764 101.569 86.4579 101.571 86.6498 101.517C86.8417 101.463 86.9506 101.355 86.9766 101.193C86.9997 101.05 86.964 100.937 86.8694 100.855C86.7748 100.774 86.5852 100.68 86.3006 100.574C86.1656 100.52 85.9811 100.456 85.7471 100.381C85.5132 100.306 85.3024 100.227 85.1147 100.144C84.6015 99.9188 84.2392 99.6375 84.0277 99.3C83.8163 98.9624 83.7461 98.5725 83.8173 98.1301C83.9087 97.5614 84.2536 97.1307 84.8518 96.8382C85.4501 96.5456 86.215 96.4728 87.1465 96.6198C87.5878 96.6894 88.0034 96.8009 88.3935 96.9542C88.7836 97.1076 89.0843 97.2531 89.2956 97.3908L89.055 98.8864L88.8922 98.8607C88.6431 98.6234 88.3488 98.4159 88.0093 98.2381C87.6698 98.0603 87.3162 97.9425 86.9485 97.8844C86.6439 97.8364 86.3806 97.838 86.1586 97.8894C85.9367 97.9408 85.8133 98.0437 85.7885 98.1982C85.7659 98.3386 85.796 98.4531 85.8787 98.5418C85.9614 98.6304 86.1719 98.7392 86.5102 98.8682C86.6966 98.9372 86.8981 99.0077 87.1145 99.0797C87.331 99.1516 87.5467 99.2333 87.7618 99.3249C88.2382 99.5332 88.5731 99.7958 88.7663 100.112C88.9596 100.429 89.0226 100.796 88.9554 101.214Z"/>
<path d="M93.7143 103.649C93.5035 103.678 93.2819 103.693 93.0493 103.695C92.8168 103.697 92.5351 103.678 92.2043 103.638C91.4651 103.548 90.9338 103.331 90.6105 102.987C90.2872 102.643 90.1708 102.108 90.2616 101.381L90.6084 98.6031L89.827 98.5081L89.9881 97.2168L90.7695 97.3118L90.9816 95.6131L92.8823 95.8443L92.6702 97.543L94.4495 97.7594L94.2883 99.0507L92.509 98.8343L92.2461 100.941C92.2202 101.149 92.1992 101.331 92.1834 101.486C92.1675 101.642 92.1783 101.785 92.2157 101.915C92.2495 102.044 92.3244 102.153 92.4404 102.24C92.5563 102.328 92.7339 102.386 92.9733 102.415C93.0718 102.427 93.2038 102.422 93.3692 102.399C93.5347 102.376 93.6513 102.351 93.719 102.323L93.8774 102.342L93.7143 103.649Z"/>
<path d="M96.7524 103.991L94.8462 103.809L95.4348 97.8493L97.341 98.0312L96.7524 103.991ZM97.4778 97.1872L95.4657 96.9951L95.6088 95.5463L97.6209 95.7384L97.4778 97.1872Z"/>
<path d="M102.368 104.362C102.159 104.401 101.938 104.427 101.706 104.441C101.474 104.455 101.192 104.451 100.859 104.427C100.116 104.375 99.5747 104.185 99.2343 103.859C98.8939 103.532 98.7506 103.003 98.8045 102.273L99.0103 99.481L98.225 99.4258L98.3206 98.1283L99.106 98.1835L99.2318 96.4765L101.142 96.6108L101.016 98.3178L102.805 98.4435L102.709 99.741L100.921 99.6153L100.765 101.732C100.749 101.941 100.737 102.124 100.729 102.28C100.722 102.436 100.74 102.578 100.783 102.706C100.824 102.834 100.904 102.938 101.024 103.02C101.145 103.101 101.325 103.15 101.566 103.167C101.665 103.174 101.796 103.162 101.96 103.131C102.124 103.1 102.24 103.069 102.306 103.038L102.465 103.049L102.368 104.362Z"/>
<path d="M109.456 104.697L107.542 104.629L107.568 103.969C107.203 104.226 106.871 104.42 106.571 104.55C106.271 104.68 105.918 104.738 105.51 104.723C104.851 104.7 104.35 104.492 104.009 104.1C103.667 103.707 103.511 103.14 103.54 102.397L103.691 98.503L105.615 98.5706L105.5 101.538C105.489 101.84 105.489 102.092 105.5 102.293C105.512 102.494 105.551 102.662 105.617 102.796C105.679 102.93 105.777 103.029 105.911 103.094C106.045 103.16 106.235 103.196 106.479 103.205C106.642 103.211 106.824 103.187 107.025 103.134C107.226 103.08 107.421 102.998 107.61 102.887L107.774 98.6466L109.688 98.7139L109.456 104.697Z"/>
<path d="M115.086 104.66C114.88 104.713 114.661 104.754 114.431 104.784C114.2 104.814 113.918 104.828 113.584 104.828C112.839 104.826 112.286 104.674 111.924 104.371C111.562 104.069 111.383 103.551 111.387 102.819L111.403 100.02L110.616 100.019L110.623 98.7182L111.41 98.7197L111.42 97.0085L113.335 97.0121L113.326 98.7233L115.119 98.7266L115.112 100.027L113.318 100.024L113.307 102.146C113.305 102.355 113.306 102.538 113.309 102.695C113.312 102.851 113.339 102.992 113.392 103.116C113.441 103.241 113.528 103.339 113.653 103.412C113.779 103.486 113.962 103.522 114.203 103.523C114.303 103.523 114.433 103.502 114.595 103.46C114.757 103.417 114.869 103.378 114.933 103.343L115.093 103.343L115.086 104.66Z"/>
<path d="M122.041 101.884L117.658 102.021C117.699 102.489 117.887 102.842 118.222 103.081C118.557 103.319 119.044 103.428 119.682 103.408C120.086 103.396 120.476 103.31 120.851 103.153C121.227 102.995 121.522 102.83 121.737 102.656L121.95 102.649L121.992 104.189C121.565 104.377 121.16 104.516 120.78 104.606C120.399 104.696 119.976 104.748 119.512 104.763C118.313 104.8 117.387 104.559 116.734 104.039C116.081 103.519 115.741 102.76 115.713 101.762C115.686 100.775 115.967 99.9827 116.556 99.3866C117.144 98.7904 117.965 98.4758 119.018 98.4428C119.99 98.4124 120.727 98.6355 121.23 99.1121C121.733 99.5887 121.997 100.289 122.022 101.212L122.041 101.884ZM120.106 100.819C120.084 100.418 119.976 100.119 119.783 99.9227C119.589 99.7261 119.294 99.6341 118.897 99.6465C118.528 99.6581 118.228 99.7635 117.995 99.9627C117.763 100.162 117.639 100.473 117.622 100.897L120.106 100.819Z"/>
<path d="M133.003 100.657C133.089 101.637 132.872 102.436 132.352 103.053C131.831 103.67 131.055 104.026 130.023 104.122C128.991 104.217 128.165 104.009 127.544 103.497C126.924 102.985 126.57 102.239 126.484 101.259C126.396 100.272 126.615 99.4701 127.139 98.8544C127.664 98.2386 128.438 97.8834 129.463 97.7887C130.502 97.6927 131.33 97.9016 131.947 98.4154C132.564 98.9292 132.916 99.6762 133.003 100.657ZM130.783 102.323C130.893 102.159 130.97 101.967 131.013 101.748C131.055 101.528 131.06 101.228 131.027 100.85C130.996 100.499 130.938 100.209 130.853 99.9775C130.769 99.7462 130.664 99.5651 130.538 99.434C130.412 99.2993 130.267 99.2093 130.103 99.1638C129.939 99.1183 129.765 99.1041 129.581 99.1211C129.397 99.1381 129.236 99.1779 129.097 99.2407C128.958 99.3035 128.83 99.4152 128.713 99.576C128.608 99.7247 128.532 99.9226 128.485 100.17C128.437 100.417 128.429 100.722 128.461 101.087C128.49 101.413 128.545 101.692 128.626 101.925C128.708 102.159 128.813 102.342 128.942 102.477C129.068 102.604 129.212 102.693 129.374 102.742C129.537 102.791 129.72 102.806 129.921 102.788C130.094 102.772 130.257 102.727 130.409 102.654C130.561 102.581 130.686 102.471 130.783 102.323Z"/>
<path d="M137.644 96.1383L137.501 96.1562C137.414 96.1421 137.3 96.1277 137.161 96.113C137.021 96.0983 136.874 96.1006 136.719 96.1201C136.346 96.1669 136.101 96.2657 135.986 96.4162C135.87 96.5668 135.835 96.8343 135.882 97.2187L135.888 97.2663L137.356 97.0819L137.513 98.3726L136.108 98.5489L136.672 103.198L134.771 103.437L134.206 98.7876L133.393 98.8898L133.236 97.5991L134.05 97.497L134.03 97.333C133.942 96.6066 134.068 96.0376 134.41 95.626C134.751 95.2144 135.313 94.9595 136.095 94.8614C136.376 94.826 136.633 94.8036 136.864 94.7943C137.095 94.785 137.301 94.7851 137.481 94.7947L137.644 96.1383Z"/>
<path d="M147.992 94.8971L145.555 95.3328L146.655 101.636L144.642 101.995L143.542 95.6926L141.105 96.1283L140.841 94.6169L147.728 93.3857L147.992 94.8971Z"/>
<path d="M155.393 97.1285L151.106 98.0666C151.232 98.5188 151.482 98.8314 151.855 99.0042C152.227 99.177 152.726 99.1951 153.35 99.0585C153.746 98.972 154.114 98.817 154.454 98.5934C154.795 98.3698 155.055 98.1529 155.235 97.9427L155.443 97.8972L155.766 99.4023C155.379 99.665 155.007 99.8755 154.649 100.034C154.291 100.192 153.884 100.321 153.43 100.421C152.258 100.677 151.303 100.61 150.565 100.219C149.828 99.8275 149.355 99.1441 149.145 98.1685C148.938 97.2033 149.07 96.3739 149.54 95.6803C150.011 94.9867 150.761 94.5272 151.791 94.3018C152.741 94.0939 153.507 94.178 154.089 94.5541C154.671 94.9302 155.058 95.5696 155.252 96.4723L155.393 97.1285ZM153.295 96.4372C153.2 96.0472 153.04 95.7733 152.813 95.6156C152.587 95.458 152.28 95.4216 151.891 95.5066C151.531 95.5856 151.254 95.7442 151.062 95.9825C150.87 96.2209 150.804 96.5496 150.865 96.9689L153.295 96.4372Z"/>
<path d="M160.316 98.7601C159.81 98.8896 159.333 98.9477 158.885 98.9343C158.437 98.9209 158.026 98.8282 157.653 98.6562C157.284 98.4833 156.967 98.2274 156.702 97.8884C156.437 97.5495 156.24 97.1235 156.111 96.6105C155.975 96.07 155.948 95.5803 156.029 95.1416C156.111 94.7028 156.281 94.3129 156.54 93.9718C156.791 93.6471 157.107 93.3756 157.488 93.1571C157.868 92.9386 158.279 92.7729 158.719 92.6601C159.115 92.5587 159.49 92.5083 159.846 92.5089C160.201 92.5094 160.54 92.5416 160.864 92.6052L161.263 94.1907L161 94.2581C160.912 94.2146 160.807 94.1646 160.685 94.108C160.563 94.0513 160.418 94.0024 160.25 93.9611C160.09 93.9215 159.919 93.8983 159.738 93.8916C159.557 93.8849 159.354 93.9102 159.131 93.9675C158.636 94.0944 158.294 94.3495 158.107 94.7328C157.92 95.1162 157.894 95.5781 158.03 96.1186C158.171 96.6764 158.414 97.0648 158.76 97.284C159.107 97.5031 159.531 97.5483 160.033 97.4196C160.267 97.3597 160.471 97.279 160.645 97.1776C160.819 97.0762 160.959 96.9735 161.064 96.8694C161.164 96.7706 161.249 96.6719 161.319 96.5732C161.39 96.4745 161.454 96.3794 161.511 96.2877L161.774 96.2202L162.174 97.8057C161.916 98.0183 161.638 98.2059 161.34 98.3683C161.043 98.5307 160.701 98.6613 160.316 98.7601Z"/>
<path d="M169.234 96.0625L167.384 96.6089L166.556 93.7611C166.488 93.5293 166.409 93.3019 166.318 93.0789C166.228 92.8558 166.137 92.6983 166.048 92.6064C165.943 92.5004 165.817 92.4378 165.669 92.4186C165.521 92.3994 165.329 92.4245 165.094 92.4939C164.927 92.5432 164.766 92.6206 164.61 92.7259C164.453 92.8313 164.292 92.9733 164.126 93.1519L165.31 97.2217L163.471 97.765L161.156 89.8096L162.996 89.2662L163.824 92.114C164.077 91.7618 164.334 91.473 164.596 91.2476C164.857 91.0222 165.172 90.8552 165.54 90.7465C166.16 90.5634 166.697 90.6009 167.151 90.859C167.605 91.1172 167.937 91.6059 168.146 92.3251L169.234 96.0625Z"/>
<path d="M176.607 93.5986L174.78 94.2178L173.84 91.4056C173.763 91.1767 173.675 90.9526 173.576 90.7334C173.476 90.5142 173.38 90.3604 173.286 90.2721C173.178 90.1703 173.049 90.1128 172.9 90.0995C172.751 90.0862 172.561 90.1189 172.329 90.1975C172.164 90.2534 172.006 90.3371 171.854 90.4485C171.702 90.56 171.547 90.7082 171.388 90.8933L172.732 94.9123L170.915 95.5281L169.019 89.8581L170.835 89.2423L171.045 89.8684C171.283 89.5065 171.529 89.2077 171.782 88.9722C172.034 88.7366 172.342 88.5572 172.705 88.4341C173.318 88.2265 173.856 88.2427 174.32 88.4826C174.784 88.7225 175.135 89.1976 175.372 89.9078L176.607 93.5986Z"/>
<path d="M182.922 88.0162C183.269 88.9356 183.276 89.7626 182.94 90.4971C182.604 91.2316 181.952 91.7844 180.984 92.1552C180.015 92.5261 179.162 92.5494 178.426 92.2252C177.69 91.9009 177.148 91.279 176.801 90.3596C176.45 89.4336 176.445 88.6035 176.784 87.8693C177.124 87.1352 177.775 86.5839 178.737 86.2156C179.712 85.8421 180.567 85.819 181.3 86.1462C182.033 86.4734 182.574 87.0967 182.922 88.0162ZM181.231 90.2194C181.293 90.0322 181.315 89.8271 181.298 89.6041C181.28 89.381 181.204 89.0919 181.069 88.7368C180.945 88.4082 180.811 88.1441 180.667 87.9446C180.523 87.7451 180.373 87.5993 180.217 87.5071C180.059 87.4117 179.895 87.3643 179.724 87.3651C179.554 87.3658 179.382 87.3992 179.21 87.4652C179.037 87.5313 178.892 87.6133 178.776 87.7112C178.659 87.8091 178.565 87.9512 178.495 88.1376C178.435 88.309 178.415 88.5199 178.436 88.7704C178.456 89.0209 178.531 89.3171 178.661 89.6589C178.776 89.9643 178.904 90.2182 179.046 90.4207C179.187 90.6231 179.338 90.7714 179.499 90.8656C179.654 90.9544 179.817 91.0004 179.987 91.0036C180.157 91.0068 180.337 90.9723 180.526 90.8999C180.688 90.8376 180.833 90.7509 180.96 90.6396C181.087 90.5283 181.177 90.3882 181.231 90.2194Z"/>
<path d="M187.014 89.5312L185.243 90.2683L182.092 82.6098L183.863 81.8726L187.014 89.5312Z"/>
<path d="M193.05 83.5951C193.451 84.4926 193.504 85.3176 193.212 86.0702C192.919 86.8229 192.3 87.4124 191.354 87.8387C190.408 88.2651 189.558 88.3378 188.805 88.0569C188.051 87.7759 187.474 87.1867 187.074 86.2892C186.67 85.3852 186.617 84.5569 186.913 83.8045C187.21 83.052 187.828 82.4641 188.767 82.0406C189.72 81.6113 190.572 81.5387 191.323 81.8227C192.074 82.1068 192.65 82.6976 193.05 83.5951ZM191.49 85.8922C191.541 85.7018 191.551 85.4957 191.52 85.2742C191.489 85.0526 191.397 84.7685 191.242 84.4218C191.099 84.101 190.95 83.8452 190.795 83.6544C190.64 83.4636 190.481 83.3268 190.32 83.2439C190.157 83.1578 189.99 83.12 189.82 83.1307C189.65 83.1413 189.48 83.1846 189.312 83.2605C189.143 83.3364 189.004 83.4267 188.893 83.5312C188.782 83.6357 188.697 83.783 188.637 83.9731C188.587 84.1476 188.579 84.3593 188.614 84.6081C188.649 84.8569 188.741 85.1482 188.89 85.4819C189.023 85.78 189.166 86.026 189.319 86.2198C189.471 86.4137 189.631 86.553 189.797 86.6376C189.957 86.7173 190.122 86.7538 190.292 86.7471C190.462 86.7405 190.64 86.6955 190.824 86.6123C190.983 86.5407 191.123 86.4457 191.243 86.3273C191.363 86.2088 191.445 86.0638 191.49 85.8922Z"/>
<path d="M200.406 82.504C200.655 83.0061 200.793 83.4646 200.821 83.8794C200.848 84.2942 200.781 84.663 200.62 84.9857C200.46 85.3116 200.22 85.6094 199.9 85.8789C199.579 86.1485 199.19 86.3979 198.732 86.627C198.361 86.8132 197.983 86.9744 197.601 87.1105C197.218 87.2466 196.879 87.3489 196.584 87.4175L195.919 86.078L196.129 85.973C196.38 85.9506 196.673 85.898 197.009 85.8151C197.344 85.7323 197.631 85.6312 197.87 85.5118C198.188 85.3527 198.431 85.194 198.601 85.0358C198.77 84.8775 198.88 84.7181 198.932 84.5576C198.98 84.4066 198.987 84.2405 198.952 84.0593C198.918 83.8781 198.846 83.6763 198.735 83.4539L198.686 83.3538C198.563 83.6256 198.4 83.8737 198.198 84.0979C197.996 84.3221 197.74 84.5114 197.432 84.6658C196.682 85.0413 195.992 85.1053 195.361 84.8577C194.731 84.6102 194.187 84.0256 193.73 83.1041C193.511 82.6624 193.383 82.25 193.348 81.867C193.313 81.484 193.349 81.1168 193.456 80.7655C193.556 80.438 193.728 80.1355 193.973 79.8581C194.218 79.5806 194.501 79.3615 194.822 79.2007C195.111 79.0559 195.391 78.9584 195.662 78.9082C195.933 78.858 196.195 78.8447 196.448 78.8684L196.392 78.599L198.056 77.766L200.406 82.504ZM198.158 82.2908L196.955 79.8646C196.836 79.8726 196.699 79.9005 196.544 79.9483C196.389 79.9961 196.254 80.0486 196.14 80.1059C195.689 80.3318 195.415 80.6308 195.317 81.0028C195.22 81.3747 195.287 81.7927 195.517 82.2567C195.772 82.7715 196.047 83.0824 196.34 83.1895C196.633 83.2966 196.969 83.2555 197.347 83.0661C197.518 82.9802 197.673 82.8689 197.812 82.7321C197.95 82.5953 198.066 82.4482 198.158 82.2908Z"/>
<path d="M203.656 79.1064L202.983 75.0609L204.707 74.1019L205.744 82.8699L203.927 83.8807L203.677 81.4628L198.776 77.4013L200.537 76.4216L203.656 79.1064Z"/>
</g>
<g fill="#ffffff" opacity="1" stroke="none">
<path d="M160.846 50.3381C160.867 50.6508 160.829 50.9473 160.731 51.2279C160.633 51.5084 160.475 51.7504 160.258 51.9539C160.028 52.171 159.746 52.346 159.41 52.4788C159.074 52.6117 158.652 52.6949 158.145 52.7286C157.802 52.7513 157.477 52.7608 157.172 52.757C156.867 52.7532 156.598 52.7366 156.365 52.7072L156.265 51.262L156.446 51.2501C156.61 51.2969 156.78 51.3393 156.957 51.3772C157.134 51.4152 157.357 51.4252 157.627 51.4073C157.978 51.384 158.244 51.3215 158.426 51.2197C158.608 51.1179 158.734 50.9845 158.803 50.8197C158.869 50.6583 158.901 50.4839 158.898 50.2966C158.895 50.1094 158.884 49.8705 158.864 49.5802L158.669 46.7425L156.963 46.8556L156.873 45.5444L160.501 45.3038L160.846 50.3381Z"/>
<path d="M165.983 50.6495L165.895 49.5305C165.653 49.5681 165.392 49.6144 165.111 49.6694C164.83 49.7244 164.618 49.7798 164.475 49.8355C164.3 49.9034 164.168 49.9927 164.082 50.1035C163.995 50.2144 163.958 50.3543 163.971 50.5232C163.98 50.6348 163.997 50.7249 164.023 50.7935C164.048 50.8621 164.104 50.9253 164.189 50.983C164.27 51.0409 164.366 51.081 164.475 51.1031C164.584 51.1253 164.752 51.1278 164.978 51.1106C165.158 51.0969 165.338 51.048 165.518 50.9638C165.697 50.8797 165.852 50.7749 165.983 50.6495ZM166.049 51.4815C165.958 51.559 165.844 51.6526 165.709 51.7623C165.573 51.872 165.445 51.9604 165.323 52.0274C165.152 52.1173 164.973 52.1878 164.786 52.2389C164.599 52.29 164.392 52.3241 164.165 52.3413C163.632 52.3818 163.173 52.2579 162.788 51.9696C162.403 51.6814 162.191 51.2918 162.153 50.8008C162.122 50.4087 162.188 50.0814 162.352 49.8188C162.515 49.5562 162.76 49.3404 163.085 49.1714C163.407 49.0026 163.812 48.8692 164.301 48.7712C164.789 48.6732 165.297 48.5897 165.825 48.5208L165.823 48.4921C165.799 48.1956 165.656 48.0004 165.394 47.9065C165.132 47.8125 164.754 47.7843 164.261 47.8217C163.964 47.8443 163.651 47.9185 163.323 48.0445C162.994 48.1705 162.759 48.2661 162.616 48.3315L162.451 48.344L162.349 47.0481C162.535 46.9858 162.84 46.9058 163.263 46.8079C163.686 46.71 164.112 46.6448 164.542 46.6121C165.565 46.5345 166.316 46.629 166.795 46.8957C167.274 47.1624 167.539 47.6177 167.59 48.2617L167.879 51.9151L166.094 52.0506L166.049 51.4815Z"/>
<path d="M175.146 48.5333C175.185 48.9761 175.15 49.3851 175.04 49.7601C174.931 50.1352 174.771 50.4502 174.562 50.7053C174.344 50.9739 174.089 51.1847 173.797 51.3376C173.506 51.4904 173.186 51.5814 172.84 51.6105C172.52 51.6374 172.246 51.6275 172.017 51.581C171.788 51.5344 171.552 51.462 171.308 51.3637L171.505 53.6001L169.706 53.7511L169.062 46.4161L170.86 46.265L170.909 46.8241C171.167 46.5906 171.435 46.3965 171.711 46.2417C171.988 46.0868 172.314 45.9936 172.691 45.962C173.39 45.9033 173.956 46.1029 174.387 46.5609C174.818 47.0189 175.071 47.6764 175.146 48.5333ZM173.296 48.7225C173.25 48.2 173.123 47.8287 172.916 47.6087C172.709 47.3886 172.404 47.2955 172.001 47.3293C171.831 47.3436 171.658 47.383 171.483 47.4475C171.307 47.512 171.142 47.5972 170.987 47.7033L171.224 50.4032C171.348 50.4377 171.479 50.4556 171.616 50.4569C171.754 50.4582 171.889 50.4532 172.023 50.442C172.499 50.402 172.842 50.2392 173.052 49.9536C173.262 49.6681 173.343 49.2577 173.296 48.7225Z"/>
<path d="M179.948 49.4661L179.841 48.3487C179.6 48.3899 179.34 48.4401 179.06 48.4993C178.78 48.5585 178.569 48.6171 178.427 48.675C178.253 48.7455 178.123 48.8368 178.038 48.9489C177.953 49.061 177.919 49.2014 177.935 49.3702C177.945 49.4816 177.964 49.5714 177.991 49.6396C178.017 49.7078 178.074 49.7701 178.16 49.8265C178.242 49.8832 178.338 49.9219 178.448 49.9424C178.557 49.9629 178.725 49.9629 178.951 49.9423C179.131 49.9259 179.31 49.8743 179.488 49.7874C179.666 49.7006 179.82 49.5935 179.948 49.4661ZM180.028 50.297C179.938 50.3759 179.826 50.4711 179.693 50.5829C179.559 50.6946 179.432 50.7849 179.31 50.8537C179.141 50.9462 178.964 51.0193 178.777 51.0732C178.591 51.1271 178.385 51.1644 178.159 51.185C177.626 51.2335 177.165 51.1165 176.775 50.8341C176.386 50.5517 176.167 50.1653 176.121 49.6751C176.083 49.2835 176.144 48.9552 176.303 48.6902C176.463 48.4252 176.704 48.2058 177.026 48.0319C177.345 47.8583 177.748 47.7189 178.235 47.6135C178.722 47.5082 179.229 47.4171 179.755 47.3402L179.752 47.3115C179.724 47.0155 179.578 46.8225 179.314 46.7325C179.05 46.6425 178.672 46.62 178.18 46.6648C177.883 46.6918 177.572 46.7707 177.245 46.9016C176.919 47.0325 176.685 47.1317 176.544 47.1992L176.379 47.2142L176.255 45.9201C176.44 45.855 176.743 45.7704 177.165 45.6662C177.586 45.562 178.012 45.4903 178.441 45.4512C179.463 45.3581 180.216 45.4413 180.699 45.7008C181.182 45.9603 181.454 46.4115 181.516 47.0546L181.865 50.703L180.082 50.8653L180.028 50.297Z"/>
<path d="M189.145 49.9972L187.339 50.1738L187.066 47.5157C187.043 47.2994 187.009 47.085 186.964 46.8725C186.919 46.66 186.862 46.5057 186.795 46.4094C186.717 46.2982 186.611 46.2218 186.477 46.1802C186.343 46.1387 186.162 46.1291 185.932 46.1515C185.769 46.1675 185.606 46.2091 185.444 46.2764C185.281 46.3437 185.107 46.4427 184.922 46.5732L185.313 50.3718L183.517 50.5473L182.966 45.1883L184.762 45.0127L184.823 45.6045C185.117 45.3346 185.405 45.1217 185.687 44.9657C185.968 44.8097 186.288 44.7141 186.648 44.679C187.253 44.6198 187.744 44.7422 188.119 45.0461C188.495 45.35 188.717 45.8376 188.786 46.5088L189.145 49.9972Z"/>
<path d="M196.051 46.8948L191.943 47.3226C192.016 47.7395 192.218 48.0432 192.55 48.2337C192.882 48.4242 193.347 48.4884 193.945 48.426C194.324 48.3866 194.684 48.2832 195.026 48.1158C195.367 47.9484 195.633 47.7793 195.822 47.6084L196.022 47.5876L196.173 48.9658C195.785 49.1638 195.415 49.3165 195.064 49.4238C194.712 49.5311 194.319 49.6074 193.883 49.6528C192.76 49.7698 191.872 49.6178 191.221 49.1969C190.569 48.7759 190.195 48.1188 190.096 47.2255C189.999 46.3417 190.206 45.6119 190.716 45.0363C191.226 44.4607 191.974 44.1215 192.962 44.0187C193.872 43.9238 194.581 44.0727 195.088 44.4652C195.596 44.8578 195.895 45.4674 195.985 46.2939L196.051 46.8948ZM194.156 46.0745C194.106 45.7163 193.984 45.4557 193.787 45.2928C193.591 45.13 193.307 45.0679 192.935 45.1067C192.589 45.1427 192.314 45.2581 192.111 45.453C191.907 45.6479 191.812 45.9358 191.827 46.3169L194.156 46.0745Z"/>
<path d="M202.243 46.8869C202.308 47.4397 202.1 47.9138 201.621 48.309C201.142 48.7043 200.453 48.9514 199.552 49.0503C199.054 49.105 198.597 49.1101 198.182 49.0657C197.766 49.0212 197.429 48.9585 197.171 48.8775L197.007 47.4669L197.171 47.4488C197.268 47.4993 197.379 47.5538 197.506 47.6124C197.632 47.6709 197.808 47.7296 198.033 47.7885C198.228 47.8411 198.446 47.8807 198.688 47.9072C198.93 47.9337 199.185 47.9322 199.454 47.9027C199.807 47.864 200.063 47.798 200.224 47.7048C200.385 47.6115 200.456 47.4918 200.439 47.3456C200.424 47.2154 200.364 47.1263 200.257 47.0785C200.151 47.0307 199.955 46.9951 199.669 46.9717C199.533 46.9577 199.349 46.9465 199.118 46.9382C198.886 46.9298 198.675 46.912 198.483 46.8848C197.96 46.8135 197.56 46.6572 197.283 46.4157C197.006 46.1742 196.845 45.8533 196.798 45.453C196.738 44.9383 196.944 44.4822 197.414 44.0847C197.884 43.6872 198.561 43.4399 199.445 43.3428C199.863 43.2968 200.269 43.2933 200.662 43.3322C201.055 43.371 201.365 43.4247 201.592 43.4931L201.749 44.8465L201.595 44.8635C201.308 44.718 200.989 44.6091 200.636 44.5369C200.282 44.4646 199.931 44.4477 199.583 44.486C199.293 44.5177 199.055 44.5826 198.866 44.6806C198.677 44.7785 198.591 44.8974 198.607 45.0372C198.622 45.1643 198.678 45.2562 198.775 45.3131C198.873 45.37 199.091 45.4135 199.431 45.4438C199.618 45.4586 199.819 45.4712 200.034 45.4814C200.249 45.4916 200.465 45.5104 200.684 45.5379C201.169 45.6036 201.539 45.7504 201.795 45.9781C202.05 46.2059 202.199 46.5088 202.243 46.8869Z"/>
<path d="M208.85 45.4556L204.747 45.9294C204.824 46.3455 205.03 46.6469 205.365 46.8336C205.699 47.0204 206.165 47.0793 206.762 47.0103C207.141 46.9666 207.5 46.8592 207.839 46.688C208.178 46.5168 208.442 46.3447 208.629 46.1717L208.829 46.1487L208.997 47.525C208.611 47.7274 208.243 47.8842 207.893 47.9954C207.543 48.1067 207.151 48.1874 206.716 48.2376C205.594 48.3672 204.704 48.2252 204.048 47.8116C203.391 47.398 203.008 46.7452 202.899 45.853C202.791 44.9704 202.989 44.2384 203.491 43.6572C203.994 43.0759 204.739 42.7283 205.725 42.6145C206.634 42.5094 207.345 42.6503 207.857 43.0371C208.369 43.424 208.676 44.0301 208.777 44.8556L208.85 45.4556ZM206.944 44.6566C206.89 44.299 206.764 44.0399 206.566 43.8792C206.368 43.7186 206.083 43.6597 205.711 43.7027C205.366 43.7425 205.093 43.861 204.891 44.0582C204.69 44.2553 204.599 44.5443 204.619 44.9252L206.944 44.6566Z"/>
<path d="M219.328 46.5643L213.986 47.2287L213.05 40.1458L214.96 39.9082L215.715 45.6212L219.147 45.1943L219.328 46.5643Z"/>
<path d="M223.564 44.5964L223.41 43.4842C223.171 43.5347 222.912 43.5949 222.635 43.6649C222.358 43.7349 222.15 43.8015 222.01 43.8649C221.839 43.942 221.713 44.0383 221.633 44.1536C221.553 44.2688 221.524 44.4105 221.547 44.5784C221.563 44.6893 221.585 44.7783 221.615 44.8454C221.644 44.9126 221.703 44.9726 221.792 45.0256C221.877 45.0791 221.974 45.114 222.084 45.1302C222.195 45.1465 222.362 45.14 222.588 45.1106C222.767 45.0873 222.943 45.0288 223.117 44.9352C223.292 44.8415 223.44 44.7286 223.564 44.5964ZM223.678 45.4234C223.592 45.5056 223.484 45.6051 223.355 45.7219C223.227 45.8387 223.103 45.9338 222.985 46.0073C222.82 46.1062 222.646 46.1862 222.462 46.2472C222.278 46.3083 222.073 46.3535 221.848 46.3828C221.318 46.4519 220.852 46.3529 220.451 46.0858C220.049 45.8187 219.815 45.4412 219.747 44.9532C219.693 44.5635 219.74 44.2332 219.888 43.9623C220.036 43.6914 220.268 43.4628 220.583 43.2766C220.894 43.0909 221.291 42.9359 221.773 42.8118C222.255 42.6878 222.758 42.5771 223.281 42.48L223.277 42.4515C223.236 42.1568 223.082 41.9696 222.815 41.8899C222.547 41.8102 222.168 41.8023 221.678 41.8662C221.383 41.9046 221.075 41.9956 220.754 42.139C220.433 42.2824 220.204 42.3905 220.065 42.4634L219.901 42.4847L219.723 41.1967C219.905 41.1245 220.205 41.0283 220.622 40.9078C221.038 40.7874 221.461 40.6993 221.888 40.6437C222.905 40.5111 223.661 40.5651 224.155 40.8056C224.648 41.0462 224.94 41.4865 225.028 42.1265L225.531 45.7578L223.757 45.989L223.678 45.4234Z"/>
<path d="M232.777 44.7739L230.98 45.0194L230.595 42.3744C230.564 42.1591 230.521 41.9462 230.467 41.7357C230.412 41.5252 230.35 41.3731 230.279 41.2795C230.196 41.1714 230.086 41.0991 229.951 41.0627C229.816 41.0263 229.634 41.0237 229.405 41.0549C229.243 41.0771 229.082 41.1249 228.922 41.1984C228.763 41.2719 228.593 41.3774 228.414 41.5148L228.963 45.2948L227.176 45.539L226.4 40.2062L228.188 39.962L228.274 40.5509C228.557 40.27 228.836 40.0463 229.11 39.8796C229.385 39.7129 229.701 39.6052 230.059 39.5564C230.661 39.4741 231.157 39.5775 231.545 39.8667C231.933 40.156 232.175 40.6346 232.273 41.3026L232.777 44.7739Z"/>
<path d="M239.744 43.1562C239.821 43.6559 239.811 44.0872 239.714 44.4501C239.617 44.8129 239.449 45.11 239.211 45.3413C238.973 45.5757 238.671 45.7636 238.306 45.9048C237.94 46.0459 237.52 46.1506 237.043 46.2188C236.656 46.2742 236.272 46.3067 235.89 46.3161C235.508 46.3256 235.174 46.3183 234.89 46.2944L234.687 44.9613L234.905 44.9301C235.136 44.981 235.414 45.018 235.738 45.041C236.063 45.0641 236.349 45.0578 236.597 45.0223C236.928 44.9749 237.192 44.9072 237.39 44.8191C237.588 44.731 237.733 44.6254 237.826 44.5022C237.913 44.3863 237.967 44.246 237.99 44.0812C238.012 43.9165 238.006 43.7234 237.972 43.502L237.957 43.4024C237.768 43.6008 237.55 43.7677 237.303 43.9032C237.057 44.0386 236.774 44.1293 236.453 44.1752C235.672 44.287 235.036 44.1486 234.544 43.7601C234.052 43.3716 233.736 42.7188 233.596 41.8016C233.529 41.362 233.536 40.9732 233.616 40.6353C233.696 40.2974 233.836 39.9931 234.034 39.7223C234.219 39.4696 234.461 39.2588 234.762 39.0897C235.062 38.9207 235.379 38.8123 235.713 38.7644C236.014 38.7213 236.293 38.7162 236.55 38.7489C236.807 38.7816 237.045 38.8436 237.265 38.9349L237.293 38.6885L239.025 38.4406L239.744 43.1562ZM237.796 42.3445L237.427 39.9297C237.318 39.9033 237.188 39.8889 237.035 39.8865C236.883 39.8841 236.747 39.8914 236.628 39.9084C236.158 39.9757 235.826 40.155 235.63 40.4464C235.435 40.7377 235.372 41.1143 235.443 41.5761C235.521 42.0884 235.675 42.4315 235.906 42.6052C236.137 42.779 236.45 42.8377 236.843 42.7814C237.022 42.7558 237.193 42.7038 237.357 42.6254C237.521 42.547 237.667 42.4534 237.796 42.3445Z"/>
<path d="M247.07 42.6902L245.286 42.9576L245.192 42.37C244.9 42.6596 244.627 42.8874 244.372 43.0533C244.118 43.2192 243.801 43.3306 243.421 43.3875C242.807 43.4796 242.306 43.3816 241.92 43.0933C241.534 42.805 241.288 42.3307 241.182 41.6704L240.628 38.2061L242.422 37.9372L242.845 40.5769C242.888 40.8454 242.932 41.0676 242.979 41.2434C243.026 41.4192 243.092 41.5605 243.176 41.6675C243.258 41.775 243.367 41.8461 243.502 41.8807C243.638 41.9154 243.82 41.9156 244.048 41.8815C244.2 41.8587 244.364 41.8066 244.541 41.7251C244.717 41.6437 244.883 41.538 245.038 41.4079L244.435 37.6356L246.219 37.3682L247.07 42.6902Z"/>
<path d="M251.888 40.5173L251.703 39.4095C251.465 39.4662 251.209 39.5331 250.934 39.6102C250.659 39.6872 250.453 39.7592 250.315 39.8261C250.145 39.9077 250.022 40.0071 249.945 40.1244C249.869 40.2417 249.844 40.384 249.872 40.5513C249.891 40.6617 249.915 40.7501 249.947 40.8165C249.978 40.8828 250.039 40.9413 250.129 40.992C250.215 41.0432 250.314 41.0756 250.424 41.089C250.535 41.1025 250.703 41.0916 250.927 41.0565C251.105 41.0286 251.28 40.9655 251.452 40.8674C251.623 40.7693 251.769 40.6526 251.888 40.5173ZM252.026 41.341C251.942 41.4254 251.837 41.5276 251.712 41.6477C251.586 41.7677 251.465 41.866 251.35 41.9424C251.187 42.0456 251.015 42.13 250.833 42.1958C250.651 42.2615 250.448 42.312 250.223 42.3471C249.695 42.4298 249.227 42.3429 248.818 42.0863C248.409 41.8296 248.164 41.4583 248.083 40.9723C248.018 40.5842 248.056 40.2528 248.196 39.9782C248.337 39.7036 248.561 39.4692 248.871 39.275C249.177 39.0813 249.57 38.9162 250.048 38.7797C250.527 38.6433 251.026 38.5197 251.546 38.4091L251.541 38.3807C251.492 38.0872 251.333 37.9041 251.063 37.8314C250.794 37.7586 250.415 37.7605 249.926 37.837C249.632 37.883 249.327 37.9818 249.01 38.1334C248.694 38.285 248.467 38.399 248.331 38.4754L248.168 38.501L247.953 37.2181C248.133 37.1413 248.43 37.0374 248.843 36.9063C249.256 36.7752 249.676 36.6763 250.102 36.6096C251.115 36.4509 251.872 36.4854 252.372 36.7131C252.873 36.9407 253.176 37.3733 253.283 38.0108L253.888 41.6275L252.12 41.9043L252.026 41.341Z"/>
<path d="M260.819 39.8732C260.906 40.3713 260.905 40.8027 260.817 41.1674C260.728 41.532 260.567 41.8324 260.333 42.0683C260.1 42.3074 259.803 42.5011 259.44 42.6495C259.078 42.7979 258.659 42.9109 258.185 42.9885C257.799 43.0515 257.415 43.0916 257.033 43.1086C256.651 43.1256 256.318 43.125 256.033 43.1067L255.801 41.778L256.019 41.7424C256.251 41.7888 256.529 41.8203 256.854 41.8369C257.179 41.8535 257.465 41.8416 257.713 41.8011C258.042 41.7473 258.305 41.6743 258.501 41.5823C258.697 41.4903 258.84 41.3818 258.93 41.2569C259.014 41.1393 259.066 40.9979 259.085 40.8328C259.103 40.6676 259.093 40.4747 259.055 40.2541L259.037 40.1548C258.852 40.3569 258.638 40.5281 258.395 40.6684C258.151 40.8086 257.87 40.9049 257.55 40.9572C256.772 41.0844 256.133 40.9586 255.633 40.58C255.132 40.2014 254.802 39.555 254.643 38.6408C254.566 38.2027 254.564 37.8139 254.637 37.4745C254.71 37.1351 254.843 36.8281 255.036 36.5534C255.215 36.2972 255.452 36.0816 255.749 35.9067C256.046 35.7317 256.361 35.617 256.694 35.5626C256.994 35.5136 257.272 35.5029 257.53 35.5305C257.787 35.5581 258.027 35.6154 258.249 35.7023L258.272 35.4554L259.998 35.1733L260.819 39.8732ZM258.853 39.1004L258.432 36.6936C258.323 36.6694 258.192 36.6575 258.04 36.6581C257.887 36.6587 257.752 36.6688 257.633 36.6882C257.165 36.7647 256.836 36.9505 256.647 37.2457C256.458 37.5408 256.403 37.9185 256.484 38.3788C256.573 38.8894 256.735 39.2293 256.97 39.3985C257.204 39.5676 257.518 39.6201 257.91 39.556C258.088 39.5269 258.258 39.4715 258.42 39.3899C258.583 39.3083 258.727 39.2118 258.853 39.1004Z"/>
<path d="M267.643 36.9333L263.573 37.627C263.676 38.038 263.899 38.3278 264.244 38.4963C264.589 38.6648 265.057 38.6985 265.65 38.5975C266.025 38.5335 266.378 38.4069 266.706 38.2178C267.035 38.0287 267.288 37.8427 267.465 37.66L267.663 37.6263L267.912 38.9911C267.538 39.2138 267.18 39.3901 266.837 39.52C266.494 39.6499 266.107 39.7516 265.675 39.8251C264.562 40.0148 263.666 39.9209 262.986 39.5433C262.306 39.1658 261.885 38.5347 261.724 37.65C261.564 36.7748 261.718 36.0335 262.187 35.4262C262.655 34.8189 263.378 34.432 264.356 34.2653C265.258 34.1115 265.976 34.2139 266.51 34.5725C267.044 34.9311 267.385 35.5197 267.535 36.3383L267.643 36.9333ZM265.693 36.2382C265.619 35.8841 265.478 35.6323 265.27 35.4825C265.063 35.3328 264.775 35.2894 264.406 35.3523C264.064 35.4106 263.798 35.5436 263.608 35.7512C263.419 35.9588 263.345 36.2522 263.387 36.6313L265.693 36.2382Z"/>
<path d="M275.86 36.4517L275.645 35.349C275.409 35.4114 275.155 35.4844 274.882 35.5682C274.609 35.6519 274.404 35.7288 274.268 35.7991C274.101 35.8847 273.981 35.9871 273.907 36.1062C273.833 36.2253 273.813 36.3681 273.845 36.5347C273.866 36.6446 273.894 36.7324 273.927 36.7979C273.96 36.8634 274.022 36.9205 274.113 36.969C274.201 37.0181 274.3 37.048 274.411 37.0588C274.522 37.0695 274.69 37.0546 274.913 37.014C275.09 36.9818 275.264 36.9146 275.433 36.8123C275.601 36.7101 275.744 36.5899 275.86 36.4517ZM276.02 37.2717C275.938 37.3582 275.836 37.4629 275.713 37.5859C275.591 37.709 275.473 37.8101 275.359 37.8894C275.199 37.9964 275.03 38.085 274.849 38.1551C274.669 38.2253 274.467 38.2807 274.244 38.3212C273.718 38.4167 273.247 38.3412 272.832 38.0946C272.417 37.848 272.162 37.4828 272.068 36.9989C271.992 36.6125 272.021 36.2804 272.154 36.0025C272.287 35.7246 272.506 35.4848 272.81 35.2832C273.111 35.0821 273.499 34.9076 273.974 34.7596C274.449 34.6115 274.945 34.476 275.462 34.3528L275.456 34.3245C275.399 34.0323 275.235 33.8532 274.964 33.787C274.692 33.7208 274.313 33.7319 273.827 33.8202C273.535 33.8733 273.232 33.9795 272.919 34.1387C272.607 34.298 272.383 34.4174 272.249 34.4971L272.086 34.5266L271.838 33.2495C272.016 33.1683 272.31 33.0572 272.72 32.9161C273.129 32.775 273.546 32.666 273.97 32.589C274.979 32.4058 275.736 32.4219 276.243 32.6374C276.749 32.8528 277.064 33.2778 277.188 33.9125L277.888 37.513L276.129 37.8325L276.02 37.2717Z"/>
<path d="M285.07 36.1559L283.288 36.4946L282.754 33.874C282.71 33.6607 282.656 33.4504 282.589 33.243C282.523 33.0357 282.452 32.8871 282.376 32.7973C282.287 32.6938 282.173 32.6273 282.036 32.598C281.899 32.5687 281.717 32.5756 281.491 32.6186C281.33 32.6492 281.172 32.7053 281.017 32.787C280.861 32.8686 280.698 32.9828 280.527 33.1293L281.29 36.8744L279.519 37.2112L278.441 31.9276L280.213 31.5909L280.332 32.1743C280.599 31.8791 280.865 31.6413 281.129 31.4606C281.394 31.2799 281.704 31.1559 282.058 31.0886C282.655 30.9751 283.156 31.0526 283.56 31.3211C283.964 31.5897 284.233 32.0549 284.368 32.7167L285.07 36.1559Z"/>
<path d="M292.06 34.768L290.292 35.121L290.174 34.5716C289.921 34.8703 289.673 35.1025 289.432 35.2682C289.191 35.4338 288.897 35.5513 288.55 35.6206C287.879 35.7546 287.289 35.6145 286.78 35.2003C286.271 34.7861 285.927 34.1596 285.747 33.3206C285.651 32.873 285.634 32.4626 285.696 32.0896C285.757 31.7166 285.88 31.3828 286.062 31.0885C286.235 30.8092 286.466 30.5729 286.756 30.3796C287.045 30.1863 287.349 30.0579 287.667 29.9945C287.997 29.9285 288.276 29.908 288.501 29.9332C288.727 29.9583 288.962 30.0003 289.207 30.0591L288.726 27.8146L290.494 27.4616L292.06 34.768ZM289.98 33.6654L289.425 31.0781C289.29 31.0528 289.151 31.043 289.009 31.0485C288.867 31.0541 288.739 31.0683 288.624 31.0912C288.159 31.184 287.84 31.3922 287.667 31.7156C287.494 32.0391 287.46 32.4465 287.565 32.938C287.676 33.4545 287.85 33.8108 288.086 34.0067C288.323 34.2027 288.648 34.2595 289.06 34.1771C289.221 34.145 289.385 34.0821 289.552 33.9882C289.72 33.8943 289.863 33.7867 289.98 33.6654Z"/>
<path d="M300.584 33.1144C300.042 33.2314 299.524 33.263 299.03 33.2092C298.537 33.1553 298.09 33.0127 297.69 32.7814C297.29 32.55 296.947 32.2277 296.661 31.8145C296.375 31.4013 296.163 30.8984 296.025 30.3057C295.897 29.7536 295.867 29.2343 295.936 28.7478C296.004 28.2612 296.166 27.8217 296.421 27.4292C296.666 27.0521 297.003 26.7287 297.432 26.4591C297.861 26.1895 298.353 25.9948 298.907 25.875C299.214 25.8087 299.495 25.7653 299.748 25.7449C300.002 25.7244 300.24 25.7181 300.461 25.7261C300.694 25.7381 300.907 25.7616 301.102 25.7965C301.297 25.8314 301.468 25.8655 301.617 25.899L302.009 27.5881L301.794 27.6347C301.685 27.5795 301.549 27.5155 301.387 27.4425C301.224 27.3695 301.043 27.3021 300.844 27.2404C300.641 27.1793 300.427 27.137 300.203 27.1135C299.978 27.09 299.746 27.104 299.508 27.1554C299.244 27.2125 299.002 27.3066 298.782 27.4376C298.562 27.5686 298.373 27.7479 298.213 27.9757C298.062 28.1951 297.961 28.4642 297.91 28.7832C297.859 29.1021 297.882 29.4706 297.979 29.8886C298.08 30.3253 298.23 30.6763 298.427 30.9417C298.624 31.2071 298.84 31.4028 299.075 31.529C299.313 31.6575 299.564 31.732 299.826 31.7525C300.087 31.7729 300.337 31.7574 300.575 31.706C300.804 31.6566 301.022 31.5751 301.231 31.4613C301.439 31.3475 301.625 31.214 301.788 31.0608C301.927 30.9358 302.053 30.8071 302.166 30.6745C302.279 30.542 302.371 30.4288 302.441 30.3349L302.637 30.2926L303.024 31.9583C302.86 32.0757 302.702 32.1868 302.552 32.2913C302.401 32.3959 302.24 32.4929 302.069 32.5823C301.846 32.6992 301.634 32.7974 301.433 32.8768C301.233 32.9562 300.949 33.0354 300.584 33.1144Z"/>
<path d="M309.873 30.8841L308.116 31.2865L307.973 30.7081C307.706 31.0189 307.453 31.2667 307.213 31.4514C306.973 31.6361 306.666 31.7713 306.292 31.8569C305.687 31.9955 305.18 31.9359 304.771 31.678C304.362 31.4201 304.078 30.9662 303.917 30.3162L303.077 26.9062L304.843 26.5016L305.484 29.0999C305.549 29.3643 305.612 29.5823 305.673 29.7539C305.735 29.9255 305.812 30.0614 305.905 30.1615C305.996 30.2624 306.11 30.325 306.248 30.3492C306.386 30.3734 306.568 30.3597 306.792 30.3083C306.942 30.2741 307.101 30.2096 307.27 30.115C307.44 30.0204 307.596 29.9024 307.74 29.7611L306.825 26.0478L308.581 25.6455L309.873 30.8841Z"/>
<path d="M313.28 30.0664L311.528 30.4867L309.657 23.2471L311.409 22.8268L313.28 30.0664Z"/>
<path d="M318.408 28.7505C318.233 28.8437 318.044 28.9296 317.84 29.0083C317.637 29.087 317.383 29.1642 317.079 29.24C316.399 29.4093 315.858 29.4037 315.455 29.2233C315.053 29.0428 314.766 28.6339 314.595 27.9963L313.941 25.5593L313.222 25.7382L312.918 24.6055L313.637 24.4266L313.237 22.9365L314.985 22.5012L315.385 23.9913L317.022 23.5839L317.326 24.7165L315.689 25.124L316.185 26.9715C316.234 27.1541 316.278 27.3131 316.318 27.4485C316.358 27.5838 316.417 27.6996 316.494 27.7958C316.569 27.8929 316.672 27.9588 316.804 27.9936C316.936 28.0284 317.112 28.0185 317.332 27.9636C317.423 27.9411 317.537 27.8929 317.674 27.8191C317.811 27.7453 317.905 27.6856 317.955 27.6402L318.101 27.6039L318.408 28.7505Z"/>
<path d="M324.878 27.1057L323.136 27.5657L322.973 26.9923C322.717 27.3118 322.473 27.5677 322.24 27.7602C322.007 27.9526 321.705 28.0978 321.334 28.1958C320.734 28.3542 320.225 28.3113 319.807 28.0671C319.389 27.8228 319.088 27.3786 318.905 26.7344L317.942 23.3545L319.693 22.892L320.427 25.4674C320.501 25.7294 320.572 25.9451 320.64 26.1146C320.707 26.2841 320.789 26.4173 320.886 26.5143C320.98 26.6122 321.096 26.6709 321.235 26.6905C321.375 26.7101 321.555 26.6906 321.778 26.6318C321.926 26.5926 322.083 26.523 322.249 26.4229C322.415 26.3228 322.567 26.1997 322.706 26.0537L321.657 22.3733L323.398 21.9134L324.878 27.1057Z"/>
<path d="M329.338 21.9537L329.184 21.9972C329.102 21.9936 328.978 22.0088 328.811 22.0428C328.643 22.0768 328.505 22.1092 328.396 22.1401C328.149 22.21 327.935 22.287 327.755 22.3712C327.576 22.4554 327.388 22.5652 327.192 22.7005L328.249 26.1595L326.516 26.6496L324.938 21.4841L326.671 20.994L326.903 21.753C327.189 21.3322 327.458 21.0305 327.708 20.8479C327.959 20.6653 328.204 20.5404 328.441 20.4733C328.502 20.456 328.572 20.4381 328.649 20.4194C328.727 20.4006 328.796 20.3862 328.856 20.376L329.338 21.9537Z"/>
<path d="M335.956 21.3809L332.016 22.5839C332.174 22.9783 332.436 23.237 332.801 23.3602C333.166 23.4834 333.636 23.4574 334.21 23.2822C334.573 23.1713 334.905 23.0013 335.204 22.7722C335.504 22.5432 335.729 22.3269 335.88 22.1234L336.071 22.065L336.507 23.3855C336.167 23.6535 335.836 23.8736 335.514 24.0458C335.192 24.2179 334.822 24.3677 334.405 24.4952C333.327 24.8242 332.425 24.8448 331.699 24.557C330.972 24.2691 330.467 23.6972 330.185 22.8412C329.905 21.9944 329.956 21.2405 330.336 20.5795C330.716 19.9185 331.379 19.4435 332.326 19.1544C333.2 18.8877 333.926 18.8982 334.505 19.1858C335.084 19.4734 335.504 20.0132 335.766 20.8052L335.956 21.3809ZM333.926 20.9395C333.803 20.5982 333.628 20.3665 333.402 20.2444C333.175 20.1224 332.884 20.1159 332.527 20.2249C332.195 20.3261 331.95 20.4916 331.791 20.7213C331.631 20.951 331.599 21.251 331.693 21.6213L333.926 20.9395Z"/>
</g>
</g>
</g>
</svg>
