<?xml version="1.0" encoding="UTF-8" standalone="no"?>
<!DOCTYPE svg PUBLIC "-//W3C//DTD SVG 1.1//EN" "http://www.w3.org/Graphics/SVG/1.1/DTD/svg11.dtd">
<!-- Created with Vectornator (http://vectornator.io/) -->
<svg height="100%" stroke-miterlimit="10" style="fill-rule:nonzero;clip-rule:evenodd;stroke-linecap:round;stroke-linejoin:round;" version="1.1" viewBox="0 0 173.2 54.13" width="100%" xml:space="preserve" xmlns="http://www.w3.org/2000/svg" xmlns:xlink="http://www.w3.org/1999/xlink">
<defs/>
<g id="レイヤー-1">
<g opacity="1">
<g opacity="1">
<path d="M14.0225 11.4145L25.3625 11.4145L25.3625 28.4245L14.0225 28.4245L17.511 26.4263L16.4078 14.968L14.0225 11.4145Z" fill="#ffffff" fill-rule="nonzero" opacity="1" stroke="#000000" stroke-linecap="butt" stroke-linejoin="miter" stroke-width="0.5"/>
<path d="M25.3625 11.4145L36.7025 11.4145L36.7025 28.4245L25.3625 28.4245L25.3625 11.4145Z" fill="#ffffff" fill-rule="nonzero" opacity="1" stroke="#000000" stroke-linecap="butt" stroke-linejoin="miter" stroke-width="0.5"/>
<path d="M36.7025 11.4145L48.0425 11.4145L48.0425 28.4245L36.7025 28.4245L36.7025 11.4145Z" fill="#ffffff" fill-rule="nonzero" opacity="1" stroke="#000000" stroke-linecap="butt" stroke-linejoin="miter" stroke-width="0.5"/>
<path d="M48.0425 11.4145L59.3825 11.4145L59.3825 28.4245L48.0425 28.4245L48.0425 11.4145Z" fill="#ffffff" fill-rule="nonzero" opacity="1" stroke="#000000" stroke-linecap="butt" stroke-linejoin="miter" stroke-width="0.5"/>
<path d="M59.3825 11.4145L70.7225 11.4145L70.7225 28.4245L59.3825 28.4245L59.3825 11.4145Z" fill="#ffffff" fill-rule="nonzero" opacity="1" stroke="#000000" stroke-linecap="butt" stroke-linejoin="miter" stroke-width="0.5"/>
<path d="M70.7225 11.4145L82.0625 11.4145L82.0625 28.4245L70.7225 28.4245L70.7225 11.4145Z" fill="#ffffff" fill-rule="nonzero" opacity="1" stroke="#000000" stroke-linecap="butt" stroke-linejoin="miter" stroke-width="0.5"/>
<path d="M82.0625 11.4145L93.4025 11.4145L93.4025 28.4245L82.0625 28.4245L82.0625 11.4145Z" fill="#ffffff" fill-rule="nonzero" opacity="1" stroke="#000000" stroke-linecap="butt" stroke-linejoin="miter" stroke-width="0.5"/>
<path d="M93.4025 11.4145L104.743 11.4145L104.743 28.4245L93.4025 28.4245L93.4025 11.4145Z" fill="#ffffff" fill-rule="nonzero" opacity="1" stroke="#000000" stroke-linecap="butt" stroke-linejoin="miter" stroke-width="0.5"/>
<path d="M104.743 11.4145L116.083 11.4145L116.083 28.4245L104.743 28.4245L104.743 11.4145Z" fill="#ffffff" fill-rule="nonzero" opacity="1" stroke="#000000" stroke-linecap="butt" stroke-linejoin="miter" stroke-width="0.5"/>
<path d="M116.083 11.4145L127.423 11.4145L127.423 28.4245L116.083 28.4245L116.083 11.4145Z" fill="#ffffff" fill-rule="nonzero" opacity="1" stroke="#000000" stroke-linecap="butt" stroke-linejoin="miter" stroke-width="0.5"/>
<path d="M127.423 11.4145L138.763 11.4145L138.763 28.4245L127.423 28.4245L127.423 11.4145Z" fill="#ffffff" fill-rule="nonzero" opacity="1" stroke="#000000" stroke-linecap="butt" stroke-linejoin="miter" stroke-width="0.5"/>
<path d="M138.763 11.4145L150.103 11.4145L150.103 28.4245L138.763 28.4245L138.763 11.4145Z" fill="#ffffff" fill-rule="nonzero" opacity="1" stroke="#000000" stroke-linecap="butt" stroke-linejoin="miter" stroke-width="0.5"/>
<path d="M101.762 23.1298L96.9081 23.1298L96.9081 21.8603L98.4413 21.8603L98.4413 18.0175L96.9081 18.0175L96.9081 16.831C97.1424 16.831 97.367 16.8172 97.5819 16.7895C97.7967 16.7618 97.9758 16.7138 98.119 16.6454C98.2883 16.5641 98.4152 16.4583 98.4999 16.3281C98.5845 16.1979 98.6333 16.0351 98.6463 15.8398L100.263 15.8398L100.263 21.8603L101.762 21.8603L101.762 23.1298Z" fill="#000000" opacity="1" stroke="none"/>
<path d="M91.6289 23.0365L89.6905 23.0365L89.1875 21.5668L86.4922 21.5668L85.9893 23.0365L84.0996 23.0365L86.7852 15.766L88.9434 15.766L91.6289 23.0365ZM88.7334 20.2338L87.8399 17.6263L86.9463 20.2338L88.7334 20.2338Z" fill="#000000" opacity="1" stroke="none"/>
<path d="M125.485 20.7865C125.485 21.138 125.414 21.4522 125.272 21.7289C125.131 22.0056 124.936 22.235 124.689 22.4173C124.402 22.6322 124.088 22.7852 123.744 22.8763C123.401 22.9675 122.965 23.013 122.438 23.013L119.264 23.013L119.264 15.7425L122.086 15.7425C122.672 15.7425 123.101 15.7621 123.373 15.8011C123.645 15.8402 123.914 15.9265 124.181 16.0599C124.458 16.1999 124.664 16.3879 124.799 16.6239C124.934 16.8599 125.001 17.1293 125.001 17.432C125.001 17.7835 124.909 18.0936 124.723 18.3622C124.538 18.6307 124.276 18.8399 123.937 18.9896L123.937 19.0287C124.412 19.1231 124.789 19.3184 125.067 19.6146C125.346 19.9108 125.485 20.3015 125.485 20.7865ZM123.082 17.7982C123.082 17.6778 123.052 17.5573 122.992 17.4369C122.932 17.3164 122.825 17.2269 122.672 17.1683C122.536 17.1162 122.366 17.0877 122.162 17.0829C121.959 17.078 121.673 17.0755 121.305 17.0755L121.129 17.0755L121.129 18.6136L121.422 18.6136C121.719 18.6136 121.971 18.6087 122.179 18.599C122.387 18.5892 122.552 18.5567 122.672 18.5013C122.842 18.4265 122.952 18.3296 123.004 18.2108C123.056 18.092 123.082 17.9544 123.082 17.7982ZM123.541 20.7572C123.541 20.5261 123.497 20.3478 123.407 20.2225C123.318 20.0972 123.165 20.0036 122.951 19.9418C122.804 19.8994 122.602 19.8766 122.345 19.8734C122.088 19.8701 121.819 19.8685 121.54 19.8685L121.129 19.8685L121.129 21.68L121.266 21.68C121.793 21.68 122.171 21.6784 122.399 21.6752C122.627 21.6719 122.837 21.6296 123.029 21.5482C123.224 21.4668 123.358 21.3586 123.432 21.2235C123.505 21.0884 123.541 20.933 123.541 20.7572Z" fill="#000000" opacity="1" stroke="none"/>
<path d="M31.1269 24.2036C32.1669 24.2036 32.9969 23.8036 33.5569 23.0236C34.0269 22.3736 34.2969 21.2936 34.2969 20.0636C34.2969 19.2436 34.1669 18.4436 33.9069 17.7436C33.7769 17.3836 33.5469 17.0336 33.2469 16.7336C32.7169 16.2036 31.9869 15.9236 31.1369 15.9236C30.0269 15.9236 29.1269 16.4136 28.5869 17.3136C28.2169 17.9236 27.9769 19.0236 27.9769 20.0836C27.9769 20.8936 28.1069 21.6736 28.3669 22.3836C28.4969 22.7436 28.7269 23.0936 29.0269 23.3936C29.5569 23.9236 30.2769 24.2036 31.1269 24.2036ZM31.1369 23.0436C30.5869 23.0436 30.1669 22.8336 29.8569 22.3936C29.5369 21.9336 29.3469 21.0636 29.3469 20.0136C29.3469 18.9236 29.5669 18.1036 30.0069 17.5836C30.2969 17.2336 30.6469 17.0736 31.1269 17.0736C31.5769 17.0736 31.9769 17.2236 32.2169 17.4936C32.6669 17.9836 32.9169 18.8936 32.9169 20.0536C32.9169 21.2236 32.6669 22.1536 32.2169 22.6236C31.9669 22.8936 31.5769 23.0436 31.1369 23.0436Z" fill="#000000" opacity="1" stroke="none"/>
<path d="M42.4948 24.1949C43.5348 24.1949 44.3648 23.7949 44.9248 23.0149C45.3948 22.3649 45.6648 21.2849 45.6648 20.0549C45.6648 19.2349 45.5348 18.4349 45.2748 17.7349C45.1448 17.3749 44.9148 17.0249 44.6148 16.7249C44.0848 16.1949 43.3548 15.9149 42.5048 15.9149C41.3948 15.9149 40.4948 16.4049 39.9548 17.3049C39.5848 17.9149 39.3448 19.0149 39.3448 20.0749C39.3448 20.8849 39.4748 21.6649 39.7348 22.3749C39.8648 22.7349 40.0948 23.0849 40.3948 23.3849C40.9248 23.9149 41.6448 24.1949 42.4948 24.1949ZM42.5048 23.0349C41.9548 23.0349 41.5348 22.8249 41.2248 22.3849C40.9048 21.9249 40.7148 21.0549 40.7148 20.0049C40.7148 18.9149 40.9348 18.0949 41.3748 17.5749C41.6648 17.2249 42.0148 17.0649 42.4948 17.0649C42.9448 17.0649 43.3448 17.2149 43.5848 17.4849C44.0348 17.9749 44.2848 18.8849 44.2848 20.0449C44.2848 21.2149 44.0348 22.1449 43.5848 22.6149C43.3348 22.8849 42.9448 23.0349 42.5048 23.0349Z" fill="#000000" opacity="1" stroke="none"/>
<path d="M53.7314 24.1361C54.7714 24.1361 55.6014 23.7361 56.1614 22.9561C56.6314 22.3061 56.9014 21.2261 56.9014 19.9961C56.9014 19.1761 56.7714 18.3761 56.5114 17.6761C56.3814 17.3161 56.1514 16.9661 55.8514 16.6661C55.3214 16.1361 54.5914 15.8561 53.7414 15.8561C52.6314 15.8561 51.7314 16.3461 51.1914 17.2461C50.8214 17.8561 50.5814 18.9561 50.5814 20.0161C50.5814 20.8261 50.7114 21.6061 50.9714 22.3161C51.1014 22.6761 51.3314 23.0261 51.6314 23.3261C52.1614 23.8561 52.8814 24.1361 53.7314 24.1361ZM53.7414 22.9761C53.1914 22.9761 52.7714 22.7661 52.4614 22.3261C52.1414 21.8661 51.9514 20.9961 51.9514 19.9461C51.9514 18.8561 52.1714 18.0361 52.6114 17.5161C52.9014 17.1661 53.2514 17.0061 53.7314 17.0061C54.1814 17.0061 54.5814 17.1561 54.8214 17.4261C55.2714 17.9161 55.5214 18.8261 55.5214 19.9861C55.5214 21.1561 55.2714 22.0861 54.8214 22.5561C54.5714 22.8261 54.1814 22.9761 53.7414 22.9761Z" fill="#000000" opacity="1" stroke="none"/>
<path d="M144.392 24.116C145.432 24.116 146.262 23.716 146.822 22.936C147.292 22.286 147.562 21.206 147.562 19.976C147.562 19.156 147.432 18.356 147.172 17.656C147.042 17.296 146.812 16.946 146.512 16.646C145.982 16.116 145.252 15.836 144.402 15.836C143.292 15.836 142.392 16.326 141.852 17.226C141.482 17.836 141.242 18.936 141.242 19.996C141.242 20.806 141.372 21.586 141.632 22.296C141.762 22.656 141.992 23.006 142.292 23.306C142.822 23.836 143.542 24.116 144.392 24.116ZM144.402 22.956C143.852 22.956 143.432 22.746 143.122 22.306C142.802 21.846 142.612 20.976 142.612 19.926C142.612 18.836 142.832 18.016 143.272 17.496C143.562 17.146 143.912 16.986 144.392 16.986C144.842 16.986 145.242 17.136 145.482 17.406C145.932 17.896 146.182 18.806 146.182 19.966C146.182 21.136 145.932 22.066 145.482 22.536C145.232 22.806 144.842 22.956 144.402 22.956Z" fill="#000000" opacity="1" stroke="none"/>
<path d="M67.5121 22.979L62.6586 22.979L62.6586 21.7095L64.1918 21.7095L64.1918 17.8667L62.6586 17.8667L62.6586 16.6802C62.893 16.6802 63.1176 16.6664 63.3324 16.6387C63.5473 16.611 63.7263 16.563 63.8695 16.4947C64.0388 16.4133 64.1658 16.3075 64.2504 16.1773C64.335 16.0471 64.3839 15.8843 64.3969 15.689L66.0131 15.689L66.0131 21.7095L67.5121 21.7095L67.5121 22.979Z" fill="#000000" opacity="1" stroke="none"/>
<path d="M78.8521 23.0616L73.9986 23.0616L73.9986 21.792L75.5318 21.792L75.5318 17.9493L73.9986 17.9493L73.9986 16.7627C74.233 16.7627 74.4576 16.7489 74.6724 16.7212C74.8873 16.6936 75.0663 16.6455 75.2095 16.5772C75.3788 16.4958 75.5058 16.39 75.5904 16.2598C75.675 16.1296 75.7239 15.9668 75.7369 15.7715L77.3531 15.7715L77.3531 21.792L78.8521 21.792L78.8521 23.0616Z" fill="#000000" opacity="1" stroke="none"/>
<path d="M113.652 21.28L112.661 21.28L112.661 22.9743L110.869 22.9743L110.869 21.28L107.348 21.28L107.348 19.903L110.752 15.6843L112.661 15.6843L112.661 19.9518L113.652 19.9518L113.652 21.28ZM110.869 19.9518L110.869 17.3249L108.755 19.9518L110.869 19.9518Z" fill="#000000" opacity="1" stroke="none"/>
<path d="M135.989 17.1488L132.644 17.1488L132.644 18.5013L135.745 18.5013L135.745 19.9076L132.644 19.9076L132.644 23.013L130.779 23.013L130.779 15.7425L135.989 15.7425L135.989 17.1488Z" fill="#000000" opacity="1" stroke="none"/>
<path d="M19.7323 11.4164C19.7323 11.4164 13.8148 11.413 11.4322 11.3412C10.0101 11.2983 14.0658 12.428 14.326 13.9181C14.5862 15.4083 12.1254 15.1237 12.051 15.9887C11.9766 16.8537 15.4128 17.3613 15.4728 18.372C15.5328 19.3826 12.5631 20.3338 12.7131 21.3444C12.8631 22.3551 16.0427 21.5674 16.0727 22.4145C16.1027 23.2617 12.6531 23.8116 12.8331 24.7331C13.0131 25.6545 16.9242 25.1756 16.7927 26.1004C16.6611 27.0252 11.5596 28.4555 12.3069 28.4321C14.0449 28.3778 18.3525 28.4189 18.3525 28.4189" fill="#ffffff" fill-rule="nonzero" opacity="1" stroke="#000000" stroke-linecap="butt" stroke-linejoin="miter" stroke-width="0.5"/>
<path d="M19.645 24.1879C20.685 24.1879 21.515 23.7879 22.075 23.0079C22.545 22.3579 22.815 21.2779 22.815 20.0479C22.815 19.2279 22.685 18.4279 22.425 17.7279C22.295 17.3679 22.065 17.0179 21.765 16.7179C21.235 16.1879 20.505 15.9079 19.655 15.9079C18.545 15.9079 17.645 16.3979 17.105 17.2979C16.735 17.9079 16.495 19.0079 16.495 20.0679C16.495 20.8779 16.625 21.6579 16.885 22.3679C17.015 22.7279 17.245 23.0779 17.545 23.3779C18.075 23.9079 18.795 24.1879 19.645 24.1879ZM19.655 23.0279C19.105 23.0279 18.685 22.8179 18.375 22.3779C18.055 21.9179 17.865 21.0479 17.865 19.9979C17.865 18.9079 18.085 18.0879 18.525 17.5679C18.815 17.2179 19.165 17.0579 19.645 17.0579C20.095 17.0579 20.495 17.2079 20.735 17.4779C21.185 17.9679 21.435 18.8779 21.435 20.0379C21.435 21.2079 21.185 22.1379 20.735 22.6079C20.485 22.8779 20.095 23.0279 19.655 23.0279Z" fill="#000000" opacity="1" stroke="none"/>
<path d="M161.538 28.4184L150.198 28.4184L150.198 11.4084L161.538 11.4084L158.05 13.4066L159.153 24.8648L161.538 28.4184Z" fill="#ffffff" fill-rule="nonzero" opacity="1" stroke="#000000" stroke-linecap="butt" stroke-linejoin="miter" stroke-width="0.5"/>
<path d="M155.828 28.4164C155.828 28.4164 161.746 28.4198 164.128 28.4916C165.551 28.5345 161.495 27.4049 161.235 25.9147C160.974 24.4245 163.435 24.7092 163.51 23.8441C163.584 22.9791 160.148 22.4715 160.088 21.4609C160.028 20.4502 162.998 19.499 162.848 18.4884C162.698 17.4777 159.518 18.2654 159.488 17.4183C159.458 16.5711 162.908 16.0212 162.728 15.0998C162.548 14.1783 158.637 14.6572 158.768 13.7324C158.9 12.8077 164.001 11.3774 163.254 11.4007C161.516 11.455 157.208 11.4139 157.208 11.4139" fill="#ffffff" fill-rule="nonzero" opacity="1" stroke="#000000" stroke-linecap="butt" stroke-linejoin="miter" stroke-width="0.5"/>
<path d="M155.916 15.6449C154.876 15.6449 154.046 16.0449 153.486 16.8249C153.016 17.4749 152.746 18.5549 152.746 19.7849C152.746 20.6049 152.876 21.4049 153.136 22.1049C153.266 22.4649 153.496 22.8149 153.796 23.1149C154.326 23.6449 155.056 23.9249 155.906 23.9249C157.016 23.9249 157.916 23.4349 158.456 22.5349C158.826 21.9249 159.066 20.8249 159.066 19.7649C159.066 18.9549 158.936 18.1749 158.676 17.4649C158.546 17.1049 158.316 16.7549 158.016 16.4549C157.486 15.9249 156.766 15.6449 155.916 15.6449ZM155.906 16.8049C156.456 16.8049 156.876 17.0149 157.186 17.4549C157.506 17.9149 157.696 18.7849 157.696 19.8349C157.696 20.9249 157.476 21.7449 157.036 22.2649C156.746 22.6149 156.396 22.7749 155.916 22.7749C155.466 22.7749 155.066 22.6249 154.826 22.3549C154.376 21.8649 154.126 20.9549 154.126 19.7949C154.126 18.6249 154.376 17.6949 154.826 17.2249C155.076 16.9549 155.466 16.8049 155.906 16.8049Z" fill="#000000" opacity="1" stroke="none"/>
</g>
<path d="M76.3925 28.4245L65.0525 36.9295L65.0525 45.4345L87.7325 45.4345L87.7325 36.9295L76.3925 28.4245Z" fill="#ffffff" fill-rule="nonzero" opacity="1" stroke="#000000" stroke-linecap="butt" stroke-linejoin="miter" stroke-width="0.5"/>
<g fill="#000000" opacity="1" stroke="none">
<path d="M70.9144 38.6239C70.9504 38.8399 70.9624 39.0559 70.9624 39.3979L70.9624 40.5499L68.5504 40.5499L68.5504 39.3919C68.5504 39.0739 68.5624 38.8759 68.5984 38.6239L67.7044 38.6239C67.7404 38.8579 67.7524 39.0439 67.7524 39.3979L67.7524 42.6259C67.7524 42.9799 67.7404 43.1719 67.7044 43.3999L68.5984 43.3999C68.5624 43.1539 68.5504 42.9739 68.5504 42.6259L68.5504 41.2699L70.9624 41.2699L70.9624 42.6259C70.9624 42.9799 70.9504 43.1659 70.9144 43.3999L71.8084 43.3999C71.7724 43.1479 71.7604 42.9739 71.7604 42.6259L71.7604 39.3919C71.7604 39.0499 71.7724 38.8699 71.8084 38.6239L70.9144 38.6239Z"/>
<path d="M76.0684 42.6439C75.8104 42.6739 75.6364 42.6859 75.3004 42.6859L73.5004 42.6859L73.5004 41.2699L74.9644 41.2699C75.3364 41.2699 75.4984 41.2759 75.7444 41.3119L75.7444 40.5259C75.4804 40.5559 75.2764 40.5679 74.9644 40.5679L73.5064 40.5679L73.5064 39.3319L75.2344 39.3319C75.5884 39.3319 75.7804 39.3439 76.0084 39.3739L76.0084 38.5819C75.7324 38.6119 75.5344 38.6239 75.2344 38.6239L73.4224 38.6239C73.0564 38.6239 72.9004 38.6179 72.6604 38.6059C72.6964 38.8879 72.7084 39.0679 72.7084 39.3799L72.7084 42.6259C72.7084 42.9799 72.6964 43.1779 72.6604 43.4179C72.9004 43.4059 73.0624 43.3999 73.4224 43.3999L75.2944 43.3999C75.6604 43.3999 75.8524 43.4119 76.0684 43.4419L76.0684 42.6439Z"/>
<path d="M81.1264 43.3999C81.0424 43.2439 80.9704 43.0759 80.8204 42.6919L79.4884 39.2299C79.3504 38.8639 79.3144 38.7679 79.2844 38.6239L78.2404 38.6239C78.2104 38.7799 78.1624 38.9299 78.0484 39.2299L76.7284 42.6919C76.6204 42.9679 76.5004 43.2379 76.4104 43.3999L77.3944 43.3999C77.4424 43.1479 77.4664 43.0579 77.5744 42.7699L77.8144 42.1159L79.7344 42.1159L79.9744 42.7699C80.0404 42.9439 80.1064 43.2019 80.1424 43.3999L81.1264 43.3999ZM79.5184 41.4259L78.0304 41.4259L78.6544 39.6499C78.6724 39.5959 78.6724 39.5959 78.7684 39.3139C78.8344 39.5119 78.8524 39.5839 78.8764 39.6499L79.5184 41.4259Z"/>
<path d="M81.6664 42.6259C81.6664 42.9859 81.6544 43.1719 81.6184 43.4179C81.8644 43.4059 82.0144 43.3999 82.3804 43.3999L83.4724 43.3999C84.1804 43.3999 84.6604 43.2379 85.0444 42.8779C85.5124 42.4339 85.7524 41.7859 85.7524 40.9699C85.7524 40.1899 85.5244 39.5659 85.0864 39.1519C84.7024 38.7799 84.2164 38.6239 83.4664 38.6239L82.3804 38.6239C82.0024 38.6239 81.8584 38.6179 81.6184 38.6059C81.6544 38.8699 81.6664 39.0499 81.6664 39.3859L81.6664 42.6259ZM82.4644 42.6919L82.4644 39.3319L83.4244 39.3319C83.9464 39.3319 84.2584 39.4339 84.5044 39.6919C84.7804 39.9799 84.9184 40.4059 84.9184 40.9759C84.9184 41.5399 84.7684 42.0019 84.4804 42.3079C84.2284 42.5779 83.9104 42.6919 83.4184 42.6919L82.4644 42.6919Z"/>
</g>
</g>
</g>
</svg>
