<?xml version="1.0" encoding="utf-8"?>
<svg viewBox="138.087 -3.00188 170.079 283.465" xmlns="http://www.w3.org/2000/svg" xmlns:xlink="http://www.w3.org/1999/xlink">
  <g id="am1">
    <path id="am2" style="fill:#ffffff;fill-opacity:1;fill-rule:nonzero;opacity:1;stroke:#000000;stroke-linecap:butt;stroke-linejoin:miter;stroke-miterlimit:10;stroke-opacity:1;stroke-width:1.5;" d="M256.229,140.132 C256.263,137.921,255.735,103.386,251.102,93.4249 C244.947,80.1917,234.467,71.1649,234.467,71.1649 C233.765,69.458,233.548,67.5909,233.838,65.7685 C234.207,63.4555,234.726,60.3274,235.059,58.8808 C235.059,58.8808,237.18,49.5542,237.18,49.5542 C237.18,49.5542,249.583,42.1719,252.407,39.2518 C257.673,33.8065,267.358,14.9214,267.358,14.9214 C267.358,14.9214,254.17,19.9506,254.17,19.9506 C251.772,20.8654,249.197,21.2258,246.64,21.0051 C241.747,20.5828,234.16,19.8067,233.555,19.7066 C229.581,19.0487,217.544,17.2494,213.196,18.8002 C201.137,23.1021,198.739,31.9174,198.739,31.9174 C198.739,31.9174,161.751,37.1024,161.751,37.1024 C161.751,37.1024,150.496,40.9337,150.496,40.9337 C150.496,40.9337,180.668,45.7229,180.668,45.7229 C180.668,45.7229,205.092,48.1175,205.092,48.1175 C205.092,48.1175,205.272,48.3919,205.272,48.3919 C207.875,52.3651,213.647,54.8007,210.655,58.4893 C210.655,58.4893,201.105,68.2383,201.105,68.2383 C201.105,68.2383,196.429,72.4165,196.429,72.4165 C192.818,75.9355,188.817,84.0868,188.869,89.1291 C188.869,89.1291,188.262,98.0216,188.57,101.067 C189.134,106.638,192.48,117.45,194.436,122.677 C196.391,127.904,205.59,141.332,205.59,141.332 C205.59,141.332,211.457,152.393,211.457,152.393 C213.278,155.826,212.67,154.408,214.976,157.536"/>
    <path id="am3" style="fill:#ffffff;fill-opacity:1;fill-rule:nonzero;opacity:1;stroke:#000000;stroke-linecap:butt;stroke-linejoin:miter;stroke-miterlimit:10;stroke-opacity:1;stroke-width:1.5;" d="M214.616,156.816 C214.616,156.816,214.556,165.761,214.556,165.761 C214.556,165.761,201.96,151.955,201.96,151.955 C201.476,151.405,194.062,144.33,194.062,144.33 C194.062,144.33,189.975,140.49,189.975,140.49 C189.975,140.49,184.582,136.395,181.07,139.285 C178.127,141.708,178.661,144.669,179.431,146.492 C179.681,147.083,180.544,147.032,180.724,146.417 C181.148,144.969,182.073,143.056,184.06,142.376 C186.475,141.709,195.136,150.895,195.136,150.895 C195.136,150.895,189.847,151.292,189.847,151.292 C189.847,151.292,186.25,151.413,184.286,153.088 C182.229,154.842,183.681,156.778,183.835,158.435 C183.888,159.003,184.693,159.158,184.968,158.658 C185.78,157.181,187.034,155.43,188.293,155.075 C193.944,153.484,200.928,158.462,201.443,159.859 C201.72,160.609,202.642,161.052,201.384,162.68 C200.158,164.267,197.864,163.645,196.234,163.649 C195.645,163.65,195.394,164.401,195.864,164.757 C197.359,165.89,199.421,167.433,199.554,167.43 C204.892,167.315,205.202,162.226,205.202,162.226 C205.202,162.226,208.945,167.048,208.945,167.048 C208.945,167.048,217.653,177.7,217.653,177.7 C217.653,177.7,220.67,179.955,221.981,179.212 C223.661,178.26,225.452,174.989,225.452,174.989"/>
    <path id="am4" style="fill:#fbed21;fill-opacity:1;fill-rule:nonzero;opacity:1;stroke:#000000;stroke-linecap:butt;stroke-linejoin:miter;stroke-miterlimit:10;stroke-opacity:1;stroke-width:1.5;" d="M214.556,165.761 C214.556,165.761,201.96,151.955,201.96,151.955 C201.476,151.405,194.062,144.33,194.062,144.33 C194.062,144.33,189.975,140.49,189.975,140.49 C189.975,140.49,184.582,136.395,181.07,139.285 C178.127,141.708,178.661,144.669,179.431,146.492 C179.681,147.083,180.544,147.032,180.724,146.417 C181.148,144.969,182.073,143.056,184.06,142.376 C186.475,141.709,195.136,150.895,195.136,150.895 C195.136,150.895,189.847,151.292,189.847,151.292 C189.847,151.292,186.25,151.413,184.286,153.088 C182.229,154.842,183.681,156.778,183.835,158.435 C183.888,159.003,184.693,159.158,184.968,158.658 C185.78,157.181,187.034,155.43,188.293,155.075 C193.944,153.484,200.928,158.462,201.443,159.859 C201.72,160.609,202.642,161.052,201.384,162.68 C200.158,164.267,197.864,163.645,196.234,163.649 C195.645,163.65,195.394,164.401,195.864,164.757 C197.359,165.89,199.421,167.433,199.554,167.43 C204.892,167.315,205.202,162.226,205.202,162.226 C205.202,162.226,208.945,167.048,208.945,167.048 C208.945,167.048,218.299,178.305,218.299,178.305"/>
    <path id="am5" style="fill:#898989;fill-opacity:1;fill-rule:nonzero;opacity:1;stroke:#898989;stroke-linecap:round;stroke-linejoin:round;stroke-miterlimit:10;stroke-opacity:1;stroke-width:1;" d="M202.922,66.6488 C202.922,66.6488,196.825,72.2289,196.825,72.2289 C196.825,72.2289,200.79,71.6597,201.923,71.1266 C203.155,70.5465,205.402,66.5901,206.263,65.7877 C208.065,64.108,208.636,63.5466,212.015,60.2764 C214.33,58.0359,221.613,58.6835,224.336,57.2586 C226.42,56.1676,228.901,50.704,228.901,50.704 C229.796,50.08,219.933,49.7257,219.933,49.7257 C219.933,49.7257,225.005,50.7829,224.401,52.791 C223.617,55.3973,212.623,56.8497,211.843,57.5208 C211.843,57.5208,202.922,66.6488,202.922,66.6488 z"/>
    <path id="am6" style="fill:#ff1c85;fill-opacity:1;fill-rule:nonzero;opacity:1;stroke:#ff1c85;stroke-linecap:round;stroke-linejoin:round;stroke-miterlimit:10;stroke-opacity:1;stroke-width:1;" d="M197.655,32.1195 C197.655,32.1195,202.055,23.0879,210.552,19.4545 C222.082,14.524,238.605,21.141,247.798,20.2919 C252.883,19.8221,269.005,13.7624,269.005,13.7624 C269.005,13.7624,257.774,34.3312,257.774,34.3312 C256.061,37.4007,252.805,40.7787,249.859,42.6952 C249.859,42.6952,236.33,51.1714,236.33,51.1714 C236.33,51.1714,232.467,27.2485,218.876,29.1097 C212.22,30.0211,197.655,32.1195,197.655,32.1195 z"/>
    <path id="am7" style="fill:#ff1c85;fill-opacity:1;fill-rule:nonzero;opacity:0.93;stroke:#ff1c85;stroke-linecap:round;stroke-linejoin:round;stroke-miterlimit:10;stroke-opacity:1;stroke-width:1;" d="M204.003,48.0785 C204.003,48.0785,206.749,46.7334,215.21,43.0848 C217.197,42.2281,222.391,41.8039,222.391,41.8039 C222.391,41.8039,230.259,41.2551,230.259,41.2551 C230.259,41.2551,221.499,44.4821,221.499,44.4821 C221.499,44.4821,232.055,46.428,232.055,46.428 C232.055,46.428,221.867,47.1604,221.867,47.1604 C221.867,47.1604,228.777,50.431,228.777,50.431 C228.777,50.431,204.003,48.0785,204.003,48.0785 z"/>
    <path id="am8" style="fill:#898989;fill-opacity:1;fill-rule:nonzero;opacity:1;stroke:#898989;stroke-linecap:round;stroke-linejoin:round;stroke-miterlimit:10;stroke-opacity:1;stroke-width:1;" d="M200.243,33.5504 C200.243,33.5504,196.344,32.01,196.927,31.8355 C198.513,31.3616,205.197,29.0341,207.936,28.1536 C210.591,27.3004,211.975,27.0245,216.676,27.1738 C219.897,27.276,226.642,29.3888,226.642,29.3888 C226.642,29.3888,238.088,32.4471,238.088,32.4471 C238.088,32.4471,219.234,32.6048,214.569,32.8889 C210.864,33.1145,200.243,33.5504,200.243,33.5504 z"/>
    <path id="am9" style="fill:#e7fb21;fill-opacity:1;fill-rule:nonzero;opacity:1;stroke:#e6fb21;stroke-linecap:round;stroke-linejoin:round;stroke-miterlimit:10;stroke-opacity:1;stroke-width:0.3;" d="M208.633,30.048 C205.643,30.8656,204.494,32.552,205.132,34.2383 C205.793,35.9817,207.943,39.6551,211.188,38.863 C214.621,38.025,216.163,32.9624,214.893,31.4277 C214.154,30.5352,212.047,29.1141,208.633,30.048 z"/>
    <path id="am10" style="fill:#9e9e9e;fill-opacity:1;fill-rule:nonzero;opacity:1;stroke:#000000;stroke-linecap:round;stroke-linejoin:round;stroke-miterlimit:10;stroke-opacity:1;stroke-width:1;" d="M148.27,41.2288 C148.27,41.2288,162.289,36.8479,162.289,36.8479 C162.289,36.8479,198.431,32.0289,198.431,32.0289 C198.431,32.0289,212.888,43.5652,212.888,43.5652 C212.888,43.5652,205.002,48.2381,205.002,48.2381 C205.002,48.2381,148.27,41.2288,148.27,41.2288 z"/>
    <path id="am11" style="fill:#656565;fill-opacity:1;fill-rule:nonzero;opacity:1;stroke:#000000;stroke-linecap:round;stroke-linejoin:round;stroke-miterlimit:10;stroke-opacity:1;stroke-width:1;" d="M148.27,41.2288 C148.27,41.2288,162.289,36.8479,162.289,36.8479 C162.289,36.8479,198.431,32.0289,198.431,32.0289 C198.431,32.0289,212.888,43.5652,212.888,43.5652 C212.888,43.5652,183.244,39.2574,183.244,39.2574 C183.244,39.2574,148.27,41.2288,148.27,41.2288 z"/>
    <path id="am12" style="fill:#000000;fill-opacity:1;fill-rule:evenodd;opacity:1;stroke:#000000;stroke-linecap:round;stroke-linejoin:round;stroke-miterlimit:10;stroke-opacity:1;stroke-width:0.3;" d="M208.224,31.6832 C211.825,28.8245,215.419,33.8404,212.976,36.3335 C209.246,40.1405,204.136,34.9282,208.224,31.6832 z"/>
    <path id="am13" style="fill:#ffffff;fill-opacity:1;fill-rule:evenodd;opacity:1;stroke:#ffffff;stroke-linecap:round;stroke-linejoin:round;stroke-miterlimit:10;stroke-opacity:1;stroke-width:0.3;" d="M210.387,32.1919 C210.769,31.9288,211.861,32.1362,212.106,32.4772 C212.401,32.8868,212.471,33.6633,212.104,34.0736 C211.813,34.3986,210.775,34.4585,210.374,34.1261 C210.076,33.8801,209.637,32.7093,210.387,32.1919 z"/>
    <path id="am14" style="fill:#643f2a;fill-opacity:1;fill-rule:nonzero;opacity:1;stroke:#643f2a;stroke-linecap:round;stroke-linejoin:round;stroke-miterlimit:10;stroke-opacity:1;stroke-width:1;" d="M217.237,101.48 C221.558,110.406,238.81,133.756,238.81,133.756 C238.81,133.756,252.257,149.774,252.257,149.774 C252.257,149.774,257.143,157.122,257.143,157.122 C257.143,157.122,265.443,176.778,265.443,176.778 C265.443,176.778,263.159,143.098,261.243,139.167 C259.101,134.771,255.015,125.885,252.94,121.457 C250.35,115.93,247.719,104.117,244.866,98.7332 C242.129,93.5682,213.102,92.9366,217.237,101.48 z"/>
    <path id="am15" style="fill:#4d4d4d;fill-opacity:1;fill-rule:nonzero;opacity:1;stroke:#000000;stroke-linecap:round;stroke-linejoin:round;stroke-miterlimit:10;stroke-opacity:1;stroke-width:1;" d="M223.075,164.374 C226.969,176.217,237.559,190.765,245.004,200.454 C249.486,206.286,256.728,223.624,260.927,229.677 C264.091,234.238,269.1,244.523,273.071,248.828 C275.396,251.349,280.765,255.72,283.744,257.422 C286.499,258.996,294.197,260.518,296.023,258.046 C298.776,254.318,289.679,240.628,289.679,240.628 C289.679,240.628,274.18,220.967,274.18,220.967 C274.18,220.967,263.606,202.574,261.802,196.697 C259.55,189.362,243.145,152.35,240.331,145.216 C237.631,138.371,219.349,153.039,223.075,164.374 z"/>
    <path id="am16" style="fill:#643f2a;fill-opacity:1;fill-rule:nonzero;opacity:1;stroke:#643f2a;stroke-linecap:round;stroke-linejoin:round;stroke-miterlimit:10;stroke-opacity:1;stroke-width:1;" d="M210.665,69.2929 C202.144,74.0197,193.57,96.1547,194.848,105.928 C196.183,116.14,209.862,144.288,209.862,144.288 C209.862,144.288,222.005,163.987,222.005,163.987 C222.005,163.987,229.916,182.318,229.916,182.318 C229.916,182.318,229.691,171.025,229.691,171.025 C229.691,171.025,240.176,197.314,240.176,197.314 C240.176,197.314,241.942,190.421,241.942,190.421 C241.942,190.421,245.396,196.092,245.396,196.092 C245.396,196.092,243.041,169.822,243.041,169.822 C243.041,169.822,247.518,173.191,247.518,173.191 C247.518,173.191,245.202,159.763,244.591,155.263 C243.908,150.23,242.948,140.116,242.402,135.067 C241.72,128.765,240.684,116.103,239.455,109.885 C238.276,103.919,235.958,91.7323,232.949,86.4459 C230.546,82.2253,227.638,67.8525,223.598,65.1395 C220.783,63.2487,213.59,67.6703,210.665,69.2929 z"/>
    <path id="am17" style="fill:#662d90;fill-opacity:1;fill-rule:nonzero;opacity:1;stroke:#662d90;stroke-linecap:round;stroke-linejoin:round;stroke-miterlimit:10;stroke-opacity:1;stroke-width:1;" d="M210.477,94.0094 C199.579,100.064,224.363,158.329,224.363,158.329 C224.363,158.329,238.161,182.128,238.161,182.128 C238.161,182.128,247.336,204.276,247.336,204.276 C247.336,204.276,246.712,190.631,246.712,190.631 C246.712,190.631,258.939,222.392,258.939,222.392 C258.939,222.392,260.617,214.064,260.617,214.064 C260.617,214.064,264.544,220.916,264.544,220.916 C264.544,220.916,261.112,189.175,261.112,189.175 C261.112,189.175,266.069,193.245,266.069,193.245 C266.069,193.245,227.482,84.5618,210.477,94.0094 z"/>
    <path id="am18" style="fill:#aaaaaa;fill-opacity:1;fill-rule:nonzero;opacity:1;stroke:#aaaaaa;stroke-linecap:round;stroke-linejoin:round;stroke-miterlimit:10;stroke-opacity:1;stroke-width:1;" d="M210.407,90.1332 C205.951,93.9854,204.113,102.839,207.287,113.001 C210.602,123.619,228.012,151.735,228.012,151.735 C228.012,151.735,242.32,171.115,242.32,171.115 C242.32,171.115,252.832,189.541,252.832,189.541 C252.832,189.541,250.2,177.655,250.2,177.655 C250.2,177.655,264.564,204.177,264.564,204.177 C264.564,204.177,267.403,208.465,267.403,208.465 C267.403,208.465,268.616,202.288,268.616,202.288 C268.616,202.288,267.03,186.944,267.03,186.944 C267.03,186.944,265.153,176.083,265.153,176.083 C265.153,176.083,260.588,163.989,259.108,159.312 C257.453,154.083,254.469,143.525,252.923,138.262 C250.995,131.693,247.395,118.456,245.032,112.039 C242.765,105.881,239.167,98.4498,235.389,95.1598 C231.973,92.1862,223.722,87.5034,219.181,87.2766 C216.862,87.1607,212.152,88.6246,210.407,90.1332 z"/>
    <path id="am19" style="fill:#353535;fill-opacity:1;fill-rule:nonzero;opacity:1;stroke:#363636;stroke-linecap:round;stroke-linejoin:round;stroke-miterlimit:10;stroke-opacity:1;stroke-width:1;" d="M204.923,79.7408 C204.032,83.9541,203.42,95.1108,206.121,103.791 C208.942,112.859,233.185,140.252,233.185,140.252 C233.185,140.252,244.259,157.149,244.259,157.149 C244.259,157.149,252.569,173.086,252.569,173.086 C252.569,173.086,250.185,162.979,250.185,162.979 C250.185,162.979,260.101,188.204,260.101,188.204 C260.101,188.204,261.261,179.598,261.261,179.598 C261.261,179.598,264.405,186.944,264.405,186.944 C264.405,186.944,257.801,161.067,257.801,161.067 C257.801,161.067,261.108,163.807,261.108,163.807 C261.108,163.807,257.068,151.917,255.811,147.922 C254.406,143.455,251.824,134.45,250.496,129.959 C248.838,124.353,245.704,113.07,243.741,107.573 C241.858,102.3,238.967,95.899,236.119,92.9742 C233.544,90.3307,225.145,67.3603,208.107,71.0745 C206.466,71.4321,205.572,76.6751,204.923,79.7408 z"/>
    <path id="am20" style="fill:#272066;fill-opacity:1;fill-rule:nonzero;opacity:1;stroke:#262167;stroke-linecap:round;stroke-linejoin:round;stroke-miterlimit:10;stroke-opacity:1;stroke-width:1;" d="M207.853,71.5577 C222.29,70.1825,227.575,83.0235,231.71,91.567 C236.03,100.493,240.296,120.007,246.973,128.379 C249.798,131.921,262.954,148.012,262.954,148.012 C262.954,148.012,257.955,111.356,254.178,99.2548 C252.161,92.7929,244.61,81.3576,241.063,75.5832 C239.308,72.7257,232.148,63.9003,228.261,62.8231 C222.199,61.143,205.22,71.8085,207.853,71.5577 z"/>
  </g>
</svg>
