<?xml version="1.0" encoding="UTF-8" standalone="no"?>
<!DOCTYPE svg PUBLIC "-//W3C//DTD SVG 1.1//EN" "http://www.w3.org/Graphics/SVG/1.1/DTD/svg11.dtd">
<!-- Created with Vectornator (http://vectornator.io/) -->
<svg height="100%" stroke-miterlimit="10" style="fill-rule:nonzero;clip-rule:evenodd;stroke-linecap:round;stroke-linejoin:round;" version="1.1" viewBox="0 0 595.35 841.995" width="100%" xml:space="preserve" xmlns="http://www.w3.org/2000/svg" xmlns:vectornator="http://vectornator.io" xmlns:xlink="http://www.w3.org/1999/xlink">
<defs/>
<path d="M0 0L595.35 0L595.35 841.995L0 841.995L0 0Z" fill="#ffffff" fill-rule="nonzero" opacity="1" stroke="none" vectornator:artboardBackground="true"/>
<g id="レイヤー-1" vectornator:layerName="レイヤー 1">
<path d="M34.5683 229.127L195.242 229.127L195.242 242.205L34.5683 242.205L34.5683 229.127Z" fill="#3395ff" fill-rule="nonzero" opacity="1" stroke="none" vectornator:layerName="長方形 1"/>
<path d="M34.5683 259.42L195.242 259.42L195.242 272.499L34.5683 272.499L34.5683 259.42Z" fill="#3395ff" fill-rule="nonzero" opacity="1" stroke="none" vectornator:layerName="長方形 2"/>
<path d="M34.5683 171.075L195.242 171.075L195.242 184.153L34.5683 184.153L34.5683 171.075Z" fill="#3395ff" fill-rule="nonzero" opacity="1" stroke="none" vectornator:layerName="長方形 3"/>
<path d="M34.5683 201.368L195.242 201.368L195.242 214.447L34.5683 214.447L34.5683 201.368Z" fill="#3395ff" fill-rule="nonzero" opacity="1" stroke="none" vectornator:layerName="長方形 4"/>
<path d="M104.658 173.906C104.658 168.247 109.246 163.66 114.905 163.66C120.564 163.66 125.151 168.247 125.151 173.906C125.151 179.565 120.564 184.153 114.905 184.153C109.246 184.153 104.658 179.565 104.658 173.906Z" fill="#e94420" fill-rule="nonzero" opacity="1" stroke="none" vectornator:layerName="楕円形 1"/>
<path d="M222.571 107.491C222.571 101.832 227.159 97.244 232.818 97.244C238.477 97.244 243.065 101.832 243.065 107.491C243.065 113.15 238.477 117.737 232.818 117.737C227.159 117.737 222.571 113.15 222.571 107.491Z" fill="#e94420" fill-rule="nonzero" opacity="1" stroke="none" vectornator:layerName="楕円形 67"/>
<path d="M55.2966 218.404C55.2966 212.607 59.9962 207.908 65.7934 207.908C71.5906 207.908 76.2902 212.607 76.2902 218.404C76.2902 224.202 71.5906 228.901 65.7934 228.901C59.9962 228.901 55.2966 224.202 55.2966 218.404Z" fill="#26691a" fill-rule="nonzero" opacity="1" stroke="none" vectornator:layerName="楕円形 2"/>
<path d="M104.017 218.63C104.017 212.833 108.717 208.133 114.514 208.133C120.311 208.133 125.011 212.833 125.011 218.63C125.011 224.427 120.311 229.127 114.514 229.127C108.717 229.127 104.017 224.427 104.017 218.63Z" fill="#26691a" fill-rule="nonzero" opacity="1" stroke="none" vectornator:layerName="楕円形 3"/>
<path d="M152.526 218.63C152.526 212.833 157.225 208.133 163.022 208.133C168.82 208.133 173.519 212.833 173.519 218.63C173.519 224.427 168.82 229.127 163.022 229.127C157.225 229.127 152.526 224.427 152.526 218.63Z" fill="#26691a" fill-rule="nonzero" opacity="1" stroke="none" vectornator:layerName="楕円形 4"/>
<path d="M76.2902 248.924C76.2902 243.126 80.9898 238.427 86.787 238.427C92.5842 238.427 97.2838 243.126 97.2838 248.924C97.2838 254.721 92.5842 259.42 86.787 259.42C80.9898 259.42 76.2902 254.721 76.2902 248.924Z" fill="#26691a" fill-rule="nonzero" opacity="1" stroke="none" vectornator:layerName="楕円形 5"/>
<path d="M131.871 248.924C131.871 243.126 136.571 238.427 142.368 238.427C148.165 238.427 152.865 243.126 152.865 248.924C152.865 254.721 148.165 259.42 142.368 259.42C136.571 259.42 131.871 254.721 131.871 248.924Z" fill="#26691a" fill-rule="nonzero" opacity="1" stroke="none" vectornator:layerName="楕円形 6"/>
<path d="M34.5683 378.017L195.242 378.017L195.242 391.096L34.5683 391.096L34.5683 378.017Z" fill="#3395ff" fill-rule="nonzero" opacity="1" stroke="none" vectornator:layerName="長方形 5"/>
<path d="M34.5683 408.311L195.242 408.311L195.242 421.39L34.5683 421.39L34.5683 408.311Z" fill="#3395ff" fill-rule="nonzero" opacity="1" stroke="none" vectornator:layerName="長方形 6"/>
<path d="M34.5683 319.965L195.242 319.965L195.242 333.044L34.5683 333.044L34.5683 319.965Z" fill="#3395ff" fill-rule="nonzero" opacity="1" stroke="none" vectornator:layerName="長方形 7"/>
<path d="M34.5683 292.298L195.242 292.298L195.242 305.377L34.5683 305.377L34.5683 292.298Z" fill="#3395ff" fill-rule="nonzero" opacity="1" stroke="none" vectornator:layerName="長方形 9"/>
<path d="M34.5683 350.259L195.242 350.259L195.242 363.338L34.5683 363.338L34.5683 350.259Z" fill="#3395ff" fill-rule="nonzero" opacity="1" stroke="none" vectornator:layerName="長方形 8"/>
<path d="M104.658 322.797C104.658 317.138 109.246 312.551 114.905 312.551C120.564 312.551 125.151 317.138 125.151 322.797C125.151 328.456 120.564 333.044 114.905 333.044C109.246 333.044 104.658 328.456 104.658 322.797Z" fill="#e94420" fill-rule="nonzero" opacity="1" stroke="none" vectornator:layerName="楕円形 7"/>
<path d="M55.2966 367.295C55.2966 361.498 59.9962 356.798 65.7934 356.798C71.5906 356.798 76.2902 361.498 76.2902 367.295C76.2902 373.092 71.5906 377.792 65.7934 377.792C59.9962 377.792 55.2966 373.092 55.2966 367.295Z" fill="#26691a" fill-rule="nonzero" opacity="1" stroke="none" vectornator:layerName="楕円形 8"/>
<path d="M104.017 367.521C104.017 361.723 108.717 357.024 114.514 357.024C120.311 357.024 125.011 361.723 125.011 367.521C125.011 373.318 120.311 378.017 114.514 378.017C108.717 378.017 104.017 373.318 104.017 367.521Z" fill="#26691a" fill-rule="nonzero" opacity="1" stroke="none" vectornator:layerName="楕円形 9"/>
<path d="M152.526 367.521C152.526 361.723 157.225 357.024 163.022 357.024C168.82 357.024 173.519 361.723 173.519 367.521C173.519 373.318 168.82 378.017 163.022 378.017C157.225 378.017 152.526 373.318 152.526 367.521Z" fill="#26691a" fill-rule="nonzero" opacity="1" stroke="none" vectornator:layerName="楕円形 10"/>
<path d="M76.2902 397.814C76.2902 392.017 80.9898 387.318 86.787 387.318C92.5842 387.318 97.2838 392.017 97.2838 397.814C97.2838 403.612 92.5842 408.311 86.787 408.311C80.9898 408.311 76.2902 403.612 76.2902 397.814Z" fill="#26691a" fill-rule="nonzero" opacity="1" stroke="none" vectornator:layerName="楕円形 11"/>
<path d="M131.871 397.814C131.871 392.017 136.571 387.318 142.368 387.318C148.165 387.318 152.865 392.017 152.865 397.814C152.865 403.612 148.165 408.311 142.368 408.311C136.571 408.311 131.871 403.612 131.871 397.814Z" fill="#26691a" fill-rule="nonzero" opacity="1" stroke="none" vectornator:layerName="楕円形 12"/>
<path d="M34.5683 525.437L195.242 525.437L195.242 538.516L34.5683 538.516L34.5683 525.437Z" fill="#3395ff" fill-rule="nonzero" opacity="1" stroke="none" vectornator:layerName="長方形 10"/>
<path d="M34.5683 555.731L195.242 555.731L195.242 568.81L34.5683 568.81L34.5683 555.731Z" fill="#3395ff" fill-rule="nonzero" opacity="1" stroke="none" vectornator:layerName="長方形 11"/>
<path d="M34.5683 467.385L195.242 467.385L195.242 480.464L34.5683 480.464L34.5683 467.385Z" fill="#3395ff" fill-rule="nonzero" opacity="1" stroke="none" vectornator:layerName="長方形 12"/>
<path d="M34.5683 439.718L195.242 439.718L195.242 452.797L34.5683 452.797L34.5683 439.718Z" fill="#3395ff" fill-rule="nonzero" opacity="1" stroke="none" vectornator:layerName="長方形 13"/>
<path d="M34.5683 497.679L195.242 497.679L195.242 510.758L34.5683 510.758L34.5683 497.679Z" fill="#3395ff" fill-rule="nonzero" opacity="1" stroke="none" vectornator:layerName="長方形 14"/>
<path d="M104.658 470.217C104.658 464.558 109.246 459.971 114.905 459.971C120.564 459.971 125.151 464.558 125.151 470.217C125.151 475.876 120.564 480.464 114.905 480.464C109.246 480.464 104.658 475.876 104.658 470.217Z" fill="#e94420" fill-rule="nonzero" opacity="1" stroke="none" vectornator:layerName="楕円形 13"/>
<path d="M55.2966 514.715C55.2966 508.918 59.9962 504.218 65.7934 504.218C71.5906 504.218 76.2902 508.918 76.2902 514.715C76.2902 520.512 71.5906 525.212 65.7934 525.212C59.9962 525.212 55.2966 520.512 55.2966 514.715Z" fill="#26691a" fill-rule="nonzero" opacity="1" stroke="none" vectornator:layerName="楕円形 14"/>
<path d="M104.017 514.941C104.017 509.143 108.717 504.444 114.514 504.444C120.311 504.444 125.011 509.143 125.011 514.941C125.011 520.738 120.311 525.437 114.514 525.437C108.717 525.437 104.017 520.738 104.017 514.941Z" fill="#26691a" fill-rule="nonzero" opacity="1" stroke="none" vectornator:layerName="楕円形 15"/>
<path d="M152.526 514.941C152.526 509.143 157.225 504.444 163.022 504.444C168.82 504.444 173.519 509.143 173.519 514.941C173.519 520.738 168.82 525.437 163.022 525.437C157.225 525.437 152.526 520.738 152.526 514.941Z" fill="#26691a" fill-rule="nonzero" opacity="1" stroke="none" vectornator:layerName="楕円形 16"/>
<path d="M76.2902 545.234C76.2902 539.437 80.9898 534.738 86.787 534.738C92.5842 534.738 97.2838 539.437 97.2838 545.234C97.2838 551.032 92.5842 555.731 86.787 555.731C80.9898 555.731 76.2902 551.032 76.2902 545.234Z" fill="#26691a" fill-rule="nonzero" opacity="1" stroke="none" vectornator:layerName="楕円形 17"/>
<path d="M131.871 545.234C131.871 539.437 136.571 534.738 142.368 534.738C148.165 534.738 152.865 539.437 152.865 545.234C152.865 551.032 148.165 555.731 142.368 555.731C136.571 555.731 131.871 551.032 131.871 545.234Z" fill="#26691a" fill-rule="nonzero" opacity="1" stroke="none" vectornator:layerName="楕円形 18"/>
<path d="M34.5683 670.022L195.242 670.022L195.242 683.101L34.5683 683.101L34.5683 670.022Z" fill="#3395ff" fill-rule="nonzero" opacity="1" stroke="none" vectornator:layerName="長方形 15"/>
<path d="M34.5683 700.316L195.242 700.316L195.242 713.395L34.5683 713.395L34.5683 700.316Z" fill="#3395ff" fill-rule="nonzero" opacity="1" stroke="none" vectornator:layerName="長方形 16"/>
<path d="M34.5683 611.97L195.242 611.97L195.242 625.049L34.5683 625.049L34.5683 611.97Z" fill="#3395ff" fill-rule="nonzero" opacity="1" stroke="none" vectornator:layerName="長方形 17"/>
<path d="M34.5683 584.303L195.242 584.303L195.242 597.382L34.5683 597.382L34.5683 584.303Z" fill="#3395ff" fill-rule="nonzero" opacity="1" stroke="none" vectornator:layerName="長方形 18"/>
<path d="M34.5683 642.264L195.242 642.264L195.242 655.343L34.5683 655.343L34.5683 642.264Z" fill="#3395ff" fill-rule="nonzero" opacity="1" stroke="none" vectornator:layerName="長方形 19"/>
<path d="M104.658 614.802C104.658 609.143 109.246 604.556 114.905 604.556C120.564 604.556 125.151 609.143 125.151 614.802C125.151 620.461 120.564 625.049 114.905 625.049C109.246 625.049 104.658 620.461 104.658 614.802Z" fill="#e94420" fill-rule="nonzero" opacity="1" stroke="none" vectornator:layerName="楕円形 19"/>
<path d="M55.2966 659.3C55.2966 653.503 59.9962 648.803 65.7934 648.803C71.5906 648.803 76.2902 653.503 76.2902 659.3C76.2902 665.097 71.5906 669.797 65.7934 669.797C59.9962 669.797 55.2966 665.097 55.2966 659.3Z" fill="#26691a" fill-rule="nonzero" opacity="1" stroke="none" vectornator:layerName="楕円形 20"/>
<path d="M104.017 659.526C104.017 653.728 108.717 649.029 114.514 649.029C120.311 649.029 125.011 653.728 125.011 659.526C125.011 665.323 120.311 670.022 114.514 670.022C108.717 670.022 104.017 665.323 104.017 659.526Z" fill="#26691a" fill-rule="nonzero" opacity="1" stroke="none" vectornator:layerName="楕円形 21"/>
<path d="M152.526 659.526C152.526 653.728 157.225 649.029 163.022 649.029C168.82 649.029 173.519 653.728 173.519 659.526C173.519 665.323 168.82 670.022 163.022 670.022C157.225 670.022 152.526 665.323 152.526 659.526Z" fill="#26691a" fill-rule="nonzero" opacity="1" stroke="none" vectornator:layerName="楕円形 22"/>
<path d="M76.2902 689.819C76.2902 684.022 80.9898 679.323 86.787 679.323C92.5842 679.323 97.2838 684.022 97.2838 689.819C97.2838 695.617 92.5842 700.316 86.787 700.316C80.9898 700.316 76.2902 695.617 76.2902 689.819Z" fill="#26691a" fill-rule="nonzero" opacity="1" stroke="none" vectornator:layerName="楕円形 23"/>
<path d="M131.871 689.819C131.871 684.022 136.571 679.323 142.368 679.323C148.165 679.323 152.865 684.022 152.865 689.819C152.865 695.617 148.165 700.316 142.368 700.316C136.571 700.316 131.871 695.617 131.871 689.819Z" fill="#26691a" fill-rule="nonzero" opacity="1" stroke="none" vectornator:layerName="楕円形 24"/>
<path d="M230.183 229.127L390.857 229.127L390.857 242.205L230.183 242.205L230.183 229.127Z" fill="#3395ff" fill-rule="nonzero" opacity="1" stroke="none" vectornator:layerName="長方形 20"/>
<path d="M230.183 259.42L390.857 259.42L390.857 272.499L230.183 272.499L230.183 259.42Z" fill="#3395ff" fill-rule="nonzero" opacity="1" stroke="none" vectornator:layerName="長方形 21"/>
<path d="M230.183 171.075L390.857 171.075L390.857 184.153L230.183 184.153L230.183 171.075Z" fill="#3395ff" fill-rule="nonzero" opacity="1" stroke="none" vectornator:layerName="長方形 22"/>
<path d="M230.183 201.368L390.857 201.368L390.857 214.447L230.183 214.447L230.183 201.368Z" fill="#3395ff" fill-rule="nonzero" opacity="1" stroke="none" vectornator:layerName="長方形 23"/>
<path d="M300.273 173.906C300.273 168.247 304.861 163.66 310.52 163.66C316.179 163.66 320.766 168.247 320.766 173.906C320.766 179.565 316.179 184.153 310.52 184.153C304.861 184.153 300.273 179.565 300.273 173.906Z" fill="#e94420" fill-rule="nonzero" opacity="1" stroke="none" vectornator:layerName="楕円形 25"/>
<path d="M250.912 218.404C250.912 212.607 255.611 207.908 261.408 207.908C267.206 207.908 271.905 212.607 271.905 218.404C271.905 224.202 267.206 228.901 261.408 228.901C255.611 228.901 250.912 224.202 250.912 218.404Z" fill="#26691a" fill-rule="nonzero" opacity="1" stroke="none" vectornator:layerName="楕円形 26"/>
<path d="M222.071 129.737C222.071 123.94 226.771 119.24 232.568 119.24C238.365 119.24 243.065 123.94 243.065 129.737C243.065 135.534 238.365 140.234 232.568 140.234C226.771 140.234 222.071 135.534 222.071 129.737Z" fill="#26691a" fill-rule="nonzero" opacity="1" stroke="none" vectornator:layerName="楕円形 68"/>
<g fill="#26691a" opacity="1" stroke="none" vectornator:layerName="テキスト 14">
<path d="M250.359 133.89C250.053 133.914 249.652 133.926 249.476 133.926C249.393 133.926 249.346 133.926 249.216 133.914L249.334 134.633C249.523 134.598 249.688 134.574 249.959 134.55C251.856 134.385 252.457 134.327 253.883 134.15L253.883 134.503C253.883 135.01 253.86 135.305 253.813 135.611L254.602 135.611C254.544 135.305 254.532 135.01 254.532 134.456L254.532 130.307L254.673 130.307C255.109 130.307 255.416 130.319 255.722 130.355L255.722 129.659C255.404 129.706 255.145 129.718 254.638 129.718L250.371 129.718C249.864 129.718 249.582 129.706 249.275 129.659L249.275 130.355C249.582 130.319 249.9 130.307 250.359 130.307L250.359 133.89ZM251.02 130.307L253.883 130.307L253.883 131.074L251.02 131.074L251.02 130.307ZM251.02 131.616L253.883 131.616L253.883 132.382L251.02 132.382L251.02 131.616ZM251.02 132.924L253.883 132.924L253.883 133.56C252.835 133.69 252.835 133.69 251.02 133.843L251.02 132.924ZM247.719 134.645C247.719 135.281 247.696 135.635 247.649 135.965L248.521 135.965C248.474 135.67 248.45 135.317 248.45 134.645L248.45 128.94L250.666 128.94C251.149 128.94 251.597 128.952 251.856 128.976C251.833 128.681 251.821 128.386 251.821 127.891L251.821 126.713C251.821 126.241 251.833 125.958 251.856 125.593C251.526 125.628 251.243 125.64 250.654 125.64L248.898 125.64C248.321 125.64 247.99 125.628 247.672 125.593C247.708 125.97 247.719 126.312 247.719 126.89L247.719 134.645ZM248.45 126.194L251.149 126.194L251.149 127.019L248.45 127.019L248.45 126.194ZM248.45 127.55L251.149 127.55L251.149 128.375L248.45 128.375L248.45 127.55ZM252.988 127.891C252.988 128.351 252.976 128.657 252.952 128.976C253.212 128.952 253.66 128.94 254.155 128.94L256.512 128.94L256.512 134.763C256.512 135.034 256.429 135.104 256.076 135.104C255.816 135.104 255.463 135.069 255.027 135.01C255.145 135.246 255.204 135.434 255.239 135.764C255.486 135.776 255.805 135.788 256.135 135.788C257.03 135.788 257.243 135.599 257.243 134.798L257.243 126.89C257.243 126.383 257.254 126.017 257.301 125.593C256.971 125.628 256.653 125.64 256.064 125.64L254.155 125.64C253.577 125.64 253.282 125.628 252.952 125.593C252.976 125.923 252.988 126.265 252.988 126.713L252.988 127.891ZM253.671 126.194L256.512 126.194L256.512 127.019L253.671 127.019L253.671 126.194ZM253.671 127.55L256.512 127.55L256.512 128.375L253.671 128.375L253.671 127.55Z"/>
<path d="M260.177 128.21C260.389 128.186 260.413 128.186 260.908 128.174C262.24 128.151 263.183 128.092 264.09 127.962C264.385 128.599 264.456 128.728 264.762 129.306C263.796 129.482 262.275 129.6 261.049 129.6C260.578 129.6 260.366 129.589 260.107 129.565L260.13 130.343C260.342 130.319 260.389 130.319 260.955 130.296C263.159 130.225 263.925 130.166 265.092 129.954C265.504 130.673 265.988 131.38 266.353 131.769C265.575 131.521 264.951 131.427 263.972 131.427C261.733 131.427 260.378 132.193 260.378 133.466C260.378 134.079 260.696 134.609 261.262 134.928C261.863 135.269 262.605 135.423 263.689 135.423C264.738 135.423 265.74 135.281 266.707 134.987C267.249 134.822 267.249 134.822 267.414 134.786L267.249 133.867C266.542 134.303 264.986 134.657 263.76 134.657C262.145 134.657 261.25 134.232 261.25 133.454C261.25 132.641 262.346 132.111 264.043 132.111C264.573 132.111 265.174 132.158 265.587 132.217C266.165 132.311 266.436 132.405 266.883 132.665L267.579 132.17C266.671 131.109 266.542 130.944 265.846 129.824C266.282 129.742 266.872 129.612 267.697 129.4C268.086 129.294 268.133 129.294 268.333 129.247L268.239 128.457C267.756 128.693 267.096 128.87 265.54 129.188C265.363 128.87 265.045 128.245 264.868 127.856C265.528 127.75 266.789 127.479 267.838 127.196L267.767 126.43C267.107 126.713 266 126.984 264.621 127.208C264.326 126.583 264.102 125.97 263.996 125.546L263.112 125.699C263.218 125.864 263.454 126.406 263.819 127.314C262.735 127.432 262.016 127.479 261.026 127.479C260.625 127.479 260.425 127.467 260.142 127.443L260.177 128.21Z"/>
<path d="M275.699 128.775L272.729 128.775C272.175 128.775 271.822 128.752 271.48 128.705L271.48 129.53C271.834 129.482 272.258 129.459 272.729 129.459L275.699 129.459L275.699 131.309L272.069 131.309C271.515 131.309 271.162 131.286 270.832 131.239L270.832 132.075C271.185 132.028 271.539 132.005 272.069 132.005L275.699 132.005L275.699 134.598C275.699 134.857 275.582 134.939 275.204 134.939C274.698 134.939 273.943 134.869 273.201 134.739C273.33 135.081 273.378 135.234 273.413 135.552C274.038 135.623 274.721 135.658 275.181 135.658C276.183 135.658 276.465 135.458 276.465 134.727L276.465 132.005L279.836 132.005C280.367 132.005 280.708 132.028 281.074 132.075L281.074 131.239C280.732 131.286 280.378 131.309 279.836 131.309L276.465 131.309L276.465 129.459L279.318 129.459C279.836 129.459 280.237 129.482 280.567 129.53L280.567 128.705C280.225 128.752 279.872 128.775 279.318 128.775L276.465 128.775L276.465 126.795C277.856 126.595 278.174 126.524 280.06 125.994L279.412 125.298C278.834 125.593 277.821 125.864 276.407 126.1C274.827 126.347 273.26 126.477 271.527 126.477C271.704 126.783 271.763 126.901 271.834 127.208C273.33 127.161 274.132 127.102 275.699 126.901L275.699 128.775Z"/>
</g>
<path d="M299.632 218.63C299.632 212.833 304.332 208.133 310.129 208.133C315.926 208.133 320.626 212.833 320.626 218.63C320.626 224.427 315.926 229.127 310.129 229.127C304.332 229.127 299.632 224.427 299.632 218.63Z" fill="#26691a" fill-rule="nonzero" opacity="1" stroke="none" vectornator:layerName="楕円形 27"/>
<path d="M348.141 218.63C348.141 212.833 352.84 208.133 358.637 208.133C364.435 208.133 369.134 212.833 369.134 218.63C369.134 224.427 364.435 229.127 358.637 229.127C352.84 229.127 348.141 224.427 348.141 218.63Z" fill="#26691a" fill-rule="nonzero" opacity="1" stroke="none" vectornator:layerName="楕円形 28"/>
<path d="M271.905 248.924C271.905 243.126 276.605 238.427 282.402 238.427C288.199 238.427 292.899 243.126 292.899 248.924C292.899 254.721 288.199 259.42 282.402 259.42C276.605 259.42 271.905 254.721 271.905 248.924Z" fill="#26691a" fill-rule="nonzero" opacity="1" stroke="none" vectornator:layerName="楕円形 29"/>
<path d="M327.486 248.924C327.486 243.126 332.186 238.427 337.983 238.427C343.78 238.427 348.48 243.126 348.48 248.924C348.48 254.721 343.78 259.42 337.983 259.42C332.186 259.42 327.486 254.721 327.486 248.924Z" fill="#26691a" fill-rule="nonzero" opacity="1" stroke="none" vectornator:layerName="楕円形 30"/>
<path d="M230.183 378.017L390.857 378.017L390.857 391.096L230.183 391.096L230.183 378.017Z" fill="#3395ff" fill-rule="nonzero" opacity="1" stroke="none" vectornator:layerName="長方形 24"/>
<path d="M230.183 408.311L390.857 408.311L390.857 421.39L230.183 421.39L230.183 408.311Z" fill="#3395ff" fill-rule="nonzero" opacity="1" stroke="none" vectornator:layerName="長方形 25"/>
<path d="M230.183 319.965L390.857 319.965L390.857 333.044L230.183 333.044L230.183 319.965Z" fill="#3395ff" fill-rule="nonzero" opacity="1" stroke="none" vectornator:layerName="長方形 26"/>
<path d="M230.183 292.298L390.857 292.298L390.857 305.377L230.183 305.377L230.183 292.298Z" fill="#3395ff" fill-rule="nonzero" opacity="1" stroke="none" vectornator:layerName="長方形 27"/>
<path d="M230.183 350.259L390.857 350.259L390.857 363.338L230.183 363.338L230.183 350.259Z" fill="#3395ff" fill-rule="nonzero" opacity="1" stroke="none" vectornator:layerName="長方形 28"/>
<path d="M300.273 322.797C300.273 317.138 304.861 312.551 310.52 312.551C316.179 312.551 320.766 317.138 320.766 322.797C320.766 328.456 316.179 333.044 310.52 333.044C304.861 333.044 300.273 328.456 300.273 322.797Z" fill="#e94420" fill-rule="nonzero" opacity="1" stroke="none" vectornator:layerName="楕円形 31"/>
<path d="M250.912 367.295C250.912 361.498 255.611 356.798 261.408 356.798C267.206 356.798 271.905 361.498 271.905 367.295C271.905 373.092 267.206 377.792 261.408 377.792C255.611 377.792 250.912 373.092 250.912 367.295Z" fill="#26691a" fill-rule="nonzero" opacity="1" stroke="none" vectornator:layerName="楕円形 32"/>
<path d="M299.632 367.521C299.632 361.723 304.332 357.024 310.129 357.024C315.926 357.024 320.626 361.723 320.626 367.521C320.626 373.318 315.926 378.017 310.129 378.017C304.332 378.017 299.632 373.318 299.632 367.521Z" fill="#26691a" fill-rule="nonzero" opacity="1" stroke="none" vectornator:layerName="楕円形 33"/>
<path d="M348.141 367.521C348.141 361.723 352.84 357.024 358.637 357.024C364.435 357.024 369.134 361.723 369.134 367.521C369.134 373.318 364.435 378.017 358.637 378.017C352.84 378.017 348.141 373.318 348.141 367.521Z" fill="#26691a" fill-rule="nonzero" opacity="1" stroke="none" vectornator:layerName="楕円形 34"/>
<path d="M271.905 397.814C271.905 392.017 276.605 387.318 282.402 387.318C288.199 387.318 292.899 392.017 292.899 397.814C292.899 403.612 288.199 408.311 282.402 408.311C276.605 408.311 271.905 403.612 271.905 397.814Z" fill="#26691a" fill-rule="nonzero" opacity="1" stroke="none" vectornator:layerName="楕円形 35"/>
<path d="M327.486 397.814C327.486 392.017 332.186 387.318 337.983 387.318C343.78 387.318 348.48 392.017 348.48 397.814C348.48 403.612 343.78 408.311 337.983 408.311C332.186 408.311 327.486 403.612 327.486 397.814Z" fill="#26691a" fill-rule="nonzero" opacity="1" stroke="none" vectornator:layerName="楕円形 36"/>
<path d="M230.183 525.437L390.857 525.437L390.857 538.516L230.183 538.516L230.183 525.437Z" fill="#3395ff" fill-rule="nonzero" opacity="1" stroke="none" vectornator:layerName="長方形 29"/>
<path d="M230.183 555.731L390.857 555.731L390.857 568.81L230.183 568.81L230.183 555.731Z" fill="#3395ff" fill-rule="nonzero" opacity="1" stroke="none" vectornator:layerName="長方形 30"/>
<path d="M230.183 467.385L390.857 467.385L390.857 480.464L230.183 480.464L230.183 467.385Z" fill="#3395ff" fill-rule="nonzero" opacity="1" stroke="none" vectornator:layerName="長方形 31"/>
<path d="M230.183 439.718L390.857 439.718L390.857 452.797L230.183 452.797L230.183 439.718Z" fill="#3395ff" fill-rule="nonzero" opacity="1" stroke="none" vectornator:layerName="長方形 32"/>
<path d="M230.183 497.679L390.857 497.679L390.857 510.758L230.183 510.758L230.183 497.679Z" fill="#3395ff" fill-rule="nonzero" opacity="1" stroke="none" vectornator:layerName="長方形 33"/>
<path d="M300.273 470.217C300.273 464.558 304.861 459.971 310.52 459.971C316.179 459.971 320.766 464.558 320.766 470.217C320.766 475.876 316.179 480.464 310.52 480.464C304.861 480.464 300.273 475.876 300.273 470.217Z" fill="#e94420" fill-rule="nonzero" opacity="1" stroke="none" vectornator:layerName="楕円形 37"/>
<path d="M250.912 514.715C250.912 508.918 255.611 504.218 261.408 504.218C267.206 504.218 271.905 508.918 271.905 514.715C271.905 520.512 267.206 525.212 261.408 525.212C255.611 525.212 250.912 520.512 250.912 514.715Z" fill="#26691a" fill-rule="nonzero" opacity="1" stroke="none" vectornator:layerName="楕円形 38"/>
<path d="M299.632 514.941C299.632 509.143 304.332 504.444 310.129 504.444C315.926 504.444 320.626 509.143 320.626 514.941C320.626 520.738 315.926 525.437 310.129 525.437C304.332 525.437 299.632 520.738 299.632 514.941Z" fill="#26691a" fill-rule="nonzero" opacity="1" stroke="none" vectornator:layerName="楕円形 39"/>
<path d="M348.141 514.941C348.141 509.143 352.84 504.444 358.637 504.444C364.435 504.444 369.134 509.143 369.134 514.941C369.134 520.738 364.435 525.437 358.637 525.437C352.84 525.437 348.141 520.738 348.141 514.941Z" fill="#26691a" fill-rule="nonzero" opacity="1" stroke="none" vectornator:layerName="楕円形 40"/>
<path d="M271.905 545.234C271.905 539.437 276.605 534.738 282.402 534.738C288.199 534.738 292.899 539.437 292.899 545.234C292.899 551.032 288.199 555.731 282.402 555.731C276.605 555.731 271.905 551.032 271.905 545.234Z" fill="#26691a" fill-rule="nonzero" opacity="1" stroke="none" vectornator:layerName="楕円形 41"/>
<path d="M327.486 545.234C327.486 539.437 332.186 534.738 337.983 534.738C343.78 534.738 348.48 539.437 348.48 545.234C348.48 551.032 343.78 555.731 337.983 555.731C332.186 555.731 327.486 551.032 327.486 545.234Z" fill="#26691a" fill-rule="nonzero" opacity="1" stroke="none" vectornator:layerName="楕円形 42"/>
<path d="M230.183 670.022L390.857 670.022L390.857 683.101L230.183 683.101L230.183 670.022Z" fill="#3395ff" fill-rule="nonzero" opacity="1" stroke="none" vectornator:layerName="長方形 34"/>
<path d="M230.183 700.316L390.857 700.316L390.857 713.395L230.183 713.395L230.183 700.316Z" fill="#3395ff" fill-rule="nonzero" opacity="1" stroke="none" vectornator:layerName="長方形 35"/>
<path d="M230.183 611.97L390.857 611.97L390.857 625.049L230.183 625.049L230.183 611.97Z" fill="#3395ff" fill-rule="nonzero" opacity="1" stroke="none" vectornator:layerName="長方形 36"/>
<path d="M230.183 584.303L390.857 584.303L390.857 597.382L230.183 597.382L230.183 584.303Z" fill="#3395ff" fill-rule="nonzero" opacity="1" stroke="none" vectornator:layerName="長方形 37"/>
<path d="M230.183 642.264L390.857 642.264L390.857 655.343L230.183 655.343L230.183 642.264Z" fill="#3395ff" fill-rule="nonzero" opacity="1" stroke="none" vectornator:layerName="長方形 38"/>
<path d="M300.273 614.802C300.273 609.143 304.861 604.556 310.52 604.556C316.179 604.556 320.766 609.143 320.766 614.802C320.766 620.461 316.179 625.049 310.52 625.049C304.861 625.049 300.273 620.461 300.273 614.802Z" fill="#e94420" fill-rule="nonzero" opacity="1" stroke="none" vectornator:layerName="楕円形 43"/>
<path d="M250.912 659.3C250.912 653.503 255.611 648.803 261.408 648.803C267.206 648.803 271.905 653.503 271.905 659.3C271.905 665.097 267.206 669.797 261.408 669.797C255.611 669.797 250.912 665.097 250.912 659.3Z" fill="#26691a" fill-rule="nonzero" opacity="1" stroke="none" vectornator:layerName="楕円形 44"/>
<path d="M299.632 659.526C299.632 653.728 304.332 649.029 310.129 649.029C315.926 649.029 320.626 653.728 320.626 659.526C320.626 665.323 315.926 670.022 310.129 670.022C304.332 670.022 299.632 665.323 299.632 659.526Z" fill="#26691a" fill-rule="nonzero" opacity="1" stroke="none" vectornator:layerName="楕円形 45"/>
<path d="M348.141 659.526C348.141 653.728 352.84 649.029 358.637 649.029C364.435 649.029 369.134 653.728 369.134 659.526C369.134 665.323 364.435 670.022 358.637 670.022C352.84 670.022 348.141 665.323 348.141 659.526Z" fill="#26691a" fill-rule="nonzero" opacity="1" stroke="none" vectornator:layerName="楕円形 46"/>
<path d="M271.905 689.819C271.905 684.022 276.605 679.323 282.402 679.323C288.199 679.323 292.899 684.022 292.899 689.819C292.899 695.617 288.199 700.316 282.402 700.316C276.605 700.316 271.905 695.617 271.905 689.819Z" fill="#26691a" fill-rule="nonzero" opacity="1" stroke="none" vectornator:layerName="楕円形 47"/>
<path d="M327.486 689.819C327.486 684.022 332.186 679.323 337.983 679.323C343.78 679.323 348.48 684.022 348.48 689.819C348.48 695.617 343.78 700.316 337.983 700.316C332.186 700.316 327.486 695.617 327.486 689.819Z" fill="#26691a" fill-rule="nonzero" opacity="1" stroke="none" vectornator:layerName="楕円形 48"/>
<path d="M422.963 229.127L583.637 229.127L583.637 242.205L422.963 242.205L422.963 229.127Z" fill="#3395ff" fill-rule="nonzero" opacity="1" stroke="none" vectornator:layerName="長方形 39"/>
<path d="M422.963 259.42L583.637 259.42L583.637 272.499L422.963 272.499L422.963 259.42Z" fill="#3395ff" fill-rule="nonzero" opacity="1" stroke="none" vectornator:layerName="長方形 40"/>
<path d="M422.963 171.075L583.637 171.075L583.637 184.153L422.963 184.153L422.963 171.075Z" fill="#3395ff" fill-rule="nonzero" opacity="1" stroke="none" vectornator:layerName="長方形 41"/>
<path d="M422.963 201.368L583.637 201.368L583.637 214.447L422.963 214.447L422.963 201.368Z" fill="#3395ff" fill-rule="nonzero" opacity="1" stroke="none" vectornator:layerName="長方形 42"/>
<path d="M493.053 173.906C493.053 168.247 497.641 163.66 503.3 163.66C508.959 163.66 513.546 168.247 513.546 173.906C513.546 179.565 508.959 184.153 503.3 184.153C497.641 184.153 493.053 179.565 493.053 173.906Z" fill="#e94420" fill-rule="nonzero" opacity="1" stroke="none" vectornator:layerName="楕円形 49"/>
<path d="M443.692 218.404C443.692 212.607 448.391 207.908 454.188 207.908C459.986 207.908 464.685 212.607 464.685 218.404C464.685 224.202 459.986 228.901 454.188 228.901C448.391 228.901 443.692 224.202 443.692 218.404Z" fill="#26691a" fill-rule="nonzero" opacity="1" stroke="none" vectornator:layerName="楕円形 50"/>
<path d="M492.412 218.63C492.412 212.833 497.112 208.133 502.909 208.133C508.706 208.133 513.406 212.833 513.406 218.63C513.406 224.427 508.706 229.127 502.909 229.127C497.112 229.127 492.412 224.427 492.412 218.63Z" fill="#26691a" fill-rule="nonzero" opacity="1" stroke="none" vectornator:layerName="楕円形 51"/>
<path d="M540.921 218.63C540.921 212.833 545.62 208.133 551.417 208.133C557.215 208.133 561.914 212.833 561.914 218.63C561.914 224.427 557.215 229.127 551.417 229.127C545.62 229.127 540.921 224.427 540.921 218.63Z" fill="#26691a" fill-rule="nonzero" opacity="1" stroke="none" vectornator:layerName="楕円形 52"/>
<path d="M464.685 248.924C464.685 243.126 469.385 238.427 475.182 238.427C480.979 238.427 485.679 243.126 485.679 248.924C485.679 254.721 480.979 259.42 475.182 259.42C469.385 259.42 464.685 254.721 464.685 248.924Z" fill="#26691a" fill-rule="nonzero" opacity="1" stroke="none" vectornator:layerName="楕円形 53"/>
<path d="M520.266 248.924C520.266 243.126 524.966 238.427 530.763 238.427C536.56 238.427 541.26 243.126 541.26 248.924C541.26 254.721 536.56 259.42 530.763 259.42C524.966 259.42 520.266 254.721 520.266 248.924Z" fill="#26691a" fill-rule="nonzero" opacity="1" stroke="none" vectornator:layerName="楕円形 54"/>
<path d="M422.963 378.017L583.637 378.017L583.637 391.096L422.963 391.096L422.963 378.017Z" fill="#3395ff" fill-rule="nonzero" opacity="1" stroke="none" vectornator:layerName="長方形 43"/>
<path d="M422.963 408.311L583.637 408.311L583.637 421.39L422.963 421.39L422.963 408.311Z" fill="#3395ff" fill-rule="nonzero" opacity="1" stroke="none" vectornator:layerName="長方形 44"/>
<path d="M422.963 319.965L583.637 319.965L583.637 333.044L422.963 333.044L422.963 319.965Z" fill="#3395ff" fill-rule="nonzero" opacity="1" stroke="none" vectornator:layerName="長方形 45"/>
<path d="M422.963 292.298L583.637 292.298L583.637 305.377L422.963 305.377L422.963 292.298Z" fill="#3395ff" fill-rule="nonzero" opacity="1" stroke="none" vectornator:layerName="長方形 46"/>
<path d="M422.963 350.259L583.637 350.259L583.637 363.338L422.963 363.338L422.963 350.259Z" fill="#3395ff" fill-rule="nonzero" opacity="1" stroke="none" vectornator:layerName="長方形 47"/>
<path d="M493.053 322.797C493.053 317.138 497.641 312.551 503.3 312.551C508.959 312.551 513.546 317.138 513.546 322.797C513.546 328.456 508.959 333.044 503.3 333.044C497.641 333.044 493.053 328.456 493.053 322.797Z" fill="#e94420" fill-rule="nonzero" opacity="1" stroke="none" vectornator:layerName="楕円形 55"/>
<path d="M443.692 367.295C443.692 361.498 448.391 356.798 454.188 356.798C459.986 356.798 464.685 361.498 464.685 367.295C464.685 373.092 459.986 377.792 454.188 377.792C448.391 377.792 443.692 373.092 443.692 367.295Z" fill="#26691a" fill-rule="nonzero" opacity="1" stroke="none" vectornator:layerName="楕円形 56"/>
<path d="M492.412 367.521C492.412 361.723 497.112 357.024 502.909 357.024C508.706 357.024 513.406 361.723 513.406 367.521C513.406 373.318 508.706 378.017 502.909 378.017C497.112 378.017 492.412 373.318 492.412 367.521Z" fill="#26691a" fill-rule="nonzero" opacity="1" stroke="none" vectornator:layerName="楕円形 57"/>
<path d="M540.921 367.521C540.921 361.723 545.62 357.024 551.417 357.024C557.215 357.024 561.914 361.723 561.914 367.521C561.914 373.318 557.215 378.017 551.417 378.017C545.62 378.017 540.921 373.318 540.921 367.521Z" fill="#26691a" fill-rule="nonzero" opacity="1" stroke="none" vectornator:layerName="楕円形 58"/>
<path d="M464.685 397.814C464.685 392.017 469.385 387.318 475.182 387.318C480.979 387.318 485.679 392.017 485.679 397.814C485.679 403.612 480.979 408.311 475.182 408.311C469.385 408.311 464.685 403.612 464.685 397.814Z" fill="#26691a" fill-rule="nonzero" opacity="1" stroke="none" vectornator:layerName="楕円形 59"/>
<path d="M520.266 397.814C520.266 392.017 524.966 387.318 530.763 387.318C536.56 387.318 541.26 392.017 541.26 397.814C541.26 403.612 536.56 408.311 530.763 408.311C524.966 408.311 520.266 403.612 520.266 397.814Z" fill="#26691a" fill-rule="nonzero" opacity="1" stroke="none" vectornator:layerName="楕円形 60"/>
<path d="M422.963 525.437L583.637 525.437L583.637 538.516L422.963 538.516L422.963 525.437Z" fill="#3395ff" fill-rule="nonzero" opacity="1" stroke="none" vectornator:layerName="長方形 48"/>
<path d="M422.963 555.731L583.637 555.731L583.637 568.81L422.963 568.81L422.963 555.731Z" fill="#3395ff" fill-rule="nonzero" opacity="1" stroke="none" vectornator:layerName="長方形 49"/>
<path d="M422.963 467.385L583.637 467.385L583.637 480.464L422.963 480.464L422.963 467.385Z" fill="#3395ff" fill-rule="nonzero" opacity="1" stroke="none" vectornator:layerName="長方形 50"/>
<path d="M422.963 439.718L583.637 439.718L583.637 452.797L422.963 452.797L422.963 439.718Z" fill="#3395ff" fill-rule="nonzero" opacity="1" stroke="none" vectornator:layerName="長方形 51"/>
<path d="M422.963 497.679L583.637 497.679L583.637 510.758L422.963 510.758L422.963 497.679Z" fill="#3395ff" fill-rule="nonzero" opacity="1" stroke="none" vectornator:layerName="長方形 52"/>
<path d="M493.053 470.217C493.053 464.558 497.641 459.971 503.3 459.971C508.959 459.971 513.546 464.558 513.546 470.217C513.546 475.876 508.959 480.464 503.3 480.464C497.641 480.464 493.053 475.876 493.053 470.217Z" fill="#e94420" fill-rule="nonzero" opacity="1" stroke="none" vectornator:layerName="楕円形 61"/>
<path d="M443.692 514.715C443.692 508.918 448.391 504.218 454.188 504.218C459.986 504.218 464.685 508.918 464.685 514.715C464.685 520.512 459.986 525.212 454.188 525.212C448.391 525.212 443.692 520.512 443.692 514.715Z" fill="#26691a" fill-rule="nonzero" opacity="1" stroke="none" vectornator:layerName="楕円形 62"/>
<path d="M492.412 514.941C492.412 509.143 497.112 504.444 502.909 504.444C508.706 504.444 513.406 509.143 513.406 514.941C513.406 520.738 508.706 525.437 502.909 525.437C497.112 525.437 492.412 520.738 492.412 514.941Z" fill="#26691a" fill-rule="nonzero" opacity="1" stroke="none" vectornator:layerName="楕円形 63"/>
<path d="M540.921 514.941C540.921 509.143 545.62 504.444 551.417 504.444C557.215 504.444 561.914 509.143 561.914 514.941C561.914 520.738 557.215 525.437 551.417 525.437C545.62 525.437 540.921 520.738 540.921 514.941Z" fill="#26691a" fill-rule="nonzero" opacity="1" stroke="none" vectornator:layerName="楕円形 64"/>
<path d="M464.685 545.234C464.685 539.437 469.385 534.738 475.182 534.738C480.979 534.738 485.679 539.437 485.679 545.234C485.679 551.032 480.979 555.731 475.182 555.731C469.385 555.731 464.685 551.032 464.685 545.234Z" fill="#26691a" fill-rule="nonzero" opacity="1" stroke="none" vectornator:layerName="楕円形 65"/>
<path d="M520.266 545.234C520.266 539.437 524.966 534.738 530.763 534.738C536.56 534.738 541.26 539.437 541.26 545.234C541.26 551.032 536.56 555.731 530.763 555.731C524.966 555.731 520.266 551.032 520.266 545.234Z" fill="#26691a" fill-rule="nonzero" opacity="1" stroke="none" vectornator:layerName="楕円形 66"/>
<path d="M422.963 670.022L583.637 670.022L583.637 683.101L422.963 683.101L422.963 670.022Z" fill="#3395ff" fill-rule="nonzero" opacity="1" stroke="none" vectornator:layerName="長方形 53"/>
<path d="M422.963 700.316L583.637 700.316L583.637 713.395L422.963 713.395L422.963 700.316Z" fill="#3395ff" fill-rule="nonzero" opacity="1" stroke="none" vectornator:layerName="長方形 54"/>
<path d="M422.963 611.97L583.637 611.97L583.637 625.049L422.963 625.049L422.963 611.97Z" fill="#3395ff" fill-rule="nonzero" opacity="1" stroke="none" vectornator:layerName="長方形 55"/>
<path d="M422.963 584.303L583.637 584.303L583.637 597.382L422.963 597.382L422.963 584.303Z" fill="#3395ff" fill-rule="nonzero" opacity="1" stroke="none" vectornator:layerName="長方形 56"/>
<path d="M422.963 642.264L583.637 642.264L583.637 655.343L422.963 655.343L422.963 642.264Z" fill="#3395ff" fill-rule="nonzero" opacity="1" stroke="none" vectornator:layerName="長方形 57"/>
<path d="M142.368 31.4936L485.679 31.4936L485.679 52.0594L142.368 52.0594L142.368 31.4936Z" fill="#010fa0" fill-rule="nonzero" opacity="1" stroke="none" vectornator:layerName="長方形 58"/>
<path d="M65.7934 82.5764L125.011 82.5764L125.011 117.737L65.7934 117.737L65.7934 82.5764Z" fill="#010fa0" fill-rule="nonzero" opacity="1" stroke="none" vectornator:layerName="長方形 59"/>
<path d="M47.4405 182.276L44.8272 174.671L42.0498 182.276L47.4405 182.276ZM43.6084 172.116L46.2452 172.116L52.4913 189.331L49.9366 189.331L48.1905 184.175L41.3819 184.175L39.5186 189.331L37.128 189.331L43.6084 172.116Z" fill="#010fa0" opacity="1" stroke="none" vectornator:layerName="テキスト 1"/>
<path d="M44.165 323.106C45.1493 323.106 45.915 322.97 46.4618 322.696C47.3212 322.266 47.7509 321.493 47.7509 320.376C47.7509 319.251 47.2939 318.493 46.3798 318.102C45.8642 317.884 45.0986 317.774 44.0829 317.774L39.9228 317.774L39.9228 323.106L44.165 323.106ZM44.9501 331.052C46.3798 331.052 47.3993 330.637 48.0087 329.809C48.3915 329.286 48.5829 328.653 48.5829 327.911C48.5829 326.661 48.0243 325.809 46.9072 325.356C46.3134 325.114 45.5282 324.993 44.5517 324.993L39.9228 324.993L39.9228 331.052L44.9501 331.052ZM37.6376 315.829L45.0322 315.829C47.0478 315.829 48.4814 316.43 49.3329 317.634C49.8329 318.345 50.0829 319.165 50.0829 320.095C50.0829 321.18 49.7743 322.071 49.1572 322.766C48.8368 323.134 48.3759 323.47 47.7743 323.774C48.6572 324.11 49.3173 324.489 49.7548 324.911C50.5282 325.661 50.915 326.696 50.915 328.016C50.915 329.126 50.5673 330.13 49.872 331.028C48.8329 332.372 47.1806 333.044 44.915 333.044L37.6376 333.044L37.6376 315.829Z" fill="#010fa0" opacity="1" stroke="none" vectornator:layerName="テキスト 2"/>
<path d="M45.1503 457.675C47.33 457.675 49.0214 458.249 50.2245 459.398C51.4276 460.546 52.0956 461.851 52.2284 463.312L49.955 463.312C49.6972 462.202 49.1835 461.324 48.414 460.675C47.6444 460.027 46.5644 459.702 45.1737 459.702C43.4784 459.702 42.1093 460.298 41.0663 461.49C40.0233 462.681 39.5019 464.507 39.5019 466.968C39.5019 468.984 39.9726 470.619 40.914 471.872C41.8554 473.126 43.2597 473.753 45.1269 473.753C46.8456 473.753 48.1542 473.093 49.0526 471.773C49.5292 471.077 49.8847 470.163 50.1191 469.031L52.3925 469.031C52.1894 470.843 51.5175 472.363 50.3769 473.589C49.0097 475.066 47.1659 475.804 44.8456 475.804C42.8456 475.804 41.1659 475.199 39.8066 473.988C38.0175 472.386 37.123 469.913 37.123 466.57C37.123 464.031 37.7948 461.949 39.1386 460.324C40.5917 458.558 42.5956 457.675 45.1503 457.675Z" fill="#010fa0" opacity="1" stroke="none" vectornator:layerName="テキスト 3"/>
<path d="M45.2139 621.695C46.003 621.695 46.6514 621.613 47.1592 621.449C48.0655 621.144 48.8077 620.559 49.3858 619.691C49.8467 618.996 50.1788 618.105 50.3819 617.019C50.4991 616.371 50.5577 615.769 50.5577 615.215C50.5577 613.082 50.1338 611.426 49.2862 610.246C48.4385 609.066 47.0733 608.477 45.1905 608.477L41.0538 608.477L41.0538 621.695L45.2139 621.695ZM38.71 606.473L45.6827 606.473C48.0498 606.473 49.8858 607.312 51.1905 608.992C52.3545 610.508 52.9366 612.449 52.9366 614.816C52.9366 616.644 52.5928 618.297 51.9053 619.773C50.6944 622.383 48.6123 623.687 45.6592 623.687L38.71 623.687L38.71 606.473Z" fill="#010fa0" opacity="1" stroke="none" vectornator:layerName="テキスト 4"/>
<path d="M237.277 172.116L249.828 172.116L249.828 174.225L239.551 174.225L239.551 179.452L249.055 179.452L249.055 181.444L239.551 181.444L239.551 187.28L250.004 187.28L250.004 189.331L237.277 189.331L237.277 172.116Z" fill="#010fa0" opacity="1" stroke="none" vectornator:layerName="テキスト 5"/>
<path d="M236.369 315.829L248.31 315.829L248.31 317.938L238.701 317.938L238.701 323.165L247.15 323.165L247.15 325.216L238.701 325.216L238.701 333.044L236.369 333.044L236.369 315.829Z" fill="#010fa0" opacity="1" stroke="none" vectornator:layerName="テキスト 6"/>
<path d="M243.788 457.699C245.405 457.699 246.803 458.011 247.983 458.636C249.694 459.535 250.741 461.109 251.124 463.359L248.815 463.359C248.534 462.101 247.952 461.185 247.069 460.611C246.186 460.036 245.073 459.749 243.729 459.749C242.135 459.749 240.794 460.347 239.704 461.542C238.614 462.738 238.069 464.519 238.069 466.886C238.069 468.933 238.518 470.599 239.417 471.884C240.315 473.169 241.78 473.812 243.811 473.812C245.366 473.812 246.653 473.361 247.673 472.458C248.692 471.556 249.214 470.097 249.237 468.081L243.846 468.081L243.846 466.148L251.405 466.148L251.405 475.359L249.905 475.359L249.342 473.144C248.553 474.011 247.854 474.613 247.245 474.949C246.221 475.527 244.921 475.816 243.342 475.816C241.303 475.816 239.55 475.156 238.081 473.835C236.479 472.179 235.678 469.906 235.678 467.015C235.678 464.132 236.46 461.839 238.022 460.136C239.507 458.511 241.428 457.699 243.788 457.699Z" fill="#010fa0" opacity="1" stroke="none" vectornator:layerName="テキスト 7"/>
<path d="M237.113 606.473L239.469 606.473L239.469 613.586L248.422 613.586L248.422 606.473L250.777 606.473L250.777 623.687L248.422 623.687L248.422 615.637L239.469 615.637L239.469 623.687L237.113 623.687L237.113 606.473Z" fill="#010fa0" opacity="1" stroke="none" vectornator:layerName="テキスト 8"/>
<path d="M438.284 184.198C438.284 185.651 438.069 186.78 437.639 187.585C436.842 189.054 435.327 189.788 433.092 189.788C431.803 189.788 430.702 189.438 429.788 188.739C428.874 188.04 428.417 186.796 428.417 185.007L428.417 183.776L430.608 183.776L430.608 185.007C430.608 185.944 430.817 186.649 431.235 187.122C431.653 187.595 432.303 187.831 433.186 187.831C434.428 187.831 435.241 187.405 435.624 186.554C435.858 186.03 435.975 185.042 435.975 183.589L435.975 172.116L438.284 172.116L438.284 184.198Z" fill="#010fa0" opacity="1" stroke="none" vectornator:layerName="テキスト 9"/>
<path d="M428.926 315.829L431.2 315.829L431.2 324.22L439.59 315.829L442.813 315.829L435.653 322.766L443.012 333.044L439.977 333.044L433.954 324.407L431.2 327.044L431.2 333.044L428.926 333.044L428.926 315.829Z" fill="#010fa0" opacity="1" stroke="none" vectornator:layerName="テキスト 10"/>
<path d="M429.126 458.144L431.458 458.144L431.458 473.308L440.177 473.308L440.177 475.359L429.126 475.359L429.126 458.144Z" fill="#010fa0" opacity="1" stroke="none" vectornator:layerName="テキスト 11"/>
<g fill="#26691a" opacity="1" stroke="none" vectornator:layerName="テキスト 12">
<path d="M302.436 62.5714L302.436 64.6114L296.316 64.6114C295.332 64.6114 294.78 64.5874 294.228 64.4914L294.228 66.0274C294.804 65.9314 295.356 65.9074 296.316 65.9074L302.436 65.9074L302.436 68.1154L294.972 68.1154C293.964 68.1154 293.316 68.0674 292.668 67.9714L292.668 69.5794C293.388 69.4834 294.06 69.4354 294.972 69.4354L311.556 69.4354C312.492 69.4354 313.164 69.4834 313.908 69.5794L313.908 67.9714C313.236 68.0674 312.588 68.1154 311.556 68.1154L303.852 68.1154L303.852 65.9074L310.332 65.9074C311.292 65.9074 311.82 65.9314 312.42 66.0274L312.42 64.4914C311.82 64.5874 311.34 64.6114 310.308 64.6114L303.852 64.6114L303.852 62.5714L308.82 62.5714C310.26 62.5714 310.74 62.5954 311.604 62.6914C311.532 61.9474 311.508 61.4674 311.508 60.0514L311.508 56.4754C311.508 55.0834 311.532 54.6274 311.604 53.8594C310.98 53.9794 310.308 54.0034 308.844 54.0034L297.732 54.0034C296.364 54.0034 295.644 53.9554 295.044 53.8594C295.116 54.6274 295.14 55.1074 295.14 56.5474L295.14 60.0514C295.14 61.4434 295.116 61.9474 295.044 62.6914C295.908 62.5954 296.388 62.5714 297.876 62.5714L302.436 62.5714ZM303.852 57.6034L303.852 55.2514L310.044 55.2514L310.044 57.6034L303.852 57.6034ZM302.436 57.6034L296.604 57.6034L296.604 55.2514L302.436 55.2514L302.436 57.6034ZM303.852 61.3234L303.852 58.8274L310.044 58.8274L310.044 61.3234L303.852 61.3234ZM302.436 61.3234L296.604 61.3234L296.604 58.8274L302.436 58.8274L302.436 61.3234ZM296.004 69.9154C295.212 71.5714 294.492 72.4594 292.86 73.8274L294.036 74.9074C295.596 73.3954 296.316 72.4594 297.3 70.5874L296.004 69.9154ZM299.604 70.4914C299.964 71.9074 300.108 73.0354 300.156 74.7154L301.62 74.5234C301.5 72.7954 301.332 71.6674 300.948 70.2994L299.604 70.4914ZM304.524 70.5874C305.172 71.9074 305.484 72.8674 305.916 74.6674L307.356 74.2834C306.924 72.6514 306.516 71.6434 305.82 70.2274L304.524 70.5874ZM309.132 70.6834C310.5 72.1474 311.244 73.1554 312.252 74.9074L313.548 73.9474C312.324 72.1954 311.796 71.5234 310.308 69.9394L309.132 70.6834Z"/>
<path d="M327.156 60.1234C327.18 59.3794 327.18 58.8994 327.18 57.9634L327.18 55.8994L335.628 55.8994C336.684 55.8994 337.284 55.9234 337.932 56.0194L337.932 54.3634C337.26 54.4594 336.564 54.5074 335.58 54.5074L328.14 54.5074C327.204 54.5074 326.436 54.4834 325.596 54.3874C325.668 55.2514 325.692 55.8274 325.692 57.5794C325.692 63.3154 325.38 66.8674 324.636 69.4114C324.108 71.2354 323.532 72.3874 322.428 73.8514C323.052 74.1874 323.388 74.4274 323.796 74.8354C325.044 72.9874 325.812 71.1634 326.34 68.8114C326.748 66.9634 326.988 64.8034 327.108 61.4674L328.188 61.4674C328.74 64.5634 329.556 66.6994 331.116 69.0514C329.436 71.0194 327.78 72.2674 325.332 73.4674C325.812 73.8994 326.052 74.2114 326.364 74.7394C328.86 73.3954 330.276 72.2434 332.028 70.2754C333.516 72.1474 334.692 73.1554 337.236 74.7394C337.596 74.0914 337.812 73.8034 338.268 73.2994C335.772 71.9794 334.476 70.9474 332.94 69.0994C334.5 66.9634 335.436 65.0434 336.42 61.9474C336.66 61.1554 336.684 61.1314 336.78 60.8674L336.012 60.0034C335.604 60.0994 335.004 60.1234 334.02 60.1234L327.156 60.1234ZM334.98 61.4674C334.212 64.2034 333.444 65.8834 332.052 67.8514C330.732 65.8114 330.108 64.1314 329.652 61.4674L334.98 61.4674ZM320.22 57.9634L318.54 57.9634C317.748 57.9634 317.196 57.9394 316.812 57.8674L316.812 59.3554C317.244 59.2834 317.844 59.2594 318.54 59.2594L320.028 59.2594C319.212 62.6914 317.94 65.4994 316.284 67.5154C316.692 67.9474 316.932 68.3554 317.22 68.9074C318.012 67.7794 318.372 67.1554 318.9 65.9794C319.524 64.5874 319.788 63.8194 320.388 61.4914C320.292 63.5794 320.244 64.8754 320.244 65.3794L320.244 72.1954C320.244 73.4434 320.196 74.3074 320.076 74.9794L321.828 74.9794C321.732 74.2834 321.684 73.5154 321.684 72.1954L321.684 64.9714C321.684 64.1314 321.636 62.2114 321.588 61.0114C322.26 63.0274 322.764 64.0594 323.772 65.5234C324.012 64.9954 324.18 64.7074 324.612 64.1554C323.796 63.2434 323.388 62.6674 322.836 61.6594C322.356 60.7474 322.02 60.0034 321.78 59.2594L323.076 59.2594C323.628 59.2594 324.084 59.2834 324.564 59.3314L324.564 57.8674C324.132 57.9394 323.7 57.9634 323.004 57.9634L321.684 57.9634L321.684 55.5154C321.684 54.2914 321.708 53.6674 321.804 53.0674L320.1 53.0674C320.196 53.6434 320.22 54.1714 320.22 55.5394L320.22 57.9634Z"/>
</g>
<g fill="#26691a" opacity="1" stroke="none" vectornator:layerName="テキスト 13">
<path d="M73.1616 118.953C73.0922 119.356 73.0228 119.578 72.6759 120.424C72.1901 121.632 71.6904 122.631 71.0381 123.658C69.4836 122.52 68.7897 122.062 67.4295 121.243L66.7355 121.979C67.9014 122.617 69.206 123.478 70.4691 124.491C68.9423 126.545 67.1658 128.044 64.9451 129.127C65.306 129.418 65.417 129.543 65.6668 129.959C68.0957 128.585 69.789 127.128 71.2463 125.129C72.6481 126.309 73.5364 127.197 74.272 128.141L75.0492 127.281C73.9389 126.129 73.0506 125.282 71.857 124.297C72.5648 123.214 72.9951 122.367 73.8972 120.244C74.0915 119.786 74.1471 119.661 74.3275 119.397L73.1616 118.953Z"/>
<path d="M88.4011 123.686C89.2755 123.686 89.5669 123.7 89.9972 123.755L89.9972 122.728C89.5392 122.798 89.2755 122.811 88.3872 122.811L80.2678 122.811C79.3934 122.811 79.1158 122.798 78.6578 122.728L78.6578 123.755C79.0881 123.7 79.3795 123.686 80.2539 123.686L84.0152 123.686C83.9042 126.85 82.8216 128.335 79.9486 129.293C80.2817 129.612 80.4205 129.793 80.6009 130.195C83.7376 128.974 84.9035 127.281 85.0701 123.686L88.4011 123.686ZM80.0596 120.341C80.4483 120.285 80.6842 120.272 81.6419 120.272L85.8612 120.272C86.7356 120.285 87.263 120.299 87.4434 120.313L87.4434 119.314C86.9576 119.369 86.5968 119.383 85.8473 119.383L81.6558 119.383C80.7536 119.383 80.476 119.369 80.0596 119.286L80.0596 120.341ZM87.4989 118.453C87.8875 118.898 88.526 119.952 88.8452 120.702L89.5531 120.313C89.1644 119.494 88.7897 118.884 88.1929 118.12L87.4989 118.453ZM89.2061 117.94C89.7196 118.592 90.2748 119.508 90.5524 120.174L91.2602 119.786C90.83 118.911 90.4969 118.37 89.9 117.593L89.2061 117.94Z"/>
<path d="M100.296 121.188C100.087 121.507 99.9348 121.687 99.5184 122.09C98.3386 123.269 97.0756 124.199 95.5489 124.977C94.5357 125.518 93.7168 125.823 92.3289 126.198C92.5926 126.531 92.6759 126.67 92.8147 127.031C94.5357 126.503 95.7155 125.976 97.0756 125.115L97.0756 129.238C97.0756 129.932 97.0617 130.112 97.0201 130.445L98.1027 130.445C98.0472 130.098 98.0333 129.765 98.0333 129.224L98.0333 124.532C99.3796 123.492 100.074 122.867 100.823 122.09C100.976 121.923 101.003 121.882 101.156 121.771L100.296 121.188Z"/>
<path d="M115.355 119.494C115.105 119.591 115.105 119.591 114.175 119.591L106.722 119.591C105.931 119.591 105.542 119.564 105.07 119.494L105.07 120.563C105.584 120.508 105.944 120.494 106.708 120.494L114.591 120.494C114.189 121.285 113.675 121.965 113.037 122.562C112.384 123.172 111.815 123.505 110.844 123.88C111.205 124.199 111.316 124.324 111.524 124.671C113.328 123.839 114.619 122.576 115.577 120.716C115.743 120.383 115.771 120.341 115.91 120.161L115.355 119.494ZM109.303 121.909C109.345 122.173 109.359 122.27 109.359 122.659C109.359 125.365 108.817 126.781 107.346 127.961C106.625 128.557 105.931 128.904 104.806 129.238C105.139 129.585 105.237 129.723 105.445 130.167C107.124 129.529 108.151 128.835 108.998 127.766C109.942 126.573 110.33 125.199 110.372 122.881C110.386 122.159 110.386 122.159 110.427 121.909L109.303 121.909Z"/>
<path d="M123.53 126.365L123.53 127.641L119.491 127.641C118.797 127.641 118.269 127.614 117.936 127.558L117.936 128.557C118.38 128.488 118.894 128.46 119.477 128.46L123.53 128.46L123.53 129.362C123.53 130.015 123.502 130.403 123.432 130.875L124.501 130.875C124.432 130.417 124.404 130.056 124.404 129.362L124.404 128.46L128.651 128.46C129.206 128.46 129.706 128.488 130.233 128.557L130.233 127.558C129.789 127.614 129.317 127.641 128.665 127.641L124.404 127.641L124.404 126.365L127.388 126.365C127.999 126.365 128.332 126.378 128.762 126.42C128.72 126.045 128.707 125.74 128.707 125.171L128.707 122.756C128.707 122.173 128.72 121.826 128.762 121.479C128.387 121.521 128.04 121.535 127.388 121.535L124.251 121.535L124.251 120.258L128.248 120.258C128.79 120.258 129.262 120.285 129.678 120.341L129.678 119.383C129.248 119.453 128.762 119.48 128.262 119.48L124.251 119.48C124.251 118.898 124.279 118.551 124.335 118.134L123.294 118.134C123.349 118.564 123.377 118.995 123.377 119.55L123.377 121.535L120.768 121.535C120.101 121.535 119.768 121.521 119.394 121.479C119.435 121.84 119.449 122.201 119.449 122.756L119.449 125.171C119.449 125.712 119.435 126.031 119.394 126.42C119.824 126.378 120.157 126.365 120.768 126.365L123.53 126.365ZM127.832 122.27L127.832 123.533L120.323 123.533L120.323 122.27L127.832 122.27ZM127.832 124.269L127.832 125.629L120.323 125.629L120.323 124.269L127.832 124.269Z"/>
</g>
<g fill="#26691a" opacity="1" stroke="none" vectornator:layerName="テキスト 15">
<path d="M248.858 110.6C248.327 110.6 247.989 110.576 247.663 110.528L247.663 111.348C248.025 111.3 248.351 111.276 248.858 111.276L250.644 111.276C250.415 112.218 250.028 112.785 249.244 113.328C248.665 113.726 248.266 113.919 247.397 114.185C247.663 114.438 247.796 114.583 247.965 114.873C248.568 114.644 248.834 114.523 249.172 114.318C249.715 113.992 250.222 113.569 250.547 113.171C250.97 112.664 251.235 112.085 251.404 111.276L253.42 111.276L253.42 113.762C253.42 114.499 253.758 114.668 255.255 114.668C256.558 114.668 257.089 114.571 257.343 114.281C257.584 114.028 257.729 113.569 257.874 112.688C257.608 112.628 257.403 112.543 257.102 112.338C257.029 113.099 256.933 113.533 256.788 113.702C256.619 113.895 256.281 113.956 255.339 113.956C254.929 113.956 254.555 113.931 254.41 113.883C254.217 113.823 254.168 113.75 254.168 113.557L254.168 111.276L256.317 111.276C256.824 111.276 257.174 111.3 257.524 111.348L257.524 110.528C257.198 110.576 256.86 110.6 256.317 110.6L254.168 110.6L254.168 108.862L254.374 108.862C254.796 108.862 255.086 108.874 255.4 108.91L255.4 108.331C256.184 108.91 256.667 109.2 257.705 109.695C257.886 109.357 257.971 109.224 258.176 108.995C257.162 108.597 256.679 108.343 255.907 107.8C256.329 107.426 256.607 107.16 256.908 106.822C257.367 106.315 257.367 106.315 257.488 106.183L256.824 105.748C256.534 106.243 256.015 106.834 255.388 107.414C254.989 107.076 254.7 106.81 254.362 106.472C254.844 106.038 255.146 105.712 255.605 105.169C255.713 105.036 255.75 104.988 255.858 104.891L255.194 104.456C254.965 104.879 254.446 105.519 253.939 106.001C253.372 105.35 253.094 104.831 253.01 104.36C252.768 104.396 252.491 104.408 251.936 104.408L249.642 104.408C249.256 104.408 248.978 104.384 248.773 104.348L248.773 105.12C249.099 105.072 249.353 105.06 249.558 105.06L251.839 105.06C251.272 105.965 251.079 106.195 250.318 106.943C249.727 106.351 249.268 105.953 248.532 105.386L247.965 105.857C248.701 106.376 249.051 106.677 249.787 107.438C248.93 108.174 248.218 108.597 247.035 109.079C247.24 109.272 247.361 109.429 247.518 109.707C248.568 109.224 249.087 108.922 249.86 108.319L249.86 108.91C250.161 108.874 250.439 108.862 250.849 108.862C250.849 109.767 250.825 110.069 250.765 110.6L248.858 110.6ZM253.42 108.862L253.42 110.6L251.525 110.6C251.586 110.069 251.586 110.069 251.61 108.862L253.42 108.862ZM250.946 108.21C250.523 108.21 250.318 108.198 250.041 108.174C251.127 107.269 251.803 106.472 252.599 105.169C253.227 106.339 253.939 107.16 255.194 108.174C254.941 108.198 254.748 108.21 254.337 108.21L250.946 108.21Z"/>
<path d="M262.545 113.702C261.797 113.847 261.29 113.907 260.759 113.931L260.964 114.776C261.121 114.728 261.338 114.68 261.531 114.632C263.318 114.281 264.44 114.004 266.009 113.557L266.009 112.821C264.778 113.183 264.259 113.328 263.281 113.545L263.281 110.721C263.861 110.226 263.969 110.117 264.452 109.598L264.585 109.598C265.647 112.036 267.095 113.449 269.763 114.656C269.908 114.39 270.053 114.173 270.282 113.931C268.906 113.412 267.94 112.857 267.083 112.061C267.759 111.554 268.327 111.059 268.834 110.564C268.99 110.407 268.99 110.407 269.075 110.335L268.375 109.864C267.989 110.371 267.397 110.938 266.601 111.554C266.009 110.866 265.744 110.455 265.345 109.598L268.713 109.598C269.232 109.598 269.654 109.622 270.028 109.671L270.028 108.85C269.727 108.898 269.353 108.922 268.713 108.922L264.935 108.922L264.935 107.752L267.614 107.752C268.339 107.752 268.604 107.764 268.894 107.8L268.894 107.027C268.604 107.064 268.327 107.076 267.614 107.076L264.935 107.076L264.935 105.941L268.278 105.941C268.882 105.941 269.244 105.953 269.582 106.001L269.582 105.205C269.256 105.253 268.87 105.277 268.254 105.277L264.935 105.277L264.935 105C264.935 104.505 264.947 104.275 265.007 103.95L264.126 103.95C264.175 104.239 264.199 104.481 264.199 105L264.199 105.277L261.097 105.277C260.493 105.277 260.107 105.253 259.793 105.205L259.793 106.001C260.107 105.953 260.481 105.941 261.073 105.941L264.199 105.941L264.199 107.076L261.7 107.076C261.024 107.076 260.747 107.064 260.469 107.027L260.469 107.8C260.735 107.764 261.012 107.752 261.7 107.752L264.199 107.752L264.199 108.922L260.638 108.922C259.95 108.922 259.612 108.91 259.298 108.85L259.298 109.671C259.66 109.622 260.095 109.598 260.638 109.598L263.547 109.598C262.461 110.721 261.012 111.59 259.19 112.218C259.443 112.507 259.564 112.676 259.672 112.905C260.964 112.326 261.592 111.976 262.545 111.3L262.545 113.702Z"/>
<path d="M276.727 108.355C274.929 109.538 273.324 110.323 271.163 111.059C271.38 111.288 271.501 111.481 271.634 111.747C272.648 111.324 273.312 111.035 273.999 110.673C273.987 110.974 273.987 111.288 273.987 111.542L273.987 113.593C273.987 114.137 273.963 114.475 273.915 114.837L274.76 114.837L274.76 114.269L279.745 114.269L279.745 114.837L280.578 114.837C280.529 114.511 280.517 114.197 280.517 113.593L280.517 110.89C280.517 110.19 280.517 109.912 280.566 109.562C280.143 109.598 279.829 109.61 279.25 109.61L277.174 109.61C276.836 109.61 276.558 109.61 275.919 109.635C276.631 109.2 277.174 108.85 277.862 108.355L280.71 108.355C281.229 108.355 281.652 108.379 282.038 108.428L282.038 107.595C281.712 107.643 281.362 107.667 280.747 107.667L278.767 107.667C279.793 106.81 280.445 106.17 281.109 105.374C281.266 105.181 281.338 105.096 281.483 104.939L280.771 104.469C280.312 105.35 279.069 106.665 277.729 107.667L276.643 107.667L276.643 106.158L277.802 106.158C278.453 106.158 278.767 106.17 279.093 106.219L279.093 105.422C278.779 105.47 278.405 105.495 277.765 105.495L276.643 105.495L276.643 105.072C276.643 104.529 276.655 104.227 276.715 103.925L275.81 103.925C275.858 104.275 275.882 104.553 275.882 105.072L275.882 105.495L273.951 105.495C273.299 105.495 272.925 105.47 272.636 105.422L272.636 106.219C272.998 106.17 273.324 106.158 273.939 106.158L275.882 106.158L275.882 107.667L272.841 107.667C272.165 107.667 271.791 107.643 271.501 107.595L271.501 108.428C271.887 108.379 272.286 108.355 272.829 108.355L276.727 108.355ZM274.76 110.262L279.757 110.262L279.757 111.542L274.76 111.542L274.76 110.262ZM274.76 112.193L279.757 112.193L279.757 113.618L274.76 113.618L274.76 112.193Z"/>
</g>
</g>
</svg>
